<svg width="200" height="200" viewBox="0 0 200 200" fill="none" xmlns="http://www.w3.org/2000/svg">
<g clip-path="url(#clip0_729_5695)">
<rect width="200" height="200" rx="100" fill="#FBEEBF"/>
<g clip-path="url(#clip1_729_5695)">
<mask id="mask0_729_5695" style="mask-type:luminance" maskUnits="userSpaceOnUse" x="-10" y="0" width="210" height="210">
<path d="M95 210C152.99 210 200 162.99 200 105C200 47.0101 152.99 0 95 0C37.0101 0 -10 47.0101 -10 105C-10 162.99 37.0101 210 95 210Z" fill="white"/>
</mask>
<g mask="url(#mask0_729_5695)">
<path d="M-9.49767 128.122C-10.567 132.209 -11.1255 136.187 -11.1255 140.341C-11.1255 178.437 35.8232 209.343 93.7375 209.343C151.652 209.343 198.601 178.425 198.601 140.33C198.601 136.176 198.042 132.209 196.973 128.122H-9.49767Z" fill="url(#paint0_linear_729_5695)"/>
<path d="M169.413 69.788C167.521 69.5799 165.92 69.7432 165.247 70.5665L141.495 84.5849C139.803 86.6546 142.052 90.2949 139.979 89.2172L133.878 86.9888C131.92 85.9703 129.747 86.4526 128.078 88.2754L117.921 99.3727C116.012 101.458 113.469 101.768 111.355 100.173L107.257 97.0835C107.293 100.985 107.33 104.886 107.368 108.788L194.56 127.201L204.591 107.284C195.455 97.7048 186.356 84.4391 181.834 77.5298C179.028 73.2423 174.496 70.3463 169.416 69.7873L169.413 69.788Z" fill="url(#paint1_linear_729_5695)"/>
<path d="M208.221 126.942L195.03 109.432L189.743 98.3041C188.984 96.706 187.829 96.062 186.749 96.6346L185.517 97.2871L171.75 82.554C170.299 81.0015 168.587 80.6537 167.002 81.5894L155.619 88.3103L150.455 78.2779L146.921 78.8058L143.312 68.8683L138.496 69.3012L124.01 37.2436C123.331 35.7405 122.226 35.2734 121.287 36.0914L118.926 38.1474L108.404 16.2619C107.961 15.3406 106.677 15.2799 106.149 16.1548L101.803 23.3626L99.9999 21.8611C98.7732 20.8395 97.355 21.2542 96.3372 22.9305L85.4956 40.7875L83.0497 41.0518L69.732 67.189L67.0137 66.1333C65.8044 68.5417 64.5943 70.9509 63.385 73.3593C61.6179 76.8789 53.3441 71.3542 49.1342 71.522C47.128 74.216 32.9453 86.328 30.9391 89.022C29.054 88.8025 46.3273 92.5553 44.8622 93.766C41.4946 96.5511 38.0293 99.214 34.6216 101.949C33.1829 103.103 31.7564 104.6 30.09 105.272C28.4395 105.936 26.711 106.088 25.0348 106.975C23.5432 107.765 22.0516 108.554 20.5592 109.344C19.5459 109.88 18.5197 110.426 17.6842 111.213C17.3656 111.513 17.0659 111.855 16.6626 112.024C16.2842 112.183 15.8589 112.171 15.4487 112.155C13.7278 112.092 11.4083 112.418 9.77367 111.849C8.67937 111.469 8.14963 110.361 6.95847 110.065C4.79712 109.529 4.41496 110.869 2.53513 108.914C2.36561 108.738 2.16885 108.549 1.92517 108.545C1.71857 108.541 1.53619 108.671 1.37046 108.796C-3.43959 112.42 -8.24889 116.043 -13.0589 119.666C-15.3111 121.363 -10.6418 124.801 -9.61411 125.852C-6.73383 128.801 -3.65149 131.807 0.082428 133.645C4.99616 136.063 11.5415 134.301 16.7451 134.217C22.5351 134.124 28.3252 134.03 34.1153 133.938C58.7967 133.54 83.4788 133.142 108.16 132.744C131.147 132.374 154.134 132.004 177.121 131.633C187.268 131.47 197.414 131.306 207.561 131.142C208.72 131.123 209.177 128.214 208.219 126.943L208.221 126.942Z" fill="url(#paint2_linear_729_5695)"/>
<path opacity="0.55" d="M106.755 16.4358L105.74 24.4928L108.646 27.1556L113.952 37.4266L118.927 38.1474L108.422 16.1647C108.043 15.3702 106.865 15.5624 106.756 16.4358H106.755Z" fill="white"/>
<path opacity="0.33" d="M121.488 36.8501L120.648 40.7548L122.543 44.1627L121.154 53.1577L116.353 60.3814L121.028 58.5411L121.28 61.5192H127.344L138.496 69.3019L123.852 36.601C123.357 35.4959 121.743 35.666 121.488 36.8509L121.488 36.8501Z" fill="white"/>
<path opacity="0.55" d="M168.049 83.3887L168.153 84.8492L170.553 87.0047L170.68 93.9786L177.502 95.3731L185.517 97.2863L171.312 81.9327C170.053 80.5565 167.917 81.5248 168.049 83.3887Z" fill="white"/>
<path opacity="0.27" d="M140.484 69.1265L143.312 68.8683L146.922 78.8058L142.632 73.4375L139.726 74.3254L140.484 69.1265Z" fill="white"/>
<path opacity="0.33" d="M56.6353 91.5338L63.1844 82.0634L67.5532 80.0324L77.1499 70.2263L80.6855 73.9449L86.0745 68.8729L95.3389 58.2214L99.2128 65.1535L101.571 63.2935L103.592 65.3221L110.667 67.8582L104.94 67.5202L102.076 69.5489L100.897 66.3369L97.3595 70.2256L95.0014 61.7722L92.8113 67.1822L91.6322 68.3655L88.0943 70.3942L85.3994 77.6643L82.3671 84.5956L78.6611 77.3263L76.303 73.4376L75.292 78.0023L73.4386 78.1716L72.2596 81.0517L65.8588 83.9326H63.9215L56.6353 91.5338Z" fill="white"/>
<path opacity="0.27" d="M186.845 98.9755L186.156 99.8117L187.493 102.01L184.288 104.038L178.723 112.999H181.166L182.092 115.197L191.694 118.409L195.063 123.312L208.877 127.877L195.03 109.431L190.011 99.2914C189.367 98.0868 187.712 97.922 186.845 98.9755Z" fill="white"/>
<path d="M11.1305 117.956L14.9378 114.854L21.4658 114.019L30.1694 110.082L44.8561 100.657L53.1972 103.997L58.0928 104.714L65.5266 107.696L72.7795 108.293L83.2964 115.451L88.9169 117.717L94.1758 121.893L107.775 122.251L127.176 131.437L-3.79761 139.12L11.1305 117.956Z" fill="url(#paint3_linear_729_5695)"/>
<path d="M86.8592 109.279L94.1568 104.038L99.4466 99.1357L107.656 95.923L116.778 95.4164L121.339 98.121L128.453 97.1071L134.291 101.333L150.892 111.139L158.554 110.463L215.278 143.431L185.462 144.952L175.354 147.488L48.002 141.571L86.8592 109.279Z" fill="url(#paint4_linear_729_5695)"/>
<path opacity="0.27" d="M102.371 108.899L107.951 105.032L113.184 105.718L119.927 104.033L125.321 104.712L131.723 110.124C131.723 110.124 137.451 113.188 138.125 112.85C138.8 112.512 143.685 111.519 143.685 111.519H148.57L156.151 120.458L162.047 115.207L174.007 123.993L176.871 123.822L183.946 128.892L177.207 126.355L175.523 127.369L174.344 128.553L172.322 124.495L165.753 120.268L163.226 118.07L160.362 119.254L159.351 120.775L158.846 123.649L156.824 127.2L150.423 115.872L147.727 112.829L144.189 112.998L141.326 115.365L138.968 117.563L136.272 121.282L132.061 114.182L130.039 113.636L124.48 106.665H121.027L119.932 106.746L117.236 109.449L111.677 107.25L107.971 106.236L102.37 108.898L102.371 108.899Z" fill="white"/>
<path d="M-11.0475 145.633L-2.6155 137.835L10.3004 132.215L20.6243 121.569C21.9925 120.158 23.8867 119.909 25.4532 120.933L34.7714 127.027L41.5687 124.002L64.6806 136.969L80.3632 128.372C82.8318 127.019 85.6893 127.564 87.7379 129.778L91.1918 133.511L95.6106 132.647L102.068 138.266L109.923 133.754C111.643 132.766 113.598 132.669 115.374 133.482L129.6 139.995H138.097L160.532 149.812C181.419 155.602 161.793 153.735 160.004 153.715L124.31 153.303L99.5496 156.109L69.2265 152.667L60.1316 155.095L-9.50516 151.76C-12.0721 151.73 -13.124 147.553 -11.0475 145.633Z" fill="url(#paint5_linear_729_5695)"/>
<path d="M-2.40818 149.052L0.813404 145.311L7.05678 142.765L11.4415 144.788L18.1821 141.573C18.1821 141.573 23.9109 137.176 24.5844 136.669C25.2579 136.161 29.8069 137.851 29.8069 137.851L36.714 138.189L42.2732 134.301L48.1692 135.314L64.1727 143.937L86.9145 145.797L111.235 149.583L91.2939 148.671L84.3876 149.516L75.9647 147.318L62.9937 145.289L47.4957 138.019L42.1052 137.85L38.3993 140.048L34.8614 143.26L33.1768 142.111L27.7863 139.103H22.4798L18.5211 143.76L14.4785 146.637L12.7939 148.837L7.06662 144.611L4.20299 146.133L-2.40894 149.05L-2.40818 149.052Z" fill="url(#paint6_linear_729_5695)"/>
</g>
</g>
</g>
<defs>
<linearGradient id="paint0_linear_729_5695" x1="109.428" y1="46.7959" x2="100.713" y2="98.3818" gradientUnits="userSpaceOnUse">
<stop stop-color="#A22B25"/>
<stop offset="1" stop-color="#C0423C"/>
</linearGradient>
<linearGradient id="paint1_linear_729_5695" x1="165.526" y1="65.3836" x2="148.736" y2="129.26" gradientUnits="userSpaceOnUse">
<stop stop-color="#E1473D"/>
<stop offset="1" stop-color="#E9605A"/>
</linearGradient>
<linearGradient id="paint2_linear_729_5695" x1="98.6499" y1="111.2" x2="105.315" y2="29.9782" gradientUnits="userSpaceOnUse">
<stop stop-color="#FE7062"/>
<stop offset="1" stop-color="#FF928E"/>
</linearGradient>
<linearGradient id="paint3_linear_729_5695" x1="62.0515" y1="131.643" x2="70.2544" y2="49.9114" gradientUnits="userSpaceOnUse">
<stop stop-color="#E1473D"/>
<stop offset="1" stop-color="#E9605A"/>
</linearGradient>
<linearGradient id="paint4_linear_729_5695" x1="165.147" y1="74.4613" x2="121.433" y2="162.588" gradientUnits="userSpaceOnUse">
<stop stop-color="#E1473D"/>
<stop offset="1" stop-color="#E9605A"/>
</linearGradient>
<linearGradient id="paint5_linear_729_5695" x1="83.31" y1="116.826" x2="95.1009" y2="25.3938" gradientUnits="userSpaceOnUse">
<stop stop-color="#A22B25"/>
<stop offset="1" stop-color="#C0423C"/>
</linearGradient>
<linearGradient id="paint6_linear_729_5695" x1="54.4141" y1="1.76661" x2="54.4141" y2="41.6176" gradientUnits="userSpaceOnUse">
<stop stop-color="#A22B25"/>
<stop offset="1" stop-color="#C0423C"/>
</linearGradient>
<clipPath id="clip0_729_5695">
<rect width="200" height="200" rx="100" fill="white"/>
</clipPath>
<clipPath id="clip1_729_5695">
<rect width="210" height="210" fill="white" transform="translate(-10)"/>
</clipPath>
</defs>
</svg>
