<svg width="200" height="200" viewBox="0 0 200 200" fill="none" xmlns="http://www.w3.org/2000/svg">
<g clip-path="url(#clip0_729_5696)">
<rect width="200" height="200" rx="100" fill="#A0D4EA"/>
<g clip-path="url(#clip1_729_5696)">
<path d="M90.052 215.429V223L154 186.115V178.543L90.052 215.429Z" fill="#72B5E8"/>
<path d="M90.0659 215.429V223L47 197.86V190.316L90.0659 215.429Z" fill="#D1EBFF"/>
<path d="M47 190.316L90.0659 215.429L154 178.543L110.879 153.403L47 190.316Z" fill="#D1EBFF"/>
<path d="M47 51.8853V188.957L110.948 152.072V15L47 51.8853Z" fill="#72B5E8"/>
<path d="M89.8997 213.321L47 188.957L110.948 152.072L153.848 176.436L89.8997 213.321Z" fill="#D1EBFF"/>
<path d="M86.9502 192.757V205.778L137.078 176.866V163.831L86.9502 192.757Z" fill="#001A46"/>
<path d="M86.9779 192.757V205.778L52.4559 185.629V172.622L86.9779 192.757Z" fill="#001A46"/>
<path d="M54.6162 184.381V175.812L85.2885 193.7V202.283L54.6162 184.381Z" fill="#D1EBFF"/>
<path d="M54.3807 184.52V175.964L85.0531 193.852V202.436L54.3807 184.52Z" fill="#D1EBFF"/>
<path d="M52.4559 172.622L86.9779 192.757L137.078 163.831L102.529 143.683L52.4559 172.622Z" fill="#D1EBFF"/>
<path d="M71.7594 187.21L55.3362 177.642V183.979L71.7594 193.561V187.21Z" fill="#001A46"/>
<path d="M73.4349 188.195V194.546L84.0975 200.772V194.407L73.4349 188.195Z" fill="#001A46"/>
<path d="M55.8485 183.799V177.933L55.3362 177.642V183.979L71.7594 193.561V193.076L55.8485 183.799Z" fill="#001A46"/>
<path d="M73.9473 194.365V188.486L73.4349 188.195V194.546L84.0975 200.772V200.286L73.9473 194.365Z" fill="#001A46"/>
<path d="M76.6891 190.718L74.6259 189.526V191.55L76.6891 192.757V190.718Z" fill="#D1EBFF"/>
<path d="M83.1144 194.393L81.0649 193.2V195.225L83.1144 196.431V194.393Z" fill="#D1EBFF"/>
<path d="M79.9156 192.577L77.8523 191.37V193.409L79.9156 194.601V192.577Z" fill="#D1EBFF"/>
<path d="M76.5091 190.899L74.4458 189.706V191.731L76.5091 192.937V190.899Z" fill="#001A46"/>
<path d="M82.9343 194.573L80.8849 193.381V195.405L82.9343 196.612V194.573Z" fill="#001A46"/>
<path d="M79.7356 192.757L77.6724 191.55V193.589L79.7356 194.781V192.757Z" fill="#001A46"/>
<path d="M76.6891 193.519L74.6259 192.327V194.351L76.6891 195.558V193.519Z" fill="#D1EBFF"/>
<path d="M83.1144 197.194L81.0649 196.002V198.026L83.1144 199.233V197.194Z" fill="#D1EBFF"/>
<path d="M79.9156 195.378L77.8523 194.185V196.21L79.9156 197.402V195.378Z" fill="#D1EBFF"/>
<path d="M76.5091 193.7L74.4458 192.507V194.532L76.5091 195.738V193.7Z" fill="#001A46"/>
<path d="M82.9343 197.374L80.8849 196.182V198.206L82.9343 199.413V197.374Z" fill="#001A46"/>
<path d="M79.7356 195.558L77.6724 194.365V196.39L79.7356 197.582V195.558Z" fill="#001A46"/>
<path d="M58.8259 182.69C58.8259 183.244 58.4381 183.466 57.9673 183.189C57.4826 182.911 57.1088 182.246 57.1088 181.691C57.1088 181.136 57.4965 180.915 57.9673 181.192C58.452 181.469 58.8259 182.135 58.8259 182.69Z" fill="#EB4680"/>
<path d="M61.346 184.132C61.346 184.686 60.9583 184.908 60.4875 184.631C60.0028 184.354 59.6289 183.688 59.6289 183.133C59.6289 182.579 60.0166 182.357 60.4875 182.634C60.9721 182.911 61.346 183.577 61.346 184.132Z" fill="#0FBAB8"/>
<path d="M63.9909 185.726C63.9909 186.281 63.6032 186.503 63.1324 186.226C62.6477 185.948 62.2738 185.283 62.2738 184.728C62.2738 184.173 62.6615 183.951 63.1324 184.229C63.617 184.506 63.9909 185.172 63.9909 185.726Z" fill="#D1EBFF"/>
<path d="M70.3193 188.098L66.6774 185.976V188.139L67.4667 188.597V189.567L69.5161 190.774V189.803L70.3193 190.261V188.098Z" fill="#001A46"/>
<path d="M67.7298 189.456V188.472L66.9405 188.014V186.128L66.6774 185.976V188.139L67.4667 188.597V189.567L69.5161 190.774V190.496L67.7298 189.456Z" fill="#001A46"/>
<path d="M69.7931 189.678V189.956L70.3193 190.261V189.983L69.7931 189.678Z" fill="#001A46"/>
<path d="M86.9502 177.046V190.067L137.078 161.155V148.12L86.9502 177.046Z" fill="#001A46"/>
<path d="M86.9779 177.046V190.067L52.4559 169.918V156.911L86.9779 177.046Z" fill="#001A46"/>
<path d="M54.6162 168.67V160.101L85.2885 178.003V186.572L54.6162 168.67Z" fill="#D1EBFF"/>
<path d="M54.3807 168.823V160.253L85.0531 178.141V186.725L54.3807 168.823Z" fill="#D1EBFF"/>
<path d="M52.4559 156.911L86.9779 177.046L137.078 148.12L102.529 127.972L52.4559 156.911Z" fill="#D1EBFF"/>
<path d="M71.7594 171.499L55.3362 161.931V168.268L71.7594 177.85V171.499Z" fill="#001A46"/>
<path d="M73.4349 172.484V178.835L84.0975 185.061V178.696L73.4349 172.484Z" fill="#001A46"/>
<path d="M55.8485 168.088V162.222L55.3362 161.931V168.268L71.7594 177.85V177.379L55.8485 168.088Z" fill="#001A46"/>
<path d="M73.9473 178.654V172.775L73.4349 172.484V178.835L84.0975 185.061V184.575L73.9473 178.654Z" fill="#001A46"/>
<path d="M76.6891 175.007L74.6259 173.815V175.839L76.6891 177.046V175.007Z" fill="#D1EBFF"/>
<path d="M83.1144 178.682L81.0649 177.49V179.514L83.1144 180.72V178.682Z" fill="#D1EBFF"/>
<path d="M79.9156 176.866L77.8523 175.673V177.698L79.9156 178.89V176.866Z" fill="#D1EBFF"/>
<path d="M76.5091 175.188L74.4458 173.995V176.02L76.5091 177.226V175.188Z" fill="#001A46"/>
<path d="M82.9343 178.862L80.8849 177.67V179.694L82.9343 180.901V178.862Z" fill="#001A46"/>
<path d="M79.7356 177.046L77.6724 175.853V177.878L79.7356 179.07V177.046Z" fill="#001A46"/>
<path d="M76.6891 177.822L74.6259 176.616V178.64L76.6891 179.847V177.822Z" fill="#D1EBFF"/>
<path d="M83.1144 181.497L81.0649 180.291V182.315L83.1144 183.522V181.497Z" fill="#D1EBFF"/>
<path d="M79.9156 179.667L77.8523 178.474V180.499L79.9156 181.691V179.667Z" fill="#D1EBFF"/>
<path d="M76.5091 178.003L74.4458 176.796V178.821L76.5091 180.027V178.003Z" fill="#001A46"/>
<path d="M82.9343 181.677L80.8849 180.471V182.495L82.9343 183.702V181.677Z" fill="#001A46"/>
<path d="M79.7356 179.847L77.6724 178.654V180.679L79.7356 181.871V179.847Z" fill="#001A46"/>
<path d="M58.8259 166.979C58.8259 167.533 58.4381 167.755 57.9673 167.478C57.4826 167.2 57.1088 166.535 57.1088 165.98C57.1088 165.426 57.4965 165.204 57.9673 165.481C58.452 165.758 58.8259 166.424 58.8259 166.979Z" fill="#EB4680"/>
<path d="M61.346 168.421C61.346 168.975 60.9583 169.197 60.4875 168.92C60.0028 168.643 59.6289 167.977 59.6289 167.422C59.6289 166.868 60.0166 166.646 60.4875 166.923C60.9721 167.2 61.346 167.866 61.346 168.421Z" fill="#0FBAB8"/>
<path d="M63.9909 170.015C63.9909 170.57 63.6032 170.792 63.1324 170.515C62.6477 170.237 62.2738 169.572 62.2738 169.017C62.2738 168.462 62.6615 168.24 63.1324 168.518C63.617 168.795 63.9909 169.461 63.9909 170.015Z" fill="#D1EBFF"/>
<path d="M70.3193 172.387L66.6774 170.265V172.428L67.4667 172.886V173.856L69.5161 175.063V174.092L70.3193 174.55V172.387Z" fill="#001A46"/>
<path d="M67.7298 173.746V172.775L66.9405 172.303V170.431L66.6774 170.265V172.428L67.4667 172.886V173.856L69.5161 175.063V174.786L67.7298 173.746Z" fill="#001A46"/>
<path d="M69.7931 173.967V174.245L70.3193 174.55V174.272L69.7931 173.967Z" fill="#001A46"/>
<path d="M86.9502 161.335V174.356L137.078 145.444V132.409L86.9502 161.335Z" fill="#001A46"/>
<path d="M86.9779 161.335V174.356L52.4559 154.207V141.2L86.9779 161.335Z" fill="#001A46"/>
<path d="M54.6162 152.959V144.404L85.2885 162.292V170.875L54.6162 152.959Z" fill="#D1EBFF"/>
<path d="M54.3807 153.112V144.542L85.0531 162.444V171.014L54.3807 153.112Z" fill="#D1EBFF"/>
<path d="M52.4559 141.2L86.9779 161.335L137.078 132.409L102.529 112.261L52.4559 141.2Z" fill="#D1EBFF"/>
<path d="M71.7594 155.788L55.3362 146.22V152.557L71.7594 162.139V155.788Z" fill="#001A46"/>
<path d="M73.4349 156.773V163.124L84.0975 169.35V162.985L73.4349 156.773Z" fill="#001A46"/>
<path d="M55.8485 152.377V146.511L55.3362 146.22V152.557L71.7594 162.139V161.668L55.8485 152.377Z" fill="#001A46"/>
<path d="M73.9473 162.943V157.064L73.4349 156.773V163.124L84.0975 169.35V168.864L73.9473 162.943Z" fill="#001A46"/>
<path d="M76.6891 159.31L74.6259 158.104V160.128L76.6891 161.335V159.31Z" fill="#D1EBFF"/>
<path d="M83.1144 162.985L81.0649 161.779V163.803L83.1144 165.01V162.985Z" fill="#D1EBFF"/>
<path d="M79.9156 161.155L77.8523 159.962V161.987L79.9156 163.179V161.155Z" fill="#D1EBFF"/>
<path d="M76.5091 159.491L74.4458 158.284V160.309L76.5091 161.515V159.491Z" fill="#001A46"/>
<path d="M82.9343 163.151L80.8849 161.959V163.983L82.9343 165.19V163.151Z" fill="#001A46"/>
<path d="M79.7356 161.335L77.6724 160.142V162.167L79.7356 163.359V161.335Z" fill="#001A46"/>
<path d="M76.6891 162.111L74.6259 160.905V162.943L76.6891 164.136V162.111Z" fill="#D1EBFF"/>
<path d="M83.1144 165.786L81.0649 164.58V166.604L83.1144 167.811V165.786Z" fill="#D1EBFF"/>
<path d="M79.9156 163.956L77.8523 162.763V164.788L79.9156 165.994V163.956Z" fill="#D1EBFF"/>
<path d="M76.5091 162.292L74.4458 161.085V163.124L76.5091 164.316V162.292Z" fill="#001A46"/>
<path d="M82.9343 165.966L80.8849 164.76V166.784L82.9343 167.991V165.966Z" fill="#001A46"/>
<path d="M79.7356 164.136L77.6724 162.943V164.968L79.7356 166.174V164.136Z" fill="#001A46"/>
<path d="M58.8259 151.268C58.8259 151.822 58.4381 152.044 57.9673 151.767C57.4826 151.489 57.1088 150.824 57.1088 150.269C57.1088 149.715 57.4965 149.493 57.9673 149.77C58.452 150.047 58.8259 150.713 58.8259 151.268Z" fill="#EB4680"/>
<path d="M61.346 152.71C61.346 153.264 60.9583 153.486 60.4875 153.209C60.0028 152.932 59.6289 152.266 59.6289 151.711C59.6289 151.157 60.0166 150.935 60.4875 151.212C60.9721 151.49 61.346 152.155 61.346 152.71Z" fill="#0FBAB8"/>
<path d="M63.9909 154.304C63.9909 154.859 63.6032 155.081 63.1324 154.804C62.6477 154.526 62.2738 153.861 62.2738 153.306C62.2738 152.751 62.6615 152.53 63.1324 152.807C63.617 153.084 63.9909 153.75 63.9909 154.304Z" fill="#D1EBFF"/>
<path d="M70.3193 156.676L66.6774 154.554V156.717L67.4667 157.175V158.146L69.5161 159.352V158.381L70.3193 158.839V156.676Z" fill="#001A46"/>
<path d="M67.7298 158.035V157.064L66.9405 156.592V154.72L66.6774 154.554V156.717L67.4667 157.175V158.146L69.5161 159.352V159.075L67.7298 158.035Z" fill="#001A46"/>
<path d="M69.7931 158.256V158.534L70.3193 158.839V158.562L69.7931 158.256Z" fill="#001A46"/>
<path d="M86.9502 145.624V158.659L137.078 129.733V116.698L86.9502 145.624Z" fill="#001A46"/>
<path d="M86.9779 145.624V158.659L52.4559 138.496V125.49L86.9779 145.624Z" fill="#001A46"/>
<path d="M54.6162 137.248V128.693L85.2885 146.581V155.164L54.6162 137.248Z" fill="#D1EBFF"/>
<path d="M54.3807 137.401V128.845L85.0531 146.733V155.303L54.3807 137.401Z" fill="#D1EBFF"/>
<path d="M52.4559 125.49L86.9779 145.624L137.078 116.698L102.529 96.5498L52.4559 125.49Z" fill="#D1EBFF"/>
<path d="M71.7594 140.077L55.3362 130.509V136.846L71.7594 146.428V140.077Z" fill="#001A46"/>
<path d="M73.4349 141.062V147.413L84.0975 153.639V147.288L73.4349 141.062Z" fill="#001A46"/>
<path d="M55.8485 136.666V130.8L55.3362 130.509V136.846L71.7594 146.428V145.957L55.8485 136.666Z" fill="#001A46"/>
<path d="M73.9473 147.232V141.353L73.4349 141.062V147.413L84.0975 153.639V153.153L73.9473 147.232Z" fill="#001A46"/>
<path d="M76.6891 143.599L74.6259 142.393V144.418L76.6891 145.624V143.599Z" fill="#D1EBFF"/>
<path d="M83.1144 147.274L81.0649 146.068V148.092L83.1144 149.299V147.274Z" fill="#D1EBFF"/>
<path d="M79.9156 145.444L77.8523 144.251V146.276L79.9156 147.468V145.444Z" fill="#D1EBFF"/>
<path d="M76.5091 143.78L74.4458 142.573V144.598L76.5091 145.804V143.78Z" fill="#001A46"/>
<path d="M82.9343 147.454L80.8849 146.248V148.272L82.9343 149.479V147.454Z" fill="#001A46"/>
<path d="M79.7356 145.624L77.6724 144.431V146.456L79.7356 147.648V145.624Z" fill="#001A46"/>
<path d="M76.6891 146.4L74.6259 145.194V147.232L76.6891 148.425V146.4Z" fill="#D1EBFF"/>
<path d="M83.1144 150.075L81.0649 148.869V150.907L83.1144 152.1V150.075Z" fill="#D1EBFF"/>
<path d="M79.9156 148.245L77.8523 147.052V149.077L79.9156 150.283V148.245Z" fill="#D1EBFF"/>
<path d="M76.5091 146.581L74.4458 145.374V147.413L76.5091 148.605V146.581Z" fill="#001A46"/>
<path d="M82.9343 150.255L80.8849 149.049V151.087L82.9343 152.28V150.255Z" fill="#001A46"/>
<path d="M79.7356 148.425L77.6724 147.232V149.257L79.7356 150.463V148.425Z" fill="#001A46"/>
<path d="M58.8259 135.557C58.8259 136.111 58.4381 136.333 57.9673 136.056C57.4826 135.779 57.1088 135.113 57.1088 134.558C57.1088 134.004 57.4965 133.782 57.9673 134.059C58.452 134.336 58.8259 135.002 58.8259 135.557Z" fill="#EB4680"/>
<path d="M61.346 136.999C61.346 137.554 60.9583 137.775 60.4875 137.498C60.0028 137.221 59.6289 136.555 59.6289 136C59.6289 135.446 60.0166 135.224 60.4875 135.501C60.9721 135.779 61.346 136.444 61.346 136.999Z" fill="#0FBAB8"/>
<path d="M63.9909 138.607C63.9909 139.162 63.6032 139.384 63.1324 139.107C62.6477 138.829 62.2738 138.164 62.2738 137.609C62.2738 137.054 62.6615 136.832 63.1324 137.11C63.617 137.387 63.9909 138.053 63.9909 138.607Z" fill="#D1EBFF"/>
<path d="M70.3193 140.979L66.6774 138.843V141.006L67.4667 141.464V142.448L69.5161 143.641V142.67L70.3193 143.128V140.979Z" fill="#001A46"/>
<path d="M67.7298 142.324V141.353L66.9405 140.882V139.01L66.6774 138.843V141.006L67.4667 141.464V142.448L69.5161 143.641V143.364L67.7298 142.324Z" fill="#001A46"/>
<path d="M69.7931 142.546V142.823L70.3193 143.128V142.851L69.7931 142.546Z" fill="#001A46"/>
<path d="M86.9502 129.913V142.948L137.078 114.022V101.001L86.9502 129.913Z" fill="#001A46"/>
<path d="M86.9779 129.913V142.948L52.4559 122.799V109.792L86.9779 129.913Z" fill="#001A46"/>
<path d="M54.6162 121.538V112.982L85.2885 130.87V139.453L54.6162 121.538Z" fill="#D1EBFF"/>
<path d="M54.3807 121.69V113.134L85.0531 131.022V139.606L54.3807 121.69Z" fill="#D1EBFF"/>
<path d="M52.4559 109.792L86.9779 129.913L137.078 101.001L102.529 80.8389L52.4559 109.792Z" fill="#D1EBFF"/>
<path d="M71.7594 124.38L55.3362 114.798V121.135L71.7594 130.717V124.38Z" fill="#001A46"/>
<path d="M73.4349 125.351V131.702L84.0975 137.928V131.577L73.4349 125.351Z" fill="#001A46"/>
<path d="M55.8485 120.955V115.103L55.3362 114.798V121.135L71.7594 130.717V130.246L55.8485 120.955Z" fill="#001A46"/>
<path d="M73.9473 131.521V125.656L73.4349 125.351V131.702L84.0975 137.928V137.456L73.9473 131.521Z" fill="#001A46"/>
<path d="M76.6891 127.889L74.6259 126.682V128.721L76.6891 129.913V127.889Z" fill="#D1EBFF"/>
<path d="M83.1144 131.563L81.0649 130.357V132.395L83.1144 133.588V131.563Z" fill="#D1EBFF"/>
<path d="M79.9156 129.733L77.8523 128.54V130.565L79.9156 131.771V129.733Z" fill="#D1EBFF"/>
<path d="M76.5091 128.069L74.4458 126.862V128.901L76.5091 130.093V128.069Z" fill="#001A46"/>
<path d="M82.9343 131.743L80.8849 130.537V132.575L82.9343 133.768V131.743Z" fill="#001A46"/>
<path d="M79.7356 129.913L77.6724 128.72V130.745L79.7356 131.951V129.913Z" fill="#001A46"/>
<path d="M76.6891 130.689L74.6259 129.497V131.521L76.6891 132.714V130.689Z" fill="#D1EBFF"/>
<path d="M83.1144 134.364L81.0649 133.172V135.196L83.1144 136.389V134.364Z" fill="#D1EBFF"/>
<path d="M79.9156 132.548L77.8523 131.341V133.366L79.9156 134.572V132.548Z" fill="#D1EBFF"/>
<path d="M76.5091 130.87L74.4458 129.677V131.702L76.5091 132.894V130.87Z" fill="#001A46"/>
<path d="M82.9343 134.544L80.8849 133.352V135.376L82.9343 136.569V134.544Z" fill="#001A46"/>
<path d="M79.7356 132.714L77.6724 131.521V133.546L79.7356 134.752V132.714Z" fill="#001A46"/>
<path d="M58.8259 119.846C58.8259 120.4 58.4381 120.622 57.9673 120.345C57.4826 120.068 57.1088 119.402 57.1088 118.847C57.1088 118.293 57.4965 118.071 57.9673 118.348C58.452 118.625 58.8259 119.291 58.8259 119.846Z" fill="#EB4680"/>
<path d="M61.346 121.288C61.346 121.843 60.9583 122.064 60.4875 121.787C60.0028 121.51 59.6289 120.844 59.6289 120.289C59.6289 119.735 60.0166 119.513 60.4875 119.79C60.9721 120.068 61.346 120.733 61.346 121.288Z" fill="#0FBAB8"/>
<path d="M63.9909 122.896C63.9909 123.451 63.6032 123.673 63.1324 123.396C62.6477 123.118 62.2738 122.453 62.2738 121.898C62.2738 121.343 62.6615 121.121 63.1324 121.399C63.617 121.676 63.9909 122.342 63.9909 122.896Z" fill="#D1EBFF"/>
<path d="M70.3193 125.268L66.6774 123.146V125.295L67.4667 125.767V126.738L69.5161 127.93V126.959L70.3193 127.417V125.268Z" fill="#001A46"/>
<path d="M67.7298 126.613V125.642L66.9405 125.171V123.299L66.6774 123.146V125.295L67.4667 125.767V126.738L69.5161 127.93V127.653L67.7298 126.613Z" fill="#001A46"/>
<path d="M69.7931 126.835V127.112L70.3193 127.417V127.14L69.7931 126.835Z" fill="#001A46"/>
<path d="M86.9502 114.202V127.237L137.078 98.311V85.2902L86.9502 114.202Z" fill="#001A46"/>
<path d="M86.9779 114.202V127.237L52.4559 107.088V94.0815L86.9779 114.202Z" fill="#001A46"/>
<path d="M54.6162 105.827V97.2709L85.2885 115.159V123.742L54.6162 105.827Z" fill="#D1EBFF"/>
<path d="M54.3807 105.979V97.4235L85.0531 115.311V123.895L54.3807 105.979Z" fill="#D1EBFF"/>
<path d="M52.4559 94.0816L86.9779 114.202L137.078 85.2901L102.529 65.1418L52.4559 94.0816Z" fill="#D1EBFF"/>
<path d="M71.7594 108.669L55.3362 99.0874V105.424L71.7594 115.006V108.669Z" fill="#001A46"/>
<path d="M73.4349 109.64V115.991L84.0975 122.217V115.866L73.4349 109.64Z" fill="#001A46"/>
<path d="M55.8485 105.244V99.3925L55.3362 99.0874V105.424L71.7594 115.006V114.535L55.8485 105.244Z" fill="#001A46"/>
<path d="M73.9473 115.811V109.945L73.4349 109.64V115.991L84.0975 122.217V121.746L73.9473 115.811Z" fill="#001A46"/>
<path d="M76.6891 112.178L74.6259 110.985V113.01L76.6891 114.202V112.178Z" fill="#D1EBFF"/>
<path d="M83.1144 115.852L81.0649 114.646V116.684L83.1144 117.877V115.852Z" fill="#D1EBFF"/>
<path d="M79.9156 114.022L77.8523 112.829V114.854L79.9156 116.06V114.022Z" fill="#D1EBFF"/>
<path d="M76.5091 112.358L74.4458 111.165V113.19L76.5091 114.382V112.358Z" fill="#001A46"/>
<path d="M82.9343 116.033L80.8849 114.826V116.865L82.9343 118.057V116.033Z" fill="#001A46"/>
<path d="M79.7356 114.202L77.6724 113.01V115.034L79.7356 116.24V114.202Z" fill="#001A46"/>
<path d="M76.6891 114.979L74.6259 113.786V115.811L76.6891 117.003V114.979Z" fill="#D1EBFF"/>
<path d="M83.1144 118.653L81.0649 117.461V119.485L83.1144 120.678V118.653Z" fill="#D1EBFF"/>
<path d="M79.9156 116.837L77.8523 115.63V117.655L79.9156 118.861V116.837Z" fill="#D1EBFF"/>
<path d="M76.5091 115.159L74.4458 113.966V115.991L76.5091 117.183V115.159Z" fill="#001A46"/>
<path d="M82.9343 118.834L80.8849 117.641V119.666L82.9343 120.858V118.834Z" fill="#001A46"/>
<path d="M79.7356 117.017L77.6724 115.811V117.835L79.7356 119.042V117.017Z" fill="#001A46"/>
<path d="M58.8259 104.135C58.8259 104.69 58.4381 104.911 57.9673 104.634C57.4826 104.357 57.1088 103.691 57.1088 103.137C57.1088 102.582 57.4965 102.36 57.9673 102.637C58.452 102.915 58.8259 103.58 58.8259 104.135Z" fill="#EB4680"/>
<path d="M61.346 105.577C61.346 106.132 60.9583 106.354 60.4875 106.076C60.0028 105.799 59.6289 105.133 59.6289 104.579C59.6289 104.024 60.0166 103.802 60.4875 104.079C60.9721 104.357 61.346 105.022 61.346 105.577Z" fill="#0FBAB8"/>
<path d="M63.9909 107.186C63.9909 107.74 63.6032 107.962 63.1324 107.685C62.6477 107.407 62.2738 106.742 62.2738 106.187C62.2738 105.633 62.6615 105.411 63.1324 105.688C63.617 105.965 63.9909 106.631 63.9909 107.186Z" fill="#D1EBFF"/>
<path d="M70.3193 109.557L66.6774 107.435V109.585L67.4667 110.056V111.027L69.5161 112.219V111.249L70.3193 111.72V109.557Z" fill="#001A46"/>
<path d="M67.7298 110.902V109.931L66.9405 109.474V107.588L66.6774 107.435V109.585L67.4667 110.056V111.027L69.5161 112.219V111.942L67.7298 110.902Z" fill="#001A46"/>
<path d="M69.7931 111.124V111.415L70.3193 111.72V111.443L69.7931 111.124Z" fill="#001A46"/>
<path d="M86.9502 98.4912V111.526L137.078 82.6V69.5792L86.9502 98.4912Z" fill="#001A46"/>
<path d="M86.9779 98.4911V111.526L52.4559 91.3775V78.3706L86.9779 98.4911Z" fill="#001A46"/>
<path d="M54.6162 90.1157V81.5599L85.2885 99.4479V108.031L54.6162 90.1157Z" fill="#D1EBFF"/>
<path d="M54.3807 90.2683V81.7125L85.0531 99.6005V108.184L54.3807 90.2683Z" fill="#D1EBFF"/>
<path d="M52.4559 78.3706L86.9779 98.4912L137.078 69.5792L102.529 49.4309L52.4559 78.3706Z" fill="#D1EBFF"/>
<path d="M71.7594 92.9583L55.3362 83.3765V89.7135L71.7594 99.3093V92.9583Z" fill="#001A46"/>
<path d="M73.4349 93.929V100.28L84.0975 106.506V100.155L73.4349 93.929Z" fill="#001A46"/>
<path d="M55.8485 89.5333V83.6815L55.3362 83.3765V89.7135L71.7594 99.3093V98.8239L55.8485 89.5333Z" fill="#001A46"/>
<path d="M73.9473 100.1V94.2341L73.4349 93.9291V100.28L84.0975 106.506V106.035L73.9473 100.1Z" fill="#001A46"/>
<path d="M76.6891 96.4666L74.6259 95.274V97.2986L76.6891 98.4911V96.4666Z" fill="#D1EBFF"/>
<path d="M83.1144 100.141L81.0649 98.9487V100.973L83.1144 102.166V100.141Z" fill="#D1EBFF"/>
<path d="M79.9156 98.3248L77.8523 97.1184V99.1429L79.9156 100.349V98.3248Z" fill="#D1EBFF"/>
<path d="M76.5091 96.6469L74.4458 95.4543V97.4789L76.5091 98.6714V96.6469Z" fill="#001A46"/>
<path d="M82.9343 100.322L80.8849 99.129V101.154L82.9343 102.346V100.322Z" fill="#001A46"/>
<path d="M79.7356 98.505L77.6724 97.2986V99.3231L79.7356 100.53V98.505Z" fill="#001A46"/>
<path d="M76.6891 99.2677L74.6259 98.0752V100.1L76.6891 101.292V99.2677Z" fill="#D1EBFF"/>
<path d="M83.1144 102.942L81.0649 101.75V103.774L83.1144 104.967V102.942Z" fill="#D1EBFF"/>
<path d="M79.9156 101.126L77.8523 99.9194V101.958L79.9156 103.15V101.126Z" fill="#D1EBFF"/>
<path d="M76.5091 99.448L74.4458 98.2555V100.28L76.5091 101.473V99.448Z" fill="#001A46"/>
<path d="M82.9343 103.123L80.8849 101.93V103.955L82.9343 105.147V103.123Z" fill="#001A46"/>
<path d="M79.7356 101.306L77.6724 100.1V102.138L79.7356 103.331V101.306Z" fill="#001A46"/>
<path d="M58.8259 88.4378C58.8259 88.9925 58.4381 89.2143 57.9673 88.937C57.4826 88.6597 57.1088 87.9941 57.1088 87.4394C57.1088 86.8847 57.4965 86.6629 57.9673 86.9402C58.452 87.2175 58.8259 87.8831 58.8259 88.4378Z" fill="#EB4680"/>
<path d="M61.346 89.8661C61.346 90.4208 60.9583 90.6427 60.4875 90.3653C60.0028 90.088 59.6289 89.4224 59.6289 88.8677C59.6289 88.3131 60.0166 88.0912 60.4875 88.3685C60.9721 88.6459 61.346 89.3115 61.346 89.8661Z" fill="#0FBAB8"/>
<path d="M63.9909 91.4747C63.9909 92.0293 63.6032 92.2512 63.1324 91.9739C62.6477 91.6965 62.2738 91.0309 62.2738 90.4763C62.2738 89.9216 62.6615 89.6997 63.1324 89.9771C63.617 90.2544 63.9909 90.92 63.9909 91.4747Z" fill="#D1EBFF"/>
<path d="M70.3193 93.8458L66.6774 91.7242V93.8736L67.4667 94.345V95.3157L69.5161 96.5082V95.5376L70.3193 96.009V93.8458Z" fill="#001A46"/>
<path d="M67.7298 95.1909V94.2202L66.9405 93.7626V91.8768L66.6774 91.7242V93.8736L67.4667 94.345V95.3157L69.5161 96.5082V96.2309L67.7298 95.1909Z" fill="#001A46"/>
<path d="M69.7931 95.4266V95.704L70.3193 96.009V95.7317L69.7931 95.4266Z" fill="#001A46"/>
<path d="M86.9502 82.7942V95.8149L137.078 66.8891V53.8683L86.9502 82.7942Z" fill="#001A46"/>
<path d="M86.9779 82.7941V95.8149L52.4559 75.6666V62.6597L86.9779 82.7941Z" fill="#001A46"/>
<path d="M54.6162 74.4047V65.849L85.2885 83.737V92.3205L54.6162 74.4047Z" fill="#D1EBFF"/>
<path d="M54.3807 74.5573V66.0016L85.0531 83.8896V92.4731L54.3807 74.5573Z" fill="#D1EBFF"/>
<path d="M52.4559 62.6597L86.9779 82.7941L137.078 53.8682L102.529 33.72L52.4559 62.6597Z" fill="#D1EBFF"/>
<path d="M71.7594 77.2474L55.3362 67.6655V74.0165L71.7594 83.5983V77.2474Z" fill="#001A46"/>
<path d="M73.4349 78.218V84.5689L84.0975 90.7951V84.4442L73.4349 78.218Z" fill="#001A46"/>
<path d="M55.8485 73.8362V67.9706L55.3362 67.6655V74.0165L71.7594 83.5983V83.113L55.8485 73.8362Z" fill="#001A46"/>
<path d="M73.9473 84.3888V78.5232L73.4349 78.2181V84.5691L84.0975 90.7952V90.3237L73.9473 84.3888Z" fill="#001A46"/>
<path d="M76.6891 80.7558L74.6259 79.5632V81.5878L76.6891 82.7803V80.7558Z" fill="#D1EBFF"/>
<path d="M83.1144 84.4303L81.0649 83.2378V85.2623L83.1144 86.4549V84.4303Z" fill="#D1EBFF"/>
<path d="M79.9156 82.6139L77.8523 81.4075V83.432L79.9156 84.6384V82.6139Z" fill="#D1EBFF"/>
<path d="M76.5091 80.9359L74.4458 79.7434V81.7679L76.5091 82.9605V80.9359Z" fill="#001A46"/>
<path d="M82.9343 84.6106L80.8849 83.4181V85.4426L82.9343 86.6352V84.6106Z" fill="#001A46"/>
<path d="M79.7356 82.794L77.6724 81.5876V83.6122L79.7356 84.8186V82.794Z" fill="#001A46"/>
<path d="M76.6891 83.5568L74.6259 82.3643V84.3888L76.6891 85.5952V83.5568Z" fill="#D1EBFF"/>
<path d="M83.1144 87.2315L81.0649 86.0389V88.0635L83.1144 89.2699V87.2315Z" fill="#D1EBFF"/>
<path d="M79.9156 85.4149L77.8523 84.2085V86.2469L79.9156 87.4394V85.4149Z" fill="#D1EBFF"/>
<path d="M76.5091 83.7371L74.4458 82.5446V84.5691L76.5091 85.7755V83.7371Z" fill="#001A46"/>
<path d="M82.9343 87.4117L80.8849 86.2191V88.2436L82.9343 89.45V87.4117Z" fill="#001A46"/>
<path d="M79.7356 85.5952L77.6724 84.3888V86.4272L79.7356 87.6197V85.5952Z" fill="#001A46"/>
<path d="M58.8259 72.7269C58.8259 73.2815 58.4381 73.5034 57.9673 73.2261C57.4826 72.9487 57.1088 72.2831 57.1088 71.7285C57.1088 71.1738 57.4965 70.9519 57.9673 71.2293C58.452 71.5066 58.8259 72.1722 58.8259 72.7269Z" fill="#EB4680"/>
<path d="M61.346 74.169C61.346 74.7237 60.9583 74.9455 60.4875 74.6682C60.0028 74.3909 59.6289 73.7253 59.6289 73.1706C59.6289 72.6159 60.0166 72.3941 60.4875 72.6714C60.9721 72.9487 61.346 73.6143 61.346 74.169Z" fill="#0FBAB8"/>
<path d="M63.9909 75.7637C63.9909 76.3184 63.6032 76.5403 63.1324 76.2629C62.6477 75.9856 62.2738 75.32 62.2738 74.7653C62.2738 74.2107 62.6615 73.9888 63.1324 74.2661C63.617 74.5435 63.9909 75.2091 63.9909 75.7637Z" fill="#D1EBFF"/>
<path d="M70.3193 78.1349L66.6774 76.0133V78.1765L67.4667 78.6341V79.6048L69.5161 80.8112V79.8266L70.3193 80.2981V78.1349Z" fill="#001A46"/>
<path d="M67.7298 79.48V78.5093L66.9405 78.0517V76.1658L66.6774 76.0133V78.1765L67.4667 78.6341V79.6048L69.5161 80.8112V80.5338L67.7298 79.48Z" fill="#001A46"/>
<path d="M69.7931 79.7157V79.993L70.3193 80.2981V80.0208L69.7931 79.7157Z" fill="#001A46"/>
<path d="M90.052 77.0395V214.111L154 177.212V40.1403L90.052 77.0395Z" fill="#72B5E8"/>
<path d="M98.9698 165.134C98.0144 165.134 97.2389 164.358 97.2389 163.401V88.5904C97.2389 86.9957 98.0974 85.512 99.4822 84.7077L144.224 58.9019C144.487 58.7493 144.791 58.6661 145.082 58.6661C146.038 58.6661 146.813 59.4427 146.813 60.3995V135.21C146.813 136.805 145.955 138.289 144.57 139.093L99.8284 164.899C99.5653 165.051 99.2606 165.134 98.9698 165.134ZM145.082 59.6368C144.944 59.6368 144.819 59.6784 144.694 59.7477L99.953 85.5536C98.8729 86.1776 98.1944 87.3424 98.1944 88.5904V163.401C98.1944 164.053 98.9006 164.33 99.3437 164.067L144.085 138.261C145.165 137.637 145.844 136.472 145.844 135.224V60.3995C145.844 59.928 145.442 59.6229 145.068 59.6229L145.082 59.6368Z" fill="#D1EBFF"/>
<path d="M98.9698 165.134C98.6652 165.134 98.3744 165.051 98.0974 164.899L98.5821 164.067C98.8175 164.205 99.1083 164.205 99.3437 164.067L144.085 138.261C145.165 137.637 145.844 136.472 145.844 135.224V60.3994C145.844 60.0112 145.594 59.7754 145.359 59.6784L145.719 58.7909C146.384 59.0544 146.813 59.6922 146.813 60.3994V135.21C146.813 136.805 145.955 138.288 144.57 139.093L99.8284 164.899C99.5514 165.051 99.2606 165.134 98.9698 165.134Z" fill="#D1EBFF"/>
<path d="M47 51.9131L90.0659 77.0395L154 40.1403L110.879 15L47 51.9131Z" fill="#D1EBFF"/>
<path d="M47 51.9131V188.957L90.0659 214.098V77.0395L47 51.9131ZM86.2301 207.414L50.8358 186.753V58.5968L86.2301 79.2443V207.428V207.414Z" fill="#D1EBFF"/>
<path d="M118.412 161.418L98.7207 172.775C98.0975 173.136 97.7236 173.787 97.7236 174.508V174.952C97.7236 175.576 98.4022 175.964 98.9422 175.659L118.633 164.302C119.257 163.942 119.63 163.29 119.63 162.569V162.125C119.63 161.501 118.952 161.113 118.412 161.418Z" fill="#D1EBFF"/>
<path d="M124.505 159.061V159.505C124.505 160.129 125.183 160.517 125.723 160.212L145.331 148.897C145.955 148.536 146.328 147.884 146.328 147.163V146.719C146.328 146.095 145.65 145.707 145.11 146.012L125.502 157.327C124.879 157.688 124.505 158.34 124.505 159.061Z" fill="#D1EBFF"/>
<path d="M118.772 161.321C118.855 161.446 118.91 161.598 118.91 161.765V162.208C118.91 162.916 118.536 163.581 117.913 163.942L98.2221 175.299C98.1113 175.368 97.9867 175.396 97.8621 175.396C98.0836 175.728 98.5544 175.881 98.9422 175.659L118.633 164.302C119.257 163.942 119.63 163.29 119.63 162.569V162.125C119.63 161.64 119.215 161.293 118.772 161.321Z" fill="#D1EBFF"/>
<path d="M145.47 145.929C145.553 146.054 145.608 146.206 145.608 146.373V146.817C145.608 147.524 145.234 148.189 144.611 148.55L125.003 159.865C124.892 159.934 124.768 159.962 124.643 159.962C124.865 160.295 125.336 160.447 125.723 160.226L145.331 148.91C145.955 148.55 146.328 147.898 146.328 147.177V146.733C146.328 146.248 145.913 145.901 145.47 145.929Z" fill="#D1EBFF"/>
<path d="M118.412 166.59L98.7207 177.947C98.0975 178.308 97.7236 178.959 97.7236 179.68V180.124C97.7236 180.748 98.4022 181.136 98.9422 180.831L118.633 169.475C119.257 169.114 119.63 168.462 119.63 167.741V167.298C119.63 166.674 118.952 166.285 118.412 166.59Z" fill="#D1EBFF"/>
<path d="M124.505 164.219V164.663C124.505 165.287 125.183 165.675 125.723 165.37L145.331 154.055C145.955 153.694 146.328 153.043 146.328 152.322V151.878C146.328 151.254 145.65 150.866 145.11 151.171L125.502 162.486C124.879 162.846 124.505 163.498 124.505 164.219Z" fill="#D1EBFF"/>
<path d="M118.772 166.479C118.855 166.604 118.91 166.757 118.91 166.923V167.367C118.91 168.074 118.536 168.74 117.913 169.1L98.2221 180.457C98.1113 180.526 97.9867 180.554 97.8621 180.554C98.0836 180.887 98.5544 181.039 98.9422 180.817L118.633 169.461C119.257 169.1 119.63 168.448 119.63 167.727V167.284C119.63 166.798 119.215 166.452 118.772 166.479Z" fill="#D1EBFF"/>
<path d="M145.47 151.087C145.553 151.212 145.608 151.365 145.608 151.531V151.975C145.608 152.682 145.234 153.348 144.611 153.708L125.003 165.023C124.892 165.093 124.768 165.12 124.643 165.12C124.865 165.453 125.336 165.606 125.723 165.384L145.331 154.069C145.955 153.708 146.328 153.056 146.328 152.335V151.892C146.328 151.406 145.913 151.06 145.47 151.087Z" fill="#D1EBFF"/>
<path d="M118.412 171.749L98.7207 183.106C98.0975 183.466 97.7236 184.118 97.7236 184.839V185.283C97.7236 185.907 98.4022 186.295 98.9422 185.99L118.633 174.633C119.257 174.273 119.63 173.621 119.63 172.9V172.456C119.63 171.832 118.952 171.444 118.412 171.749Z" fill="#D1EBFF"/>
<path d="M124.505 169.392V169.835C124.505 170.459 125.183 170.848 125.723 170.542L145.331 159.227C145.955 158.867 146.328 158.215 146.328 157.494V157.05C146.328 156.426 145.65 156.038 145.11 156.343L125.502 167.658C124.879 168.019 124.505 168.67 124.505 169.392Z" fill="#D1EBFF"/>
<path d="M118.772 171.652C118.855 171.777 118.91 171.929 118.91 172.096V172.539C118.91 173.246 118.536 173.912 117.913 174.273L98.2221 185.629C98.1113 185.699 97.9867 185.726 97.8621 185.726C98.0836 186.059 98.5544 186.212 98.9422 185.99L118.633 174.633C119.257 174.273 119.63 173.621 119.63 172.9V172.456C119.63 171.971 119.215 171.624 118.772 171.652Z" fill="#D1EBFF"/>
<path d="M145.47 156.246C145.553 156.371 145.608 156.523 145.608 156.69V157.133C145.608 157.841 145.234 158.506 144.611 158.867L125.003 170.182C124.892 170.251 124.768 170.279 124.643 170.279C124.865 170.612 125.336 170.764 125.723 170.542L145.331 159.227C145.955 158.867 146.328 158.215 146.328 157.494V157.05C146.328 156.565 145.913 156.218 145.47 156.246Z" fill="#D1EBFF"/>
<path d="M118.412 176.907L98.7207 188.264C98.0975 188.625 97.7236 189.276 97.7236 189.997V190.441C97.7236 191.065 98.4022 191.453 98.9422 191.148L118.633 179.791C119.257 179.431 119.63 178.779 119.63 178.058V177.614C119.63 176.99 118.952 176.602 118.412 176.907Z" fill="#D1EBFF"/>
<path d="M124.505 174.55V174.994C124.505 175.618 125.183 176.006 125.723 175.701L145.331 164.386C145.955 164.025 146.328 163.373 146.328 162.652V162.209C146.328 161.585 145.65 161.196 145.11 161.501L125.502 172.817C124.879 173.177 124.505 173.829 124.505 174.55Z" fill="#D1EBFF"/>
<path d="M118.772 176.81C118.855 176.935 118.91 177.087 118.91 177.254V177.698C118.91 178.405 118.536 179.07 117.913 179.431L98.2221 190.788C98.1113 190.857 97.9867 190.885 97.8621 190.885C98.0836 191.218 98.5544 191.37 98.9422 191.148L118.633 179.791C119.257 179.431 119.63 178.779 119.63 178.058V177.614C119.63 177.129 119.215 176.782 118.772 176.81Z" fill="#D1EBFF"/>
<path d="M145.47 161.404C145.553 161.529 145.608 161.682 145.608 161.848V162.292C145.608 162.999 145.234 163.665 144.611 164.025L125.003 175.34C124.892 175.41 124.768 175.437 124.643 175.437C124.865 175.77 125.336 175.923 125.723 175.701L145.331 164.386C145.955 164.025 146.328 163.373 146.328 162.652V162.209C146.328 161.723 145.913 161.377 145.47 161.404Z" fill="#D1EBFF"/>
<path d="M118.412 182.079L98.7207 193.436C98.0975 193.797 97.7236 194.448 97.7236 195.17V195.613C97.7236 196.237 98.4022 196.626 98.9422 196.32L118.633 184.964C119.257 184.603 119.63 183.951 119.63 183.23V182.787C119.63 182.163 118.952 181.774 118.412 182.079Z" fill="#D1EBFF"/>
<path d="M124.505 179.708V180.152C124.505 180.776 125.183 181.164 125.723 180.859L145.331 169.544C145.955 169.183 146.328 168.532 146.328 167.811V167.367C146.328 166.743 145.65 166.355 145.11 166.66L125.502 177.975C124.879 178.335 124.505 178.987 124.505 179.708Z" fill="#D1EBFF"/>
<path d="M118.772 181.968C118.855 182.093 118.91 182.246 118.91 182.412V182.856C118.91 183.563 118.536 184.229 117.913 184.589L98.2221 195.946C98.1113 196.015 97.9867 196.043 97.8621 196.043C98.0836 196.376 98.5544 196.528 98.9422 196.307L118.633 184.95C119.257 184.589 119.63 183.938 119.63 183.216V182.773C119.63 182.287 119.215 181.941 118.772 181.968Z" fill="#D1EBFF"/>
<path d="M145.47 166.577C145.553 166.701 145.608 166.854 145.608 167.02V167.464C145.608 168.171 145.234 168.837 144.611 169.197L125.003 180.513C124.892 180.582 124.768 180.61 124.643 180.61C124.865 180.942 125.336 181.095 125.723 180.873L145.331 169.558C145.955 169.197 146.328 168.546 146.328 167.825V167.381C146.328 166.895 145.913 166.549 145.47 166.577Z" fill="#D1EBFF"/>
<path d="M118.412 187.238L98.7207 198.595C98.0975 198.955 97.7236 199.607 97.7236 200.328V200.772C97.7236 201.396 98.4022 201.784 98.9422 201.479L118.633 190.122C119.257 189.762 119.63 189.11 119.63 188.389V187.945C119.63 187.321 118.952 186.933 118.412 187.238Z" fill="#D1EBFF"/>
<path d="M124.505 184.881V185.324C124.505 185.948 125.183 186.337 125.723 186.031L145.331 174.716C145.955 174.356 146.328 173.704 146.328 172.983V172.539C146.328 171.915 145.65 171.527 145.11 171.832L125.502 183.147C124.879 183.508 124.505 184.159 124.505 184.881Z" fill="#D1EBFF"/>
<path d="M118.772 187.141C118.855 187.266 118.91 187.418 118.91 187.585V188.028C118.91 188.736 118.536 189.401 117.913 189.762L98.2221 201.118C98.1113 201.188 97.9867 201.215 97.8621 201.215C98.0836 201.548 98.5544 201.701 98.9422 201.479L118.633 190.122C119.257 189.762 119.63 189.11 119.63 188.389V187.945C119.63 187.46 119.215 187.113 118.772 187.141Z" fill="#D1EBFF"/>
<path d="M145.47 171.735C145.553 171.86 145.608 172.012 145.608 172.179V172.622C145.608 173.33 145.234 173.995 144.611 174.356L125.003 185.671C124.892 185.74 124.768 185.768 124.643 185.768C124.865 186.101 125.336 186.253 125.723 186.031L145.331 174.716C145.955 174.356 146.328 173.704 146.328 172.983V172.539C146.328 172.054 145.913 171.707 145.47 171.735Z" fill="#D1EBFF"/>
<path d="M47 190.316L90.0659 215.429L154 178.543L90.052 214.846L47 190.316Z" fill="#D1EBFF"/>
<path d="M47 51.9131L90.0659 77.0395L154 40.1403L90.0936 76.568L47 51.9131Z" fill="#D1EBFF"/>
</g>
</g>
<defs>
<clipPath id="clip0_729_5696">
<rect width="200" height="200" rx="100" fill="white"/>
</clipPath>
<clipPath id="clip1_729_5696">
<rect width="107" height="208" fill="white" transform="translate(47 15)"/>
</clipPath>
</defs>
</svg>
