<svg width="203" height="29" viewBox="0 0 203 29" fill="none" xmlns="http://www.w3.org/2000/svg">
<g clip-path="url(#clip0_380_2389)">
<path d="M48.3916 21.4848C48.0342 21.9402 48.0007 22.0634 48.2911 21.8544L41.8256 21.7424C41.4236 21.7424 41.2226 21.944 41.2226 22.3472L41.1891 27.6C41.1891 27.9957 40.9955 28.1824 40.6084 28.16C31.5522 27.656 25.5222 19.0544 27.9454 10.4416C30.1341 2.66877 38.9557 -1.55363 46.5267 1.73917C50.8817 3.64317 53.6473 7.37651 54.8236 12.9392C55.0171 13.8501 54.6449 14.3056 53.7069 14.3056L49.4859 14.2944C48.6074 14.2944 48.1124 13.8613 48.0007 12.9952C46.8841 4.41597 32.9034 5.77117 34.1317 15.3024C34.4965 18.1472 36.3167 20.193 39.5922 21.44C39.7724 21.5094 39.9668 21.5336 40.1585 21.5103C40.3501 21.4871 40.5332 21.4173 40.6918 21.3068C40.8503 21.1964 40.9796 21.0487 41.0682 20.8767C41.1568 20.7047 41.2021 20.5136 41.2002 20.32L41.1779 15.0672C41.1704 14.5296 41.4347 14.2645 41.9707 14.272L47.5764 14.3168C48.0752 14.3242 48.3283 14.5781 48.3357 15.0784L48.3916 21.4848Z" fill="#CAC1DE"/>
<path d="M190.141 6.52156C188.518 6.69329 187.904 7.60423 188.299 9.25436C188.387 9.62011 188.582 9.95186 188.858 10.2086C189.133 10.4654 189.479 10.6359 189.851 10.6992C194.34 11.4496 201.52 12.9616 202.201 18.5616C203.653 30.4448 188.41 30.4448 181.9 25.2816C181.245 24.7589 181.152 24.1541 181.621 23.4672L183.687 20.4544C183.775 20.3262 183.889 20.2175 184.021 20.1351C184.153 20.0527 184.301 19.9983 184.454 19.9752C184.608 19.9521 184.765 19.9608 184.915 20.0009C185.066 20.0409 185.206 20.1114 185.328 20.208C188.098 22.3957 191.243 23.0864 194.764 22.28C195.12 22.1972 195.439 21.9992 195.673 21.7161C195.907 21.433 196.043 21.0804 196.059 20.712C196.119 19.2709 195.211 18.3114 193.335 17.8336C189.851 16.9376 185.083 16.1648 182.983 12.7824C180.058 8.06716 182.09 2.63516 187.483 1.02236C192.419 -0.45604 197.053 0.398893 201.386 3.58716C201.565 3.72156 201.594 3.88209 201.475 4.06876L198.773 8.40316C198.669 8.56743 198.538 8.59729 198.382 8.49276C195.925 6.85756 193.178 6.20049 190.141 6.52156Z" fill="#CAC1DE"/>
<path d="M48.3913 21.4848L54.0528 21.4064C54.6781 21.3989 54.9908 21.7088 54.9908 22.336L54.9573 27.2752C54.9573 27.5049 54.8659 27.7255 54.7028 27.889C54.5398 28.0525 54.3183 28.1458 54.0863 28.1488L49.0166 28.1712C48.5774 28.1712 48.3578 27.9509 48.3578 27.5104L48.2908 21.8544C48.0005 22.0635 48.034 21.9403 48.3913 21.4848Z" fill="#AEA5CC"/>
<path d="M8.49288 23.3328L7.24222 27.6784C7.20155 27.8164 7.11775 27.9378 7.00316 28.0245C6.88857 28.1112 6.74925 28.1587 6.60572 28.16H1.35738C1.25111 28.1601 1.14633 28.1349 1.05168 28.0864C0.957036 28.038 0.875247 27.9676 0.813065 27.8812C0.750884 27.7947 0.710095 27.6947 0.694066 27.5893C0.678037 27.484 0.687229 27.3763 0.720882 27.2752L9.57605 1.17917C9.62062 1.04528 9.70609 0.928864 9.82034 0.846438C9.93459 0.764013 10.0718 0.719765 10.2125 0.719971H16.075C16.2158 0.719765 16.353 0.764013 16.4673 0.846438C16.5815 0.928864 16.667 1.04528 16.7115 1.17917L25.6002 27.2752C25.6339 27.3763 25.6431 27.484 25.627 27.5893C25.611 27.6947 25.5702 27.7947 25.508 27.8812C25.4458 27.9676 25.3641 28.038 25.2694 28.0864C25.1748 28.1349 25.07 28.1601 24.9637 28.16H19.76C19.6146 28.1611 19.4727 28.1147 19.3559 28.0278C19.2391 27.9409 19.1536 27.8183 19.1124 27.6784L17.8394 23.3216C17.7982 23.1817 17.7127 23.059 17.5959 22.9721C17.479 22.8852 17.3372 22.8389 17.1917 22.84L9.12938 22.8512C8.98585 22.8525 8.84652 22.9 8.73193 22.9867C8.61734 23.0734 8.53354 23.1947 8.49288 23.3328ZM10.4135 17.016C10.3959 17.0734 10.3921 17.1342 10.4024 17.1933C10.4126 17.2525 10.4367 17.3084 10.4727 17.3565C10.5086 17.4046 10.5554 17.4434 10.6091 17.4699C10.6629 17.4963 10.7222 17.5097 10.782 17.5088L15.5279 17.5312C15.5865 17.5315 15.6444 17.5183 15.6971 17.4924C15.7498 17.4666 15.7958 17.4289 15.8315 17.3822C15.8671 17.3356 15.8916 17.2813 15.9029 17.2235C15.9141 17.1658 15.9119 17.1063 15.8964 17.0496L13.5625 8.75037C13.5387 8.67251 13.4906 8.60437 13.4252 8.55596C13.3599 8.50755 13.2808 8.48143 13.1996 8.48143C13.1184 8.48143 13.0393 8.50755 12.974 8.55596C12.9087 8.60437 12.8606 8.67251 12.8367 8.75037L10.4135 17.016Z" fill="#CAC1DE"/>
<path d="M79.5128 23.7471C75.8948 30.7359 64.0023 30.0863 60.898 23.6351C58.5865 18.8303 59.6585 8.27994 59.6138 1.92954C59.6124 1.76975 59.6425 1.61126 59.7024 1.46321C59.7624 1.31516 59.851 1.18049 59.9631 1.06697C60.0752 0.953464 60.2087 0.863363 60.3557 0.801876C60.5028 0.740388 60.6605 0.708733 60.8198 0.70874L64.9292 0.71994C65.6736 0.71994 66.0458 1.09327 66.0458 1.83994V19.2895C66.0458 20.1441 66.3661 20.9675 66.9432 21.5962C67.5204 22.2249 68.3122 22.6129 69.1613 22.6831L70.3227 22.7727C73.159 23.0042 74.5734 21.6938 74.566 18.8415L74.5548 1.63834C74.5548 1.02607 74.8563 0.71994 75.4593 0.71994H80.0153C80.2671 0.71994 80.5085 0.820241 80.6865 0.998775C80.8645 1.17731 80.9645 1.41945 80.9645 1.67194C80.9794 6.51781 80.9794 11.5167 80.9645 16.6687C80.9496 19.5434 80.4657 21.9029 79.5128 23.7471Z" fill="#CAC1DE"/>
<path d="M92.7454 23.2656L91.4724 27.7232C91.4383 27.8455 91.3653 27.9532 91.2645 28.0301C91.1638 28.1069 91.0407 28.1486 90.9141 28.1488L85.4536 28.16C85.3612 28.1597 85.2701 28.1373 85.1881 28.0947C85.106 28.052 85.0353 27.9904 84.9817 27.9148C84.9282 27.8392 84.8935 27.7519 84.8804 27.6601C84.8673 27.5684 84.8762 27.4748 84.9064 27.3872L93.8398 1.11197C93.8791 0.997771 93.953 0.898687 94.051 0.828451C94.149 0.758214 94.2664 0.720302 94.3869 0.719971H100.372C100.493 0.720302 100.61 0.758214 100.708 0.828451C100.806 0.898687 100.88 0.997771 100.919 1.11197L109.864 27.376C109.892 27.4629 109.899 27.5553 109.885 27.6456C109.871 27.7358 109.836 27.8215 109.783 27.8957C109.729 27.9698 109.659 28.0304 109.578 28.0724C109.498 28.1144 109.408 28.1367 109.317 28.1376L104.013 28.1824C103.889 28.1836 103.768 28.1452 103.667 28.0726C103.567 28.0001 103.492 27.8973 103.454 27.7792L101.936 23.232C101.896 23.1178 101.822 23.0187 101.724 22.9484C101.626 22.8782 101.509 22.8403 101.388 22.84H93.3038C93.1772 22.8402 93.0541 22.8819 92.9533 22.9587C92.8525 23.0355 92.7795 23.1433 92.7454 23.2656ZM94.5321 17.0048C94.5145 17.0622 94.5106 17.123 94.5209 17.1821C94.5312 17.2413 94.5553 17.2972 94.5912 17.3453C94.6272 17.3934 94.6739 17.4322 94.7277 17.4587C94.7814 17.4851 94.8407 17.4985 94.9006 17.4976L99.7692 17.5312C99.8291 17.5321 99.8884 17.5187 99.9422 17.4923C99.9959 17.4658 100.043 17.4269 100.079 17.3789C100.115 17.3308 100.139 17.2749 100.149 17.2157C100.159 17.1566 100.155 17.0958 100.138 17.0384L97.7593 9.07517C97.7366 8.99691 97.6895 8.928 97.625 8.87856C97.5604 8.82913 97.4817 8.80178 97.4005 8.80052C97.3192 8.79927 97.2397 8.82418 97.1737 8.8716C97.1076 8.91902 97.0584 8.98645 97.0334 9.06397L94.5321 17.0048Z" fill="#CAC1DE"/>
<path d="M121.008 19.2673C120.986 19.4315 120.953 19.551 120.908 19.6257C120.811 19.7601 120.763 19.8982 120.763 20.0401V27.8801C120.763 28.0667 120.67 28.1601 120.484 28.1601H114.9C114.826 28.1601 114.755 28.1306 114.703 28.0781C114.651 28.0255 114.621 27.9543 114.621 27.8801V1.56006C114.621 1.14193 114.83 0.914198 115.246 0.876864C122.304 0.238464 133.035 -0.489535 134.531 8.41446C135.261 12.7227 133.798 15.855 130.143 17.8113C130.04 17.8671 129.95 17.9437 129.878 18.0359C129.807 18.1282 129.755 18.2342 129.726 18.347C129.698 18.4599 129.694 18.5772 129.713 18.6913C129.733 18.8054 129.777 18.9139 129.841 19.0097L135.57 27.7569C135.592 27.7909 135.605 27.8303 135.606 27.871C135.608 27.9117 135.599 27.9521 135.579 27.9878C135.56 28.0235 135.531 28.0532 135.496 28.0737C135.461 28.0942 135.421 28.1047 135.38 28.1041L128.914 28.1937C128.817 28.1973 128.72 28.1743 128.634 28.127C128.547 28.0797 128.475 28.01 128.423 27.9249L122.963 18.8641C122.849 18.6776 122.68 18.5309 122.48 18.444C122.28 18.357 122.058 18.334 121.844 18.3781C121.631 18.4221 121.436 18.5311 121.286 18.6903C121.137 18.8494 121.04 19.0508 121.008 19.2673ZM120.763 7.47366L120.74 12.9617C120.74 13.128 120.806 13.2875 120.924 13.4052C121.041 13.5228 121.2 13.5889 121.366 13.5889L125.14 13.6001C125.539 13.6016 125.934 13.5316 126.303 13.394C126.673 13.2564 127.008 13.0539 127.291 12.798C127.575 12.5422 127.799 12.238 127.953 11.9029C128.107 11.5677 128.187 11.2082 128.189 10.8449V9.63526C128.191 8.90171 127.874 8.19701 127.307 7.67613C126.739 7.15525 125.968 6.86085 125.162 6.85766L121.388 6.84646C121.222 6.84646 121.063 6.91254 120.946 7.03017C120.829 7.14779 120.763 7.30732 120.763 7.47366Z" fill="#CAC1DE"/>
<path d="M146.479 0.742432H141.387C141.098 0.742432 140.863 0.978108 140.863 1.26883V27.6336C140.863 27.9244 141.098 28.16 141.387 28.16H146.479C146.769 28.16 147.004 27.9244 147.004 27.6336V1.26883C147.004 0.978108 146.769 0.742432 146.479 0.742432Z" fill="#CAC1DE"/>
<path d="M163.788 22.616L164.915 22.6832C167.581 22.8549 168.913 21.6005 168.913 18.92L168.924 2.05277C168.924 1.69929 169.063 1.36029 169.31 1.11034C169.557 0.860391 169.893 0.719971 170.242 0.719971H174.173C174.977 0.719971 175.375 1.11944 175.367 1.91837C175.3 7.92157 176.484 19.6704 173.815 24.2176C171.872 27.5402 168.414 28.9813 163.441 28.5408C157.665 28.033 154.664 24.8186 154.441 18.8976C154.21 13.0288 154.117 7.27944 154.162 1.64957C154.169 1.0373 154.482 0.731171 155.1 0.731171L159.555 0.719971C160.114 0.719971 160.393 0.996237 160.393 1.54877L160.415 19.0208C160.419 19.9388 160.77 20.8209 161.396 21.4885C162.022 22.1561 162.877 22.5591 163.788 22.616Z" fill="#CAC1DE"/>
</g>
<defs>
<clipPath id="clip0_380_2389">
<rect width="203" height="29" fill="white"/>
</clipPath>
</defs>
</svg>
