<svg width="155" height="72" viewBox="0 0 155 72" fill="none" xmlns="http://www.w3.org/2000/svg">
<path d="M25.683 0.136021C24.177 0.498741 20.8913 1.72292 20.8913 1.94962C20.8913 2.08564 22.1235 3.30982 23.6751 4.71537C26.4132 7.25441 27.5084 8.84131 28.1929 11.2443L28.558 12.5139L26.1394 10.9723C24.8159 10.1108 22.0778 8.88665 20.0699 8.16121C16.4191 6.93703 16.4191 6.93703 15.4151 7.79849C13.9548 9.11335 12.3575 12.0605 11.9468 14.1008C11.6274 15.869 11.6274 15.869 12.9508 15.597C16.2822 14.8715 20.1155 14.7355 22.808 15.2796C25.5917 15.8237 30.566 18 31.1592 18.9068C32.3001 20.7204 33.3497 16.9118 33.3954 10.9723C33.3954 7.29975 33.1672 5.84887 32.3001 3.26448L31.1592 0.0906811L28.8775 0C27.6453 0 26.185 0.0453415 25.683 0.136021Z" fill="#1E1E1E"/>
<path d="M37.7764 1.67751C37.7764 2.81101 38.0958 3.17373 39.7387 3.98985C40.7883 4.53393 42.5224 5.80345 43.6177 6.84627C45.2149 8.38784 45.6256 8.5692 45.9907 8.02512C46.8121 6.75559 46.4471 5.75811 44.576 3.89917C42.8419 2.17625 39.6474 0.362648 38.3696 0.317307C38.0045 0.317307 37.7764 0.906728 37.7764 1.67751Z" fill="#1E1E1E"/>
<path d="M37.7763 6.21161C37.7763 6.71035 37.3656 8.20657 36.818 9.61211L35.8596 12.1512L37.7763 14.1915L39.693 16.2771L41.6553 14.1915C44.941 10.8363 44.941 10.6096 42.6593 8.34259C41.564 7.25443 40.0124 6.12093 39.2366 5.84889C37.9132 5.39549 37.7763 5.44083 37.7763 6.21161Z" fill="#1E1E1E"/>
<path d="M49.1852 13.2393C47.9074 14.5995 43.2982 16.9572 41.199 17.3653C39.8299 17.592 39.6474 17.8187 39.5105 19.4963C39.3736 20.5391 39.1454 21.7179 38.9629 22.1713C38.6891 22.8061 39.0541 22.9421 41.5184 23.2141C43.1157 23.3955 45.9451 23.3502 47.8161 23.1235C51.7407 22.7154 51.7864 22.6247 51.8776 17.456C51.9233 14.4635 51.3757 12.1058 50.6455 12.1058C50.4173 12.1058 49.7784 12.6046 49.1852 13.2393Z" fill="#1E1E1E"/>
<path d="M19.7504 19.5415C18.2444 20.131 16.0539 21.1738 14.8674 21.8992C12.7682 23.1234 12.6769 23.3048 12.9507 24.801C13.3158 27.0226 15.1868 30.7859 16.5559 32.0554C17.1948 32.6448 17.7424 33.0529 17.8337 32.9169C17.8793 32.8262 18.4726 31.6473 19.0658 30.3325C19.7047 28.9269 21.2107 26.9773 22.7623 25.4811C25.3635 23.0327 25.3635 22.942 24.7246 21.7179C24.4052 21.0378 24.0857 20.0403 24.0857 19.4509C24.0857 18.1813 23.3099 18.1813 19.7504 19.5415Z" fill="#1E1E1E"/>
<path d="M25.9568 25.1637C25.2722 26.4786 24.1313 30.7859 23.8575 33.461L23.5381 35.9547L25.3179 36.7254C28.6949 38.1763 33.4409 38.9018 34.2167 38.131C34.3993 37.995 33.8973 36.5441 33.1215 34.9572C32.2088 33.0076 31.6612 31.0126 31.4786 29.063C31.2961 26.796 31.1135 26.1612 30.5203 26.1612C30.1096 26.1612 29.0143 25.7532 28.1016 25.2544C26.5044 24.393 26.3675 24.393 25.9568 25.1637Z" fill="#1E1E1E"/>
<path d="M35.1751 25.4357C34.1255 25.9798 33.2584 26.6146 33.2128 26.8866C33.2128 27.6121 36.8636 32.4181 38.8259 34.277L40.4688 35.8186L42.9331 34.5944C45.3061 33.4609 49.1851 29.8791 49.1851 28.8816C49.1851 28.6549 48.5918 28.4282 47.9073 28.4282C46.0819 28.4282 42.5224 27.1587 40.0124 25.6171C37.5938 24.1662 37.7307 24.1662 35.1751 25.4357Z" fill="#1E1E1E"/>
<path d="M0.0359764 43.6172C-0.1922 44.2973 0.492329 46.3376 7.20071 64.3376L10.0301 71.9547H12.6769H15.2781L20.3893 58.0807C23.2187 50.4182 25.4092 43.8892 25.2723 43.5718C24.9984 42.8917 22.3972 42.7104 21.5302 43.2998C21.2564 43.4812 19.2028 48.8766 16.9666 55.2696C14.7305 61.6625 12.8595 66.8313 12.8138 66.7859C12.7226 66.7406 10.8059 61.4812 8.56977 55.1789C6.288 48.8313 4.18878 43.4812 3.86934 43.2998C2.86536 42.665 0.355423 42.8917 0.0359764 43.6172Z" fill="#1E1E1E"/>
<path d="M29.6988 43.2545C29.2425 43.4358 29.1056 46.7003 29.1056 57.7179V71.9547H30.1552C30.9766 71.9547 32.1632 70.5492 35.9509 65.1537C38.5977 61.3905 40.7426 57.99 40.6969 57.5366C40.6969 56.6298 31.6155 43.5718 30.7941 43.2545C30.4746 43.1638 29.9727 43.1638 29.6988 43.2545Z" fill="#1E1E1E"/>
<path d="M91.9909 43.4812C91.3521 44.0252 81.1298 70.3678 81.1298 71.5013C81.1298 71.728 82.0881 71.9547 83.3203 71.9547H85.5564L86.7885 68.3275L88.0663 64.7003H94.1358H100.16L101.529 68.1915L102.852 71.728L104.997 71.864C106.868 72.0001 107.142 71.9094 107.142 71.1386C107.142 69.8237 97.1477 43.7079 96.5088 43.2998C95.6418 42.7557 92.7667 42.8917 91.9909 43.4812ZM94.2271 60.9824C91.7171 61.0278 89.6179 61.0278 89.5266 60.9824C89.4354 60.8917 90.4393 57.9446 91.7628 54.3628L94.0902 47.9698L96.4632 54.4081L98.7906 60.8464L94.2271 60.9824Z" fill="#1E1E1E"/>
<path d="M136.029 43.2545C135.573 43.4358 135.436 46.7456 135.436 57.7179V71.9547H137.489H139.497L139.634 64.927L139.771 57.9446L145.156 64.927L150.587 71.9547H152.823C156.428 71.9547 156.519 72.1361 145.567 58.4887L144.106 56.6298L149.354 50.6449C152.229 47.3804 154.602 44.4333 154.602 44.0706C154.602 43.2545 152.731 42.7557 151.225 43.1184C150.541 43.2998 148.122 45.7482 144.928 49.5567L139.771 55.7683L139.634 49.6927C139.543 45.5668 139.36 43.5265 138.95 43.2998C138.356 42.9371 136.896 42.8917 136.029 43.2545Z" fill="#1E1E1E"/>
<path d="M45.3974 43.7078C45.2149 43.8438 45.078 50.2821 45.078 57.9899V72L47.2685 71.864L49.4134 71.728L49.6415 60.2116L49.8697 48.6499L53.0185 56.5844C54.7527 60.937 56.8975 66.1511 57.7646 68.1914L59.3162 71.9547H61.2785H63.2408L65.2031 67.2846C66.2528 64.7456 68.5345 59.3955 70.223 55.4055L73.3262 48.1511L73.4631 59.9395L73.6 71.728L75.7905 71.864L77.9354 72L77.8441 57.8086L77.7072 43.6171L74.7409 43.4811C72.2766 43.3451 71.6377 43.4811 71.0901 44.1612C70.725 44.6599 68.4432 49.5567 66.0702 55.0882C63.6972 60.6196 61.598 65.1537 61.4611 65.1537C61.3241 65.1537 59.3162 60.529 56.9888 54.8161C54.6158 49.1486 52.4253 44.2519 52.0146 43.9345C51.2844 43.3904 45.8994 43.1637 45.3974 43.7078Z" fill="#1E1E1E"/>
<path d="M111.112 43.7079C110.93 43.8439 110.793 50.2822 110.793 57.99V71.9547H112.846H114.9V65.5618V59.1235L117.136 59.3502C121.106 59.7582 121.426 60.121 125.533 69.3703L126.719 71.9547H128.773C130.462 71.9547 130.872 71.8187 130.872 71.1386C130.872 69.7784 126.674 60.6197 125.396 59.2595C124.301 58.126 124.255 57.8993 124.894 57.6726C125.35 57.5366 126.4 56.7205 127.267 55.8137C128.727 54.2721 128.819 54.0907 128.819 50.8716C128.819 47.6978 128.727 47.4257 127.313 45.9749C126.491 45.1134 125.031 44.2066 124.073 43.8892C122.202 43.3451 111.614 43.1638 111.112 43.7079ZM120.604 47.0177C124.073 47.7885 125.624 51.3703 123.571 53.9094C122.612 55.1789 119.737 56.0857 116.771 56.0857H114.9V51.325V46.5643H116.862C117.912 46.5643 119.6 46.791 120.604 47.0177Z" fill="#1E1E1E"/>
</svg>
