<svg width="181" height="72" viewBox="0 0 181 72" fill="none" xmlns="http://www.w3.org/2000/svg">
<g clip-path="url(#clip0_380_2359)">
<path d="M31.2612 0.18396C19.5711 1.73433 9.03685 9.27593 3.70405 19.892C-0.236448 27.7489 -1.07709 37.4453 1.44483 46.1168C4.28198 55.8657 11.7164 64.4321 21.0422 68.6891C30.8672 73.1299 42.531 72.8934 52.067 68.0584C54.1686 67.0073 57.5312 64.8788 57.5312 64.6423C57.5312 64.5635 55.4296 62.4088 52.8551 59.8336L48.2054 55.1825L46.4715 56.1022C44.3437 57.2321 42.9776 57.7051 40.5871 58.2307C38.1702 58.7562 33.4679 58.7562 31.1562 58.2307C20.044 55.6292 12.557 45.7752 13.2138 34.6073C13.6604 27.0394 17.811 20.2073 24.2734 16.3183C27.5834 14.3475 30.8409 13.4015 34.9653 13.2175C41.3752 12.9285 46.8656 14.9518 51.4103 19.2876C53.8009 21.5475 55.4033 23.7022 56.638 26.4088C58.1617 29.7197 58.6345 31.9533 58.6345 35.8686C58.6345 39.9153 58.1354 42.2015 56.4279 45.8015L55.3245 48.1139L60.0531 52.8438L64.7554 57.5475L65.885 55.8657C68.4332 51.9767 70.2721 47.5883 71.2178 43.0424C71.9797 39.4161 72.0322 33.0569 71.3492 29.4307C69.9306 22.073 66.6206 15.7927 61.3141 10.4584C56.4279 5.54455 50.3069 2.20732 43.3454 0.656952C41.4014 0.236519 33.3103 -0.105087 31.2612 0.18396Z" fill="#AEA5CC"/>
<path d="M32.9163 23.2292C28.6868 24.254 25.0615 27.5387 23.643 31.6379C21.3312 38.3649 24.9565 45.854 31.6553 48.219C33.3628 48.8233 36.8042 49.0073 38.6956 48.6131C43.3192 47.6671 47.2596 43.9095 48.4943 39.2847C49.046 37.3139 48.9672 34.0029 48.3367 31.9795C46.3402 25.5679 39.4575 21.6525 32.9163 23.2292Z" fill="#AEA5CC"/>
<path d="M89.4755 24.7271C86.612 25.4103 83.2232 28.2482 81.8572 31.0862C80.8589 33.2147 80.4911 35.8687 80.8852 38.1285C82.33 46.0906 90.8678 50.4001 98.0395 46.7475L99.1165 46.1957L100.982 48.0614C102.006 49.0862 102.978 49.9271 103.136 49.9271C103.267 49.9271 104.082 49.2176 104.948 48.3504L106.525 46.7738L104.528 44.7767L102.558 42.8059L103.293 41.2818C106.367 34.8701 102.926 27.0657 96.1218 24.9373C94.4142 24.4117 91.2881 24.3066 89.4755 24.7271ZM95.4913 30.0614C99.0115 31.6906 100.404 35.711 98.67 39.2322C96.4896 43.7256 90.4212 44.4088 87.2163 40.546C85.5875 38.5752 85.246 35.422 86.4019 33.1884C87.0061 31.9796 88.7399 30.3241 89.9483 29.7986C91.2881 29.2205 93.9676 29.3256 95.4913 30.0614Z" fill="#CAC1DE"/>
<path d="M104.817 26.803V29.1679H107.575H110.334V38.6278V48.0876H112.698H115.062V38.6278V29.1679H117.821H120.579V26.803V24.438H112.698H104.817V26.803Z" fill="#CAC1DE"/>
<path d="M122.681 36.2628V48.0876H130.299H137.917V45.5913V43.0949H132.795H127.672V40.8614V38.6278H132.795H137.917V36.1314V33.6351H132.795H127.672V31.4015V29.1679H132.795H137.917V26.803V24.438H130.299H122.681V36.2628Z" fill="#CAC1DE"/>
<path d="M148.767 24.7007C147.348 25.0161 145.142 26.2248 143.881 27.3285C141.437 29.4832 140.019 32.7153 140.019 36.0788C140.019 39.7051 141.227 42.4642 143.802 44.8555C145.641 46.5635 147.453 47.4307 150.028 47.8774C153.312 48.4555 157.094 47.3781 159.564 45.1445L160.641 44.1723L158.907 42.438L157.173 40.6774L155.939 41.6234C153.023 43.8307 149.24 43.4891 146.77 40.7562C145.483 39.3372 145.01 38.1022 145.01 36.1577C145.01 32.3475 148.031 29.3256 151.84 29.3518C153.495 29.3518 154.861 29.8774 156.359 31.0336L157.41 31.8745L159.143 30.1402C160.851 28.4321 160.877 28.4058 160.378 27.854C159.511 26.908 157.252 25.5416 155.571 24.9898C153.889 24.4117 150.527 24.2803 148.767 24.7007Z" fill="#CAC1DE"/>
<path d="M162.611 36.2628V48.0876H165.107H167.602V43.3577V38.6278H171.806H176.009V43.3577V48.0876H178.504H181V36.2628V24.438H178.504H176.009V29.0366V33.6351H171.806H167.602V29.0366V24.438H165.107H162.611V36.2628Z" fill="#CAC1DE"/>
<path d="M81.4369 57.9416V61.7518H82.0936C82.7241 61.7518 82.7241 61.6993 82.8029 59.3606L82.8817 56.9693L83.9325 58.835C84.7994 60.3854 85.0884 60.7007 85.6401 60.7007C86.1918 60.7007 86.4807 60.3591 87.3476 58.8088L88.3984 56.9431L88.4772 59.3606C88.556 61.6993 88.556 61.7518 89.1865 61.7518H89.8433V57.9416V54.1314H89.1865C88.6611 54.1314 88.3196 54.5256 87.1637 56.6015C86.4019 57.9679 85.7189 59.0453 85.6138 58.9927C85.535 58.9139 84.8257 57.8102 84.0902 56.4964C82.9605 54.5518 82.5928 54.1314 82.0674 54.1314H81.4369V57.9416Z" fill="#CAC1DE"/>
<path d="M92.4702 57.9416C92.4702 61.5942 92.4965 61.7518 92.9956 61.7518C93.3897 61.7518 93.9939 61.0686 95.0972 59.3606L96.6734 56.9693V59.3606C96.6734 61.7256 96.6734 61.7518 97.3302 61.7518H97.9869V57.9416C97.9869 54.1577 97.9869 54.1314 97.409 54.1314C96.9361 54.1314 96.437 54.6832 95.3074 56.4438L93.7837 58.7299V56.4175C93.7837 54.1577 93.7837 54.1314 93.127 54.1314H92.4702V57.9416Z" fill="#CAC1DE"/>
<path d="M100.614 57.9416V61.7518H101.271C101.849 61.7518 101.927 61.6467 101.927 60.8584C101.927 60.0175 101.98 59.965 103.004 59.8336C104.344 59.6496 105.001 59.0715 105.369 57.7577C105.579 56.9168 105.553 56.5489 105.159 55.7606C104.581 54.5518 103.766 54.1314 102.006 54.1314H100.614V57.9416ZM103.976 56.181C104.712 57.127 103.871 58.5985 102.584 58.5985C101.954 58.5985 101.927 58.5197 101.927 56.9956V55.3927L102.794 55.5766C103.241 55.6818 103.793 55.9445 103.976 56.181Z" fill="#CAC1DE"/>
<path d="M115.982 54.4467C115.929 54.6307 115.85 56.0759 115.798 57.6526C115.719 59.6234 115.588 60.5694 115.378 60.6482C115.194 60.7008 115.062 61.2526 115.062 62.0409C115.062 63.1445 115.141 63.3285 115.588 63.3285C116.008 63.3285 116.113 63.1445 116.113 62.5402V61.7518H118.215H120.316V62.5402C120.316 63.1445 120.421 63.3285 120.842 63.3285C121.288 63.3285 121.367 63.1445 121.367 62.0146C121.367 61.2789 121.262 60.7008 121.104 60.7008C120.947 60.7008 120.842 59.4394 120.842 57.4161V54.1314H118.477C116.796 54.1314 116.061 54.2365 115.982 54.4467ZM119.528 58.073V60.7008H118.189H116.849L117.006 59.8862C117.085 59.4394 117.164 58.257 117.164 57.2584V55.4453H118.346H119.528V58.073Z" fill="#CAC1DE"/>
<path d="M124.231 54.8672C123.442 55.5504 123.364 55.8131 123.259 57.3635C123.075 60.4117 123.968 61.7518 126.227 61.7518C126.936 61.7518 127.383 61.5416 127.987 60.9635C128.775 60.1752 128.775 60.1226 128.67 57.8102C128.565 55.0248 128.171 54.4204 126.306 54.2102C125.255 54.0788 125.019 54.1577 124.231 54.8672ZM126.989 55.8657C127.278 56.1548 127.409 56.7854 127.409 57.9416C127.409 59.781 127.041 60.438 125.991 60.438C125.019 60.438 124.651 59.7548 124.651 57.9416C124.651 56.9431 124.782 56.1548 125.019 55.892C125.465 55.3402 126.464 55.3139 126.989 55.8657Z" fill="#CAC1DE"/>
<path d="M132.506 54.3942C131.402 54.8409 131.087 55.6818 131.087 58.0205C131.087 60.0964 131.14 60.2541 131.849 60.9898C132.69 61.8307 133.924 61.9884 135.159 61.4365C135.921 61.0949 136 60.6482 135.422 60.1752C135.106 59.9125 134.922 59.9125 134.712 60.1227C134.266 60.5694 133.294 60.5168 132.821 60.0176C132.243 59.4657 132.243 56.8117 132.821 56.0234C133.241 55.3928 134.213 55.2614 134.712 55.7606C135.054 56.1022 135.816 55.6293 135.816 55.0511C135.816 54.3154 133.714 53.8949 132.506 54.3942Z" fill="#CAC1DE"/>
<path d="M137.392 54.7883C137.392 55.3664 137.497 55.4453 138.443 55.4453H139.493V58.5985V61.7518H140.15H140.807V58.5985V55.4453H141.858C142.803 55.4453 142.909 55.3664 142.909 54.7883V54.1314H140.15H137.392V54.7883Z" fill="#CAC1DE"/>
<path d="M145.667 56.4964C146.823 58.8088 146.849 58.8876 146.455 59.6496C146.219 60.1226 145.851 60.438 145.536 60.438C145.141 60.438 145.01 60.6219 145.01 61.0949C145.01 61.6467 145.141 61.7518 145.746 61.7518C146.744 61.7518 147.322 61.0686 148.662 58.2044C150.711 53.9475 150.658 54.1314 149.791 54.1314C149.135 54.1314 148.951 54.3416 148.294 55.7343L147.532 57.3372L146.744 55.7343C146.061 54.3416 145.851 54.1314 145.22 54.1314H144.485L145.667 56.4964Z" fill="#CAC1DE"/>
<path d="M152.366 57.9416V61.7518H153.022H153.679V58.5985V55.4453H154.993H156.306V58.5985V61.7518H156.963H157.62V57.9416V54.1314H154.993H152.366V57.9416Z" fill="#CAC1DE"/>
<path d="M160.247 57.9416V61.7518H160.903C161.534 61.7518 161.56 61.673 161.56 60.1752V58.5985H162.874H164.187V60.1752V61.7518H164.975H165.763V57.9153V54.1051L165.054 54.1839C164.345 54.2628 164.319 54.3416 164.24 55.7606L164.161 57.2847H162.874H161.56V55.708C161.56 54.2102 161.534 54.1314 160.903 54.1314H160.247V57.9416Z" fill="#CAC1DE"/>
<path d="M168.128 57.9416V61.7518H170.623C173.119 61.7518 173.119 61.7518 173.119 61.0949C173.119 60.4642 173.066 60.438 171.28 60.438H169.441V59.5183V58.6248L170.965 58.546C172.278 58.4672 172.462 58.3883 172.541 57.8628C172.62 57.311 172.541 57.2847 171.044 57.2847H169.441V56.365V55.4453H171.28C173.066 55.4453 173.119 55.419 173.119 54.7883C173.119 54.1314 173.119 54.1314 170.623 54.1314H168.128V57.9416Z" fill="#CAC1DE"/>
<path d="M175.221 57.9416V61.7518H177.585C179.923 61.7518 179.949 61.7518 179.949 61.0949C179.949 60.4642 179.897 60.438 178.242 60.438H176.534V59.5183V58.5985H177.979C179.345 58.5985 179.424 58.5723 179.424 57.9416C179.424 57.311 179.345 57.2847 177.979 57.2847H176.534V56.365V55.4453H178.242C179.897 55.4453 179.949 55.419 179.949 54.7883C179.949 54.1314 179.923 54.1314 177.585 54.1314H175.221V57.9416Z" fill="#CAC1DE"/>
</g>
<defs>
<clipPath id="clip0_380_2359">
<rect width="181" height="72" fill="white"/>
</clipPath>
</defs>
</svg>
