<svg width="112" height="81" viewBox="0 0 112 81" fill="none" xmlns="http://www.w3.org/2000/svg">
<g clip-path="url(#clip0_380_2498)">
<path d="M0 0.253113C0 0.556864 1.91712 3.94874 2.97658 5.56874C3.43063 6.27749 4.49009 8.09999 5.24685 9.61874C6.05405 11.1375 6.96216 12.7575 7.31532 13.1625C7.66847 13.5675 8.52613 15.0862 9.23243 16.4531C9.93874 17.8706 10.8973 19.4906 11.4018 20.1487L12.3604 21.3131L13.9243 18.3769C17.2036 12.3525 20.8865 5.82186 21.2396 5.56874C21.391 5.41686 22.1477 4.10061 22.9045 2.63249L24.2162 -1.14441e-05H12.1081C5.44865 -1.14441e-05 0 0.101238 0 0.253113Z" fill="#CAC1DE"/>
<path d="M24.3171 1.56934C23.1567 3.64497 20.0288 9.11246 15.9423 16.2L12.6125 21.9712V30.9825V39.9937H22.7026H32.7927V30.9825C32.7927 23.3381 32.9441 21.7687 33.7008 20.4525C34.1549 19.5918 35.6684 16.8581 37.0306 14.3775C38.3927 11.8968 39.654 9.77059 39.8558 9.61872C40.0071 9.46684 41.0162 7.79622 42.0252 5.92309C43.0342 4.04996 44.245 1.92372 44.699 1.26559L45.5062 -3.43323e-05H35.3657H25.1747L24.3171 1.56934Z" fill="#CAC1DE"/>
<path d="M56.1512 1.11374C55.9494 1.46812 55.4954 2.22749 55.1927 2.78437C54.1332 4.75874 49.744 12.4031 48.9873 13.6687C48.5332 14.3775 47.272 16.605 46.1116 18.63L43.9927 22.275L45.5566 24.9581C46.4647 26.4262 48.3314 29.6662 49.6936 32.0962C51.1062 34.5262 52.6702 37.26 53.2251 38.1206L54.2846 39.7406L66.7458 39.8925C73.6071 39.9431 79.2071 39.8419 79.2071 39.6394C79.2071 39.3862 78.1476 37.3612 76.8359 35.0831C75.4738 32.805 73.153 28.755 71.6395 26.0719C70.126 23.3887 68.4107 20.4525 67.8053 19.5412C67.2503 18.63 65.9891 16.4531 65.0305 14.6306C64.1224 12.8587 63.2143 11.2894 63.0125 11.1375C62.8611 10.9856 62.0035 9.51749 61.0954 7.84687C58.7747 3.59437 56.9584 0.506241 56.7566 0.506241C56.6557 0.506241 56.4035 0.809994 56.1512 1.11374Z" fill="#CAC1DE"/>
<path d="M42.9838 23.9456C42.7316 24.2493 41.9748 25.5656 41.3694 26.8312C40.764 28.0968 39.9568 29.4637 39.6036 29.8687C39.2505 30.2737 38.191 32.0962 37.2325 33.9187C36.2739 35.7412 35.0631 37.8675 34.609 38.6268L33.7009 39.9937H43.337C48.6343 39.9937 52.973 39.8925 52.973 39.7406C52.973 39.4368 49.8955 33.9187 47.373 29.6156C46.5658 28.1981 45.7081 26.73 45.5568 26.325C45.355 25.92 44.8505 25.0593 44.346 24.4518C43.6901 23.5406 43.3874 23.4393 42.9838 23.9456Z" fill="#CAC1DE"/>
<path d="M12.6125 61.0031V81H22.7026H32.7927V61.0031V41.0063H22.7026H12.6125V61.0031Z" fill="#CAC1DE"/>
<path d="M33.2974 61.0537V81.1519L36.3748 80.8481C40.0073 80.5444 43.892 78.7219 47.1208 75.8869C50.1983 73.1531 51.7622 70.3687 53.0235 65.3569C54.0325 61.3575 54.0325 61.0537 53.2253 57.4594C51.4091 49.1062 46.4649 43.7906 38.5947 41.715C37.2325 41.31 35.4667 41.0062 34.71 41.0062H33.2974V61.0537Z" fill="#CAC1DE"/>
<path d="M54.991 41.2593C54.991 41.5125 55.8486 43.0312 57.8666 46.3218C58.5225 47.4356 63.063 55.3331 64.7784 58.32C65.3333 59.3831 66.0396 60.2437 66.2414 60.2437C67.2 60.2437 70.3279 57.6618 71.5387 55.8393C72.5982 54.3206 72.9009 53.3081 72.9009 50.8781C72.9009 48.3468 72.6486 47.4862 71.3874 45.5625C69.0162 42.0187 66.5441 41.0062 60.1874 41.0062C57.3117 41.0062 54.991 41.1075 54.991 41.2593Z" fill="#CAC1DE"/>
<path d="M87.0269 41.6644C83.5459 42.5756 80.872 44.0944 78.0972 46.7775C68.3098 56.0925 71.236 73.2038 83.5963 79.3294C86.2702 80.6456 86.9765 80.7469 92.072 80.7469C97.1675 80.7469 97.8738 80.6456 100.598 79.2788C104.331 77.4563 108.468 73.305 110.234 69.6094C111.949 66.1669 112.504 60.1931 111.546 55.9406C110.285 50.3719 104.786 44.1956 99.3369 42.2719C96.2594 41.1581 90.1044 40.8544 87.0269 41.6644Z" fill="#CAC1DE"/>
<path d="M54.4866 61.7625V81H65.5857H76.6848L75.6253 78.8737C75.0199 77.6587 73.5568 75.0769 72.3965 73.1531C71.2361 71.1787 69.7731 68.6981 69.1677 67.5844C68.5622 66.4706 67.6541 64.8506 67.1496 64.0406C66.6451 63.18 65.6866 61.5094 64.9803 60.2437C64.274 58.9781 62.4073 55.7887 60.8938 53.1562C59.3298 50.5237 57.3622 47.0306 56.5046 45.4106C55.6469 43.8412 54.8902 42.525 54.7388 42.525C54.5875 42.525 54.4866 51.1819 54.4866 61.7625Z" fill="#CAC1DE"/>
</g>
<defs>
<clipPath id="clip0_380_2498">
<rect width="112" height="81" fill="white"/>
</clipPath>
</defs>
</svg>
