<svg width="263" height="51" viewBox="0 0 263 51" fill="none" xmlns="http://www.w3.org/2000/svg">
<path d="M17.8039 1.21429C17.8363 1.23048 17.8686 1.23048 17.9009 1.21429C18.2968 2.82525 18.3655 4.47668 18.1069 6.16858C18.0261 6.67858 17.7635 7.0631 17.3191 7.32215L6.76279 13.4057C6.5745 13.5161 6.41836 13.6739 6.30991 13.8635C6.20146 14.0531 6.14449 14.2679 6.14468 14.4864L6.16892 26.86C6.16841 27.0479 6.11637 27.2328 6.01827 27.3951C5.92017 27.5575 5.77962 27.6915 5.61141 27.7829L1.21191 30.1629V13.3207C2.59357 8.69429 13.5135 3.76429 17.8039 1.21429Z" fill="#AEA5CC"/>
<path d="M41.7043 13.3936L31.1964 7.32214C30.5985 6.97404 30.2996 6.45595 30.2996 5.76785V2.11285C30.2996 1.47333 30.5743 1.31547 31.1237 1.63928L44.3828 9.27714C45.2635 9.78661 45.9949 10.5194 46.5034 11.4019C47.0119 12.2843 47.2795 13.2853 47.2794 14.3043L47.2673 30.0657C47.2674 30.1053 47.2567 30.1442 47.2364 30.1782C47.2161 30.2122 47.187 30.2401 47.1522 30.2588C47.1173 30.2775 47.078 30.2864 47.0385 30.2844C46.9991 30.2825 46.9608 30.2699 46.9279 30.2479L42.7103 27.7586C42.4517 27.6129 42.3265 27.3943 42.3345 27.1028L42.3467 14.5107C42.3467 14.0169 42.1325 13.6445 41.7043 13.3936Z" fill="#AEA5CC"/>
<path d="M23.0278 11.2321V22.8407C23.0283 23.0203 22.9815 23.1968 22.8921 23.3524C22.8028 23.5081 22.6739 23.6373 22.5187 23.7271L12.4593 29.5071C12.2649 29.6218 12.038 29.6685 11.8142 29.6399C11.5905 29.6114 11.3825 29.5091 11.223 29.3493C11.0635 29.1895 10.9615 28.9812 10.933 28.757C10.9045 28.5328 10.9511 28.3055 11.0655 28.1107L21.1249 10.71C21.2368 10.513 21.4109 10.359 21.6199 10.2721C21.8288 10.1853 22.0606 10.1707 22.2788 10.2306C22.4969 10.2904 22.689 10.4214 22.8246 10.6027C22.9602 10.7841 23.0317 11.0055 23.0278 11.2321Z" fill="#AEA5CC"/>
<path d="M35.6809 29.3857L25.779 23.7636C25.609 23.6682 25.4676 23.5289 25.3696 23.3602C25.2715 23.1915 25.2204 22.9995 25.2215 22.8043L25.2699 11.39C25.2697 11.1492 25.3488 10.9151 25.495 10.724C25.6412 10.5329 25.8463 10.3955 26.0785 10.3332C26.3106 10.2709 26.5568 10.2871 26.7788 10.3794C27.0008 10.4717 27.1862 10.6349 27.3061 10.8436L37.1716 27.8922C37.2922 28.1006 37.3407 28.3431 37.3095 28.582C37.2783 28.8208 37.1692 29.0427 36.9992 29.213C36.8292 29.3834 36.6077 29.4927 36.3693 29.5239C36.1309 29.5551 35.8889 29.5066 35.6809 29.3857Z" fill="#AEA5CC"/>
<path d="M67.3497 20.7885L67.3619 33.8543C67.3619 33.9992 67.3044 34.1382 67.2021 34.2406C67.0998 34.3431 66.9611 34.4007 66.8165 34.4007H62.417C62.2723 34.4007 62.1336 34.3431 62.0313 34.2406C61.929 34.1382 61.8716 33.9992 61.8716 33.8543V16.49C61.8716 16.345 61.929 16.2061 62.0313 16.1036C62.1336 16.0011 62.2723 15.9435 62.417 15.9435L79.3847 15.9314C79.5294 15.9314 79.6681 15.989 79.7704 16.0914C79.8726 16.1939 79.9301 16.3329 79.9301 16.4778L79.9543 19.6835C79.9543 19.7553 79.9402 19.8264 79.9128 19.8926C79.8854 19.9589 79.8452 20.0192 79.7946 20.0699C79.744 20.1207 79.6838 20.1609 79.6177 20.1884C79.5515 20.2158 79.4806 20.23 79.409 20.23L67.8951 20.2421C67.7505 20.2421 67.6118 20.2997 67.5095 20.4022C67.4072 20.5046 67.3497 20.6436 67.3497 20.7885Z" fill="#CAC1DE"/>
<path d="M88.4625 30.3571V33.4536C88.4625 34.085 88.1434 34.4007 87.5051 34.4007L84.1358 34.4128C83.3924 34.4128 83.0208 34.0405 83.0208 33.2957V16.6843C83.0208 16.239 83.243 16.0124 83.6873 16.0043C88.8423 15.8505 93.973 15.8424 99.0795 15.98C104.703 16.1257 105.43 21.0678 104.461 25.4393C103.14 31.3286 93.4923 29.6528 89.1291 29.6771C88.6847 29.6852 88.4625 29.9119 88.4625 30.3571ZM88.4504 20.3757V25.1843C88.4504 25.268 88.4836 25.3483 88.5427 25.4075C88.6018 25.4667 88.682 25.5 88.7655 25.5L97.2494 25.4878C97.5052 25.4878 97.7584 25.4427 97.9945 25.3552C98.2306 25.2678 98.4449 25.1397 98.6252 24.9783C98.8054 24.8169 98.948 24.6254 99.0447 24.4148C99.1414 24.2043 99.1903 23.9788 99.1886 23.7514V21.76C99.1852 21.3047 98.9794 20.8691 98.6161 20.5483C98.2528 20.2276 97.7615 20.0476 97.2494 20.0478L88.7655 20.06C88.682 20.06 88.6018 20.0932 88.5427 20.1525C88.4836 20.2117 88.4504 20.292 88.4504 20.3757Z" fill="#CAC1DE"/>
<path d="M122.871 31.11L111.563 31.0493C111.482 31.0484 111.402 31.0708 111.333 31.1139C111.265 31.1569 111.21 31.2188 111.175 31.2921L109.805 34.1457C109.772 34.2172 109.718 34.2779 109.652 34.3208C109.586 34.3637 109.509 34.3872 109.43 34.3886L104.521 34.4371C104.447 34.438 104.374 34.4193 104.309 34.3829C104.244 34.3465 104.19 34.2937 104.152 34.2298C104.114 34.1659 104.093 34.093 104.092 34.0186C104.091 33.9442 104.109 33.8708 104.145 33.8057L113.708 16.1621C113.745 16.0952 113.8 16.0395 113.866 16.001C113.932 15.9625 114.007 15.9427 114.084 15.9436L120.35 15.9193C120.426 15.9184 120.501 15.9382 120.568 15.9767C120.634 16.0152 120.688 16.0709 120.725 16.1379L130.3 33.7814C130.333 33.8461 130.349 33.9182 130.347 33.9909C130.344 34.0635 130.323 34.1343 130.285 34.1965C130.248 34.2586 130.195 34.31 130.131 34.3458C130.068 34.3815 129.997 34.4004 129.924 34.4007L124.955 34.425C124.876 34.4236 124.799 34.4001 124.733 34.3572C124.666 34.3143 124.613 34.2537 124.579 34.1821L123.246 31.3529C123.212 31.2813 123.159 31.2207 123.093 31.1778C123.027 31.1349 122.95 31.1114 122.871 31.11ZM113.66 26.7264C113.628 26.7898 113.614 26.8602 113.618 26.9307C113.622 27.0012 113.643 27.0696 113.681 27.1293C113.719 27.189 113.771 27.2381 113.833 27.2717C113.895 27.3053 113.965 27.3224 114.035 27.3214L120.459 27.2486C120.528 27.2475 120.596 27.2289 120.657 27.1944C120.717 27.1599 120.768 27.1107 120.804 27.0513C120.84 26.992 120.861 26.9244 120.864 26.8548C120.867 26.7853 120.853 26.716 120.822 26.6536L117.55 20.3271C117.516 20.258 117.463 20.1998 117.398 20.159C117.333 20.1183 117.257 20.0967 117.18 20.0967C117.103 20.0967 117.028 20.1183 116.963 20.159C116.897 20.1998 116.845 20.258 116.811 20.3271L113.66 26.7264Z" fill="#CAC1DE"/>
<path d="M154.588 25.2814C155.332 25.6133 155.833 26.1598 156.091 26.9207C158.042 32.81 154.419 34.4129 149.328 34.4129C144.157 34.4129 139.018 34.4129 133.912 34.4129C133.853 34.4145 133.795 34.4044 133.741 34.3831C133.687 34.3619 133.637 34.33 133.595 34.2892C133.554 34.2485 133.52 34.1997 133.498 34.1459C133.475 34.092 133.463 34.0342 133.463 33.9757L133.475 16.5022C133.475 16.3605 133.532 16.2246 133.632 16.1244C133.732 16.0242 133.867 15.9679 134.009 15.9679C139.956 15.895 145.886 15.9233 151.801 16.0529C156.624 16.1622 156.903 21.6629 154.419 24.5529C154.152 24.8686 154.208 25.1114 154.588 25.2814ZM138.942 20.4V22.61C138.943 22.6945 138.961 22.7779 138.995 22.8554C139.029 22.9329 139.077 23.0029 139.138 23.0616C139.199 23.1202 139.271 23.1663 139.349 23.1971C139.428 23.228 139.512 23.2431 139.596 23.2414L149.013 23.1929C149.45 23.1896 149.868 23.0202 150.175 22.7219C150.482 22.4236 150.652 22.0208 150.649 21.6022V21.2622C150.648 21.0548 150.604 20.8499 150.519 20.6589C150.435 20.468 150.312 20.2949 150.158 20.1494C150.004 20.0039 149.821 19.889 149.621 19.8112C149.42 19.7333 149.205 19.6941 148.989 19.6957L139.572 19.7443C139.487 19.7459 139.404 19.7641 139.327 19.7979C139.25 19.8317 139.18 19.8805 139.121 19.9414C139.063 20.0022 139.017 20.0741 138.986 20.1528C138.955 20.2315 138.94 20.3155 138.942 20.4ZM151.075 27.8057C151.075 27.6686 151.048 27.5327 150.996 27.4059C150.944 27.2791 150.868 27.1639 150.771 27.0667C150.674 26.9696 150.56 26.8925 150.433 26.8398C150.307 26.7871 150.171 26.7598 150.034 26.7596L139.951 26.7419C139.814 26.7416 139.678 26.7684 139.552 26.8207C139.425 26.8729 139.31 26.9496 139.213 27.0464C139.116 27.1432 139.039 27.2582 138.987 27.3848C138.934 27.5114 138.907 27.6472 138.907 27.7843L138.904 29.4115C138.903 29.5486 138.93 29.6845 138.982 29.8112C139.035 29.938 139.111 30.0533 139.208 30.1504C139.304 30.2476 139.419 30.3247 139.545 30.3774C139.672 30.4301 139.807 30.4573 139.944 30.4576L150.028 30.4753C150.165 30.4755 150.3 30.4488 150.427 30.3965C150.553 30.3443 150.668 30.2675 150.765 30.1707C150.862 30.0739 150.939 29.9589 150.992 29.8323C151.045 29.7057 151.072 29.57 151.072 29.4328L151.075 27.8057Z" fill="#CAC1DE"/>
<path d="M166.138 29.1065L176.101 16.0772C176.135 16.0326 176.179 15.9964 176.23 15.9711C176.28 15.9459 176.335 15.9324 176.392 15.9315H184.173C184.222 15.9315 184.271 15.9412 184.316 15.9601C184.362 15.979 184.403 16.0068 184.438 16.0417C184.473 16.0767 184.501 16.1182 184.52 16.1638C184.539 16.2095 184.548 16.2585 184.548 16.3079L184.561 34.0365C184.561 34.1363 184.521 34.232 184.45 34.3026C184.38 34.3732 184.284 34.4129 184.185 34.4129H179.616C179.516 34.4129 179.42 34.3732 179.35 34.3026C179.28 34.232 179.24 34.1363 179.24 34.0365L179.264 21.4322C179.266 21.3521 179.242 21.2736 179.196 21.208C179.15 21.1424 179.085 21.0932 179.009 21.0674C178.934 21.0417 178.852 21.0408 178.775 21.0649C178.699 21.089 178.633 21.1369 178.585 21.2015L168.417 34.3157C168.382 34.3603 168.338 34.3965 168.288 34.4218C168.238 34.447 168.182 34.4605 168.126 34.4615L160.503 34.3886C160.403 34.3886 160.307 34.3489 160.237 34.2783C160.167 34.2078 160.127 34.112 160.127 34.0122V16.2957C160.127 16.2463 160.137 16.1974 160.156 16.1517C160.174 16.106 160.202 16.0645 160.237 16.0296C160.272 15.9946 160.313 15.9669 160.359 15.948C160.404 15.929 160.453 15.9193 160.503 15.9193L165.108 15.9436C165.208 15.9436 165.303 15.9833 165.374 16.0539C165.444 16.1244 165.484 16.2202 165.484 16.32L165.46 28.8757C165.458 28.9558 165.482 29.0343 165.528 29.0999C165.573 29.1655 165.639 29.2147 165.715 29.2405C165.79 29.2662 165.872 29.2671 165.948 29.243C166.025 29.2189 166.091 29.171 166.138 29.1065Z" fill="#CAC1DE"/>
<path d="M195.699 20.0843L188.548 20.06C188.448 20.06 188.353 20.0203 188.282 19.9497C188.212 19.8791 188.172 19.7834 188.172 19.6835L188.16 16.3078C188.16 16.2584 188.17 16.2094 188.189 16.1638C188.208 16.1181 188.235 16.0766 188.27 16.0417C188.305 16.0067 188.347 15.979 188.392 15.9601C188.438 15.9411 188.487 15.9314 188.536 15.9314H209.188C209.237 15.9314 209.286 15.9411 209.332 15.9601C209.377 15.979 209.419 16.0067 209.454 16.0417C209.489 16.0766 209.516 16.1181 209.535 16.1638C209.554 16.2094 209.564 16.2584 209.564 16.3078L209.515 19.7321C209.515 19.7815 209.506 19.8305 209.487 19.8762C209.468 19.9218 209.44 19.9633 209.405 19.9983C209.37 20.0332 209.329 20.061 209.283 20.0799C209.238 20.0988 209.189 20.1085 209.14 20.1085L202.025 20.0478C201.926 20.0478 201.83 20.0875 201.76 20.1581C201.689 20.2287 201.65 20.3244 201.65 20.4243V34.0485C201.65 34.1484 201.61 34.2441 201.539 34.3147C201.469 34.3853 201.373 34.425 201.274 34.425L196.45 34.4007C196.35 34.4007 196.255 34.361 196.184 34.2904C196.114 34.2198 196.074 34.1241 196.074 34.0243V20.4607C196.074 20.4112 196.065 20.3623 196.046 20.3166C196.027 20.271 195.999 20.2295 195.964 20.1945C195.929 20.1596 195.888 20.1318 195.842 20.1129C195.797 20.094 195.748 20.0843 195.699 20.0843Z" fill="#CAC1DE"/>
<path d="M235.512 28.6379C235.507 30.216 234.876 31.7272 233.758 32.8391C232.641 33.951 231.128 34.5726 229.553 34.5671L217.7 34.5256C216.92 34.5229 216.148 34.3663 215.429 34.0648C214.709 33.7633 214.056 33.3227 213.507 32.7683C212.957 32.2138 212.522 31.5564 212.226 30.8334C211.93 30.1105 211.779 29.3362 211.782 28.5549L211.806 21.7063C211.811 20.1283 212.442 18.6171 213.56 17.5052C214.678 16.3933 216.19 15.7717 217.765 15.7772L229.618 15.8186C230.398 15.8213 231.17 15.9779 231.889 16.2795C232.609 16.581 233.262 17.0216 233.812 17.576C234.361 18.1304 234.796 18.7879 235.092 19.5108C235.388 20.2337 235.539 21.008 235.536 21.7894L235.512 28.6379ZM229.948 22.6254C229.945 21.9137 229.659 21.2326 229.154 20.732C228.649 20.2314 227.966 19.9522 227.256 19.9559L219.96 19.9942C219.608 19.996 219.26 20.0673 218.936 20.2038C218.612 20.3404 218.318 20.5396 218.07 20.7901C217.823 21.0406 217.627 21.3375 217.494 21.6638C217.361 21.9901 217.294 22.3394 217.296 22.6918L217.322 27.646C217.325 28.3577 217.611 29.0388 218.116 29.5394C218.621 30.04 219.304 30.3192 220.014 30.3155L227.31 30.2772C227.662 30.2754 228.01 30.2041 228.334 30.0676C228.658 29.931 228.952 29.7318 229.2 29.4813C229.447 29.2308 229.643 28.9339 229.776 28.6076C229.909 28.2813 229.976 27.932 229.974 27.5796L229.948 22.6254Z" fill="#CAC1DE"/>
<path d="M255.958 27.3093H244.432C244.333 27.3093 244.237 27.3489 244.167 27.4195C244.096 27.4901 244.057 27.5858 244.057 27.6857L244.081 34.0364C244.081 34.1362 244.041 34.232 243.971 34.3026C243.9 34.3732 243.805 34.4128 243.705 34.4128H238.942C238.893 34.4128 238.844 34.4031 238.798 34.3842C238.753 34.3653 238.711 34.3375 238.676 34.3026C238.642 34.2676 238.614 34.2261 238.595 34.1804C238.576 34.1348 238.566 34.0858 238.566 34.0364V16.3078C238.566 16.2584 238.576 16.2094 238.595 16.1638C238.614 16.1181 238.642 16.0766 238.676 16.0417C238.711 16.0067 238.753 15.979 238.798 15.9601C238.844 15.9411 238.893 15.9314 238.942 15.9314H243.681C243.73 15.9314 243.779 15.9411 243.825 15.9601C243.87 15.979 243.912 16.0067 243.947 16.0417C243.982 16.0766 244.009 16.1181 244.028 16.1638C244.047 16.2094 244.057 16.2584 244.057 16.3078L244.081 22.3428C244.081 22.3923 244.091 22.4412 244.11 22.4869C244.128 22.5325 244.156 22.574 244.191 22.609C244.226 22.644 244.267 22.6717 244.313 22.6906C244.358 22.7095 244.407 22.7193 244.457 22.7193H255.958C256.008 22.7193 256.057 22.7095 256.102 22.6906C256.148 22.6717 256.189 22.644 256.224 22.609C256.259 22.574 256.287 22.5325 256.305 22.4869C256.324 22.4412 256.334 22.3923 256.334 22.3428V16.32C256.334 16.2201 256.374 16.1244 256.444 16.0538C256.515 15.9832 256.61 15.9435 256.71 15.9435L261.412 15.9314C261.462 15.9314 261.51 15.9411 261.556 15.9601C261.602 15.979 261.643 16.0067 261.678 16.0417C261.713 16.0766 261.741 16.1181 261.759 16.1638C261.778 16.2094 261.788 16.2584 261.788 16.3078V34.0607C261.788 34.1605 261.748 34.2563 261.678 34.3269C261.607 34.3974 261.512 34.4371 261.412 34.4371L256.71 34.3885C256.61 34.3885 256.515 34.3489 256.444 34.2783C256.374 34.2077 256.334 34.1119 256.334 34.0121V27.6857C256.334 27.5858 256.294 27.4901 256.224 27.4195C256.154 27.3489 256.058 27.3093 255.958 27.3093Z" fill="#CAC1DE"/>
<path d="M13.9135 31.4257L23.5124 25.9129C23.6967 25.8063 23.9057 25.7502 24.1184 25.7502C24.3312 25.7502 24.5402 25.8063 24.7244 25.9129L34.3233 31.4257C34.5568 31.5583 34.7398 31.7647 34.8435 32.0127C34.9473 32.2606 34.966 32.5361 34.8966 32.7958C34.8273 33.0556 34.6739 33.2849 34.4605 33.4479C34.2471 33.6109 33.9857 33.6983 33.7173 33.6964H14.5195C14.2512 33.6983 13.9898 33.6109 13.7764 33.4479C13.5629 33.2849 13.4095 33.0556 13.3402 32.7958C13.2709 32.5361 13.2896 32.2606 13.3933 32.0127C13.4971 31.7647 13.6801 31.5583 13.9135 31.4257Z" fill="#AEA5CC"/>
<path d="M25.6214 49.7857H22.6763L7.63556 41.1643C7.6029 41.145 7.57583 41.1175 7.55702 41.0845C7.53821 41.0514 7.52832 41.0141 7.52832 40.9761C7.52832 40.9381 7.53821 40.9007 7.55702 40.8677C7.57583 40.8347 7.6029 40.8072 7.63556 40.7879L11.926 38.3957C12.0169 38.3441 12.1201 38.318 12.2246 38.3201C12.3291 38.3223 12.4311 38.3526 12.5198 38.4079L23.258 44.6007C23.526 44.7559 23.8297 44.8375 24.1383 44.8375C24.4469 44.8375 24.7495 44.7559 25.0154 44.6007L35.802 38.3472C35.8728 38.3065 35.953 38.2841 36.0354 38.282C36.1178 38.2799 36.2 38.2981 36.2747 38.335L40.7105 40.63C40.754 40.6533 40.7905 40.6877 40.8164 40.7298C40.8423 40.7718 40.8566 40.82 40.8578 40.8693C40.859 40.9187 40.8472 40.9675 40.8234 41.0108C40.7997 41.0541 40.7649 41.0903 40.7227 41.1157L25.6214 49.7857Z" fill="#AEA5CC"/>
</svg>
