<svg width="833" height="285" viewBox="0 0 833 285" fill="none" xmlns="http://www.w3.org/2000/svg">
<path d="M536.748 229.938L532.398 235.295C531.48 234.536 530.522 233.776 529.564 233.016C528.367 232.097 527.17 231.178 525.933 230.258C515.437 222.543 504.143 216.147 492.171 211.149C490.974 210.63 489.816 210.15 488.619 209.71C487.701 209.351 486.743 208.991 485.826 208.631C468.865 202.355 450.986 198.997 432.669 198.597C431.511 198.597 430.354 198.597 429.236 198.597C428.119 198.597 426.962 198.597 425.844 198.597C407.886 198.957 390.366 202.195 373.605 208.271C372.687 208.631 371.729 208.951 370.812 209.311C369.614 209.79 368.417 210.23 367.22 210.75C352.973 216.586 339.683 224.422 327.591 234.056C326.634 234.815 325.676 235.575 324.758 236.374L320.368 231.098C321.246 230.338 322.164 229.618 323.082 228.899C336.012 218.545 350.299 210.23 365.584 204.074C366.501 203.674 367.459 203.314 368.417 202.954C369.614 202.515 370.812 202.075 371.969 201.635C389.249 195.439 407.367 192.161 425.884 191.801C427.002 191.801 428.159 191.801 429.276 191.801C430.394 191.801 431.591 191.801 432.708 191.841C451.585 192.201 469.982 195.599 487.502 202.035C488.699 202.475 489.896 202.914 491.093 203.394C492.011 203.754 492.969 204.114 493.927 204.513C507.974 210.27 521.184 217.905 533.276 227.22C533.555 227.42 533.835 227.66 534.114 227.86C534.992 228.579 535.91 229.299 536.788 230.018L536.748 229.938Z" fill="#291770"/>
<path d="M428.464 6.80835C427.506 6.80835 426.588 6.92728 425.67 7.04621V6.848C426.428 6.848 427.187 6.848 427.905 6.848H428.464V6.80835Z" fill="#291770"/>
<path d="M432.537 230.493V281.257H425.67V238.532C427.986 235.918 430.261 233.226 432.537 230.454V230.493Z" fill="#291770"/>
<path d="M431.998 6.89707C431.998 6.89707 432.276 6.89708 432.395 6.93672L431.998 6.89707ZM427.836 6.81779C427.082 6.81779 426.329 6.81779 425.616 6.81779V7.01598C426.527 6.89707 427.439 6.8178 428.391 6.77816H427.836V6.81779ZM429.501 0H428.312C429.065 0 429.818 0 430.611 0C430.254 0 429.858 0 429.501 0ZM474.736 243.3L472.198 243.38C468.551 250.316 464.547 256.421 460.186 261.455C461.177 261.177 462.089 260.9 463.04 260.583C465.023 259.988 466.965 259.314 468.868 258.561C469.74 258.244 470.573 257.887 471.445 257.57C474.498 253.091 477.352 248.057 480.048 242.587C478.304 242.864 476.48 243.063 474.736 243.3ZM500.188 136.118C497.968 139.725 495.708 143.332 493.408 146.939V147.296C493.329 151.934 493.131 156.453 492.853 160.932C491.902 175.598 489.84 189.551 486.867 202.354C486.352 204.613 485.797 206.833 485.202 209.013C481.792 221.935 477.352 233.51 472.198 243.38C468.551 250.356 464.547 256.46 460.186 261.494C458.679 263.239 457.133 264.903 455.508 266.41C448.411 273.188 440.601 277.271 432.435 278.024C432.197 278.063 431.998 278.103 431.8 278.103C431.562 278.143 431.364 278.143 431.126 278.143H430.928C430.294 278.182 429.659 278.182 428.985 278.182C427.836 278.182 426.726 278.103 425.616 277.944C419.233 277.112 413.088 274.298 407.379 269.779C406.071 268.748 404.762 267.638 403.494 266.41C403.216 266.172 402.978 265.934 402.78 265.736C402.542 265.498 402.304 265.26 402.027 265.022C401.63 265.498 401.194 265.934 400.758 266.41C399.688 267.599 398.578 268.709 397.468 269.858C399.212 271.602 400.956 273.227 402.74 274.615C403.414 275.209 404.088 275.725 404.762 276.2C412.335 281.829 420.462 284.841 428.827 285C429.263 285 429.739 285 430.214 284.96C430.651 284.96 431.126 284.96 431.562 284.921C435.725 284.683 439.808 283.771 443.813 282.146C447.817 280.56 451.662 278.301 455.429 275.368C458.64 272.871 461.772 269.858 464.745 266.449C464.785 266.449 464.785 266.41 464.785 266.41C467.084 263.754 469.344 260.781 471.524 257.57C474.577 253.091 477.432 248.097 480.088 242.587C480.167 242.508 480.207 242.428 480.246 242.309C484.726 232.994 488.532 222.649 491.585 211.51C492.179 209.291 492.734 207.111 493.29 204.851C497.373 187.727 499.752 169.058 500.188 149.595C500.227 147.891 500.267 146.186 500.227 144.442C500.267 143.808 500.267 143.134 500.267 142.5C500.267 140.36 500.267 138.219 500.227 136.118H500.188Z" fill="#291770"/>
<path d="M458.769 3.28564L467.233 5.3843C464.438 4.59235 461.643 3.8796 458.769 3.28564ZM372.293 266.093C372.293 266.093 372.253 266.093 372.213 266.093C360.915 261.104 350.455 254.61 341.033 246.888C336.162 242.929 331.611 238.613 327.339 233.98C325.782 232.277 324.265 230.574 322.787 228.832C317.757 222.853 313.246 216.398 309.293 209.588C308.055 212.003 306.818 214.379 305.62 216.755C312.607 227.961 321.071 238.177 330.772 247.047C338.717 254.333 347.54 260.708 357.002 266.093H357.122C366.704 271.557 376.964 275.913 387.784 279.002C389.66 277.22 391.537 275.359 393.413 273.498C386.107 271.597 379.04 269.142 372.293 266.133V266.093ZM372.293 266.093C372.293 266.093 372.253 266.093 372.213 266.093C360.915 261.104 350.455 254.61 341.033 246.888C336.162 242.929 331.611 238.613 327.339 233.98C325.782 232.277 324.265 230.574 322.787 228.832C317.757 222.853 313.246 216.398 309.293 209.588C308.055 212.003 306.818 214.379 305.62 216.755C312.607 227.961 321.071 238.177 330.772 247.047C338.717 254.333 347.54 260.708 357.002 266.093H357.122C366.704 271.557 376.964 275.913 387.784 279.002C389.66 277.22 391.537 275.359 393.413 273.498C386.107 271.597 379.04 269.142 372.293 266.133V266.093ZM372.293 266.093C372.293 266.093 372.253 266.093 372.213 266.093C360.915 261.104 350.455 254.61 341.033 246.888C336.162 242.929 331.611 238.613 327.339 233.98C325.782 232.277 324.265 230.574 322.787 228.832C317.757 222.853 313.246 216.398 309.293 209.588C308.055 212.003 306.818 214.379 305.62 216.755C312.607 227.961 321.071 238.177 330.772 247.047C338.717 254.333 347.54 260.708 357.002 266.093H357.122C366.704 271.557 376.964 275.913 387.784 279.002C389.66 277.22 391.537 275.359 393.413 273.498C386.107 271.597 379.04 269.142 372.293 266.133V266.093ZM568.041 111.307C567.402 108.535 566.683 105.803 565.925 103.11C565.286 100.853 564.607 98.636 563.809 96.4581C563.689 96.1413 563.609 95.8642 563.489 95.5474C559.457 84.0246 553.948 73.1749 547.2 63.1964C545.643 60.8997 544.006 58.6427 542.29 56.4253C541.292 58.8011 540.254 61.2561 539.216 63.7112C540.852 65.9682 542.409 68.3044 543.927 70.7199C549.516 79.5501 554.067 89.0534 557.461 99.0716C557.541 99.3092 557.62 99.5467 557.7 99.7843C558.459 102.002 559.098 104.18 559.736 106.437C560.495 109.208 561.174 112.02 561.773 114.871C563.609 123.701 564.607 132.888 564.607 142.312C564.607 173.91 553.628 203.054 535.263 226.1C534.824 226.654 534.425 227.208 533.985 227.723C532.508 229.505 531.031 231.247 529.474 232.91C517.617 245.978 503.284 256.708 487.195 264.43V264.47H487.155C485.997 265.024 484.759 265.578 483.601 266.093C474.738 270.053 465.396 273.062 455.694 275.042C448.189 276.586 440.483 277.537 432.578 277.774C432.379 277.774 432.139 277.814 431.94 277.774C431.7 277.814 431.501 277.814 431.261 277.814H431.061C430.423 277.853 429.784 277.853 429.105 277.853H425.712C418.565 277.695 411.499 277.022 404.672 275.874C403.634 275.715 402.635 275.517 401.677 275.319C398.883 274.765 396.168 274.171 393.453 273.458C391.616 275.359 389.74 277.18 387.864 279.002C390.499 279.754 393.213 280.427 395.928 281.061C406.229 283.437 416.928 284.664 427.947 284.664H428.906C429.345 284.664 429.824 284.664 430.303 284.625C430.742 284.625 431.221 284.625 431.66 284.585C443.877 284.268 455.655 282.486 466.913 279.319C478.132 276.19 488.831 271.676 498.773 266.093C502.246 264.153 505.679 262.014 508.953 259.757C524.803 248.987 538.377 235.168 548.797 219.091C555.984 208.004 561.653 195.887 565.526 182.978C569.438 170.109 571.514 156.448 571.514 142.312C571.514 131.66 570.316 121.286 568.081 111.307H568.041Z" fill="#291770"/>
<path d="M425.667 172.01V238.573C427.983 235.92 430.258 233.227 432.534 230.495V169.753C430.219 170.545 427.943 171.297 425.667 172.01ZM392.331 252.867C390.814 250.531 389.336 248.116 387.939 245.582C382.11 235.167 377.12 222.615 373.407 208.439C372.808 206.261 372.249 204.084 371.73 201.826C370.692 197.392 369.774 192.838 368.975 188.126C366.739 188.72 364.543 189.235 362.348 189.749C363.186 194.699 364.184 199.53 365.302 204.242C365.821 206.499 366.42 208.756 367.019 210.894C370.093 222.18 373.926 232.673 378.517 242.057C379.156 243.324 379.794 244.592 380.433 245.78C383.428 251.521 386.621 256.59 390.015 261.104C391.332 262.886 392.69 264.509 394.047 266.093H394.087C395.165 267.36 396.203 268.508 397.281 269.578C398.399 268.429 399.517 267.32 400.595 266.133C401.034 265.657 401.473 265.222 401.872 264.747C401.593 264.43 401.274 264.113 400.994 263.796C397.96 260.629 395.045 256.986 392.291 252.867H392.331ZM372.209 266.093C360.91 261.104 350.45 254.61 341.028 246.888C336.158 242.928 331.606 238.573 327.334 233.98C325.777 232.316 324.3 230.574 322.783 228.832C317.792 222.853 313.241 216.398 309.289 209.588C307.931 207.172 306.574 204.717 305.336 202.183C305.097 201.708 304.857 201.233 304.657 200.757C303.859 199.134 303.1 197.471 302.342 195.768C301.424 193.709 300.545 191.571 299.747 189.353C299.308 188.126 298.829 186.859 298.469 185.592C296.313 179.414 294.637 173.079 293.479 166.545C292.041 158.705 291.283 150.627 291.283 142.351C291.283 135.422 291.802 128.651 292.88 121.998C290.325 123.345 287.849 124.691 285.414 126.037L284.975 129.68C284.576 133.838 284.416 138.035 284.416 142.351C284.416 157.715 286.851 172.564 291.483 186.423C291.922 187.809 292.401 189.195 292.88 190.541C293.678 192.719 294.517 194.857 295.435 196.996C296.074 198.58 296.792 200.124 297.511 201.668C298.749 204.361 300.066 207.014 301.503 209.588L305.656 216.794C312.602 228 321.106 238.177 330.808 247.047C338.753 254.333 347.576 260.708 357.038 266.093H357.158C366.739 271.557 377 275.913 387.819 279.041C389.696 277.22 391.572 275.398 393.409 273.498C386.142 271.637 379.076 269.142 372.289 266.133C372.249 266.133 372.249 266.093 372.209 266.093ZM531.506 43.9124C528.751 44.2688 525.956 44.6648 523.122 45.1795C526.435 48.3869 529.589 51.7527 532.544 55.2768H532.584C520.646 64.9782 507.551 72.858 493.458 78.7976C491.182 69.5319 488.388 60.7809 485.074 52.6238C483.677 49.1788 482.2 45.8131 480.643 42.6057C479.844 40.9822 479.046 39.4379 478.207 37.9332C476.77 35.201 475.253 32.6272 473.696 30.2117C472.937 28.9446 472.139 27.7171 471.3 26.5292C469.903 24.5493 468.506 22.6486 467.028 20.8272C464.473 17.7782 461.878 14.9668 459.163 12.5117C458.006 11.4822 456.848 10.5319 455.69 9.62112C457.447 9.97749 459.283 10.3735 461.04 10.8486C472.179 13.5809 482.798 17.699 492.7 23.005C496.772 25.1829 500.724 27.5983 504.557 30.2117C505.355 30.7661 506.154 31.3205 506.952 31.8748C510.106 31.3205 513.181 30.7661 516.215 30.2513H516.175C513.58 28.1527 510.825 26.1728 508.03 24.3117H507.991C495.614 15.9963 481.92 9.58153 467.188 5.42381L458.764 3.32516C450.061 1.38489 441.038 0.315749 431.815 0.0781649C431.456 0.0781649 431.097 0.0385742 430.698 0.0385742C429.939 0.0385742 429.18 0.0385742 428.382 0.0385742H427.903C406.903 0.0385742 386.941 4.55266 368.935 12.6701C358.435 17.3822 348.614 23.2426 339.671 30.2513C322.024 43.9124 307.732 61.5332 298.07 81.807C297.671 82.6386 297.311 83.4701 296.912 84.2621C296.513 85.1332 296.154 85.9647 295.834 86.8359C294.118 90.8352 292.56 94.9137 291.243 99.111C290.924 100.022 290.604 100.933 290.365 101.883C290.085 102.794 289.806 103.704 289.566 104.655C289.446 105.13 289.287 105.645 289.167 106.12C291.922 104.694 294.676 103.269 297.551 101.883C302.422 86.4003 310.047 72.1057 319.869 59.5533C328.931 67.0372 338.673 73.4916 348.973 78.9164C353.884 81.5298 358.914 83.8661 364.064 85.9647C363.745 87.4298 363.466 88.8949 363.186 90.36C361.589 98.4775 360.351 106.951 359.593 115.584C359.154 120.098 358.834 124.651 358.635 129.245C358.435 133.6 358.355 137.996 358.355 142.391C358.355 153.161 358.914 163.773 360.112 174.029C360.152 174.584 360.192 175.098 360.272 175.653C360.511 177.949 360.831 180.246 361.15 182.463C361.509 184.918 361.908 187.373 362.348 189.789C363.186 194.739 364.184 199.569 365.302 204.282C365.821 206.539 366.42 208.796 367.019 210.934C370.093 222.219 373.926 232.712 378.517 242.097C379.156 243.364 379.794 244.631 380.433 245.819C383.428 251.561 386.621 256.629 390.015 261.143C391.332 262.925 392.69 264.549 394.047 266.133H394.087C395.165 267.4 396.203 268.548 397.281 269.617C398.399 268.469 399.517 267.36 400.595 266.172C401.034 265.697 401.473 265.261 401.872 264.786C401.593 264.469 401.274 264.153 400.994 263.836C397.96 260.668 395.045 257.025 392.291 252.907C390.774 250.571 389.296 248.155 387.899 245.621C382.07 235.207 377.08 222.655 373.367 208.479C372.768 206.301 372.209 204.123 371.69 201.866C370.652 197.431 369.734 192.878 368.935 188.165C368.496 185.71 368.137 183.176 367.777 180.642C367.458 178.424 367.139 176.128 366.939 173.831C366.899 173.356 366.819 172.881 366.779 172.406C365.741 162.744 365.142 152.686 365.142 142.391C365.142 134.273 365.502 126.354 366.14 118.633C366.54 113.802 367.059 109.09 367.737 104.457C368.496 98.9527 369.414 93.6466 370.452 88.4594C388.139 94.8742 406.663 98.2795 425.627 98.6359V238.612C427.943 235.959 430.219 233.267 432.494 230.535V98.6359C451.777 98.2795 470.622 94.7553 488.548 88.103C491.262 101.091 493.019 115.188 493.658 129.918V130.116C493.778 132.452 493.817 134.828 493.897 137.204V146.826C496.213 143.222 498.489 139.619 500.724 136.016C500.724 135.422 500.684 134.907 500.684 134.353C500.605 132.016 500.525 129.601 500.365 127.265V127.067C499.606 112.653 497.81 98.6755 494.975 85.6084C510.067 79.352 524.08 70.997 536.816 60.6621C537.614 61.7312 538.413 62.7211 539.171 63.7902C540.209 61.3352 541.247 58.8802 542.245 56.5043C538.892 52.1486 535.299 47.9513 531.466 43.952L531.506 43.9124ZM367.618 71.6305C366.899 74.1252 366.22 76.6198 365.621 79.1936C362.867 78.0453 360.152 76.8178 357.477 75.511C345.619 69.809 334.441 62.6815 324.22 54.2077C332.085 45.0607 341.228 36.9829 351.289 30.2117C361.39 23.3614 372.488 17.8574 384.306 13.8976C390.853 11.6802 397.601 9.9775 404.587 8.78958C402.152 10.5715 399.756 12.6701 397.401 15.0064C395.045 17.3426 392.77 19.956 390.574 22.8466C388.817 25.1037 387.101 27.5587 385.464 30.2117C383.028 34.0131 380.713 38.1312 378.517 42.6057C374.205 51.3963 370.572 61.1372 367.618 71.6305ZM379.275 84.2225C376.84 83.4305 374.405 82.599 372.009 81.7278C373.087 77.2137 374.245 72.858 375.562 68.7003C380.234 53.495 386.342 40.3882 393.449 30.2117C393.928 29.5386 394.367 28.905 394.846 28.2715C397.002 25.2621 399.277 22.5694 401.673 20.1936C403.23 18.5701 404.867 17.105 406.464 15.7983C412.452 10.8882 418.92 7.87884 425.627 7.0473V6.84932C426.386 6.80972 427.104 6.80971 427.863 6.80971H428.422C427.464 6.84931 426.546 6.92851 425.627 7.0473V91.8252C409.777 91.5084 394.207 88.9742 379.236 84.2225H379.275ZM432.534 91.8252V6.9681C432.534 6.9681 432.255 6.88891 432.135 6.88891H432.534V6.9681C438.044 7.48287 443.353 9.42314 448.424 12.7097C450.38 13.9768 452.296 15.4419 454.173 17.105C455.251 18.0158 456.289 19.0057 457.327 20.0352C458.165 20.8668 459.004 21.7775 459.802 22.6882C461.838 24.9453 463.795 27.4795 465.711 30.2117C467.707 33.1023 469.663 36.1909 471.5 39.5171C473.975 43.9916 476.291 48.9017 478.447 54.1681C481.8 62.4439 484.715 71.5513 487.07 81.3715C469.663 87.9446 451.298 91.4292 432.534 91.8252ZM291.283 142.351C291.283 135.422 291.802 128.651 292.88 121.998C290.325 123.345 287.849 124.691 285.414 126.037L284.975 129.68C284.576 133.838 284.416 138.035 284.416 142.351C284.416 157.715 286.851 172.564 291.483 186.423C293.758 186.186 296.114 185.908 298.469 185.592C296.313 179.414 294.637 173.079 293.479 166.545C292.041 158.705 291.283 150.627 291.283 142.351Z" fill="#291770"/>
<path d="M431.703 153.36C429.707 154.034 427.671 154.707 425.674 155.34C405.633 161.913 385.79 167.615 366.826 172.367C364.551 172.922 362.315 173.476 360.119 173.991C360.159 174.545 360.199 175.06 360.279 175.614C360.518 177.911 360.838 180.207 361.157 182.425C361.516 184.88 361.916 187.335 362.355 189.75C364.551 189.236 366.746 188.721 368.982 188.127C387.267 183.613 406.351 178.228 425.674 172.011C427.95 171.298 430.226 170.546 432.541 169.754V153.083C432.262 153.162 431.982 153.281 431.703 153.36ZM627.69 44.3886C622.021 27.5994 595.551 21.343 549.119 25.7779C538.779 26.7678 527.8 28.2725 516.222 30.2524C519.216 32.5094 522.051 34.9249 524.806 37.4195L530.794 43.1611C531.034 43.3987 531.273 43.6759 531.513 43.9135C538.14 42.9235 544.488 42.1712 550.637 41.5772C560.138 40.6665 568.283 40.2705 575.27 40.2705C588.485 40.2705 597.507 41.6564 603.376 43.4779C609.245 45.2994 611.96 47.596 612.559 49.4175C614.156 54.0504 606.85 69.0578 568.043 92.8558C566.566 93.7665 565.049 94.6772 563.492 95.588C561.536 96.7759 559.5 97.9242 557.463 99.1121C540.775 108.615 521.492 118.119 500.412 127.226C498.216 128.177 495.98 129.127 493.705 130.077C474.501 138.155 453.941 145.916 432.541 153.083C432.262 153.162 431.982 153.281 431.703 153.36C429.707 154.034 427.671 154.707 425.674 155.34C405.633 161.913 385.79 167.615 366.826 172.367C364.551 172.922 362.315 173.476 360.119 173.991C338.121 179.257 317.321 183.217 298.476 185.593C296.121 185.909 293.765 186.187 291.49 186.424C289.693 186.622 287.936 186.82 286.22 186.979C240.826 191.295 225.855 183.692 224.298 179.099C222.741 174.466 230.007 159.458 268.813 135.66C274.043 132.453 279.592 129.246 285.421 126.038L285.98 121.485C286.739 116.258 287.817 111.11 289.174 106.081C278.834 111.427 269.212 116.812 260.429 122.197C220.704 146.55 203.457 167.378 209.166 184.128C213.678 197.432 231.204 204.124 261.427 204.124C269.332 204.124 278.115 203.649 287.737 202.738C290.931 202.422 294.165 202.065 297.518 201.669C299.874 201.392 302.229 201.115 304.665 200.758C322.511 198.303 341.954 194.581 362.355 189.75C364.551 189.236 366.746 188.721 368.982 188.127C387.267 183.613 406.351 178.228 425.674 172.011C427.95 171.298 430.226 170.546 432.541 169.754C433.939 169.318 435.376 168.843 436.813 168.368C456.615 161.715 475.819 154.628 493.944 147.144C496.26 146.233 498.536 145.283 500.771 144.293C523.209 134.829 543.849 124.93 561.775 114.911C563.891 113.724 566.007 112.536 568.043 111.348C570.918 109.685 573.753 107.982 576.467 106.319C611.201 85.0155 628.768 66.4048 628.768 50.843C628.768 48.6256 628.408 46.4873 627.69 44.3886Z" fill="#F0BB00"/>
<path d="M531.511 43.913C528.756 44.2694 525.962 44.6654 523.127 45.1801C518.097 40.3493 512.707 35.8748 506.958 31.8754C510.112 31.3211 513.186 30.7667 516.22 30.252C519.215 32.509 522.049 34.9244 524.804 37.4191L530.793 43.1607C531.032 43.3983 531.272 43.6754 531.511 43.913Z" fill="#291770"/>
<path d="M297.561 101.844C295.485 108.377 293.888 115.109 292.89 121.999C290.334 123.345 287.859 124.691 285.424 126.037L285.983 121.484C286.741 116.257 287.819 111.109 289.177 106.08C291.931 104.655 294.686 103.229 297.561 101.844Z" fill="#291770"/>
<path d="M111.161 284.671V209.952L111.748 207.221V57.1994H110.575L36.1421 190.444H123.86L128.939 189.858H182.274V220.877H0V191.029L114.287 0.624268H146.327V284.671H111.161Z" fill="#291770"/>
<path d="M761.888 284.671V209.952L762.474 207.221V57.1994H761.302L686.869 190.444H774.587L779.666 189.858H833V220.877H650.727V191.029L765.014 0.624268H797.053V284.671H761.888Z" fill="#291770"/>
</svg>
