<svg width="50" height="50" viewBox="0 0 50 50" fill="none" xmlns="http://www.w3.org/2000/svg">
<g clip-path="url(#clip0_380_1801)">
<path d="M24.3653 1.69922C24.2579 1.77734 23.711 2.75391 23.1543 3.88672L22.1387 5.92774L20.0196 6.23047C18.8575 6.39649 17.793 6.58203 17.6465 6.65039C17.3047 6.80664 17.0508 7.34375 17.129 7.76367C17.1778 8.01758 17.5293 8.41797 18.8184 9.66797L20.4395 11.2402L20.0586 13.4668C19.7266 15.4492 19.6973 15.7129 19.8145 15.9961C19.961 16.3477 20.3516 16.6016 20.7618 16.6016C20.9864 16.6016 22.3047 15.957 24.4239 14.8145L24.9708 14.5215L26.8555 15.5176C27.8907 16.0742 28.877 16.543 29.0528 16.5723C29.4141 16.6309 29.9219 16.4063 30.0782 16.123C30.2344 15.8203 30.1954 15.3516 29.834 13.252L29.4922 11.2891L31.1524 9.61914C32.5879 8.17383 32.8126 7.91016 32.8126 7.64649C32.8126 7.2168 32.6661 6.875 32.4024 6.69922C32.2754 6.61133 31.2598 6.42578 29.9708 6.24024L27.7637 5.92774L26.8067 3.93555C26.2305 2.75391 25.7422 1.86524 25.6055 1.74805C25.3223 1.52344 24.6485 1.49414 24.3653 1.69922ZM26.4454 7.64649C26.5918 7.7832 27.0411 7.89063 28.0665 8.03711C28.8477 8.1543 29.4922 8.27149 29.4922 8.31055C29.4922 8.33984 29.0333 8.80859 28.4766 9.35547C27.8126 10 27.4415 10.4395 27.4024 10.625C27.3438 10.8496 27.5684 12.4609 27.793 13.457C27.8321 13.6621 27.7149 13.623 26.4942 12.9883C25.4102 12.4316 25.0879 12.3047 24.8536 12.3535C24.6876 12.3828 24.0235 12.6758 23.3887 13.0176C22.7442 13.3594 22.1973 13.6035 22.1876 13.5547C22.168 13.5059 22.2461 12.9004 22.3633 12.1973C22.4903 11.4746 22.5489 10.7813 22.5196 10.5957C22.4708 10.332 22.2266 10.0488 21.4161 9.28711C20.8399 8.75 20.3907 8.29102 20.42 8.27149C20.4395 8.25195 21.0352 8.1543 21.7286 8.05664C23.6133 7.80274 23.5254 7.87109 24.2969 6.26953L24.9512 4.91211L25.5958 6.19141C25.9571 6.89453 26.3379 7.54883 26.4454 7.64649Z" fill="#F0BB00"/>
<path d="M7.70508 10.5371C7.57812 10.6348 7.16797 11.3379 6.79688 12.0801L6.12305 13.4473L4.60938 13.6621C3.76953 13.7793 3.00781 13.9258 2.91016 13.9746C2.66602 14.1016 2.44141 14.5801 2.44141 14.9512C2.44141 15.2246 2.60742 15.4297 3.61328 16.4453L4.77539 17.627L4.53125 19.1211C4.39453 19.9414 4.30664 20.7227 4.33594 20.8594C4.375 20.9961 4.51172 21.2207 4.63867 21.3477C5.03906 21.7481 5.42969 21.6699 6.98242 20.8789L8.35938 20.1856L9.67773 20.8789C11.1816 21.6797 11.5137 21.7383 12.002 21.3282C12.3828 21.0157 12.3926 20.6836 12.0898 18.877L11.8652 17.5879L12.959 16.5528C14.3066 15.2832 14.502 14.8047 13.9355 14.1797C13.6914 13.916 13.3887 13.8282 11.7871 13.6133L10.5273 13.4473L9.80469 12.002C9.41406 11.2012 9.00391 10.5078 8.89648 10.4492C8.58398 10.293 7.95898 10.3321 7.70508 10.5371ZM9.23828 15.1953C9.36523 15.2832 9.80469 15.4004 10.2051 15.459L10.9277 15.5664L10.3516 16.1719C9.70703 16.8457 9.6582 17.002 9.86328 18.0664C9.92188 18.3496 9.94141 18.6035 9.92188 18.6231C9.90234 18.6426 9.58984 18.5059 9.22852 18.3203C8.86719 18.125 8.4668 17.9688 8.33984 17.9688C8.20312 17.9688 7.79297 18.125 7.41211 18.3203L6.71875 18.6621L6.79688 18.1446C6.98242 17.002 6.94336 16.8653 6.25977 16.1719L5.64453 15.5567L6.31836 15.4785C7.33398 15.3711 7.54883 15.2344 7.97852 14.4043L8.34961 13.6817L8.67188 14.3653C8.84766 14.7364 9.10156 15.1074 9.23828 15.1953Z" fill="#F0BB00"/>
<path d="M40.9082 10.5371C40.7812 10.6348 40.3711 11.3379 40 12.0801L39.3262 13.4473L37.8125 13.6621C36.9727 13.7793 36.2109 13.9258 36.1133 13.9746C35.8691 14.1016 35.6445 14.5801 35.6445 14.9512C35.6445 15.2246 35.8105 15.4297 36.8164 16.4453L37.9785 17.627L37.7344 19.1211C37.5977 19.9414 37.5098 20.7227 37.5391 20.8594C37.5781 20.9961 37.7148 21.2207 37.8418 21.3477C38.2422 21.7481 38.6328 21.6699 40.1855 20.8789L41.5625 20.1856L42.8809 20.8789C44.3848 21.6797 44.7168 21.7383 45.2051 21.3282C45.5859 21.0157 45.5957 20.6836 45.293 18.877L45.0684 17.5879L46.1621 16.5528C47.5098 15.2832 47.7051 14.8047 47.1387 14.1797C46.8945 13.916 46.5918 13.8282 44.9902 13.6133L43.7305 13.4473L43.0078 12.002C42.6172 11.2012 42.207 10.5078 42.0996 10.4492C41.7871 10.293 41.1621 10.3321 40.9082 10.5371ZM42.4414 15.1953C42.5684 15.2832 43.0078 15.4004 43.4082 15.459L44.1309 15.5664L43.5547 16.1719C42.9102 16.8457 42.8613 17.002 43.0664 18.0664C43.125 18.3496 43.1445 18.6035 43.125 18.6231C43.1055 18.6426 42.793 18.5059 42.4316 18.3203C42.0703 18.125 41.6699 17.9688 41.543 17.9688C41.4062 17.9688 40.9961 18.125 40.6152 18.3203L39.9219 18.6621L40 18.1446C40.1855 17.002 40.1465 16.8653 39.4629 16.1719L38.8477 15.5567L39.5215 15.4785C40.5371 15.3711 40.752 15.2344 41.1816 14.4043L41.5527 13.6817L41.875 14.3653C42.0508 14.7364 42.3047 15.1074 42.4414 15.1953Z" fill="#F0BB00"/>
<path d="M23.291 19.2773C21.7578 19.6289 20.6348 20.2637 19.4727 21.4258C18.4766 22.4219 17.9395 23.2715 17.5098 24.5605C17.2656 25.2832 17.2461 25.459 17.2461 26.9531C17.2461 28.4473 17.2656 28.623 17.5098 29.3457C17.6563 29.7754 17.959 30.459 18.1738 30.8594C18.7305 31.8555 20.0977 33.2227 21.0938 33.7793C21.8652 34.1992 23.1738 34.668 23.6035 34.668C24.043 34.668 23.7891 34.7656 22.9688 34.9121C20.3906 35.3613 18.0078 36.6699 16.2793 38.5937L15.6348 39.3066L15.3125 39.0039C14.8438 38.5547 13.8965 37.9395 13.1738 37.6074C12.5098 37.2949 10.957 36.8164 10.6055 36.8164C10.498 36.8164 10.3418 36.7773 10.2637 36.7285C10.166 36.6699 10.2539 36.6211 10.5273 36.5723C10.752 36.5332 11.2891 36.3379 11.7285 36.123C13.2031 35.4102 14.3652 33.9648 14.7852 32.3535C14.9902 31.5918 14.9902 30.127 14.7852 29.3652C14.2578 27.334 12.6074 25.6836 10.5762 25.1562C9.81445 24.9512 8.34961 24.9512 7.58789 25.1562C5.55664 25.6836 3.90625 27.334 3.37891 29.3652C3.17383 30.127 3.17383 31.5918 3.37891 32.3535C3.89648 34.3457 5.47852 35.957 7.4707 36.5332C8.01758 36.6895 8.03711 36.6992 7.76367 36.7578C5.83008 37.1777 4.56055 37.7344 3.39844 38.6523C2.17773 39.6191 1.35742 40.6641 0.732422 42.0215C0.15625 43.2715 0.078125 43.7012 0.0292969 45.8984L-0.0195312 47.9004L0.244141 48.1738L0.517578 48.4375H25H49.4824L49.7559 48.1738L50.0195 47.9004L49.9707 45.8984C49.9219 43.7012 49.8438 43.2715 49.2676 42.0215C48.6426 40.6641 47.8223 39.6191 46.6016 38.6523C45.4395 37.7344 44.1699 37.1777 42.2363 36.7578C41.9629 36.6992 41.9824 36.6895 42.5293 36.5332C44.5215 35.957 46.1035 34.3457 46.6211 32.3535C46.8262 31.5918 46.8262 30.127 46.6211 29.3652C46.0938 27.334 44.4434 25.6836 42.4121 25.1562C41.6504 24.9512 40.1856 24.9512 39.4238 25.1562C37.3926 25.6836 35.7422 27.334 35.2148 29.3652C35.127 29.6973 35.0586 30.3613 35.0586 30.8594C35.0586 32.5391 35.6055 33.8672 36.7676 35.0293C37.5195 35.7812 38.6621 36.4355 39.4727 36.5723C39.7461 36.6211 39.834 36.6699 39.7363 36.7285C39.6582 36.7773 39.502 36.8164 39.3945 36.8164C39.043 36.8164 37.4902 37.2949 36.8262 37.6074C36.1035 37.9395 35.1563 38.5547 34.6875 39.0039L34.3652 39.3066L33.7207 38.5937C31.9727 36.6602 29.6875 35.4004 27.002 34.9023L26.123 34.7363L26.709 34.6094C28.1738 34.3066 29.3555 33.6523 30.5273 32.4805C31.5234 31.4844 32.0606 30.6348 32.4902 29.3457C32.7344 28.623 32.7539 28.4473 32.7539 26.9531C32.7539 25.459 32.7344 25.2832 32.4902 24.5605C32.0606 23.2812 31.5234 22.4219 30.5273 21.4258C29.5313 20.4297 28.6621 19.8828 27.3926 19.4727C26.7383 19.248 26.3965 19.209 25.2441 19.1797C24.3164 19.1602 23.6914 19.1895 23.291 19.2773ZM26.416 21.3379C27.4414 21.6016 28.2031 22.0508 29.0527 22.9004C30.2637 24.1016 30.7617 25.293 30.7617 26.9531C30.7617 28.6133 30.2637 29.8047 29.0527 31.0059C27.8516 32.2168 26.6602 32.7148 25 32.7148C23.3398 32.7148 22.1484 32.2168 20.9473 31.0059C19.7363 29.8047 19.2383 28.6133 19.2383 26.9531C19.2383 25.293 19.7363 24.1016 20.9473 22.9004C21.7773 22.0605 22.5488 21.6016 23.5352 21.3477C24.248 21.1621 25.6934 21.1523 26.416 21.3379ZM10.7031 27.3926C11.4453 27.7539 12.1875 28.5059 12.5586 29.248C12.8125 29.7852 12.8418 29.9219 12.8418 30.8594C12.8418 31.7969 12.8125 31.9336 12.5586 32.4707C12.1875 33.2227 11.4453 33.9648 10.6934 34.3359C10.1563 34.5898 10.0195 34.6191 9.08203 34.6191C8.14453 34.6191 8.00781 34.5898 7.4707 34.3359C6.71875 33.9648 5.97656 33.2227 5.60547 32.4707C5.35156 31.9336 5.32227 31.7969 5.32227 30.8594C5.32227 29.9414 5.35156 29.7754 5.58594 29.2969C5.9375 28.584 6.42578 28.0273 7.03125 27.6367C7.76367 27.168 8.22266 27.0508 9.23828 27.0801C9.98047 27.0996 10.2148 27.1484 10.7031 27.3926ZM42.5391 27.3926C43.2813 27.7539 44.0234 28.5059 44.3945 29.248C44.6484 29.7852 44.6777 29.9219 44.6777 30.8594C44.6777 31.7969 44.6484 31.9336 44.3945 32.4707C44.0234 33.2227 43.2813 33.9648 42.5293 34.3359C41.9922 34.5898 41.8555 34.6191 40.918 34.6191C39.9805 34.6191 39.8438 34.5898 39.3066 34.3359C38.5547 33.9648 37.8125 33.2227 37.4414 32.4707C37.1875 31.9336 37.1582 31.7969 37.1582 30.8594C37.1582 29.9414 37.1875 29.7754 37.4219 29.2969C37.7734 28.584 38.2617 28.0273 38.8672 27.6367C39.5996 27.168 40.0586 27.0508 41.0742 27.0801C41.8164 27.0996 42.0508 27.1484 42.5391 27.3926ZM27.5293 37.1094C28.9746 37.5195 30.4981 38.3691 31.582 39.3652C33.3691 40.9961 34.668 43.7695 34.668 45.9668V46.4844H25H15.332V45.9668C15.332 44.209 16.1523 42.0703 17.4512 40.4297C18.7402 38.7891 20.5859 37.6172 22.7051 37.0703C23.623 36.8359 23.6914 36.8262 25.293 36.8652C26.4844 36.8848 26.9629 36.9434 27.5293 37.1094ZM11.4453 39.1309C12.4707 39.4824 13.2031 39.9121 13.9453 40.5859L14.502 41.0937L14.3652 41.416C13.6621 43.1543 13.2813 44.707 13.2813 45.8496V46.4844H7.60742H1.93359L2.00195 45.5273C2.10938 43.9355 2.4707 42.8711 3.26172 41.7578C4.25781 40.3711 5.625 39.4238 7.34375 38.9551C7.92969 38.7988 8.29102 38.7793 9.32617 38.8086C10.4199 38.8379 10.7129 38.8867 11.4453 39.1309ZM43.0957 39.0918C45.4004 39.8437 47.2168 41.748 47.793 44.0137C47.8711 44.3262 47.9688 45.0098 47.9981 45.5273L48.0664 46.4844H42.3926H36.7188V45.8496C36.7188 44.707 36.3379 43.1543 35.6348 41.416L35.4981 41.0937L36.0547 40.5859C36.7578 39.9414 37.5 39.502 38.3789 39.1992C39.4434 38.8281 39.7852 38.7793 41.1133 38.8086C42.0996 38.8281 42.4805 38.8867 43.0957 39.0918Z" fill="#291770"/>
</g>
<defs>
<clipPath id="clip0_380_1801">
<rect width="50" height="50" fill="white"/>
</clipPath>
</defs>
</svg>
