<svg width="50" height="50" viewBox="0 0 50 50" fill="none" xmlns="http://www.w3.org/2000/svg">
<path d="M21.875 25.9219L17.8281 21.875L15.625 24.0781L21.875 30.3281L34.375 17.8281L32.1719 15.625L21.875 25.9219Z" fill="#F0BB00"/>
<path d="M25 46.875L15.35 41.7297C12.599 40.2661 10.2984 38.081 8.6952 35.4089C7.092 32.7369 6.2467 29.6786 6.25001 26.5625V6.25C6.25084 5.42145 6.58034 4.62708 7.16622 4.0412C7.75209 3.45533 8.54646 3.12583 9.37501 3.125H40.625C41.4536 3.12583 42.2479 3.45533 42.8338 4.0412C43.4197 4.62708 43.7492 5.42145 43.75 6.25V26.5625C43.7533 29.6786 42.908 32.7369 41.3048 35.4089C39.7016 38.081 37.4011 40.2661 34.65 41.7297L25 46.875ZM9.37501 6.25V26.5625C9.37242 29.1122 10.0642 31.6145 11.3762 33.8007C12.6882 35.987 14.5708 37.7746 16.8219 38.9719L25 43.3328L33.1781 38.9734C35.4295 37.7761 37.3122 35.9881 38.6242 33.8016C39.9362 31.6151 40.6279 29.1125 40.625 26.5625V6.25H9.37501Z" fill="#291770"/>
</svg>
