<svg width="50" height="50" viewBox="0 0 50 50" fill="none" xmlns="http://www.w3.org/2000/svg">
<path d="M13.584 4.1993C12.8613 4.53133 12.4316 4.94148 12.0898 5.64461L11.7676 6.2989L11.7383 8.06648L11.6992 9.84383L9.92188 9.87312L8.14453 9.91219L7.5 10.2345C6.76758 10.5958 6.42578 10.9473 6.06445 11.7188C5.83008 12.2169 5.81055 12.3731 5.78125 14.0333L5.74219 15.8009L3.96484 15.8399L2.19727 15.8692L1.54297 16.1915C0.888672 16.5137 0.488281 16.9044 0.15625 17.5489C0.00976563 17.8321 0 19.0235 0 31.0157C0 44.1407 0 44.1798 0.205078 44.5997C0.3125 44.8243 0.625 45.2149 0.888672 45.4493C1.78711 46.2598 0.244141 46.1915 19.0918 46.172L35.8887 46.1427L36.3379 45.918C36.9531 45.6153 37.4805 45.0782 37.7832 44.4337C38.0176 43.9259 38.0371 43.7989 38.0664 42.0704L38.1055 40.2442L40.0195 40.2149C41.7676 40.1856 41.9824 40.1661 42.334 39.9708C42.9102 39.668 43.4473 39.0919 43.7402 38.4766C43.9746 37.9688 43.9941 37.8321 44.0234 36.172L44.0625 34.3946L45.8398 34.3555C47.5 34.3262 47.6367 34.3067 48.1445 34.0723C48.7598 33.7794 49.3359 33.2423 49.6387 32.6661L49.8535 32.2755L49.8828 21.9434L49.9023 11.6016L49.6484 11.0255C49.3652 10.4005 48.8867 9.90242 48.2227 9.55086L47.8027 9.32625L38.7695 9.29696L29.7363 9.27742L28.7402 7.28523C28.1934 6.19149 27.6074 5.1368 27.4414 4.94148C27.2754 4.75594 26.8652 4.46297 26.543 4.29695L25.9473 4.00398H19.9805C14.248 4.00398 13.9941 4.01375 13.584 4.1993ZM26.2109 9.05281C27.3145 11.2501 27.5977 11.6309 28.4668 12.0313L28.9551 12.2559L37.9199 12.2852L46.875 12.3048V21.8263V31.3477H45.459H44.0527L44.0234 24.4337L43.9941 17.5294L43.7207 16.9727C43.5645 16.6505 43.2422 16.2305 42.959 15.9766C42.0898 15.1954 42.6855 15.2345 32.666 15.2345H23.7598L22.8125 13.2716C21.7578 11.0938 21.4062 10.6153 20.5176 10.1856L19.9707 9.91219L17.3633 9.88289L14.7461 9.84383V8.43758V7.03133H19.9707H25.1953L26.2109 9.05281ZM20.1953 14.8927C20.752 16.0059 21.3477 17.0606 21.543 17.2852C21.7383 17.4903 22.1387 17.793 22.4414 17.9395L22.998 18.213L32.0117 18.2423L41.0156 18.2716V27.7345V37.2071H39.5508H38.0957L38.0664 30.3419L38.0371 23.4864L37.7832 22.9395C37.4805 22.3048 36.9824 21.7774 36.3965 21.4649L35.9863 21.2403L26.9238 21.211L17.8711 21.1915L16.8457 19.1407C15.7324 16.9044 15.4492 16.543 14.5605 16.1231C14.0234 15.8692 13.9844 15.8692 11.4062 15.8399L8.78906 15.8106V14.4141C8.78906 13.6524 8.81836 12.9884 8.85742 12.9591C8.88672 12.92 11.2305 12.8907 14.0527 12.8907H19.1895L20.1953 14.8927ZM14.2578 20.8204C14.7949 21.9141 15.3613 22.9688 15.5273 23.1641C15.7031 23.3692 16.1035 23.6622 16.4844 23.8477L17.1387 24.17L26.0938 24.1993L35.0586 24.2286V33.6915V43.1641H18.9941H2.92969V31.0059V18.8477H8.11523H13.291L14.2578 20.8204Z" fill="#291770"/>
<path d="M25.2931 37.0021C25.1075 37.0998 24.8536 37.3537 24.7267 37.5588C24.5314 37.8908 24.5118 38.047 24.5314 38.8381C24.5607 39.8342 24.6974 40.1271 25.2931 40.4689C25.7228 40.7228 26.4942 40.7131 26.8458 40.4592C27.3927 40.049 27.5392 39.6974 27.5392 38.7795C27.5392 37.8029 27.3732 37.383 26.8653 37.0412C26.4552 36.758 25.7716 36.7482 25.2931 37.0021Z" fill="#F0BB00"/>
<path d="M29.4824 37.041C28.9746 37.3828 28.8086 37.8027 28.8086 38.7793C28.8086 39.4922 28.8379 39.668 29.0332 39.9414C29.6484 40.8594 30.918 40.8887 31.582 40.0098C31.8848 39.6094 31.9336 38.0957 31.6602 37.5976C31.2402 36.8262 30.1953 36.5625 29.4824 37.041Z" fill="#F0BB00"/>
</svg>
