<svg width="50" height="50" viewBox="0 0 50 50" fill="none" xmlns="http://www.w3.org/2000/svg">
<g clip-path="url(#clip0_380_1779)">
<path d="M37.5 8.33325H12.5C10.1989 8.33325 8.33337 10.1987 8.33337 12.4999V37.4999C8.33337 39.8011 10.1989 41.6666 12.5 41.6666H37.5C39.8012 41.6666 41.6667 39.8011 41.6667 37.4999V12.4999C41.6667 10.1987 39.8012 8.33325 37.5 8.33325Z" stroke="#291770" stroke-width="2.5" stroke-linecap="round" stroke-linejoin="round"/>
<path d="M31.25 18.75H18.75V31.25H31.25V18.75Z" stroke="#F0BB00" stroke-width="2.5" stroke-linecap="round" stroke-linejoin="round"/>
<path d="M18.75 2.08325V8.33325" stroke="#291770" stroke-width="2.5" stroke-linecap="round" stroke-linejoin="round"/>
<path d="M31.25 2.08325V8.33325" stroke="#291770" stroke-width="2.5" stroke-linecap="round" stroke-linejoin="round"/>
<path d="M18.75 41.6667V47.9167" stroke="#291770" stroke-width="2.5" stroke-linecap="round" stroke-linejoin="round"/>
<path d="M31.25 41.6667V47.9167" stroke="#291770" stroke-width="2.5" stroke-linecap="round" stroke-linejoin="round"/>
<path d="M41.6666 18.75H47.9166" stroke="#291770" stroke-width="2.5" stroke-linecap="round" stroke-linejoin="round"/>
<path d="M41.6666 29.1667H47.9166" stroke="#291770" stroke-width="2.5" stroke-linecap="round" stroke-linejoin="round"/>
<path d="M2.08337 18.75H8.33337" stroke="#291770" stroke-width="2.5" stroke-linecap="round" stroke-linejoin="round"/>
<path d="M2.08337 29.1667H8.33337" stroke="#291770" stroke-width="2.5" stroke-linecap="round" stroke-linejoin="round"/>
</g>
<defs>
<clipPath id="clip0_380_1779">
<rect width="50" height="50" fill="white"/>
</clipPath>
</defs>
</svg>
