<svg width="50" height="50" viewBox="0 0 50 50" fill="none" xmlns="http://www.w3.org/2000/svg">
<g clip-path="url(#clip0_496_2762)">
<path d="M10.9082 0.205317C9.16016 0.703364 7.69531 1.9143 6.88477 3.5061C6.34766 4.59008 6.21094 5.17602 6.20117 6.49438C6.20117 7.52954 6.23047 7.76391 6.48438 8.52563C8.31055 14.1018 16.0059 14.6682 18.6035 9.42407C19.0527 8.5061 19.2383 7.66625 19.2383 6.49438C19.2383 5.30297 19.082 4.61938 18.5352 3.51586C18.2227 2.86157 17.9688 2.51977 17.3438 1.89477C16.7188 1.26977 16.377 1.01586 15.7227 0.703364C15.2637 0.478755 14.6289 0.224849 14.3066 0.146724C13.4668 -0.06812 11.748 -0.0388231 10.9082 0.205317Z" fill="#F9CC00"/>
<path d="M35.6651 0.14651C35.3722 0.214869 34.7569 0.45901 34.2979 0.683619C32.6964 1.47464 31.3097 3.19339 30.9093 4.8926C30.714 5.72268 30.7237 7.37307 30.919 8.14456C31.7003 11.1914 34.5811 13.2715 37.7257 13.0469C41.0069 12.8223 43.5851 10.2442 43.8097 6.95315C44.0343 3.80862 41.9054 0.869166 38.8683 0.156276C38.0968 -0.0292711 36.3878 -0.0292711 35.6651 0.14651Z" fill="#F9CC00"/>
<path d="M23.8585 13.125C20.8116 13.8672 19.2589 17.2657 20.6847 20.0782C21.8663 22.4121 24.7374 23.3594 27.13 22.2071C30.1378 20.7617 30.7921 16.709 28.3995 14.3848C27.2081 13.2227 25.4601 12.7442 23.8585 13.125Z" fill="#291770"/>
<path d="M8.00835 14.707C6.21147 15.1855 4.70757 16.4844 4.0435 18.1641C3.91655 18.457 2.95952 22.0898 1.9146 26.2207C-0.292435 34.8926 -0.263138 34.707 0.352096 35.918C0.72319 36.6699 1.20171 37.1484 1.94389 37.5195C2.35405 37.7246 2.5396 37.7441 4.26811 37.7734L6.14311 37.8027L6.17241 42.8516L6.20171 47.9004L6.46538 48.3984C6.73882 48.916 7.29546 49.4824 7.83257 49.7754C8.12553 49.9316 8.52592 49.9512 12.5787 49.9805L17.0123 50.0098L17.5103 49.7754C17.7935 49.6484 18.1255 49.4531 18.2427 49.3555C18.4673 49.1699 18.4673 49.1406 18.3697 48.584C18.3111 48.2617 18.2623 46.875 18.2623 45.4395V42.8711H17.94C17.0513 42.8711 15.8501 42.3535 15.147 41.6699C14.1705 40.7227 13.7505 39.7656 13.7408 38.4766C13.7408 37.7148 13.8677 37.1582 15.2154 31.8848C16.8462 25.5469 17.0123 25.0781 17.9693 24.0039C18.2427 23.7012 18.7798 23.2422 19.1705 22.9883C19.5611 22.7344 19.9126 22.5 19.9517 22.4609C20.0005 22.4219 19.8638 22.1582 19.649 21.875C19.1509 21.2207 18.7212 20.332 18.4966 19.5215C18.233 18.5742 18.2525 16.9531 18.5455 16.0254C18.7994 15.1758 18.8189 15.1953 17.8814 14.8242C17.3443 14.5996 17.2466 14.5996 12.94 14.5801C9.33647 14.5605 8.4478 14.5801 8.00835 14.707Z" fill="#F9CC00"/>
<path d="M32.549 14.6973C31.9826 14.8535 31.2501 15.1953 31.2501 15.3125C31.2501 15.3516 31.3478 15.6641 31.465 16.0156C31.7384 16.8652 31.7579 18.6133 31.504 19.5215C31.2794 20.332 30.8497 21.2207 30.3517 21.875C30.1369 22.1582 30.0001 22.4219 30.049 22.4609C30.088 22.5 30.4396 22.7344 30.8302 22.9883C31.2208 23.2422 31.7579 23.7012 32.0314 24.0039C32.9982 25.0781 33.1544 25.5469 34.7658 31.8359C35.5665 34.9805 36.2501 37.7637 36.2794 38.0371C36.3673 38.6621 36.1818 39.6484 35.8693 40.3125C35.5568 40.9766 34.629 41.9727 34.004 42.3145C33.4767 42.6074 32.5392 42.8711 32.0704 42.8711H31.7579L31.7091 45.7715C31.6896 47.373 31.631 48.7988 31.5919 48.9453C31.5333 49.1797 31.5724 49.2383 31.9923 49.5117C32.256 49.668 32.6173 49.8535 32.8126 49.9023C33.0079 49.9609 34.8927 50 37.3146 50C41.9923 50 42.0314 50 42.8224 49.2969C43.0665 49.082 43.3888 48.6719 43.5353 48.3984L43.799 47.9004L43.8283 42.8516L43.8576 37.8125L45.7326 37.7734C47.4904 37.7441 47.6369 37.7246 48.0958 37.5C49.2384 36.9434 49.922 35.8984 49.9806 34.6191C50.0197 33.7402 50.1857 34.4531 47.4708 23.7793C45.8986 17.6269 45.8204 17.4121 44.6681 16.25C44.131 15.7031 43.799 15.459 43.1544 15.1562C42.7052 14.9414 42.0997 14.7168 41.8165 14.6582C40.9962 14.4922 33.1935 14.5215 32.549 14.6973Z" fill="#F9CC00"/>
<path d="M21.4844 23.9062C21.1328 23.9941 20.6543 24.1895 20.4102 24.3359C19.834 24.668 19.0234 25.5273 18.7207 26.1328C18.457 26.6504 15.5273 37.9492 15.5273 38.4473C15.5273 39.3164 16.1426 40.332 16.9336 40.752C17.2754 40.9375 17.5195 40.9668 18.7207 40.9961L20.1074 41.0352L20.1367 44.7559L20.166 48.4863L20.4395 48.9551C20.5859 49.209 20.8984 49.541 21.1133 49.6875L21.5234 49.9512H25H28.4766L28.8867 49.6875C29.1016 49.541 29.4141 49.209 29.5605 48.9551L29.834 48.4863L29.8633 44.7559L29.8926 41.0352L31.2793 40.9961C32.4805 40.9668 32.7246 40.9375 33.0664 40.752C33.9551 40.2832 34.5605 39.1504 34.4336 38.2227C34.3066 37.2949 31.5137 26.6016 31.2793 26.1328C30.9082 25.4102 30.0488 24.5508 29.3555 24.2285C28.4082 23.7793 27.9492 23.7305 24.9219 23.7402C22.6074 23.7402 22.0117 23.7695 21.4844 23.9062Z" fill="#291770"/>
</g>
<defs>
<clipPath id="clip0_496_2762">
<rect width="50" height="50" fill="white"/>
</clipPath>
</defs>
</svg>
