<svg width="50" height="50" viewBox="0 0 50 50" fill="none" xmlns="http://www.w3.org/2000/svg">
<g clip-path="url(#clip0_496_2749)">
<path d="M10.791 0.175583C9.61914 0.575974 8.78906 1.31816 8.27148 2.42168C7.96875 3.04668 7.95898 3.1248 7.95898 4.29668C7.95898 5.47832 7.96875 5.54668 8.28125 6.17168C8.4668 6.5623 8.87695 7.11894 9.28711 7.5584L9.98047 8.30058L9.67773 9.54082C9.51172 10.2342 9.28711 11.2986 9.18945 11.9139C9.02344 12.8807 9.01367 13.0564 9.13086 13.1736C9.24805 13.3006 9.50195 13.2908 11.0059 13.1053C15.0293 12.6072 16.0059 12.5486 21.0938 12.5486C26.1719 12.5486 27.1289 12.6072 31.1621 13.0955L32.8809 13.3103L33.4375 12.8514C36.416 10.4295 40.9766 10.9178 43.3594 13.9158C44.4434 15.283 44.9219 16.6502 44.9219 18.3494C44.9219 18.9256 44.8535 19.658 44.7656 20.0193C44.5898 20.7908 43.9941 22.0506 43.5059 22.6951L43.1445 23.1639L43.3984 24.4529C43.9746 27.3533 44.082 28.5838 44.082 32.2459L44.0918 35.6443L44.5898 35.7518C44.8633 35.8103 45.5078 35.8494 46.0156 35.8201C46.8555 35.7908 47.0312 35.742 47.6758 35.4197C48.5742 34.9803 49.209 34.326 49.6387 33.4178C49.9316 32.8025 49.9512 32.7049 49.9512 31.6404C49.9512 30.576 49.9316 30.4783 49.6289 29.8436C49.4141 29.3748 49.0918 28.9451 48.5742 28.4178L47.832 27.6463L48.125 26.3963C48.877 23.2518 49.0723 21.5623 49.0723 17.9686C49.0723 14.3748 48.877 12.6853 48.125 9.54082L47.832 8.29082L48.5742 7.51933C49.0918 6.99199 49.4141 6.5623 49.6289 6.09355C49.9414 5.44902 49.9512 5.3709 49.9512 4.24785C49.9512 3.11504 49.9414 3.05644 49.6289 2.41191C49.209 1.55254 48.457 0.800583 47.5977 0.380661C46.9531 0.0583954 46.8848 0.0486298 45.752 0.0486298C44.6289 0.0486298 44.5508 0.0583954 43.9062 0.370895C43.4277 0.595505 43.0078 0.908005 42.4316 1.47441L41.6211 2.26543L39.873 2.01152C36.0449 1.47441 33.0957 1.26933 28.9062 1.26933C24.7168 1.26933 21.7676 1.47441 17.9297 2.01152L16.1816 2.26543L15.4395 1.533C14.5215 0.634567 14.2578 0.458786 13.4961 0.20488C12.7344 -0.0587921 11.4941 -0.0685577 10.791 0.175583Z" fill="#F9CC00"/>
<path d="M2.88086 14.3359C1.70898 14.7363 0.878906 15.4785 0.361328 16.582C0.0683594 17.1973 0.0488281 17.3047 0.0488281 18.3594C0.0488281 19.4238 0.0683594 19.5215 0.371094 20.1563C0.585937 20.625 0.908203 21.0547 1.42578 21.582L2.16797 22.3535L1.875 23.6035C1.12305 26.748 0.927734 28.4375 0.927734 32.0313C0.927734 35.625 1.12305 37.3145 1.875 40.459L2.16797 41.709L1.42578 42.4805C0.908203 43.0078 0.585937 43.4375 0.371094 43.9063C0.0585937 44.5508 0.0488281 44.6289 0.0488281 45.752C0.0488281 46.9141 0.0488281 46.9434 0.410156 47.666C0.859375 48.5742 1.50391 49.209 2.42187 49.6387C3.04687 49.9316 3.13477 49.9512 4.24805 49.9512C5.37109 49.9512 5.44922 49.9414 6.09375 49.6289C6.57227 49.4043 6.99219 49.0918 7.56836 48.5254L8.37891 47.7344L10.127 47.9883C13.9551 48.5254 16.9043 48.7305 21.0937 48.7305C25.2832 48.7305 28.2324 48.5254 32.0605 47.9883L33.8086 47.7344L34.6191 48.5254C35.1953 49.0918 35.6152 49.4043 36.0937 49.6289C36.7383 49.9316 36.8262 49.9512 37.9004 49.9512C39.0039 49.9512 39.043 49.9414 39.7559 49.5898C40.6641 49.1406 41.2988 48.4961 41.7285 47.5781C42.0312 46.9531 42.041 46.875 42.041 45.7031C42.041 44.5215 42.0312 44.4531 41.7187 43.8281C41.5332 43.4375 41.123 42.8809 40.7129 42.4414L40.0293 41.709L40.3711 40.2148C41.6406 34.7559 41.6211 29.0137 40.3223 23.5938L40.0195 22.3438L40.5078 21.8359C41.7676 20.5371 42.1387 19.6875 42.0703 18.1836C42.041 17.3731 41.9922 17.1387 41.7285 16.582C41.2988 15.6738 40.6641 15.0195 39.7559 14.5703C39.0332 14.209 39.0137 14.209 37.8418 14.209C36.709 14.209 36.6406 14.2188 36.0156 14.5313C35.6055 14.7363 35.0684 15.127 34.5801 15.5859L33.7988 16.3184L32.0605 16.0742C28.1348 15.5273 25.2637 15.332 21.0937 15.332C16.9043 15.332 13.9551 15.5371 10.1172 16.0742L8.36914 16.3281L7.77344 15.7422C6.94336 14.9316 6.41602 14.5801 5.68359 14.3555C4.88281 14.1016 3.57422 14.0918 2.88086 14.3359ZM18.7012 23.877C19.3262 24.082 20.1465 24.541 20.6738 24.9707L21.0742 25.3027L21.6992 24.8438C22.8613 23.9844 23.9062 23.623 25.2832 23.623C26.8652 23.623 28.1934 24.1895 29.3457 25.3418C30.5371 26.5234 31.0547 27.8027 31.0547 29.541C31.0547 31.2598 30.5859 32.6953 29.4434 34.4238C27.793 36.9336 25.7812 38.7695 22.9004 40.4297C21.0645 41.4746 21.0937 41.4746 19.248 40.4004C16.9238 39.043 15.4199 37.8125 14.0137 36.123C12.5781 34.4043 11.6797 32.8027 11.3281 31.3281C11.0937 30.332 11.0645 28.8086 11.2793 27.9883C11.7676 26.1035 13.3496 24.4531 15.2539 23.8379C16.1719 23.5352 17.7539 23.5547 18.7012 23.877Z" fill="#F9CC00"/>
<path d="M15.5469 26.7676C14.4629 27.3047 13.9648 28.1641 13.9648 29.4922C13.9648 30.459 14.1309 31.1621 14.5508 31.9824C15.3223 33.4863 17.0801 35.5176 18.5938 36.6406C19.3848 37.2363 20.9277 38.1836 21.0938 38.1836C21.2598 38.1836 22.8027 37.2363 23.5938 36.6406C25.1074 35.5176 26.8652 33.4863 27.6367 31.9824C28.0566 31.1621 28.2227 30.459 28.2227 29.4922C28.2227 28.8184 28.1738 28.5645 27.9883 28.1641C27.4902 27.0898 26.5137 26.4648 25.332 26.4648C24.2676 26.4648 23.8184 26.6602 22.8516 27.5879C21.7773 28.6133 21.6309 28.7109 21.0938 28.7109C20.5566 28.7109 20.4102 28.6133 19.3359 27.5879C18.3594 26.6602 17.9297 26.4648 16.8457 26.4648C16.2598 26.4648 16.0449 26.5137 15.5469 26.7676Z" fill="#291770"/>
</g>
<defs>
<clipPath id="clip0_496_2749">
<rect width="50" height="50" fill="white"/>
</clipPath>
</defs>
</svg>
