<svg width="50" height="50" viewBox="0 0 50 50" fill="none" xmlns="http://www.w3.org/2000/svg">
<path d="M22.5785 3.32027C22.4028 3.42769 22.1782 3.6523 22.0707 3.82808C21.8852 4.13082 21.8754 4.32613 21.8754 7.53902V10.9375H20.0493C17.9985 10.9375 17.7739 10.9961 17.3832 11.6406C17.1489 12.0312 17.1196 12.8711 17.3246 13.2617C17.4028 13.4082 18.6235 14.6777 20.0395 16.0839C22.8813 18.9062 22.9789 18.9746 23.8481 18.75C24.2094 18.6523 24.6293 18.2812 26.8364 16.0839C28.2524 14.6777 29.4731 13.4082 29.5512 13.2617C29.7563 12.8711 29.727 12.0312 29.4926 11.6406C29.102 10.9961 28.8774 10.9375 26.8364 10.9375H25.0004V7.53902C25.0004 4.32613 24.9907 4.13082 24.8051 3.82808C24.5121 3.35933 24.0727 3.12496 23.4379 3.12496C23.0766 3.12496 22.7934 3.18355 22.5785 3.32027Z" fill="#291770"/>
<path d="M9.45312 15.8105C8.03711 16.2695 6.82617 17.5098 6.40625 18.9355C6.26953 19.4141 6.25 20.7812 6.25 31.2598C6.25 42.5586 6.25977 43.0762 6.43555 43.6426C6.88477 45.0781 8.11523 46.2988 9.56055 46.7188C10.0391 46.8555 11.6797 46.875 25.0098 46.875C39.375 46.875 39.9414 46.8652 40.5176 46.6895C41.9531 46.2402 43.1738 45.0098 43.5938 43.5645C43.7109 43.1543 43.75 42.5684 43.75 41.0547V39.082L39.4824 39.043C35.7324 39.0039 35.1367 38.9746 34.668 38.8281C31.2207 37.7246 30.1953 33.4668 32.793 31.0352C33.3594 30.5078 33.9551 30.1465 34.668 29.9219C35.1367 29.7754 35.7324 29.7461 39.4824 29.707L43.7598 29.668L43.7305 27.5098L43.7012 25.3418L43.3301 24.5703C42.8711 23.6133 42.002 22.7148 41.1816 22.3633L40.625 22.1191V20.7812C40.625 19.7559 40.5859 19.3164 40.4395 18.8574C39.9902 17.4219 38.7598 16.2012 37.3145 15.7812C36.8848 15.6543 36.2598 15.625 34.1406 15.625H31.4941L29.9316 17.1875L28.3691 18.75H32.0801C34.1211 18.75 35.9668 18.7988 36.1719 18.8477C37.0898 19.0527 37.4121 19.5801 37.4805 20.9082L37.5293 21.875L24.0625 21.8555C10.6738 21.8262 10.5957 21.8262 10.2539 21.6211C9.20898 21.0059 9.20898 19.6191 10.2539 19.0039C10.5762 18.8086 10.7617 18.7988 14.541 18.7695L18.4961 18.7402L16.9336 17.1777L15.3809 15.625L12.6953 15.6348C10.3711 15.6348 9.93164 15.6641 9.45312 15.8105Z" fill="#F9CC00"/>
<path d="M35.0781 33.0078C34.6094 33.3008 34.375 33.7402 34.375 34.375C34.375 35.0098 34.6094 35.4492 35.0781 35.7422C35.3906 35.9277 35.5859 35.9375 39.5801 35.9375H43.75V34.375V32.8125H39.5801C35.5859 32.8125 35.3906 32.8223 35.0781 33.0078Z" fill="#291770"/>
</svg>
