<svg width="50" height="50" viewBox="0 0 50 50" fill="none" xmlns="http://www.w3.org/2000/svg">
<g clip-path="url(#clip0_496_2706)">
<path d="M43.3203 1.90429C38.5547 2.87109 38.3398 2.91991 38.0664 3.19335C37.7539 3.50585 37.6172 4.07226 37.7344 4.54101C37.7734 4.68749 37.9883 5.00976 38.2227 5.2539C38.457 5.5078 38.6914 5.81054 38.7598 5.92773C38.8965 6.20116 38.8965 6.68945 38.7598 6.96288C38.6035 7.26562 29.0137 16.875 28.6914 17.0508C28.3594 17.2266 27.8906 17.2266 27.5586 17.0508C27.4121 16.9726 24.9023 14.5019 21.9727 11.5723C19.043 8.64257 16.5332 6.17187 16.3867 6.09374C16.0449 5.91796 15.498 5.91796 15.1562 6.09374C15.0098 6.17187 11.543 9.58984 7.45117 13.6914L0 21.1426V21.6601C0 21.9434 0.0585938 22.2949 0.136719 22.4414C0.302734 22.7539 3.47656 25.9082 3.7793 26.0644C4.07227 26.2109 4.74609 26.2012 5.05859 26.0351C5.20508 25.957 7.51953 23.6914 10.2051 21.0059C13.6035 17.5976 15.1855 16.084 15.4102 16.0059C16.1133 15.7715 15.9961 15.6738 21.9238 21.5918C26.6699 26.3184 27.5391 27.1484 27.7832 27.1582C28.2715 27.1777 28.5547 27.1289 28.8086 27.0019C28.9453 26.9238 32.3242 23.584 36.3281 19.5801C40.332 15.5762 43.7207 12.2266 43.8672 12.1484C44.1797 11.9824 44.6582 11.9726 44.9512 12.1191C45.0684 12.1777 45.3711 12.4219 45.6152 12.666C46.3281 13.3496 47.1191 13.418 47.6953 12.8418C48.0078 12.5293 48.0176 12.4805 49.0039 7.55859C49.5508 4.82421 50 2.3828 50 2.13866C50 1.40624 49.4336 0.869133 48.6621 0.888664C48.457 0.888664 46.0547 1.34765 43.3203 1.90429Z" fill="#F9CC00"/>
<path d="M37.8418 22.5586C37.5781 22.666 37.2461 23.0371 37.1191 23.3691C37.041 23.5645 37.0117 27.4414 37.0117 35.8496C37.0117 47.7539 37.0117 48.0664 37.207 48.4277C37.5391 49.082 37.7148 49.1211 40.6738 49.1211C43.5449 49.1211 43.6914 49.0918 44.043 48.5059C44.2285 48.2031 44.2383 47.9199 44.2383 35.791C44.2383 23.6621 44.2285 23.3789 44.043 23.0762C43.6816 22.4805 43.5547 22.4609 40.6543 22.4707C39.2188 22.4707 37.9492 22.5098 37.8418 22.5586Z" fill="#291770"/>
<path d="M14.4624 25.8594C14.2768 25.9473 14.0327 26.1523 13.9253 26.2988C13.7202 26.5723 13.7202 26.6309 13.6909 37.334C13.6714 47.6172 13.6811 48.1152 13.8471 48.4277C14.1987 49.0918 14.3745 49.1211 17.3335 49.1211C19.7749 49.1211 19.9897 49.1016 20.2827 48.9258C20.937 48.5352 20.8979 49.2773 20.8979 37.3926C20.8979 26.7773 20.8979 26.6309 20.7026 26.3184C20.3315 25.7227 20.1264 25.6836 17.3139 25.6836C15.1069 25.6836 14.7553 25.7031 14.4624 25.8594Z" fill="#291770"/>
<path d="M2.63672 31.7576C2.45117 31.8846 2.24609 32.0994 2.17773 32.2264C2.08008 32.4119 2.05078 34.2479 2.05078 40.4002V48.3201L2.29492 48.6131C2.71484 49.1112 2.86133 49.1307 5.79102 49.1014L8.48633 49.0721L8.7793 48.7889C8.94531 48.6229 9.13086 48.3397 9.17969 48.1541C9.30664 47.6756 9.30664 32.9881 9.17969 32.5096C9.13086 32.324 8.94531 32.0408 8.7793 31.8748L8.48633 31.5916L5.72266 31.5623C2.97852 31.533 2.96875 31.533 2.63672 31.7576Z" fill="#291770"/>
<path d="M26.416 34.1699C26.0059 34.2773 25.7324 34.4629 25.5469 34.7754C25.4102 35.0098 25.3906 35.7324 25.3906 41.6211C25.3906 47.9688 25.4004 48.2031 25.5859 48.5059C25.9375 49.0918 26.084 49.1211 28.9551 49.1211C31.9531 49.1211 32.0801 49.0918 32.4219 48.3984C32.6172 47.998 32.6172 47.832 32.6172 41.6895C32.6172 37.6562 32.5781 35.2734 32.5195 35.0391C32.4512 34.8047 32.2852 34.5703 32.0605 34.4043L31.709 34.1309L29.209 34.1113C27.832 34.1016 26.582 34.1309 26.416 34.1699Z" fill="#291770"/>
</g>
<defs>
<clipPath id="clip0_496_2706">
<rect width="50" height="50" fill="white"/>
</clipPath>
</defs>
</svg>
