<svg width="50" height="50" viewBox="0 0 50 50" fill="none" xmlns="http://www.w3.org/2000/svg">
<path d="M12.792 2.50977C10.3408 2.91016 8.36813 3.68164 6.39547 5.00977C5.17477 5.83985 3.23141 7.79297 2.45016 8.98438C1.38571 10.5957 0.643519 12.3438 0.243129 14.1602C-0.0107775 15.3027 -0.0693712 18.0957 0.135707 19.3555C0.409144 21.0156 1.27829 23.3301 2.16696 24.7852L2.36227 25.0977L7.84079 25.0781L13.3193 25.0488L14.3154 23.3887C14.9697 22.2852 15.4189 21.6504 15.624 21.5039C16.0146 21.2402 16.6884 21.2207 17.1084 21.4551C17.3037 21.582 18.0361 22.627 19.5009 24.9219C20.6533 26.7383 21.6298 28.2227 21.6689 28.2227C21.708 28.2227 23.1045 25.3613 24.7646 21.8555C27.4306 16.2207 27.8213 15.459 28.1142 15.2637C28.5439 14.9805 29.1982 14.9609 29.6377 15.2344C29.9697 15.4395 29.9013 15.3125 33.4365 21.875L35.1455 25.0488L41.3759 25.0781L47.6162 25.0977L48.0361 24.3652C49.374 22.041 49.999 19.6973 49.999 17.041C49.999 14.6777 49.6084 12.959 48.5927 10.8887C47.8017 9.28711 46.9912 8.13477 45.7509 6.875C43.3877 4.48242 40.4873 2.99805 37.2255 2.5293C35.9072 2.34375 33.2802 2.46094 32.0791 2.76367C29.6865 3.36914 27.4892 4.47266 25.5166 6.06446C25.0576 6.42578 24.9795 6.45508 24.8134 6.33789C24.7158 6.25977 24.247 5.91797 23.788 5.56641C21.7177 4.01367 19.3349 2.96875 16.9423 2.58789C16.1318 2.45117 13.4365 2.40235 12.792 2.50977Z" fill="#F9CC00"/>
<path d="M28.623 20.2341C28.3594 20.8103 24.3848 29.2185 23.3984 31.2693C23.0566 31.9822 22.8711 32.2556 22.6172 32.4119C22.207 32.6755 21.543 32.6853 21.1328 32.4314C20.9277 32.3044 20.1855 31.2302 18.6621 28.8181C17.4609 26.9333 16.4453 25.4099 16.4062 25.4392C16.377 25.4587 16.0645 25.947 15.7129 26.5134C14.7559 28.1052 15.3223 27.9685 9.55078 28.0271L4.69727 28.0759L14.4434 37.7634C20.8203 44.1013 24.2871 47.4705 24.4531 47.5193C24.9707 47.6462 25.6445 47.5095 26.0449 47.1873C26.25 47.0212 30.6543 42.6462 35.8398 37.4607L45.2637 28.0271H39.8926C36.9336 28.0271 34.3457 27.9783 34.1406 27.9294C33.9258 27.8806 33.6426 27.7634 33.5059 27.6658C33.3594 27.5486 32.4316 25.9177 31.1621 23.5544C30 21.3962 29.0234 19.6287 28.9844 19.6287C28.9453 19.6287 28.7793 19.9021 28.623 20.2341Z" fill="#291770"/>
</svg>
