<svg width="50" height="50" viewBox="0 0 50 50" fill="none" xmlns="http://www.w3.org/2000/svg">
<g clip-path="url(#clip0_496_2758)">
<path d="M8.95508 0.136719C8.35938 0.351562 8.00781 0.693359 7.68555 1.36719C7.50977 1.74805 7.48047 2.03125 7.44141 3.38867L7.40234 4.98047H4.64844C2.20703 4.98047 1.86523 5 1.51367 5.16602C0.917969 5.43945 0.488281 5.84961 0.234375 6.39648L0 6.88477V25V43.1152L0.234375 43.6035C0.488281 44.1504 0.917969 44.5605 1.51367 44.834C1.88477 45 2.37305 45.0195 9.84375 45.0195C14.1992 45.0195 17.7734 44.9902 17.7734 44.9512C17.7734 44.9219 17.627 44.6191 17.4414 44.2969C15.7031 41.1719 14.7949 36.8359 15.127 33.3008C15.5859 28.5547 17.5879 24.3066 20.9473 20.9473C22.6172 19.2676 24.5117 17.9297 26.5234 16.9922C33.2812 13.8379 40.6348 14.5801 46.7871 19.0527C47.1484 19.3164 47.4707 19.5312 47.5 19.5312C47.5391 19.5312 47.5488 16.6895 47.5391 13.2031L47.5098 6.88477L47.2949 6.47461C47.002 5.9375 46.4746 5.43945 45.9375 5.18555C45.5664 5.00977 45.3223 4.98047 44.0527 4.98047H42.5977L42.5586 3.38867C42.5293 2.06055 42.4902 1.73828 42.3145 1.36719C42.0898 0.878906 41.6992 0.449219 41.2598 0.214844C40.8691 0.0195312 39.6191 -0.0488281 39.0625 0.0976562C38.4961 0.253906 37.7637 0.966797 37.6074 1.51367C37.5488 1.72852 37.5 2.59766 37.5 3.4375V4.98047H25H12.5V3.4375C12.5 2.59766 12.4512 1.72852 12.3926 1.51367C12.2461 0.996094 11.5039 0.253906 10.9863 0.107422C10.459 -0.0390625 9.4043 -0.0195312 8.95508 0.136719Z" fill="#F9CC00"/>
<path d="M33.7404 20.0293C30.2345 20.3027 26.8752 21.8652 24.3654 24.4043C19.4533 29.3457 18.5549 36.914 22.1877 42.8515C24.1994 46.1425 27.5295 48.6133 31.2502 49.5605C33.4767 50.1269 36.4846 50.1465 38.5939 49.6093C44.0334 48.2129 48.2131 44.0332 49.6096 38.5937C50.1467 36.4843 50.1271 33.4765 49.5607 31.25C48.0959 25.5078 43.1838 21.0351 37.4025 20.1758C36.1428 19.9804 34.9025 19.9316 33.7404 20.0293ZM36.1818 25.3125C36.5529 25.5078 36.9826 25.9375 37.1584 26.2793C37.4123 26.7578 37.5002 27.7734 37.5002 30.1465V32.5195H38.7697C40.8791 32.5195 41.6408 32.8222 42.1486 33.8379C42.8615 35.3027 42.0998 37.0605 40.6349 37.373C40.176 37.4707 34.8244 37.4707 34.3654 37.373C33.7404 37.2461 33.1447 36.7675 32.842 36.1523L32.5685 35.5957V31.25C32.5685 26.9824 32.5685 26.8945 32.7834 26.4453C33.0373 25.8984 33.3888 25.5371 33.9357 25.2734C34.4142 25.0488 35.7131 25.0683 36.1818 25.3125Z" fill="#291770"/>
</g>
<defs>
<clipPath id="clip0_496_2758">
<rect width="50" height="50" fill="white"/>
</clipPath>
</defs>
</svg>
