<svg width="210" height="131" viewBox="0 0 210 131" fill="none" xmlns="http://www.w3.org/2000/svg">
<path d="M4.30273 15V2.29492L0.552734 3.7793V2.36328L5.41602 0.585938H5.75781V15H4.30273ZM15.709 10.4492V5.33203C15.709 3.84115 16.0964 2.66276 16.8711 1.79688C17.6523 0.93099 18.7363 0.498047 20.123 0.498047C21.5033 0.498047 22.584 0.93099 23.3652 1.79688C24.1465 2.66276 24.5371 3.84115 24.5371 5.33203V10.4492C24.5371 11.9466 24.1465 13.1283 23.3652 13.9941C22.584 14.8535 21.5033 15.2832 20.123 15.2832C18.7363 15.2767 17.6523 14.8438 16.8711 13.9844C16.0964 13.125 15.709 11.9466 15.709 10.4492ZM17.1738 10.5273C17.1738 11.5885 17.418 12.4414 17.9062 13.0859C18.401 13.7305 19.14 14.0527 20.123 14.0527C21.0996 14.0527 21.832 13.7305 22.3203 13.0859C22.8151 12.4414 23.0625 11.5885 23.0625 10.5273V5.26367C23.0625 4.20898 22.8184 3.35612 22.3301 2.70508C21.8418 2.05404 21.1061 1.72852 20.123 1.72852C19.1335 1.72852 18.3945 2.05404 17.9062 2.70508C17.418 3.35612 17.1738 4.20898 17.1738 5.26367V10.5273ZM35.5918 15V2.29492L31.8418 3.7793V2.36328L36.7051 0.585938H37.0469V15H35.5918ZM46.998 10.4492V5.33203C46.998 3.84115 47.3854 2.66276 48.1602 1.79688C48.9414 0.93099 50.0254 0.498047 51.4121 0.498047C52.7923 0.498047 53.873 0.93099 54.6543 1.79688C55.4355 2.66276 55.8262 3.84115 55.8262 5.33203V10.4492C55.8262 11.9466 55.4355 13.1283 54.6543 13.9941C53.873 14.8535 52.7923 15.2832 51.4121 15.2832C50.0254 15.2767 48.9414 14.8438 48.1602 13.9844C47.3854 13.125 46.998 11.9466 46.998 10.4492ZM48.4629 10.5273C48.4629 11.5885 48.707 12.4414 49.1953 13.0859C49.6901 13.7305 50.429 14.0527 51.4121 14.0527C52.3887 14.0527 53.1211 13.7305 53.6094 13.0859C54.1042 12.4414 54.3516 11.5885 54.3516 10.5273V5.26367C54.3516 4.20898 54.1074 3.35612 53.6191 2.70508C53.1309 2.05404 52.3952 1.72852 51.4121 1.72852C50.4225 1.72852 49.6836 2.05404 49.1953 2.70508C48.707 3.35612 48.4629 4.20898 48.4629 5.26367V10.5273ZM62.6426 10.4492V5.33203C62.6426 3.84115 63.0299 2.66276 63.8047 1.79688C64.5859 0.93099 65.6699 0.498047 67.0566 0.498047C68.4368 0.498047 69.5176 0.93099 70.2988 1.79688C71.0801 2.66276 71.4707 3.84115 71.4707 5.33203V10.4492C71.4707 11.9466 71.0801 13.1283 70.2988 13.9941C69.5176 14.8535 68.4368 15.2832 67.0566 15.2832C65.6699 15.2767 64.5859 14.8438 63.8047 13.9844C63.0299 13.125 62.6426 11.9466 62.6426 10.4492ZM64.1074 10.5273C64.1074 11.5885 64.3516 12.4414 64.8398 13.0859C65.3346 13.7305 66.0736 14.0527 67.0566 14.0527C68.0332 14.0527 68.7656 13.7305 69.2539 13.0859C69.7487 12.4414 69.9961 11.5885 69.9961 10.5273V5.26367C69.9961 4.20898 69.752 3.35612 69.2637 2.70508C68.7754 2.05404 68.0397 1.72852 67.0566 1.72852C66.0671 1.72852 65.3281 2.05404 64.8398 2.70508C64.3516 3.35612 64.1074 4.20898 64.1074 5.26367V10.5273ZM78.2871 10.4492V5.33203C78.2871 3.84115 78.6745 2.66276 79.4492 1.79688C80.2305 0.93099 81.3145 0.498047 82.7012 0.498047C84.0814 0.498047 85.1621 0.93099 85.9434 1.79688C86.7246 2.66276 87.1152 3.84115 87.1152 5.33203V10.4492C87.1152 11.9466 86.7246 13.1283 85.9434 13.9941C85.1621 14.8535 84.0814 15.2832 82.7012 15.2832C81.3145 15.2767 80.2305 14.8438 79.4492 13.9844C78.6745 13.125 78.2871 11.9466 78.2871 10.4492ZM79.752 10.5273C79.752 11.5885 79.9961 12.4414 80.4844 13.0859C80.9792 13.7305 81.7181 14.0527 82.7012 14.0527C83.6777 14.0527 84.4102 13.7305 84.8984 13.0859C85.3932 12.4414 85.6406 11.5885 85.6406 10.5273V5.26367C85.6406 4.20898 85.3965 3.35612 84.9082 2.70508C84.4199 2.05404 83.6842 1.72852 82.7012 1.72852C81.7116 1.72852 80.9727 2.05404 80.4844 2.70508C79.9961 3.35612 79.752 4.20898 79.752 5.26367V10.5273ZM98.1699 15V2.29492L94.4199 3.7793V2.36328L99.2832 0.585938H99.625V15H98.1699ZM113.814 15V2.29492L110.064 3.7793V2.36328L114.928 0.585938H115.27V15H113.814ZM125.221 10.4492V5.33203C125.221 3.84115 125.608 2.66276 126.383 1.79688C127.164 0.93099 128.248 0.498047 129.635 0.498047C131.015 0.498047 132.096 0.93099 132.877 1.79688C133.658 2.66276 134.049 3.84115 134.049 5.33203V10.4492C134.049 11.9466 133.658 13.1283 132.877 13.9941C132.096 14.8535 131.015 15.2832 129.635 15.2832C128.248 15.2767 127.164 14.8438 126.383 13.9844C125.608 13.125 125.221 11.9466 125.221 10.4492ZM126.686 10.5273C126.686 11.5885 126.93 12.4414 127.418 13.0859C127.913 13.7305 128.652 14.0527 129.635 14.0527C130.611 14.0527 131.344 13.7305 131.832 13.0859C132.327 12.4414 132.574 11.5885 132.574 10.5273V5.26367C132.574 4.20898 132.33 3.35612 131.842 2.70508C131.354 2.05404 130.618 1.72852 129.635 1.72852C128.645 1.72852 127.906 2.05404 127.418 2.70508C126.93 3.35612 126.686 4.20898 126.686 5.26367V10.5273ZM145.104 15V2.29492L141.354 3.7793V2.36328L146.217 0.585938H146.559V15H145.104ZM156.51 10.4492V5.33203C156.51 3.84115 156.897 2.66276 157.672 1.79688C158.453 0.93099 159.537 0.498047 160.924 0.498047C162.304 0.498047 163.385 0.93099 164.166 1.79688C164.947 2.66276 165.338 3.84115 165.338 5.33203V10.4492C165.338 11.9466 164.947 13.1283 164.166 13.9941C163.385 14.8535 162.304 15.2832 160.924 15.2832C159.537 15.2767 158.453 14.8438 157.672 13.9844C156.897 13.125 156.51 11.9466 156.51 10.4492ZM157.975 10.5273C157.975 11.5885 158.219 12.4414 158.707 13.0859C159.202 13.7305 159.941 14.0527 160.924 14.0527C161.9 14.0527 162.633 13.7305 163.121 13.0859C163.616 12.4414 163.863 11.5885 163.863 10.5273V5.26367C163.863 4.20898 163.619 3.35612 163.131 2.70508C162.643 2.05404 161.907 1.72852 160.924 1.72852C159.934 1.72852 159.195 2.05404 158.707 2.70508C158.219 3.35612 157.975 4.20898 157.975 5.26367V10.5273ZM172.154 10.4492V5.33203C172.154 3.84115 172.542 2.66276 173.316 1.79688C174.098 0.93099 175.182 0.498047 176.568 0.498047C177.949 0.498047 179.029 0.93099 179.811 1.79688C180.592 2.66276 180.982 3.84115 180.982 5.33203V10.4492C180.982 11.9466 180.592 13.1283 179.811 13.9941C179.029 14.8535 177.949 15.2832 176.568 15.2832C175.182 15.2767 174.098 14.8438 173.316 13.9844C172.542 13.125 172.154 11.9466 172.154 10.4492ZM173.619 10.5273C173.619 11.5885 173.863 12.4414 174.352 13.0859C174.846 13.7305 175.585 14.0527 176.568 14.0527C177.545 14.0527 178.277 13.7305 178.766 13.0859C179.26 12.4414 179.508 11.5885 179.508 10.5273V5.26367C179.508 4.20898 179.264 3.35612 178.775 2.70508C178.287 2.05404 177.551 1.72852 176.568 1.72852C175.579 1.72852 174.84 2.05404 174.352 2.70508C173.863 3.35612 173.619 4.20898 173.619 5.26367V10.5273ZM187.799 10.4492V5.33203C187.799 3.84115 188.186 2.66276 188.961 1.79688C189.742 0.93099 190.826 0.498047 192.213 0.498047C193.593 0.498047 194.674 0.93099 195.455 1.79688C196.236 2.66276 196.627 3.84115 196.627 5.33203V10.4492C196.627 11.9466 196.236 13.1283 195.455 13.9941C194.674 14.8535 193.593 15.2832 192.213 15.2832C190.826 15.2767 189.742 14.8438 188.961 13.9844C188.186 13.125 187.799 11.9466 187.799 10.4492ZM189.264 10.5273C189.264 11.5885 189.508 12.4414 189.996 13.0859C190.491 13.7305 191.23 14.0527 192.213 14.0527C193.189 14.0527 193.922 13.7305 194.41 13.0859C194.905 12.4414 195.152 11.5885 195.152 10.5273V5.26367C195.152 4.20898 194.908 3.35612 194.42 2.70508C193.932 2.05404 193.196 1.72852 192.213 1.72852C191.223 1.72852 190.484 2.05404 189.996 2.70508C189.508 3.35612 189.264 4.20898 189.264 5.26367V10.5273ZM207.682 15V2.29492L203.932 3.7793V2.36328L208.795 0.585938H209.137V15H207.682ZM0.0644531 33.4492V28.332C0.0644531 26.8411 0.451823 25.6628 1.22656 24.7969C2.00781 23.931 3.0918 23.498 4.47852 23.498C5.85872 23.498 6.93945 23.931 7.7207 24.7969C8.50195 25.6628 8.89258 26.8411 8.89258 28.332V33.4492C8.89258 34.9466 8.50195 36.1283 7.7207 36.9941C6.93945 37.8535 5.85872 38.2832 4.47852 38.2832C3.0918 38.2767 2.00781 37.8438 1.22656 36.9844C0.451823 36.125 0.0644531 34.9466 0.0644531 33.4492ZM1.5293 33.5273C1.5293 34.5885 1.77344 35.4414 2.26172 36.0859C2.75651 36.7305 3.49544 37.0527 4.47852 37.0527C5.45508 37.0527 6.1875 36.7305 6.67578 36.0859C7.17057 35.4414 7.41797 34.5885 7.41797 33.5273V28.2637C7.41797 27.209 7.17383 26.3561 6.68555 25.7051C6.19727 25.054 5.46159 24.7285 4.47852 24.7285C3.48893 24.7285 2.75 25.054 2.26172 25.7051C1.77344 26.3561 1.5293 27.209 1.5293 28.2637V33.5273ZM19.9473 38V25.2949L16.1973 26.7793V25.3633L21.0605 23.5859H21.4023V38H19.9473ZM31.3535 33.4492V28.332C31.3535 26.8411 31.7409 25.6628 32.5156 24.7969C33.2969 23.931 34.3809 23.498 35.7676 23.498C37.1478 23.498 38.2285 23.931 39.0098 24.7969C39.791 25.6628 40.1816 26.8411 40.1816 28.332V33.4492C40.1816 34.9466 39.791 36.1283 39.0098 36.9941C38.2285 37.8535 37.1478 38.2832 35.7676 38.2832C34.3809 38.2767 33.2969 37.8438 32.5156 36.9844C31.7409 36.125 31.3535 34.9466 31.3535 33.4492ZM32.8184 33.5273C32.8184 34.5885 33.0625 35.4414 33.5508 36.0859C34.0456 36.7305 34.7845 37.0527 35.7676 37.0527C36.7441 37.0527 37.4766 36.7305 37.9648 36.0859C38.4596 35.4414 38.707 34.5885 38.707 33.5273V28.2637C38.707 27.209 38.4629 26.3561 37.9746 25.7051C37.4863 25.054 36.7507 24.7285 35.7676 24.7285C34.778 24.7285 34.0391 25.054 33.5508 25.7051C33.0625 26.3561 32.8184 27.209 32.8184 28.2637V33.5273ZM46.998 33.4492V28.332C46.998 26.8411 47.3854 25.6628 48.1602 24.7969C48.9414 23.931 50.0254 23.498 51.4121 23.498C52.7923 23.498 53.873 23.931 54.6543 24.7969C55.4355 25.6628 55.8262 26.8411 55.8262 28.332V33.4492C55.8262 34.9466 55.4355 36.1283 54.6543 36.9941C53.873 37.8535 52.7923 38.2832 51.4121 38.2832C50.0254 38.2767 48.9414 37.8438 48.1602 36.9844C47.3854 36.125 46.998 34.9466 46.998 33.4492ZM48.4629 33.5273C48.4629 34.5885 48.707 35.4414 49.1953 36.0859C49.6901 36.7305 50.429 37.0527 51.4121 37.0527C52.3887 37.0527 53.1211 36.7305 53.6094 36.0859C54.1042 35.4414 54.3516 34.5885 54.3516 33.5273V28.2637C54.3516 27.209 54.1074 26.3561 53.6191 25.7051C53.1309 25.054 52.3952 24.7285 51.4121 24.7285C50.4225 24.7285 49.6836 25.054 49.1953 25.7051C48.707 26.3561 48.4629 27.209 48.4629 28.2637V33.5273ZM66.8809 38V25.2949L63.1309 26.7793V25.3633L67.9941 23.5859H68.3359V38H66.8809ZM78.2871 33.4492V28.332C78.2871 26.8411 78.6745 25.6628 79.4492 24.7969C80.2305 23.931 81.3145 23.498 82.7012 23.498C84.0814 23.498 85.1621 23.931 85.9434 24.7969C86.7246 25.6628 87.1152 26.8411 87.1152 28.332V33.4492C87.1152 34.9466 86.7246 36.1283 85.9434 36.9941C85.1621 37.8535 84.0814 38.2832 82.7012 38.2832C81.3145 38.2767 80.2305 37.8438 79.4492 36.9844C78.6745 36.125 78.2871 34.9466 78.2871 33.4492ZM79.752 33.5273C79.752 34.5885 79.9961 35.4414 80.4844 36.0859C80.9792 36.7305 81.7181 37.0527 82.7012 37.0527C83.6777 37.0527 84.4102 36.7305 84.8984 36.0859C85.3932 35.4414 85.6406 34.5885 85.6406 33.5273V28.2637C85.6406 27.209 85.3965 26.3561 84.9082 25.7051C84.4199 25.054 83.6842 24.7285 82.7012 24.7285C81.7116 24.7285 80.9727 25.054 80.4844 25.7051C79.9961 26.3561 79.752 27.209 79.752 28.2637V33.5273ZM98.1699 38V25.2949L94.4199 26.7793V25.3633L99.2832 23.5859H99.625V38H98.1699ZM109.576 33.4492V28.332C109.576 26.8411 109.964 25.6628 110.738 24.7969C111.52 23.931 112.604 23.498 113.99 23.498C115.37 23.498 116.451 23.931 117.232 24.7969C118.014 25.6628 118.404 26.8411 118.404 28.332V33.4492C118.404 34.9466 118.014 36.1283 117.232 36.9941C116.451 37.8535 115.37 38.2832 113.99 38.2832C112.604 38.2767 111.52 37.8438 110.738 36.9844C109.964 36.125 109.576 34.9466 109.576 33.4492ZM111.041 33.5273C111.041 34.5885 111.285 35.4414 111.773 36.0859C112.268 36.7305 113.007 37.0527 113.99 37.0527C114.967 37.0527 115.699 36.7305 116.188 36.0859C116.682 35.4414 116.93 34.5885 116.93 33.5273V28.2637C116.93 27.209 116.686 26.3561 116.197 25.7051C115.709 25.054 114.973 24.7285 113.99 24.7285C113.001 24.7285 112.262 25.054 111.773 25.7051C111.285 26.3561 111.041 27.209 111.041 28.2637V33.5273ZM129.459 38V25.2949L125.709 26.7793V25.3633L130.572 23.5859H130.914V38H129.459ZM140.865 33.4492V28.332C140.865 26.8411 141.253 25.6628 142.027 24.7969C142.809 23.931 143.893 23.498 145.279 23.498C146.66 23.498 147.74 23.931 148.521 24.7969C149.303 25.6628 149.693 26.8411 149.693 28.332V33.4492C149.693 34.9466 149.303 36.1283 148.521 36.9941C147.74 37.8535 146.66 38.2832 145.279 38.2832C143.893 38.2767 142.809 37.8438 142.027 36.9844C141.253 36.125 140.865 34.9466 140.865 33.4492ZM142.33 33.5273C142.33 34.5885 142.574 35.4414 143.062 36.0859C143.557 36.7305 144.296 37.0527 145.279 37.0527C146.256 37.0527 146.988 36.7305 147.477 36.0859C147.971 35.4414 148.219 34.5885 148.219 33.5273V28.2637C148.219 27.209 147.975 26.3561 147.486 25.7051C146.998 25.054 146.262 24.7285 145.279 24.7285C144.29 24.7285 143.551 25.054 143.062 25.7051C142.574 26.3561 142.33 27.209 142.33 28.2637V33.5273ZM156.51 33.4492V28.332C156.51 26.8411 156.897 25.6628 157.672 24.7969C158.453 23.931 159.537 23.498 160.924 23.498C162.304 23.498 163.385 23.931 164.166 24.7969C164.947 25.6628 165.338 26.8411 165.338 28.332V33.4492C165.338 34.9466 164.947 36.1283 164.166 36.9941C163.385 37.8535 162.304 38.2832 160.924 38.2832C159.537 38.2767 158.453 37.8438 157.672 36.9844C156.897 36.125 156.51 34.9466 156.51 33.4492ZM157.975 33.5273C157.975 34.5885 158.219 35.4414 158.707 36.0859C159.202 36.7305 159.941 37.0527 160.924 37.0527C161.9 37.0527 162.633 36.7305 163.121 36.0859C163.616 35.4414 163.863 34.5885 163.863 33.5273V28.2637C163.863 27.209 163.619 26.3561 163.131 25.7051C162.643 25.054 161.907 24.7285 160.924 24.7285C159.934 24.7285 159.195 25.054 158.707 25.7051C158.219 26.3561 157.975 27.209 157.975 28.2637V33.5273ZM176.393 38V25.2949L172.643 26.7793V25.3633L177.506 23.5859H177.848V38H176.393ZM187.799 33.4492V28.332C187.799 26.8411 188.186 25.6628 188.961 24.7969C189.742 23.931 190.826 23.498 192.213 23.498C193.593 23.498 194.674 23.931 195.455 24.7969C196.236 25.6628 196.627 26.8411 196.627 28.332V33.4492C196.627 34.9466 196.236 36.1283 195.455 36.9941C194.674 37.8535 193.593 38.2832 192.213 38.2832C190.826 38.2767 189.742 37.8438 188.961 36.9844C188.186 36.125 187.799 34.9466 187.799 33.4492ZM189.264 33.5273C189.264 34.5885 189.508 35.4414 189.996 36.0859C190.491 36.7305 191.23 37.0527 192.213 37.0527C193.189 37.0527 193.922 36.7305 194.41 36.0859C194.905 35.4414 195.152 34.5885 195.152 33.5273V28.2637C195.152 27.209 194.908 26.3561 194.42 25.7051C193.932 25.054 193.196 24.7285 192.213 24.7285C191.223 24.7285 190.484 25.054 189.996 25.7051C189.508 26.3561 189.264 27.209 189.264 28.2637V33.5273ZM207.682 38V25.2949L203.932 26.7793V25.3633L208.795 23.5859H209.137V38H207.682ZM4.30273 61V48.2949L0.552734 49.7793V48.3633L5.41602 46.5859H5.75781V61H4.30273ZM15.709 56.4492V51.332C15.709 49.8411 16.0964 48.6628 16.8711 47.7969C17.6523 46.931 18.7363 46.498 20.123 46.498C21.5033 46.498 22.584 46.931 23.3652 47.7969C24.1465 48.6628 24.5371 49.8411 24.5371 51.332V56.4492C24.5371 57.9466 24.1465 59.1283 23.3652 59.9941C22.584 60.8535 21.5033 61.2832 20.123 61.2832C18.7363 61.2767 17.6523 60.8438 16.8711 59.9844C16.0964 59.125 15.709 57.9466 15.709 56.4492ZM17.1738 56.5273C17.1738 57.5885 17.418 58.4414 17.9062 59.0859C18.401 59.7305 19.14 60.0527 20.123 60.0527C21.0996 60.0527 21.832 59.7305 22.3203 59.0859C22.8151 58.4414 23.0625 57.5885 23.0625 56.5273V51.2637C23.0625 50.209 22.8184 49.3561 22.3301 48.7051C21.8418 48.054 21.1061 47.7285 20.123 47.7285C19.1335 47.7285 18.3945 48.054 17.9062 48.7051C17.418 49.3561 17.1738 50.209 17.1738 51.2637V56.5273ZM35.5918 61V48.2949L31.8418 49.7793V48.3633L36.7051 46.5859H37.0469V61H35.5918ZM46.998 56.4492V51.332C46.998 49.8411 47.3854 48.6628 48.1602 47.7969C48.9414 46.931 50.0254 46.498 51.4121 46.498C52.7923 46.498 53.873 46.931 54.6543 47.7969C55.4355 48.6628 55.8262 49.8411 55.8262 51.332V56.4492C55.8262 57.9466 55.4355 59.1283 54.6543 59.9941C53.873 60.8535 52.7923 61.2832 51.4121 61.2832C50.0254 61.2767 48.9414 60.8438 48.1602 59.9844C47.3854 59.125 46.998 57.9466 46.998 56.4492ZM48.4629 56.5273C48.4629 57.5885 48.707 58.4414 49.1953 59.0859C49.6901 59.7305 50.429 60.0527 51.4121 60.0527C52.3887 60.0527 53.1211 59.7305 53.6094 59.0859C54.1042 58.4414 54.3516 57.5885 54.3516 56.5273V51.2637C54.3516 50.209 54.1074 49.3561 53.6191 48.7051C53.1309 48.054 52.3952 47.7285 51.4121 47.7285C50.4225 47.7285 49.6836 48.054 49.1953 48.7051C48.707 49.3561 48.4629 50.209 48.4629 51.2637V56.5273ZM62.6426 56.4492V51.332C62.6426 49.8411 63.0299 48.6628 63.8047 47.7969C64.5859 46.931 65.6699 46.498 67.0566 46.498C68.4368 46.498 69.5176 46.931 70.2988 47.7969C71.0801 48.6628 71.4707 49.8411 71.4707 51.332V56.4492C71.4707 57.9466 71.0801 59.1283 70.2988 59.9941C69.5176 60.8535 68.4368 61.2832 67.0566 61.2832C65.6699 61.2767 64.5859 60.8438 63.8047 59.9844C63.0299 59.125 62.6426 57.9466 62.6426 56.4492ZM64.1074 56.5273C64.1074 57.5885 64.3516 58.4414 64.8398 59.0859C65.3346 59.7305 66.0736 60.0527 67.0566 60.0527C68.0332 60.0527 68.7656 59.7305 69.2539 59.0859C69.7487 58.4414 69.9961 57.5885 69.9961 56.5273V51.2637C69.9961 50.209 69.752 49.3561 69.2637 48.7051C68.7754 48.054 68.0397 47.7285 67.0566 47.7285C66.0671 47.7285 65.3281 48.054 64.8398 48.7051C64.3516 49.3561 64.1074 50.209 64.1074 51.2637V56.5273ZM78.2871 56.4492V51.332C78.2871 49.8411 78.6745 48.6628 79.4492 47.7969C80.2305 46.931 81.3145 46.498 82.7012 46.498C84.0814 46.498 85.1621 46.931 85.9434 47.7969C86.7246 48.6628 87.1152 49.8411 87.1152 51.332V56.4492C87.1152 57.9466 86.7246 59.1283 85.9434 59.9941C85.1621 60.8535 84.0814 61.2832 82.7012 61.2832C81.3145 61.2767 80.2305 60.8438 79.4492 59.9844C78.6745 59.125 78.2871 57.9466 78.2871 56.4492ZM79.752 56.5273C79.752 57.5885 79.9961 58.4414 80.4844 59.0859C80.9792 59.7305 81.7181 60.0527 82.7012 60.0527C83.6777 60.0527 84.4102 59.7305 84.8984 59.0859C85.3932 58.4414 85.6406 57.5885 85.6406 56.5273V51.2637C85.6406 50.209 85.3965 49.3561 84.9082 48.7051C84.4199 48.054 83.6842 47.7285 82.7012 47.7285C81.7116 47.7285 80.9727 48.054 80.4844 48.7051C79.9961 49.3561 79.752 50.209 79.752 51.2637V56.5273ZM98.1699 61V48.2949L94.4199 49.7793V48.3633L99.2832 46.5859H99.625V61H98.1699ZM113.814 61V48.2949L110.064 49.7793V48.3633L114.928 46.5859H115.27V61H113.814ZM125.221 56.4492V51.332C125.221 49.8411 125.608 48.6628 126.383 47.7969C127.164 46.931 128.248 46.498 129.635 46.498C131.015 46.498 132.096 46.931 132.877 47.7969C133.658 48.6628 134.049 49.8411 134.049 51.332V56.4492C134.049 57.9466 133.658 59.1283 132.877 59.9941C132.096 60.8535 131.015 61.2832 129.635 61.2832C128.248 61.2767 127.164 60.8438 126.383 59.9844C125.608 59.125 125.221 57.9466 125.221 56.4492ZM126.686 56.5273C126.686 57.5885 126.93 58.4414 127.418 59.0859C127.913 59.7305 128.652 60.0527 129.635 60.0527C130.611 60.0527 131.344 59.7305 131.832 59.0859C132.327 58.4414 132.574 57.5885 132.574 56.5273V51.2637C132.574 50.209 132.33 49.3561 131.842 48.7051C131.354 48.054 130.618 47.7285 129.635 47.7285C128.645 47.7285 127.906 48.054 127.418 48.7051C126.93 49.3561 126.686 50.209 126.686 51.2637V56.5273ZM145.104 61V48.2949L141.354 49.7793V48.3633L146.217 46.5859H146.559V61H145.104ZM156.51 56.4492V51.332C156.51 49.8411 156.897 48.6628 157.672 47.7969C158.453 46.931 159.537 46.498 160.924 46.498C162.304 46.498 163.385 46.931 164.166 47.7969C164.947 48.6628 165.338 49.8411 165.338 51.332V56.4492C165.338 57.9466 164.947 59.1283 164.166 59.9941C163.385 60.8535 162.304 61.2832 160.924 61.2832C159.537 61.2767 158.453 60.8438 157.672 59.9844C156.897 59.125 156.51 57.9466 156.51 56.4492ZM157.975 56.5273C157.975 57.5885 158.219 58.4414 158.707 59.0859C159.202 59.7305 159.941 60.0527 160.924 60.0527C161.9 60.0527 162.633 59.7305 163.121 59.0859C163.616 58.4414 163.863 57.5885 163.863 56.5273V51.2637C163.863 50.209 163.619 49.3561 163.131 48.7051C162.643 48.054 161.907 47.7285 160.924 47.7285C159.934 47.7285 159.195 48.054 158.707 48.7051C158.219 49.3561 157.975 50.209 157.975 51.2637V56.5273ZM172.154 56.4492V51.332C172.154 49.8411 172.542 48.6628 173.316 47.7969C174.098 46.931 175.182 46.498 176.568 46.498C177.949 46.498 179.029 46.931 179.811 47.7969C180.592 48.6628 180.982 49.8411 180.982 51.332V56.4492C180.982 57.9466 180.592 59.1283 179.811 59.9941C179.029 60.8535 177.949 61.2832 176.568 61.2832C175.182 61.2767 174.098 60.8438 173.316 59.9844C172.542 59.125 172.154 57.9466 172.154 56.4492ZM173.619 56.5273C173.619 57.5885 173.863 58.4414 174.352 59.0859C174.846 59.7305 175.585 60.0527 176.568 60.0527C177.545 60.0527 178.277 59.7305 178.766 59.0859C179.26 58.4414 179.508 57.5885 179.508 56.5273V51.2637C179.508 50.209 179.264 49.3561 178.775 48.7051C178.287 48.054 177.551 47.7285 176.568 47.7285C175.579 47.7285 174.84 48.054 174.352 48.7051C173.863 49.3561 173.619 50.209 173.619 51.2637V56.5273ZM187.799 56.4492V51.332C187.799 49.8411 188.186 48.6628 188.961 47.7969C189.742 46.931 190.826 46.498 192.213 46.498C193.593 46.498 194.674 46.931 195.455 47.7969C196.236 48.6628 196.627 49.8411 196.627 51.332V56.4492C196.627 57.9466 196.236 59.1283 195.455 59.9941C194.674 60.8535 193.593 61.2832 192.213 61.2832C190.826 61.2767 189.742 60.8438 188.961 59.9844C188.186 59.125 187.799 57.9466 187.799 56.4492ZM189.264 56.5273C189.264 57.5885 189.508 58.4414 189.996 59.0859C190.491 59.7305 191.23 60.0527 192.213 60.0527C193.189 60.0527 193.922 59.7305 194.41 59.0859C194.905 58.4414 195.152 57.5885 195.152 56.5273V51.2637C195.152 50.209 194.908 49.3561 194.42 48.7051C193.932 48.054 193.196 47.7285 192.213 47.7285C191.223 47.7285 190.484 48.054 189.996 48.7051C189.508 49.3561 189.264 50.209 189.264 51.2637V56.5273ZM207.682 61V48.2949L203.932 49.7793V48.3633L208.795 46.5859H209.137V61H207.682ZM0.0644531 79.4492V74.332C0.0644531 72.8411 0.451823 71.6628 1.22656 70.7969C2.00781 69.931 3.0918 69.498 4.47852 69.498C5.85872 69.498 6.93945 69.931 7.7207 70.7969C8.50195 71.6628 8.89258 72.8411 8.89258 74.332V79.4492C8.89258 80.9466 8.50195 82.1283 7.7207 82.9941C6.93945 83.8535 5.85872 84.2832 4.47852 84.2832C3.0918 84.2767 2.00781 83.8438 1.22656 82.9844C0.451823 82.125 0.0644531 80.9466 0.0644531 79.4492ZM1.5293 79.5273C1.5293 80.5885 1.77344 81.4414 2.26172 82.0859C2.75651 82.7305 3.49544 83.0527 4.47852 83.0527C5.45508 83.0527 6.1875 82.7305 6.67578 82.0859C7.17057 81.4414 7.41797 80.5885 7.41797 79.5273V74.2637C7.41797 73.209 7.17383 72.3561 6.68555 71.7051C6.19727 71.054 5.46159 70.7285 4.47852 70.7285C3.48893 70.7285 2.75 71.054 2.26172 71.7051C1.77344 72.3561 1.5293 73.209 1.5293 74.2637V79.5273ZM19.9473 84V71.2949L16.1973 72.7793V71.3633L21.0605 69.5859H21.4023V84H19.9473ZM31.3535 79.4492V74.332C31.3535 72.8411 31.7409 71.6628 32.5156 70.7969C33.2969 69.931 34.3809 69.498 35.7676 69.498C37.1478 69.498 38.2285 69.931 39.0098 70.7969C39.791 71.6628 40.1816 72.8411 40.1816 74.332V79.4492C40.1816 80.9466 39.791 82.1283 39.0098 82.9941C38.2285 83.8535 37.1478 84.2832 35.7676 84.2832C34.3809 84.2767 33.2969 83.8438 32.5156 82.9844C31.7409 82.125 31.3535 80.9466 31.3535 79.4492ZM32.8184 79.5273C32.8184 80.5885 33.0625 81.4414 33.5508 82.0859C34.0456 82.7305 34.7845 83.0527 35.7676 83.0527C36.7441 83.0527 37.4766 82.7305 37.9648 82.0859C38.4596 81.4414 38.707 80.5885 38.707 79.5273V74.2637C38.707 73.209 38.4629 72.3561 37.9746 71.7051C37.4863 71.054 36.7507 70.7285 35.7676 70.7285C34.778 70.7285 34.0391 71.054 33.5508 71.7051C33.0625 72.3561 32.8184 73.209 32.8184 74.2637V79.5273ZM46.998 79.4492V74.332C46.998 72.8411 47.3854 71.6628 48.1602 70.7969C48.9414 69.931 50.0254 69.498 51.4121 69.498C52.7923 69.498 53.873 69.931 54.6543 70.7969C55.4355 71.6628 55.8262 72.8411 55.8262 74.332V79.4492C55.8262 80.9466 55.4355 82.1283 54.6543 82.9941C53.873 83.8535 52.7923 84.2832 51.4121 84.2832C50.0254 84.2767 48.9414 83.8438 48.1602 82.9844C47.3854 82.125 46.998 80.9466 46.998 79.4492ZM48.4629 79.5273C48.4629 80.5885 48.707 81.4414 49.1953 82.0859C49.6901 82.7305 50.429 83.0527 51.4121 83.0527C52.3887 83.0527 53.1211 82.7305 53.6094 82.0859C54.1042 81.4414 54.3516 80.5885 54.3516 79.5273V74.2637C54.3516 73.209 54.1074 72.3561 53.6191 71.7051C53.1309 71.054 52.3952 70.7285 51.4121 70.7285C50.4225 70.7285 49.6836 71.054 49.1953 71.7051C48.707 72.3561 48.4629 73.209 48.4629 74.2637V79.5273ZM66.8809 84V71.2949L63.1309 72.7793V71.3633L67.9941 69.5859H68.3359V84H66.8809ZM78.2871 79.4492V74.332C78.2871 72.8411 78.6745 71.6628 79.4492 70.7969C80.2305 69.931 81.3145 69.498 82.7012 69.498C84.0814 69.498 85.1621 69.931 85.9434 70.7969C86.7246 71.6628 87.1152 72.8411 87.1152 74.332V79.4492C87.1152 80.9466 86.7246 82.1283 85.9434 82.9941C85.1621 83.8535 84.0814 84.2832 82.7012 84.2832C81.3145 84.2767 80.2305 83.8438 79.4492 82.9844C78.6745 82.125 78.2871 80.9466 78.2871 79.4492ZM79.752 79.5273C79.752 80.5885 79.9961 81.4414 80.4844 82.0859C80.9792 82.7305 81.7181 83.0527 82.7012 83.0527C83.6777 83.0527 84.4102 82.7305 84.8984 82.0859C85.3932 81.4414 85.6406 80.5885 85.6406 79.5273V74.2637C85.6406 73.209 85.3965 72.3561 84.9082 71.7051C84.4199 71.054 83.6842 70.7285 82.7012 70.7285C81.7116 70.7285 80.9727 71.054 80.4844 71.7051C79.9961 72.3561 79.752 73.209 79.752 74.2637V79.5273ZM98.1699 84V71.2949L94.4199 72.7793V71.3633L99.2832 69.5859H99.625V84H98.1699ZM109.576 79.4492V74.332C109.576 72.8411 109.964 71.6628 110.738 70.7969C111.52 69.931 112.604 69.498 113.99 69.498C115.37 69.498 116.451 69.931 117.232 70.7969C118.014 71.6628 118.404 72.8411 118.404 74.332V79.4492C118.404 80.9466 118.014 82.1283 117.232 82.9941C116.451 83.8535 115.37 84.2832 113.99 84.2832C112.604 84.2767 111.52 83.8438 110.738 82.9844C109.964 82.125 109.576 80.9466 109.576 79.4492ZM111.041 79.5273C111.041 80.5885 111.285 81.4414 111.773 82.0859C112.268 82.7305 113.007 83.0527 113.99 83.0527C114.967 83.0527 115.699 82.7305 116.188 82.0859C116.682 81.4414 116.93 80.5885 116.93 79.5273V74.2637C116.93 73.209 116.686 72.3561 116.197 71.7051C115.709 71.054 114.973 70.7285 113.99 70.7285C113.001 70.7285 112.262 71.054 111.773 71.7051C111.285 72.3561 111.041 73.209 111.041 74.2637V79.5273ZM129.459 84V71.2949L125.709 72.7793V71.3633L130.572 69.5859H130.914V84H129.459ZM140.865 79.4492V74.332C140.865 72.8411 141.253 71.6628 142.027 70.7969C142.809 69.931 143.893 69.498 145.279 69.498C146.66 69.498 147.74 69.931 148.521 70.7969C149.303 71.6628 149.693 72.8411 149.693 74.332V79.4492C149.693 80.9466 149.303 82.1283 148.521 82.9941C147.74 83.8535 146.66 84.2832 145.279 84.2832C143.893 84.2767 142.809 83.8438 142.027 82.9844C141.253 82.125 140.865 80.9466 140.865 79.4492ZM142.33 79.5273C142.33 80.5885 142.574 81.4414 143.062 82.0859C143.557 82.7305 144.296 83.0527 145.279 83.0527C146.256 83.0527 146.988 82.7305 147.477 82.0859C147.971 81.4414 148.219 80.5885 148.219 79.5273V74.2637C148.219 73.209 147.975 72.3561 147.486 71.7051C146.998 71.054 146.262 70.7285 145.279 70.7285C144.29 70.7285 143.551 71.054 143.062 71.7051C142.574 72.3561 142.33 73.209 142.33 74.2637V79.5273ZM156.51 79.4492V74.332C156.51 72.8411 156.897 71.6628 157.672 70.7969C158.453 69.931 159.537 69.498 160.924 69.498C162.304 69.498 163.385 69.931 164.166 70.7969C164.947 71.6628 165.338 72.8411 165.338 74.332V79.4492C165.338 80.9466 164.947 82.1283 164.166 82.9941C163.385 83.8535 162.304 84.2832 160.924 84.2832C159.537 84.2767 158.453 83.8438 157.672 82.9844C156.897 82.125 156.51 80.9466 156.51 79.4492ZM157.975 79.5273C157.975 80.5885 158.219 81.4414 158.707 82.0859C159.202 82.7305 159.941 83.0527 160.924 83.0527C161.9 83.0527 162.633 82.7305 163.121 82.0859C163.616 81.4414 163.863 80.5885 163.863 79.5273V74.2637C163.863 73.209 163.619 72.3561 163.131 71.7051C162.643 71.054 161.907 70.7285 160.924 70.7285C159.934 70.7285 159.195 71.054 158.707 71.7051C158.219 72.3561 157.975 73.209 157.975 74.2637V79.5273ZM176.393 84V71.2949L172.643 72.7793V71.3633L177.506 69.5859H177.848V84H176.393ZM187.799 79.4492V74.332C187.799 72.8411 188.186 71.6628 188.961 70.7969C189.742 69.931 190.826 69.498 192.213 69.498C193.593 69.498 194.674 69.931 195.455 70.7969C196.236 71.6628 196.627 72.8411 196.627 74.332V79.4492C196.627 80.9466 196.236 82.1283 195.455 82.9941C194.674 83.8535 193.593 84.2832 192.213 84.2832C190.826 84.2767 189.742 83.8438 188.961 82.9844C188.186 82.125 187.799 80.9466 187.799 79.4492ZM189.264 79.5273C189.264 80.5885 189.508 81.4414 189.996 82.0859C190.491 82.7305 191.23 83.0527 192.213 83.0527C193.189 83.0527 193.922 82.7305 194.41 82.0859C194.905 81.4414 195.152 80.5885 195.152 79.5273V74.2637C195.152 73.209 194.908 72.3561 194.42 71.7051C193.932 71.054 193.196 70.7285 192.213 70.7285C191.223 70.7285 190.484 71.054 189.996 71.7051C189.508 72.3561 189.264 73.209 189.264 74.2637V79.5273ZM207.682 84V71.2949L203.932 72.7793V71.3633L208.795 69.5859H209.137V84H207.682ZM4.30273 107V94.2949L0.552734 95.7793V94.3633L5.41602 92.5859H5.75781V107H4.30273ZM15.709 102.449V97.332C15.709 95.8411 16.0964 94.6628 16.8711 93.7969C17.6523 92.931 18.7363 92.498 20.123 92.498C21.5033 92.498 22.584 92.931 23.3652 93.7969C24.1465 94.6628 24.5371 95.8411 24.5371 97.332V102.449C24.5371 103.947 24.1465 105.128 23.3652 105.994C22.584 106.854 21.5033 107.283 20.123 107.283C18.7363 107.277 17.6523 106.844 16.8711 105.984C16.0964 105.125 15.709 103.947 15.709 102.449ZM17.1738 102.527C17.1738 103.589 17.418 104.441 17.9062 105.086C18.401 105.73 19.14 106.053 20.123 106.053C21.0996 106.053 21.832 105.73 22.3203 105.086C22.8151 104.441 23.0625 103.589 23.0625 102.527V97.2637C23.0625 96.209 22.8184 95.3561 22.3301 94.7051C21.8418 94.054 21.1061 93.7285 20.123 93.7285C19.1335 93.7285 18.3945 94.054 17.9062 94.7051C17.418 95.3561 17.1738 96.209 17.1738 97.2637V102.527ZM35.5918 107V94.2949L31.8418 95.7793V94.3633L36.7051 92.5859H37.0469V107H35.5918ZM46.998 102.449V97.332C46.998 95.8411 47.3854 94.6628 48.1602 93.7969C48.9414 92.931 50.0254 92.498 51.4121 92.498C52.7923 92.498 53.873 92.931 54.6543 93.7969C55.4355 94.6628 55.8262 95.8411 55.8262 97.332V102.449C55.8262 103.947 55.4355 105.128 54.6543 105.994C53.873 106.854 52.7923 107.283 51.4121 107.283C50.0254 107.277 48.9414 106.844 48.1602 105.984C47.3854 105.125 46.998 103.947 46.998 102.449ZM48.4629 102.527C48.4629 103.589 48.707 104.441 49.1953 105.086C49.6901 105.73 50.429 106.053 51.4121 106.053C52.3887 106.053 53.1211 105.73 53.6094 105.086C54.1042 104.441 54.3516 103.589 54.3516 102.527V97.2637C54.3516 96.209 54.1074 95.3561 53.6191 94.7051C53.1309 94.054 52.3952 93.7285 51.4121 93.7285C50.4225 93.7285 49.6836 94.054 49.1953 94.7051C48.707 95.3561 48.4629 96.209 48.4629 97.2637V102.527ZM62.6426 102.449V97.332C62.6426 95.8411 63.0299 94.6628 63.8047 93.7969C64.5859 92.931 65.6699 92.498 67.0566 92.498C68.4368 92.498 69.5176 92.931 70.2988 93.7969C71.0801 94.6628 71.4707 95.8411 71.4707 97.332V102.449C71.4707 103.947 71.0801 105.128 70.2988 105.994C69.5176 106.854 68.4368 107.283 67.0566 107.283C65.6699 107.277 64.5859 106.844 63.8047 105.984C63.0299 105.125 62.6426 103.947 62.6426 102.449ZM64.1074 102.527C64.1074 103.589 64.3516 104.441 64.8398 105.086C65.3346 105.73 66.0736 106.053 67.0566 106.053C68.0332 106.053 68.7656 105.73 69.2539 105.086C69.7487 104.441 69.9961 103.589 69.9961 102.527V97.2637C69.9961 96.209 69.752 95.3561 69.2637 94.7051C68.7754 94.054 68.0397 93.7285 67.0566 93.7285C66.0671 93.7285 65.3281 94.054 64.8398 94.7051C64.3516 95.3561 64.1074 96.209 64.1074 97.2637V102.527ZM78.2871 102.449V97.332C78.2871 95.8411 78.6745 94.6628 79.4492 93.7969C80.2305 92.931 81.3145 92.498 82.7012 92.498C84.0814 92.498 85.1621 92.931 85.9434 93.7969C86.7246 94.6628 87.1152 95.8411 87.1152 97.332V102.449C87.1152 103.947 86.7246 105.128 85.9434 105.994C85.1621 106.854 84.0814 107.283 82.7012 107.283C81.3145 107.277 80.2305 106.844 79.4492 105.984C78.6745 105.125 78.2871 103.947 78.2871 102.449ZM79.752 102.527C79.752 103.589 79.9961 104.441 80.4844 105.086C80.9792 105.73 81.7181 106.053 82.7012 106.053C83.6777 106.053 84.4102 105.73 84.8984 105.086C85.3932 104.441 85.6406 103.589 85.6406 102.527V97.2637C85.6406 96.209 85.3965 95.3561 84.9082 94.7051C84.4199 94.054 83.6842 93.7285 82.7012 93.7285C81.7116 93.7285 80.9727 94.054 80.4844 94.7051C79.9961 95.3561 79.752 96.209 79.752 97.2637V102.527ZM98.1699 107V94.2949L94.4199 95.7793V94.3633L99.2832 92.5859H99.625V107H98.1699ZM113.814 107V94.2949L110.064 95.7793V94.3633L114.928 92.5859H115.27V107H113.814ZM125.221 102.449V97.332C125.221 95.8411 125.608 94.6628 126.383 93.7969C127.164 92.931 128.248 92.498 129.635 92.498C131.015 92.498 132.096 92.931 132.877 93.7969C133.658 94.6628 134.049 95.8411 134.049 97.332V102.449C134.049 103.947 133.658 105.128 132.877 105.994C132.096 106.854 131.015 107.283 129.635 107.283C128.248 107.277 127.164 106.844 126.383 105.984C125.608 105.125 125.221 103.947 125.221 102.449ZM126.686 102.527C126.686 103.589 126.93 104.441 127.418 105.086C127.913 105.73 128.652 106.053 129.635 106.053C130.611 106.053 131.344 105.73 131.832 105.086C132.327 104.441 132.574 103.589 132.574 102.527V97.2637C132.574 96.209 132.33 95.3561 131.842 94.7051C131.354 94.054 130.618 93.7285 129.635 93.7285C128.645 93.7285 127.906 94.054 127.418 94.7051C126.93 95.3561 126.686 96.209 126.686 97.2637V102.527ZM145.104 107V94.2949L141.354 95.7793V94.3633L146.217 92.5859H146.559V107H145.104ZM156.51 102.449V97.332C156.51 95.8411 156.897 94.6628 157.672 93.7969C158.453 92.931 159.537 92.498 160.924 92.498C162.304 92.498 163.385 92.931 164.166 93.7969C164.947 94.6628 165.338 95.8411 165.338 97.332V102.449C165.338 103.947 164.947 105.128 164.166 105.994C163.385 106.854 162.304 107.283 160.924 107.283C159.537 107.277 158.453 106.844 157.672 105.984C156.897 105.125 156.51 103.947 156.51 102.449ZM157.975 102.527C157.975 103.589 158.219 104.441 158.707 105.086C159.202 105.73 159.941 106.053 160.924 106.053C161.9 106.053 162.633 105.73 163.121 105.086C163.616 104.441 163.863 103.589 163.863 102.527V97.2637C163.863 96.209 163.619 95.3561 163.131 94.7051C162.643 94.054 161.907 93.7285 160.924 93.7285C159.934 93.7285 159.195 94.054 158.707 94.7051C158.219 95.3561 157.975 96.209 157.975 97.2637V102.527ZM172.154 102.449V97.332C172.154 95.8411 172.542 94.6628 173.316 93.7969C174.098 92.931 175.182 92.498 176.568 92.498C177.949 92.498 179.029 92.931 179.811 93.7969C180.592 94.6628 180.982 95.8411 180.982 97.332V102.449C180.982 103.947 180.592 105.128 179.811 105.994C179.029 106.854 177.949 107.283 176.568 107.283C175.182 107.277 174.098 106.844 173.316 105.984C172.542 105.125 172.154 103.947 172.154 102.449ZM173.619 102.527C173.619 103.589 173.863 104.441 174.352 105.086C174.846 105.73 175.585 106.053 176.568 106.053C177.545 106.053 178.277 105.73 178.766 105.086C179.26 104.441 179.508 103.589 179.508 102.527V97.2637C179.508 96.209 179.264 95.3561 178.775 94.7051C178.287 94.054 177.551 93.7285 176.568 93.7285C175.579 93.7285 174.84 94.054 174.352 94.7051C173.863 95.3561 173.619 96.209 173.619 97.2637V102.527ZM187.799 102.449V97.332C187.799 95.8411 188.186 94.6628 188.961 93.7969C189.742 92.931 190.826 92.498 192.213 92.498C193.593 92.498 194.674 92.931 195.455 93.7969C196.236 94.6628 196.627 95.8411 196.627 97.332V102.449C196.627 103.947 196.236 105.128 195.455 105.994C194.674 106.854 193.593 107.283 192.213 107.283C190.826 107.277 189.742 106.844 188.961 105.984C188.186 105.125 187.799 103.947 187.799 102.449ZM189.264 102.527C189.264 103.589 189.508 104.441 189.996 105.086C190.491 105.73 191.23 106.053 192.213 106.053C193.189 106.053 193.922 105.73 194.41 105.086C194.905 104.441 195.152 103.589 195.152 102.527V97.2637C195.152 96.209 194.908 95.3561 194.42 94.7051C193.932 94.054 193.196 93.7285 192.213 93.7285C191.223 93.7285 190.484 94.054 189.996 94.7051C189.508 95.3561 189.264 96.209 189.264 97.2637V102.527ZM207.682 107V94.2949L203.932 95.7793V94.3633L208.795 92.5859H209.137V107H207.682ZM0.0644531 125.449V120.332C0.0644531 118.841 0.451823 117.663 1.22656 116.797C2.00781 115.931 3.0918 115.498 4.47852 115.498C5.85872 115.498 6.93945 115.931 7.7207 116.797C8.50195 117.663 8.89258 118.841 8.89258 120.332V125.449C8.89258 126.947 8.50195 128.128 7.7207 128.994C6.93945 129.854 5.85872 130.283 4.47852 130.283C3.0918 130.277 2.00781 129.844 1.22656 128.984C0.451823 128.125 0.0644531 126.947 0.0644531 125.449ZM1.5293 125.527C1.5293 126.589 1.77344 127.441 2.26172 128.086C2.75651 128.73 3.49544 129.053 4.47852 129.053C5.45508 129.053 6.1875 128.73 6.67578 128.086C7.17057 127.441 7.41797 126.589 7.41797 125.527V120.264C7.41797 119.209 7.17383 118.356 6.68555 117.705C6.19727 117.054 5.46159 116.729 4.47852 116.729C3.48893 116.729 2.75 117.054 2.26172 117.705C1.77344 118.356 1.5293 119.209 1.5293 120.264V125.527ZM19.9473 130V117.295L16.1973 118.779V117.363L21.0605 115.586H21.4023V130H19.9473ZM31.3535 125.449V120.332C31.3535 118.841 31.7409 117.663 32.5156 116.797C33.2969 115.931 34.3809 115.498 35.7676 115.498C37.1478 115.498 38.2285 115.931 39.0098 116.797C39.791 117.663 40.1816 118.841 40.1816 120.332V125.449C40.1816 126.947 39.791 128.128 39.0098 128.994C38.2285 129.854 37.1478 130.283 35.7676 130.283C34.3809 130.277 33.2969 129.844 32.5156 128.984C31.7409 128.125 31.3535 126.947 31.3535 125.449ZM32.8184 125.527C32.8184 126.589 33.0625 127.441 33.5508 128.086C34.0456 128.73 34.7845 129.053 35.7676 129.053C36.7441 129.053 37.4766 128.73 37.9648 128.086C38.4596 127.441 38.707 126.589 38.707 125.527V120.264C38.707 119.209 38.4629 118.356 37.9746 117.705C37.4863 117.054 36.7507 116.729 35.7676 116.729C34.778 116.729 34.0391 117.054 33.5508 117.705C33.0625 118.356 32.8184 119.209 32.8184 120.264V125.527ZM46.998 125.449V120.332C46.998 118.841 47.3854 117.663 48.1602 116.797C48.9414 115.931 50.0254 115.498 51.4121 115.498C52.7923 115.498 53.873 115.931 54.6543 116.797C55.4355 117.663 55.8262 118.841 55.8262 120.332V125.449C55.8262 126.947 55.4355 128.128 54.6543 128.994C53.873 129.854 52.7923 130.283 51.4121 130.283C50.0254 130.277 48.9414 129.844 48.1602 128.984C47.3854 128.125 46.998 126.947 46.998 125.449ZM48.4629 125.527C48.4629 126.589 48.707 127.441 49.1953 128.086C49.6901 128.73 50.429 129.053 51.4121 129.053C52.3887 129.053 53.1211 128.73 53.6094 128.086C54.1042 127.441 54.3516 126.589 54.3516 125.527V120.264C54.3516 119.209 54.1074 118.356 53.6191 117.705C53.1309 117.054 52.3952 116.729 51.4121 116.729C50.4225 116.729 49.6836 117.054 49.1953 117.705C48.707 118.356 48.4629 119.209 48.4629 120.264V125.527ZM66.8809 130V117.295L63.1309 118.779V117.363L67.9941 115.586H68.3359V130H66.8809ZM78.2871 125.449V120.332C78.2871 118.841 78.6745 117.663 79.4492 116.797C80.2305 115.931 81.3145 115.498 82.7012 115.498C84.0814 115.498 85.1621 115.931 85.9434 116.797C86.7246 117.663 87.1152 118.841 87.1152 120.332V125.449C87.1152 126.947 86.7246 128.128 85.9434 128.994C85.1621 129.854 84.0814 130.283 82.7012 130.283C81.3145 130.277 80.2305 129.844 79.4492 128.984C78.6745 128.125 78.2871 126.947 78.2871 125.449ZM79.752 125.527C79.752 126.589 79.9961 127.441 80.4844 128.086C80.9792 128.73 81.7181 129.053 82.7012 129.053C83.6777 129.053 84.4102 128.73 84.8984 128.086C85.3932 127.441 85.6406 126.589 85.6406 125.527V120.264C85.6406 119.209 85.3965 118.356 84.9082 117.705C84.4199 117.054 83.6842 116.729 82.7012 116.729C81.7116 116.729 80.9727 117.054 80.4844 117.705C79.9961 118.356 79.752 119.209 79.752 120.264V125.527ZM98.1699 130V117.295L94.4199 118.779V117.363L99.2832 115.586H99.625V130H98.1699ZM109.576 125.449V120.332C109.576 118.841 109.964 117.663 110.738 116.797C111.52 115.931 112.604 115.498 113.99 115.498C115.37 115.498 116.451 115.931 117.232 116.797C118.014 117.663 118.404 118.841 118.404 120.332V125.449C118.404 126.947 118.014 128.128 117.232 128.994C116.451 129.854 115.37 130.283 113.99 130.283C112.604 130.277 111.52 129.844 110.738 128.984C109.964 128.125 109.576 126.947 109.576 125.449ZM111.041 125.527C111.041 126.589 111.285 127.441 111.773 128.086C112.268 128.73 113.007 129.053 113.99 129.053C114.967 129.053 115.699 128.73 116.188 128.086C116.682 127.441 116.93 126.589 116.93 125.527V120.264C116.93 119.209 116.686 118.356 116.197 117.705C115.709 117.054 114.973 116.729 113.99 116.729C113.001 116.729 112.262 117.054 111.773 117.705C111.285 118.356 111.041 119.209 111.041 120.264V125.527ZM129.459 130V117.295L125.709 118.779V117.363L130.572 115.586H130.914V130H129.459ZM140.865 125.449V120.332C140.865 118.841 141.253 117.663 142.027 116.797C142.809 115.931 143.893 115.498 145.279 115.498C146.66 115.498 147.74 115.931 148.521 116.797C149.303 117.663 149.693 118.841 149.693 120.332V125.449C149.693 126.947 149.303 128.128 148.521 128.994C147.74 129.854 146.66 130.283 145.279 130.283C143.893 130.277 142.809 129.844 142.027 128.984C141.253 128.125 140.865 126.947 140.865 125.449ZM142.33 125.527C142.33 126.589 142.574 127.441 143.062 128.086C143.557 128.73 144.296 129.053 145.279 129.053C146.256 129.053 146.988 128.73 147.477 128.086C147.971 127.441 148.219 126.589 148.219 125.527V120.264C148.219 119.209 147.975 118.356 147.486 117.705C146.998 117.054 146.262 116.729 145.279 116.729C144.29 116.729 143.551 117.054 143.062 117.705C142.574 118.356 142.33 119.209 142.33 120.264V125.527ZM156.51 125.449V120.332C156.51 118.841 156.897 117.663 157.672 116.797C158.453 115.931 159.537 115.498 160.924 115.498C162.304 115.498 163.385 115.931 164.166 116.797C164.947 117.663 165.338 118.841 165.338 120.332V125.449C165.338 126.947 164.947 128.128 164.166 128.994C163.385 129.854 162.304 130.283 160.924 130.283C159.537 130.277 158.453 129.844 157.672 128.984C156.897 128.125 156.51 126.947 156.51 125.449ZM157.975 125.527C157.975 126.589 158.219 127.441 158.707 128.086C159.202 128.73 159.941 129.053 160.924 129.053C161.9 129.053 162.633 128.73 163.121 128.086C163.616 127.441 163.863 126.589 163.863 125.527V120.264C163.863 119.209 163.619 118.356 163.131 117.705C162.643 117.054 161.907 116.729 160.924 116.729C159.934 116.729 159.195 117.054 158.707 117.705C158.219 118.356 157.975 119.209 157.975 120.264V125.527ZM176.393 130V117.295L172.643 118.779V117.363L177.506 115.586H177.848V130H176.393ZM187.799 125.449V120.332C187.799 118.841 188.186 117.663 188.961 116.797C189.742 115.931 190.826 115.498 192.213 115.498C193.593 115.498 194.674 115.931 195.455 116.797C196.236 117.663 196.627 118.841 196.627 120.332V125.449C196.627 126.947 196.236 128.128 195.455 128.994C194.674 129.854 193.593 130.283 192.213 130.283C190.826 130.277 189.742 129.844 188.961 128.984C188.186 128.125 187.799 126.947 187.799 125.449ZM189.264 125.527C189.264 126.589 189.508 127.441 189.996 128.086C190.491 128.73 191.23 129.053 192.213 129.053C193.189 129.053 193.922 128.73 194.41 128.086C194.905 127.441 195.152 126.589 195.152 125.527V120.264C195.152 119.209 194.908 118.356 194.42 117.705C193.932 117.054 193.196 116.729 192.213 116.729C191.223 116.729 190.484 117.054 189.996 117.705C189.508 118.356 189.264 119.209 189.264 120.264V125.527ZM207.682 130V117.295L203.932 118.779V117.363L208.795 115.586H209.137V130H207.682Z" fill="url(#paint0_linear_380_2079)"/>
<defs>
<linearGradient id="paint0_linear_380_2079" x1="214" y1="153" x2="131.875" y2="-36.1589" gradientUnits="userSpaceOnUse">
<stop stop-color="#34217E"/>
<stop offset="0.0001" stop-color="#4B33AB"/>
<stop offset="1" stop-color="#291770"/>
</linearGradient>
</defs>
</svg>
