<svg width="80" height="80" viewBox="0 0 80 80" fill="none" xmlns="http://www.w3.org/2000/svg">
<path fill-rule="evenodd" clip-rule="evenodd" d="M40 66.6666C54.7276 66.6666 66.6666 54.7275 66.6666 39.9999C66.6666 39.6012 66.6579 39.2046 66.6406 38.8102C67.5837 37.967 68.4602 37.1305 69.27 36.304C71.7833 33.7373 73.7433 31.1707 74.8433 28.744C75.9233 26.3573 76.37 23.5973 74.8833 21.2173C73.4833 18.984 70.9333 18.0173 68.3633 17.6707C65.73 17.314 62.53 17.534 59.04 18.1773L56.0825 18.7269C51.6116 15.3416 46.0403 13.3333 40 13.3333C33.3123 13.3333 27.1997 15.795 22.5188 19.8618C21.5308 20.7195 20.6066 21.6492 19.7542 22.6435C16.0326 26.9806 13.6806 32.5273 13.3687 38.6129C13.3298 39.3607 13.3223 40.1117 13.3467 40.864L11.59 42.8407C8.78999 45.564 6.59999 48.294 5.34999 50.8507C4.12999 53.3507 3.54999 56.274 5.11666 58.784C6.55999 61.0873 9.22333 62.0473 11.89 62.364C14.64 62.6907 17.9833 62.4173 21.6333 61.694C22.35 61.5507 23.0867 61.3907 23.8333 61.2107C22.6735 60.3247 21.5888 59.3462 20.5895 58.2851C25.4523 63.4453 32.3499 66.6666 40 66.6666ZM65.6871 32.8136L65.6967 32.804C68.01 30.4473 69.53 28.3573 70.2867 26.684C71.0633 24.9707 70.8433 24.1873 70.6433 23.8707C70.41 23.4973 69.68 22.8907 67.7 22.624C65.9037 22.3841 63.4876 22.4873 60.5383 22.9904C62.8918 25.8289 64.668 29.1633 65.6871 32.8136ZM18.6466 55.9758C18.9102 56.3276 19.1824 56.6727 19.4627 57.0108C16.6196 57.4974 14.2632 57.6107 12.48 57.3973C10.3733 57.1473 9.59666 56.5173 9.35666 56.1307C9.14666 55.7973 8.91666 54.9373 9.83999 53.0473C10.6433 51.4007 12.1333 49.4074 14.3132 47.1875C14.9776 49.567 15.9638 51.8123 17.2219 53.8735C17.6624 54.5956 18.1378 55.2972 18.6466 55.9758Z" fill="#F0BB00"/>
<path d="M39.0801 28.8379L39.1211 32.6758L38.0078 33.2324L36.8945 33.7891V32.9102V32.0312H35.9863H35.0781V33.3672V34.6973L33.9355 35.2715C33.3086 35.582 32.7812 35.8398 32.7637 35.8398C32.7461 35.8398 32.7344 35.418 32.7344 34.9023V33.9648H31.8262H30.918V34.9316V35.8984H29.7461H28.5742V34.9316V33.9648H27.6953H26.8164V34.9316V35.8984H25.9082H25V36.8066V37.7148H25.9082H26.8164V45.4785V53.2422H25.9082H25V54.1211V55H40H55V54.1211V53.2422H54.0918H53.1836V45.4785V37.7148H54.0918H55V36.8066V35.8984H54.0918H53.1836V34.9316V33.9648H52.3047H51.4258V34.9316V35.8984H50.2539H49.082V34.9316V33.9648H48.1738H47.2656V34.9023C47.2656 35.418 47.2539 35.8398 47.2363 35.8398C47.2188 35.8398 46.6914 35.582 46.0645 35.2715L44.9219 34.6973V33.3672V32.0312H44.0137H43.1055V32.9102V33.7891L41.9922 33.2324L40.8789 32.6758V31.4746V30.2734H43.5156H46.1523V27.6367V25H42.5957H39.0449L39.0801 28.8379ZM32.6758 42.3438V45.2148H31.8262H30.9766V42.3438V39.4727H31.8262H32.6758V42.3438ZM36.7773 41.4648V43.457H35.9277H35.0781V41.4648V39.4727H35.9277H36.7773V41.4648ZM40.8789 41.4648V43.457H40H39.1211V41.4648V39.4727H40H40.8789V41.4648ZM44.9219 41.4648V43.457H44.0723H43.2227V41.4648V39.4727H44.0723H44.9219V41.4648ZM49.0234 42.3438V45.2148H48.1738H47.3242V42.3438V39.4727H48.1738H49.0234V42.3438ZM41.084 45.5078C41.6172 45.7656 42.0801 46.2285 42.3496 46.7676L42.5488 47.1777L42.5664 50.207L42.584 53.2422H41.7285H40.8789V50.3711V47.4941L40.6504 47.248C40.4219 47.002 40.416 47.002 40.0059 47.002C39.6074 47.002 39.584 47.0078 39.3789 47.2129C39.2324 47.3594 39.1504 47.5059 39.1152 47.6816C39.0918 47.8223 39.0684 49.1348 39.0625 50.5879V53.2422H38.2129H37.3633V50.6172C37.3633 49.1758 37.3926 47.7988 37.4219 47.5586C37.5508 46.5625 38.2129 45.748 39.1855 45.3848C39.4434 45.291 39.6133 45.2734 40.0879 45.291C40.6152 45.3086 40.7148 45.3262 41.084 45.5078ZM34.0527 47.2656C34.873 47.6582 35.4297 48.4258 35.5469 49.3223C35.5762 49.5566 35.6055 50.541 35.6055 51.4961V53.2422H34.7266H33.8477V51.25V49.252L33.6191 49.0059C33.3906 48.7598 33.3848 48.7598 32.9688 48.7598C32.5527 48.7598 32.5469 48.7598 32.3184 49.0059L32.0898 49.252V51.25V53.2422H31.2109H30.332V51.4961C30.332 50.541 30.3613 49.5566 30.3906 49.3164C30.5195 48.3203 31.1816 47.5059 32.1543 47.1426C32.4121 47.0488 32.582 47.0312 33.0566 47.0488C33.584 47.0664 33.6836 47.084 34.0527 47.2656ZM48.1152 47.2656C48.6484 47.5234 49.1113 47.9863 49.3809 48.5254L49.5801 48.9355L49.5977 51.0859L49.6152 53.2422H48.7598H47.9102V51.25V49.252L47.6816 49.0059C47.4531 48.7598 47.4473 48.7598 47.0371 48.7598C46.6387 48.7598 46.6152 48.7656 46.4102 48.9707C46.2637 49.1172 46.1816 49.2637 46.1465 49.4395C46.123 49.5801 46.0996 50.4941 46.0938 51.4668V53.2422H45.2441H44.3945V51.4961C44.3945 50.541 44.4238 49.5566 44.4531 49.3164C44.582 48.3203 45.2441 47.5059 46.2168 47.1426C46.4746 47.0488 46.6445 47.0312 47.1191 47.0488C47.6465 47.0664 47.7461 47.084 48.1152 47.2656Z" fill="#170A4A"/>
</svg>
