<svg width="80" height="80" viewBox="0 0 80 80" fill="none" xmlns="http://www.w3.org/2000/svg">
<path fill-rule="evenodd" clip-rule="evenodd" d="M40 66.6666C54.7276 66.6666 66.6666 54.7275 66.6666 39.9999C66.6666 39.6012 66.6579 39.2046 66.6406 38.8102C67.5837 37.967 68.4602 37.1305 69.27 36.304C71.7833 33.7373 73.7433 31.1707 74.8433 28.744C75.9233 26.3573 76.37 23.5973 74.8833 21.2173C73.4833 18.984 70.9333 18.0173 68.3633 17.6707C65.73 17.314 62.53 17.534 59.04 18.1773L56.0825 18.7269C51.6116 15.3416 46.0403 13.3333 40 13.3333C33.3123 13.3333 27.1997 15.795 22.5188 19.8618C21.5308 20.7195 20.6066 21.6492 19.7542 22.6435C16.0326 26.9806 13.6806 32.5273 13.3687 38.6129C13.3298 39.3607 13.3223 40.1117 13.3467 40.864L11.59 42.8407C8.78999 45.564 6.59999 48.294 5.34999 50.8507C4.12999 53.3507 3.54999 56.274 5.11666 58.784C6.55999 61.0873 9.22333 62.0473 11.89 62.364C14.64 62.6907 17.9833 62.4173 21.6333 61.694C22.35 61.5507 23.0867 61.3907 23.8333 61.2107C22.6735 60.3247 21.5888 59.3462 20.5895 58.2851C25.4523 63.4453 32.3499 66.6666 40 66.6666ZM65.6871 32.8136L65.6967 32.804C68.01 30.4473 69.53 28.3573 70.2867 26.684C71.0633 24.9707 70.8433 24.1873 70.6433 23.8707C70.41 23.4973 69.68 22.8907 67.7 22.624C65.9037 22.3841 63.4876 22.4873 60.5383 22.9904C62.8918 25.8289 64.668 29.1633 65.6871 32.8136ZM18.6466 55.9758C18.9102 56.3276 19.1824 56.6727 19.4627 57.0108C16.6196 57.4974 14.2632 57.6107 12.48 57.3973C10.3733 57.1473 9.59666 56.5173 9.35666 56.1307C9.14666 55.7973 8.91666 54.9373 9.83999 53.0473C10.6433 51.4007 12.1333 49.4074 14.3132 47.1875C14.9776 49.567 15.9638 51.8123 17.2219 53.8735C17.6624 54.5956 18.1378 55.2972 18.6466 55.9758Z" fill="#F0BB00"/>
<path d="M39.5078 23.1116C39.1562 23.3459 39.1211 23.4631 39.1211 24.512V25.4612L37.0058 29.6858C35.8457 32.012 34.9023 33.928 34.914 33.9456C34.9258 33.969 35.3359 34.3792 35.8281 34.8655L36.7187 35.7385L37.6152 34.8538C38.3535 34.1155 38.5762 33.9338 38.8926 33.7815C39.6484 33.4299 40.3515 33.4299 41.1074 33.7815C41.4238 33.9338 41.6465 34.1155 42.3848 34.8538L43.2812 35.7385L44.1719 34.8655C44.664 34.3792 45.0742 33.969 45.0859 33.9456C45.0976 33.928 44.1543 32.012 42.9941 29.6858L40.8789 25.4612V24.512C40.8789 23.6741 40.8672 23.5334 40.7676 23.387C40.5859 23.1174 40.3633 23.0002 40 23.0002C39.7832 23.0002 39.625 23.0354 39.5078 23.1116Z" fill="#170A4A"/>
<path d="M33.1211 35.2461C32.8984 35.3164 32.6816 35.5215 32.582 35.7559C32.5117 35.9141 32.5 37.3262 32.5 44.1348C32.5 51.8164 32.5059 52.3379 32.6055 52.5312C32.6582 52.6426 32.793 52.7949 32.9043 52.8652L33.1035 53H40H46.8965L47.0957 52.8652C47.207 52.7949 47.3418 52.6426 47.3945 52.5312C47.4941 52.3379 47.5 51.8164 47.5 44.1406C47.5 38.498 47.4824 35.9082 47.4355 35.791C47.2773 35.3691 46.8379 35.1406 46.3809 35.2402C46.1582 35.293 45.9707 35.4629 44.7227 36.7051L43.3105 38.1172L41.9043 36.7168C39.8887 34.707 40.1172 34.707 38.0957 36.7168L36.6895 38.1172L35.3125 36.7344C34.5566 35.9785 33.8945 35.334 33.8477 35.3105C33.6953 35.2285 33.2969 35.1934 33.1211 35.2461ZM40.8203 41.9609C41.8457 42.2012 42.8066 42.9688 43.2754 43.9238C43.7969 44.9844 43.7969 46.0801 43.2754 47.1406C42.9766 47.75 42.3438 48.4121 41.752 48.7402C40.9727 49.1738 39.9766 49.3027 39.0977 49.0742C38.4355 48.9043 37.9902 48.6465 37.4453 48.1074C37.0703 47.7383 36.918 47.5332 36.7246 47.1406C36.2031 46.0801 36.2031 44.9844 36.7246 43.9238C37.1875 42.9805 38.1484 42.207 39.1504 41.9609C39.6191 41.8496 40.3516 41.8496 40.8203 41.9609Z" fill="#170A4A"/>
<path d="M25.4687 44.7266C25.3574 44.7793 25.2051 44.9141 25.1348 45.0254L25 45.2246V48.834C25 52.2734 25.0059 52.4492 25.1113 52.6133C25.1699 52.7012 25.2988 52.8301 25.3867 52.8887C25.5449 52.9941 25.709 53 28.2578 53H30.959L30.8828 52.6953C30.8184 52.4551 30.8008 51.6758 30.8008 49.1211C30.8008 47.3223 30.7891 45.8516 30.7715 45.8516C30.7539 45.8516 30.502 45.9746 30.2031 46.1211L29.6582 46.3906L27.8828 45.5059C25.9844 44.5625 25.8672 44.5215 25.4687 44.7266Z" fill="#170A4A"/>
<path d="M52.1173 45.5059L50.3419 46.3906L49.797 46.1211C49.4982 45.9746 49.2462 45.8516 49.2286 45.8516C49.2111 45.8516 49.1993 47.3223 49.1993 49.1211C49.1993 51.6758 49.1818 52.4551 49.1173 52.6953L49.0411 53H51.7423C54.2911 53 54.4552 52.9941 54.6134 52.8887C54.7013 52.8301 54.8302 52.7012 54.8888 52.6133C54.9943 52.4492 55.0001 52.2734 55.0001 48.834V45.2246L54.8654 45.0254C54.795 44.9141 54.6427 44.7793 54.5314 44.7266C54.1329 44.5215 54.0157 44.5625 52.1173 45.5059Z" fill="#170A4A"/>
</svg>
