<svg width="80" height="80" viewBox="0 0 80 80" fill="none" xmlns="http://www.w3.org/2000/svg">
<path fill-rule="evenodd" clip-rule="evenodd" d="M40 66.6666C54.7276 66.6666 66.6666 54.7275 66.6666 39.9999C66.6666 39.6012 66.6579 39.2046 66.6406 38.8102C67.5837 37.967 68.4602 37.1305 69.27 36.304C71.7833 33.7373 73.7433 31.1707 74.8433 28.744C75.9233 26.3573 76.37 23.5973 74.8833 21.2173C73.4833 18.984 70.9333 18.0173 68.3633 17.6707C65.73 17.314 62.53 17.534 59.04 18.1773L56.0825 18.7269C51.6116 15.3416 46.0403 13.3333 40 13.3333C33.3123 13.3333 27.1997 15.795 22.5188 19.8618C21.5308 20.7195 20.6066 21.6492 19.7542 22.6435C16.0326 26.9806 13.6806 32.5273 13.3687 38.6129C13.3298 39.3607 13.3223 40.1117 13.3467 40.864L11.59 42.8407C8.78999 45.564 6.59999 48.294 5.34999 50.8507C4.12999 53.3507 3.54999 56.274 5.11666 58.784C6.55999 61.0873 9.22333 62.0473 11.89 62.364C14.64 62.6907 17.9833 62.4173 21.6333 61.694C22.35 61.5507 23.0867 61.3907 23.8333 61.2107C22.6735 60.3247 21.5888 59.3462 20.5895 58.2851C25.4523 63.4453 32.3499 66.6666 40 66.6666ZM65.6871 32.8136L65.6967 32.804C68.01 30.4473 69.53 28.3573 70.2867 26.684C71.0633 24.9707 70.8433 24.1873 70.6433 23.8707C70.41 23.4973 69.68 22.8907 67.7 22.624C65.9037 22.3841 63.4876 22.4873 60.5383 22.9904C62.8918 25.8289 64.668 29.1633 65.6871 32.8136ZM18.6466 55.9758C18.9102 56.3276 19.1824 56.6727 19.4627 57.0108C16.6196 57.4974 14.2632 57.6107 12.48 57.3973C10.3733 57.1473 9.59666 56.5173 9.35666 56.1307C9.14666 55.7973 8.91666 54.9373 9.83999 53.0473C10.6433 51.4007 12.1333 49.4074 14.3132 47.1875C14.9776 49.567 15.9638 51.8123 17.2219 53.8735C17.6624 54.5956 18.1378 55.2972 18.6466 55.9758Z" fill="#F0BB00"/>
<path d="M43.5912 27.0821C40.3475 33.7448 41.5986 40.8701 42.9501 43.6H51.7002C48.7769 40.0465 50.4821 29.7194 51.7002 25L43.5912 27.0821Z" fill="#170A4A"/>
<rect x="32" y="43.0002" width="23" height="6" fill="#170A4A"/>
<rect x="32" y="47" width="21" height="5" fill="#170A4A"/>
<path d="M33 39.6943V43.1465L32 52L27.0357 50.6147V46.2465L29.6786 41.5261L28.0714 40.7511L27.0357 42.1954H25V36.7L33 39.6943Z" fill="#170A4A"/>
</svg>
