<svg width="80" height="80" viewBox="0 0 80 80" fill="none" xmlns="http://www.w3.org/2000/svg">
<path fill-rule="evenodd" clip-rule="evenodd" d="M40.0001 66.6666C54.7277 66.6666 66.6667 54.7275 66.6667 39.9999C66.6667 39.6012 66.658 39.2046 66.6407 38.8102C67.5838 37.967 68.4603 37.1305 69.2701 36.304C71.7835 33.7373 73.7435 31.1707 74.8435 28.744C75.9235 26.3573 76.3701 23.5973 74.8835 21.2173C73.4835 18.984 70.9335 18.0173 68.3635 17.6707C65.7301 17.314 62.5301 17.534 59.0401 18.1773L56.0826 18.7269C51.6117 15.3416 46.0404 13.3333 40.0001 13.3333C33.3125 13.3333 27.1998 15.795 22.519 19.8618C21.5309 20.7195 20.6068 21.6492 19.7543 22.6435C16.0327 26.9806 13.6807 32.5273 13.3689 38.6129C13.3299 39.3607 13.3224 40.1117 13.3468 40.864L11.5901 42.8407C8.79012 45.564 6.60012 48.294 5.35012 50.8507C4.13012 53.3507 3.55012 56.274 5.11678 58.784C6.56012 61.0873 9.22345 62.0473 11.8901 62.364C14.6401 62.6907 17.9834 62.4173 21.6334 61.694C22.3501 61.5507 23.0868 61.3907 23.8335 61.2107C22.6737 60.3247 21.5889 59.3462 20.5896 58.2851C25.4524 63.4453 32.3501 66.6666 40.0001 66.6666ZM65.6872 32.8136L65.6968 32.804C68.0101 30.4473 69.5301 28.3573 70.2868 26.684C71.0635 24.9707 70.8435 24.1873 70.6435 23.8707C70.4101 23.4973 69.6801 22.8907 67.7001 22.624C65.9038 22.3841 63.4877 22.4873 60.5385 22.9904C62.8919 25.8289 64.6682 29.1633 65.6872 32.8136ZM18.6467 55.9758C18.9103 56.3276 19.1825 56.6727 19.4628 57.0108C16.6198 57.4974 14.2633 57.6107 12.4801 57.3973C10.3734 57.1473 9.59678 56.5173 9.35678 56.1307C9.14678 55.7973 8.91678 54.9373 9.84012 53.0473C10.6434 51.4007 12.1334 49.4074 14.3133 47.1875C14.9777 49.567 15.9639 51.8123 17.222 53.8735C17.6626 54.5956 18.1379 55.2972 18.6467 55.9758Z" fill="#F0BB00"/>
<path d="M39.6706 29.438C39.5901 29.482 38.3969 31.2095 37.0208 33.2811L34.51 37.0509V43.2656C34.51 47.6649 34.532 49.5315 34.5905 49.656C34.7296 49.9561 34.9492 50 36.2668 50H37.5039L37.5259 47.277C37.5478 44.6344 37.5551 44.5319 37.7162 44.1293C37.9285 43.6023 38.4043 43.0679 38.9167 42.7898C39.268 42.5921 39.3632 42.5702 40 42.5702C40.6149 42.5702 40.7394 42.5921 41.0834 42.7751C41.8008 43.1558 42.2619 43.778 42.4156 44.5759C42.4522 44.7955 42.4888 46.0911 42.4888 47.4819V50H43.7332C45.0508 50 45.2704 49.9561 45.4095 49.656C45.4681 49.5315 45.49 47.6649 45.49 43.2656V37.0436L43.0086 33.3177C41.6397 31.2681 40.4466 29.5405 40.3587 29.4746C40.1684 29.3429 39.8902 29.3282 39.6706 29.438ZM40.7686 35.0964C42.0862 35.7113 42.3424 37.3437 41.2664 38.2806C40.4978 38.9614 39.5023 38.9614 38.7337 38.2806C38.2945 37.9 38.0749 37.4242 38.0749 36.8606C38.0675 36.2017 38.3311 35.6967 38.902 35.2794C39.4364 34.8768 40.1537 34.8109 40.7686 35.0964Z" fill="#170A4A"/>
<path d="M27.7903 31.2755C27.6658 31.3414 27.2632 32.0807 26.3043 33.9766C24.8842 36.8168 24.833 36.9632 25.177 37.2999L25.3527 37.4829H29.3494H33.3389V37.234C33.3389 37.1023 33.3828 36.8534 33.4413 36.6923C33.4999 36.5313 34.2978 35.2723 35.2201 33.8888C36.1424 32.5053 36.9257 31.3268 36.9549 31.2755C37.0281 31.1511 28.0465 31.1511 27.7903 31.2755Z" fill="#170A4A"/>
<path d="M43.0451 31.2755C43.0744 31.3268 43.8576 32.5053 44.78 33.8888C45.7023 35.2723 46.5002 36.5313 46.5587 36.6923C46.6173 36.8534 46.6612 37.1023 46.6612 37.234V37.4829H50.6506H54.6474L54.823 37.2999C55.1671 36.9632 55.1158 36.8168 53.6958 33.9839C52.6417 31.8831 52.3416 31.3414 52.1878 31.2755C51.9024 31.1438 42.9719 31.1511 43.0451 31.2755Z" fill="#170A4A"/>
<path d="M26.2385 44.1001C26.2385 47.0939 26.2605 49.6047 26.2824 49.6706C26.4069 49.9854 26.5679 50 30.0449 50H33.339V44.327V38.654H29.7887H26.2385V44.1001ZM30.4695 40.1546C30.8282 40.3083 31.2747 40.7402 31.4431 41.1062C31.5675 41.3697 31.5821 41.6112 31.5821 43.6023C31.5821 45.6665 31.5748 45.8203 31.4431 45.9813C31.304 46.157 31.2747 46.157 29.84 46.1789L28.376 46.2009L28.171 46.0179L27.9587 45.8422V43.6169C27.9587 41.5893 27.9734 41.377 28.0978 41.1428C28.354 40.6596 28.5736 40.4254 28.9616 40.2351C29.4081 40.0082 30.0376 39.9789 30.4695 40.1546Z" fill="#170A4A"/>
<path d="M46.6611 44.327V50H49.9551C53.4322 50 53.5932 49.9854 53.7176 49.6706C53.7396 49.6047 53.7616 47.0939 53.7616 44.1001V38.654H50.2113H46.6611V44.327ZM51.1703 40.301C51.6168 40.5791 51.9755 41.1501 52.0414 41.6845C52.0706 41.8894 52.078 42.9069 52.0633 43.9463L52.0414 45.8422L51.8291 46.0179L51.6241 46.2009L50.1601 46.1789C48.7254 46.157 48.6961 46.157 48.557 45.9813C48.4253 45.8203 48.4179 45.6665 48.4179 43.6243C48.4179 41.1794 48.4253 41.1135 48.9157 40.6011C49.3256 40.1692 49.677 40.0374 50.2919 40.0594C50.7164 40.0814 50.8775 40.1253 51.1703 40.301Z" fill="#170A4A"/>
</svg>
