<svg width="120" height="120" viewBox="0 0 120 120" fill="none" xmlns="http://www.w3.org/2000/svg">
<path d="M15 105V15H105V105H15ZM20.5328 36.0246H36.0246V20.5328H20.5328V36.0246ZM41.6803 36.0246H57.1721V20.5328H41.6803V36.0246ZM62.7049 36.0246H78.1967V20.5328H62.7049V36.0246ZM83.8525 36.0246H99.4672V20.5328H83.8525V36.0246ZM20.5328 57.1721H36.0246V41.6803H20.5328V57.1721ZM41.6803 57.1721H57.1721V41.6803H41.6803V57.1721ZM62.7049 57.1721H78.1967V41.6803H62.7049V57.1721ZM83.8525 57.1721H99.4672V41.6803H83.8525V57.1721ZM20.5328 78.1967H36.0246V62.7049H20.5328V78.1967ZM41.6803 78.1967H57.1721V62.7049H41.6803V78.1967ZM62.7049 78.1967H78.1967V62.7049H62.7049V78.1967ZM83.8525 78.1967H99.4672V62.7049H83.8525V78.1967ZM20.5328 99.4672H36.0246V83.7295H20.5328V99.4672ZM41.6803 99.4672H57.1721V83.7295H41.6803V99.4672ZM62.7049 99.4672H78.1967V83.7295H62.7049V99.4672ZM83.8525 99.4672H99.4672V83.7295H83.8525V99.4672Z" fill="#291770"/>
<path d="M17.5 17.5H37.5V37.5H17.5V17.5Z" fill="#291770"/>
<path d="M38.75 38.75H58.75V58.75H38.75V38.75Z" fill="#291770"/>
<path d="M60 60H80V80H60V60Z" fill="#291770"/>
<path d="M81.25 81.25H101.25V101.25H81.25V81.25Z" fill="#291770"/>
</svg>
