<svg width="120" height="120" viewBox="0 0 120 120" fill="none" xmlns="http://www.w3.org/2000/svg">
<path fill-rule="evenodd" clip-rule="evenodd" d="M15.0683 57.5H15V62.5H15.0683C16.3202 85.3624 34.6376 103.68 57.5 104.932V105H62.5V104.932C85.3624 103.68 103.68 85.3624 104.932 62.5H105V57.5H104.932C103.68 34.6376 85.3624 16.3202 62.5 15.0683V15H57.5V15.0683C34.6376 16.3202 16.3202 34.6376 15.0683 57.5ZM20.0769 57.5H37.5V37.5C37.5 32.6267 39.0493 28.1152 41.6823 24.4313C29.5027 30.7165 20.9665 43.0737 20.0769 57.5ZM37.5 62.5H20.0769C20.9665 76.9263 29.5027 89.2836 41.6823 95.5687C39.0493 91.8848 37.5 87.3733 37.5 82.5V62.5ZM99.9231 57.5C99.0335 43.0737 90.4973 30.7165 78.3177 24.4313C80.9507 28.1152 82.5 32.6267 82.5 37.5V57.5H99.9231ZM77.5 57.5V37.5C77.5 28.6838 70.9807 21.3903 62.5 20.1772V57.5H77.5ZM62.5 62.5H77.5V82.5C77.5 91.3162 70.9807 98.6097 62.5 99.8228V62.5ZM57.5 62.5V99.8228C49.0193 98.6097 42.5 91.3162 42.5 82.5V62.5H57.5ZM57.5 57.5H42.5V37.5C42.5 28.6838 49.0193 21.3903 57.5 20.1772V57.5ZM82.5 62.5H99.9231C99.0335 76.9263 90.4973 89.2836 78.3177 95.5687C80.9507 91.8848 82.5 87.3733 82.5 82.5V62.5Z" fill="#F0BB00"/>
</svg>
