<svg width="120" height="120" viewBox="0 0 120 120" fill="none" xmlns="http://www.w3.org/2000/svg">
<path fill-rule="evenodd" clip-rule="evenodd" d="M20 40C20 28.9543 28.9543 20 40 20C51.0457 20 60 28.9543 60 40C60 51.0457 51.0457 60 40 60C28.9543 60 20 51.0457 20 40ZM34.5202 46.1058L38.2068 55.4533C31.0487 54.6317 25.3683 48.9513 24.5467 41.7932L33.8942 45.4798C34.1806 45.5927 34.4072 45.8194 34.5202 46.1058ZM33.8942 34.5202L24.5467 38.2068C25.3683 31.0487 31.0487 25.3683 38.2068 24.5467L34.5202 33.8942C34.4072 34.1806 34.1806 34.4073 33.8942 34.5202ZM45.4798 46.1058L41.7932 55.4533C48.9513 54.6317 54.6317 48.9513 55.4533 41.7932L46.1058 45.4798C45.8194 45.5927 45.5927 45.8194 45.4798 46.1058ZM41.7932 24.5467C48.9513 25.3683 54.6317 31.0487 55.4533 38.2068L46.1058 34.5202C45.8194 34.4073 45.5927 34.1806 45.4798 33.8942L41.7932 24.5467ZM40 32.1138L38.6547 35.5248C38.09 36.9566 36.9566 38.09 35.5248 38.6547L32.1138 40L35.5248 41.3453C36.9566 41.91 38.09 43.0434 38.6547 44.4751L40 47.8862L41.3453 44.4751C41.91 43.0434 43.0433 41.91 44.4751 41.3453L47.8862 40L44.4751 38.6547C43.0433 38.09 41.91 36.9566 41.3453 35.5248L40 32.1138Z" fill="#F0BB00"/>
<path fill-rule="evenodd" clip-rule="evenodd" d="M60 80C60 91.0457 51.0457 100 40 100C28.9543 100 20 91.0457 20 80C20 68.9543 28.9543 60 40 60C51.0457 60 60 68.9543 60 80ZM24.5467 81.7932C25.3683 88.9513 31.0487 94.6317 38.2068 95.4533L34.5202 86.1058C34.4072 85.8194 34.1806 85.5927 33.8942 85.4798L24.5467 81.7932ZM41.7932 95.4533C48.9513 94.6317 54.6317 88.9513 55.4533 81.7932L46.1058 85.4798C45.8194 85.5927 45.5927 85.8194 45.4798 86.1058L41.7932 95.4533ZM55.4533 78.2068C54.6317 71.0487 48.9513 65.3683 41.7932 64.5467L45.4798 73.8942C45.5927 74.1806 45.8194 74.4073 46.1058 74.5202L55.4533 78.2068ZM38.2068 64.5467C31.0487 65.3683 25.3683 71.0487 24.5467 78.2068L33.8942 74.5202C34.1806 74.4073 34.4072 74.1806 34.5202 73.8942L38.2068 64.5467ZM38.6547 75.5248L40 72.1138L41.3453 75.5248C41.91 76.9566 43.0433 78.09 44.4751 78.6547L47.8862 80L44.4751 81.3453C43.0433 81.91 41.91 83.0434 41.3453 84.4751L40 87.8862L38.6547 84.4751C38.09 83.0434 36.9566 81.91 35.5248 81.3453L32.1138 80L35.5248 78.6547C36.9566 78.09 38.09 76.9566 38.6547 75.5248Z" fill="#F0BB00"/>
<path fill-rule="evenodd" clip-rule="evenodd" d="M80 60C91.0457 60 100 68.9543 100 80C100 91.0457 91.0457 100 80 100C68.9543 100 60 91.0457 60 80C60 68.9543 68.9543 60 80 60ZM64.5467 81.7932C65.3683 88.9513 71.0487 94.6317 78.2068 95.4533L74.5202 86.1058C74.4072 85.8194 74.1806 85.5927 73.8942 85.4798L64.5467 81.7932ZM81.7932 95.4533C88.9513 94.6317 94.6317 88.9513 95.4533 81.7932L86.1058 85.4798C85.8194 85.5927 85.5927 85.8194 85.4798 86.1058L81.7932 95.4533ZM95.4533 78.2068C94.6317 71.0487 88.9513 65.3683 81.7932 64.5467L85.4798 73.8942C85.5927 74.1806 85.8194 74.4073 86.1058 74.5202L95.4533 78.2068ZM78.2068 64.5467C71.0487 65.3683 65.3683 71.0487 64.5467 78.2068L73.8942 74.5202C74.1806 74.4073 74.4072 74.1806 74.5202 73.8942L78.2068 64.5467ZM78.6547 75.5248L80 72.1138L81.3453 75.5248C81.91 76.9566 83.0433 78.09 84.4751 78.6547L87.8862 80L84.4751 81.3453C83.0433 81.91 81.91 83.0434 81.3453 84.4751L80 87.8862L78.6547 84.4751C78.09 83.0434 76.9566 81.91 75.5248 81.3453L72.1138 80L75.5248 78.6547C76.9566 78.09 78.09 76.9566 78.6547 75.5248Z" fill="#F0BB00"/>
<path fill-rule="evenodd" clip-rule="evenodd" d="M80 60C91.0457 60 100 51.0457 100 40C100 28.9543 91.0457 20 80 20C68.9543 20 60 28.9543 60 40C60 51.0457 68.9543 60 80 60ZM78.2068 55.4533C71.0487 54.6317 65.3683 48.9513 64.5467 41.7932L73.8942 45.4798C74.1806 45.5927 74.4072 45.8194 74.5202 46.1058L78.2068 55.4533ZM95.4533 41.7932C94.6317 48.9513 88.9513 54.6317 81.7932 55.4533L85.4798 46.1058C85.5927 45.8194 85.8194 45.5927 86.1058 45.4798L95.4533 41.7932ZM81.7932 24.5467C88.9513 25.3683 94.6317 31.0487 95.4533 38.2068L86.1058 34.5202C85.8194 34.4073 85.5927 34.1806 85.4798 33.8942L81.7932 24.5467ZM64.5467 38.2068C65.3683 31.0487 71.0487 25.3683 78.2068 24.5467L74.5202 33.8942C74.4072 34.1806 74.1806 34.4073 73.8942 34.5202L64.5467 38.2068ZM80 32.1138L78.6547 35.5248C78.09 36.9566 76.9566 38.09 75.5248 38.6547L72.1138 40L75.5248 41.3453C76.9566 41.91 78.09 43.0434 78.6547 44.4751L80 47.8862L81.3453 44.4751C81.91 43.0434 83.0433 41.91 84.4751 41.3453L87.8862 40L84.4751 38.6547C83.0433 38.09 81.91 36.9566 81.3453 35.5248L80 32.1138Z" fill="#F0BB00"/>
</svg>
