<svg width="45" height="45" viewBox="0 0 45 45" fill="none" xmlns="http://www.w3.org/2000/svg">
<rect width="45" height="45" rx="22.5" fill="currentColor"/>
<path d="M14 17.5C14 17.4337 14.0361 17.2286 14.4234 16.9081C14.8043 16.5928 15.4157 16.2642 16.2593 15.969C17.9372 15.3817 20.3204 15 23 15C25.6796 15 28.0628 15.3817 29.7407 15.969C30.5843 16.2642 31.1957 16.5928 31.5766 16.9081C31.9639 17.2286 32 17.4337 32 17.5C32 17.5663 31.9639 17.7714 31.5766 18.0919C31.1957 18.4072 30.5843 18.7358 29.7407 19.031C28.0628 19.6183 25.6796 20 23 20C20.3204 20 17.9372 19.6183 16.2593 19.031C15.4157 18.7358 14.8043 18.4072 14.4234 18.0919C14.0361 17.7714 14 17.5663 14 17.5Z" stroke="#F0BB00" stroke-width="2"/>
<path d="M14 28.5C14 28.4337 14.0361 28.2286 14.4234 27.9081C14.8043 27.5928 15.4157 27.2642 16.2593 26.969C17.9372 26.3817 20.3204 26 23 26C25.6796 26 28.0628 26.3817 29.7407 26.969C30.5843 27.2642 31.1957 27.5928 31.5766 27.9081C31.9639 28.2286 32 28.4337 32 28.5C32 28.5663 31.9639 28.7714 31.5766 29.0919C31.1957 29.4072 30.5843 29.7358 29.7407 30.031C28.0628 30.6183 25.6796 31 23 31C20.3204 31 17.9372 30.6183 16.2593 30.031C15.4157 29.7358 14.8043 29.4072 14.4234 29.0919C14.0361 28.7714 14 28.5663 14 28.5Z" stroke="#F0BB00" stroke-width="2"/>
</svg>
