<svg width="45" height="45" viewBox="0 0 45 45" fill="none" xmlns="http://www.w3.org/2000/svg">
<rect width="45" height="45" rx="22.5" fill="currentColor"/>
<path d="M34.4984 29.9194C34.3402 30.1936 33.9664 30.4846 33.1541 30.6278C32.3485 30.7698 31.2522 30.7355 29.9146 30.4885C27.2485 29.9961 23.845 28.7004 20.3645 26.6909C16.8839 24.6814 14.0601 22.3818 12.3007 20.3191C11.4179 19.2841 10.8401 18.3519 10.5603 17.5832C10.2781 16.8082 10.3432 16.339 10.5015 16.0648C10.6598 15.7907 11.0336 15.4996 11.8459 15.3565C12.6515 15.2145 13.7477 15.2487 15.0854 15.4958C17.7515 15.9881 21.1549 17.2838 24.6355 19.2933C28.116 21.3028 30.9399 23.6025 32.6993 25.6652C33.5821 26.7001 34.1598 27.6323 34.4397 28.4011C34.7219 29.1761 34.6567 29.6453 34.4984 29.9194Z" stroke="#F0BB00" stroke-width="2"/>
<path d="M10.5016 29.9195C10.3433 29.6453 10.2781 29.1761 10.5603 28.4011C10.8402 27.6323 11.4179 26.7001 12.3007 25.6652C14.0601 23.6025 16.884 21.3028 20.3645 19.2933C23.8451 17.2839 27.2485 15.9882 29.9146 15.4958C31.2523 15.2488 32.3485 15.2145 33.1541 15.3565C33.9664 15.4996 34.3402 15.7907 34.4985 16.0648C34.6568 16.339 34.7219 16.8082 34.4397 17.5832C34.1599 18.3519 33.5821 19.2841 32.6993 20.3191C30.9399 22.3818 28.1161 24.6814 24.6355 26.6909C21.155 28.7004 17.7515 29.9961 15.0854 30.4885C13.7478 30.7355 12.6515 30.7698 11.8459 30.6278C11.0336 30.4846 10.6598 30.1936 10.5016 29.9195Z" stroke="#F0BB00" stroke-width="2"/>
</svg>
