<svg width="45" height="45" viewBox="0 0 45 45" fill="none" xmlns="http://www.w3.org/2000/svg">
<rect width="45" height="45" rx="22.5" fill="currentColor"/>
<path d="M36.4013 18.548C36.4914 18.8844 36.4233 19.3882 35.9256 20.0987C35.4319 20.8037 34.5933 21.5907 33.4217 22.397C31.0863 24.0043 27.6142 25.5612 23.56 26.6476C19.5059 27.7339 15.7205 28.1215 12.8943 27.8973C11.4765 27.7848 10.3568 27.5226 9.57669 27.1589C8.79048 26.7924 8.47955 26.3901 8.38943 26.0538C8.29931 25.7174 8.36745 25.2136 8.86507 24.5031C9.35882 23.7981 10.1974 23.0111 11.369 22.2048C13.7045 20.5975 17.1765 19.0405 21.2307 17.9542C25.2849 16.8679 29.0702 16.4803 31.8964 16.7045C33.3142 16.817 34.4339 17.0792 35.214 17.4429C36.0002 17.8094 36.3112 18.2117 36.4013 18.548Z" stroke="#F0BB00" stroke-width="2"/>
</svg>
