<svg width="45" height="45" viewBox="0 0 45 45" fill="none" xmlns="http://www.w3.org/2000/svg">
<rect width="45" height="45" rx="22.5" fill="currentColor"/>
<path d="M34.715 30.0444C34.5053 30.4076 34.0483 30.7241 33.1975 30.874C32.3517 31.023 31.223 30.9844 29.8692 30.7343C27.1684 30.2355 23.738 28.9273 20.2395 26.9074C16.741 24.8876 13.8928 22.5709 12.1105 20.4813C11.217 19.4339 10.6192 18.4758 10.3253 17.6687C10.0298 16.857 10.0753 16.303 10.285 15.9398C10.4947 15.5766 10.9517 15.2602 11.8025 15.1103C12.6483 14.9612 13.7769 14.9999 15.1308 15.2499C17.8316 15.7487 21.262 17.057 24.7605 19.0768C28.259 21.0967 31.1072 23.4134 32.8895 25.5029C33.783 26.5504 34.3808 27.5085 34.6746 28.3155C34.9702 29.1273 34.9246 29.6813 34.715 30.0444Z" stroke="#F0BB00" stroke-width="1.5"/>
<path d="M10.285 30.0445C10.0754 29.6813 10.0298 29.1273 10.3254 28.3155C10.6192 27.5085 11.217 26.5504 12.1105 25.5029C13.8928 23.4134 16.741 21.0967 20.2395 19.0768C23.738 17.057 27.1684 15.7487 29.8692 15.2499C31.2231 14.9999 32.3517 14.9612 33.1975 15.1103C34.0483 15.2602 34.5053 15.5766 34.715 15.9398C34.9247 16.303 34.9702 16.857 34.6747 17.6687C34.3808 18.4758 33.783 19.4339 32.8895 20.4813C31.1072 22.5709 28.259 24.8876 24.7605 26.9074C21.262 28.9273 17.8316 30.2356 15.1308 30.7343C13.777 30.9844 12.6483 31.023 11.8025 30.874C10.9517 30.7241 10.4947 30.4076 10.285 30.0445Z" stroke="#F0BB00" stroke-width="1.5"/>
<path d="M22.5 37.0967C22.0806 37.0967 21.5781 36.8592 21.0229 36.1973C20.4709 35.5394 19.9401 34.5426 19.4797 33.2451C18.5612 30.6567 17.979 27.0318 17.979 22.9921C17.979 18.9523 18.5612 15.3274 19.4797 12.7391C19.9401 11.4416 20.4709 10.4448 21.0229 9.78684C21.5781 9.12499 22.0806 8.88745 22.5 8.88745C22.9194 8.88745 23.4219 9.12499 23.9771 9.78684C24.5291 10.4448 25.0599 11.4416 25.5203 12.7391C26.4388 15.3274 27.021 18.9523 27.021 22.9921C27.021 27.0318 26.4388 30.6567 25.5203 33.2451C25.0599 34.5426 24.5291 35.5394 23.9771 36.1973C23.4219 36.8592 22.9194 37.0967 22.5 37.0967Z" stroke="#F0BB00" stroke-width="1.5"/>
</svg>
