<svg width="457" height="451" viewBox="0 0 457 451" fill="none" xmlns="http://www.w3.org/2000/svg">
<path d="M10.0117 37V3.99219L1.36914 7.36133L1.34473 4.82227L11.7207 0.964844H12.6729V37H10.0117ZM34.4746 26.2822V12.1709C34.4746 8.55762 35.3291 5.77441 37.0381 3.82129C38.7633 1.85189 41.1722 0.867188 44.2646 0.867188C47.3571 0.867188 49.766 1.85189 51.4912 3.82129C53.2327 5.77441 54.1035 8.55762 54.1035 12.1709V26.2822C54.1035 29.9118 53.2327 32.7113 51.4912 34.6807C49.766 36.6338 47.3571 37.6022 44.2646 37.5859C41.1722 37.5697 38.7633 36.5931 37.0381 34.6562C35.3291 32.7031 34.4746 29.9118 34.4746 26.2822ZM37.1357 26.4043C37.1357 29.2526 37.738 31.4499 38.9424 32.9961C40.1468 34.526 41.9209 35.291 44.2646 35.291C46.641 35.291 48.4313 34.5179 49.6357 32.9717C50.8402 31.4255 51.4424 29.2363 51.4424 26.4043V12.0488C51.4424 9.23307 50.832 7.05208 49.6113 5.50586C48.4069 3.94336 46.6247 3.16211 44.2646 3.16211C41.9209 3.16211 40.1468 3.94336 38.9424 5.50586C37.738 7.05208 37.1357 9.23307 37.1357 12.0488V26.4043ZM78.2734 37V3.99219L69.6309 7.36133L69.6064 4.82227L79.9824 0.964844H80.9346V37H78.2734ZM102.736 26.2822V12.1709C102.736 8.55762 103.591 5.77441 105.3 3.82129C107.025 1.85189 109.434 0.867188 112.526 0.867188C115.619 0.867188 118.028 1.85189 119.753 3.82129C121.494 5.77441 122.365 8.55762 122.365 12.1709V26.2822C122.365 29.9118 121.494 32.7113 119.753 34.6807C118.028 36.6338 115.619 37.6022 112.526 37.5859C109.434 37.5697 107.025 36.5931 105.3 34.6562C103.591 32.7031 102.736 29.9118 102.736 26.2822ZM105.397 26.4043C105.397 29.2526 106 31.4499 107.204 32.9961C108.409 34.526 110.183 35.291 112.526 35.291C114.903 35.291 116.693 34.5179 117.897 32.9717C119.102 31.4255 119.704 29.2363 119.704 26.4043V12.0488C119.704 9.23307 119.094 7.05208 117.873 5.50586C116.669 3.94336 114.886 3.16211 112.526 3.16211C110.183 3.16211 108.409 3.94336 107.204 5.50586C106 7.05208 105.397 9.23307 105.397 12.0488V26.4043ZM136.867 26.2822V12.1709C136.867 8.55762 137.722 5.77441 139.431 3.82129C141.156 1.85189 143.565 0.867188 146.657 0.867188C149.75 0.867188 152.159 1.85189 153.884 3.82129C155.625 5.77441 156.496 8.55762 156.496 12.1709V26.2822C156.496 29.9118 155.625 32.7113 153.884 34.6807C152.159 36.6338 149.75 37.6022 146.657 37.5859C143.565 37.5697 141.156 36.5931 139.431 34.6562C137.722 32.7031 136.867 29.9118 136.867 26.2822ZM139.528 26.4043C139.528 29.2526 140.131 31.4499 141.335 32.9961C142.539 34.526 144.313 35.291 146.657 35.291C149.034 35.291 150.824 34.5179 152.028 32.9717C153.233 31.4255 153.835 29.2363 153.835 26.4043V12.0488C153.835 9.23307 153.225 7.05208 152.004 5.50586C150.799 3.94336 149.017 3.16211 146.657 3.16211C144.313 3.16211 142.539 3.94336 141.335 5.50586C140.131 7.05208 139.528 9.23307 139.528 12.0488V26.4043ZM170.998 26.2822V12.1709C170.998 8.55762 171.853 5.77441 173.562 3.82129C175.287 1.85189 177.696 0.867188 180.788 0.867188C183.881 0.867188 186.289 1.85189 188.015 3.82129C189.756 5.77441 190.627 8.55762 190.627 12.1709V26.2822C190.627 29.9118 189.756 32.7113 188.015 34.6807C186.289 36.6338 183.881 37.6022 180.788 37.5859C177.696 37.5697 175.287 36.5931 173.562 34.6562C171.853 32.7031 170.998 29.9118 170.998 26.2822ZM173.659 26.4043C173.659 29.2526 174.261 31.4499 175.466 32.9961C176.67 34.526 178.444 35.291 180.788 35.291C183.164 35.291 184.955 34.5179 186.159 32.9717C187.364 31.4255 187.966 29.2363 187.966 26.4043V12.0488C187.966 9.23307 187.355 7.05208 186.135 5.50586C184.93 3.94336 183.148 3.16211 180.788 3.16211C178.444 3.16211 176.67 3.94336 175.466 5.50586C174.261 7.05208 173.659 9.23307 173.659 12.0488V26.4043ZM214.797 37V3.99219L206.154 7.36133L206.13 4.82227L216.506 0.964844H217.458V37H214.797ZM248.928 37V3.99219L240.285 7.36133L240.261 4.82227L250.637 0.964844H251.589V37H248.928ZM273.391 26.2822V12.1709C273.391 8.55762 274.245 5.77441 275.954 3.82129C277.679 1.85189 280.088 0.867188 283.181 0.867188C286.273 0.867188 288.682 1.85189 290.407 3.82129C292.149 5.77441 293.02 8.55762 293.02 12.1709V26.2822C293.02 29.9118 292.149 32.7113 290.407 34.6807C288.682 36.6338 286.273 37.6022 283.181 37.5859C280.088 37.5697 277.679 36.5931 275.954 34.6562C274.245 32.7031 273.391 29.9118 273.391 26.2822ZM276.052 26.4043C276.052 29.2526 276.654 31.4499 277.858 32.9961C279.063 34.526 280.837 35.291 283.181 35.291C285.557 35.291 287.347 34.5179 288.552 32.9717C289.756 31.4255 290.358 29.2363 290.358 26.4043V12.0488C290.358 9.23307 289.748 7.05208 288.527 5.50586C287.323 3.94336 285.541 3.16211 283.181 3.16211C280.837 3.16211 279.063 3.94336 277.858 5.50586C276.654 7.05208 276.052 9.23307 276.052 12.0488V26.4043ZM317.189 37V3.99219L308.547 7.36133L308.522 4.82227L318.898 0.964844H319.851V37H317.189ZM341.652 26.2822V12.1709C341.652 8.55762 342.507 5.77441 344.216 3.82129C345.941 1.85189 348.35 0.867188 351.442 0.867188C354.535 0.867188 356.944 1.85189 358.669 3.82129C360.41 5.77441 361.281 8.55762 361.281 12.1709V26.2822C361.281 29.9118 360.41 32.7113 358.669 34.6807C356.944 36.6338 354.535 37.6022 351.442 37.5859C348.35 37.5697 345.941 36.5931 344.216 34.6562C342.507 32.7031 341.652 29.9118 341.652 26.2822ZM344.313 26.4043C344.313 29.2526 344.916 31.4499 346.12 32.9961C347.325 34.526 349.099 35.291 351.442 35.291C353.819 35.291 355.609 34.5179 356.813 32.9717C358.018 31.4255 358.62 29.2363 358.62 26.4043V12.0488C358.62 9.23307 358.01 7.05208 356.789 5.50586C355.585 3.94336 353.802 3.16211 351.442 3.16211C349.099 3.16211 347.325 3.94336 346.12 5.50586C344.916 7.05208 344.313 9.23307 344.313 12.0488V26.4043ZM375.783 26.2822V12.1709C375.783 8.55762 376.638 5.77441 378.347 3.82129C380.072 1.85189 382.481 0.867188 385.573 0.867188C388.666 0.867188 391.075 1.85189 392.8 3.82129C394.541 5.77441 395.412 8.55762 395.412 12.1709V26.2822C395.412 29.9118 394.541 32.7113 392.8 34.6807C391.075 36.6338 388.666 37.6022 385.573 37.5859C382.481 37.5697 380.072 36.5931 378.347 34.6562C376.638 32.7031 375.783 29.9118 375.783 26.2822ZM378.444 26.4043C378.444 29.2526 379.047 31.4499 380.251 32.9961C381.455 34.526 383.229 35.291 385.573 35.291C387.95 35.291 389.74 34.5179 390.944 32.9717C392.149 31.4255 392.751 29.2363 392.751 26.4043V12.0488C392.751 9.23307 392.141 7.05208 390.92 5.50586C389.715 3.94336 387.933 3.16211 385.573 3.16211C383.229 3.16211 381.455 3.94336 380.251 5.50586C379.047 7.05208 378.444 9.23307 378.444 12.0488V26.4043ZM409.914 26.2822V12.1709C409.914 8.55762 410.769 5.77441 412.478 3.82129C414.203 1.85189 416.612 0.867188 419.704 0.867188C422.797 0.867188 425.205 1.85189 426.931 3.82129C428.672 5.77441 429.543 8.55762 429.543 12.1709V26.2822C429.543 29.9118 428.672 32.7113 426.931 34.6807C425.205 36.6338 422.797 37.6022 419.704 37.5859C416.612 37.5697 414.203 36.5931 412.478 34.6562C410.769 32.7031 409.914 29.9118 409.914 26.2822ZM412.575 26.4043C412.575 29.2526 413.177 31.4499 414.382 32.9961C415.586 34.526 417.36 35.291 419.704 35.291C422.08 35.291 423.871 34.5179 425.075 32.9717C426.28 31.4255 426.882 29.2363 426.882 26.4043V12.0488C426.882 9.23307 426.271 7.05208 425.051 5.50586C423.846 3.94336 422.064 3.16211 419.704 3.16211C417.36 3.16211 415.586 3.94336 414.382 5.50586C413.177 7.05208 412.575 9.23307 412.575 12.0488V26.4043ZM453.713 37V3.99219L445.07 7.36133L445.046 4.82227L455.422 0.964844H456.374V37H453.713ZM0.34375 85.2822V71.1709C0.34375 67.5576 1.19824 64.7744 2.90723 62.8213C4.63249 60.8519 7.04134 59.8672 10.1338 59.8672C13.2262 59.8672 15.6351 60.8519 17.3604 62.8213C19.1019 64.7744 19.9727 67.5576 19.9727 71.1709V85.2822C19.9727 88.9118 19.1019 91.7113 17.3604 93.6807C15.6351 95.6338 13.2262 96.6022 10.1338 96.5859C7.04134 96.5697 4.63249 95.5931 2.90723 93.6562C1.19824 91.7031 0.34375 88.9118 0.34375 85.2822ZM3.00488 85.4043C3.00488 88.2526 3.6071 90.4499 4.81152 91.9961C6.01595 93.526 7.79004 94.291 10.1338 94.291C12.5101 94.291 14.3005 93.5179 15.5049 91.9717C16.7093 90.4255 17.3115 88.2363 17.3115 85.4043V71.0488C17.3115 68.2331 16.7012 66.0521 15.4805 64.5059C14.276 62.9434 12.4938 62.1621 10.1338 62.1621C7.79004 62.1621 6.01595 62.9434 4.81152 64.5059C3.6071 66.0521 3.00488 68.2331 3.00488 71.0488V85.4043ZM44.1426 96V62.9922L35.5 66.3613L35.4756 63.8223L45.8516 59.9648H46.8037V96H44.1426ZM68.6055 85.2822V71.1709C68.6055 67.5576 69.46 64.7744 71.1689 62.8213C72.8942 60.8519 75.3031 59.8672 78.3955 59.8672C81.488 59.8672 83.8968 60.8519 85.6221 62.8213C87.3636 64.7744 88.2344 67.5576 88.2344 71.1709V85.2822C88.2344 88.9118 87.3636 91.7113 85.6221 93.6807C83.8968 95.6338 81.488 96.6022 78.3955 96.5859C75.3031 96.5697 72.8942 95.5931 71.1689 93.6562C69.46 91.7031 68.6055 88.9118 68.6055 85.2822ZM71.2666 85.4043C71.2666 88.2526 71.8688 90.4499 73.0732 91.9961C74.2777 93.526 76.0518 94.291 78.3955 94.291C80.7718 94.291 82.5622 93.5179 83.7666 91.9717C84.971 90.4255 85.5732 88.2363 85.5732 85.4043V71.0488C85.5732 68.2331 84.9629 66.0521 83.7422 64.5059C82.5378 62.9434 80.7555 62.1621 78.3955 62.1621C76.0518 62.1621 74.2777 62.9434 73.0732 64.5059C71.8688 66.0521 71.2666 68.2331 71.2666 71.0488V85.4043ZM102.736 85.2822V71.1709C102.736 67.5576 103.591 64.7744 105.3 62.8213C107.025 60.8519 109.434 59.8672 112.526 59.8672C115.619 59.8672 118.028 60.8519 119.753 62.8213C121.494 64.7744 122.365 67.5576 122.365 71.1709V85.2822C122.365 88.9118 121.494 91.7113 119.753 93.6807C118.028 95.6338 115.619 96.6022 112.526 96.5859C109.434 96.5697 107.025 95.5931 105.3 93.6562C103.591 91.7031 102.736 88.9118 102.736 85.2822ZM105.397 85.4043C105.397 88.2526 106 90.4499 107.204 91.9961C108.409 93.526 110.183 94.291 112.526 94.291C114.903 94.291 116.693 93.5179 117.897 91.9717C119.102 90.4255 119.704 88.2363 119.704 85.4043V71.0488C119.704 68.2331 119.094 66.0521 117.873 64.5059C116.669 62.9434 114.886 62.1621 112.526 62.1621C110.183 62.1621 108.409 62.9434 107.204 64.5059C106 66.0521 105.397 68.2331 105.397 71.0488V85.4043ZM146.535 96V62.9922L137.893 66.3613L137.868 63.8223L148.244 59.9648H149.196V96H146.535ZM170.998 85.2822V71.1709C170.998 67.5576 171.853 64.7744 173.562 62.8213C175.287 60.8519 177.696 59.8672 180.788 59.8672C183.881 59.8672 186.289 60.8519 188.015 62.8213C189.756 64.7744 190.627 67.5576 190.627 71.1709V85.2822C190.627 88.9118 189.756 91.7113 188.015 93.6807C186.289 95.6338 183.881 96.6022 180.788 96.5859C177.696 96.5697 175.287 95.5931 173.562 93.6562C171.853 91.7031 170.998 88.9118 170.998 85.2822ZM173.659 85.4043C173.659 88.2526 174.261 90.4499 175.466 91.9961C176.67 93.526 178.444 94.291 180.788 94.291C183.164 94.291 184.955 93.5179 186.159 91.9717C187.364 90.4255 187.966 88.2363 187.966 85.4043V71.0488C187.966 68.2331 187.355 66.0521 186.135 64.5059C184.93 62.9434 183.148 62.1621 180.788 62.1621C178.444 62.1621 176.67 62.9434 175.466 64.5059C174.261 66.0521 173.659 68.2331 173.659 71.0488V85.4043ZM214.797 96V62.9922L206.154 66.3613L206.13 63.8223L216.506 59.9648H217.458V96H214.797ZM239.26 85.2822V71.1709C239.26 67.5576 240.114 64.7744 241.823 62.8213C243.549 60.8519 245.957 59.8672 249.05 59.8672C252.142 59.8672 254.551 60.8519 256.276 62.8213C258.018 64.7744 258.889 67.5576 258.889 71.1709V85.2822C258.889 88.9118 258.018 91.7113 256.276 93.6807C254.551 95.6338 252.142 96.6022 249.05 96.5859C245.957 96.5697 243.549 95.5931 241.823 93.6562C240.114 91.7031 239.26 88.9118 239.26 85.2822ZM241.921 85.4043C241.921 88.2526 242.523 90.4499 243.728 91.9961C244.932 93.526 246.706 94.291 249.05 94.291C251.426 94.291 253.216 93.5179 254.421 91.9717C255.625 90.4255 256.228 88.2363 256.228 85.4043V71.0488C256.228 68.2331 255.617 66.0521 254.396 64.5059C253.192 62.9434 251.41 62.1621 249.05 62.1621C246.706 62.1621 244.932 62.9434 243.728 64.5059C242.523 66.0521 241.921 68.2331 241.921 71.0488V85.4043ZM283.059 96V62.9922L274.416 66.3613L274.392 63.8223L284.768 59.9648H285.72V96H283.059ZM307.521 85.2822V71.1709C307.521 67.5576 308.376 64.7744 310.085 62.8213C311.81 60.8519 314.219 59.8672 317.312 59.8672C320.404 59.8672 322.813 60.8519 324.538 62.8213C326.28 64.7744 327.15 67.5576 327.15 71.1709V85.2822C327.15 88.9118 326.28 91.7113 324.538 93.6807C322.813 95.6338 320.404 96.6022 317.312 96.5859C314.219 96.5697 311.81 95.5931 310.085 93.6562C308.376 91.7031 307.521 88.9118 307.521 85.2822ZM310.183 85.4043C310.183 88.2526 310.785 90.4499 311.989 91.9961C313.194 93.526 314.968 94.291 317.312 94.291C319.688 94.291 321.478 93.5179 322.683 91.9717C323.887 90.4255 324.489 88.2363 324.489 85.4043V71.0488C324.489 68.2331 323.879 66.0521 322.658 64.5059C321.454 62.9434 319.672 62.1621 317.312 62.1621C314.968 62.1621 313.194 62.9434 311.989 64.5059C310.785 66.0521 310.183 68.2331 310.183 71.0488V85.4043ZM341.652 85.2822V71.1709C341.652 67.5576 342.507 64.7744 344.216 62.8213C345.941 60.8519 348.35 59.8672 351.442 59.8672C354.535 59.8672 356.944 60.8519 358.669 62.8213C360.41 64.7744 361.281 67.5576 361.281 71.1709V85.2822C361.281 88.9118 360.41 91.7113 358.669 93.6807C356.944 95.6338 354.535 96.6022 351.442 96.5859C348.35 96.5697 345.941 95.5931 344.216 93.6562C342.507 91.7031 341.652 88.9118 341.652 85.2822ZM344.313 85.4043C344.313 88.2526 344.916 90.4499 346.12 91.9961C347.325 93.526 349.099 94.291 351.442 94.291C353.819 94.291 355.609 93.5179 356.813 91.9717C358.018 90.4255 358.62 88.2363 358.62 85.4043V71.0488C358.62 68.2331 358.01 66.0521 356.789 64.5059C355.585 62.9434 353.802 62.1621 351.442 62.1621C349.099 62.1621 347.325 62.9434 346.12 64.5059C344.916 66.0521 344.313 68.2331 344.313 71.0488V85.4043ZM385.451 96V62.9922L376.809 66.3613L376.784 63.8223L387.16 59.9648H388.112V96H385.451ZM409.914 85.2822V71.1709C409.914 67.5576 410.769 64.7744 412.478 62.8213C414.203 60.8519 416.612 59.8672 419.704 59.8672C422.797 59.8672 425.205 60.8519 426.931 62.8213C428.672 64.7744 429.543 67.5576 429.543 71.1709V85.2822C429.543 88.9118 428.672 91.7113 426.931 93.6807C425.205 95.6338 422.797 96.6022 419.704 96.5859C416.612 96.5697 414.203 95.5931 412.478 93.6562C410.769 91.7031 409.914 88.9118 409.914 85.2822ZM412.575 85.4043C412.575 88.2526 413.177 90.4499 414.382 91.9961C415.586 93.526 417.36 94.291 419.704 94.291C422.08 94.291 423.871 93.5179 425.075 91.9717C426.28 90.4255 426.882 88.2363 426.882 85.4043V71.0488C426.882 68.2331 426.271 66.0521 425.051 64.5059C423.846 62.9434 422.064 62.1621 419.704 62.1621C417.36 62.1621 415.586 62.9434 414.382 64.5059C413.177 66.0521 412.575 68.2331 412.575 71.0488V85.4043ZM453.713 96V62.9922L445.07 66.3613L445.046 63.8223L455.422 59.9648H456.374V96H453.713ZM10.0117 155V121.992L1.36914 125.361L1.34473 122.822L11.7207 118.965H12.6729V155H10.0117ZM34.4746 144.282V130.171C34.4746 126.558 35.3291 123.774 37.0381 121.821C38.7633 119.852 41.1722 118.867 44.2646 118.867C47.3571 118.867 49.766 119.852 51.4912 121.821C53.2327 123.774 54.1035 126.558 54.1035 130.171V144.282C54.1035 147.912 53.2327 150.711 51.4912 152.681C49.766 154.634 47.3571 155.602 44.2646 155.586C41.1722 155.57 38.7633 154.593 37.0381 152.656C35.3291 150.703 34.4746 147.912 34.4746 144.282ZM37.1357 144.404C37.1357 147.253 37.738 149.45 38.9424 150.996C40.1468 152.526 41.9209 153.291 44.2646 153.291C46.641 153.291 48.4313 152.518 49.6357 150.972C50.8402 149.425 51.4424 147.236 51.4424 144.404V130.049C51.4424 127.233 50.832 125.052 49.6113 123.506C48.4069 121.943 46.6247 121.162 44.2646 121.162C41.9209 121.162 40.1468 121.943 38.9424 123.506C37.738 125.052 37.1357 127.233 37.1357 130.049V144.404ZM78.2734 155V121.992L69.6309 125.361L69.6064 122.822L79.9824 118.965H80.9346V155H78.2734ZM102.736 144.282V130.171C102.736 126.558 103.591 123.774 105.3 121.821C107.025 119.852 109.434 118.867 112.526 118.867C115.619 118.867 118.028 119.852 119.753 121.821C121.494 123.774 122.365 126.558 122.365 130.171V144.282C122.365 147.912 121.494 150.711 119.753 152.681C118.028 154.634 115.619 155.602 112.526 155.586C109.434 155.57 107.025 154.593 105.3 152.656C103.591 150.703 102.736 147.912 102.736 144.282ZM105.397 144.404C105.397 147.253 106 149.45 107.204 150.996C108.409 152.526 110.183 153.291 112.526 153.291C114.903 153.291 116.693 152.518 117.897 150.972C119.102 149.425 119.704 147.236 119.704 144.404V130.049C119.704 127.233 119.094 125.052 117.873 123.506C116.669 121.943 114.886 121.162 112.526 121.162C110.183 121.162 108.409 121.943 107.204 123.506C106 125.052 105.397 127.233 105.397 130.049V144.404ZM136.867 144.282V130.171C136.867 126.558 137.722 123.774 139.431 121.821C141.156 119.852 143.565 118.867 146.657 118.867C149.75 118.867 152.159 119.852 153.884 121.821C155.625 123.774 156.496 126.558 156.496 130.171V144.282C156.496 147.912 155.625 150.711 153.884 152.681C152.159 154.634 149.75 155.602 146.657 155.586C143.565 155.57 141.156 154.593 139.431 152.656C137.722 150.703 136.867 147.912 136.867 144.282ZM139.528 144.404C139.528 147.253 140.131 149.45 141.335 150.996C142.539 152.526 144.313 153.291 146.657 153.291C149.034 153.291 150.824 152.518 152.028 150.972C153.233 149.425 153.835 147.236 153.835 144.404V130.049C153.835 127.233 153.225 125.052 152.004 123.506C150.799 121.943 149.017 121.162 146.657 121.162C144.313 121.162 142.539 121.943 141.335 123.506C140.131 125.052 139.528 127.233 139.528 130.049V144.404ZM170.998 144.282V130.171C170.998 126.558 171.853 123.774 173.562 121.821C175.287 119.852 177.696 118.867 180.788 118.867C183.881 118.867 186.289 119.852 188.015 121.821C189.756 123.774 190.627 126.558 190.627 130.171V144.282C190.627 147.912 189.756 150.711 188.015 152.681C186.289 154.634 183.881 155.602 180.788 155.586C177.696 155.57 175.287 154.593 173.562 152.656C171.853 150.703 170.998 147.912 170.998 144.282ZM173.659 144.404C173.659 147.253 174.261 149.45 175.466 150.996C176.67 152.526 178.444 153.291 180.788 153.291C183.164 153.291 184.955 152.518 186.159 150.972C187.364 149.425 187.966 147.236 187.966 144.404V130.049C187.966 127.233 187.355 125.052 186.135 123.506C184.93 121.943 183.148 121.162 180.788 121.162C178.444 121.162 176.67 121.943 175.466 123.506C174.261 125.052 173.659 127.233 173.659 130.049V144.404ZM214.797 155V121.992L206.154 125.361L206.13 122.822L216.506 118.965H217.458V155H214.797ZM248.928 155V121.992L240.285 125.361L240.261 122.822L250.637 118.965H251.589V155H248.928ZM273.391 144.282V130.171C273.391 126.558 274.245 123.774 275.954 121.821C277.679 119.852 280.088 118.867 283.181 118.867C286.273 118.867 288.682 119.852 290.407 121.821C292.149 123.774 293.02 126.558 293.02 130.171V144.282C293.02 147.912 292.149 150.711 290.407 152.681C288.682 154.634 286.273 155.602 283.181 155.586C280.088 155.57 277.679 154.593 275.954 152.656C274.245 150.703 273.391 147.912 273.391 144.282ZM276.052 144.404C276.052 147.253 276.654 149.45 277.858 150.996C279.063 152.526 280.837 153.291 283.181 153.291C285.557 153.291 287.347 152.518 288.552 150.972C289.756 149.425 290.358 147.236 290.358 144.404V130.049C290.358 127.233 289.748 125.052 288.527 123.506C287.323 121.943 285.541 121.162 283.181 121.162C280.837 121.162 279.063 121.943 277.858 123.506C276.654 125.052 276.052 127.233 276.052 130.049V144.404ZM317.189 155V121.992L308.547 125.361L308.522 122.822L318.898 118.965H319.851V155H317.189ZM341.652 144.282V130.171C341.652 126.558 342.507 123.774 344.216 121.821C345.941 119.852 348.35 118.867 351.442 118.867C354.535 118.867 356.944 119.852 358.669 121.821C360.41 123.774 361.281 126.558 361.281 130.171V144.282C361.281 147.912 360.41 150.711 358.669 152.681C356.944 154.634 354.535 155.602 351.442 155.586C348.35 155.57 345.941 154.593 344.216 152.656C342.507 150.703 341.652 147.912 341.652 144.282ZM344.313 144.404C344.313 147.253 344.916 149.45 346.12 150.996C347.325 152.526 349.099 153.291 351.442 153.291C353.819 153.291 355.609 152.518 356.813 150.972C358.018 149.425 358.62 147.236 358.62 144.404V130.049C358.62 127.233 358.01 125.052 356.789 123.506C355.585 121.943 353.802 121.162 351.442 121.162C349.099 121.162 347.325 121.943 346.12 123.506C344.916 125.052 344.313 127.233 344.313 130.049V144.404ZM375.783 144.282V130.171C375.783 126.558 376.638 123.774 378.347 121.821C380.072 119.852 382.481 118.867 385.573 118.867C388.666 118.867 391.075 119.852 392.8 121.821C394.541 123.774 395.412 126.558 395.412 130.171V144.282C395.412 147.912 394.541 150.711 392.8 152.681C391.075 154.634 388.666 155.602 385.573 155.586C382.481 155.57 380.072 154.593 378.347 152.656C376.638 150.703 375.783 147.912 375.783 144.282ZM378.444 144.404C378.444 147.253 379.047 149.45 380.251 150.996C381.455 152.526 383.229 153.291 385.573 153.291C387.95 153.291 389.74 152.518 390.944 150.972C392.149 149.425 392.751 147.236 392.751 144.404V130.049C392.751 127.233 392.141 125.052 390.92 123.506C389.715 121.943 387.933 121.162 385.573 121.162C383.229 121.162 381.455 121.943 380.251 123.506C379.047 125.052 378.444 127.233 378.444 130.049V144.404ZM409.914 144.282V130.171C409.914 126.558 410.769 123.774 412.478 121.821C414.203 119.852 416.612 118.867 419.704 118.867C422.797 118.867 425.205 119.852 426.931 121.821C428.672 123.774 429.543 126.558 429.543 130.171V144.282C429.543 147.912 428.672 150.711 426.931 152.681C425.205 154.634 422.797 155.602 419.704 155.586C416.612 155.57 414.203 154.593 412.478 152.656C410.769 150.703 409.914 147.912 409.914 144.282ZM412.575 144.404C412.575 147.253 413.177 149.45 414.382 150.996C415.586 152.526 417.36 153.291 419.704 153.291C422.08 153.291 423.871 152.518 425.075 150.972C426.28 149.425 426.882 147.236 426.882 144.404V130.049C426.882 127.233 426.271 125.052 425.051 123.506C423.846 121.943 422.064 121.162 419.704 121.162C417.36 121.162 415.586 121.943 414.382 123.506C413.177 125.052 412.575 127.233 412.575 130.049V144.404ZM453.713 155V121.992L445.07 125.361L445.046 122.822L455.422 118.965H456.374V155H453.713ZM0.34375 203.282V189.171C0.34375 185.558 1.19824 182.774 2.90723 180.821C4.63249 178.852 7.04134 177.867 10.1338 177.867C13.2262 177.867 15.6351 178.852 17.3604 180.821C19.1019 182.774 19.9727 185.558 19.9727 189.171V203.282C19.9727 206.912 19.1019 209.711 17.3604 211.681C15.6351 213.634 13.2262 214.602 10.1338 214.586C7.04134 214.57 4.63249 213.593 2.90723 211.656C1.19824 209.703 0.34375 206.912 0.34375 203.282ZM3.00488 203.404C3.00488 206.253 3.6071 208.45 4.81152 209.996C6.01595 211.526 7.79004 212.291 10.1338 212.291C12.5101 212.291 14.3005 211.518 15.5049 209.972C16.7093 208.425 17.3115 206.236 17.3115 203.404V189.049C17.3115 186.233 16.7012 184.052 15.4805 182.506C14.276 180.943 12.4938 180.162 10.1338 180.162C7.79004 180.162 6.01595 180.943 4.81152 182.506C3.6071 184.052 3.00488 186.233 3.00488 189.049V203.404ZM44.1426 214V180.992L35.5 184.361L35.4756 181.822L45.8516 177.965H46.8037V214H44.1426ZM68.6055 203.282V189.171C68.6055 185.558 69.46 182.774 71.1689 180.821C72.8942 178.852 75.3031 177.867 78.3955 177.867C81.488 177.867 83.8968 178.852 85.6221 180.821C87.3636 182.774 88.2344 185.558 88.2344 189.171V203.282C88.2344 206.912 87.3636 209.711 85.6221 211.681C83.8968 213.634 81.488 214.602 78.3955 214.586C75.3031 214.57 72.8942 213.593 71.1689 211.656C69.46 209.703 68.6055 206.912 68.6055 203.282ZM71.2666 203.404C71.2666 206.253 71.8688 208.45 73.0732 209.996C74.2777 211.526 76.0518 212.291 78.3955 212.291C80.7718 212.291 82.5622 211.518 83.7666 209.972C84.971 208.425 85.5732 206.236 85.5732 203.404V189.049C85.5732 186.233 84.9629 184.052 83.7422 182.506C82.5378 180.943 80.7555 180.162 78.3955 180.162C76.0518 180.162 74.2777 180.943 73.0732 182.506C71.8688 184.052 71.2666 186.233 71.2666 189.049V203.404ZM102.736 203.282V189.171C102.736 185.558 103.591 182.774 105.3 180.821C107.025 178.852 109.434 177.867 112.526 177.867C115.619 177.867 118.028 178.852 119.753 180.821C121.494 182.774 122.365 185.558 122.365 189.171V203.282C122.365 206.912 121.494 209.711 119.753 211.681C118.028 213.634 115.619 214.602 112.526 214.586C109.434 214.57 107.025 213.593 105.3 211.656C103.591 209.703 102.736 206.912 102.736 203.282ZM105.397 203.404C105.397 206.253 106 208.45 107.204 209.996C108.409 211.526 110.183 212.291 112.526 212.291C114.903 212.291 116.693 211.518 117.897 209.972C119.102 208.425 119.704 206.236 119.704 203.404V189.049C119.704 186.233 119.094 184.052 117.873 182.506C116.669 180.943 114.886 180.162 112.526 180.162C110.183 180.162 108.409 180.943 107.204 182.506C106 184.052 105.397 186.233 105.397 189.049V203.404ZM146.535 214V180.992L137.893 184.361L137.868 181.822L148.244 177.965H149.196V214H146.535ZM170.998 203.282V189.171C170.998 185.558 171.853 182.774 173.562 180.821C175.287 178.852 177.696 177.867 180.788 177.867C183.881 177.867 186.289 178.852 188.015 180.821C189.756 182.774 190.627 185.558 190.627 189.171V203.282C190.627 206.912 189.756 209.711 188.015 211.681C186.289 213.634 183.881 214.602 180.788 214.586C177.696 214.57 175.287 213.593 173.562 211.656C171.853 209.703 170.998 206.912 170.998 203.282ZM173.659 203.404C173.659 206.253 174.261 208.45 175.466 209.996C176.67 211.526 178.444 212.291 180.788 212.291C183.164 212.291 184.955 211.518 186.159 209.972C187.364 208.425 187.966 206.236 187.966 203.404V189.049C187.966 186.233 187.355 184.052 186.135 182.506C184.93 180.943 183.148 180.162 180.788 180.162C178.444 180.162 176.67 180.943 175.466 182.506C174.261 184.052 173.659 186.233 173.659 189.049V203.404ZM214.797 214V180.992L206.154 184.361L206.13 181.822L216.506 177.965H217.458V214H214.797ZM239.26 203.282V189.171C239.26 185.558 240.114 182.774 241.823 180.821C243.549 178.852 245.957 177.867 249.05 177.867C252.142 177.867 254.551 178.852 256.276 180.821C258.018 182.774 258.889 185.558 258.889 189.171V203.282C258.889 206.912 258.018 209.711 256.276 211.681C254.551 213.634 252.142 214.602 249.05 214.586C245.957 214.57 243.549 213.593 241.823 211.656C240.114 209.703 239.26 206.912 239.26 203.282ZM241.921 203.404C241.921 206.253 242.523 208.45 243.728 209.996C244.932 211.526 246.706 212.291 249.05 212.291C251.426 212.291 253.216 211.518 254.421 209.972C255.625 208.425 256.228 206.236 256.228 203.404V189.049C256.228 186.233 255.617 184.052 254.396 182.506C253.192 180.943 251.41 180.162 249.05 180.162C246.706 180.162 244.932 180.943 243.728 182.506C242.523 184.052 241.921 186.233 241.921 189.049V203.404ZM283.059 214V180.992L274.416 184.361L274.392 181.822L284.768 177.965H285.72V214H283.059ZM307.521 203.282V189.171C307.521 185.558 308.376 182.774 310.085 180.821C311.81 178.852 314.219 177.867 317.312 177.867C320.404 177.867 322.813 178.852 324.538 180.821C326.28 182.774 327.15 185.558 327.15 189.171V203.282C327.15 206.912 326.28 209.711 324.538 211.681C322.813 213.634 320.404 214.602 317.312 214.586C314.219 214.57 311.81 213.593 310.085 211.656C308.376 209.703 307.521 206.912 307.521 203.282ZM310.183 203.404C310.183 206.253 310.785 208.45 311.989 209.996C313.194 211.526 314.968 212.291 317.312 212.291C319.688 212.291 321.478 211.518 322.683 209.972C323.887 208.425 324.489 206.236 324.489 203.404V189.049C324.489 186.233 323.879 184.052 322.658 182.506C321.454 180.943 319.672 180.162 317.312 180.162C314.968 180.162 313.194 180.943 311.989 182.506C310.785 184.052 310.183 186.233 310.183 189.049V203.404ZM341.652 203.282V189.171C341.652 185.558 342.507 182.774 344.216 180.821C345.941 178.852 348.35 177.867 351.442 177.867C354.535 177.867 356.944 178.852 358.669 180.821C360.41 182.774 361.281 185.558 361.281 189.171V203.282C361.281 206.912 360.41 209.711 358.669 211.681C356.944 213.634 354.535 214.602 351.442 214.586C348.35 214.57 345.941 213.593 344.216 211.656C342.507 209.703 341.652 206.912 341.652 203.282ZM344.313 203.404C344.313 206.253 344.916 208.45 346.12 209.996C347.325 211.526 349.099 212.291 351.442 212.291C353.819 212.291 355.609 211.518 356.813 209.972C358.018 208.425 358.62 206.236 358.62 203.404V189.049C358.62 186.233 358.01 184.052 356.789 182.506C355.585 180.943 353.802 180.162 351.442 180.162C349.099 180.162 347.325 180.943 346.12 182.506C344.916 184.052 344.313 186.233 344.313 189.049V203.404ZM385.451 214V180.992L376.809 184.361L376.784 181.822L387.16 177.965H388.112V214H385.451ZM409.914 203.282V189.171C409.914 185.558 410.769 182.774 412.478 180.821C414.203 178.852 416.612 177.867 419.704 177.867C422.797 177.867 425.205 178.852 426.931 180.821C428.672 182.774 429.543 185.558 429.543 189.171V203.282C429.543 206.912 428.672 209.711 426.931 211.681C425.205 213.634 422.797 214.602 419.704 214.586C416.612 214.57 414.203 213.593 412.478 211.656C410.769 209.703 409.914 206.912 409.914 203.282ZM412.575 203.404C412.575 206.253 413.177 208.45 414.382 209.996C415.586 211.526 417.36 212.291 419.704 212.291C422.08 212.291 423.871 211.518 425.075 209.972C426.28 208.425 426.882 206.236 426.882 203.404V189.049C426.882 186.233 426.271 184.052 425.051 182.506C423.846 180.943 422.064 180.162 419.704 180.162C417.36 180.162 415.586 180.943 414.382 182.506C413.177 184.052 412.575 186.233 412.575 189.049V203.404ZM453.713 214V180.992L445.07 184.361L445.046 181.822L455.422 177.965H456.374V214H453.713ZM10.0117 273V239.992L1.36914 243.361L1.34473 240.822L11.7207 236.965H12.6729V273H10.0117ZM34.4746 262.282V248.171C34.4746 244.558 35.3291 241.774 37.0381 239.821C38.7633 237.852 41.1722 236.867 44.2646 236.867C47.3571 236.867 49.766 237.852 51.4912 239.821C53.2327 241.774 54.1035 244.558 54.1035 248.171V262.282C54.1035 265.912 53.2327 268.711 51.4912 270.681C49.766 272.634 47.3571 273.602 44.2646 273.586C41.1722 273.57 38.7633 272.593 37.0381 270.656C35.3291 268.703 34.4746 265.912 34.4746 262.282ZM37.1357 262.404C37.1357 265.253 37.738 267.45 38.9424 268.996C40.1468 270.526 41.9209 271.291 44.2646 271.291C46.641 271.291 48.4313 270.518 49.6357 268.972C50.8402 267.425 51.4424 265.236 51.4424 262.404V248.049C51.4424 245.233 50.832 243.052 49.6113 241.506C48.4069 239.943 46.6247 239.162 44.2646 239.162C41.9209 239.162 40.1468 239.943 38.9424 241.506C37.738 243.052 37.1357 245.233 37.1357 248.049V262.404ZM78.2734 273V239.992L69.6309 243.361L69.6064 240.822L79.9824 236.965H80.9346V273H78.2734ZM102.736 262.282V248.171C102.736 244.558 103.591 241.774 105.3 239.821C107.025 237.852 109.434 236.867 112.526 236.867C115.619 236.867 118.028 237.852 119.753 239.821C121.494 241.774 122.365 244.558 122.365 248.171V262.282C122.365 265.912 121.494 268.711 119.753 270.681C118.028 272.634 115.619 273.602 112.526 273.586C109.434 273.57 107.025 272.593 105.3 270.656C103.591 268.703 102.736 265.912 102.736 262.282ZM105.397 262.404C105.397 265.253 106 267.45 107.204 268.996C108.409 270.526 110.183 271.291 112.526 271.291C114.903 271.291 116.693 270.518 117.897 268.972C119.102 267.425 119.704 265.236 119.704 262.404V248.049C119.704 245.233 119.094 243.052 117.873 241.506C116.669 239.943 114.886 239.162 112.526 239.162C110.183 239.162 108.409 239.943 107.204 241.506C106 243.052 105.397 245.233 105.397 248.049V262.404ZM136.867 262.282V248.171C136.867 244.558 137.722 241.774 139.431 239.821C141.156 237.852 143.565 236.867 146.657 236.867C149.75 236.867 152.159 237.852 153.884 239.821C155.625 241.774 156.496 244.558 156.496 248.171V262.282C156.496 265.912 155.625 268.711 153.884 270.681C152.159 272.634 149.75 273.602 146.657 273.586C143.565 273.57 141.156 272.593 139.431 270.656C137.722 268.703 136.867 265.912 136.867 262.282ZM139.528 262.404C139.528 265.253 140.131 267.45 141.335 268.996C142.539 270.526 144.313 271.291 146.657 271.291C149.034 271.291 150.824 270.518 152.028 268.972C153.233 267.425 153.835 265.236 153.835 262.404V248.049C153.835 245.233 153.225 243.052 152.004 241.506C150.799 239.943 149.017 239.162 146.657 239.162C144.313 239.162 142.539 239.943 141.335 241.506C140.131 243.052 139.528 245.233 139.528 248.049V262.404ZM170.998 262.282V248.171C170.998 244.558 171.853 241.774 173.562 239.821C175.287 237.852 177.696 236.867 180.788 236.867C183.881 236.867 186.289 237.852 188.015 239.821C189.756 241.774 190.627 244.558 190.627 248.171V262.282C190.627 265.912 189.756 268.711 188.015 270.681C186.289 272.634 183.881 273.602 180.788 273.586C177.696 273.57 175.287 272.593 173.562 270.656C171.853 268.703 170.998 265.912 170.998 262.282ZM173.659 262.404C173.659 265.253 174.261 267.45 175.466 268.996C176.67 270.526 178.444 271.291 180.788 271.291C183.164 271.291 184.955 270.518 186.159 268.972C187.364 267.425 187.966 265.236 187.966 262.404V248.049C187.966 245.233 187.355 243.052 186.135 241.506C184.93 239.943 183.148 239.162 180.788 239.162C178.444 239.162 176.67 239.943 175.466 241.506C174.261 243.052 173.659 245.233 173.659 248.049V262.404ZM214.797 273V239.992L206.154 243.361L206.13 240.822L216.506 236.965H217.458V273H214.797ZM248.928 273V239.992L240.285 243.361L240.261 240.822L250.637 236.965H251.589V273H248.928ZM273.391 262.282V248.171C273.391 244.558 274.245 241.774 275.954 239.821C277.679 237.852 280.088 236.867 283.181 236.867C286.273 236.867 288.682 237.852 290.407 239.821C292.149 241.774 293.02 244.558 293.02 248.171V262.282C293.02 265.912 292.149 268.711 290.407 270.681C288.682 272.634 286.273 273.602 283.181 273.586C280.088 273.57 277.679 272.593 275.954 270.656C274.245 268.703 273.391 265.912 273.391 262.282ZM276.052 262.404C276.052 265.253 276.654 267.45 277.858 268.996C279.063 270.526 280.837 271.291 283.181 271.291C285.557 271.291 287.347 270.518 288.552 268.972C289.756 267.425 290.358 265.236 290.358 262.404V248.049C290.358 245.233 289.748 243.052 288.527 241.506C287.323 239.943 285.541 239.162 283.181 239.162C280.837 239.162 279.063 239.943 277.858 241.506C276.654 243.052 276.052 245.233 276.052 248.049V262.404ZM317.189 273V239.992L308.547 243.361L308.522 240.822L318.898 236.965H319.851V273H317.189ZM341.652 262.282V248.171C341.652 244.558 342.507 241.774 344.216 239.821C345.941 237.852 348.35 236.867 351.442 236.867C354.535 236.867 356.944 237.852 358.669 239.821C360.41 241.774 361.281 244.558 361.281 248.171V262.282C361.281 265.912 360.41 268.711 358.669 270.681C356.944 272.634 354.535 273.602 351.442 273.586C348.35 273.57 345.941 272.593 344.216 270.656C342.507 268.703 341.652 265.912 341.652 262.282ZM344.313 262.404C344.313 265.253 344.916 267.45 346.12 268.996C347.325 270.526 349.099 271.291 351.442 271.291C353.819 271.291 355.609 270.518 356.813 268.972C358.018 267.425 358.62 265.236 358.62 262.404V248.049C358.62 245.233 358.01 243.052 356.789 241.506C355.585 239.943 353.802 239.162 351.442 239.162C349.099 239.162 347.325 239.943 346.12 241.506C344.916 243.052 344.313 245.233 344.313 248.049V262.404ZM375.783 262.282V248.171C375.783 244.558 376.638 241.774 378.347 239.821C380.072 237.852 382.481 236.867 385.573 236.867C388.666 236.867 391.075 237.852 392.8 239.821C394.541 241.774 395.412 244.558 395.412 248.171V262.282C395.412 265.912 394.541 268.711 392.8 270.681C391.075 272.634 388.666 273.602 385.573 273.586C382.481 273.57 380.072 272.593 378.347 270.656C376.638 268.703 375.783 265.912 375.783 262.282ZM378.444 262.404C378.444 265.253 379.047 267.45 380.251 268.996C381.455 270.526 383.229 271.291 385.573 271.291C387.95 271.291 389.74 270.518 390.944 268.972C392.149 267.425 392.751 265.236 392.751 262.404V248.049C392.751 245.233 392.141 243.052 390.92 241.506C389.715 239.943 387.933 239.162 385.573 239.162C383.229 239.162 381.455 239.943 380.251 241.506C379.047 243.052 378.444 245.233 378.444 248.049V262.404ZM409.914 262.282V248.171C409.914 244.558 410.769 241.774 412.478 239.821C414.203 237.852 416.612 236.867 419.704 236.867C422.797 236.867 425.205 237.852 426.931 239.821C428.672 241.774 429.543 244.558 429.543 248.171V262.282C429.543 265.912 428.672 268.711 426.931 270.681C425.205 272.634 422.797 273.602 419.704 273.586C416.612 273.57 414.203 272.593 412.478 270.656C410.769 268.703 409.914 265.912 409.914 262.282ZM412.575 262.404C412.575 265.253 413.177 267.45 414.382 268.996C415.586 270.526 417.36 271.291 419.704 271.291C422.08 271.291 423.871 270.518 425.075 268.972C426.28 267.425 426.882 265.236 426.882 262.404V248.049C426.882 245.233 426.271 243.052 425.051 241.506C423.846 239.943 422.064 239.162 419.704 239.162C417.36 239.162 415.586 239.943 414.382 241.506C413.177 243.052 412.575 245.233 412.575 248.049V262.404ZM453.713 273V239.992L445.07 243.361L445.046 240.822L455.422 236.965H456.374V273H453.713ZM0.34375 321.282V307.171C0.34375 303.558 1.19824 300.774 2.90723 298.821C4.63249 296.852 7.04134 295.867 10.1338 295.867C13.2262 295.867 15.6351 296.852 17.3604 298.821C19.1019 300.774 19.9727 303.558 19.9727 307.171V321.282C19.9727 324.912 19.1019 327.711 17.3604 329.681C15.6351 331.634 13.2262 332.602 10.1338 332.586C7.04134 332.57 4.63249 331.593 2.90723 329.656C1.19824 327.703 0.34375 324.912 0.34375 321.282ZM3.00488 321.404C3.00488 324.253 3.6071 326.45 4.81152 327.996C6.01595 329.526 7.79004 330.291 10.1338 330.291C12.5101 330.291 14.3005 329.518 15.5049 327.972C16.7093 326.425 17.3115 324.236 17.3115 321.404V307.049C17.3115 304.233 16.7012 302.052 15.4805 300.506C14.276 298.943 12.4938 298.162 10.1338 298.162C7.79004 298.162 6.01595 298.943 4.81152 300.506C3.6071 302.052 3.00488 304.233 3.00488 307.049V321.404ZM44.1426 332V298.992L35.5 302.361L35.4756 299.822L45.8516 295.965H46.8037V332H44.1426ZM68.6055 321.282V307.171C68.6055 303.558 69.46 300.774 71.1689 298.821C72.8942 296.852 75.3031 295.867 78.3955 295.867C81.488 295.867 83.8968 296.852 85.6221 298.821C87.3636 300.774 88.2344 303.558 88.2344 307.171V321.282C88.2344 324.912 87.3636 327.711 85.6221 329.681C83.8968 331.634 81.488 332.602 78.3955 332.586C75.3031 332.57 72.8942 331.593 71.1689 329.656C69.46 327.703 68.6055 324.912 68.6055 321.282ZM71.2666 321.404C71.2666 324.253 71.8688 326.45 73.0732 327.996C74.2777 329.526 76.0518 330.291 78.3955 330.291C80.7718 330.291 82.5622 329.518 83.7666 327.972C84.971 326.425 85.5732 324.236 85.5732 321.404V307.049C85.5732 304.233 84.9629 302.052 83.7422 300.506C82.5378 298.943 80.7555 298.162 78.3955 298.162C76.0518 298.162 74.2777 298.943 73.0732 300.506C71.8688 302.052 71.2666 304.233 71.2666 307.049V321.404ZM102.736 321.282V307.171C102.736 303.558 103.591 300.774 105.3 298.821C107.025 296.852 109.434 295.867 112.526 295.867C115.619 295.867 118.028 296.852 119.753 298.821C121.494 300.774 122.365 303.558 122.365 307.171V321.282C122.365 324.912 121.494 327.711 119.753 329.681C118.028 331.634 115.619 332.602 112.526 332.586C109.434 332.57 107.025 331.593 105.3 329.656C103.591 327.703 102.736 324.912 102.736 321.282ZM105.397 321.404C105.397 324.253 106 326.45 107.204 327.996C108.409 329.526 110.183 330.291 112.526 330.291C114.903 330.291 116.693 329.518 117.897 327.972C119.102 326.425 119.704 324.236 119.704 321.404V307.049C119.704 304.233 119.094 302.052 117.873 300.506C116.669 298.943 114.886 298.162 112.526 298.162C110.183 298.162 108.409 298.943 107.204 300.506C106 302.052 105.397 304.233 105.397 307.049V321.404ZM146.535 332V298.992L137.893 302.361L137.868 299.822L148.244 295.965H149.196V332H146.535ZM170.998 321.282V307.171C170.998 303.558 171.853 300.774 173.562 298.821C175.287 296.852 177.696 295.867 180.788 295.867C183.881 295.867 186.289 296.852 188.015 298.821C189.756 300.774 190.627 303.558 190.627 307.171V321.282C190.627 324.912 189.756 327.711 188.015 329.681C186.289 331.634 183.881 332.602 180.788 332.586C177.696 332.57 175.287 331.593 173.562 329.656C171.853 327.703 170.998 324.912 170.998 321.282ZM173.659 321.404C173.659 324.253 174.261 326.45 175.466 327.996C176.67 329.526 178.444 330.291 180.788 330.291C183.164 330.291 184.955 329.518 186.159 327.972C187.364 326.425 187.966 324.236 187.966 321.404V307.049C187.966 304.233 187.355 302.052 186.135 300.506C184.93 298.943 183.148 298.162 180.788 298.162C178.444 298.162 176.67 298.943 175.466 300.506C174.261 302.052 173.659 304.233 173.659 307.049V321.404ZM214.797 332V298.992L206.154 302.361L206.13 299.822L216.506 295.965H217.458V332H214.797ZM239.26 321.282V307.171C239.26 303.558 240.114 300.774 241.823 298.821C243.549 296.852 245.957 295.867 249.05 295.867C252.142 295.867 254.551 296.852 256.276 298.821C258.018 300.774 258.889 303.558 258.889 307.171V321.282C258.889 324.912 258.018 327.711 256.276 329.681C254.551 331.634 252.142 332.602 249.05 332.586C245.957 332.57 243.549 331.593 241.823 329.656C240.114 327.703 239.26 324.912 239.26 321.282ZM241.921 321.404C241.921 324.253 242.523 326.45 243.728 327.996C244.932 329.526 246.706 330.291 249.05 330.291C251.426 330.291 253.216 329.518 254.421 327.972C255.625 326.425 256.228 324.236 256.228 321.404V307.049C256.228 304.233 255.617 302.052 254.396 300.506C253.192 298.943 251.41 298.162 249.05 298.162C246.706 298.162 244.932 298.943 243.728 300.506C242.523 302.052 241.921 304.233 241.921 307.049V321.404ZM283.059 332V298.992L274.416 302.361L274.392 299.822L284.768 295.965H285.72V332H283.059ZM307.521 321.282V307.171C307.521 303.558 308.376 300.774 310.085 298.821C311.81 296.852 314.219 295.867 317.312 295.867C320.404 295.867 322.813 296.852 324.538 298.821C326.28 300.774 327.15 303.558 327.15 307.171V321.282C327.15 324.912 326.28 327.711 324.538 329.681C322.813 331.634 320.404 332.602 317.312 332.586C314.219 332.57 311.81 331.593 310.085 329.656C308.376 327.703 307.521 324.912 307.521 321.282ZM310.183 321.404C310.183 324.253 310.785 326.45 311.989 327.996C313.194 329.526 314.968 330.291 317.312 330.291C319.688 330.291 321.478 329.518 322.683 327.972C323.887 326.425 324.489 324.236 324.489 321.404V307.049C324.489 304.233 323.879 302.052 322.658 300.506C321.454 298.943 319.672 298.162 317.312 298.162C314.968 298.162 313.194 298.943 311.989 300.506C310.785 302.052 310.183 304.233 310.183 307.049V321.404ZM341.652 321.282V307.171C341.652 303.558 342.507 300.774 344.216 298.821C345.941 296.852 348.35 295.867 351.442 295.867C354.535 295.867 356.944 296.852 358.669 298.821C360.41 300.774 361.281 303.558 361.281 307.171V321.282C361.281 324.912 360.41 327.711 358.669 329.681C356.944 331.634 354.535 332.602 351.442 332.586C348.35 332.57 345.941 331.593 344.216 329.656C342.507 327.703 341.652 324.912 341.652 321.282ZM344.313 321.404C344.313 324.253 344.916 326.45 346.12 327.996C347.325 329.526 349.099 330.291 351.442 330.291C353.819 330.291 355.609 329.518 356.813 327.972C358.018 326.425 358.62 324.236 358.62 321.404V307.049C358.62 304.233 358.01 302.052 356.789 300.506C355.585 298.943 353.802 298.162 351.442 298.162C349.099 298.162 347.325 298.943 346.12 300.506C344.916 302.052 344.313 304.233 344.313 307.049V321.404ZM385.451 332V298.992L376.809 302.361L376.784 299.822L387.16 295.965H388.112V332H385.451ZM409.914 321.282V307.171C409.914 303.558 410.769 300.774 412.478 298.821C414.203 296.852 416.612 295.867 419.704 295.867C422.797 295.867 425.205 296.852 426.931 298.821C428.672 300.774 429.543 303.558 429.543 307.171V321.282C429.543 324.912 428.672 327.711 426.931 329.681C425.205 331.634 422.797 332.602 419.704 332.586C416.612 332.57 414.203 331.593 412.478 329.656C410.769 327.703 409.914 324.912 409.914 321.282ZM412.575 321.404C412.575 324.253 413.177 326.45 414.382 327.996C415.586 329.526 417.36 330.291 419.704 330.291C422.08 330.291 423.871 329.518 425.075 327.972C426.28 326.425 426.882 324.236 426.882 321.404V307.049C426.882 304.233 426.271 302.052 425.051 300.506C423.846 298.943 422.064 298.162 419.704 298.162C417.36 298.162 415.586 298.943 414.382 300.506C413.177 302.052 412.575 304.233 412.575 307.049V321.404ZM453.713 332V298.992L445.07 302.361L445.046 299.822L455.422 295.965H456.374V332H453.713ZM10.0117 391V357.992L1.36914 361.361L1.34473 358.822L11.7207 354.965H12.6729V391H10.0117ZM34.4746 380.282V366.171C34.4746 362.558 35.3291 359.774 37.0381 357.821C38.7633 355.852 41.1722 354.867 44.2646 354.867C47.3571 354.867 49.766 355.852 51.4912 357.821C53.2327 359.774 54.1035 362.558 54.1035 366.171V380.282C54.1035 383.912 53.2327 386.711 51.4912 388.681C49.766 390.634 47.3571 391.602 44.2646 391.586C41.1722 391.57 38.7633 390.593 37.0381 388.656C35.3291 386.703 34.4746 383.912 34.4746 380.282ZM37.1357 380.404C37.1357 383.253 37.738 385.45 38.9424 386.996C40.1468 388.526 41.9209 389.291 44.2646 389.291C46.641 389.291 48.4313 388.518 49.6357 386.972C50.8402 385.425 51.4424 383.236 51.4424 380.404V366.049C51.4424 363.233 50.832 361.052 49.6113 359.506C48.4069 357.943 46.6247 357.162 44.2646 357.162C41.9209 357.162 40.1468 357.943 38.9424 359.506C37.738 361.052 37.1357 363.233 37.1357 366.049V380.404ZM78.2734 391V357.992L69.6309 361.361L69.6064 358.822L79.9824 354.965H80.9346V391H78.2734ZM102.736 380.282V366.171C102.736 362.558 103.591 359.774 105.3 357.821C107.025 355.852 109.434 354.867 112.526 354.867C115.619 354.867 118.028 355.852 119.753 357.821C121.494 359.774 122.365 362.558 122.365 366.171V380.282C122.365 383.912 121.494 386.711 119.753 388.681C118.028 390.634 115.619 391.602 112.526 391.586C109.434 391.57 107.025 390.593 105.3 388.656C103.591 386.703 102.736 383.912 102.736 380.282ZM105.397 380.404C105.397 383.253 106 385.45 107.204 386.996C108.409 388.526 110.183 389.291 112.526 389.291C114.903 389.291 116.693 388.518 117.897 386.972C119.102 385.425 119.704 383.236 119.704 380.404V366.049C119.704 363.233 119.094 361.052 117.873 359.506C116.669 357.943 114.886 357.162 112.526 357.162C110.183 357.162 108.409 357.943 107.204 359.506C106 361.052 105.397 363.233 105.397 366.049V380.404ZM136.867 380.282V366.171C136.867 362.558 137.722 359.774 139.431 357.821C141.156 355.852 143.565 354.867 146.657 354.867C149.75 354.867 152.159 355.852 153.884 357.821C155.625 359.774 156.496 362.558 156.496 366.171V380.282C156.496 383.912 155.625 386.711 153.884 388.681C152.159 390.634 149.75 391.602 146.657 391.586C143.565 391.57 141.156 390.593 139.431 388.656C137.722 386.703 136.867 383.912 136.867 380.282ZM139.528 380.404C139.528 383.253 140.131 385.45 141.335 386.996C142.539 388.526 144.313 389.291 146.657 389.291C149.034 389.291 150.824 388.518 152.028 386.972C153.233 385.425 153.835 383.236 153.835 380.404V366.049C153.835 363.233 153.225 361.052 152.004 359.506C150.799 357.943 149.017 357.162 146.657 357.162C144.313 357.162 142.539 357.943 141.335 359.506C140.131 361.052 139.528 363.233 139.528 366.049V380.404ZM170.998 380.282V366.171C170.998 362.558 171.853 359.774 173.562 357.821C175.287 355.852 177.696 354.867 180.788 354.867C183.881 354.867 186.289 355.852 188.015 357.821C189.756 359.774 190.627 362.558 190.627 366.171V380.282C190.627 383.912 189.756 386.711 188.015 388.681C186.289 390.634 183.881 391.602 180.788 391.586C177.696 391.57 175.287 390.593 173.562 388.656C171.853 386.703 170.998 383.912 170.998 380.282ZM173.659 380.404C173.659 383.253 174.261 385.45 175.466 386.996C176.67 388.526 178.444 389.291 180.788 389.291C183.164 389.291 184.955 388.518 186.159 386.972C187.364 385.425 187.966 383.236 187.966 380.404V366.049C187.966 363.233 187.355 361.052 186.135 359.506C184.93 357.943 183.148 357.162 180.788 357.162C178.444 357.162 176.67 357.943 175.466 359.506C174.261 361.052 173.659 363.233 173.659 366.049V380.404ZM214.797 391V357.992L206.154 361.361L206.13 358.822L216.506 354.965H217.458V391H214.797ZM248.928 391V357.992L240.285 361.361L240.261 358.822L250.637 354.965H251.589V391H248.928ZM273.391 380.282V366.171C273.391 362.558 274.245 359.774 275.954 357.821C277.679 355.852 280.088 354.867 283.181 354.867C286.273 354.867 288.682 355.852 290.407 357.821C292.149 359.774 293.02 362.558 293.02 366.171V380.282C293.02 383.912 292.149 386.711 290.407 388.681C288.682 390.634 286.273 391.602 283.181 391.586C280.088 391.57 277.679 390.593 275.954 388.656C274.245 386.703 273.391 383.912 273.391 380.282ZM276.052 380.404C276.052 383.253 276.654 385.45 277.858 386.996C279.063 388.526 280.837 389.291 283.181 389.291C285.557 389.291 287.347 388.518 288.552 386.972C289.756 385.425 290.358 383.236 290.358 380.404V366.049C290.358 363.233 289.748 361.052 288.527 359.506C287.323 357.943 285.541 357.162 283.181 357.162C280.837 357.162 279.063 357.943 277.858 359.506C276.654 361.052 276.052 363.233 276.052 366.049V380.404ZM317.189 391V357.992L308.547 361.361L308.522 358.822L318.898 354.965H319.851V391H317.189ZM341.652 380.282V366.171C341.652 362.558 342.507 359.774 344.216 357.821C345.941 355.852 348.35 354.867 351.442 354.867C354.535 354.867 356.944 355.852 358.669 357.821C360.41 359.774 361.281 362.558 361.281 366.171V380.282C361.281 383.912 360.41 386.711 358.669 388.681C356.944 390.634 354.535 391.602 351.442 391.586C348.35 391.57 345.941 390.593 344.216 388.656C342.507 386.703 341.652 383.912 341.652 380.282ZM344.313 380.404C344.313 383.253 344.916 385.45 346.12 386.996C347.325 388.526 349.099 389.291 351.442 389.291C353.819 389.291 355.609 388.518 356.813 386.972C358.018 385.425 358.62 383.236 358.62 380.404V366.049C358.62 363.233 358.01 361.052 356.789 359.506C355.585 357.943 353.802 357.162 351.442 357.162C349.099 357.162 347.325 357.943 346.12 359.506C344.916 361.052 344.313 363.233 344.313 366.049V380.404ZM375.783 380.282V366.171C375.783 362.558 376.638 359.774 378.347 357.821C380.072 355.852 382.481 354.867 385.573 354.867C388.666 354.867 391.075 355.852 392.8 357.821C394.541 359.774 395.412 362.558 395.412 366.171V380.282C395.412 383.912 394.541 386.711 392.8 388.681C391.075 390.634 388.666 391.602 385.573 391.586C382.481 391.57 380.072 390.593 378.347 388.656C376.638 386.703 375.783 383.912 375.783 380.282ZM378.444 380.404C378.444 383.253 379.047 385.45 380.251 386.996C381.455 388.526 383.229 389.291 385.573 389.291C387.95 389.291 389.74 388.518 390.944 386.972C392.149 385.425 392.751 383.236 392.751 380.404V366.049C392.751 363.233 392.141 361.052 390.92 359.506C389.715 357.943 387.933 357.162 385.573 357.162C383.229 357.162 381.455 357.943 380.251 359.506C379.047 361.052 378.444 363.233 378.444 366.049V380.404ZM409.914 380.282V366.171C409.914 362.558 410.769 359.774 412.478 357.821C414.203 355.852 416.612 354.867 419.704 354.867C422.797 354.867 425.205 355.852 426.931 357.821C428.672 359.774 429.543 362.558 429.543 366.171V380.282C429.543 383.912 428.672 386.711 426.931 388.681C425.205 390.634 422.797 391.602 419.704 391.586C416.612 391.57 414.203 390.593 412.478 388.656C410.769 386.703 409.914 383.912 409.914 380.282ZM412.575 380.404C412.575 383.253 413.177 385.45 414.382 386.996C415.586 388.526 417.36 389.291 419.704 389.291C422.08 389.291 423.871 388.518 425.075 386.972C426.28 385.425 426.882 383.236 426.882 380.404V366.049C426.882 363.233 426.271 361.052 425.051 359.506C423.846 357.943 422.064 357.162 419.704 357.162C417.36 357.162 415.586 357.943 414.382 359.506C413.177 361.052 412.575 363.233 412.575 366.049V380.404ZM453.713 391V357.992L445.07 361.361L445.046 358.822L455.422 354.965H456.374V391H453.713ZM0.34375 439.282V425.171C0.34375 421.558 1.19824 418.774 2.90723 416.821C4.63249 414.852 7.04134 413.867 10.1338 413.867C13.2262 413.867 15.6351 414.852 17.3604 416.821C19.1019 418.774 19.9727 421.558 19.9727 425.171V439.282C19.9727 442.912 19.1019 445.711 17.3604 447.681C15.6351 449.634 13.2262 450.602 10.1338 450.586C7.04134 450.57 4.63249 449.593 2.90723 447.656C1.19824 445.703 0.34375 442.912 0.34375 439.282ZM3.00488 439.404C3.00488 442.253 3.6071 444.45 4.81152 445.996C6.01595 447.526 7.79004 448.291 10.1338 448.291C12.5101 448.291 14.3005 447.518 15.5049 445.972C16.7093 444.425 17.3115 442.236 17.3115 439.404V425.049C17.3115 422.233 16.7012 420.052 15.4805 418.506C14.276 416.943 12.4938 416.162 10.1338 416.162C7.79004 416.162 6.01595 416.943 4.81152 418.506C3.6071 420.052 3.00488 422.233 3.00488 425.049V439.404ZM44.1426 450V416.992L35.5 420.361L35.4756 417.822L45.8516 413.965H46.8037V450H44.1426ZM68.6055 439.282V425.171C68.6055 421.558 69.46 418.774 71.1689 416.821C72.8942 414.852 75.3031 413.867 78.3955 413.867C81.488 413.867 83.8968 414.852 85.6221 416.821C87.3636 418.774 88.2344 421.558 88.2344 425.171V439.282C88.2344 442.912 87.3636 445.711 85.6221 447.681C83.8968 449.634 81.488 450.602 78.3955 450.586C75.3031 450.57 72.8942 449.593 71.1689 447.656C69.46 445.703 68.6055 442.912 68.6055 439.282ZM71.2666 439.404C71.2666 442.253 71.8688 444.45 73.0732 445.996C74.2777 447.526 76.0518 448.291 78.3955 448.291C80.7718 448.291 82.5622 447.518 83.7666 445.972C84.971 444.425 85.5732 442.236 85.5732 439.404V425.049C85.5732 422.233 84.9629 420.052 83.7422 418.506C82.5378 416.943 80.7555 416.162 78.3955 416.162C76.0518 416.162 74.2777 416.943 73.0732 418.506C71.8688 420.052 71.2666 422.233 71.2666 425.049V439.404ZM102.736 439.282V425.171C102.736 421.558 103.591 418.774 105.3 416.821C107.025 414.852 109.434 413.867 112.526 413.867C115.619 413.867 118.028 414.852 119.753 416.821C121.494 418.774 122.365 421.558 122.365 425.171V439.282C122.365 442.912 121.494 445.711 119.753 447.681C118.028 449.634 115.619 450.602 112.526 450.586C109.434 450.57 107.025 449.593 105.3 447.656C103.591 445.703 102.736 442.912 102.736 439.282ZM105.397 439.404C105.397 442.253 106 444.45 107.204 445.996C108.409 447.526 110.183 448.291 112.526 448.291C114.903 448.291 116.693 447.518 117.897 445.972C119.102 444.425 119.704 442.236 119.704 439.404V425.049C119.704 422.233 119.094 420.052 117.873 418.506C116.669 416.943 114.886 416.162 112.526 416.162C110.183 416.162 108.409 416.943 107.204 418.506C106 420.052 105.397 422.233 105.397 425.049V439.404ZM146.535 450V416.992L137.893 420.361L137.868 417.822L148.244 413.965H149.196V450H146.535ZM170.998 439.282V425.171C170.998 421.558 171.853 418.774 173.562 416.821C175.287 414.852 177.696 413.867 180.788 413.867C183.881 413.867 186.289 414.852 188.015 416.821C189.756 418.774 190.627 421.558 190.627 425.171V439.282C190.627 442.912 189.756 445.711 188.015 447.681C186.289 449.634 183.881 450.602 180.788 450.586C177.696 450.57 175.287 449.593 173.562 447.656C171.853 445.703 170.998 442.912 170.998 439.282ZM173.659 439.404C173.659 442.253 174.261 444.45 175.466 445.996C176.67 447.526 178.444 448.291 180.788 448.291C183.164 448.291 184.955 447.518 186.159 445.972C187.364 444.425 187.966 442.236 187.966 439.404V425.049C187.966 422.233 187.355 420.052 186.135 418.506C184.93 416.943 183.148 416.162 180.788 416.162C178.444 416.162 176.67 416.943 175.466 418.506C174.261 420.052 173.659 422.233 173.659 425.049V439.404ZM214.797 450V416.992L206.154 420.361L206.13 417.822L216.506 413.965H217.458V450H214.797ZM239.26 439.282V425.171C239.26 421.558 240.114 418.774 241.823 416.821C243.549 414.852 245.957 413.867 249.05 413.867C252.142 413.867 254.551 414.852 256.276 416.821C258.018 418.774 258.889 421.558 258.889 425.171V439.282C258.889 442.912 258.018 445.711 256.276 447.681C254.551 449.634 252.142 450.602 249.05 450.586C245.957 450.57 243.549 449.593 241.823 447.656C240.114 445.703 239.26 442.912 239.26 439.282ZM241.921 439.404C241.921 442.253 242.523 444.45 243.728 445.996C244.932 447.526 246.706 448.291 249.05 448.291C251.426 448.291 253.216 447.518 254.421 445.972C255.625 444.425 256.228 442.236 256.228 439.404V425.049C256.228 422.233 255.617 420.052 254.396 418.506C253.192 416.943 251.41 416.162 249.05 416.162C246.706 416.162 244.932 416.943 243.728 418.506C242.523 420.052 241.921 422.233 241.921 425.049V439.404ZM283.059 450V416.992L274.416 420.361L274.392 417.822L284.768 413.965H285.72V450H283.059ZM307.521 439.282V425.171C307.521 421.558 308.376 418.774 310.085 416.821C311.81 414.852 314.219 413.867 317.312 413.867C320.404 413.867 322.813 414.852 324.538 416.821C326.28 418.774 327.15 421.558 327.15 425.171V439.282C327.15 442.912 326.28 445.711 324.538 447.681C322.813 449.634 320.404 450.602 317.312 450.586C314.219 450.57 311.81 449.593 310.085 447.656C308.376 445.703 307.521 442.912 307.521 439.282ZM310.183 439.404C310.183 442.253 310.785 444.45 311.989 445.996C313.194 447.526 314.968 448.291 317.312 448.291C319.688 448.291 321.478 447.518 322.683 445.972C323.887 444.425 324.489 442.236 324.489 439.404V425.049C324.489 422.233 323.879 420.052 322.658 418.506C321.454 416.943 319.672 416.162 317.312 416.162C314.968 416.162 313.194 416.943 311.989 418.506C310.785 420.052 310.183 422.233 310.183 425.049V439.404ZM341.652 439.282V425.171C341.652 421.558 342.507 418.774 344.216 416.821C345.941 414.852 348.35 413.867 351.442 413.867C354.535 413.867 356.944 414.852 358.669 416.821C360.41 418.774 361.281 421.558 361.281 425.171V439.282C361.281 442.912 360.41 445.711 358.669 447.681C356.944 449.634 354.535 450.602 351.442 450.586C348.35 450.57 345.941 449.593 344.216 447.656C342.507 445.703 341.652 442.912 341.652 439.282ZM344.313 439.404C344.313 442.253 344.916 444.45 346.12 445.996C347.325 447.526 349.099 448.291 351.442 448.291C353.819 448.291 355.609 447.518 356.813 445.972C358.018 444.425 358.62 442.236 358.62 439.404V425.049C358.62 422.233 358.01 420.052 356.789 418.506C355.585 416.943 353.802 416.162 351.442 416.162C349.099 416.162 347.325 416.943 346.12 418.506C344.916 420.052 344.313 422.233 344.313 425.049V439.404ZM385.451 450V416.992L376.809 420.361L376.784 417.822L387.16 413.965H388.112V450H385.451ZM409.914 439.282V425.171C409.914 421.558 410.769 418.774 412.478 416.821C414.203 414.852 416.612 413.867 419.704 413.867C422.797 413.867 425.205 414.852 426.931 416.821C428.672 418.774 429.543 421.558 429.543 425.171V439.282C429.543 442.912 428.672 445.711 426.931 447.681C425.205 449.634 422.797 450.602 419.704 450.586C416.612 450.57 414.203 449.593 412.478 447.656C410.769 445.703 409.914 442.912 409.914 439.282ZM412.575 439.404C412.575 442.253 413.177 444.45 414.382 445.996C415.586 447.526 417.36 448.291 419.704 448.291C422.08 448.291 423.871 447.518 425.075 445.972C426.28 444.425 426.882 442.236 426.882 439.404V425.049C426.882 422.233 426.271 420.052 425.051 418.506C423.846 416.943 422.064 416.162 419.704 416.162C417.36 416.162 415.586 416.943 414.382 418.506C413.177 420.052 412.575 422.233 412.575 425.049V439.404ZM453.713 450V416.992L445.07 420.361L445.046 417.822L455.422 413.965H456.374V450H453.713Z" fill="url(#paint0_linear_380_1766)"/>
<defs>
<linearGradient id="paint0_linear_380_1766" x1="-20.2727" y1="27.6596" x2="522.217" y2="421.886" gradientUnits="userSpaceOnUse">
<stop stop-color="#FBF8FF"/>
<stop offset="1" stop-color="#EADEF7"/>
</linearGradient>
</defs>
</svg>
