<svg width="45" height="45" viewBox="0 0 45 45" fill="none" xmlns="http://www.w3.org/2000/svg">
<rect width="45" height="45" rx="22.5" fill="currentColor"/>
<path d="M13.5 32C13.4337 32 13.2286 31.9639 12.9081 31.5766C12.5928 31.1957 12.2642 30.5843 11.969 29.7407C11.3817 28.0628 11 25.6796 11 23C11 20.3204 11.3817 17.9372 11.969 16.2593C12.2642 15.4157 12.5928 14.8043 12.9081 14.4234C13.2286 14.0361 13.4337 14 13.5 14C13.5663 14 13.7714 14.0361 14.0919 14.4234C14.4072 14.8043 14.7358 15.4157 15.031 16.2593C15.6183 17.9372 16 20.3204 16 23C16 25.6796 15.6183 28.0628 15.031 29.7407C14.7358 30.5843 14.4072 31.1957 14.0919 31.5766C13.7714 31.9639 13.5663 32 13.5 32Z" stroke="#F0BB00" stroke-width="2"/>
<path d="M22.5 32C22.4337 32 22.2286 31.9639 21.9081 31.5766C21.5928 31.1957 21.2642 30.5843 20.969 29.7407C20.3817 28.0628 20 25.6796 20 23C20 20.3204 20.3817 17.9372 20.969 16.2593C21.2642 15.4157 21.5928 14.8043 21.9081 14.4234C22.2286 14.0361 22.4337 14 22.5 14C22.5663 14 22.7714 14.0361 23.0919 14.4234C23.4072 14.8043 23.7358 15.4157 24.031 16.2593C24.6183 17.9372 25 20.3204 25 23C25 25.6796 24.6183 28.0628 24.031 29.7407C23.7358 30.5843 23.4072 31.1957 23.0919 31.5766C22.7714 31.9639 22.5663 32 22.5 32Z" stroke="#F0BB00" stroke-width="2"/>
<path d="M31.5 32C31.4337 32 31.2286 31.9639 30.9081 31.5766C30.5928 31.1957 30.2642 30.5843 29.969 29.7407C29.3817 28.0628 29 25.6796 29 23C29 20.3204 29.3817 17.9372 29.969 16.2593C30.2642 15.4157 30.5928 14.8043 30.9081 14.4234C31.2286 14.0361 31.4337 14 31.5 14C31.5663 14 31.7714 14.0361 32.0919 14.4234C32.4072 14.8043 32.7358 15.4157 33.031 16.2593C33.6183 17.9372 34 20.3204 34 23C34 25.6796 33.6183 28.0628 33.031 29.7407C32.7358 30.5843 32.4072 31.1957 32.0919 31.5766C31.7714 31.9639 31.5663 32 31.5 32Z" stroke="#F0BB00" stroke-width="2"/>
</svg>
