<svg width="148" height="60" viewBox="0 0 148 60" fill="none" xmlns="http://www.w3.org/2000/svg">
<g clip-path="url(#clip0_328_13394)">
<path fill-rule="evenodd" clip-rule="evenodd" d="M138.627 23.9776L138.587 23.9731H138.618L138.627 23.9776Z" fill="#969494"/>
<path fill-rule="evenodd" clip-rule="evenodd" d="M111.745 48.5571C112.813 49.4332 113.998 50.17 115.273 50.7361H113.555L38.1908 50.6777L0.0588379 50.5788L38.1908 49.9588L110.583 48.5796L111.741 48.5571H111.745Z" fill="#969494"/>
<path fill-rule="evenodd" clip-rule="evenodd" d="M117.404 49.0376C117.255 48.8399 117.105 48.6332 116.961 48.4131H117.056C117.214 48.6961 117.381 48.9747 117.553 49.2308C117.503 49.1679 117.454 49.105 117.404 49.0376Z" fill="#969494"/>
<path fill-rule="evenodd" clip-rule="evenodd" d="M118.539 50.4799C118.625 50.5743 118.716 50.6596 118.802 50.7405H117.748C117.589 50.5608 117.44 50.3721 117.291 50.1699C117.39 50.2014 117.494 50.2283 117.598 50.2553C117.906 50.3406 118.223 50.4125 118.539 50.4754V50.4799Z" fill="#969494"/>
<path fill-rule="evenodd" clip-rule="evenodd" d="M121.945 50.7135C122 50.7045 122.054 50.6955 122.108 50.6865V50.7449H121.611C121.611 50.7449 121.593 50.7449 121.588 50.7449C121.579 50.7449 121.57 50.7449 121.561 50.7449C121.561 50.7449 121.556 50.7449 121.552 50.7449H121.366C121.366 50.7449 121.348 50.7449 121.344 50.7449H121.335V48.2874L121.787 48.2739V50.7314C121.841 50.7269 121.896 50.718 121.95 50.7135H121.945Z" fill="#969494"/>
<path fill-rule="evenodd" clip-rule="evenodd" d="M125.795 50.745H127.165C127.165 50.745 127.152 50.745 127.143 50.745H125.863H123.777H122.339H124.75C124.931 50.5743 125.112 50.3856 125.284 50.1834C125.392 50.152 125.505 50.1206 125.609 50.0846C125.831 50.0172 126.053 49.9408 126.274 49.8555C126.374 49.8195 126.473 49.7791 126.568 49.7432C126.324 50.1071 126.066 50.4395 125.799 50.745H125.795Z" fill="#969494"/>
<path fill-rule="evenodd" clip-rule="evenodd" d="M117.648 23.973C117.707 23.8966 117.77 23.8292 117.834 23.7573C117.779 23.8292 117.73 23.8966 117.68 23.973H117.648Z" fill="#969494"/>
<path fill-rule="evenodd" clip-rule="evenodd" d="M118.128 22.2524L119.159 22.3423C118.974 22.4906 118.793 22.6613 118.612 22.841C118.508 22.859 118.404 22.8814 118.3 22.9039C118.078 22.9533 117.856 23.0027 117.639 23.0656C117.544 23.0881 117.449 23.115 117.354 23.1465C117.603 22.823 117.861 22.522 118.128 22.2569V22.2524Z" fill="#969494"/>
<path fill-rule="evenodd" clip-rule="evenodd" d="M122.108 22.5849V22.6433C122 22.6208 121.891 22.6028 121.783 22.5939V23.9731H121.33V22.522L121.783 22.5624L122.108 22.5894V22.5849Z" fill="#969494"/>
<path fill-rule="evenodd" clip-rule="evenodd" d="M126.5 23.5597C126.5 23.5597 126.482 23.5507 126.469 23.5462C126.374 23.5057 126.274 23.4698 126.179 23.4384C125.967 23.3575 125.75 23.2856 125.528 23.2182C125.419 23.1823 125.306 23.1508 125.198 23.1194C125.107 23.016 125.012 22.9172 124.917 22.8184L126.016 22.9127C126.184 23.1149 126.342 23.3305 126.5 23.5552V23.5597Z" fill="#969494"/>
<path fill-rule="evenodd" clip-rule="evenodd" d="M148 27.356V27.8862C147.95 31.404 147.141 34.8499 145.702 37.842C143.861 41.2969 141.486 44.7653 135.375 48.3459C133.837 49.0917 132.304 49.6264 130.766 50.0262C129.947 50.2374 129.124 50.4126 128.305 50.5563C130.128 49.6803 131.757 48.4583 133.096 46.9802C132.96 46.8768 132.824 46.7735 132.684 46.6702C132.964 46.5623 133.24 46.441 133.512 46.3197C133.593 46.2838 133.674 46.2478 133.751 46.2119C134.276 45.9648 134.787 45.6997 135.28 45.4122C138.537 43.5253 141.129 40.7982 143.201 37.4017C146.055 31.5927 146.905 23.4609 142.219 16.4747C137.447 10.4725 131.209 7.97454 123.759 8.37888C124.103 7.32759 124.438 6.27181 124.773 5.22052C125.465 3.34706 123.189 2.55185 122.33 3.5717C121.954 4.30401 121.584 5.03632 121.208 5.76863C120.629 5.23399 120.05 4.70386 119.471 4.17372C117.883 3.31561 116.617 5.3553 117.445 6.60427C118.155 7.42194 118.86 8.23512 119.566 9.05279C113.745 10.9397 108.638 13.9948 106.105 21.246L114.903 21.9873L116.639 22.131C115.305 22.5803 114.048 23.2048 112.903 23.9775H105.227C103.657 23.9955 103.065 23.2317 103.44 21.6773C104.77 17.234 106.335 12.7727 115.273 7.80382C114.079 5.90341 114.075 3.65706 115.762 2.10258C117.481 0.611007 119.073 0.557095 120.548 1.94085C121.76 0.314489 123.216 -0.68289 125.528 0.570573C127.306 1.99476 127.577 3.76937 127.165 5.71022C135.751 6.59528 140.993 10.4455 144.716 15.6481C146.937 19.2602 147.959 23.3441 147.991 27.3605L148 27.356Z" fill="#969494"/>
<path fill-rule="evenodd" clip-rule="evenodd" d="M114.817 13.3076C115.608 13.3076 116.251 13.9411 116.251 14.7273C116.251 15.5135 115.608 16.147 114.817 16.147C114.025 16.147 113.383 15.5135 113.383 14.7273C113.383 13.9411 114.025 13.3076 114.817 13.3076Z" fill="#969494"/>
<path d="M64.9646 27.3384V32.4601H75.9609V44.6667H88.4454V32.4601H99.4417V27.3384H64.9601H64.9646Z" fill="#291770"/>
<path d="M33.2196 36.3779H22.4585V40.5157C22.0876 40.5651 21.3412 40.664 20.224 40.664C16.6822 40.664 12.9549 39.5498 12.9549 36.4768C12.9549 33.1342 17.0576 31.3506 23.2953 31.3506C27.7689 31.3506 30.6096 32.02 31.9169 32.3659V27.6845C27.493 27.1903 23.6255 27.0376 20.7351 27.0376C0.791589 27.0376 0 34.3966 0 35.8792C0 39.4959 3.30658 44.9725 19.7083 44.9725C25.4846 44.9725 29.7728 44.5726 33.2196 44.029V36.3779Z" fill="#291770"/>
<path d="M64.9012 39.1495C64.9012 41.1038 63.2276 44.9721 48.9654 44.9721C45.704 44.9721 40.674 44.8508 35.5038 44.1499V39.6392C36.4311 39.8324 37.3313 39.9986 38.1907 40.1334C41.6873 40.6905 44.6003 40.8028 46.7308 40.8028C48.8613 40.8028 52.3217 40.6276 52.3217 39.5853C52.3217 38.543 49.4358 38.4217 47.0158 38.1521C44.2747 37.8466 40.7012 37.4782 38.1952 36.382C36.3904 35.5958 35.1375 34.4367 35.1375 32.6531C35.1375 30.227 38.1183 27.0327 51.9553 27.0327C55.3569 27.0327 58.8489 27.181 62.7616 27.6302V32.0825C60.6628 31.6602 57.5869 31.1885 53.0681 31.1885C50.5983 31.1885 47.7124 31.2154 47.7124 32.3521C47.7124 33.1697 49.6665 33.3674 51.7653 33.5651C57.5417 34.1626 64.9012 34.7826 64.9012 39.1405V39.1495Z" fill="#F0BB00"/>
<path d="M0.126709 55.4712V59.9235H1.16256V55.4712H0.126709Z" fill="#291770"/>
<path d="M3.64587 55.4712V56.3113H5.0843V59.9235H6.12468V56.3113H7.56311V55.4712H3.64587Z" fill="#291770"/>
<path d="M13.7872 55.4712V59.9235H14.8276V55.4712H13.7872Z" fill="#291770"/>
<path d="M20.9116 55.4712V58.1758L18.6725 55.4712H17.8131V59.9235H18.8399V57.2189L21.0835 59.9235H21.9384V55.4712H20.9116Z" fill="#291770"/>
<path d="M28.3299 56.3022V55.4756H24.9329V59.9278H25.9732V58.3105H28.054V57.4793H25.9732V56.3067H28.3299V56.3022Z" fill="#291770"/>
<path d="M33.9344 58.4947C34.2284 58.3689 34.4591 58.1847 34.6219 57.9466C34.7802 57.7085 34.8617 57.4209 34.8617 57.0885C34.8617 56.756 34.7848 56.473 34.6219 56.2304C34.4636 55.9922 34.242 55.8036 33.9479 55.6733C33.6539 55.5385 33.3056 55.4756 32.9076 55.4756H30.9625V59.9278H32.0029V58.6879H32.9619L33.8303 59.9278H34.9476L33.9389 58.4992L33.9344 58.4947ZM33.5635 57.6635C33.4006 57.7983 33.1654 57.8657 32.8488 57.8657H32.0029V56.3157H32.8488C33.1654 56.3157 33.4006 56.3786 33.5635 56.5134C33.7263 56.6482 33.8077 56.8414 33.8077 57.093C33.8077 57.3445 33.7263 57.5287 33.5635 57.668V57.6635Z" fill="#291770"/>
<path d="M40.0454 55.4712H39.0186L37.0148 59.9235H38.0778L38.4758 58.971H40.5656L40.9591 59.9235H42.0538L40.0409 55.4712H40.0454ZM38.8105 58.1848L39.5252 56.482L40.2354 58.1848H38.806H38.8105Z" fill="#291770"/>
<path d="M47.5948 57.9152C47.4411 57.74 47.2511 57.6142 47.0385 57.5333C46.8214 57.4525 46.5364 57.3761 46.1926 57.2952C45.8669 57.2189 45.6227 57.1515 45.4598 57.0751C45.297 56.9987 45.2201 56.8864 45.2201 56.7336C45.2201 56.5809 45.2879 56.4596 45.4282 56.3652C45.5639 56.2754 45.781 56.226 46.075 56.226C46.4866 56.226 46.9028 56.3428 47.3189 56.5764L47.6401 55.7947C47.432 55.6689 47.1923 55.57 46.9163 55.5026C46.6404 55.4353 46.36 55.4038 46.075 55.4038C45.6634 55.4038 45.3151 55.4622 45.0346 55.5835C44.7497 55.7048 44.5371 55.8711 44.3923 56.0822C44.2476 56.2934 44.1797 56.527 44.1797 56.7876C44.1797 57.0841 44.2566 57.3222 44.4149 57.5019C44.5687 57.6771 44.7587 57.8074 44.9758 57.8883C45.1929 57.9691 45.4734 58.05 45.8172 58.1264C46.0388 58.1803 46.2152 58.2252 46.3464 58.2701C46.4776 58.3106 46.5861 58.369 46.6676 58.4364C46.7535 58.5083 46.7897 58.5936 46.7897 58.7015C46.7897 58.8452 46.7218 58.962 46.5771 59.0474C46.4369 59.1327 46.2197 59.1777 45.9257 59.1777C45.6634 59.1777 45.392 59.1372 45.1296 59.0519C44.8673 58.9665 44.6366 58.8542 44.4421 58.7149L44.0847 59.4922C44.2883 59.6449 44.5551 59.7662 44.8854 59.8606C45.2201 59.9594 45.5593 60.0043 45.9167 60.0043C46.3283 60.0043 46.6766 59.9414 46.9661 59.8201C47.2556 59.6988 47.4637 59.5326 47.6129 59.3214C47.7532 59.1103 47.8255 58.8812 47.8255 58.6251C47.8255 58.3286 47.7486 58.0949 47.5903 57.9197L47.5948 57.9152Z" fill="#291770"/>
<path d="M49.8973 55.4712V56.3113H51.3358V59.9235H52.3761V56.3113H53.8146V55.4712H49.8928H49.8973Z" fill="#291770"/>
<path d="M59.2697 58.4947C59.5682 58.3689 59.7944 58.1847 59.9573 57.9466C60.1156 57.7085 60.197 57.4209 60.197 57.0885C60.197 56.756 60.1201 56.473 59.9573 56.2304C59.7989 55.9922 59.5728 55.8036 59.2788 55.6733C58.9847 55.5385 58.641 55.4756 58.2429 55.4756H56.2979V59.9278H57.3382V58.6879H58.2972L59.1657 59.9278H60.2875L59.2742 58.4992L59.2697 58.4947ZM58.8988 57.6635C58.7359 57.7983 58.4962 57.8657 58.1886 57.8657H57.3382V56.3157H58.1886C58.5007 56.3157 58.7359 56.3786 58.8988 56.5134C59.0616 56.6482 59.143 56.8414 59.143 57.093C59.143 57.3445 59.0616 57.5287 58.8988 57.668V57.6635Z" fill="#291770"/>
<path d="M65.9462 55.4713V57.9288C65.9462 58.3421 65.8603 58.6431 65.6884 58.8318C65.5165 59.025 65.2722 59.1194 64.942 59.1194C64.2771 59.1194 63.9424 58.7195 63.9424 57.9243V55.4668H62.902V57.9602C62.902 58.6117 63.0829 59.1149 63.4357 59.4653C63.7931 59.8202 64.2952 59.9954 64.9375 59.9954C65.5798 59.9954 66.0774 59.8202 66.4347 59.4653C66.7921 59.1149 66.9685 58.6117 66.9685 57.9602V55.4668H65.9417L65.9462 55.4713Z" fill="#291770"/>
<path d="M72.1387 59.1239C71.8628 59.1239 71.614 59.0655 71.3924 58.9442C71.1753 58.8229 70.9988 58.6566 70.8812 58.441C70.7591 58.2253 70.6958 57.9782 70.6958 57.6997C70.6958 57.4211 70.7591 57.1785 70.8812 56.9629C70.9988 56.7472 71.1707 56.5765 71.3924 56.4552C71.6095 56.3339 71.8583 56.2755 72.1387 56.2755C72.5911 56.2755 72.9665 56.4462 73.2696 56.7966L73.939 56.1856C73.7219 55.934 73.4596 55.7364 73.1474 55.6016C72.8353 55.4668 72.4825 55.3994 72.089 55.3994C71.6231 55.3994 71.2114 55.4983 70.8405 55.6914C70.4696 55.8891 70.1756 56.1632 69.963 56.5136C69.7504 56.8685 69.6464 57.2594 69.6464 57.6997C69.6464 58.14 69.7504 58.5353 69.963 58.8858C70.1756 59.2362 70.4651 59.5102 70.8405 59.7079C71.2114 59.9011 71.6231 60.0044 72.0799 60.0044C72.4735 60.0044 72.8263 59.937 73.1429 59.8023C73.4596 59.6675 73.7264 59.4698 73.939 59.2137L73.2696 58.6027C72.9665 58.9576 72.5911 59.1328 72.1387 59.1328V59.1239Z" fill="#291770"/>
<path d="M76.0061 55.4712V56.3113H77.4445V59.9235H78.4849V56.3113H79.9233V55.4712H76.0016H76.0061Z" fill="#291770"/>
<path d="M85.3378 55.4713V57.9288C85.3378 58.3421 85.2519 58.6431 85.08 58.8318C84.9081 59.025 84.6638 59.1194 84.3336 59.1194C83.6642 59.1194 83.3294 58.7195 83.3294 57.9243V55.4668H82.2891V57.9602C82.2891 58.6117 82.4655 59.1149 82.8228 59.4653C83.1802 59.8202 83.6868 59.9954 84.3246 59.9954C84.9624 59.9954 85.469 59.8202 85.8263 59.4653C86.1837 59.1149 86.3601 58.6117 86.3601 57.9602V55.4668H85.3333L85.3378 55.4713Z" fill="#291770"/>
<path d="M92.2903 58.4947C92.5844 58.3689 92.815 58.1847 92.9734 57.9466C93.1317 57.7085 93.2131 57.4209 93.2131 57.0885C93.2131 56.756 93.1362 56.473 92.9734 56.2304C92.815 55.9922 92.5934 55.8036 92.2994 55.6733C92.0054 55.5385 91.6571 55.4756 91.259 55.4756H89.314V59.9278H90.3543V58.6879H91.3133L92.1773 59.9278H93.299L92.2903 58.4992V58.4947ZM91.9194 57.6635C91.7566 57.7983 91.5168 57.8657 91.2047 57.8657H90.3589V56.3157H91.2047C91.5168 56.3157 91.7566 56.3786 91.9194 56.5134C92.0777 56.6482 92.1592 56.8414 92.1592 57.093C92.1592 57.3445 92.0777 57.5287 91.9194 57.668V57.6635Z" fill="#291770"/>
<path d="M96.9946 59.0967V58.0679H99.0799V57.2682H96.9946V56.3022H99.3603V55.4756H95.9587V59.9278H99.4417V59.1012H96.9946V59.0967Z" fill="#291770"/>
<path d="M133.905 46.6342L133.412 47.2362C133.308 47.1508 133.2 47.0655 133.091 46.9801C132.955 46.8768 132.82 46.7735 132.679 46.6701C131.49 45.803 130.21 45.0842 128.853 44.5226C128.717 44.4642 128.586 44.4103 128.45 44.3609C128.346 44.3204 128.237 44.28 128.133 44.2396C126.211 43.5342 124.184 43.1568 122.108 43.1119C121.977 43.1119 121.846 43.1119 121.719 43.1119C121.593 43.1119 121.461 43.1119 121.335 43.1119C119.299 43.1523 117.313 43.5162 115.414 44.1991C115.31 44.2396 115.201 44.2755 115.097 44.3159C114.961 44.3699 114.826 44.4193 114.69 44.4777C113.075 45.1336 111.569 46.0142 110.198 47.0969C110.09 47.1823 109.981 47.2677 109.877 47.3575L109.38 46.7645C109.479 46.6791 109.583 46.5982 109.687 46.5174C111.153 45.3538 112.772 44.4193 114.504 43.7274C114.609 43.6825 114.717 43.642 114.826 43.6016C114.961 43.5522 115.097 43.5028 115.228 43.4533C117.187 42.757 119.24 42.3886 121.339 42.3481C121.466 42.3481 121.597 42.3481 121.724 42.3481C121.85 42.3481 121.986 42.3481 122.113 42.3526C124.252 42.3931 126.338 42.7749 128.323 43.4983C128.459 43.5477 128.595 43.5971 128.73 43.651C128.835 43.6915 128.943 43.7319 129.052 43.7768C130.644 44.4238 132.141 45.2819 133.512 46.3287C133.543 46.3511 133.575 46.3781 133.607 46.4006C133.706 46.4814 133.81 46.5623 133.91 46.6432L133.905 46.6342Z" fill="#291770"/>
<path d="M121.647 21.3223C121.538 21.3223 121.434 21.3357 121.33 21.3492V21.3268C121.416 21.3268 121.502 21.3268 121.584 21.3268H121.647V21.3223Z" fill="#291770"/>
<path d="M122.108 46.7018V52.4614H121.33V47.6138C121.593 47.3173 121.85 47.0118 122.108 46.6973V46.7018Z" fill="#291770"/>
<path d="M122.063 21.3315C122.063 21.3315 122.095 21.3315 122.108 21.336L122.063 21.3315ZM121.588 21.3225C121.502 21.3225 121.416 21.3225 121.335 21.3225V21.345C121.439 21.3315 121.543 21.3225 121.651 21.3181H121.588V21.3225ZM121.778 20.5498H121.642C121.728 20.5498 121.814 20.5498 121.905 20.5498C121.864 20.5498 121.819 20.5498 121.778 20.5498ZM126.939 48.126L126.65 48.135C126.234 48.9212 125.777 49.6131 125.279 50.1836C125.392 50.1522 125.496 50.1208 125.605 50.0848C125.831 50.0174 126.053 49.941 126.27 49.8557C126.369 49.8197 126.464 49.7793 126.564 49.7434C126.912 49.2357 127.238 48.6651 127.545 48.0451C127.346 48.0766 127.138 48.099 126.939 48.126ZM129.843 35.9777C129.59 36.3866 129.332 36.7954 129.07 37.2042V37.2447C129.061 37.7703 129.038 38.2825 129.006 38.7902C128.898 40.4525 128.663 42.0339 128.323 43.485C128.265 43.7411 128.201 43.9927 128.133 44.2398C127.744 45.7044 127.238 47.0163 126.65 48.135C126.234 48.9257 125.777 49.6176 125.279 50.1881C125.107 50.3858 124.931 50.5745 124.745 50.7452C123.936 51.5135 123.045 51.9762 122.113 52.0616C122.086 52.0661 122.063 52.0706 122.04 52.0706C122.013 52.0751 121.991 52.0751 121.964 52.0751H121.941C121.869 52.0796 121.796 52.0796 121.719 52.0796C121.588 52.0796 121.461 52.0706 121.335 52.0526C120.606 51.9583 119.905 51.6393 119.254 51.1271C119.105 51.0103 118.955 50.8845 118.811 50.7452C118.779 50.7183 118.752 50.6913 118.729 50.6689C118.702 50.6419 118.675 50.6149 118.643 50.588C118.598 50.6419 118.548 50.6913 118.499 50.7452C118.376 50.88 118.25 51.0058 118.123 51.1361C118.322 51.3338 118.521 51.518 118.725 51.6752C118.802 51.7426 118.879 51.801 118.955 51.8549C119.819 52.4929 120.747 52.8343 121.701 52.8523C121.751 52.8523 121.805 52.8523 121.859 52.8478C121.909 52.8478 121.963 52.8478 122.013 52.8433C122.488 52.8164 122.954 52.713 123.411 52.5288C123.868 52.3491 124.307 52.093 124.736 51.7606C125.103 51.4775 125.46 51.1361 125.799 50.7497C125.804 50.7497 125.804 50.7452 125.804 50.7452C126.066 50.4442 126.324 50.1073 126.573 49.7434C126.921 49.2357 127.247 48.6696 127.55 48.0451C127.559 48.0361 127.563 48.0272 127.568 48.0137C128.079 46.9579 128.513 45.7853 128.862 44.5228C128.929 44.2713 128.993 44.0242 129.056 43.7681C129.522 41.8272 129.793 39.7112 129.843 37.5053C129.848 37.3121 129.852 37.1189 129.848 36.9212C129.852 36.8493 129.852 36.7729 129.852 36.7011C129.852 36.4585 129.852 36.2158 129.848 35.9777H129.843Z" fill="#291770"/>
<path d="M125.08 20.9224L126.039 21.1605C125.722 21.0706 125.406 20.9898 125.08 20.9224ZM115.282 50.7404C115.282 50.7404 115.278 50.7404 115.273 50.7404C113.993 50.1743 112.808 49.4375 111.741 48.5614C111.189 48.1122 110.673 47.6225 110.189 47.0968C110.013 46.9036 109.841 46.7105 109.673 46.5128C109.103 45.8344 108.592 45.1021 108.145 44.3293C108.004 44.6034 107.864 44.8729 107.728 45.1425C108.52 46.4139 109.479 47.5731 110.578 48.5794C111.478 49.4061 112.478 50.1294 113.55 50.7404H113.564C114.649 51.3604 115.812 51.8546 117.037 52.205C117.25 52.0029 117.463 51.7917 117.675 51.5805C116.847 51.3649 116.047 51.0863 115.282 50.7449V50.7404ZM115.282 50.7404C115.282 50.7404 115.278 50.7404 115.273 50.7404C113.993 50.1743 112.808 49.4375 111.741 48.5614C111.189 48.1122 110.673 47.6225 110.189 47.0968C110.013 46.9036 109.841 46.7105 109.673 46.5128C109.103 45.8344 108.592 45.1021 108.145 44.3293C108.004 44.6034 107.864 44.8729 107.728 45.1425C108.52 46.4139 109.479 47.5731 110.578 48.5794C111.478 49.4061 112.478 50.1294 113.55 50.7404H113.564C114.649 51.3604 115.812 51.8546 117.037 52.205C117.25 52.0029 117.463 51.7917 117.675 51.5805C116.847 51.3649 116.047 51.0863 115.282 50.7449V50.7404ZM115.282 50.7404C115.282 50.7404 115.278 50.7404 115.273 50.7404C113.993 50.1743 112.808 49.4375 111.741 48.5614C111.189 48.1122 110.673 47.6225 110.189 47.0968C110.013 46.9036 109.841 46.7105 109.673 46.5128C109.103 45.8344 108.592 45.1021 108.145 44.3293C108.004 44.6034 107.864 44.8729 107.728 45.1425C108.52 46.4139 109.479 47.5731 110.578 48.5794C111.478 49.4061 112.478 50.1294 113.55 50.7404H113.564C114.649 51.3604 115.812 51.8546 117.037 52.205C117.25 52.0029 117.463 51.7917 117.675 51.5805C116.847 51.3649 116.047 51.0863 115.282 50.7449V50.7404ZM137.46 33.1784C137.388 32.864 137.307 32.554 137.221 32.2485C137.148 31.9924 137.071 31.7408 136.981 31.4937C136.967 31.4577 136.958 31.4263 136.945 31.3904C136.488 30.083 135.864 28.852 135.099 27.7198C134.923 27.4592 134.737 27.2032 134.543 26.9516C134.43 27.2211 134.312 27.4997 134.195 27.7782C134.38 28.0343 134.556 28.2994 134.728 28.5734C135.362 29.5753 135.877 30.6536 136.262 31.7902C136.271 31.8172 136.28 31.8441 136.289 31.8711C136.375 32.1227 136.447 32.3698 136.52 32.6258C136.606 32.9403 136.682 33.2593 136.75 33.5828C136.958 34.5847 137.071 35.627 137.071 36.6962C137.071 40.2814 135.828 43.588 133.747 46.2028C133.697 46.2657 133.652 46.3286 133.602 46.387C133.435 46.5892 133.267 46.7868 133.091 46.9755C131.747 48.4581 130.124 49.6756 128.301 50.5517V50.5562H128.296C128.165 50.6191 128.025 50.682 127.894 50.7404C126.889 51.1897 125.831 51.5311 124.732 51.7558C123.881 51.931 123.008 52.0388 122.113 52.0658C122.09 52.0658 122.063 52.0702 122.04 52.0658C122.013 52.0702 121.991 52.0702 121.963 52.0702H121.941C121.868 52.0747 121.796 52.0747 121.719 52.0747H121.335C120.525 52.0568 119.724 51.9804 118.951 51.8501C118.833 51.8321 118.72 51.8097 118.612 51.7872C118.295 51.7243 117.987 51.6569 117.68 51.5761C117.472 51.7917 117.259 51.9984 117.047 52.205C117.345 52.2904 117.653 52.3668 117.96 52.4386C119.127 52.7082 120.34 52.8475 121.588 52.8475H121.697C121.746 52.8475 121.801 52.8475 121.855 52.843C121.905 52.843 121.959 52.843 122.009 52.8385C123.393 52.8026 124.727 52.6004 126.003 52.241C127.274 51.886 128.486 51.3739 129.612 50.7404C130.006 50.5203 130.395 50.2777 130.766 50.0216C132.562 48.7996 134.1 47.2316 135.28 45.4076C136.094 44.1496 136.737 42.7749 137.176 41.3102C137.619 39.8501 137.854 38.3001 137.854 36.6962C137.854 35.4877 137.718 34.3106 137.465 33.1784H137.46Z" fill="#291770"/>
<path d="M121.33 40.066V47.6182C121.593 47.3172 121.85 47.0117 122.108 46.7017V39.8099C121.846 39.8998 121.588 39.9851 121.33 40.066ZM117.553 49.2401C117.381 48.975 117.214 48.701 117.056 48.4134C116.395 47.2318 115.83 45.8077 115.409 44.1993C115.341 43.9522 115.278 43.7051 115.219 43.449C115.102 42.9458 114.997 42.4292 114.907 41.8945C114.654 41.9619 114.405 42.0203 114.156 42.0787C114.251 42.6403 114.364 43.1884 114.491 43.723C114.55 43.9791 114.618 44.2352 114.685 44.4778C115.034 45.7582 115.468 46.9488 115.988 48.0136C116.06 48.1573 116.133 48.3011 116.205 48.4359C116.544 49.0873 116.906 49.6624 117.291 50.1746C117.44 50.3767 117.594 50.5609 117.748 50.7406H117.752C117.874 50.8844 117.992 51.0147 118.114 51.136C118.241 51.0057 118.367 50.8799 118.49 50.7451C118.539 50.6912 118.589 50.6418 118.634 50.5879C118.603 50.552 118.566 50.516 118.535 50.4801C118.191 50.1207 117.861 49.7073 117.549 49.2401H117.553ZM115.273 50.7406C113.993 50.1746 112.808 49.4378 111.741 48.5617C111.189 48.1124 110.673 47.6182 110.189 47.0971C110.013 46.9084 109.845 46.7107 109.673 46.513C109.108 45.8346 108.592 45.1023 108.145 44.3296C107.991 44.0555 107.837 43.777 107.697 43.4894C107.67 43.4355 107.642 43.3816 107.62 43.3277C107.529 43.1435 107.443 42.9548 107.358 42.7616C107.253 42.528 107.154 42.2854 107.064 42.0338C107.014 41.8945 106.959 41.7508 106.919 41.607C106.674 40.9061 106.485 40.1873 106.353 39.446C106.19 38.5564 106.105 37.6399 106.105 36.701C106.105 35.9147 106.163 35.1465 106.285 34.3917C105.996 34.5445 105.716 34.6972 105.44 34.85L105.39 35.2633C105.345 35.735 105.327 36.2113 105.327 36.701C105.327 38.4441 105.602 40.1289 106.127 41.7013C106.177 41.8586 106.231 42.0158 106.285 42.1686C106.376 42.4157 106.471 42.6583 106.575 42.9009C106.647 43.0806 106.729 43.2558 106.81 43.431C106.95 43.7365 107.1 44.0375 107.263 44.3296L107.733 45.1472C108.52 46.4187 109.484 47.5733 110.583 48.5797C111.483 49.4063 112.482 50.1296 113.555 50.7406H113.568C114.654 51.3606 115.816 51.8548 117.042 52.2098C117.255 52.0031 117.467 51.7964 117.675 51.5808C116.852 51.3696 116.051 51.0866 115.282 50.7451C115.278 50.7451 115.278 50.7406 115.273 50.7406ZM133.322 25.5321C133.01 25.5725 132.693 25.6175 132.372 25.6759C132.747 26.0398 133.105 26.4217 133.439 26.8215H133.444C132.091 27.9222 130.608 28.8163 129.011 29.4902C128.753 28.4389 128.436 27.446 128.061 26.5205C127.903 26.1296 127.735 25.7478 127.559 25.3839C127.468 25.1997 127.378 25.0244 127.283 24.8537C127.12 24.5437 126.948 24.2517 126.772 23.9776C126.686 23.8339 126.595 23.6946 126.5 23.5598C126.342 23.3352 126.184 23.1195 126.016 22.9129C125.727 22.5669 125.433 22.2479 125.125 21.9694C124.994 21.8526 124.863 21.7448 124.732 21.6414C124.931 21.6819 125.139 21.7268 125.338 21.7807C126.6 22.0907 127.803 22.5579 128.925 23.16C129.386 23.4071 129.834 23.6811 130.268 23.9776C130.359 24.0405 130.449 24.1034 130.54 24.1663C130.897 24.1034 131.245 24.0405 131.589 23.9821H131.585C131.291 23.744 130.979 23.5194 130.662 23.3082H130.657C129.255 22.3648 127.704 21.6369 126.035 21.1652L125.08 20.9271C124.094 20.707 123.072 20.5856 122.027 20.5587C121.986 20.5587 121.945 20.5542 121.9 20.5542C121.814 20.5542 121.728 20.5542 121.638 20.5542H121.584C119.204 20.5542 116.943 21.0664 114.903 21.9874C113.713 22.522 112.6 23.1869 111.587 23.9821C109.588 25.5321 107.968 27.5314 106.874 29.8316C106.828 29.926 106.788 30.0203 106.742 30.1102C106.697 30.209 106.656 30.3034 106.62 30.4022C106.426 30.856 106.249 31.3187 106.1 31.7949C106.064 31.8983 106.028 32.0016 106.001 32.1094C105.969 32.2128 105.937 32.3161 105.91 32.4239C105.896 32.4778 105.878 32.5362 105.865 32.5901C106.177 32.4284 106.489 32.2667 106.815 32.1094C107.367 30.3528 108.231 28.7309 109.343 27.3067C110.37 28.1558 111.474 28.8882 112.641 29.5037C113.197 29.8002 113.767 30.0652 114.351 30.3034C114.314 30.4696 114.283 30.6358 114.251 30.802C114.07 31.723 113.93 32.6845 113.844 33.6639C113.794 34.1761 113.758 34.6927 113.735 35.2139C113.713 35.7081 113.704 36.2068 113.704 36.7055C113.704 37.9275 113.767 39.1315 113.903 40.2951C113.907 40.358 113.912 40.4164 113.921 40.4793C113.948 40.7399 113.984 41.0005 114.02 41.2521C114.061 41.5306 114.106 41.8092 114.156 42.0832C114.251 42.6448 114.364 43.1929 114.491 43.7275C114.55 43.9836 114.618 44.2397 114.685 44.4823C115.034 45.7627 115.468 46.9533 115.988 48.0181C116.06 48.1618 116.133 48.3056 116.205 48.4404C116.544 49.0918 116.906 49.6669 117.291 50.1791C117.44 50.3812 117.594 50.5654 117.748 50.7451H117.752C117.874 50.8889 117.992 51.0192 118.114 51.1405C118.241 51.0102 118.367 50.8844 118.49 50.7496C118.539 50.6957 118.589 50.6463 118.634 50.5924C118.603 50.5564 118.566 50.5205 118.535 50.4846C118.191 50.1251 117.861 49.7118 117.549 49.2446C117.377 48.9795 117.209 48.7055 117.051 48.4179C116.391 47.2363 115.825 45.8122 115.405 44.2038C115.337 43.9567 115.273 43.7096 115.215 43.4535C115.097 42.9503 114.993 42.4336 114.903 41.899C114.853 41.6205 114.812 41.3329 114.771 41.0454C114.735 40.7938 114.699 40.5332 114.676 40.2727C114.672 40.2187 114.663 40.1648 114.658 40.1109C114.541 39.0147 114.473 37.8736 114.473 36.7055C114.473 35.7844 114.513 34.8859 114.586 34.0098C114.631 33.4617 114.69 32.9271 114.767 32.4014C114.853 31.777 114.957 31.1749 115.074 30.5864C117.078 31.3142 119.177 31.7006 121.326 31.741V47.6227C121.588 47.3217 121.846 47.0162 122.104 46.7062V31.741C124.288 31.7006 126.424 31.3007 128.455 30.546C128.762 32.0196 128.961 33.619 129.033 35.2903V35.3127C129.047 35.5778 129.052 35.8473 129.061 36.1169V37.2086C129.323 36.7998 129.581 36.391 129.834 35.9821C129.834 35.9147 129.83 35.8563 129.83 35.7934C129.821 35.5284 129.812 35.2543 129.793 34.9892V34.9668C129.707 33.3314 129.504 31.7455 129.183 30.2629C130.893 29.5531 132.48 28.6051 133.923 27.4325C134.014 27.5538 134.104 27.6661 134.19 27.7874C134.308 27.5089 134.425 27.2303 134.538 26.9608C134.158 26.4666 133.751 25.9904 133.317 25.5366L133.322 25.5321ZM114.753 28.677C114.672 28.96 114.595 29.2431 114.527 29.5351C114.215 29.4048 113.907 29.2655 113.604 29.1173C112.261 28.4703 110.994 27.6616 109.836 26.7002C110.727 25.6624 111.763 24.7459 112.903 23.9776C114.048 23.2004 115.305 22.5759 116.644 22.1266C117.386 21.8751 118.15 21.6819 118.942 21.5471C118.666 21.7493 118.395 21.9874 118.128 22.2524C117.861 22.5175 117.603 22.814 117.354 23.142C117.155 23.3981 116.961 23.6766 116.775 23.9776C116.499 24.4089 116.237 24.8762 115.988 25.3839C115.5 26.3812 115.088 27.4864 114.753 28.677ZM116.074 30.1057C115.798 30.0158 115.522 29.9215 115.251 29.8226C115.373 29.3105 115.504 28.8163 115.653 28.3445C116.183 26.6193 116.875 25.1323 117.68 23.9776C117.734 23.9013 117.784 23.8294 117.838 23.7575C118.082 23.416 118.34 23.1105 118.612 22.841C118.788 22.6568 118.974 22.4906 119.154 22.3423C119.833 21.7852 120.566 21.4438 121.326 21.3494V21.3269C121.412 21.3225 121.493 21.3225 121.579 21.3225H121.642C121.534 21.3269 121.43 21.3359 121.326 21.3494V30.9683C119.53 30.9323 117.766 30.6448 116.07 30.1057H116.074ZM122.108 30.9683V21.3404C122.108 21.3404 122.077 21.3314 122.063 21.3314H122.108V21.3404C122.732 21.3988 123.334 21.619 123.909 21.9919C124.13 22.1356 124.347 22.3019 124.56 22.4906C124.682 22.5939 124.8 22.7062 124.917 22.823C125.012 22.9174 125.107 23.0207 125.198 23.124C125.428 23.3801 125.65 23.6676 125.867 23.9776C126.093 24.3056 126.315 24.656 126.523 25.0334C126.803 25.5411 127.066 26.0982 127.31 26.6957C127.69 27.6347 128.02 28.668 128.287 29.7822C126.315 30.528 124.234 30.9233 122.108 30.9683ZM106.105 36.701C106.105 35.9147 106.163 35.1465 106.285 34.3917C105.996 34.5445 105.716 34.6972 105.44 34.85L105.39 35.2633C105.345 35.735 105.327 36.2113 105.327 36.701C105.327 38.4441 105.602 40.1289 106.127 41.7013C106.385 41.6744 106.652 41.6429 106.919 41.607C106.674 40.9061 106.485 40.1873 106.353 39.446C106.19 38.5564 106.105 37.6399 106.105 36.701Z" fill="#291770"/>
<path d="M122.013 37.9501C121.787 38.0264 121.556 38.1028 121.33 38.1747C119.06 38.9205 116.811 39.5674 114.663 40.1065C114.405 40.1694 114.152 40.2323 113.903 40.2908C113.907 40.3536 113.912 40.4121 113.921 40.4749C113.948 40.7355 113.984 40.9961 114.021 41.2477C114.061 41.5262 114.106 41.8048 114.156 42.0788C114.405 42.0204 114.654 41.962 114.907 41.8946C116.979 41.3825 119.141 40.7715 121.33 40.0661C121.588 39.9852 121.846 39.8999 122.108 39.81V37.9186C122.077 37.9276 122.045 37.9411 122.013 37.9501ZM144.219 25.5861C143.576 23.6812 140.577 22.9714 135.317 23.4746C134.145 23.5869 132.901 23.7576 131.589 23.9823C131.929 24.2383 132.25 24.5124 132.562 24.7954L133.24 25.4469C133.267 25.4738 133.295 25.5053 133.322 25.5322C134.073 25.4199 134.792 25.3346 135.488 25.2672C136.565 25.1638 137.488 25.1189 138.279 25.1189C139.777 25.1189 140.799 25.2762 141.464 25.4828C142.129 25.6895 142.436 25.9501 142.504 26.1567C142.685 26.6824 141.857 28.3851 137.461 31.0852C137.293 31.1885 137.121 31.2919 136.945 31.3952C136.723 31.53 136.493 31.6603 136.262 31.7951C134.371 32.8733 132.186 33.9516 129.798 34.9849C129.549 35.0927 129.296 35.2005 129.038 35.3083C126.862 36.2249 124.533 37.1054 122.108 37.9186C122.077 37.9276 122.045 37.9411 122.013 37.9501C121.787 38.0264 121.556 38.1028 121.33 38.1747C119.06 38.9205 116.811 39.5674 114.663 40.1065C114.405 40.1694 114.152 40.2323 113.903 40.2908C111.411 40.8883 109.054 41.3375 106.919 41.6071C106.652 41.6431 106.385 41.6745 106.127 41.7015C105.924 41.7239 105.725 41.7464 105.53 41.7644C100.387 42.2541 98.6908 41.3915 98.5144 40.8703C98.338 40.3447 99.1613 38.6419 103.558 35.9418C104.151 35.5779 104.779 35.214 105.44 34.8501L105.503 34.3334C105.589 33.7404 105.711 33.1563 105.865 32.5858C104.693 33.1923 103.603 33.8033 102.608 34.4143C98.1073 37.1773 96.1532 39.5405 96.8001 41.4409C97.3112 42.9504 99.297 43.7097 102.721 43.7097C103.617 43.7097 104.612 43.6558 105.702 43.5525C106.064 43.5165 106.43 43.4761 106.81 43.4311C107.077 43.3997 107.344 43.3682 107.62 43.3278C109.642 43.0493 111.845 42.627 114.156 42.0788C114.405 42.0204 114.654 41.962 114.907 41.8946C116.979 41.3825 119.141 40.7715 121.33 40.0661C121.588 39.9852 121.846 39.8999 122.108 39.81C122.267 39.7606 122.429 39.7067 122.592 39.6528C124.836 38.898 127.012 38.0938 129.065 37.2447C129.328 37.1414 129.585 37.0335 129.839 36.9212C132.381 35.8475 134.719 34.7243 136.75 33.5876C136.99 33.4529 137.23 33.3181 137.461 33.1833C137.786 32.9946 138.107 32.8014 138.415 32.6127C142.35 30.1957 144.341 28.0841 144.341 26.3185C144.341 26.0669 144.3 25.8243 144.219 25.5861Z" fill="#F0BB00"/>
<path d="M133.322 25.5324C133.01 25.5728 132.693 25.6178 132.372 25.6762C131.802 25.1281 131.191 24.6204 130.54 24.1666C130.897 24.1037 131.246 24.0408 131.589 23.9824C131.929 24.2385 132.25 24.5126 132.562 24.7956L133.24 25.447C133.268 25.474 133.295 25.5054 133.322 25.5324Z" fill="#291770"/>
<path d="M106.815 32.105C106.58 32.8463 106.399 33.61 106.286 34.3918C105.996 34.5445 105.716 34.6973 105.44 34.85L105.503 34.3334C105.589 33.7403 105.711 33.1563 105.865 32.5857C106.177 32.424 106.489 32.2622 106.815 32.105Z" fill="#291770"/>
</g>
<defs>
<clipPath id="clip0_328_13394">
<rect width="148" height="60" fill="white"/>
</clipPath>
</defs>
</svg>
