<svg width="24" height="24" viewBox="0 0 24 24" fill="none" xmlns="http://www.w3.org/2000/svg">
<path d="M21.6459 19.3065C20.9799 21.1831 18.5825 22.1214 16.851 21.9874C14.4535 21.7193 11.9228 20.5129 9.92495 19.1724C7.12791 17.1617 4.33087 13.9446 2.86575 10.5935C1.80021 8.18064 1.53383 5.36567 3.13214 3.22093C3.7981 2.41665 4.33087 2.01451 5.39641 2.01451C6.72833 1.88047 6.99472 2.68474 7.3943 4.02521C7.79387 4.96353 8.19345 5.90185 8.45984 6.84018C8.99261 8.58278 7.2611 8.71682 6.99472 10.1913C6.86153 11.1297 7.92707 12.3361 8.45984 13.0063C9.39218 14.3468 10.5909 15.4191 11.9228 16.2234C12.722 16.7596 13.9207 17.5639 14.7199 17.0277C16.0518 16.3575 15.9186 14.0787 17.7833 14.7489C18.7157 15.151 19.648 15.6872 20.5804 16.2234C22.3119 16.8936 22.1787 17.6979 21.6459 19.3065C22.0455 18.1001 21.2463 20.5129 21.6459 19.3065Z" fill="currentColor"/>
</svg>
