<svg width="60" height="60" viewBox="0 0 60 60" fill="none" xmlns="http://www.w3.org/2000/svg">
<path d="M8.78906 0.105463C7.78125 0.433588 6.84375 1.24218 6.30469 2.24999C6.07031 2.68359 6.03516 2.91796 6.03516 3.98437C6.03516 5.05078 6.07031 5.28515 6.31641 5.74218C6.75 6.56249 7.03125 6.89062 7.66406 7.32421C9.72656 8.73046 12.5156 8.0039 13.6055 5.78906L13.9805 5.03906H17.4727H20.9766V8.54296C20.9766 11.8477 20.9883 12.0586 21.2109 12.3281C21.5742 12.8086 21.9258 12.7969 23.4844 12.2461C24.2578 11.9766 25.2891 11.6602 25.7578 11.543C26.3672 11.4023 26.6719 11.2617 26.8359 11.0508C27.3867 10.3477 26.9062 9.38671 26.0156 9.37499C25.6523 9.37499 23.8594 9.79687 23.2969 10.0195C23.0977 10.1016 23.0859 9.92578 23.0859 7.39453C23.0859 4.05468 22.9687 3.66796 21.8555 3.15234C21.4336 2.95312 21.0234 2.92968 17.6719 2.92968H13.957L13.6758 2.29687C13.3125 1.51171 12.5508 0.726557 11.7773 0.339838C11.3086 0.117182 10.9805 0.058588 10.1367 0.0351505C9.5625 0.0234318 8.95312 0.0468693 8.78906 0.105463ZM11.168 2.49609C12.3164 3.36328 12.0937 5.06249 10.7578 5.71874C10.0547 6.07031 9.42187 5.98828 8.83594 5.47265C8.23828 4.95703 8.05078 4.52343 8.10937 3.84374C8.17969 3.19921 8.4375 2.76562 9.03516 2.36718C9.58594 1.98046 10.582 2.03906 11.168 2.49609Z" fill="currentColor"/>
<path d="M29.2383 0.292969L28.9453 0.574219V5.50781V10.4414L29.2148 10.7109C29.4609 10.957 29.6484 11.0039 30.7148 11.0742C31.3828 11.1094 32.4141 11.2266 33.0117 11.3203C33.7266 11.4258 34.1836 11.4492 34.3828 11.3789C35.0391 11.1211 35.2617 10.1719 34.7695 9.67969C34.4648 9.375 33.668 9.19922 32.0273 9.07031L31.0547 8.98828V4.78125V0.574219L30.7617 0.292969C30.3633 -0.117188 29.6367 -0.117188 29.2383 0.292969Z" fill="currentColor"/>
<path d="M48.6094 0.175789C47.5664 0.562508 46.7344 1.35938 46.2773 2.40235L46.043 2.9297H42.3281C38.9766 2.9297 38.5664 2.95313 38.1445 3.15235C37.582 3.41016 37.3359 3.66798 37.0898 4.25391C36.9492 4.60548 36.9141 5.29688 36.9141 8.1797C36.9141 10.4531 36.9609 11.8125 37.043 12.0586C37.1602 12.375 37.3594 12.5274 38.3086 12.9961C39.8555 13.7813 41.3438 14.7891 42.5859 15.8906C43.1484 16.3945 43.7344 16.8867 43.875 16.957C44.2734 17.1914 44.6484 17.1328 45.0117 16.7695C45.457 16.3242 45.4688 15.75 45.0469 15.2461C44.2031 14.25 41.4609 12.2227 39.7617 11.332L39.0234 10.957V7.9922V5.03907H42.5273H46.0195L46.3945 5.78907C47.4844 8.00391 50.2734 8.73048 52.3359 7.32423C53.4258 6.57423 53.9297 5.63673 54 4.21876C54.0586 2.96485 53.7891 2.15626 53.0039 1.28907C52.1836 0.375008 51.5156 0.0820389 50.1563 0.0351639C49.3945 0.0117264 48.9023 0.0586014 48.6094 0.175789ZM50.9766 2.3672C51.5508 2.76563 51.8203 3.19923 51.8906 3.84376C51.9492 4.52345 51.7617 4.95704 51.1641 5.47266C50.5781 5.98829 49.9453 6.07032 49.2422 5.71876C47.8594 5.03907 47.6836 3.32813 48.9023 2.44923C49.5117 2.00391 50.3906 1.96876 50.9766 2.3672Z" fill="currentColor"/>
<path d="M28.5586 13.0313C22.3593 13.4649 16.7109 17.5781 14.2734 23.4141C12.5976 27.4102 12.539 32.1328 14.1093 36.1875C14.6367 37.5469 14.9531 38.168 15.7968 39.4336C20.2382 46.1484 28.7695 48.7969 36.3867 45.8203C38.4609 45 40.3828 43.7344 42.0586 42.0586C45.6093 38.4961 47.3554 33.7266 46.9804 28.6406C46.8281 26.5195 46.1367 24.0469 45.1992 22.1953C44.7187 21.2461 43.5586 19.5703 42.7968 18.7149C39.164 14.625 34.1601 12.6328 28.5586 13.0313ZM32.5781 15.3164C33.7617 15.5156 35.625 16.1133 36.6093 16.6055C40.207 18.4102 43.0312 21.7266 44.2265 25.5234C45.1172 28.3594 45.1172 31.6406 44.2265 34.4766C42.5742 39.75 38.0976 43.6758 32.5781 44.707C31.9804 44.8125 30.9492 44.8945 30 44.8945C29.0507 44.8945 28.0195 44.8125 27.4218 44.707C21.1875 43.5469 16.3593 38.6953 15.2929 32.5313C15.0703 31.207 15.0703 28.793 15.2929 27.4922C15.8086 24.5156 17.1328 21.9141 19.2656 19.6992C22.7812 16.0547 27.5742 14.4727 32.5781 15.3164Z" fill="currentColor"/>
<path d="M28.7461 18.1055C27.2578 18.5039 26.0625 19.5117 25.418 20.8945C25.043 21.7031 25.0195 21.8203 24.9844 23.3437L24.9375 24.9609H24.6211C24.1289 24.9609 23.1797 25.4766 22.7109 25.9922C21.9492 26.8359 21.9141 27.0937 21.9141 32.5195C21.9141 38.1328 21.9258 38.2266 22.8516 39.1406C23.7773 40.0781 23.8008 40.0781 30 40.0781C36.1992 40.0781 36.2227 40.0781 37.1484 39.1406C38.0742 38.2266 38.0859 38.1328 38.0859 32.5195C38.0859 27.0937 38.0508 26.8359 37.2891 25.9922C36.8203 25.4766 35.8711 24.9609 35.3789 24.9609H35.0625L35.0156 23.3437C34.9805 21.7852 34.9688 21.7148 34.5586 20.8594C33.4805 18.6328 31.0547 17.4844 28.7461 18.1055ZM31.2656 20.3789C31.8633 20.6836 32.6133 21.5391 32.7891 22.125C32.8711 22.3828 32.9297 23.1211 32.9297 23.7773V24.9609H30H27.0703V23.7773C27.0703 22.3242 27.2109 21.8203 27.8086 21.1406C28.7578 20.0625 30.0703 19.7695 31.2656 20.3789ZM35.5898 27.3516L35.918 27.6328V32.5078V37.3711L35.6484 37.6406L35.3789 37.9102H30H24.6211L24.3516 37.6406L24.082 37.3711V32.5078V27.6328L24.4102 27.3516L24.7383 27.0703H30H35.2617L35.5898 27.3516Z" fill="currentColor"/>
<path d="M28.8516 29.1445C28.1602 29.3906 27.3751 30.2109 27.129 30.9492C26.6368 32.4023 27.3165 34.1367 28.5821 34.6992C28.8282 34.8164 28.9454 34.9453 28.9454 35.1211C28.9454 35.2617 29.0743 35.5195 29.2266 35.707C29.6251 36.1641 30.3751 36.1641 30.7735 35.707C30.9258 35.5195 31.0547 35.2617 31.0547 35.1211C31.0547 34.9453 31.1719 34.8164 31.418 34.6992C32.2852 34.3125 32.9415 33.3047 33.0235 32.2031C33.1876 29.9648 31.0313 28.3711 28.8516 29.1445ZM30.3868 31.1836C30.6915 31.3242 30.9376 31.7344 30.9376 32.0977C30.9376 32.4609 30.3985 32.9297 30.0001 32.9297C29.5782 32.9297 29.0626 32.4844 29.0626 32.1211C29.0626 31.7578 29.2969 31.3242 29.5782 31.1953C29.9063 31.0313 30.0469 31.0313 30.3868 31.1836Z" fill="currentColor"/>
<path d="M16.3594 13.957C15.0587 15.0469 13.7696 16.4648 12.7383 17.9531L12.0235 18.9844H9.93756C8.0274 18.9844 7.85162 18.9727 7.85162 18.7734C7.85162 18.4453 7.19537 17.4141 6.72662 16.9922C6.48053 16.7812 5.98834 16.4648 5.62506 16.3008C5.08599 16.043 4.81646 15.9961 3.98443 15.9961C3.1524 16.0078 2.87115 16.0547 2.28521 16.3242C1.38287 16.7461 0.562557 17.6133 0.234432 18.4922C-0.11713 19.3945 -0.0585365 21.0117 0.339901 21.7734C0.738338 22.5469 1.47662 23.2734 2.2149 23.6367C2.78912 23.9297 3.00006 23.9648 3.98443 23.9648C4.87506 23.9648 5.20318 23.918 5.64849 23.707C6.45709 23.3438 7.31256 22.4883 7.62896 21.7383L7.91021 21.0938H10.3712C12.0821 21.0938 12.9141 21.0469 13.1133 20.9414C13.2774 20.8711 13.7579 20.2734 14.2032 19.6172C15.2696 18.0234 16.5118 16.6289 17.7891 15.5742C18.961 14.6133 19.1836 14.25 18.9727 13.6289C18.8204 13.1602 18.5626 13.0078 17.9532 13.0078C17.5547 13.0078 17.3555 13.125 16.3594 13.957ZM4.75787 18.2695C6.05865 18.8672 6.31646 20.4258 5.27349 21.375C4.73443 21.8555 4.39459 21.9727 3.72662 21.8789C3.16412 21.8086 2.74224 21.5273 2.36724 20.9648C2.13287 20.6367 2.09771 20.4492 2.13287 19.9102C2.19146 19.1133 2.54303 18.5742 3.21099 18.2695C3.82037 18 4.14849 18 4.75787 18.2695Z" fill="currentColor"/>
<path d="M54.8789 16.1016C54.1523 16.3359 53.4023 16.8047 52.9805 17.2852C52.582 17.7539 52.1484 18.5273 52.1484 18.8086C52.1484 18.9609 51.8086 18.9844 49.5117 18.9844H46.8633L46.582 19.2773C46.4062 19.4414 46.2891 19.6992 46.2891 19.8984C46.2891 20.0859 46.5938 20.8945 46.9805 21.6914C47.7539 23.332 48.1758 24.5273 48.5156 26.0977C48.7266 27.0469 48.9844 29.2852 48.9844 30.1523C48.9844 30.3398 49.1016 30.5977 49.2773 30.7617L49.5586 31.0547H54.4922H59.4258L59.707 30.7617C59.9297 30.5508 60 30.3516 60 30C60 29.6484 59.9297 29.4492 59.707 29.2383L59.4258 28.9453H55.2188H51.0117L50.9297 27.9492C50.7891 26.1094 50.0977 23.3906 49.2891 21.5273L49.1016 21.0937H50.5898H52.0898L52.3711 21.7383C52.957 23.0977 54.4336 24.0234 56.0156 24.0234C57.6328 24.0234 59.0508 23.1094 59.707 21.668C60 21.0117 60.0234 20.8594 59.9766 19.8164C59.9414 18.8437 59.8828 18.6094 59.5898 18.0703C58.9102 16.8164 57.6562 16.043 56.2031 15.9727C55.7109 15.9492 55.1719 16.0078 54.8789 16.1016ZM56.7891 18.2695C57.457 18.5742 57.8086 19.1133 57.8672 19.9102C57.9023 20.4492 57.8672 20.6367 57.6328 20.9648C57.2578 21.5273 56.8359 21.8086 56.2734 21.8789C55.6055 21.9727 55.2656 21.8555 54.7266 21.375C53.8477 20.5781 53.8594 19.4531 54.7383 18.6094C55.3594 18.0117 55.9922 17.9062 56.7891 18.2695Z" fill="currentColor"/>
<path d="M10.3477 22.9102C9.90234 23.2266 9.22266 25.8867 9.07031 27.9258L8.98828 28.9453H4.78125H0.574219L0.292969 29.2383C-0.117188 29.6367 -0.117188 30.3633 0.292969 30.7617L0.574219 31.0547H5.50781H10.4414L10.7109 30.7852C10.9453 30.5508 10.9922 30.3516 11.0625 29.3438C11.1797 27.5977 11.3438 26.5664 11.7305 25.0898C12.1055 23.6836 12.0938 23.3438 11.7188 22.9688C11.4375 22.6875 10.7109 22.6523 10.3477 22.9102Z" fill="currentColor"/>
<path d="M9.90229 33.0703C9.52729 33.2812 9.38666 33.5391 9.37494 33.9844C9.37494 34.5469 9.87885 36.3633 10.4179 37.7461L10.8749 38.9062H9.38666H7.9101L7.62885 38.2617C7.04291 36.9023 5.56635 35.9766 3.98432 35.9766C2.36713 35.9766 0.949161 36.8906 0.292911 38.332C-5.76824e-05 38.9883 -0.0234952 39.1406 0.0233798 40.1836C0.0585361 41.1562 0.11713 41.3906 0.410099 41.9297C0.831974 42.7031 1.4765 43.2891 2.33197 43.6992C2.88275 43.957 3.15229 44.0039 3.98432 44.0039C5.10932 44.0039 5.91791 43.7109 6.72651 43.0078C7.19526 42.5859 7.85151 41.5547 7.85151 41.2148C7.85151 41.0273 8.05072 41.0156 10.4882 41.0156H13.1367L13.4179 40.7227C13.8398 40.3008 13.7929 39.8789 13.1367 38.5664C12.5038 37.3242 11.871 35.6016 11.5429 34.2422C11.4023 33.6328 11.2617 33.3281 11.0507 33.1641C10.7109 32.9062 10.2538 32.8711 9.90229 33.0703ZM4.7226 38.2148C5.21479 38.4727 5.74213 39.082 5.87104 39.5156C6.2226 40.8516 4.83979 42.2461 3.52729 41.8594C2.63666 41.5898 2.10932 40.8867 2.10932 39.9609C2.10932 39.2109 2.58979 38.4961 3.28119 38.2148C3.67963 38.0625 4.41791 38.0625 4.7226 38.2148Z" fill="currentColor"/>
<path d="M48.9492 33.1641C48.7383 33.3281 48.5977 33.6328 48.4571 34.2422C48.1289 35.6016 47.4961 37.3242 46.8633 38.5664C46.2071 39.8789 46.1602 40.3008 46.5821 40.7227L46.8633 41.0156H49.5117C51.9492 41.0156 52.1485 41.0273 52.1485 41.2148C52.1485 41.5547 52.8047 42.5859 53.2735 43.0078C54.0703 43.7109 54.8789 44.0039 56.0157 44.0039C56.8477 44.0039 57.1172 43.9453 57.6797 43.6875C58.4883 43.3125 59.2735 42.5625 59.6602 41.7773C59.9063 41.2734 59.9414 41.0273 59.9414 39.9609C59.9414 38.8125 59.918 38.6836 59.5899 38.1094C58.3008 35.7539 55.2422 35.2383 53.2735 37.0312C52.8633 37.418 52.5469 37.8398 52.3711 38.2617L52.0899 38.9062H50.6133H49.125L49.5821 37.7461C50.1211 36.3633 50.625 34.5469 50.625 33.9844C50.6133 33.0938 49.6524 32.6133 48.9492 33.1641ZM57.0469 38.4023C57.586 38.8008 57.8907 39.3516 57.8907 39.9258C57.8907 40.8867 57.3867 41.5781 56.4727 41.8594C55.1602 42.2461 53.7774 40.8516 54.1289 39.5156C54.2461 39.0938 54.75 38.5078 55.2539 38.2148C55.6055 38.0156 56.6719 38.1211 57.0469 38.4023Z" fill="currentColor"/>
<path d="M14.168 42.1055C13.8633 42.3398 13.6875 42.7852 13.7578 43.1484C13.9688 44.2031 17.5898 47.2969 20.1797 48.6328L20.9766 49.043V51.9961V54.9609H17.4727H13.9805L13.6055 54.2109C12.5156 51.9961 9.72656 51.2695 7.66406 52.6758C7.03125 53.1094 6.75 53.4375 6.31641 54.2578C6.07031 54.7148 6.03516 54.9492 6.03516 56.0156C6.03516 57.082 6.07031 57.3164 6.30469 57.75C6.70312 58.5 7.46484 59.2734 8.14453 59.625C8.67188 59.9062 8.85938 59.9414 9.96094 59.9414C11.0273 59.9414 11.2734 59.9062 11.7773 59.6602C12.5508 59.2734 13.3125 58.4883 13.6758 57.7031L13.957 57.0703H17.6484C20.707 57.0703 21.4102 57.0352 21.7617 56.8945C22.3477 56.6484 22.6055 56.4023 22.8633 55.8398C23.0625 55.418 23.0859 55.0195 23.0859 51.8438C23.0859 49.582 23.0391 48.1875 22.957 47.9531C22.8516 47.6367 22.6172 47.4727 21.4688 46.875C19.5703 45.8906 18.1055 44.8125 16.5586 43.2656C15.3398 42.0586 15.1992 41.9531 14.7891 41.9531C14.5547 41.9531 14.2734 42.0234 14.168 42.1055ZM10.7812 54.2812C12.0938 54.9492 12.3047 56.6367 11.168 57.5039C10.582 57.9609 9.58594 58.0195 9.03516 57.6328C8.4375 57.2344 8.17969 56.8008 8.10938 56.1562C8.05078 55.5117 8.22656 55.0898 8.76562 54.5742C9.375 53.9883 10.0195 53.9062 10.7812 54.2812Z" fill="currentColor"/>
<path d="M43.9922 42.9844C43.8633 43.0312 43.3477 43.4297 42.8437 43.8867C41.5312 45.0703 40.1016 46.0664 38.5312 46.875C37.3828 47.4726 37.1484 47.6367 37.043 47.9531C36.9609 48.1875 36.9141 49.582 36.9141 51.8437C36.9141 55.0195 36.9375 55.418 37.1367 55.8398C37.3945 56.4023 37.6523 56.6484 38.2383 56.8945C38.5898 57.0352 39.293 57.0703 42.3516 57.0703H46.043L46.3242 57.7031C46.6875 58.4883 47.3789 59.1914 48.1875 59.6016C49.0664 60.0586 50.5195 60.1289 51.4687 59.7656C52.3359 59.4375 53.2266 58.6406 53.625 57.8086C54.082 56.8828 54.1523 55.5352 53.7891 54.5508C53.4375 53.6016 52.3477 52.5117 51.4453 52.1953C49.4297 51.5039 47.3086 52.3477 46.3945 54.2109L46.0195 54.9609H42.5273H39.0234V51.9961V49.043L39.7617 48.668C41.4609 47.7773 44.2031 45.75 45.0469 44.7539C45.7617 43.9102 45.0234 42.6562 43.9922 42.9844ZM50.5312 54.1406C51.0117 54.2812 51.75 55.0195 51.8672 55.4883C51.9844 55.9453 51.8437 56.7187 51.5859 57.0586C51.4687 57.2227 51.1875 57.4922 50.9648 57.6328C50.6367 57.8672 50.4492 57.9023 49.8984 57.8672C47.8828 57.7266 47.4023 55.207 49.2187 54.2812C49.8047 53.9883 49.9219 53.9766 50.5312 54.1406Z" fill="currentColor"/>
<path d="M25.4883 48.6562C25.1016 48.8555 24.9609 49.125 24.9609 49.5938C24.9609 50.4727 25.5469 50.7305 27.9844 50.9297L28.9453 51.0117V55.2188V59.4258L29.2383 59.707C29.6367 60.1172 30.3633 60.1172 30.7617 59.707L31.0547 59.4258V55.2188V51.0234L32.4375 50.8828C34.2539 50.6953 34.6406 50.5781 34.8633 50.1562C35.0859 49.7227 35.0859 49.3359 34.8516 49.0078C34.5352 48.5508 34.1953 48.5039 32.9531 48.7031C31.4531 48.9492 28.5469 48.9492 27.0469 48.7031C25.7109 48.4805 25.793 48.4922 25.4883 48.6562Z" fill="currentColor"/>
</svg>
