<svg width="60" height="60" viewBox="0 0 60 60" fill="none" xmlns="http://www.w3.org/2000/svg">
<path d="M36.7782 2.55718C34.0462 3.9462 31.799 5.20081 31.799 5.33523C31.799 5.60407 41.7575 10.7121 42.3303 10.7121C42.5506 10.7121 42.815 10.264 42.9031 9.68153C43.0353 8.69577 43.1235 8.69577 51.1872 8.47173C58.9866 8.2477 59.3391 8.20289 59.3391 7.35155C59.3391 6.50022 58.9866 6.45541 50.1297 6.32099C44.3573 6.27618 40.744 6.36579 40.3915 6.67944C40.039 6.9931 39.4221 6.90348 38.4967 6.4106C36.4698 5.42484 36.4698 5.11119 38.4967 4.17024C39.8627 3.54294 40.3915 3.49813 40.5237 3.9014C40.6559 4.30466 42.5947 4.43908 47.9265 4.43908H55.153V3.3189V2.24353L49.1162 2.10911C43.1675 1.97468 43.0353 1.92988 42.9031 0.944118C42.815 0.40643 42.5066 -0.0416422 42.2422 0.00316525C41.9337 0.00316525 39.4661 1.12335 36.7782 2.55718Z" fill="currentColor"/>
<path d="M57.3563 3.31885C57.3563 4.30461 57.5326 4.48384 58.3698 4.34942C58.9867 4.2598 59.3392 3.90135 59.3392 3.31885C59.3392 2.73636 58.9867 2.3779 58.3698 2.28829C57.5326 2.15386 57.3563 2.33309 57.3563 3.31885Z" fill="currentColor"/>
<path d="M1.39455 8.60606C0.337012 9.14375 0.292948 9.36779 0.160755 13.8037C0.0285627 18.8669 0.381077 19.7631 2.54022 20.3008C3.50964 20.5696 3.64183 20.7936 3.50964 22.2275C3.37745 23.6165 3.15712 23.8853 1.8352 24.3334L0.292948 24.8263V29.9791V35.132L1.8352 35.6248C3.15712 36.0729 3.37745 36.3417 3.50964 37.7308C3.64183 39.1646 3.50964 39.3438 2.09958 39.8367C0.248884 40.464 0.116691 40.7329 0.0285627 46.0201C-0.0595658 49.4255 0.0285627 50.3216 0.689526 50.9489C1.35049 51.621 2.84867 51.7106 16.4205 51.7106H31.4464L32.2836 50.6353C32.7242 50.0528 33.1208 49.0222 33.1208 48.3053V47.0507L45.8113 46.9163C55.8139 46.8266 58.7221 46.6474 59.2509 46.1545C59.9119 45.6168 60 43.9142 60 29.9791C60 16.0441 59.9119 14.3414 59.2509 13.8037C58.7662 13.3556 56.9155 13.1316 53.17 13.042C48.1027 12.9076 47.5739 12.9524 45.2385 14.0725C42.9471 15.1031 42.2862 15.1927 38.0119 15.1031L33.3411 14.9687L33.2089 12.4595C32.9886 8.11318 33.6055 8.2476 16.8611 8.11318C5.84504 8.02357 2.23178 8.15799 1.39455 8.60606ZM30.3888 10.8016C30.9617 11.3841 31.0939 16.4473 30.5651 17.3435C30.2566 17.7467 27.084 17.8812 16.112 17.7915L2.05552 17.6571L1.92333 14.3414C1.8352 11.9666 1.96739 10.8912 2.36397 10.6672C3.33338 10.0399 29.7719 10.1743 30.3888 10.8016ZM58.0171 18.3292V20.7936L46.4723 20.9281L34.8834 21.0177V22.1379V23.258L46.4723 23.3476L58.0171 23.4821L58.1493 33.6533C58.2374 43.4213 58.2374 43.8694 57.4002 44.3174C56.8274 44.6311 52.465 44.7207 44.93 44.6759L33.3411 44.5415L33.1208 42.9732C32.7683 40.8225 32.4598 40.4192 30.6973 39.8367C29.3313 39.3886 29.155 39.1198 29.155 37.7756C29.155 36.4314 29.3313 36.2073 30.477 35.9385C32.592 35.5352 33.1208 34.3254 33.1208 29.9791C33.1208 25.6328 32.592 24.423 30.477 24.0198C29.3313 23.7509 29.155 23.5269 29.155 22.1827C29.155 20.8384 29.3313 20.5696 30.6091 20.1663C31.4464 19.8527 32.3717 19.1358 32.6802 18.5533C33.253 17.4779 33.3852 17.4331 38.3645 17.4331C42.4624 17.4331 43.8284 17.2539 45.2385 16.5369C46.7367 15.82 47.8823 15.7304 52.5091 15.7752L58.0171 15.8648V18.3292ZM26.8637 22.2275L26.7315 23.9301L16.8611 24.0646C9.98708 24.1542 6.81446 24.0198 6.41788 23.6613C6.06536 23.3925 5.80098 22.5859 5.80098 21.869V20.5696H16.4205H26.9959L26.8637 22.2275ZM30.8295 29.0382C30.9176 30.3824 30.8735 31.9506 30.6973 32.5331L30.477 33.5637L16.2442 33.4741L2.05552 33.3397L1.92333 30.472C1.8352 28.9037 1.87926 27.3355 2.01145 26.977C2.23178 26.4842 4.74344 26.3945 16.4645 26.4842L30.6973 26.6186L30.8295 29.0382ZM26.8637 37.686L26.9959 39.3886H16.4205H5.80098V38.134C5.80098 35.8489 6.06536 35.7593 16.817 35.8937L26.7315 36.0281L26.8637 37.686ZM30.8295 45.348C30.9176 47.2299 30.7413 48.6637 30.4329 49.067C30.0363 49.5599 27.5247 49.6943 16.5967 49.6943C9.23799 49.6943 2.9368 49.5599 2.54022 49.4255C1.96739 49.2014 1.8352 48.4397 1.8352 45.9305C1.8352 44.1382 1.96739 42.5251 2.14365 42.3907C2.3199 42.2115 8.79735 42.1219 16.5527 42.1667L30.6973 42.3011L30.8295 45.348Z" fill="currentColor"/>
<path d="M3.59778 13.1764C3.59778 14.0725 3.8181 14.2966 4.69938 14.2966C5.58067 14.2966 5.80099 14.0725 5.80099 13.1764C5.80099 12.2802 5.58067 12.0562 4.69938 12.0562C3.8181 12.0562 3.59778 12.2802 3.59778 13.1764Z" fill="currentColor"/>
<path d="M7.56372 13.1764C7.56372 14.0725 7.78404 14.2966 8.66533 14.2966C9.54661 14.2966 9.76693 14.0725 9.76693 13.1764C9.76693 12.2802 9.54661 12.0562 8.66533 12.0562C7.78404 12.0562 7.56372 12.2802 7.56372 13.1764Z" fill="currentColor"/>
<path d="M22.9861 15.148C22.9861 15.6409 23.2505 16.0889 23.5589 16.2234C24.4402 16.537 25.1893 16.0441 25.1893 15.148C25.1893 14.5207 24.8808 14.2967 24.0877 14.2967C23.2945 14.2967 22.9861 14.5207 22.9861 15.148Z" fill="currentColor"/>
<path d="M26.9518 15.1478C26.9518 16.044 28.0534 16.7161 28.7584 16.268C28.9787 16.1336 29.155 15.6407 29.155 15.1478C29.155 14.5205 28.8465 14.2965 28.0534 14.2965C27.2602 14.2965 26.9518 14.5205 26.9518 15.1478Z" fill="currentColor"/>
<path d="M46.5164 17.6571C45.9876 18.9565 46.8248 19.2254 51.6719 19.2254H56.4749V18.1052V16.985H51.6278C47.7502 16.985 46.6926 17.1194 46.5164 17.6571Z" fill="currentColor"/>
<path d="M34.8835 34.9078V42.9731H45.6793H56.475L56.3869 34.9975L56.2547 27.0666L45.5912 26.9321L34.8835 26.8425V34.9078ZM54.0515 34.9078V40.5087L45.5912 40.6432L37.0868 40.7328V34.9078V29.0829L45.5912 29.1725L54.0515 29.3069V34.9078Z" fill="currentColor"/>
<path d="M38.4966 31.861C38.6288 32.8916 38.7169 32.8916 45.4587 32.8916C52.2006 32.8916 52.2887 32.8916 52.4209 31.861L52.5531 30.8752H45.4587H38.3644L38.4966 31.861Z" fill="currentColor"/>
<path d="M38.673 35.3113C38.4968 35.5354 38.5408 36.0283 38.673 36.4315C38.9374 37.0588 39.8187 37.1484 45.6352 37.0588C52.1567 36.9244 52.2889 36.9244 52.4211 35.8938L52.5533 34.9081H45.7233C41.9778 34.9081 38.8052 35.0873 38.673 35.3113Z" fill="currentColor"/>
<path d="M3.59778 28.8142C3.59778 29.7552 3.8181 29.9792 4.74345 29.9792C5.6688 29.9792 5.84505 29.8 5.71286 28.9487C5.62473 28.3213 5.22816 27.9181 4.61126 27.8285C3.77404 27.694 3.59778 27.8733 3.59778 28.8142Z" fill="currentColor"/>
<path d="M7.87217 28.0525C7.69591 28.1869 7.56372 28.7246 7.56372 29.1727C7.56372 29.7552 7.87217 29.9792 8.66533 29.9792C9.54661 29.9792 9.76693 29.7552 9.76693 28.859C9.76693 28.0525 9.54661 27.7389 8.97378 27.7389C8.53313 27.7389 8.00436 27.8733 7.87217 28.0525Z" fill="currentColor"/>
<path d="M23.1621 30.6512C22.8096 31.5474 23.3384 32.2195 24.3519 32.2195C24.9688 32.2195 25.1891 31.9058 25.1891 31.0993C25.1891 30.2928 24.9688 29.9791 24.3078 29.9791C23.8231 29.9791 23.2943 30.2928 23.1621 30.6512Z" fill="currentColor"/>
<path d="M26.9518 31.144C26.9518 32.085 27.128 32.2642 27.9653 32.1298C28.5822 32.0402 28.9787 31.6369 29.0669 30.9648C29.1991 30.1583 29.0228 29.979 28.0975 29.979C27.1721 29.979 26.9518 30.2031 26.9518 31.144Z" fill="currentColor"/>
<path d="M4.17061 43.735C3.86216 43.8246 3.59778 44.3175 3.59778 44.8104C3.59778 45.4377 3.90623 45.6617 4.74345 45.6617C5.62473 45.6617 5.84505 45.4825 5.71286 44.676C5.58067 43.6454 5.0519 43.3317 4.17061 43.735Z" fill="currentColor"/>
<path d="M7.87217 43.6902C7.69591 43.8694 7.56372 44.4071 7.56372 44.8552C7.56372 45.4377 7.87217 45.6617 8.70939 45.6617C9.63474 45.6617 9.811 45.4825 9.6788 44.676C9.54661 43.6454 8.48907 43.1077 7.87217 43.6902Z" fill="currentColor"/>
<path d="M23.1621 46.3339C22.8096 47.23 23.3384 47.9021 24.3519 47.9021C24.9688 47.9021 25.1891 47.5885 25.1891 46.7819C25.1891 45.9754 24.9688 45.6618 24.3078 45.6618C23.8231 45.6618 23.2943 45.9754 23.1621 46.3339Z" fill="currentColor"/>
<path d="M26.9518 46.7371C26.9518 47.6781 27.1721 47.9021 28.0975 47.9021C29.0228 47.9021 29.1991 47.7229 29.0669 46.8716C28.9787 46.2443 28.5822 45.841 27.9653 45.7514C27.128 45.617 26.9518 45.7962 26.9518 46.7371Z" fill="currentColor"/>
<path d="M48.4113 49.5599C48.235 49.6943 48.1028 50.232 48.1028 50.6801C48.1028 51.4418 47.6181 51.4866 41.4932 51.4866H34.8835V52.6068V53.727H42.8151C47.7944 53.727 50.7467 53.5478 50.7467 53.2789C50.7467 52.562 51.628 52.7412 53.038 53.8166L54.404 54.7576L52.7296 55.6089C51.5398 56.2362 50.967 56.3706 50.6145 56.0122C50.0416 55.4297 39.0256 55.34 38.6731 55.9225C38.4968 56.1466 38.5409 56.6395 38.6731 57.0427C38.8934 57.6252 39.7306 57.7596 43.5201 57.7596H48.1028V58.8798C48.1028 59.5519 48.3672 60 48.7197 60C49.6451 60 59.6036 54.8024 59.2951 54.4887C58.9867 54.1751 49.1604 49.2463 48.8519 49.2463C48.7638 49.2463 48.5435 49.3807 48.4113 49.5599Z" fill="currentColor"/>
<path d="M34.8835 56.6395C34.8835 57.6252 35.0598 57.8045 35.897 57.67C36.5139 57.5804 36.8664 57.222 36.8664 56.6395C36.8664 56.057 36.5139 55.6985 35.897 55.6089C35.0598 55.4745 34.8835 55.6537 34.8835 56.6395Z" fill="currentColor"/>
</svg>
