<svg width="60" height="60" viewBox="0 0 60 60" fill="none" xmlns="http://www.w3.org/2000/svg">
<path d="M44.5664 1.93358C44.3555 2.02733 44.1797 2.12108 44.1797 2.1328C44.1797 2.15624 44.0039 2.60155 43.793 3.10546C39.0469 14.4258 39.1055 14.2617 39.6094 14.7656C39.9141 15.0703 40.6993 15.082 40.9922 14.7891C41.0977 14.6836 41.6368 13.5117 42.1875 12.1875C42.7266 10.8633 43.7344 8.43749 44.4141 6.79686L45.6563 3.80858L47.0274 3.74999C48.5508 3.67968 48.7383 3.58593 48.75 2.83593C48.75 2.27343 48.5743 2.01561 48.0704 1.87499C47.4141 1.69921 45.0235 1.73436 44.5664 1.93358Z" fill="currentColor"/>
<path d="M50.8827 2.14453C50.5429 2.49609 50.5312 3.1875 50.8593 3.51562C51.082 3.73828 51.246 3.75 54.3749 3.75C57.5038 3.75 57.6679 3.73828 57.8906 3.51562C58.0429 3.36328 58.1249 3.12891 58.1249 2.8125C58.1249 2.49609 58.0429 2.26172 57.8906 2.10938C57.6679 1.88672 57.5038 1.875 54.3984 1.875C51.1406 1.875 51.1288 1.875 50.8827 2.14453Z" fill="currentColor"/>
<path d="M31.1952 3.96094C31.0546 4.10156 30.914 4.38281 30.8788 4.59375C30.8437 4.80469 30.8202 8.17969 30.8437 12.0938C30.8788 20.3203 30.7265 19.418 32.2734 20.0977C35.5312 21.5156 38.4843 24.4688 39.9023 27.7266C40.5468 29.2031 39.621 29.0625 48.0468 29.0625C52.078 29.0625 55.4648 29.0625 55.5819 29.0625C55.6874 29.0625 55.8866 28.957 56.0155 28.8281C56.2148 28.6289 56.2499 28.4414 56.2499 27.4453C56.2499 24.2578 55.3827 20.6484 53.8476 17.4844C52.5468 14.8008 51.0937 12.7852 48.9608 10.7109C47.1679 8.96484 46.7694 8.67188 46.1952 8.67188C45.6327 8.67188 45.2343 9.07031 45.2343 9.64453C45.2343 10.0195 45.4804 10.3008 47.1327 11.7539C50.1327 14.3906 52.7108 18.7852 53.6718 22.9102C53.9296 24.0234 54.2577 26.168 54.2577 26.7656V27.1875H48.0702H41.8827L41.4374 26.2734C39.7968 22.9336 36.996 20.1563 33.6093 18.5039L32.8124 18.1172V11.9062V5.70703L33.8085 5.78906C35.121 5.88281 36.996 6.25781 38.4023 6.69141C39.6444 7.06641 40.078 7.05469 40.371 6.64453C40.6405 6.25781 40.5937 5.58984 40.2773 5.29688C39.9726 5.00391 37.7226 4.33594 36.0937 4.04297C35.4843 3.9375 34.1835 3.82031 33.2109 3.78516C31.5234 3.71485 31.4296 3.72656 31.1952 3.96094Z" fill="currentColor"/>
<path d="M50.8827 5.89453C50.5429 6.24609 50.5312 6.9375 50.8593 7.26562C51.082 7.48828 51.246 7.5 54.3749 7.5C57.5038 7.5 57.6679 7.48828 57.8906 7.26562C58.0429 7.11328 58.1249 6.87891 58.1249 6.5625C58.1249 6.24609 58.0429 6.01172 57.8906 5.85938C57.6679 5.63672 57.5038 5.625 54.3984 5.625C51.1406 5.625 51.1288 5.625 50.8827 5.89453Z" fill="currentColor"/>
<path d="M23.6133 9.45703C16.9219 10.2539 10.9688 13.5938 6.94924 18.8086C4.27736 22.2656 2.71877 25.9688 2.03908 30.4688C1.85158 31.7812 1.81642 35.25 1.9922 36.6797C2.68361 42.1992 5.21486 47.332 9.15236 51.1523C10.6289 52.582 11.2031 53.0508 12.668 54.0469C15.375 55.875 18.3399 57.082 21.9141 57.7969C23.1094 58.0312 23.5899 58.0664 26.1914 58.0664C28.4766 58.0664 29.3672 58.0195 30.2344 57.8555C32.918 57.3633 34.875 56.7188 37.1602 55.582C39.3047 54.5273 39.6446 54.1641 39.211 53.3438C38.9414 52.8398 33.3633 47.3438 33.1055 47.332C32.625 47.3086 32.3203 47.3672 31.793 47.6016C29.0039 48.832 24.8438 48.9844 21.6914 47.9766C20.4375 47.5664 18.7852 46.7344 17.6719 45.9375C14.2735 43.5 12.0586 39.9141 11.4727 35.8711C11.2735 34.4414 11.3906 31.5 11.7188 30.293C12.8555 26.0156 15.4336 22.6758 19.2188 20.5898C21 19.6172 23.6016 18.8672 25.3125 18.8672C26.168 18.8555 26.8594 18.6914 27.0352 18.4453C27.1524 18.2812 27.1875 17.2617 27.1875 14.0391C27.1875 8.92969 27.3633 9.36328 25.3477 9.38672C24.586 9.39844 23.8125 9.43359 23.6133 9.45703ZM25.3125 14.1094V16.8398L24.4805 16.9219C20.8008 17.2617 17.1563 18.9258 14.5196 21.4805C11.8125 24.082 10.2305 27.0703 9.58596 30.7617C9.38674 31.957 9.35158 32.4844 9.41017 34.2773C9.48049 36.5273 9.67971 37.6875 10.3828 39.6094C11.9649 44.0391 15.7383 47.8828 20.1211 49.5234C22.4531 50.4023 24.2227 50.6836 26.9531 50.5898C28.9571 50.5195 30 50.3438 31.7227 49.7812L32.5664 49.5L34.6289 51.5625L36.6914 53.625L35.6602 54.1055C33.5039 55.1016 31.4297 55.6992 28.9453 56.0273C27.4336 56.2266 24.375 56.168 22.7813 55.8984C13.9219 54.4453 6.72658 47.7891 4.46486 38.9648C3.6797 35.8945 3.65627 32.0391 4.39455 28.6758C5.06252 25.6992 6.80861 22.125 8.83596 19.6055C10.207 17.918 12.6797 15.7734 14.7071 14.5312C17.5078 12.8086 21.8203 11.4375 24.6446 11.3789L25.3125 11.3672V14.1094Z" fill="currentColor"/>
<path d="M24.0586 26.4727C22.7109 26.8359 21.5391 27.3867 20.2031 28.2656C18.832 29.168 16.7812 31.0664 15.6797 32.4375C14.7539 33.6094 14.7539 33.8906 15.6797 35.0625C17.0977 36.832 19.4414 38.9062 21.082 39.8086C23.5312 41.1797 26.0391 41.5898 28.4766 41.0156C31.1484 40.3711 34.4883 37.9922 36.8203 35.0625C37.7461 33.8906 37.7461 33.6094 36.8203 32.4375C35.7891 31.1484 33.7031 29.2031 32.4609 28.3711C30.1406 26.8242 28.793 26.3555 26.4844 26.2852C25.1953 26.2617 24.75 26.2969 24.0586 26.4727ZM27.9492 28.4297C28.8867 28.6523 30.7969 29.6133 31.8164 30.375C32.6367 30.9844 35.2734 33.5625 35.2734 33.75C35.2734 33.9609 32.6953 36.4687 31.7578 37.1484C30.6328 37.9805 28.9922 38.8125 27.9492 39.082C27.0469 39.3164 25.4531 39.3164 24.5508 39.082C23.5898 38.8359 21.6797 37.875 20.6836 37.125C19.8516 36.5156 17.2266 33.9375 17.2266 33.75C17.2266 33.5508 19.8633 30.9844 20.6836 30.375C21.6094 29.6836 23.1914 28.8398 24.1055 28.5469C25.3242 28.1484 26.5898 28.1133 27.9492 28.4297Z" fill="currentColor"/>
<path d="M24.7618 30.2461C23.9884 30.5391 22.9571 31.6172 22.6876 32.4141C22.4298 33.1992 22.4415 34.418 22.7345 35.1914C23.0509 36.0469 23.9767 36.9492 24.8438 37.2773C25.7345 37.6172 27.1173 37.5586 27.9376 37.1602C28.7228 36.7734 29.4728 35.9648 29.7657 35.1914C30.0821 34.3477 30.0821 33.1523 29.7657 32.2969C29.461 31.4883 28.4063 30.4687 27.586 30.1875C26.8126 29.9297 25.5235 29.9531 24.7618 30.2461ZM27.1642 32.2266C28.8868 33.2812 27.7501 35.9766 25.7931 35.4844C25.2306 35.3437 24.6798 34.7695 24.504 34.1602C24.1056 32.707 25.8517 31.4297 27.1642 32.2266Z" fill="currentColor"/>
<path d="M41.5781 32.9414C41.3086 33.0938 41.1328 33.7617 41.1328 34.6524C41.1328 36.1055 40.4297 38.8008 39.6445 40.3711C39.1523 41.3438 38.168 42.7735 37.3477 43.711C36.668 44.4727 36.5625 44.6485 36.5625 45.0586C36.5625 45.5039 36.6445 45.5977 39.4102 48.375C42.082 51.0469 42.293 51.2344 42.7617 51.293C43.2539 51.3633 43.2773 51.3399 43.9102 50.6836C48.1055 46.2422 50.6133 40.2305 50.625 34.5938C50.625 32.6485 51.0586 32.8125 45.9727 32.8125C43.4062 32.8125 41.6953 32.8594 41.5781 32.9414ZM48.5859 35.707C48.2461 40.0195 46.3242 44.6953 43.5 48.0586L42.832 48.8555L40.875 46.9102L38.918 44.9649L39.4219 44.3672C41.3555 42.0938 42.7734 38.6602 43.0781 35.5313L43.1602 34.6875H45.9141H48.668L48.5859 35.707Z" fill="currentColor"/>
</svg>
