<svg width="60" height="60" viewBox="0 0 60 60" fill="none" xmlns="http://www.w3.org/2000/svg">
<path d="M0.985714 3.62895L0 4.46285V29.5678V54.6728L0.428571 55.9017C1.32857 56.6478 3.08571 56.2968 24.7714 56.3407C46.7571 56.3407 47.5714 56.2968 47.5714 55.5067C47.5714 54.4973 44.1429 51.2055 42.7714 50.8544C42.2143 50.7666 40.8429 50.5911 39.6429 50.5472C38.0571 50.4594 37.5 50.24 37.5 49.7572C37.5 49.1866 39.0429 49.0549 47.7857 48.8794C55.9286 48.7038 58.2857 48.5283 59.0571 48.0016L60 47.3432V29.5678V11.7486L58.7571 11.0024C57.6429 10.3441 55.9286 10.2563 42.9 10.2563H28.2857V7.66681C28.2857 5.73566 28.5429 4.11174 27.8571 3.23394L26.5286 2.79504H14.2286C2.82857 2.83893 1.84286 2.88282 0.985714 3.62895ZM25.9286 29.5678V54.3656L14.1857 54.4973C5.05714 54.5851 2.35714 54.4534 2.05714 54.0584C1.67143 53.4 1.58571 6.30622 1.97143 5.25287C2.22857 4.59452 3.55714 4.55063 14.1 4.63841L25.9286 4.77008V29.5678ZM58.0286 13.153C58.3714 14.0308 58.3714 45.1049 58.0286 45.9826C57.8143 46.5971 56.0571 46.6849 43.0286 46.6849H28.2857V44.9732V43.2176L30.3429 43.0859C32.0571 42.9542 32.3571 42.8226 32.4857 41.9448C32.6143 41.067 32.4857 40.9792 30.4714 40.9792H28.2857V26.715V12.4508H43.0286C56.0571 12.4508 57.8143 12.5386 58.0286 13.153ZM35.5714 49.7572C35.5714 50.4594 35.2286 50.5911 32.9143 50.7228C30.8143 50.8105 30.1714 51.03 30.0857 51.5567C29.9571 52.215 30.6857 52.3028 36.0857 52.4345C40.8 52.5661 42.4286 52.7856 43.1571 53.3123C43.7143 53.7073 44.0143 54.1462 43.8429 54.2778C43.7143 54.4534 40.1143 54.5851 35.9143 54.5851H28.2857V51.7322V48.8794H31.9286C35.2714 48.8794 35.5714 48.9672 35.5714 49.7572Z" fill="currentColor"/>
<path d="M5.7858 14.6453C5.10008 15.7426 6.3858 15.962 14.1858 15.962C21.9858 15.962 22.2858 15.9181 22.2858 15.0842C22.2858 14.2503 21.9858 14.2064 14.1858 14.2064C9.21437 14.2064 5.95722 14.382 5.7858 14.6453Z" fill="currentColor"/>
<path d="M5.7858 18.5954C5.10008 19.6927 6.3858 19.9121 14.1858 19.9121C21.9858 19.9121 22.2858 19.8683 22.2858 19.0343C22.2858 18.2004 21.9858 18.1565 14.1858 18.1565C9.21437 18.1565 5.95722 18.3321 5.7858 18.5954Z" fill="currentColor"/>
<path d="M6.64281 37.2486C4.7571 39.1358 5.74281 41.857 8.31424 41.857C11.0571 41.857 12.1714 38.7847 10.0285 37.073C8.57139 35.888 7.88567 35.9319 6.64281 37.2486ZM9.42853 39.2236C9.42853 40.1453 8.01424 40.4964 7.49996 39.6625C7.11424 39.0042 7.67139 38.3458 8.61424 38.3458C9.12853 38.3458 9.42853 38.653 9.42853 39.2236Z" fill="currentColor"/>
<path d="M14.4 37.073C12.3428 38.7408 13.3714 41.857 15.9857 41.857C17.1 41.857 18.8571 40.1014 18.8571 38.9164C18.8571 38.5653 18.3857 37.8191 17.7857 37.2486C16.5428 35.9319 15.8571 35.888 14.4 37.073ZM16.7143 39.2236C16.7143 39.7942 16.4143 40.1014 15.8571 40.1014C15.3 40.1014 15 39.7942 15 39.2236C15 38.653 15.3 38.3458 15.8571 38.3458C16.4143 38.3458 16.7143 38.653 16.7143 39.2236Z" fill="currentColor"/>
<path d="M3.85706 48.9233C3.85706 50.3717 3.98563 50.6789 4.62848 50.5472C5.14277 50.4594 5.39991 49.9328 5.48563 48.7477C5.6142 47.3433 5.48563 47.1238 4.75706 47.1238C3.98563 47.1238 3.85706 47.3872 3.85706 48.9233Z" fill="currentColor"/>
<path d="M8.57129 48.9233C8.57129 50.3717 8.69986 50.6789 9.34272 50.5472C9.857 50.4594 10.1141 49.9328 10.1999 48.7477C10.3284 47.3433 10.1999 47.1238 9.47129 47.1238C8.69986 47.1238 8.57129 47.3872 8.57129 48.9233Z" fill="currentColor"/>
<path d="M13.2856 48.9233C13.2856 50.3717 13.4142 50.6789 14.0571 50.5472C14.5714 50.4594 14.8285 49.9328 14.9142 48.7477C15.0428 47.3433 14.9142 47.1238 14.1856 47.1238C13.4142 47.1238 13.2856 47.3872 13.2856 48.9233Z" fill="currentColor"/>
<path d="M18 48.9233C18 50.3717 18.1286 50.6789 18.7714 50.5472C19.2857 50.4594 19.5429 49.9328 19.6286 48.7477C19.7571 47.3433 19.6286 47.1238 18.9 47.1238C18.1286 47.1238 18 47.3872 18 48.9233Z" fill="currentColor"/>
<path d="M22.7142 48.9233C22.7142 50.3717 22.8428 50.6789 23.4857 50.5472C23.9999 50.4594 24.2571 49.9328 24.3428 48.7477C24.4714 47.3433 24.3428 47.1238 23.6142 47.1238C22.8428 47.1238 22.7142 47.3872 22.7142 48.9233Z" fill="currentColor"/>
<path d="M30.2999 14.4698C30.1284 14.6453 29.9999 15.0403 29.9999 15.3915C29.9999 15.7865 30.7713 15.962 32.8284 15.962C35.2713 15.962 35.6142 15.8743 35.4856 15.172C35.3999 14.6015 34.8427 14.382 32.9999 14.2942C31.6713 14.2064 30.4713 14.2942 30.2999 14.4698Z" fill="currentColor"/>
<path d="M37.7141 15.0842C37.7141 15.9181 38.057 15.962 45.9855 16.0498L54.2141 16.1815L54.3427 28.5584L54.4284 40.9792H51.857C49.8855 40.9792 49.1998 41.1548 48.9855 41.6815C48.5998 42.6909 49.6284 43.1737 52.3284 43.1737C56.2713 43.1737 56.1427 43.7004 56.1427 28.4267C56.1427 18.771 56.0141 15.1281 55.6284 14.7331C55.2427 14.3381 52.6284 14.2064 46.4141 14.2064C38.0141 14.2064 37.7141 14.2503 37.7141 15.0842Z" fill="currentColor"/>
<path d="M35.8714 40.4085C35.7 40.5402 35.5714 41.3302 35.5714 42.1641C35.5714 43.3053 35.7428 43.6125 36.4286 43.6125C37.1571 43.6125 37.2857 43.3053 37.2857 41.8569C37.2857 40.1891 36.6857 39.5746 35.8714 40.4085Z" fill="currentColor"/>
<path d="M40.5856 40.3646C40.4142 40.5402 40.2856 41.3302 40.2856 42.1641C40.2856 43.3491 40.4571 43.6125 41.1856 43.6125C41.9142 43.6125 42.0428 43.393 41.9142 41.9886C41.7856 40.4524 41.1856 39.7502 40.5856 40.3646Z" fill="currentColor"/>
<path d="M45.3 40.3646C45.1286 40.5402 45 41.3302 45 42.1641C45 43.3491 45.1714 43.6125 45.9 43.6125C46.6286 43.6125 46.7571 43.393 46.6286 41.9886C46.5 40.4524 45.9 39.7502 45.3 40.3646Z" fill="currentColor"/>
</svg>
