<svg width="81" height="70" viewBox="0 0 81 70" fill="none" xmlns="http://www.w3.org/2000/svg">
<path d="M31.1799 0C33.6653 10.9268 34.908 21.3984 34.908 31.4146C34.908 44.1626 31.9707 53.8374 26.0962 60.439C20.4477 66.813 11.9749 70 0.677825 70V56C6.5523 56 10.7322 54.5203 13.2176 51.561C15.7029 48.374 16.9456 43.5935 16.9456 37.2195V29.3659H0V0H31.1799ZM76.9331 0C79.6444 11.8374 81 22.3089 81 31.4146C81 44.1626 78.0628 53.8374 72.1883 60.439C66.3138 66.813 57.728 70 46.431 70V56C52.3054 56 56.4854 54.5203 58.9707 51.561C61.4561 48.374 62.6987 43.5935 62.6987 37.2195V29.3659H45.7531V0H76.9331Z" fill="currentColor"/>
</svg>
