<svg width="22" height="22" viewBox="0 0 22 22" fill="none" xmlns="http://www.w3.org/2000/svg">
<path fill-rule="evenodd" clip-rule="evenodd" d="M10.0834 3.66683C6.53955 3.66683 3.66671 6.53967 3.66671 10.0835C3.66671 13.6273 6.53955 16.5002 10.0834 16.5002C13.6272 16.5002 16.5 13.6273 16.5 10.0835C16.5 6.53967 13.6272 3.66683 10.0834 3.66683ZM1.83337 10.0835C1.83337 5.52715 5.52702 1.8335 10.0834 1.8335C14.6397 1.8335 18.3334 5.52715 18.3334 10.0835C18.3334 14.6398 14.6397 18.3335 10.0834 18.3335C5.52702 18.3335 1.83337 14.6398 1.83337 10.0835Z" fill="currentColor"/>
<path fill-rule="evenodd" clip-rule="evenodd" d="M14.6143 14.6142C14.9723 14.2562 15.5527 14.2562 15.9107 14.6142L19.8982 18.6017C20.2562 18.9597 20.2562 19.5401 19.8982 19.8981C19.5402 20.256 18.9598 20.256 18.6018 19.8981L14.6143 15.9106C14.2563 15.5526 14.2563 14.9722 14.6143 14.6142Z" fill="currentColor"/>
</svg>
