<svg width="70" height="70" viewBox="0 0 70 70" fill="none" xmlns="http://www.w3.org/2000/svg">
<path d="M35.5 70H34.6094C34.3125 70 34.0453 69.941 33.8078 69.823C26.0297 67.4041 19.6172 62.61 14.5703 55.4407C9.52344 48.2738 7 40.354 7 31.6814V14.9558C7 13.4808 7.43106 12.1534 8.29319 10.9735C9.15294 9.79351 10.2656 8.93805 11.6313 8.40708L33.0063 0.442478C33.8375 0.147493 34.6688 0 35.5 0C36.3312 0 37.1625 0.147493 37.9937 0.442478L59.3688 8.40708C60.7344 8.93805 61.8483 9.79351 62.7104 10.9735C63.5701 12.1534 64 13.4808 64 14.9558V31.6814C64 40.354 61.4766 48.2738 56.4297 55.4407C51.3828 62.61 44.9703 67.4041 37.1922 69.823C36.8953 69.941 36.3312 70 35.5 70Z" fill="currentColor"/>
<path fill-rule="evenodd" clip-rule="evenodd" d="M49.4135 23.5846C50.1949 24.3646 50.1956 25.6299 49.4149 26.4107L29.4149 46.414C29.0399 46.7891 28.5311 46.9999 28.0005 47C27.4699 47.0001 26.961 46.7896 26.5858 46.4147L20.5858 40.4197C19.8047 39.6393 19.8047 38.374 20.5858 37.5936C21.3668 36.8132 22.6332 36.8132 23.4142 37.5936L27.9993 42.1749L46.5851 23.586C47.3657 22.8052 48.6321 22.8046 49.4135 23.5846Z" fill="#F9CC00"/>
</svg>
