<svg width="376" height="359" viewBox="0 0 376 359" fill="none" xmlns="http://www.w3.org/2000/svg">
<path d="M8.80469 29V2.78906L1.77344 5.52344L1.75391 3.35547L10.3477 0.171875H11.0898V29H8.80469ZM28.9805 20.3281V9.23438C28.9805 6.33073 29.6836 4.07812 31.0898 2.47656C32.4961 0.875 34.4688 0.0742188 37.0078 0.0742188C39.5339 0.0742188 41.5065 0.875 42.9258 2.47656C44.3451 4.07812 45.0547 6.33073 45.0547 9.23438V20.3281C45.0547 23.2448 44.3451 25.5039 42.9258 27.1055C41.5065 28.694 39.5339 29.4883 37.0078 29.4883C34.4688 29.4753 32.4961 28.6745 31.0898 27.0859C29.6836 25.4974 28.9805 23.2448 28.9805 20.3281ZM31.2656 20.4258C31.2656 22.6784 31.7474 24.4297 32.7109 25.6797C33.6745 26.9167 35.1068 27.5352 37.0078 27.5352C38.9089 27.5352 40.3411 26.9167 41.3047 25.6797C42.2812 24.4297 42.7695 22.6784 42.7695 20.4258V9.13672C42.7695 6.91016 42.2812 5.17188 41.3047 3.92188C40.3411 2.65885 38.9089 2.02734 37.0078 2.02734C35.1068 2.02734 33.6745 2.65885 32.7109 3.92188C31.7474 5.17188 31.2656 6.91016 31.2656 9.13672V20.4258ZM64.8984 29V2.78906L57.8672 5.52344L57.8477 3.35547L66.4414 0.171875H67.1836V29H64.8984ZM85.0742 20.3281V9.23438C85.0742 6.33073 85.7773 4.07812 87.1836 2.47656C88.5898 0.875 90.5625 0.0742188 93.1016 0.0742188C95.6276 0.0742188 97.6003 0.875 99.0195 2.47656C100.439 4.07812 101.148 6.33073 101.148 9.23438V20.3281C101.148 23.2448 100.439 25.5039 99.0195 27.1055C97.6003 28.694 95.6276 29.4883 93.1016 29.4883C90.5625 29.4753 88.5898 28.6745 87.1836 27.0859C85.7773 25.4974 85.0742 23.2448 85.0742 20.3281ZM87.3594 20.4258C87.3594 22.6784 87.8411 24.4297 88.8047 25.6797C89.7682 26.9167 91.2005 27.5352 93.1016 27.5352C95.0026 27.5352 96.4349 26.9167 97.3984 25.6797C98.375 24.4297 98.8633 22.6784 98.8633 20.4258V9.13672C98.8633 6.91016 98.375 5.17188 97.3984 3.92188C96.4349 2.65885 95.0026 2.02734 93.1016 2.02734C91.2005 2.02734 89.7682 2.65885 88.8047 3.92188C87.8411 5.17188 87.3594 6.91016 87.3594 9.13672V20.4258ZM113.121 20.3281V9.23438C113.121 6.33073 113.824 4.07812 115.23 2.47656C116.637 0.875 118.609 0.0742188 121.148 0.0742188C123.674 0.0742188 125.647 0.875 127.066 2.47656C128.486 4.07812 129.195 6.33073 129.195 9.23438V20.3281C129.195 23.2448 128.486 25.5039 127.066 27.1055C125.647 28.694 123.674 29.4883 121.148 29.4883C118.609 29.4753 116.637 28.6745 115.23 27.0859C113.824 25.4974 113.121 23.2448 113.121 20.3281ZM115.406 20.4258C115.406 22.6784 115.888 24.4297 116.852 25.6797C117.815 26.9167 119.247 27.5352 121.148 27.5352C123.049 27.5352 124.482 26.9167 125.445 25.6797C126.422 24.4297 126.91 22.6784 126.91 20.4258V9.13672C126.91 6.91016 126.422 5.17188 125.445 3.92188C124.482 2.65885 123.049 2.02734 121.148 2.02734C119.247 2.02734 117.815 2.65885 116.852 3.92188C115.888 5.17188 115.406 6.91016 115.406 9.13672V20.4258ZM141.168 20.3281V9.23438C141.168 6.33073 141.871 4.07812 143.277 2.47656C144.684 0.875 146.656 0.0742188 149.195 0.0742188C151.721 0.0742188 153.694 0.875 155.113 2.47656C156.533 4.07812 157.242 6.33073 157.242 9.23438V20.3281C157.242 23.2448 156.533 25.5039 155.113 27.1055C153.694 28.694 151.721 29.4883 149.195 29.4883C146.656 29.4753 144.684 28.6745 143.277 27.0859C141.871 25.4974 141.168 23.2448 141.168 20.3281ZM143.453 20.4258C143.453 22.6784 143.935 24.4297 144.898 25.6797C145.862 26.9167 147.294 27.5352 149.195 27.5352C151.096 27.5352 152.529 26.9167 153.492 25.6797C154.469 24.4297 154.957 22.6784 154.957 20.4258V9.13672C154.957 6.91016 154.469 5.17188 153.492 3.92188C152.529 2.65885 151.096 2.02734 149.195 2.02734C147.294 2.02734 145.862 2.65885 144.898 3.92188C143.935 5.17188 143.453 6.91016 143.453 9.13672V20.4258ZM177.086 29V2.78906L170.055 5.52344L170.035 3.35547L178.629 0.171875H179.371V29H177.086ZM205.133 29V2.78906L198.102 5.52344L198.082 3.35547L206.676 0.171875H207.418V29H205.133ZM225.309 20.3281V9.23438C225.309 6.33073 226.012 4.07812 227.418 2.47656C228.824 0.875 230.797 0.0742188 233.336 0.0742188C235.862 0.0742188 237.835 0.875 239.254 2.47656C240.673 4.07812 241.383 6.33073 241.383 9.23438V20.3281C241.383 23.2448 240.673 25.5039 239.254 27.1055C237.835 28.694 235.862 29.4883 233.336 29.4883C230.797 29.4753 228.824 28.6745 227.418 27.0859C226.012 25.4974 225.309 23.2448 225.309 20.3281ZM227.594 20.4258C227.594 22.6784 228.076 24.4297 229.039 25.6797C230.003 26.9167 231.435 27.5352 233.336 27.5352C235.237 27.5352 236.669 26.9167 237.633 25.6797C238.609 24.4297 239.098 22.6784 239.098 20.4258V9.13672C239.098 6.91016 238.609 5.17188 237.633 3.92188C236.669 2.65885 235.237 2.02734 233.336 2.02734C231.435 2.02734 230.003 2.65885 229.039 3.92188C228.076 5.17188 227.594 6.91016 227.594 9.13672V20.4258ZM261.227 29V2.78906L254.195 5.52344L254.176 3.35547L262.77 0.171875H263.512V29H261.227ZM281.402 20.3281V9.23438C281.402 6.33073 282.105 4.07812 283.512 2.47656C284.918 0.875 286.891 0.0742188 289.43 0.0742188C291.956 0.0742188 293.928 0.875 295.348 2.47656C296.767 4.07812 297.477 6.33073 297.477 9.23438V20.3281C297.477 23.2448 296.767 25.5039 295.348 27.1055C293.928 28.694 291.956 29.4883 289.43 29.4883C286.891 29.4753 284.918 28.6745 283.512 27.0859C282.105 25.4974 281.402 23.2448 281.402 20.3281ZM283.688 20.4258C283.688 22.6784 284.169 24.4297 285.133 25.6797C286.096 26.9167 287.529 27.5352 289.43 27.5352C291.331 27.5352 292.763 26.9167 293.727 25.6797C294.703 24.4297 295.191 22.6784 295.191 20.4258V9.13672C295.191 6.91016 294.703 5.17188 293.727 3.92188C292.763 2.65885 291.331 2.02734 289.43 2.02734C287.529 2.02734 286.096 2.65885 285.133 3.92188C284.169 5.17188 283.688 6.91016 283.688 9.13672V20.4258ZM309.449 20.3281V9.23438C309.449 6.33073 310.152 4.07812 311.559 2.47656C312.965 0.875 314.938 0.0742188 317.477 0.0742188C320.003 0.0742188 321.975 0.875 323.395 2.47656C324.814 4.07812 325.523 6.33073 325.523 9.23438V20.3281C325.523 23.2448 324.814 25.5039 323.395 27.1055C321.975 28.694 320.003 29.4883 317.477 29.4883C314.938 29.4753 312.965 28.6745 311.559 27.0859C310.152 25.4974 309.449 23.2448 309.449 20.3281ZM311.734 20.4258C311.734 22.6784 312.216 24.4297 313.18 25.6797C314.143 26.9167 315.576 27.5352 317.477 27.5352C319.378 27.5352 320.81 26.9167 321.773 25.6797C322.75 24.4297 323.238 22.6784 323.238 20.4258V9.13672C323.238 6.91016 322.75 5.17188 321.773 3.92188C320.81 2.65885 319.378 2.02734 317.477 2.02734C315.576 2.02734 314.143 2.65885 313.18 3.92188C312.216 5.17188 311.734 6.91016 311.734 9.13672V20.4258ZM337.496 20.3281V9.23438C337.496 6.33073 338.199 4.07812 339.605 2.47656C341.012 0.875 342.984 0.0742188 345.523 0.0742188C348.049 0.0742188 350.022 0.875 351.441 2.47656C352.861 4.07812 353.57 6.33073 353.57 9.23438V20.3281C353.57 23.2448 352.861 25.5039 351.441 27.1055C350.022 28.694 348.049 29.4883 345.523 29.4883C342.984 29.4753 341.012 28.6745 339.605 27.0859C338.199 25.4974 337.496 23.2448 337.496 20.3281ZM339.781 20.4258C339.781 22.6784 340.263 24.4297 341.227 25.6797C342.19 26.9167 343.622 27.5352 345.523 27.5352C347.424 27.5352 348.857 26.9167 349.82 25.6797C350.797 24.4297 351.285 22.6784 351.285 20.4258V9.13672C351.285 6.91016 350.797 5.17188 349.82 3.92188C348.857 2.65885 347.424 2.02734 345.523 2.02734C343.622 2.02734 342.19 2.65885 341.227 3.92188C340.263 5.17188 339.781 6.91016 339.781 9.13672V20.4258ZM373.414 29V2.78906L366.383 5.52344L366.363 3.35547L374.957 0.171875H375.699V29H373.414ZM0.933594 67.3281V56.2344C0.933594 53.3307 1.63672 51.0781 3.04297 49.4766C4.44922 47.875 6.42188 47.0742 8.96094 47.0742C11.487 47.0742 13.4596 47.875 14.8789 49.4766C16.2982 51.0781 17.0078 53.3307 17.0078 56.2344V67.3281C17.0078 70.2448 16.2982 72.5039 14.8789 74.1055C13.4596 75.694 11.487 76.4883 8.96094 76.4883C6.42188 76.4753 4.44922 75.6745 3.04297 74.0859C1.63672 72.4974 0.933594 70.2448 0.933594 67.3281ZM3.21875 67.4258C3.21875 69.6784 3.70052 71.4297 4.66406 72.6797C5.6276 73.9167 7.0599 74.5352 8.96094 74.5352C10.862 74.5352 12.2943 73.9167 13.2578 72.6797C14.2344 71.4297 14.7227 69.6784 14.7227 67.4258V56.1367C14.7227 53.9102 14.2344 52.1719 13.2578 50.9219C12.2943 49.6589 10.862 49.0273 8.96094 49.0273C7.0599 49.0273 5.6276 49.6589 4.66406 50.9219C3.70052 52.1719 3.21875 53.9102 3.21875 56.1367V67.4258ZM36.8516 76V49.7891L29.8203 52.5234L29.8008 50.3555L38.3945 47.1719H39.1367V76H36.8516ZM57.0273 67.3281V56.2344C57.0273 53.3307 57.7305 51.0781 59.1367 49.4766C60.543 47.875 62.5156 47.0742 65.0547 47.0742C67.5807 47.0742 69.5534 47.875 70.9727 49.4766C72.3919 51.0781 73.1016 53.3307 73.1016 56.2344V67.3281C73.1016 70.2448 72.3919 72.5039 70.9727 74.1055C69.5534 75.694 67.5807 76.4883 65.0547 76.4883C62.5156 76.4753 60.543 75.6745 59.1367 74.0859C57.7305 72.4974 57.0273 70.2448 57.0273 67.3281ZM59.3125 67.4258C59.3125 69.6784 59.7943 71.4297 60.7578 72.6797C61.7214 73.9167 63.1536 74.5352 65.0547 74.5352C66.9557 74.5352 68.388 73.9167 69.3516 72.6797C70.3281 71.4297 70.8164 69.6784 70.8164 67.4258V56.1367C70.8164 53.9102 70.3281 52.1719 69.3516 50.9219C68.388 49.6589 66.9557 49.0273 65.0547 49.0273C63.1536 49.0273 61.7214 49.6589 60.7578 50.9219C59.7943 52.1719 59.3125 53.9102 59.3125 56.1367V67.4258ZM85.0742 67.3281V56.2344C85.0742 53.3307 85.7773 51.0781 87.1836 49.4766C88.5898 47.875 90.5625 47.0742 93.1016 47.0742C95.6276 47.0742 97.6003 47.875 99.0195 49.4766C100.439 51.0781 101.148 53.3307 101.148 56.2344V67.3281C101.148 70.2448 100.439 72.5039 99.0195 74.1055C97.6003 75.694 95.6276 76.4883 93.1016 76.4883C90.5625 76.4753 88.5898 75.6745 87.1836 74.0859C85.7773 72.4974 85.0742 70.2448 85.0742 67.3281ZM87.3594 67.4258C87.3594 69.6784 87.8411 71.4297 88.8047 72.6797C89.7682 73.9167 91.2005 74.5352 93.1016 74.5352C95.0026 74.5352 96.4349 73.9167 97.3984 72.6797C98.375 71.4297 98.8633 69.6784 98.8633 67.4258V56.1367C98.8633 53.9102 98.375 52.1719 97.3984 50.9219C96.4349 49.6589 95.0026 49.0273 93.1016 49.0273C91.2005 49.0273 89.7682 49.6589 88.8047 50.9219C87.8411 52.1719 87.3594 53.9102 87.3594 56.1367V67.4258ZM120.992 76V49.7891L113.961 52.5234L113.941 50.3555L122.535 47.1719H123.277V76H120.992ZM141.168 67.3281V56.2344C141.168 53.3307 141.871 51.0781 143.277 49.4766C144.684 47.875 146.656 47.0742 149.195 47.0742C151.721 47.0742 153.694 47.875 155.113 49.4766C156.533 51.0781 157.242 53.3307 157.242 56.2344V67.3281C157.242 70.2448 156.533 72.5039 155.113 74.1055C153.694 75.694 151.721 76.4883 149.195 76.4883C146.656 76.4753 144.684 75.6745 143.277 74.0859C141.871 72.4974 141.168 70.2448 141.168 67.3281ZM143.453 67.4258C143.453 69.6784 143.935 71.4297 144.898 72.6797C145.862 73.9167 147.294 74.5352 149.195 74.5352C151.096 74.5352 152.529 73.9167 153.492 72.6797C154.469 71.4297 154.957 69.6784 154.957 67.4258V56.1367C154.957 53.9102 154.469 52.1719 153.492 50.9219C152.529 49.6589 151.096 49.0273 149.195 49.0273C147.294 49.0273 145.862 49.6589 144.898 50.9219C143.935 52.1719 143.453 53.9102 143.453 56.1367V67.4258ZM177.086 76V49.7891L170.055 52.5234L170.035 50.3555L178.629 47.1719H179.371V76H177.086ZM197.262 67.3281V56.2344C197.262 53.3307 197.965 51.0781 199.371 49.4766C200.777 47.875 202.75 47.0742 205.289 47.0742C207.815 47.0742 209.788 47.875 211.207 49.4766C212.626 51.0781 213.336 53.3307 213.336 56.2344V67.3281C213.336 70.2448 212.626 72.5039 211.207 74.1055C209.788 75.694 207.815 76.4883 205.289 76.4883C202.75 76.4753 200.777 75.6745 199.371 74.0859C197.965 72.4974 197.262 70.2448 197.262 67.3281ZM199.547 67.4258C199.547 69.6784 200.029 71.4297 200.992 72.6797C201.956 73.9167 203.388 74.5352 205.289 74.5352C207.19 74.5352 208.622 73.9167 209.586 72.6797C210.562 71.4297 211.051 69.6784 211.051 67.4258V56.1367C211.051 53.9102 210.562 52.1719 209.586 50.9219C208.622 49.6589 207.19 49.0273 205.289 49.0273C203.388 49.0273 201.956 49.6589 200.992 50.9219C200.029 52.1719 199.547 53.9102 199.547 56.1367V67.4258ZM233.18 76V49.7891L226.148 52.5234L226.129 50.3555L234.723 47.1719H235.465V76H233.18ZM253.355 67.3281V56.2344C253.355 53.3307 254.059 51.0781 255.465 49.4766C256.871 47.875 258.844 47.0742 261.383 47.0742C263.909 47.0742 265.882 47.875 267.301 49.4766C268.72 51.0781 269.43 53.3307 269.43 56.2344V67.3281C269.43 70.2448 268.72 72.5039 267.301 74.1055C265.882 75.694 263.909 76.4883 261.383 76.4883C258.844 76.4753 256.871 75.6745 255.465 74.0859C254.059 72.4974 253.355 70.2448 253.355 67.3281ZM255.641 67.4258C255.641 69.6784 256.122 71.4297 257.086 72.6797C258.049 73.9167 259.482 74.5352 261.383 74.5352C263.284 74.5352 264.716 73.9167 265.68 72.6797C266.656 71.4297 267.145 69.6784 267.145 67.4258V56.1367C267.145 53.9102 266.656 52.1719 265.68 50.9219C264.716 49.6589 263.284 49.0273 261.383 49.0273C259.482 49.0273 258.049 49.6589 257.086 50.9219C256.122 52.1719 255.641 53.9102 255.641 56.1367V67.4258ZM281.402 67.3281V56.2344C281.402 53.3307 282.105 51.0781 283.512 49.4766C284.918 47.875 286.891 47.0742 289.43 47.0742C291.956 47.0742 293.928 47.875 295.348 49.4766C296.767 51.0781 297.477 53.3307 297.477 56.2344V67.3281C297.477 70.2448 296.767 72.5039 295.348 74.1055C293.928 75.694 291.956 76.4883 289.43 76.4883C286.891 76.4753 284.918 75.6745 283.512 74.0859C282.105 72.4974 281.402 70.2448 281.402 67.3281ZM283.688 67.4258C283.688 69.6784 284.169 71.4297 285.133 72.6797C286.096 73.9167 287.529 74.5352 289.43 74.5352C291.331 74.5352 292.763 73.9167 293.727 72.6797C294.703 71.4297 295.191 69.6784 295.191 67.4258V56.1367C295.191 53.9102 294.703 52.1719 293.727 50.9219C292.763 49.6589 291.331 49.0273 289.43 49.0273C287.529 49.0273 286.096 49.6589 285.133 50.9219C284.169 52.1719 283.688 53.9102 283.688 56.1367V67.4258ZM317.32 76V49.7891L310.289 52.5234L310.27 50.3555L318.863 47.1719H319.605V76H317.32ZM337.496 67.3281V56.2344C337.496 53.3307 338.199 51.0781 339.605 49.4766C341.012 47.875 342.984 47.0742 345.523 47.0742C348.049 47.0742 350.022 47.875 351.441 49.4766C352.861 51.0781 353.57 53.3307 353.57 56.2344V67.3281C353.57 70.2448 352.861 72.5039 351.441 74.1055C350.022 75.694 348.049 76.4883 345.523 76.4883C342.984 76.4753 341.012 75.6745 339.605 74.0859C338.199 72.4974 337.496 70.2448 337.496 67.3281ZM339.781 67.4258C339.781 69.6784 340.263 71.4297 341.227 72.6797C342.19 73.9167 343.622 74.5352 345.523 74.5352C347.424 74.5352 348.857 73.9167 349.82 72.6797C350.797 71.4297 351.285 69.6784 351.285 67.4258V56.1367C351.285 53.9102 350.797 52.1719 349.82 50.9219C348.857 49.6589 347.424 49.0273 345.523 49.0273C343.622 49.0273 342.19 49.6589 341.227 50.9219C340.263 52.1719 339.781 53.9102 339.781 56.1367V67.4258ZM373.414 76V49.7891L366.383 52.5234L366.363 50.3555L374.957 47.1719H375.699V76H373.414ZM8.80469 123V96.7891L1.77344 99.5234L1.75391 97.3555L10.3477 94.1719H11.0898V123H8.80469ZM28.9805 114.328V103.234C28.9805 100.331 29.6836 98.0781 31.0898 96.4766C32.4961 94.875 34.4688 94.0742 37.0078 94.0742C39.5339 94.0742 41.5065 94.875 42.9258 96.4766C44.3451 98.0781 45.0547 100.331 45.0547 103.234V114.328C45.0547 117.245 44.3451 119.504 42.9258 121.105C41.5065 122.694 39.5339 123.488 37.0078 123.488C34.4688 123.475 32.4961 122.674 31.0898 121.086C29.6836 119.497 28.9805 117.245 28.9805 114.328ZM31.2656 114.426C31.2656 116.678 31.7474 118.43 32.7109 119.68C33.6745 120.917 35.1068 121.535 37.0078 121.535C38.9089 121.535 40.3411 120.917 41.3047 119.68C42.2812 118.43 42.7695 116.678 42.7695 114.426V103.137C42.7695 100.91 42.2812 99.1719 41.3047 97.9219C40.3411 96.6589 38.9089 96.0273 37.0078 96.0273C35.1068 96.0273 33.6745 96.6589 32.7109 97.9219C31.7474 99.1719 31.2656 100.91 31.2656 103.137V114.426ZM64.8984 123V96.7891L57.8672 99.5234L57.8477 97.3555L66.4414 94.1719H67.1836V123H64.8984ZM85.0742 114.328V103.234C85.0742 100.331 85.7773 98.0781 87.1836 96.4766C88.5898 94.875 90.5625 94.0742 93.1016 94.0742C95.6276 94.0742 97.6003 94.875 99.0195 96.4766C100.439 98.0781 101.148 100.331 101.148 103.234V114.328C101.148 117.245 100.439 119.504 99.0195 121.105C97.6003 122.694 95.6276 123.488 93.1016 123.488C90.5625 123.475 88.5898 122.674 87.1836 121.086C85.7773 119.497 85.0742 117.245 85.0742 114.328ZM87.3594 114.426C87.3594 116.678 87.8411 118.43 88.8047 119.68C89.7682 120.917 91.2005 121.535 93.1016 121.535C95.0026 121.535 96.4349 120.917 97.3984 119.68C98.375 118.43 98.8633 116.678 98.8633 114.426V103.137C98.8633 100.91 98.375 99.1719 97.3984 97.9219C96.4349 96.6589 95.0026 96.0273 93.1016 96.0273C91.2005 96.0273 89.7682 96.6589 88.8047 97.9219C87.8411 99.1719 87.3594 100.91 87.3594 103.137V114.426ZM113.121 114.328V103.234C113.121 100.331 113.824 98.0781 115.23 96.4766C116.637 94.875 118.609 94.0742 121.148 94.0742C123.674 94.0742 125.647 94.875 127.066 96.4766C128.486 98.0781 129.195 100.331 129.195 103.234V114.328C129.195 117.245 128.486 119.504 127.066 121.105C125.647 122.694 123.674 123.488 121.148 123.488C118.609 123.475 116.637 122.674 115.23 121.086C113.824 119.497 113.121 117.245 113.121 114.328ZM115.406 114.426C115.406 116.678 115.888 118.43 116.852 119.68C117.815 120.917 119.247 121.535 121.148 121.535C123.049 121.535 124.482 120.917 125.445 119.68C126.422 118.43 126.91 116.678 126.91 114.426V103.137C126.91 100.91 126.422 99.1719 125.445 97.9219C124.482 96.6589 123.049 96.0273 121.148 96.0273C119.247 96.0273 117.815 96.6589 116.852 97.9219C115.888 99.1719 115.406 100.91 115.406 103.137V114.426ZM141.168 114.328V103.234C141.168 100.331 141.871 98.0781 143.277 96.4766C144.684 94.875 146.656 94.0742 149.195 94.0742C151.721 94.0742 153.694 94.875 155.113 96.4766C156.533 98.0781 157.242 100.331 157.242 103.234V114.328C157.242 117.245 156.533 119.504 155.113 121.105C153.694 122.694 151.721 123.488 149.195 123.488C146.656 123.475 144.684 122.674 143.277 121.086C141.871 119.497 141.168 117.245 141.168 114.328ZM143.453 114.426C143.453 116.678 143.935 118.43 144.898 119.68C145.862 120.917 147.294 121.535 149.195 121.535C151.096 121.535 152.529 120.917 153.492 119.68C154.469 118.43 154.957 116.678 154.957 114.426V103.137C154.957 100.91 154.469 99.1719 153.492 97.9219C152.529 96.6589 151.096 96.0273 149.195 96.0273C147.294 96.0273 145.862 96.6589 144.898 97.9219C143.935 99.1719 143.453 100.91 143.453 103.137V114.426ZM177.086 123V96.7891L170.055 99.5234L170.035 97.3555L178.629 94.1719H179.371V123H177.086ZM205.133 123V96.7891L198.102 99.5234L198.082 97.3555L206.676 94.1719H207.418V123H205.133ZM225.309 114.328V103.234C225.309 100.331 226.012 98.0781 227.418 96.4766C228.824 94.875 230.797 94.0742 233.336 94.0742C235.862 94.0742 237.835 94.875 239.254 96.4766C240.673 98.0781 241.383 100.331 241.383 103.234V114.328C241.383 117.245 240.673 119.504 239.254 121.105C237.835 122.694 235.862 123.488 233.336 123.488C230.797 123.475 228.824 122.674 227.418 121.086C226.012 119.497 225.309 117.245 225.309 114.328ZM227.594 114.426C227.594 116.678 228.076 118.43 229.039 119.68C230.003 120.917 231.435 121.535 233.336 121.535C235.237 121.535 236.669 120.917 237.633 119.68C238.609 118.43 239.098 116.678 239.098 114.426V103.137C239.098 100.91 238.609 99.1719 237.633 97.9219C236.669 96.6589 235.237 96.0273 233.336 96.0273C231.435 96.0273 230.003 96.6589 229.039 97.9219C228.076 99.1719 227.594 100.91 227.594 103.137V114.426ZM261.227 123V96.7891L254.195 99.5234L254.176 97.3555L262.77 94.1719H263.512V123H261.227ZM281.402 114.328V103.234C281.402 100.331 282.105 98.0781 283.512 96.4766C284.918 94.875 286.891 94.0742 289.43 94.0742C291.956 94.0742 293.928 94.875 295.348 96.4766C296.767 98.0781 297.477 100.331 297.477 103.234V114.328C297.477 117.245 296.767 119.504 295.348 121.105C293.928 122.694 291.956 123.488 289.43 123.488C286.891 123.475 284.918 122.674 283.512 121.086C282.105 119.497 281.402 117.245 281.402 114.328ZM283.688 114.426C283.688 116.678 284.169 118.43 285.133 119.68C286.096 120.917 287.529 121.535 289.43 121.535C291.331 121.535 292.763 120.917 293.727 119.68C294.703 118.43 295.191 116.678 295.191 114.426V103.137C295.191 100.91 294.703 99.1719 293.727 97.9219C292.763 96.6589 291.331 96.0273 289.43 96.0273C287.529 96.0273 286.096 96.6589 285.133 97.9219C284.169 99.1719 283.688 100.91 283.688 103.137V114.426ZM309.449 114.328V103.234C309.449 100.331 310.152 98.0781 311.559 96.4766C312.965 94.875 314.938 94.0742 317.477 94.0742C320.003 94.0742 321.975 94.875 323.395 96.4766C324.814 98.0781 325.523 100.331 325.523 103.234V114.328C325.523 117.245 324.814 119.504 323.395 121.105C321.975 122.694 320.003 123.488 317.477 123.488C314.938 123.475 312.965 122.674 311.559 121.086C310.152 119.497 309.449 117.245 309.449 114.328ZM311.734 114.426C311.734 116.678 312.216 118.43 313.18 119.68C314.143 120.917 315.576 121.535 317.477 121.535C319.378 121.535 320.81 120.917 321.773 119.68C322.75 118.43 323.238 116.678 323.238 114.426V103.137C323.238 100.91 322.75 99.1719 321.773 97.9219C320.81 96.6589 319.378 96.0273 317.477 96.0273C315.576 96.0273 314.143 96.6589 313.18 97.9219C312.216 99.1719 311.734 100.91 311.734 103.137V114.426ZM337.496 114.328V103.234C337.496 100.331 338.199 98.0781 339.605 96.4766C341.012 94.875 342.984 94.0742 345.523 94.0742C348.049 94.0742 350.022 94.875 351.441 96.4766C352.861 98.0781 353.57 100.331 353.57 103.234V114.328C353.57 117.245 352.861 119.504 351.441 121.105C350.022 122.694 348.049 123.488 345.523 123.488C342.984 123.475 341.012 122.674 339.605 121.086C338.199 119.497 337.496 117.245 337.496 114.328ZM339.781 114.426C339.781 116.678 340.263 118.43 341.227 119.68C342.19 120.917 343.622 121.535 345.523 121.535C347.424 121.535 348.857 120.917 349.82 119.68C350.797 118.43 351.285 116.678 351.285 114.426V103.137C351.285 100.91 350.797 99.1719 349.82 97.9219C348.857 96.6589 347.424 96.0273 345.523 96.0273C343.622 96.0273 342.19 96.6589 341.227 97.9219C340.263 99.1719 339.781 100.91 339.781 103.137V114.426ZM373.414 123V96.7891L366.383 99.5234L366.363 97.3555L374.957 94.1719H375.699V123H373.414ZM0.933594 161.328V150.234C0.933594 147.331 1.63672 145.078 3.04297 143.477C4.44922 141.875 6.42188 141.074 8.96094 141.074C11.487 141.074 13.4596 141.875 14.8789 143.477C16.2982 145.078 17.0078 147.331 17.0078 150.234V161.328C17.0078 164.245 16.2982 166.504 14.8789 168.105C13.4596 169.694 11.487 170.488 8.96094 170.488C6.42188 170.475 4.44922 169.674 3.04297 168.086C1.63672 166.497 0.933594 164.245 0.933594 161.328ZM3.21875 161.426C3.21875 163.678 3.70052 165.43 4.66406 166.68C5.6276 167.917 7.0599 168.535 8.96094 168.535C10.862 168.535 12.2943 167.917 13.2578 166.68C14.2344 165.43 14.7227 163.678 14.7227 161.426V150.137C14.7227 147.91 14.2344 146.172 13.2578 144.922C12.2943 143.659 10.862 143.027 8.96094 143.027C7.0599 143.027 5.6276 143.659 4.66406 144.922C3.70052 146.172 3.21875 147.91 3.21875 150.137V161.426ZM36.8516 170V143.789L29.8203 146.523L29.8008 144.355L38.3945 141.172H39.1367V170H36.8516ZM57.0273 161.328V150.234C57.0273 147.331 57.7305 145.078 59.1367 143.477C60.543 141.875 62.5156 141.074 65.0547 141.074C67.5807 141.074 69.5534 141.875 70.9727 143.477C72.3919 145.078 73.1016 147.331 73.1016 150.234V161.328C73.1016 164.245 72.3919 166.504 70.9727 168.105C69.5534 169.694 67.5807 170.488 65.0547 170.488C62.5156 170.475 60.543 169.674 59.1367 168.086C57.7305 166.497 57.0273 164.245 57.0273 161.328ZM59.3125 161.426C59.3125 163.678 59.7943 165.43 60.7578 166.68C61.7214 167.917 63.1536 168.535 65.0547 168.535C66.9557 168.535 68.388 167.917 69.3516 166.68C70.3281 165.43 70.8164 163.678 70.8164 161.426V150.137C70.8164 147.91 70.3281 146.172 69.3516 144.922C68.388 143.659 66.9557 143.027 65.0547 143.027C63.1536 143.027 61.7214 143.659 60.7578 144.922C59.7943 146.172 59.3125 147.91 59.3125 150.137V161.426ZM85.0742 161.328V150.234C85.0742 147.331 85.7773 145.078 87.1836 143.477C88.5898 141.875 90.5625 141.074 93.1016 141.074C95.6276 141.074 97.6003 141.875 99.0195 143.477C100.439 145.078 101.148 147.331 101.148 150.234V161.328C101.148 164.245 100.439 166.504 99.0195 168.105C97.6003 169.694 95.6276 170.488 93.1016 170.488C90.5625 170.475 88.5898 169.674 87.1836 168.086C85.7773 166.497 85.0742 164.245 85.0742 161.328ZM87.3594 161.426C87.3594 163.678 87.8411 165.43 88.8047 166.68C89.7682 167.917 91.2005 168.535 93.1016 168.535C95.0026 168.535 96.4349 167.917 97.3984 166.68C98.375 165.43 98.8633 163.678 98.8633 161.426V150.137C98.8633 147.91 98.375 146.172 97.3984 144.922C96.4349 143.659 95.0026 143.027 93.1016 143.027C91.2005 143.027 89.7682 143.659 88.8047 144.922C87.8411 146.172 87.3594 147.91 87.3594 150.137V161.426ZM120.992 170V143.789L113.961 146.523L113.941 144.355L122.535 141.172H123.277V170H120.992ZM141.168 161.328V150.234C141.168 147.331 141.871 145.078 143.277 143.477C144.684 141.875 146.656 141.074 149.195 141.074C151.721 141.074 153.694 141.875 155.113 143.477C156.533 145.078 157.242 147.331 157.242 150.234V161.328C157.242 164.245 156.533 166.504 155.113 168.105C153.694 169.694 151.721 170.488 149.195 170.488C146.656 170.475 144.684 169.674 143.277 168.086C141.871 166.497 141.168 164.245 141.168 161.328ZM143.453 161.426C143.453 163.678 143.935 165.43 144.898 166.68C145.862 167.917 147.294 168.535 149.195 168.535C151.096 168.535 152.529 167.917 153.492 166.68C154.469 165.43 154.957 163.678 154.957 161.426V150.137C154.957 147.91 154.469 146.172 153.492 144.922C152.529 143.659 151.096 143.027 149.195 143.027C147.294 143.027 145.862 143.659 144.898 144.922C143.935 146.172 143.453 147.91 143.453 150.137V161.426ZM177.086 170V143.789L170.055 146.523L170.035 144.355L178.629 141.172H179.371V170H177.086ZM197.262 161.328V150.234C197.262 147.331 197.965 145.078 199.371 143.477C200.777 141.875 202.75 141.074 205.289 141.074C207.815 141.074 209.788 141.875 211.207 143.477C212.626 145.078 213.336 147.331 213.336 150.234V161.328C213.336 164.245 212.626 166.504 211.207 168.105C209.788 169.694 207.815 170.488 205.289 170.488C202.75 170.475 200.777 169.674 199.371 168.086C197.965 166.497 197.262 164.245 197.262 161.328ZM199.547 161.426C199.547 163.678 200.029 165.43 200.992 166.68C201.956 167.917 203.388 168.535 205.289 168.535C207.19 168.535 208.622 167.917 209.586 166.68C210.562 165.43 211.051 163.678 211.051 161.426V150.137C211.051 147.91 210.562 146.172 209.586 144.922C208.622 143.659 207.19 143.027 205.289 143.027C203.388 143.027 201.956 143.659 200.992 144.922C200.029 146.172 199.547 147.91 199.547 150.137V161.426ZM233.18 170V143.789L226.148 146.523L226.129 144.355L234.723 141.172H235.465V170H233.18ZM253.355 161.328V150.234C253.355 147.331 254.059 145.078 255.465 143.477C256.871 141.875 258.844 141.074 261.383 141.074C263.909 141.074 265.882 141.875 267.301 143.477C268.72 145.078 269.43 147.331 269.43 150.234V161.328C269.43 164.245 268.72 166.504 267.301 168.105C265.882 169.694 263.909 170.488 261.383 170.488C258.844 170.475 256.871 169.674 255.465 168.086C254.059 166.497 253.355 164.245 253.355 161.328ZM255.641 161.426C255.641 163.678 256.122 165.43 257.086 166.68C258.049 167.917 259.482 168.535 261.383 168.535C263.284 168.535 264.716 167.917 265.68 166.68C266.656 165.43 267.145 163.678 267.145 161.426V150.137C267.145 147.91 266.656 146.172 265.68 144.922C264.716 143.659 263.284 143.027 261.383 143.027C259.482 143.027 258.049 143.659 257.086 144.922C256.122 146.172 255.641 147.91 255.641 150.137V161.426ZM281.402 161.328V150.234C281.402 147.331 282.105 145.078 283.512 143.477C284.918 141.875 286.891 141.074 289.43 141.074C291.956 141.074 293.928 141.875 295.348 143.477C296.767 145.078 297.477 147.331 297.477 150.234V161.328C297.477 164.245 296.767 166.504 295.348 168.105C293.928 169.694 291.956 170.488 289.43 170.488C286.891 170.475 284.918 169.674 283.512 168.086C282.105 166.497 281.402 164.245 281.402 161.328ZM283.688 161.426C283.688 163.678 284.169 165.43 285.133 166.68C286.096 167.917 287.529 168.535 289.43 168.535C291.331 168.535 292.763 167.917 293.727 166.68C294.703 165.43 295.191 163.678 295.191 161.426V150.137C295.191 147.91 294.703 146.172 293.727 144.922C292.763 143.659 291.331 143.027 289.43 143.027C287.529 143.027 286.096 143.659 285.133 144.922C284.169 146.172 283.688 147.91 283.688 150.137V161.426ZM317.32 170V143.789L310.289 146.523L310.27 144.355L318.863 141.172H319.605V170H317.32ZM337.496 161.328V150.234C337.496 147.331 338.199 145.078 339.605 143.477C341.012 141.875 342.984 141.074 345.523 141.074C348.049 141.074 350.022 141.875 351.441 143.477C352.861 145.078 353.57 147.331 353.57 150.234V161.328C353.57 164.245 352.861 166.504 351.441 168.105C350.022 169.694 348.049 170.488 345.523 170.488C342.984 170.475 341.012 169.674 339.605 168.086C338.199 166.497 337.496 164.245 337.496 161.328ZM339.781 161.426C339.781 163.678 340.263 165.43 341.227 166.68C342.19 167.917 343.622 168.535 345.523 168.535C347.424 168.535 348.857 167.917 349.82 166.68C350.797 165.43 351.285 163.678 351.285 161.426V150.137C351.285 147.91 350.797 146.172 349.82 144.922C348.857 143.659 347.424 143.027 345.523 143.027C343.622 143.027 342.19 143.659 341.227 144.922C340.263 146.172 339.781 147.91 339.781 150.137V161.426ZM373.414 170V143.789L366.383 146.523L366.363 144.355L374.957 141.172H375.699V170H373.414ZM8.80469 217V190.789L1.77344 193.523L1.75391 191.355L10.3477 188.172H11.0898V217H8.80469ZM28.9805 208.328V197.234C28.9805 194.331 29.6836 192.078 31.0898 190.477C32.4961 188.875 34.4688 188.074 37.0078 188.074C39.5339 188.074 41.5065 188.875 42.9258 190.477C44.3451 192.078 45.0547 194.331 45.0547 197.234V208.328C45.0547 211.245 44.3451 213.504 42.9258 215.105C41.5065 216.694 39.5339 217.488 37.0078 217.488C34.4688 217.475 32.4961 216.674 31.0898 215.086C29.6836 213.497 28.9805 211.245 28.9805 208.328ZM31.2656 208.426C31.2656 210.678 31.7474 212.43 32.7109 213.68C33.6745 214.917 35.1068 215.535 37.0078 215.535C38.9089 215.535 40.3411 214.917 41.3047 213.68C42.2812 212.43 42.7695 210.678 42.7695 208.426V197.137C42.7695 194.91 42.2812 193.172 41.3047 191.922C40.3411 190.659 38.9089 190.027 37.0078 190.027C35.1068 190.027 33.6745 190.659 32.7109 191.922C31.7474 193.172 31.2656 194.91 31.2656 197.137V208.426ZM64.8984 217V190.789L57.8672 193.523L57.8477 191.355L66.4414 188.172H67.1836V217H64.8984ZM85.0742 208.328V197.234C85.0742 194.331 85.7773 192.078 87.1836 190.477C88.5898 188.875 90.5625 188.074 93.1016 188.074C95.6276 188.074 97.6003 188.875 99.0195 190.477C100.439 192.078 101.148 194.331 101.148 197.234V208.328C101.148 211.245 100.439 213.504 99.0195 215.105C97.6003 216.694 95.6276 217.488 93.1016 217.488C90.5625 217.475 88.5898 216.674 87.1836 215.086C85.7773 213.497 85.0742 211.245 85.0742 208.328ZM87.3594 208.426C87.3594 210.678 87.8411 212.43 88.8047 213.68C89.7682 214.917 91.2005 215.535 93.1016 215.535C95.0026 215.535 96.4349 214.917 97.3984 213.68C98.375 212.43 98.8633 210.678 98.8633 208.426V197.137C98.8633 194.91 98.375 193.172 97.3984 191.922C96.4349 190.659 95.0026 190.027 93.1016 190.027C91.2005 190.027 89.7682 190.659 88.8047 191.922C87.8411 193.172 87.3594 194.91 87.3594 197.137V208.426ZM113.121 208.328V197.234C113.121 194.331 113.824 192.078 115.23 190.477C116.637 188.875 118.609 188.074 121.148 188.074C123.674 188.074 125.647 188.875 127.066 190.477C128.486 192.078 129.195 194.331 129.195 197.234V208.328C129.195 211.245 128.486 213.504 127.066 215.105C125.647 216.694 123.674 217.488 121.148 217.488C118.609 217.475 116.637 216.674 115.23 215.086C113.824 213.497 113.121 211.245 113.121 208.328ZM115.406 208.426C115.406 210.678 115.888 212.43 116.852 213.68C117.815 214.917 119.247 215.535 121.148 215.535C123.049 215.535 124.482 214.917 125.445 213.68C126.422 212.43 126.91 210.678 126.91 208.426V197.137C126.91 194.91 126.422 193.172 125.445 191.922C124.482 190.659 123.049 190.027 121.148 190.027C119.247 190.027 117.815 190.659 116.852 191.922C115.888 193.172 115.406 194.91 115.406 197.137V208.426ZM141.168 208.328V197.234C141.168 194.331 141.871 192.078 143.277 190.477C144.684 188.875 146.656 188.074 149.195 188.074C151.721 188.074 153.694 188.875 155.113 190.477C156.533 192.078 157.242 194.331 157.242 197.234V208.328C157.242 211.245 156.533 213.504 155.113 215.105C153.694 216.694 151.721 217.488 149.195 217.488C146.656 217.475 144.684 216.674 143.277 215.086C141.871 213.497 141.168 211.245 141.168 208.328ZM143.453 208.426C143.453 210.678 143.935 212.43 144.898 213.68C145.862 214.917 147.294 215.535 149.195 215.535C151.096 215.535 152.529 214.917 153.492 213.68C154.469 212.43 154.957 210.678 154.957 208.426V197.137C154.957 194.91 154.469 193.172 153.492 191.922C152.529 190.659 151.096 190.027 149.195 190.027C147.294 190.027 145.862 190.659 144.898 191.922C143.935 193.172 143.453 194.91 143.453 197.137V208.426ZM177.086 217V190.789L170.055 193.523L170.035 191.355L178.629 188.172H179.371V217H177.086ZM205.133 217V190.789L198.102 193.523L198.082 191.355L206.676 188.172H207.418V217H205.133ZM225.309 208.328V197.234C225.309 194.331 226.012 192.078 227.418 190.477C228.824 188.875 230.797 188.074 233.336 188.074C235.862 188.074 237.835 188.875 239.254 190.477C240.673 192.078 241.383 194.331 241.383 197.234V208.328C241.383 211.245 240.673 213.504 239.254 215.105C237.835 216.694 235.862 217.488 233.336 217.488C230.797 217.475 228.824 216.674 227.418 215.086C226.012 213.497 225.309 211.245 225.309 208.328ZM227.594 208.426C227.594 210.678 228.076 212.43 229.039 213.68C230.003 214.917 231.435 215.535 233.336 215.535C235.237 215.535 236.669 214.917 237.633 213.68C238.609 212.43 239.098 210.678 239.098 208.426V197.137C239.098 194.91 238.609 193.172 237.633 191.922C236.669 190.659 235.237 190.027 233.336 190.027C231.435 190.027 230.003 190.659 229.039 191.922C228.076 193.172 227.594 194.91 227.594 197.137V208.426ZM261.227 217V190.789L254.195 193.523L254.176 191.355L262.77 188.172H263.512V217H261.227ZM281.402 208.328V197.234C281.402 194.331 282.105 192.078 283.512 190.477C284.918 188.875 286.891 188.074 289.43 188.074C291.956 188.074 293.928 188.875 295.348 190.477C296.767 192.078 297.477 194.331 297.477 197.234V208.328C297.477 211.245 296.767 213.504 295.348 215.105C293.928 216.694 291.956 217.488 289.43 217.488C286.891 217.475 284.918 216.674 283.512 215.086C282.105 213.497 281.402 211.245 281.402 208.328ZM283.688 208.426C283.688 210.678 284.169 212.43 285.133 213.68C286.096 214.917 287.529 215.535 289.43 215.535C291.331 215.535 292.763 214.917 293.727 213.68C294.703 212.43 295.191 210.678 295.191 208.426V197.137C295.191 194.91 294.703 193.172 293.727 191.922C292.763 190.659 291.331 190.027 289.43 190.027C287.529 190.027 286.096 190.659 285.133 191.922C284.169 193.172 283.688 194.91 283.688 197.137V208.426ZM309.449 208.328V197.234C309.449 194.331 310.152 192.078 311.559 190.477C312.965 188.875 314.938 188.074 317.477 188.074C320.003 188.074 321.975 188.875 323.395 190.477C324.814 192.078 325.523 194.331 325.523 197.234V208.328C325.523 211.245 324.814 213.504 323.395 215.105C321.975 216.694 320.003 217.488 317.477 217.488C314.938 217.475 312.965 216.674 311.559 215.086C310.152 213.497 309.449 211.245 309.449 208.328ZM311.734 208.426C311.734 210.678 312.216 212.43 313.18 213.68C314.143 214.917 315.576 215.535 317.477 215.535C319.378 215.535 320.81 214.917 321.773 213.68C322.75 212.43 323.238 210.678 323.238 208.426V197.137C323.238 194.91 322.75 193.172 321.773 191.922C320.81 190.659 319.378 190.027 317.477 190.027C315.576 190.027 314.143 190.659 313.18 191.922C312.216 193.172 311.734 194.91 311.734 197.137V208.426ZM337.496 208.328V197.234C337.496 194.331 338.199 192.078 339.605 190.477C341.012 188.875 342.984 188.074 345.523 188.074C348.049 188.074 350.022 188.875 351.441 190.477C352.861 192.078 353.57 194.331 353.57 197.234V208.328C353.57 211.245 352.861 213.504 351.441 215.105C350.022 216.694 348.049 217.488 345.523 217.488C342.984 217.475 341.012 216.674 339.605 215.086C338.199 213.497 337.496 211.245 337.496 208.328ZM339.781 208.426C339.781 210.678 340.263 212.43 341.227 213.68C342.19 214.917 343.622 215.535 345.523 215.535C347.424 215.535 348.857 214.917 349.82 213.68C350.797 212.43 351.285 210.678 351.285 208.426V197.137C351.285 194.91 350.797 193.172 349.82 191.922C348.857 190.659 347.424 190.027 345.523 190.027C343.622 190.027 342.19 190.659 341.227 191.922C340.263 193.172 339.781 194.91 339.781 197.137V208.426ZM373.414 217V190.789L366.383 193.523L366.363 191.355L374.957 188.172H375.699V217H373.414ZM0.933594 255.328V244.234C0.933594 241.331 1.63672 239.078 3.04297 237.477C4.44922 235.875 6.42188 235.074 8.96094 235.074C11.487 235.074 13.4596 235.875 14.8789 237.477C16.2982 239.078 17.0078 241.331 17.0078 244.234V255.328C17.0078 258.245 16.2982 260.504 14.8789 262.105C13.4596 263.694 11.487 264.488 8.96094 264.488C6.42188 264.475 4.44922 263.674 3.04297 262.086C1.63672 260.497 0.933594 258.245 0.933594 255.328ZM3.21875 255.426C3.21875 257.678 3.70052 259.43 4.66406 260.68C5.6276 261.917 7.0599 262.535 8.96094 262.535C10.862 262.535 12.2943 261.917 13.2578 260.68C14.2344 259.43 14.7227 257.678 14.7227 255.426V244.137C14.7227 241.91 14.2344 240.172 13.2578 238.922C12.2943 237.659 10.862 237.027 8.96094 237.027C7.0599 237.027 5.6276 237.659 4.66406 238.922C3.70052 240.172 3.21875 241.91 3.21875 244.137V255.426ZM36.8516 264V237.789L29.8203 240.523L29.8008 238.355L38.3945 235.172H39.1367V264H36.8516ZM57.0273 255.328V244.234C57.0273 241.331 57.7305 239.078 59.1367 237.477C60.543 235.875 62.5156 235.074 65.0547 235.074C67.5807 235.074 69.5534 235.875 70.9727 237.477C72.3919 239.078 73.1016 241.331 73.1016 244.234V255.328C73.1016 258.245 72.3919 260.504 70.9727 262.105C69.5534 263.694 67.5807 264.488 65.0547 264.488C62.5156 264.475 60.543 263.674 59.1367 262.086C57.7305 260.497 57.0273 258.245 57.0273 255.328ZM59.3125 255.426C59.3125 257.678 59.7943 259.43 60.7578 260.68C61.7214 261.917 63.1536 262.535 65.0547 262.535C66.9557 262.535 68.388 261.917 69.3516 260.68C70.3281 259.43 70.8164 257.678 70.8164 255.426V244.137C70.8164 241.91 70.3281 240.172 69.3516 238.922C68.388 237.659 66.9557 237.027 65.0547 237.027C63.1536 237.027 61.7214 237.659 60.7578 238.922C59.7943 240.172 59.3125 241.91 59.3125 244.137V255.426ZM85.0742 255.328V244.234C85.0742 241.331 85.7773 239.078 87.1836 237.477C88.5898 235.875 90.5625 235.074 93.1016 235.074C95.6276 235.074 97.6003 235.875 99.0195 237.477C100.439 239.078 101.148 241.331 101.148 244.234V255.328C101.148 258.245 100.439 260.504 99.0195 262.105C97.6003 263.694 95.6276 264.488 93.1016 264.488C90.5625 264.475 88.5898 263.674 87.1836 262.086C85.7773 260.497 85.0742 258.245 85.0742 255.328ZM87.3594 255.426C87.3594 257.678 87.8411 259.43 88.8047 260.68C89.7682 261.917 91.2005 262.535 93.1016 262.535C95.0026 262.535 96.4349 261.917 97.3984 260.68C98.375 259.43 98.8633 257.678 98.8633 255.426V244.137C98.8633 241.91 98.375 240.172 97.3984 238.922C96.4349 237.659 95.0026 237.027 93.1016 237.027C91.2005 237.027 89.7682 237.659 88.8047 238.922C87.8411 240.172 87.3594 241.91 87.3594 244.137V255.426ZM120.992 264V237.789L113.961 240.523L113.941 238.355L122.535 235.172H123.277V264H120.992ZM141.168 255.328V244.234C141.168 241.331 141.871 239.078 143.277 237.477C144.684 235.875 146.656 235.074 149.195 235.074C151.721 235.074 153.694 235.875 155.113 237.477C156.533 239.078 157.242 241.331 157.242 244.234V255.328C157.242 258.245 156.533 260.504 155.113 262.105C153.694 263.694 151.721 264.488 149.195 264.488C146.656 264.475 144.684 263.674 143.277 262.086C141.871 260.497 141.168 258.245 141.168 255.328ZM143.453 255.426C143.453 257.678 143.935 259.43 144.898 260.68C145.862 261.917 147.294 262.535 149.195 262.535C151.096 262.535 152.529 261.917 153.492 260.68C154.469 259.43 154.957 257.678 154.957 255.426V244.137C154.957 241.91 154.469 240.172 153.492 238.922C152.529 237.659 151.096 237.027 149.195 237.027C147.294 237.027 145.862 237.659 144.898 238.922C143.935 240.172 143.453 241.91 143.453 244.137V255.426ZM177.086 264V237.789L170.055 240.523L170.035 238.355L178.629 235.172H179.371V264H177.086ZM197.262 255.328V244.234C197.262 241.331 197.965 239.078 199.371 237.477C200.777 235.875 202.75 235.074 205.289 235.074C207.815 235.074 209.788 235.875 211.207 237.477C212.626 239.078 213.336 241.331 213.336 244.234V255.328C213.336 258.245 212.626 260.504 211.207 262.105C209.788 263.694 207.815 264.488 205.289 264.488C202.75 264.475 200.777 263.674 199.371 262.086C197.965 260.497 197.262 258.245 197.262 255.328ZM199.547 255.426C199.547 257.678 200.029 259.43 200.992 260.68C201.956 261.917 203.388 262.535 205.289 262.535C207.19 262.535 208.622 261.917 209.586 260.68C210.562 259.43 211.051 257.678 211.051 255.426V244.137C211.051 241.91 210.562 240.172 209.586 238.922C208.622 237.659 207.19 237.027 205.289 237.027C203.388 237.027 201.956 237.659 200.992 238.922C200.029 240.172 199.547 241.91 199.547 244.137V255.426ZM233.18 264V237.789L226.148 240.523L226.129 238.355L234.723 235.172H235.465V264H233.18ZM253.355 255.328V244.234C253.355 241.331 254.059 239.078 255.465 237.477C256.871 235.875 258.844 235.074 261.383 235.074C263.909 235.074 265.882 235.875 267.301 237.477C268.72 239.078 269.43 241.331 269.43 244.234V255.328C269.43 258.245 268.72 260.504 267.301 262.105C265.882 263.694 263.909 264.488 261.383 264.488C258.844 264.475 256.871 263.674 255.465 262.086C254.059 260.497 253.355 258.245 253.355 255.328ZM255.641 255.426C255.641 257.678 256.122 259.43 257.086 260.68C258.049 261.917 259.482 262.535 261.383 262.535C263.284 262.535 264.716 261.917 265.68 260.68C266.656 259.43 267.145 257.678 267.145 255.426V244.137C267.145 241.91 266.656 240.172 265.68 238.922C264.716 237.659 263.284 237.027 261.383 237.027C259.482 237.027 258.049 237.659 257.086 238.922C256.122 240.172 255.641 241.91 255.641 244.137V255.426ZM281.402 255.328V244.234C281.402 241.331 282.105 239.078 283.512 237.477C284.918 235.875 286.891 235.074 289.43 235.074C291.956 235.074 293.928 235.875 295.348 237.477C296.767 239.078 297.477 241.331 297.477 244.234V255.328C297.477 258.245 296.767 260.504 295.348 262.105C293.928 263.694 291.956 264.488 289.43 264.488C286.891 264.475 284.918 263.674 283.512 262.086C282.105 260.497 281.402 258.245 281.402 255.328ZM283.688 255.426C283.688 257.678 284.169 259.43 285.133 260.68C286.096 261.917 287.529 262.535 289.43 262.535C291.331 262.535 292.763 261.917 293.727 260.68C294.703 259.43 295.191 257.678 295.191 255.426V244.137C295.191 241.91 294.703 240.172 293.727 238.922C292.763 237.659 291.331 237.027 289.43 237.027C287.529 237.027 286.096 237.659 285.133 238.922C284.169 240.172 283.688 241.91 283.688 244.137V255.426ZM317.32 264V237.789L310.289 240.523L310.27 238.355L318.863 235.172H319.605V264H317.32ZM337.496 255.328V244.234C337.496 241.331 338.199 239.078 339.605 237.477C341.012 235.875 342.984 235.074 345.523 235.074C348.049 235.074 350.022 235.875 351.441 237.477C352.861 239.078 353.57 241.331 353.57 244.234V255.328C353.57 258.245 352.861 260.504 351.441 262.105C350.022 263.694 348.049 264.488 345.523 264.488C342.984 264.475 341.012 263.674 339.605 262.086C338.199 260.497 337.496 258.245 337.496 255.328ZM339.781 255.426C339.781 257.678 340.263 259.43 341.227 260.68C342.19 261.917 343.622 262.535 345.523 262.535C347.424 262.535 348.857 261.917 349.82 260.68C350.797 259.43 351.285 257.678 351.285 255.426V244.137C351.285 241.91 350.797 240.172 349.82 238.922C348.857 237.659 347.424 237.027 345.523 237.027C343.622 237.027 342.19 237.659 341.227 238.922C340.263 240.172 339.781 241.91 339.781 244.137V255.426ZM373.414 264V237.789L366.383 240.523L366.363 238.355L374.957 235.172H375.699V264H373.414ZM8.80469 311V284.789L1.77344 287.523L1.75391 285.355L10.3477 282.172H11.0898V311H8.80469ZM28.9805 302.328V291.234C28.9805 288.331 29.6836 286.078 31.0898 284.477C32.4961 282.875 34.4688 282.074 37.0078 282.074C39.5339 282.074 41.5065 282.875 42.9258 284.477C44.3451 286.078 45.0547 288.331 45.0547 291.234V302.328C45.0547 305.245 44.3451 307.504 42.9258 309.105C41.5065 310.694 39.5339 311.488 37.0078 311.488C34.4688 311.475 32.4961 310.674 31.0898 309.086C29.6836 307.497 28.9805 305.245 28.9805 302.328ZM31.2656 302.426C31.2656 304.678 31.7474 306.43 32.7109 307.68C33.6745 308.917 35.1068 309.535 37.0078 309.535C38.9089 309.535 40.3411 308.917 41.3047 307.68C42.2812 306.43 42.7695 304.678 42.7695 302.426V291.137C42.7695 288.91 42.2812 287.172 41.3047 285.922C40.3411 284.659 38.9089 284.027 37.0078 284.027C35.1068 284.027 33.6745 284.659 32.7109 285.922C31.7474 287.172 31.2656 288.91 31.2656 291.137V302.426ZM64.8984 311V284.789L57.8672 287.523L57.8477 285.355L66.4414 282.172H67.1836V311H64.8984ZM85.0742 302.328V291.234C85.0742 288.331 85.7773 286.078 87.1836 284.477C88.5898 282.875 90.5625 282.074 93.1016 282.074C95.6276 282.074 97.6003 282.875 99.0195 284.477C100.439 286.078 101.148 288.331 101.148 291.234V302.328C101.148 305.245 100.439 307.504 99.0195 309.105C97.6003 310.694 95.6276 311.488 93.1016 311.488C90.5625 311.475 88.5898 310.674 87.1836 309.086C85.7773 307.497 85.0742 305.245 85.0742 302.328ZM87.3594 302.426C87.3594 304.678 87.8411 306.43 88.8047 307.68C89.7682 308.917 91.2005 309.535 93.1016 309.535C95.0026 309.535 96.4349 308.917 97.3984 307.68C98.375 306.43 98.8633 304.678 98.8633 302.426V291.137C98.8633 288.91 98.375 287.172 97.3984 285.922C96.4349 284.659 95.0026 284.027 93.1016 284.027C91.2005 284.027 89.7682 284.659 88.8047 285.922C87.8411 287.172 87.3594 288.91 87.3594 291.137V302.426ZM113.121 302.328V291.234C113.121 288.331 113.824 286.078 115.23 284.477C116.637 282.875 118.609 282.074 121.148 282.074C123.674 282.074 125.647 282.875 127.066 284.477C128.486 286.078 129.195 288.331 129.195 291.234V302.328C129.195 305.245 128.486 307.504 127.066 309.105C125.647 310.694 123.674 311.488 121.148 311.488C118.609 311.475 116.637 310.674 115.23 309.086C113.824 307.497 113.121 305.245 113.121 302.328ZM115.406 302.426C115.406 304.678 115.888 306.43 116.852 307.68C117.815 308.917 119.247 309.535 121.148 309.535C123.049 309.535 124.482 308.917 125.445 307.68C126.422 306.43 126.91 304.678 126.91 302.426V291.137C126.91 288.91 126.422 287.172 125.445 285.922C124.482 284.659 123.049 284.027 121.148 284.027C119.247 284.027 117.815 284.659 116.852 285.922C115.888 287.172 115.406 288.91 115.406 291.137V302.426ZM141.168 302.328V291.234C141.168 288.331 141.871 286.078 143.277 284.477C144.684 282.875 146.656 282.074 149.195 282.074C151.721 282.074 153.694 282.875 155.113 284.477C156.533 286.078 157.242 288.331 157.242 291.234V302.328C157.242 305.245 156.533 307.504 155.113 309.105C153.694 310.694 151.721 311.488 149.195 311.488C146.656 311.475 144.684 310.674 143.277 309.086C141.871 307.497 141.168 305.245 141.168 302.328ZM143.453 302.426C143.453 304.678 143.935 306.43 144.898 307.68C145.862 308.917 147.294 309.535 149.195 309.535C151.096 309.535 152.529 308.917 153.492 307.68C154.469 306.43 154.957 304.678 154.957 302.426V291.137C154.957 288.91 154.469 287.172 153.492 285.922C152.529 284.659 151.096 284.027 149.195 284.027C147.294 284.027 145.862 284.659 144.898 285.922C143.935 287.172 143.453 288.91 143.453 291.137V302.426ZM177.086 311V284.789L170.055 287.523L170.035 285.355L178.629 282.172H179.371V311H177.086ZM205.133 311V284.789L198.102 287.523L198.082 285.355L206.676 282.172H207.418V311H205.133ZM225.309 302.328V291.234C225.309 288.331 226.012 286.078 227.418 284.477C228.824 282.875 230.797 282.074 233.336 282.074C235.862 282.074 237.835 282.875 239.254 284.477C240.673 286.078 241.383 288.331 241.383 291.234V302.328C241.383 305.245 240.673 307.504 239.254 309.105C237.835 310.694 235.862 311.488 233.336 311.488C230.797 311.475 228.824 310.674 227.418 309.086C226.012 307.497 225.309 305.245 225.309 302.328ZM227.594 302.426C227.594 304.678 228.076 306.43 229.039 307.68C230.003 308.917 231.435 309.535 233.336 309.535C235.237 309.535 236.669 308.917 237.633 307.68C238.609 306.43 239.098 304.678 239.098 302.426V291.137C239.098 288.91 238.609 287.172 237.633 285.922C236.669 284.659 235.237 284.027 233.336 284.027C231.435 284.027 230.003 284.659 229.039 285.922C228.076 287.172 227.594 288.91 227.594 291.137V302.426ZM261.227 311V284.789L254.195 287.523L254.176 285.355L262.77 282.172H263.512V311H261.227ZM281.402 302.328V291.234C281.402 288.331 282.105 286.078 283.512 284.477C284.918 282.875 286.891 282.074 289.43 282.074C291.956 282.074 293.928 282.875 295.348 284.477C296.767 286.078 297.477 288.331 297.477 291.234V302.328C297.477 305.245 296.767 307.504 295.348 309.105C293.928 310.694 291.956 311.488 289.43 311.488C286.891 311.475 284.918 310.674 283.512 309.086C282.105 307.497 281.402 305.245 281.402 302.328ZM283.688 302.426C283.688 304.678 284.169 306.43 285.133 307.68C286.096 308.917 287.529 309.535 289.43 309.535C291.331 309.535 292.763 308.917 293.727 307.68C294.703 306.43 295.191 304.678 295.191 302.426V291.137C295.191 288.91 294.703 287.172 293.727 285.922C292.763 284.659 291.331 284.027 289.43 284.027C287.529 284.027 286.096 284.659 285.133 285.922C284.169 287.172 283.688 288.91 283.688 291.137V302.426ZM309.449 302.328V291.234C309.449 288.331 310.152 286.078 311.559 284.477C312.965 282.875 314.938 282.074 317.477 282.074C320.003 282.074 321.975 282.875 323.395 284.477C324.814 286.078 325.523 288.331 325.523 291.234V302.328C325.523 305.245 324.814 307.504 323.395 309.105C321.975 310.694 320.003 311.488 317.477 311.488C314.938 311.475 312.965 310.674 311.559 309.086C310.152 307.497 309.449 305.245 309.449 302.328ZM311.734 302.426C311.734 304.678 312.216 306.43 313.18 307.68C314.143 308.917 315.576 309.535 317.477 309.535C319.378 309.535 320.81 308.917 321.773 307.68C322.75 306.43 323.238 304.678 323.238 302.426V291.137C323.238 288.91 322.75 287.172 321.773 285.922C320.81 284.659 319.378 284.027 317.477 284.027C315.576 284.027 314.143 284.659 313.18 285.922C312.216 287.172 311.734 288.91 311.734 291.137V302.426ZM337.496 302.328V291.234C337.496 288.331 338.199 286.078 339.605 284.477C341.012 282.875 342.984 282.074 345.523 282.074C348.049 282.074 350.022 282.875 351.441 284.477C352.861 286.078 353.57 288.331 353.57 291.234V302.328C353.57 305.245 352.861 307.504 351.441 309.105C350.022 310.694 348.049 311.488 345.523 311.488C342.984 311.475 341.012 310.674 339.605 309.086C338.199 307.497 337.496 305.245 337.496 302.328ZM339.781 302.426C339.781 304.678 340.263 306.43 341.227 307.68C342.19 308.917 343.622 309.535 345.523 309.535C347.424 309.535 348.857 308.917 349.82 307.68C350.797 306.43 351.285 304.678 351.285 302.426V291.137C351.285 288.91 350.797 287.172 349.82 285.922C348.857 284.659 347.424 284.027 345.523 284.027C343.622 284.027 342.19 284.659 341.227 285.922C340.263 287.172 339.781 288.91 339.781 291.137V302.426ZM373.414 311V284.789L366.383 287.523L366.363 285.355L374.957 282.172H375.699V311H373.414ZM0.933594 349.328V338.234C0.933594 335.331 1.63672 333.078 3.04297 331.477C4.44922 329.875 6.42188 329.074 8.96094 329.074C11.487 329.074 13.4596 329.875 14.8789 331.477C16.2982 333.078 17.0078 335.331 17.0078 338.234V349.328C17.0078 352.245 16.2982 354.504 14.8789 356.105C13.4596 357.694 11.487 358.488 8.96094 358.488C6.42188 358.475 4.44922 357.674 3.04297 356.086C1.63672 354.497 0.933594 352.245 0.933594 349.328ZM3.21875 349.426C3.21875 351.678 3.70052 353.43 4.66406 354.68C5.6276 355.917 7.0599 356.535 8.96094 356.535C10.862 356.535 12.2943 355.917 13.2578 354.68C14.2344 353.43 14.7227 351.678 14.7227 349.426V338.137C14.7227 335.91 14.2344 334.172 13.2578 332.922C12.2943 331.659 10.862 331.027 8.96094 331.027C7.0599 331.027 5.6276 331.659 4.66406 332.922C3.70052 334.172 3.21875 335.91 3.21875 338.137V349.426ZM36.8516 358V331.789L29.8203 334.523L29.8008 332.355L38.3945 329.172H39.1367V358H36.8516ZM57.0273 349.328V338.234C57.0273 335.331 57.7305 333.078 59.1367 331.477C60.543 329.875 62.5156 329.074 65.0547 329.074C67.5807 329.074 69.5534 329.875 70.9727 331.477C72.3919 333.078 73.1016 335.331 73.1016 338.234V349.328C73.1016 352.245 72.3919 354.504 70.9727 356.105C69.5534 357.694 67.5807 358.488 65.0547 358.488C62.5156 358.475 60.543 357.674 59.1367 356.086C57.7305 354.497 57.0273 352.245 57.0273 349.328ZM59.3125 349.426C59.3125 351.678 59.7943 353.43 60.7578 354.68C61.7214 355.917 63.1536 356.535 65.0547 356.535C66.9557 356.535 68.388 355.917 69.3516 354.68C70.3281 353.43 70.8164 351.678 70.8164 349.426V338.137C70.8164 335.91 70.3281 334.172 69.3516 332.922C68.388 331.659 66.9557 331.027 65.0547 331.027C63.1536 331.027 61.7214 331.659 60.7578 332.922C59.7943 334.172 59.3125 335.91 59.3125 338.137V349.426ZM85.0742 349.328V338.234C85.0742 335.331 85.7773 333.078 87.1836 331.477C88.5898 329.875 90.5625 329.074 93.1016 329.074C95.6276 329.074 97.6003 329.875 99.0195 331.477C100.439 333.078 101.148 335.331 101.148 338.234V349.328C101.148 352.245 100.439 354.504 99.0195 356.105C97.6003 357.694 95.6276 358.488 93.1016 358.488C90.5625 358.475 88.5898 357.674 87.1836 356.086C85.7773 354.497 85.0742 352.245 85.0742 349.328ZM87.3594 349.426C87.3594 351.678 87.8411 353.43 88.8047 354.68C89.7682 355.917 91.2005 356.535 93.1016 356.535C95.0026 356.535 96.4349 355.917 97.3984 354.68C98.375 353.43 98.8633 351.678 98.8633 349.426V338.137C98.8633 335.91 98.375 334.172 97.3984 332.922C96.4349 331.659 95.0026 331.027 93.1016 331.027C91.2005 331.027 89.7682 331.659 88.8047 332.922C87.8411 334.172 87.3594 335.91 87.3594 338.137V349.426ZM120.992 358V331.789L113.961 334.523L113.941 332.355L122.535 329.172H123.277V358H120.992ZM141.168 349.328V338.234C141.168 335.331 141.871 333.078 143.277 331.477C144.684 329.875 146.656 329.074 149.195 329.074C151.721 329.074 153.694 329.875 155.113 331.477C156.533 333.078 157.242 335.331 157.242 338.234V349.328C157.242 352.245 156.533 354.504 155.113 356.105C153.694 357.694 151.721 358.488 149.195 358.488C146.656 358.475 144.684 357.674 143.277 356.086C141.871 354.497 141.168 352.245 141.168 349.328ZM143.453 349.426C143.453 351.678 143.935 353.43 144.898 354.68C145.862 355.917 147.294 356.535 149.195 356.535C151.096 356.535 152.529 355.917 153.492 354.68C154.469 353.43 154.957 351.678 154.957 349.426V338.137C154.957 335.91 154.469 334.172 153.492 332.922C152.529 331.659 151.096 331.027 149.195 331.027C147.294 331.027 145.862 331.659 144.898 332.922C143.935 334.172 143.453 335.91 143.453 338.137V349.426ZM177.086 358V331.789L170.055 334.523L170.035 332.355L178.629 329.172H179.371V358H177.086ZM197.262 349.328V338.234C197.262 335.331 197.965 333.078 199.371 331.477C200.777 329.875 202.75 329.074 205.289 329.074C207.815 329.074 209.788 329.875 211.207 331.477C212.626 333.078 213.336 335.331 213.336 338.234V349.328C213.336 352.245 212.626 354.504 211.207 356.105C209.788 357.694 207.815 358.488 205.289 358.488C202.75 358.475 200.777 357.674 199.371 356.086C197.965 354.497 197.262 352.245 197.262 349.328ZM199.547 349.426C199.547 351.678 200.029 353.43 200.992 354.68C201.956 355.917 203.388 356.535 205.289 356.535C207.19 356.535 208.622 355.917 209.586 354.68C210.562 353.43 211.051 351.678 211.051 349.426V338.137C211.051 335.91 210.562 334.172 209.586 332.922C208.622 331.659 207.19 331.027 205.289 331.027C203.388 331.027 201.956 331.659 200.992 332.922C200.029 334.172 199.547 335.91 199.547 338.137V349.426ZM233.18 358V331.789L226.148 334.523L226.129 332.355L234.723 329.172H235.465V358H233.18ZM253.355 349.328V338.234C253.355 335.331 254.059 333.078 255.465 331.477C256.871 329.875 258.844 329.074 261.383 329.074C263.909 329.074 265.882 329.875 267.301 331.477C268.72 333.078 269.43 335.331 269.43 338.234V349.328C269.43 352.245 268.72 354.504 267.301 356.105C265.882 357.694 263.909 358.488 261.383 358.488C258.844 358.475 256.871 357.674 255.465 356.086C254.059 354.497 253.355 352.245 253.355 349.328ZM255.641 349.426C255.641 351.678 256.122 353.43 257.086 354.68C258.049 355.917 259.482 356.535 261.383 356.535C263.284 356.535 264.716 355.917 265.68 354.68C266.656 353.43 267.145 351.678 267.145 349.426V338.137C267.145 335.91 266.656 334.172 265.68 332.922C264.716 331.659 263.284 331.027 261.383 331.027C259.482 331.027 258.049 331.659 257.086 332.922C256.122 334.172 255.641 335.91 255.641 338.137V349.426ZM281.402 349.328V338.234C281.402 335.331 282.105 333.078 283.512 331.477C284.918 329.875 286.891 329.074 289.43 329.074C291.956 329.074 293.928 329.875 295.348 331.477C296.767 333.078 297.477 335.331 297.477 338.234V349.328C297.477 352.245 296.767 354.504 295.348 356.105C293.928 357.694 291.956 358.488 289.43 358.488C286.891 358.475 284.918 357.674 283.512 356.086C282.105 354.497 281.402 352.245 281.402 349.328ZM283.688 349.426C283.688 351.678 284.169 353.43 285.133 354.68C286.096 355.917 287.529 356.535 289.43 356.535C291.331 356.535 292.763 355.917 293.727 354.68C294.703 353.43 295.191 351.678 295.191 349.426V338.137C295.191 335.91 294.703 334.172 293.727 332.922C292.763 331.659 291.331 331.027 289.43 331.027C287.529 331.027 286.096 331.659 285.133 332.922C284.169 334.172 283.688 335.91 283.688 338.137V349.426ZM317.32 358V331.789L310.289 334.523L310.27 332.355L318.863 329.172H319.605V358H317.32ZM337.496 349.328V338.234C337.496 335.331 338.199 333.078 339.605 331.477C341.012 329.875 342.984 329.074 345.523 329.074C348.049 329.074 350.022 329.875 351.441 331.477C352.861 333.078 353.57 335.331 353.57 338.234V349.328C353.57 352.245 352.861 354.504 351.441 356.105C350.022 357.694 348.049 358.488 345.523 358.488C342.984 358.475 341.012 357.674 339.605 356.086C338.199 354.497 337.496 352.245 337.496 349.328ZM339.781 349.426C339.781 351.678 340.263 353.43 341.227 354.68C342.19 355.917 343.622 356.535 345.523 356.535C347.424 356.535 348.857 355.917 349.82 354.68C350.797 353.43 351.285 351.678 351.285 349.426V338.137C351.285 335.91 350.797 334.172 349.82 332.922C348.857 331.659 347.424 331.027 345.523 331.027C343.622 331.027 342.19 331.659 341.227 332.922C340.263 334.172 339.781 335.91 339.781 338.137V349.426ZM373.414 358V331.789L366.383 334.523L366.363 332.355L374.957 329.172H375.699V358H373.414Z" fill="url(#paint0_linear_911_4032)"/>
<defs>
<linearGradient id="paint0_linear_911_4032" x1="-16" y1="22" x2="420" y2="348.5" gradientUnits="userSpaceOnUse">
<stop stop-color="#4831A4"/>
<stop offset="1" stop-color="#4E36AE"/>
</linearGradient>
</defs>
</svg>
