<svg width="60" height="60" viewBox="0 0 60 60" fill="none" xmlns="http://www.w3.org/2000/svg">
<path d="M20 54.8125H19.375C19.1667 54.8125 18.9792 54.7708 18.8125 54.6875C13.3542 52.9792 8.85417 49.5933 5.3125 44.53C1.77083 39.4683 0 33.875 0 27.75V15.9375C0 14.8958 0.3025 13.9583 0.9075 13.125C1.51083 12.2917 2.29167 11.6875 3.25 11.3125L18.25 5.6875C18.8333 5.47917 19.4167 5.375 20 5.375C20.5833 5.375 21.1667 5.47917 21.75 5.6875L36.75 11.3125C37.7083 11.6875 38.49 12.2917 39.095 13.125C39.6983 13.9583 40 14.8958 40 15.9375V27.75C40 33.875 38.2292 39.4683 34.6875 44.53C31.1458 49.5933 26.6458 52.9792 21.1875 54.6875C20.9792 54.7708 20.5833 54.8125 20 54.8125Z" fill="#291770"/>
<path fill-rule="evenodd" clip-rule="evenodd" d="M32.0601 20.4263C32.6462 20.995 32.6467 21.9176 32.0612 22.4869L17.0612 37.0727C16.7799 37.3462 16.3983 37.4999 16.0004 37.5C15.6024 37.5001 15.2207 37.3466 14.9393 37.0732L10.4393 32.7019C9.85355 32.1328 9.85355 31.2102 10.4393 30.6412C11.0251 30.0721 11.9749 30.0721 12.5607 30.6412L15.9995 33.9817L29.9388 20.4273C30.5243 19.858 31.4741 19.8575 32.0601 20.4263Z" fill="#F9CC00"/>
</svg>
