<svg width="120" height="120" viewBox="0 0 120 120" fill="none" xmlns="http://www.w3.org/2000/svg">
<path d="M58.7813 8.40625C58.3953 8.79257 58.375 9.07722 58.375 12.6557V16.5189L58.9031 16.9256C59.2078 17.1695 59.6953 17.3525 60 17.3525C60.3047 17.3525 60.7922 17.1695 61.0969 16.9256L61.625 16.5189V12.6557C61.625 9.07722 61.6047 8.79257 61.2188 8.40625C60.9547 8.14193 60.5484 7.9996 60 7.9996C59.4516 7.9996 59.0453 8.14193 58.7813 8.40625Z" fill="#F0BB00"/>
<path d="M43.4042 16.4985C42.5105 16.6408 41.8808 17.9217 42.2464 18.8367C42.3074 19.0197 43.9933 20.6259 46.0043 22.4355C50.1683 26.1767 50.5949 26.4004 51.6715 25.3227C52.3215 24.6721 52.423 24.0418 52.0168 23.3302C51.6105 22.5982 44.8058 16.6001 44.3183 16.5188C44.0542 16.4578 43.648 16.4578 43.4042 16.4985Z" fill="#F0BB00"/>
<path d="M75.7004 16.4984C75.1113 16.5798 68.3269 22.6998 67.941 23.4928C67.5753 24.2248 67.7988 24.9771 68.5707 25.5464C69.5457 26.2783 70.155 25.9124 74.0754 22.3745C76.0457 20.6056 77.691 19.0197 77.752 18.8367C78.2598 17.5151 77.1832 16.2748 75.7004 16.4984Z" fill="#F0BB00"/>
<path d="M22.7876 21.1344C22.0766 21.5004 21.7923 22.09 20.1063 26.6242L18.7251 30.3043L16.2469 30.4467C8.8125 30.8533 9.38126 30.772 8.65 31.504C8.10156 32.0529 8 32.2969 8 33.1102C8 33.6185 8.08125 34.2082 8.18281 34.3912C8.28438 34.5742 9.97032 36.0178 11.9 37.5834L15.4344 40.4096L14.2563 44.8014C13.4641 47.6886 13.0985 49.3762 13.1797 49.8032C13.2407 50.1488 13.5657 50.6978 13.911 51.0231C14.4188 51.5111 14.7032 51.6128 15.4954 51.6128C16.3282 51.6128 16.6938 51.4704 17.9735 50.6165C18.8063 50.0675 20.4923 48.9492 21.7516 48.1156L24.0267 46.6517L27.0329 48.6239C32.0298 51.9381 32.3142 52.0601 33.5939 51.4094C34.4267 50.9825 34.8126 50.3318 34.8126 49.3762C34.8126 48.9289 34.3048 46.733 33.6955 44.4964C32.822 41.3042 32.6392 40.3893 32.8423 40.2063C32.9642 40.0843 34.4673 38.8846 36.1533 37.5224C37.8392 36.1804 39.4236 34.8182 39.6674 34.5132C40.4799 33.4762 39.9721 31.4226 38.7736 30.9753C38.5095 30.8737 36.2955 30.6907 33.858 30.5687C31.4204 30.4263 29.3689 30.2637 29.3079 30.2027C29.247 30.1214 28.5767 28.4134 27.8251 26.4005C27.0735 24.3876 26.322 22.456 26.1595 22.1307C25.611 20.9311 24.0063 20.4634 22.7876 21.1344ZM25.2454 29.4504C25.8345 31.016 26.4439 32.5206 26.6267 32.7646C27.0735 33.4762 28.1095 33.8219 29.8767 33.8422C30.7501 33.8625 32.2126 33.9235 33.1267 33.9845L34.7923 34.1269L32.0704 36.3024C28.5157 39.149 28.5767 38.966 29.7142 43.1951C30.1814 44.9234 30.6079 46.4483 30.6486 46.5703C30.7501 46.855 30.3236 46.611 27.0126 44.4151C23.9454 42.3818 24.0267 42.3818 19.436 45.452C18.2782 46.2247 17.3438 46.794 17.3438 46.733C17.3438 46.672 17.7094 45.3097 18.1563 43.6831C19.0094 40.6129 19.1313 39.515 18.7047 38.7627C18.5626 38.539 17.2829 37.38 15.8204 36.2211C13.9313 34.7165 13.3016 34.1065 13.586 34.0862C13.8094 34.0455 15.4141 33.9439 17.1407 33.8625C19.2329 33.7405 20.4516 33.5982 20.7563 33.3949C21.3657 33.0289 21.711 32.3376 22.9501 29.0031C23.4985 27.5391 24.0063 26.3802 24.0673 26.4615C24.1282 26.5428 24.6563 27.8848 25.2454 29.4504Z" fill="#F0BB00"/>
<path d="M58.6595 21.1955C58.2126 21.4801 57.8876 21.9274 57.6032 22.6797C57.3798 23.2694 56.6485 25.201 55.9579 26.9699C55.2876 28.7591 54.7188 30.2231 54.6782 30.2637C54.6172 30.3247 46.8578 30.7721 45.8625 30.7721C45.5375 30.7721 45.0703 31.0364 44.6438 31.4634C44.075 32.0327 43.9531 32.297 43.9531 33.029C43.9734 33.5169 44.075 34.1269 44.2172 34.3709C44.3594 34.6149 46.025 36.0585 47.9141 37.6038C49.8235 39.1287 51.3672 40.491 51.3469 40.613C51.3266 40.735 50.8391 42.5649 50.25 44.6998C49.6813 46.8144 49.1938 48.9086 49.1938 49.3153C49.1735 50.7385 50.4532 51.8772 51.8344 51.6332C52.2407 51.5722 54.0282 50.5555 56.2626 49.0916L60.0001 46.6517L63.7376 49.0916C65.972 50.5555 67.7595 51.5722 68.1658 51.6332C69.547 51.8772 70.8267 50.7385 70.8064 49.3153C70.8064 48.9086 70.3189 46.8144 69.7501 44.6998C69.1611 42.5649 68.6736 40.735 68.6533 40.613C68.6329 40.491 70.1767 39.1287 72.0861 37.6038C73.9752 36.0788 75.6408 34.6149 75.783 34.3709C76.3924 33.273 75.9252 31.565 74.8486 30.9754C74.6455 30.8737 72.4314 30.6907 69.933 30.5687C67.4345 30.4264 65.3626 30.3044 65.322 30.2637C65.2814 30.2434 64.5704 28.3932 63.7376 26.1973C62.9048 23.981 62.1329 22.0088 62.011 21.8054C61.5032 20.8498 59.736 20.5245 58.6595 21.1955ZM61.3407 29.6944C62.2548 32.1343 62.661 32.968 63.0876 33.2933C63.5751 33.6389 64.1236 33.7203 66.6423 33.8626C68.3079 33.9439 69.9126 34.0456 70.2376 34.0659C70.7658 34.1269 70.5626 34.3302 68.0439 36.3228C64.5095 39.149 64.5907 38.9457 65.6876 43.0935C66.1345 44.7608 66.5611 46.2857 66.622 46.4891C66.6829 46.6924 65.6064 46.1027 63.7376 44.9031C61.3407 43.3375 60.6095 42.9715 60.0001 42.9715C59.3907 42.9715 58.6595 43.3375 56.2626 44.9031C54.3938 46.1027 53.3172 46.6924 53.3782 46.4891C53.4391 46.2857 53.8657 44.7608 54.3126 43.0935C55.4094 38.9457 55.4907 39.149 51.9563 36.3228C49.4375 34.3302 49.2344 34.1269 49.7625 34.0659C50.0875 34.0456 51.6922 33.9439 53.3579 33.8626C55.8766 33.7203 56.4251 33.6389 56.9126 33.2933C57.3391 32.968 57.7454 32.1343 58.6595 29.6944C59.3298 27.9255 59.9188 26.5022 60.0001 26.5022C60.0813 26.5022 60.6704 27.9255 61.3407 29.6944Z" fill="#F0BB00"/>
<path d="M94.693 21.1751C94.0024 21.5817 93.9009 21.8054 92.1743 26.4005C91.4227 28.4134 90.7524 30.1214 90.6915 30.2027C90.6305 30.2637 88.579 30.4263 86.1211 30.5687C83.6836 30.6907 81.4695 30.894 81.2055 30.9957C80.0273 31.4226 79.5195 33.4965 80.332 34.5132C80.5758 34.8182 82.1602 36.1804 83.8461 37.5224C85.5321 38.8846 87.0352 40.0843 87.1571 40.2063C87.3602 40.3893 87.1774 41.3042 86.3039 44.4964C85.6946 46.733 85.1867 48.9289 85.1867 49.3762C85.1867 50.3318 85.5727 50.9825 86.4055 51.4094C87.6852 52.0601 87.9696 51.9381 92.9665 48.6239L95.9727 46.6517L98.2478 48.1156C99.5071 48.9492 101.193 50.0675 102.026 50.6165C103.306 51.4704 103.671 51.6128 104.504 51.6128C105.296 51.6128 105.581 51.5111 106.088 51.0231C106.434 50.6978 106.759 50.1488 106.82 49.8032C106.901 49.3762 106.535 47.6886 105.763 44.8014L104.565 40.4299L107.937 37.7257C109.785 36.2414 111.451 34.8385 111.654 34.5945C111.878 34.3302 111.999 33.8422 111.999 33.1712C111.999 32.2969 111.898 32.0529 111.329 31.4836C110.598 30.7517 110.74 30.772 103.956 30.4467L101.295 30.3247L99.9134 26.6242C99.1415 24.6113 98.3493 22.5983 98.1462 22.1917C97.5165 20.8904 95.8915 20.4228 94.693 21.1751ZM98.6743 32.9069C99.0806 33.5372 100.117 33.8219 102.148 33.8422C103.042 33.8625 104.463 33.9235 105.296 34.0049L106.799 34.1269L104.179 36.2211C102.717 37.38 101.437 38.539 101.295 38.7627C100.868 39.515 100.99 40.6129 101.843 43.6831C102.29 45.3097 102.656 46.672 102.656 46.733C102.656 46.794 101.579 46.123 100.279 45.2487C96.0134 42.3818 96.054 42.3818 92.9868 44.4151C91.7883 45.208 90.468 46.062 90.0415 46.3467L89.2696 46.8143L89.554 45.8587C89.6961 45.33 90.1227 43.8051 90.468 42.4835C91.3821 39.0473 91.4024 39.088 87.9289 36.3024L85.2071 34.1269L86.8727 33.9845C87.7868 33.9235 89.2493 33.8625 90.1227 33.8422C91.8899 33.8219 92.9259 33.4762 93.3727 32.7646C93.6165 32.3986 94.6321 29.8367 95.8712 26.5022C95.9321 26.3395 96.5212 27.5798 97.1712 29.3081C97.8212 31.016 98.5118 32.6426 98.6743 32.9069Z" fill="#F0BB00"/>
<path d="M57.1559 55.4963C53.9668 56.1673 50.4324 58.7088 48.7668 61.4944C46.4918 65.3576 46.2886 70.2374 48.259 74.1615C49.0715 75.8084 50.3308 77.435 51.5293 78.3907C52.3621 79.0413 52.4637 79.1836 52.1387 79.2853C47.6902 80.8509 44.0136 83.4535 40.9667 87.1743L40.337 87.9673L39.2402 86.849C37.737 85.324 36.2136 84.2058 34.2433 83.2298L32.5776 82.3962L33.5526 81.2779C34.7714 79.9156 35.5636 78.35 35.9495 76.5608C36.2948 74.8325 36.2948 74.1209 35.9292 72.3519C35.523 70.4407 34.7917 68.9971 33.4714 67.5738C31.3182 65.2559 29.1042 64.2799 25.9557 64.2799C21.1619 64.2596 17.2416 67.2485 16.0228 71.864C15.6369 73.2466 15.6369 75.7068 16.0025 77.0487C16.3885 78.4923 17.4447 80.4239 18.4604 81.5219L19.3135 82.4368L18.0541 83.0061C13.6463 85.0191 9.88844 89.2075 8.32437 93.8637C7.85718 95.2666 7.8978 97.2592 8.42593 98.3775C8.97437 99.5161 10.5384 100.96 11.615 101.285C12.1838 101.468 15.6572 101.529 24.087 101.529H35.787L35.8683 103.928C35.9495 106.083 36.0105 106.449 36.5792 107.669C37.3714 109.337 38.6105 110.618 40.2152 111.411L41.4136 112H59.9997H78.5857L79.7435 111.431C81.3482 110.638 82.6482 109.316 83.4201 107.669C83.9889 106.449 84.0498 106.083 84.131 103.928L84.2123 101.529H95.9124C104.342 101.529 107.816 101.468 108.384 101.285C109.461 100.96 111.025 99.5161 111.573 98.3775C112.102 97.2592 112.142 95.2666 111.675 93.8637C110.111 89.2075 106.353 85.0191 101.945 83.0061L100.686 82.4368L101.539 81.5219C103.266 79.6716 104.281 77.0487 104.281 74.5072C104.281 71.6403 103.326 69.2614 101.356 67.2688C98.0249 63.8733 92.5608 63.2227 88.5998 65.7642C87.2998 66.6182 85.5529 68.5498 84.9029 69.851C84.3342 71.01 83.7654 73.3279 83.7654 74.4868C83.7654 76.7437 84.9029 79.6106 86.467 81.3185L87.442 82.3758L85.7561 83.2298C83.7857 84.2058 82.2623 85.324 80.7591 86.849L79.6623 87.9673L79.0326 87.1743C75.9857 83.4535 72.3091 80.8509 67.8606 79.2853C67.5356 79.1836 67.6372 79.0413 68.47 78.3907C70.3185 76.9064 72.0044 74.2225 72.7153 71.62C73.2232 69.7087 73.1622 66.4758 72.5935 64.6256C71.8825 62.328 71.0091 60.9048 69.2419 59.1155C67.9419 57.8142 67.2716 57.2856 65.8903 56.6146C63.0669 55.232 60.1215 54.8457 57.1559 55.4963ZM61.8684 58.8512C64.7731 59.4611 67.3731 61.4944 68.6325 64.1376C69.7903 66.6385 69.9325 69.1597 69.0591 71.6403C68.0231 74.5072 65.1591 77.0487 62.1731 77.74C61.0762 77.984 58.9231 77.984 57.8262 77.74C54.8403 77.0487 51.9762 74.5072 50.9402 71.6403C48.4215 64.6256 54.6574 57.3466 61.8684 58.8512ZM28.8401 68.4074C31.7245 69.79 33.2479 72.9416 32.4964 75.9304C31.6839 79.0413 29.4089 80.9729 26.2807 81.1559C24.1479 81.2779 22.726 80.7086 21.1823 79.1836C19.6791 77.679 19.1104 76.2151 19.2119 74.1819C19.476 69.2411 24.4323 66.2725 28.8401 68.4074ZM96.4608 68.1228C97.9233 68.5904 99.8124 70.5423 100.422 72.1486C101.356 74.6902 100.625 77.5977 98.5733 79.448C95.5061 82.2132 90.8139 81.6439 88.5186 78.228C87.0154 75.9711 86.8936 73.5515 88.1732 71.193C89.7983 68.2244 93.0889 67.0045 96.4608 68.1228ZM62.3356 81.6235C70.8669 82.6808 77.8544 88.6992 80.1091 96.9542C80.6779 98.9875 80.9216 104.071 80.5154 105.474C80.2107 106.612 79.2966 107.71 78.2201 108.3L77.3669 108.747H59.9997H42.6324L41.7792 108.3C40.7027 107.71 39.7886 106.612 39.4839 105.474C39.0777 104.071 39.3214 98.9875 39.8902 96.9542C41.1089 92.4811 43.9933 88.2519 47.7105 85.507C50.3105 83.5755 54.1902 82.0302 57.4606 81.6235C59.5121 81.3795 60.284 81.3795 62.3356 81.6235ZM29.4698 85.1614C32.2323 85.7917 35.0964 87.52 37.1277 89.7565C37.7573 90.4682 38.2652 91.0985 38.2652 91.1798C38.2652 91.2611 37.9808 91.9931 37.6355 92.8064C37.2902 93.6197 36.7823 95.1243 36.5386 96.1409L36.0714 97.9708L24.351 98.0318L12.651 98.0725L12.0213 97.4625C11.4525 96.8932 11.4119 96.7509 11.4931 95.8156C11.7166 93.5384 14.2556 89.6955 16.7135 87.9063C20.6338 85.0394 24.9198 84.1244 29.4698 85.1614ZM97.6796 85.2021C102.372 86.3813 106.231 89.7159 108.059 94.1483C108.73 95.7953 108.709 96.7306 107.958 97.4829L107.348 98.0725L95.6483 98.0318L83.9279 97.9708L83.4607 96.1409C83.1967 95.1243 82.7092 93.64 82.3638 92.8064C82.0185 91.9728 81.7342 91.2408 81.7342 91.1595C81.7342 91.0985 82.242 90.4682 82.8717 89.7565C85.3498 87.0116 88.7217 85.2834 92.4998 84.7954C93.6373 84.6327 96.3592 84.8564 97.6796 85.2021Z" fill="#291770"/>
</svg>
