<svg width="120" height="120" viewBox="0 0 120 120" fill="none" xmlns="http://www.w3.org/2000/svg">
<path d="M55.1222 11.5077C46.005 12.3749 36.255 16.4062 28.9894 22.2421C23.9972 26.2734 19.4738 31.8046 16.4269 37.5702C15.3488 39.6327 15.255 40.4296 15.9582 41.3437C16.4738 41.9999 17.6691 42.1874 18.5128 41.7187C18.7472 41.6015 19.4738 40.4765 20.1535 39.2343C28.7082 23.1796 46.38 13.664 64.2394 15.4687C84.7941 17.5546 101.153 32.9531 104.411 53.2968C104.622 54.5624 104.739 55.6406 104.693 55.6874C104.646 55.7343 103.661 55.1015 102.489 54.2577C100.849 53.0859 100.193 52.7343 99.5597 52.7343C98.4582 52.7343 97.6847 53.5781 97.6847 54.7499C97.6847 55.8281 97.6378 55.7812 102.513 59.2734C106.755 62.3202 107.013 62.3906 109.005 61.0077C112.427 58.6874 115.966 55.9921 116.107 55.664C116.411 54.8202 116.247 53.7421 115.708 53.2499C114.724 52.3359 113.857 52.5468 111.302 54.3749C110.036 55.2656 108.958 56.0156 108.911 56.0156C108.864 56.0156 108.747 55.3124 108.653 54.4218C108.185 49.8046 106.45 43.7577 104.318 39.2577C100.005 30.164 92.8097 22.4765 84.0207 17.5312C75.4425 12.7031 65.0832 10.5468 55.1222 11.5077Z" fill="#291770"/>
<path d="M53.7891 28.8749C52.9688 29.3202 52.7344 29.8124 52.7344 31.1484C52.7344 33.2577 52.4531 35.6249 52.1953 35.6249C52.0781 35.6249 51.0234 35.9999 49.875 36.4687L47.7656 37.3124L46.6641 36.2812C44.1562 33.8906 43.6172 33.5156 42.75 33.5156C41.9531 33.5156 41.5781 33.8202 37.9219 37.4296C35.7422 39.6093 33.7969 41.6718 33.5859 42.0468C33.0703 43.0546 33.375 43.7343 35.3906 45.9609C36.7266 47.4374 37.1719 48.0468 37.0312 48.3046C36.9141 48.4921 36.4688 49.4999 36.0703 50.5312L35.3203 52.4531L34.2656 52.5937C33.6797 52.664 32.4375 52.7343 31.4766 52.7343C29.8594 52.7343 29.6719 52.7812 29.0391 53.414L28.3594 54.0937V59.9999V65.9062L29.0391 66.5859C29.6484 67.1952 29.9062 67.2656 31.125 67.2656C31.875 67.2656 33.1406 67.3359 33.9141 67.4062L35.3203 67.5702L36.0703 69.4687C36.4688 70.4999 36.9141 71.5312 37.0312 71.6952C37.1719 71.9531 36.75 72.5624 35.3906 74.0624C33.375 76.289 33.0703 76.9452 33.5859 77.9531C33.7969 78.3281 35.7422 80.3906 37.9219 82.5468C43.0078 87.5859 42.7031 87.539 46.5703 83.8359L47.7891 82.664L49.1484 83.2734C49.8984 83.6015 50.9531 83.9999 51.4688 84.164L52.4297 84.4687L52.5938 86.0156C52.6641 86.8593 52.7344 88.1484 52.7344 88.8984C52.7344 90.0234 52.8281 90.3515 53.3203 90.8202L53.8828 91.4062H60C67.6406 91.4062 67.125 91.6874 67.3828 87.4452C67.5234 85.1015 67.6172 84.539 67.9453 84.4452C68.1562 84.3749 69.1875 83.9531 70.2422 83.5077L72.1875 82.6874L74.2969 84.5859C77.4375 87.3984 77.1328 87.4921 82.3125 82.3359C87.7031 76.9687 87.6328 77.2499 84.4453 73.8281L82.8047 72.0702L83.4844 70.664C83.8359 69.8906 84.2578 68.8827 84.3984 68.414C84.6562 67.5702 84.6797 67.5702 86.2266 67.4062C87.0703 67.3359 88.2656 67.2656 88.875 67.2656C90.2344 67.2656 91.0312 66.914 91.3828 66.164C91.5469 65.8124 91.6406 63.6093 91.6406 59.9999C91.6406 56.3906 91.5469 54.1874 91.3828 53.8359C91.0312 53.039 90.2344 52.7343 88.5234 52.7343C87.7266 52.7343 86.5312 52.664 85.875 52.5937C84.7266 52.4531 84.6562 52.3827 84.3984 51.5859C84.2578 51.1171 83.8359 50.1093 83.4844 49.3359L82.8047 47.9296L84.3984 46.2421C87.6562 42.7968 87.7266 43.0546 82.3125 37.664C77.1328 32.5077 77.4375 32.6015 74.2969 35.414L72.1641 37.3124L70.8281 36.7265C70.1016 36.3984 69.0469 35.9999 68.5312 35.8359L67.5469 35.5312L67.3828 32.6015C67.125 28.3359 67.6172 28.5937 60.1875 28.5937C56.3438 28.6171 54.0938 28.6874 53.7891 28.8749ZM63.5156 35.3202C63.6562 38.414 63.7969 38.6484 65.9766 39.2577C66.75 39.4687 68.5078 40.1718 69.8672 40.8046C72.8438 42.1874 72.8438 42.1874 75.3984 39.914L77.1328 38.3437L79.4766 40.6874L81.7969 43.0077L80.0391 44.9531C78.8438 46.2656 78.2812 47.0624 78.2812 47.4609C78.2812 47.789 78.6797 48.8671 79.1953 49.8749C79.6875 50.8593 80.3203 52.3593 80.625 53.2031C80.9062 54.0468 81.2344 55.0077 81.375 55.3359C81.6562 56.1562 82.4531 56.4843 84.1172 56.4843C84.8672 56.4843 85.9688 56.5546 86.5781 56.6249L87.6562 56.789V59.9999V63.2343L86.9297 63.3749C86.5312 63.4452 85.3828 63.5156 84.375 63.5156C82.0078 63.5156 81.5625 63.8437 80.8594 66.1406C80.5781 67.0781 79.875 68.7421 79.3125 69.8906C78.75 71.0156 78.2812 72.2109 78.2812 72.539C78.2812 72.9609 78.6797 73.5937 79.5 74.4843C80.1797 75.2109 80.9766 76.1015 81.2812 76.4296L81.8438 77.0624L79.5703 79.2421C78.3047 80.4609 77.2031 81.4452 77.1094 81.4452C76.9922 81.4452 76.1016 80.7421 75.1172 79.8515C72.9375 77.9296 72.5156 77.8827 69.8906 79.1952C68.9062 79.6874 67.2188 80.3671 66.1641 80.7187C65.1094 81.0702 64.125 81.5156 63.9375 81.7265C63.75 81.9609 63.5859 83.039 63.5156 84.7031L63.3984 87.3046L60.0938 87.3749L56.7891 87.4452L56.625 86.5546C56.5547 86.0624 56.4844 84.914 56.4844 83.9765C56.4844 81.7968 56.0859 81.3281 53.6719 80.6249C52.7344 80.3437 51.1172 79.7109 50.1094 79.1952C47.5547 77.9062 46.9453 77.9531 45.2812 79.5234C44.5547 80.2031 43.7109 80.9531 43.4062 81.2109L42.8672 81.6562L40.5469 79.3359L38.2266 77.039L39.9844 75.0702C42.0234 72.7734 42.0938 72.4218 40.9219 70.2656C40.4766 69.4452 39.8906 68.1562 39.6094 67.3827C39.3281 66.6093 38.9531 65.5546 38.7656 65.0156C38.3438 63.7968 37.7344 63.5156 35.5312 63.5156C34.5703 63.5156 33.4688 63.4452 33.0703 63.3749L32.3438 63.2343V59.9999V56.789L33.4219 56.6249C34.0312 56.5546 35.1328 56.4843 35.8828 56.4843C37.7109 56.4843 38.3438 56.1562 38.7656 54.9843C38.9531 54.4452 39.3281 53.3906 39.6094 52.6171C39.8906 51.8437 40.4766 50.5546 40.9219 49.7343C42.0938 47.5781 42.0234 47.2265 39.9844 44.9531L38.2266 43.0077L40.5 40.7109C41.7422 39.4687 42.8203 38.4374 42.8906 38.4374C42.9609 38.4374 43.8047 39.164 44.7891 40.0546C45.7734 40.9218 46.875 41.7187 47.2031 41.8124C47.6719 41.9296 48.3516 41.6952 49.9688 40.8984C51.1641 40.3124 52.875 39.6093 53.7891 39.3515C56.0859 38.6718 56.4844 38.1796 56.4844 36.0234C56.4844 35.0859 56.5547 33.9374 56.625 33.4452L56.7891 32.5546L60.0938 32.6249L63.3984 32.6952L63.5156 35.3202Z" fill="#F0BB00"/>
<path d="M58.0057 46.875C50.8573 47.8594 45.7714 54.6797 46.8261 61.9219C47.2479 64.7812 48.537 67.3594 50.5761 69.3516C53.2948 72.0234 56.1776 73.1953 59.9979 73.1953C63.7948 73.1953 66.7245 72 69.3964 69.375C74.6229 64.2188 74.6229 55.7812 69.3964 50.625C66.3495 47.625 62.2948 46.2891 58.0057 46.875ZM62.9511 51.2109C65.6698 52.0078 68.2245 54.7734 69.0214 57.75C70.6854 63.9141 64.9901 70.1719 58.662 69.1406C53.1307 68.2266 49.4745 62.6719 51.0448 57.5156C52.6151 52.3125 57.7011 49.6406 62.9511 51.2109Z" fill="#F0BB00"/>
<path d="M8.31892 60.8203C6.25642 62.3203 4.35798 63.7265 4.10017 63.9843C3.02205 65.0859 3.95955 67.2656 5.52986 67.2656C6.25642 67.2656 7.12361 66.75 10.1939 64.5L11.2486 63.7265V64.6171C11.2486 67.1718 12.7017 73.4765 14.1783 77.3203C15.9127 81.8671 18.8658 86.9531 22.0064 90.7968C23.6939 92.8359 27.9595 97.0078 29.8814 98.4609C44.8111 109.852 64.7095 111.891 81.4439 103.734C91.0533 99.0468 99.0689 91.2187 103.686 82.0781C104.647 80.1562 104.717 79.5234 104.038 78.6562C103.663 78.164 103.358 78.0468 102.561 78.0468C101.436 78.0468 101.108 78.3046 100.311 79.9218C97.7564 85.0078 93.6314 90.2109 89.2252 93.914C72.0455 108.305 47.9283 108.305 30.7252 93.8671C23.9049 88.1484 18.5845 79.5468 16.4049 70.7812C15.7252 68.0625 15.1158 64.5 15.3033 64.3125C15.3502 64.2656 16.3345 64.8984 17.5064 65.7421C19.8267 67.4062 20.6002 67.6171 21.6549 66.7734C22.1236 66.3984 22.2642 66.0937 22.2642 65.3671C22.2642 64.1718 22.1236 64.0312 17.5299 60.75C12.7252 57.3046 13.2174 57.3046 8.31892 60.8203Z" fill="#291770"/>
</svg>
