<svg width="120" height="120" viewBox="0 0 120 120" fill="none" xmlns="http://www.w3.org/2000/svg">
<path d="M97.121 32.65C96.8814 32.6936 94.573 33.5211 91.9816 34.4793C86.9293 36.3521 86.0146 36.8748 85.2089 38.4427C84.8387 39.1396 84.7298 39.7494 84.7298 40.8818C84.7298 41.7093 84.7733 42.5586 84.8169 42.7328C84.904 42.9941 84.6644 43.0813 83.6627 43.1248C82.2036 43.1901 81.4414 42.9724 77.2167 41.2738C72.5564 39.4009 71.3368 39.1396 67.5041 39.1396C64.3899 39.1396 64.1504 39.1832 62.1687 39.8582C61.0363 40.2502 59.5772 40.8818 58.9239 41.252L57.7479 41.9053L55.6573 40.9035C51.1277 38.7258 47.382 38.421 40.8271 39.6622C38.8454 40.0325 36.4281 40.4027 35.4482 40.4898L33.6624 40.6204L33.51 39.9889C33.1398 38.4427 32.1163 37.0925 30.8096 36.4175C30.3959 36.1997 28.0222 35.3722 25.5613 34.5882C20.2913 32.8896 19.3331 32.8025 17.5038 33.7606C16.8069 34.1309 16.0883 34.7188 15.7399 35.2197C15.3261 35.8295 13.475 41.2738 9.57694 53.3165C3.30513 72.7635 3.43579 72.2844 4.67709 74.4621C5.0473 75.0936 5.70061 75.8558 6.15793 76.1389C6.59348 76.4438 9.11962 77.3584 11.7329 78.2077C17.2207 79.9717 18.0918 80.0806 19.8993 79.1877C20.5091 78.8611 21.0753 78.6651 21.1406 78.7304C21.2059 78.7739 20.7704 79.7104 20.1824 80.7774C18.658 83.6085 18.3967 84.3489 18.3967 86.0693C18.3967 90.1852 21.2059 93.1904 25.104 93.2993L26.28 93.3428L26.1276 94.5406C25.9098 96.6747 26.8244 99.1573 28.3924 100.616C30.2434 102.337 33.5318 102.903 35.9708 101.923L37.2992 101.379L37.6912 102.228C38.1485 103.23 39.8907 104.928 40.9578 105.364C42.7217 106.104 45.139 106.17 46.8158 105.538C46.99 105.451 47.2949 105.843 47.6433 106.627C48.362 108.173 50.0824 109.893 51.6286 110.612C53.3489 111.396 55.5267 111.396 57.0511 110.612C58.227 110.024 59.7296 108.565 60.2958 107.454L60.6443 106.779L61.8856 107.346C62.8655 107.781 63.4971 107.912 64.673 107.912C66.4588 107.912 67.417 107.563 68.7018 106.409C70.0738 105.168 70.7271 103.709 70.7489 101.814L70.7706 100.224H71.5764C72.0337 100.224 72.8612 100.072 73.4275 99.876C76.302 98.896 78.2184 96.3481 78.3491 93.3211L78.3926 92.1669L79.1548 92.3411C83.7498 93.3211 87.9528 90.3158 88.4319 85.6991L88.5843 84.3924L90.0434 84.5013C91.9816 84.632 92.8091 84.4578 94.0286 83.652C95.945 82.3889 97.1645 79.4926 96.9467 76.7705C96.9032 76.0083 96.8814 75.3985 96.925 75.3985C96.9685 75.3985 97.1645 75.7469 97.3605 76.1607C97.8614 77.2495 99.4293 78.5562 100.605 78.8828C102.151 79.3184 103.349 79.057 108.314 77.2278C113.388 75.3332 114.26 74.8105 115.087 73.1119C115.479 72.2844 115.544 71.8488 115.479 70.5422C115.392 69.1485 114.739 67.2756 109.338 52.7503C106.006 43.8217 103.153 36.1779 102.979 35.7641C102.565 34.8059 101.498 33.6735 100.496 33.1509C99.6907 32.7371 97.8614 32.454 97.121 32.65ZM98.972 36.0908C99.3204 36.265 99.7124 36.6134 99.8431 36.853C99.9738 37.0925 102.87 44.8016 106.267 53.9698C111.995 69.388 112.474 70.7382 112.256 71.3915C112.125 71.7835 111.799 72.2408 111.537 72.415C110.71 72.9377 102.674 75.834 102.021 75.834C100.671 75.834 100.649 75.7905 94.1593 58.3035C90.7838 49.2006 87.9746 41.4915 87.9092 41.1866C87.735 40.0978 88.3666 39.3356 89.9781 38.7258C94.2028 37.0925 97.7961 35.7859 98.0574 35.7641C98.2098 35.7641 98.6236 35.9166 98.972 36.0908ZM25.0823 37.8547C29.1763 39.1832 29.5683 39.3574 29.9603 39.9889C30.1781 40.3591 30.3741 40.8382 30.3741 41.0342C30.3741 41.5133 19.5291 75.1154 19.2024 75.638C18.9193 76.0954 18.1136 76.4874 17.5038 76.4874C17.2425 76.4874 15.0648 75.8558 12.6475 75.0718C8.20498 73.6345 7.52989 73.2861 7.20323 72.219C7.11613 71.9359 9.05429 65.5988 12.604 54.5796C18.5927 36.0472 18.4402 36.4175 19.9429 36.4175C20.3131 36.4175 22.6214 37.0708 25.0823 37.8547ZM49.7339 42.3191C50.9099 42.4933 54.5467 43.7128 54.5467 43.9088C54.5467 43.9523 51.9552 46.5656 48.7975 49.7233C45.6399 52.881 42.6999 56.0169 42.2644 56.6702C41.1755 58.3252 41.1973 59.0874 42.4168 60.5247C45.139 63.7042 47.8176 65.0108 51.6068 65.0326C54.1547 65.0544 56.0275 64.597 61.1669 62.7678C67.5912 60.4594 68.9849 60.3505 71.6853 61.9402C72.491 62.4193 75.4309 63.9437 78.1749 65.3157C91.3282 71.9142 94.1375 74.2008 93.6802 78.0335C93.4406 80.0588 92.2211 81.3872 90.7185 81.3654C89.7821 81.3436 88.9763 80.9299 77.3256 74.5927C70.1827 70.7382 69.4858 70.4551 68.6583 71.1955C68.0703 71.7182 68.1356 73.0901 68.7672 73.591C69.0502 73.8088 72.4475 75.7034 76.3238 77.794C80.3744 79.9935 83.6627 81.9099 84.0547 82.3236C84.904 83.1729 85.3613 84.6102 85.1435 85.8297C84.7515 88.1381 82.0947 89.8367 79.9606 89.1399C79.5468 88.9874 76.3891 87.3541 72.9266 85.5031C63.9544 80.6686 63.7802 80.5814 62.9962 80.7339C62.5171 80.8428 62.2558 81.0823 62.038 81.6267C61.45 82.9987 61.7114 83.2165 67.7001 86.4177C70.6835 88.0292 73.4275 89.5972 73.7759 89.9238C75.4963 91.5571 75.6052 93.8437 74.0808 95.5859C73.2315 96.5441 72.295 96.9578 70.9666 96.9578C69.8342 96.9578 68.8978 96.5223 61.5589 92.5589C59.0981 91.2522 57.3124 90.4247 56.9204 90.4247C55.3742 90.4247 54.8516 92.4718 56.18 93.3646L56.8551 93.8002L55.6138 93.8219L54.3942 93.8437L54.2418 92.5153C53.9805 90.0109 52.4779 87.7679 50.3002 86.6573C49.342 86.1782 47.2731 85.8515 46.1843 85.9822L45.2479 86.1128L45.0954 85.2853C44.6817 82.9987 43.1355 80.9517 41.1538 79.9717C40.2609 79.5361 39.7165 79.449 38.1703 79.4273H36.2539L36.0361 78.3166C35.6224 76.4002 33.8584 74.1354 32.0074 73.1772C30.9621 72.611 28.2835 72.415 26.9551 72.7635C26.4542 72.8941 25.5396 73.3514 24.9298 73.7652L23.7974 74.5274L23.9498 73.1772C24.1676 71.3262 24.2983 70.8906 28.9586 56.4306L33.0745 43.691L35.1433 43.6692C36.4499 43.6475 38.6494 43.3861 40.936 42.9724C46.4021 41.9924 47.3602 41.9271 49.7339 42.3191ZM71.5328 42.7546C72.4257 42.9941 74.6034 43.7563 76.3674 44.475C80.6575 46.1954 81.8552 46.5003 84.2725 46.3914L86.2324 46.326L91.0451 59.2834C93.702 66.4045 95.7708 72.2844 95.6619 72.3279C95.553 72.3497 94.8561 71.8053 94.0939 71.0866C91.742 68.8218 88.0181 66.5788 78.6104 61.8096C76.106 60.5247 73.4057 59.131 72.6217 58.7172C69.7907 57.2146 66.9814 57.2799 62.0598 58.9785C53.6756 61.8967 54.1765 61.7442 51.8246 61.766C49.9299 61.766 49.4944 61.7007 48.4491 61.2216C47.7958 60.9167 46.7287 60.1981 46.0972 59.6319L44.9648 58.5866L45.4221 57.955C46.1843 56.8879 51.8463 51.117 54.6338 48.5691C60.9927 42.7764 65.4788 41.2302 71.5328 42.7546ZM30.5701 76.1389C32.0074 76.9011 33.1616 78.9264 32.9002 80.2548C32.726 81.0605 28.9804 88.1599 28.327 88.8568C26.3235 91.078 22.6432 90.2069 21.7721 87.3106C21.3366 85.8297 21.5326 85.1982 23.5579 81.409C25.7791 77.2713 26.1058 76.7922 27.0422 76.2914C28.0222 75.7687 29.7208 75.7034 30.5701 76.1389ZM39.7165 82.9769C40.1302 83.1729 40.7618 83.7174 41.132 84.1747C41.72 84.9151 41.8071 85.1982 41.8071 86.3524C41.8071 87.6372 41.72 87.8768 39.6511 91.7313C36.5588 97.524 36.1886 98.0902 35.2086 98.6565C34.2069 99.2009 32.6825 99.288 31.6154 98.8307C30.1781 98.2427 29.0892 96.2174 29.3723 94.693C29.5248 93.8655 34.2504 84.9586 35.0779 83.9351C35.3828 83.5214 35.9708 83.064 36.341 82.8898C37.2774 82.4761 38.8454 82.5196 39.7165 82.9769ZM48.558 89.5318C50.1477 90.2505 51.2366 92.0798 50.997 93.6042C50.8446 94.5406 47.7305 100.486 46.8811 101.444C44.5945 104.057 40.4787 102.62 40.2173 99.1355C40.1302 97.8725 40.152 97.7854 42.0466 94.2357C43.9848 90.5336 44.6163 89.7496 45.9883 89.3358C46.9465 89.0527 47.6216 89.0963 48.558 89.5318ZM66.0232 98.7871C67.6783 99.876 68.0485 102.032 66.8725 103.6C66.0668 104.645 64.8908 104.994 63.6495 104.493C62.1469 103.927 62.1469 103.927 62.5171 102.838C63.2793 100.638 63.1269 98.6565 62.0598 97.0667L61.4936 96.261L63.41 97.2845C64.4553 97.8507 65.6312 98.5258 66.0232 98.7871ZM57.9439 97.72C60.1434 99.0049 60.2305 100.29 58.4448 103.883C56.5937 107.52 55.2436 108.543 53.3272 107.738C51.6068 107.019 50.213 105.124 50.1913 103.469C50.1913 102.467 51.6939 99.5275 52.7827 98.4169C54.3071 96.8707 56.0711 96.6312 57.9439 97.72Z" fill="#291770"/>
<path d="M59.6855 25.1532L59.6855 8.80003" stroke="#F0BB00" stroke-width="4" stroke-linecap="round"/>
<path d="M73.623 25.1923L83.8438 11.03" stroke="#F0BB00" stroke-width="4" stroke-linecap="round"/>
<path d="M45.748 25.1923L35.5273 11.03" stroke="#F0BB00" stroke-width="4" stroke-linecap="round"/>
</svg>
