<svg width="120" height="120" viewBox="0 0 120 120" fill="none" xmlns="http://www.w3.org/2000/svg">
<path d="M52.9638 11.3371C40.589 13.1338 29.3595 19.5121 21.7011 29.1245C16.1987 36.0194 12.5154 44.8233 11.4149 53.6496C11.078 56.5019 11.1454 63.1048 11.5497 66.0469C13.7956 82.2846 23.8347 96.1417 38.4104 103.171C45.5074 106.585 51.7735 108 59.7688 108C67.6743 107.978 74.3895 106.45 81.2395 103.037C91.0764 98.1855 98.5103 90.7291 103.272 80.9595C106.73 73.885 108.213 67.5067 108.213 59.6461C108.213 53.6721 107.561 49.5396 105.809 44.1495C99.9926 26.3621 84.1591 13.4932 65.3161 11.2024C62.6885 10.888 55.5465 10.9553 52.9638 11.3371ZM65.0916 15.0428C73.2666 16.0086 81.5763 19.5571 88.067 24.8574C90.2005 26.6316 93.8613 30.4271 95.4559 32.5607C99.476 37.9284 102.216 44.0147 103.608 50.7299C104.417 54.5479 104.619 61.4204 104.08 65.418C103.047 72.7621 100.352 79.4773 95.9051 85.7657C93.9512 88.5282 88.7407 93.7386 86.0457 95.6476C79.6898 100.117 73.1992 102.745 65.9001 103.845C62.7334 104.317 56.7369 104.317 53.6151 103.845C45.8443 102.7 38.927 99.8474 32.7733 95.2434C30.6397 93.6488 26.8441 89.988 25.0699 87.8544C20.5332 82.3071 17.3216 75.5245 15.7495 68.1355C15.1655 65.3731 15.1206 64.9015 15.1431 59.4889C15.1431 54.0988 15.1655 53.5822 15.7495 50.8422C17.3216 43.4533 20.5332 36.6932 25.0699 31.1234C26.8666 28.9449 30.6621 25.3065 32.8631 23.667C42.1162 16.7497 53.5477 13.6953 65.0916 15.0428Z" fill="#291770"/>
<path d="M54.8736 18.2994C46.5413 19.5122 39.4443 22.5217 33.5601 27.3503C31.6736 28.9 28.0802 32.5833 26.7551 34.335C22.982 39.2984 20.2869 45.3623 19.0068 51.6508C18.5576 53.8967 18.4902 54.8624 18.4902 59.4889C18.4902 64.1155 18.5576 65.0812 19.0068 67.3271C20.3768 74.0872 23.4087 80.5329 27.5636 85.631C29.1133 87.5176 32.7965 91.111 34.5483 92.4361C39.5117 96.2092 45.5756 98.9042 51.8641 100.184C54.11 100.634 55.0757 100.701 59.7022 100.701C64.3287 100.701 65.2945 100.634 67.5403 100.184C75.6705 98.5449 82.5653 94.929 88.4271 89.2694C94.6931 83.183 98.6459 75.9513 100.398 67.3271C100.847 65.0812 100.914 64.1155 100.914 59.4889C100.914 54.8624 100.847 53.8967 100.398 51.6508C98.6683 43.094 94.7156 35.8398 88.5169 29.8208C86.0464 27.4177 84.8337 26.4295 82.2284 24.7227C78.0511 21.9827 72.8182 19.8716 67.6526 18.816C65.6538 18.4117 64.3063 18.3219 60.376 18.277C57.7258 18.2321 55.2554 18.2545 54.8736 18.2994ZM57.9055 24.1163C57.9055 26.6541 58.1975 27.1482 59.7022 27.1482C61.207 27.1482 61.4989 26.6541 61.4989 24.0938V21.9378L63.2283 22.095C67.0013 22.4543 71.7402 23.712 75.3785 25.374L76.7934 26.0028L76.187 27.0808C75.8501 27.6648 75.4234 28.361 75.2662 28.608C75.109 28.8551 74.9742 29.4615 74.9742 29.978C74.9742 30.7416 75.0865 31.0336 75.5582 31.3929C76.2544 31.9544 77.1527 31.9993 77.8265 31.5277C78.096 31.348 78.6575 30.5395 79.1067 29.731C79.5558 28.9449 80.005 28.2487 80.0948 28.1813C80.4093 28.0016 84.2273 30.9887 86.2261 32.9651C88.2923 35.0537 91.212 38.7594 91.0098 39.0739C90.9425 39.1862 90.2462 39.6353 89.4602 40.0845C88.6517 40.5337 87.8431 41.0952 87.6635 41.3647C87.1918 42.0384 87.2368 42.9368 87.7982 43.633C88.4945 44.5314 89.7521 44.4415 91.5938 43.3186C93.3456 42.263 93.2333 42.1732 94.5134 45.4746C95.9283 49.0905 97.2085 54.5929 97.2085 57.0634V57.6922H95.0749C92.537 57.6922 92.0429 57.9842 92.0429 59.4889C92.0429 60.9937 92.537 61.2857 95.0749 61.2857H97.2085V61.892C97.2085 64.385 95.9283 69.8874 94.5134 73.5033C93.2333 76.8047 93.3456 76.7149 91.5938 75.6593C89.7521 74.5364 88.4945 74.4465 87.7982 75.3449C87.2368 76.0411 87.1918 76.9395 87.6635 77.6132C87.8431 77.8827 88.6517 78.4442 89.4602 78.8934C90.2462 79.3426 90.9425 79.7917 91.0098 79.8816C91.1895 80.196 88.2025 84.014 86.2261 86.0128C84.2273 87.9892 80.4093 90.9762 80.0948 90.7966C80.005 90.7292 79.5558 90.033 79.1067 89.2469C78.6575 88.4384 78.096 87.6299 77.8265 87.4502C77.1527 86.9786 76.2544 87.0235 75.5582 87.585C75.0865 87.9443 74.9742 88.2363 74.9742 88.9999C74.9742 89.5164 75.109 90.1228 75.2662 90.3699C75.4234 90.6169 75.8501 91.3131 76.187 91.8971L76.7934 92.9751L75.3785 93.6039C71.7402 95.2659 67.0013 96.5236 63.2283 96.8829L61.4989 97.0401V94.8841C61.4989 92.3238 61.207 91.8297 59.7022 91.8297C58.1975 91.8297 57.9055 92.3238 57.9055 94.8616V96.9952H57.2991C54.8062 96.9952 49.3038 95.7151 45.6879 94.3002C42.3864 93.02 42.4763 93.1323 43.5318 91.3805C44.6548 89.5389 44.7446 88.2812 43.8463 87.585C43.15 87.0235 42.2517 86.9786 41.5779 87.4502C41.3084 87.6299 40.7469 88.4384 40.2978 89.2469C39.8486 90.033 39.3994 90.7292 39.3096 90.7966C38.9952 90.9762 35.1772 87.9892 33.1783 86.0128C31.2019 84.014 28.2149 80.196 28.3946 79.8816C28.462 79.7917 29.1582 79.3426 29.9442 78.8934C30.7528 78.4442 31.5613 77.8827 31.741 77.6132C32.2126 76.9395 32.1677 76.0411 31.6062 75.3449C30.91 74.4465 29.6523 74.5364 27.8107 75.6593C26.0589 76.7149 26.1712 76.8047 24.891 73.5033C23.4761 69.8874 22.1959 64.385 22.1959 61.892V61.2857H24.3295C26.8674 61.2857 27.3615 60.9937 27.3615 59.4889C27.3615 57.9842 26.8674 57.6922 24.3295 57.6922H22.1959V57.0634C22.1959 54.5929 23.4761 49.0905 24.891 45.4746C26.1712 42.1732 26.0589 42.263 27.8107 43.3186C29.6523 44.4415 30.91 44.5314 31.6062 43.633C32.1677 42.9368 32.2126 42.0384 31.741 41.3647C31.5613 41.0952 30.7528 40.5337 29.9442 40.0845C29.1582 39.6353 28.462 39.1862 28.3946 39.0963C28.2149 38.7819 31.2019 34.9639 33.1783 32.9651C35.1772 30.9887 38.9952 28.0016 39.3096 28.1813C39.3994 28.2487 39.8486 28.9449 40.2978 29.731C40.7469 30.5395 41.3084 31.348 41.5779 31.5277C42.2517 31.9993 43.15 31.9544 43.8463 31.3929C44.7446 30.6967 44.6548 29.439 43.5318 27.5974C42.4763 25.8456 42.3864 25.9579 45.6879 24.6777C49.3487 23.2404 54.3345 22.0725 57.0745 22.0051L57.9055 21.9827V24.1163Z" fill="#291770"/>
<path d="M58.3554 38.3775C57.9287 38.8042 57.9062 39.1187 57.9062 49.562C57.9062 57.8044 57.9736 60.3872 58.1982 60.6567C58.5126 61.0609 72.6393 69.9322 73.4702 70.2466C74.5258 70.6509 75.7161 70.0445 75.9856 68.9889C76.3225 67.6414 75.9632 67.3494 68.5517 62.7229L61.4997 58.321V48.5738C61.4997 39.1187 61.4772 38.8042 61.0505 38.3775C60.7585 38.0855 60.3093 37.9283 59.703 37.9283C59.0966 37.9283 58.6474 38.0855 58.3554 38.3775Z" fill="#F0BB00"/>
</svg>
