<svg width="202" height="23" viewBox="0 0 202 23" fill="none" xmlns="http://www.w3.org/2000/svg">
<g clip-path="url(#clip0_380_2381)">
<path d="M0 0.219986C9.16667 0.193319 18.3333 0.213319 27.5 0.279986C29.79 0.299986 31.91 2.44999 32.28 4.82999C32.97 9.12999 32.62 13.6 27 13.66C20.1 13.7267 13.2 13.7533 6.3 13.74C5.94667 13.74 5.76667 13.9133 5.76 14.26L5.65 23H0V8.79999L26.49 8.82999C26.5294 8.82999 26.5684 8.82197 26.6048 8.80639C26.6412 8.79081 26.6743 8.76797 26.7021 8.73919C26.73 8.7104 26.7521 8.67623 26.7672 8.63862C26.7822 8.60101 26.79 8.5607 26.79 8.51999L26.8 5.48999C26.8 5.41042 26.7684 5.33411 26.7121 5.27785C26.6559 5.22159 26.5796 5.18999 26.5 5.18999L0 5.16999V0.219986Z" fill="#CAC1DE"/>
<path d="M61.76 23H55.71L50.99 14.45C50.9177 14.3169 50.8099 14.2057 50.6779 14.1283C50.5459 14.0508 50.3946 14.01 50.24 14.01H40.26C39.9066 14.01 39.6466 14.1633 39.48 14.47L34.93 23H28.85L36.73 9.27999C36.9033 8.97999 37.16 8.82999 37.5 8.82999L47.3 8.83999C47.7733 8.84666 47.9 8.63666 47.68 8.20999L46.41 5.75999C46.21 5.37999 45.8966 5.18999 45.47 5.18999L39.91 5.20999C39.2766 5.21666 39.1266 4.94999 39.46 4.40999L41.25 1.45999C41.61 0.866657 42.1333 0.499991 42.82 0.359991C44.39 0.0499905 48.04 -0.37001 49.18 1.52999C53.4266 8.60332 57.62 15.76 61.76 23Z" fill="#CAC1DE"/>
<path d="M92.5999 23H90.6199L69.6299 7.49001C69.5837 7.45707 69.5294 7.43743 69.4728 7.43324C69.4162 7.42905 69.3596 7.44047 69.309 7.46626C69.2585 7.49204 69.216 7.53121 69.1862 7.57948C69.1564 7.62775 69.1404 7.68328 69.1399 7.74001L69.0999 23H63.2899C63.2299 17.0533 63.1966 11.1 63.1899 5.14001C63.1899 3.22001 63.5733 1.87668 64.3399 1.11001C66.0299 -0.589987 68.7099 0.0400136 70.6099 1.44001C76.8633 6.06001 83.1199 10.7267 89.3799 15.44C89.4155 15.4655 89.4573 15.4809 89.5009 15.4844C89.5445 15.4878 89.5882 15.4793 89.6273 15.4598C89.6664 15.4402 89.6995 15.4103 89.7229 15.3734C89.7462 15.3364 89.7591 15.2937 89.7599 15.25V0.480013C89.7599 0.30668 89.8466 0.220013 90.0199 0.220013L95.2699 0.210013C95.4833 0.210013 95.5899 0.31668 95.5899 0.530013C95.5833 7.15001 95.5699 13.8067 95.5499 20.5C95.5499 21.8 94.5666 22.6333 92.5999 23Z" fill="#CAC1DE"/>
<path d="M117.07 23H111.62L111.37 5.83002C111.367 5.72838 111.326 5.63177 111.255 5.56079C111.184 5.48981 111.089 5.45006 110.99 5.45002L99.64 5.44002C98.4334 5.44002 97.9167 4.84002 98.09 3.64002L98.28 2.33002C98.3643 1.74097 98.6576 1.20215 99.1059 0.81265C99.5542 0.423151 100.127 0.20916 100.72 0.210025H127.02C128.8 0.210025 129.947 1.06336 130.46 2.77002L130.54 3.07002C131.02 4.65669 130.43 5.45002 128.77 5.45002L117.53 5.44002C117.411 5.44002 117.296 5.48744 117.212 5.57183C117.127 5.65622 117.08 5.77068 117.08 5.89002L117.07 23Z" fill="#CAC1DE"/>
<path d="M160.12 23H138.52C133.79 22.28 132.95 19.4 132.97 14.89C132.99 10.01 132.99 5.22336 132.97 0.530022C132.97 0.316689 133.077 0.210022 133.29 0.210022H138.52C138.733 0.210022 138.84 0.313355 138.84 0.520022V15.75C138.84 17.0234 139.477 17.66 140.75 17.66H157.96C158.388 17.6574 158.797 17.4855 159.099 17.182C159.401 16.8785 159.57 16.4679 159.57 16.04V0.700022C159.57 0.380022 159.73 0.220022 160.05 0.220022L164.97 0.210022C165.076 0.210022 165.178 0.251111 165.253 0.32425C165.328 0.39739 165.37 0.496588 165.37 0.600022C165.397 5.49336 165.387 10.5434 165.34 15.75C165.307 19.8834 163.567 22.3 160.12 23Z" fill="#CAC1DE"/>
<path d="M202 2.04999V23H196.28L196.2 6.56999C196.2 6.00999 196.057 5.96999 195.77 6.44999C192.87 11.4033 190.07 16.3833 187.37 21.39C186.95 22.17 186.29 22.7067 185.39 23H184.23C183.59 22.63 182.94 22.35 182.55 21.67C179.543 16.3767 176.56 11.05 173.6 5.68999C173.519 5.53917 173.398 5.4131 173.25 5.32508C173.102 5.23707 172.933 5.1904 172.76 5.18999L168.87 5.20999C167.957 5.20999 167.56 4.75999 167.68 3.85999L167.9 2.13999C168.067 0.853324 168.8 0.209991 170.1 0.209991L175.15 0.219991C175.562 0.220048 175.967 0.33043 176.322 0.539683C176.677 0.748935 176.97 1.04943 177.17 1.40999L184.48 14.53C184.519 14.5985 184.576 14.6555 184.645 14.6951C184.713 14.7346 184.791 14.7555 184.87 14.7555C184.949 14.7555 185.027 14.7346 185.095 14.6951C185.164 14.6555 185.221 14.5985 185.26 14.53L192.44 1.64999C192.601 1.36287 192.819 1.1124 193.081 0.914441C193.342 0.716486 193.642 0.575357 193.96 0.499991C197.76 -0.400009 200.44 0.116657 202 2.04999Z" fill="#CAC1DE"/>
<path d="M173.41 23H167.82L167.76 9.18001C167.76 8.90001 167.9 8.76001 168.18 8.76001L173.06 8.77001C173.34 8.77668 173.48 8.92001 173.48 9.20001L173.41 23Z" fill="#CAC1DE"/>
</g>
<defs>
<clipPath id="clip0_380_2381">
<rect width="202" height="23" fill="white"/>
</clipPath>
</defs>
</svg>
