<svg width="217" height="35" viewBox="0 0 217 35" fill="none" xmlns="http://www.w3.org/2000/svg">
<g clip-path="url(#clip0_380_2524)">
<path fill-rule="evenodd" clip-rule="evenodd" d="M39.3715 0.273924V22.4355H37.1402V0.273924H39.3715ZM208.871 35.0254H37.1453V25.3826H208.871V35.0254ZM43.0681 33.1638H42.4758V27.2442H45.4628V27.8275H43.0681V33.1587V33.1638ZM52.2281 27.2442H53.4177C54.0968 27.2442 54.5564 27.2746 54.7963 27.3355C55.1384 27.4167 55.4141 27.5891 55.6286 27.8478C55.843 28.1065 55.9503 28.4312 55.9503 28.8268C55.9503 29.2225 55.8481 29.5471 55.6337 29.8007C55.4244 30.0594 55.1333 30.2268 54.7606 30.3181C54.49 30.3841 53.9845 30.4145 53.2492 30.4145H52.8255V33.1638H52.2281V27.2442ZM52.8255 27.8174V29.8312L53.8364 29.8464C54.2449 29.8464 54.541 29.8109 54.73 29.7348C54.9189 29.6638 55.0669 29.542 55.1742 29.3797C55.2814 29.2123 55.3376 29.0297 55.3376 28.8268C55.3376 28.6239 55.2814 28.4464 55.1742 28.279C55.0669 28.1167 54.924 27.9949 54.7453 27.929C54.5666 27.858 54.2806 27.8225 53.8773 27.8225H52.8255V27.8174ZM62.6032 27.2594H63.2772L65.0796 31.2768L66.7288 27.2442H67.3772L65.1204 32.5602C64.9111 33.0623 64.5332 33.3109 63.9971 33.3109C63.7827 33.3109 63.5784 33.2703 63.3844 33.179C63.1955 33.0928 62.9504 32.8848 62.6543 32.5602L63.0883 32.2051C63.3895 32.4993 63.5887 32.6667 63.6857 32.7022C63.7878 32.7428 63.8848 32.7631 63.992 32.7631C64.1452 32.7631 64.2831 32.7225 64.4005 32.6362C64.5128 32.5551 64.6405 32.3471 64.7783 32.0123L62.6032 27.2544V27.2594ZM74.3212 27.2442H78.5489V33.1638H77.9515V27.8123H74.9237V33.1638H74.3263V27.2442H74.3212ZM85.9014 27.2442H90.129V33.1638H89.5316V27.8123H86.5039V33.1638H85.9065V27.2442H85.9014ZM99.9221 27.2442L102.7 33.1638H102.061L101.127 31.216H98.5639L97.6347 33.1638H96.9709L99.7843 27.2442H99.9272H99.9221ZM99.8506 28.4971L98.8244 30.6428H100.862L99.8455 28.4971H99.8506ZM114.224 27.2442H114.831V29.466L117.211 27.2442H118.017L115.153 29.9022L118.237 33.1638H117.446L114.831 30.4044V33.1638H114.224V27.2442ZM127.877 27.0971C128.781 27.0971 129.531 27.3964 130.139 27.9949C130.746 28.5935 131.048 29.329 131.048 30.2065C131.048 31.0841 130.746 31.8044 130.139 32.408C129.531 33.0116 128.796 33.3109 127.923 33.3109C127.05 33.3109 126.299 33.0116 125.686 32.408C125.079 31.8094 124.772 31.079 124.772 30.2268C124.772 29.6587 124.91 29.1312 125.186 28.6442C125.462 28.1573 125.84 27.7768 126.32 27.5029C126.799 27.229 127.315 27.092 127.872 27.092L127.877 27.0971ZM127.907 27.6754C127.468 27.6754 127.05 27.787 126.657 28.0203C126.263 28.2486 125.957 28.5529 125.732 28.9384C125.513 29.3239 125.4 29.7551 125.4 30.2319C125.4 30.9319 125.646 31.5254 126.136 32.0123C126.626 32.4942 127.218 32.7377 127.907 32.7377C128.367 32.7377 128.796 32.6261 129.189 32.4029C129.582 32.1797 129.889 31.8754 130.108 31.4899C130.328 31.1044 130.44 30.6732 130.44 30.2015C130.44 29.7297 130.328 29.3087 130.108 28.9283C129.889 28.5478 129.577 28.2486 129.179 28.0203C128.781 27.792 128.357 27.6754 127.907 27.6754ZM137.895 33.1587L138.742 27.2391H138.839L141.259 32.0935L143.659 27.2391H143.756L144.609 33.1587H144.022L143.44 28.9283L141.336 33.1587H141.188L139.054 28.8978L138.477 33.1587H137.9H137.895ZM151.696 27.2391H155.923V33.1587H155.326V27.8073H152.298V33.1587H151.701V27.2391H151.696ZM165.717 27.2391L168.494 33.1587H167.856L166.922 31.2109H164.353L163.424 33.1587H162.76L165.574 27.2391H165.717ZM165.645 28.492L164.619 30.6377H166.656L165.645 28.492ZM175.331 27.2391H175.928V29.7196H178.961V27.2391H179.559V33.1587H178.961V30.3029H175.928V33.1587H175.331V27.2391ZM191.598 33.1587H190.98V28.6239L187.059 33.1587H186.926V27.2391H187.524V31.8551L191.471 27.2391H191.603V33.1587H191.598ZM203.648 33.1587H203.03V28.6239L199.109 33.1587H198.976V27.2391H199.574V31.8551L203.52 27.2391H203.653V33.1587H203.648ZM199.875 25.8239H200.411C200.503 25.966 200.625 26.0674 200.779 26.1384C200.932 26.2094 201.116 26.2449 201.33 26.2449C201.544 26.2449 201.718 26.2145 201.851 26.1536C201.984 26.0928 202.106 25.9812 202.229 25.829H202.749C202.688 26.0725 202.54 26.2754 202.295 26.4326C202.05 26.5949 201.728 26.6761 201.33 26.6761C200.932 26.6761 200.61 26.5949 200.36 26.4377C200.11 26.2804 199.951 26.0775 199.88 25.829L199.875 25.8239ZM34.9651 35.0254H0V0.289141H34.9651V35.0254ZM30.4464 19.316C29.6192 25.7681 24.0487 30.6326 17.4876 30.6326C10.2884 30.6326 4.4268 24.8094 4.4268 17.6573C4.4268 10.5051 10.2884 4.68189 17.4876 4.68189C23.9262 4.68189 29.4865 9.45001 30.4157 15.7703L32.4887 15.466C31.4114 8.13117 24.9627 2.59711 17.4876 2.59711C9.12932 2.59711 2.32828 9.35363 2.32828 17.6573C2.32828 25.9609 9.12932 32.7174 17.4876 32.7174C25.1005 32.7174 31.5646 27.0717 32.5245 19.5797L30.4413 19.316H30.4464ZM22.9101 18.5145V16.4348H20.1478V11.1746C20.9392 11.4942 21.6694 11.966 22.2974 12.5544L23.7372 11.0377C22.6854 10.0536 21.4243 9.33334 20.0559 8.93769C19.0654 8.63334 18.0544 8.58769 18.0544 8.58769V26.7775C18.7948 26.7775 20.1529 26.3667 20.1529 26.3667V18.5145H22.9152H22.9101ZM24.5082 17.637C24.5082 19.2754 23.9262 20.8732 22.8692 22.1261L24.4776 23.4652C25.8511 21.837 26.6068 19.7674 26.6068 17.637C26.6068 15.9935 26.1574 14.3855 25.315 12.9804L23.5177 14.0507C24.1712 15.1312 24.5133 16.3739 24.5133 17.637H24.5082ZM14.5058 19.6761L11.2942 10.9667C11.2942 10.9667 10.1709 12.0725 9.6348 12.9804C8.78722 14.3855 8.33791 15.9783 8.33791 17.637C8.33791 19.808 9.12421 21.908 10.5488 23.5515L12.1367 22.192C11.0389 20.929 10.4364 19.3109 10.4364 17.637C10.4364 16.9268 10.5436 16.2268 10.753 15.5623L14.8632 26.4022C14.8632 26.4022 15.8027 26.7218 16.5992 26.7775V8.58769C16.5992 8.58769 15.1747 8.83117 14.5007 9.11523V19.6812L14.5058 19.6761ZM17.4723 5.53407C10.7581 5.53407 5.2948 10.9616 5.2948 17.6319C5.2948 24.3022 10.7581 29.7348 17.4723 29.7348C24.1866 29.7348 29.6499 24.3073 29.6499 17.6319C29.6499 10.9565 24.1866 5.53407 17.4723 5.53407ZM17.4723 27.65C11.912 27.65 7.39332 23.1558 7.39332 17.6319C7.39332 12.108 11.9171 7.61378 17.4723 7.61378C23.0275 7.61378 27.5564 12.108 27.5564 17.6319C27.5564 23.1558 23.0326 27.65 17.4723 27.65ZM209.775 3.9261C209.775 1.92247 211.409 0.289141 213.441 0.289141C215.473 0.289141 217.102 1.92247 217.102 3.9261C217.102 5.92972 215.458 7.56813 213.441 7.56813C211.424 7.56813 209.775 5.93479 209.775 3.9261ZM216.418 3.9261C216.418 2.29276 215.075 0.968851 213.441 0.968851C211.807 0.968851 210.459 2.30291 210.459 3.9261C210.459 5.54929 211.792 6.88842 213.441 6.88842C215.09 6.88842 216.418 5.57465 216.418 3.9261ZM212.216 1.93262H213.405C214.774 1.93262 214.937 2.81016 214.937 3.20581C214.937 3.83987 214.498 4.43334 213.834 4.46885L214.937 5.96016H214.003L212.987 4.46885H212.977V5.96016H212.216V1.93262ZM212.977 3.85001H213.426C214.064 3.85001 214.176 3.50001 214.176 3.25653C214.176 3.01305 214.064 2.65291 213.426 2.65291H212.977V3.85001ZM201.544 2.28262H196.449V0.273924H208.866V2.27755H203.771V22.4355H201.539V2.28262H201.544ZM178.803 0.278996H181.034V10.0384H192.701V0.273924H194.932V22.4355H192.701V12.0471H181.034V22.4406H178.803V0.273924V0.278996ZM164.353 0.278996H176.587V2.28262H166.579V10.2768H176.255V12.2804H166.579V20.4268H176.587V22.4355H164.353V0.273924V0.278996ZM160.8 20.4319H162.816V22.4406H139.728V20.4319H141.749L150.067 0.273924H152.477L160.794 20.4268L160.8 20.4319ZM158.39 20.4319L151.277 3.12465L144.165 20.4319H158.39ZM122.597 0.273924V19.2906L135.857 0.273924H138.206V22.4355H135.975V3.41885L122.715 22.4355H120.361V0.273924H122.592H122.597ZM105.896 20.4268C100.137 20.3964 95.9191 16.3536 95.9191 10.8449C95.9191 5.33624 100.137 1.29349 105.896 1.26305V-1.52173H108.127V1.26305C113.887 1.29349 118.104 5.33624 118.104 10.8449C118.104 16.3536 113.887 20.3964 108.127 20.4268V23.5413H105.896V20.4268ZM105.896 3.26668C101.102 3.23624 98.1504 6.68044 98.1504 10.8449C98.1504 15.0094 101.107 18.4486 105.896 18.4232V3.27175V3.26668ZM108.127 18.4232C112.922 18.4536 115.873 15.0094 115.873 10.8449C115.873 6.68044 112.917 3.23624 108.127 3.26668V18.4232ZM77.5481 0.273924H79.7794V10.0384H91.4464V0.273924H93.6776V22.4355H91.4464V12.0471H79.7794V22.4406H77.5481V0.273924ZM75.1382 11.2355C75.1382 17.8855 69.9557 22.8261 63.3232 22.8261C56.6906 22.8261 51.5081 18.0631 51.5081 11.4181C51.5081 4.7732 56.6906 -0.111584 63.3232 -0.111584C69.9557 -0.111584 75.1382 4.65146 75.1382 11.2355ZM72.9069 11.2355C72.9069 5.72682 68.715 1.89204 63.3538 1.89204C57.9926 1.89204 53.7394 5.90436 53.7394 11.4131C53.7394 16.9217 57.9875 20.8174 63.3538 20.8174C68.7201 20.8174 72.9069 16.7746 72.9069 11.2355ZM49.5015 0.273924H52.1515L43.5634 10.8449L52.514 22.4355H49.7415L40.9083 11.0884L49.5015 0.273924Z" fill="#CAC1DE"/>
</g>
<defs>
<clipPath id="clip0_380_2524">
<rect width="217" height="35" fill="white"/>
</clipPath>
</defs>
</svg>
