<svg width="142" height="116" viewBox="0 0 142 116" fill="none" xmlns="http://www.w3.org/2000/svg">
<path d="M77.6724 71.8636L77.7773 74.6186" stroke="#AEA5CC" stroke-width="2"/>
<path d="M72.0732 76.0122L69.0396 74.3849" stroke="#AEA5CC" stroke-width="2"/>
<path d="M86.3297 77.5347C85.3024 77.1051 84.3369 76.5976 83.4333 76.0122C82.5673 75.443 81.8465 75.4295 81.271 75.9719" stroke="#AEA5CC" stroke-width="2"/>
<path d="M84.3933 81.0228L87.1446 79.315" stroke="#AEA5CC" stroke-width="2"/>
<path d="M13.595 85.9367L16.4995 84.2128" stroke="#AEA5CC" stroke-width="2"/>
<path d="M16.4833 78.3161L13.6272 76.5842" stroke="#AEA5CC" stroke-width="2"/>
<path d="M99.2064 5.18775C99.16 5.16508 99.1224 5.1277 99.0994 5.08145C99.0765 5.0352 99.0696 4.98267 99.0797 4.93207C99.0899 4.88147 99.1165 4.83564 99.1555 4.80175C99.1944 4.76785 99.2436 4.74779 99.2951 4.74469L103.434 4.35803C103.757 4.3258 103.913 4.47349 103.902 4.80108L103.846 6.49275C103.84 6.62308 103.801 6.74981 103.733 6.86092C103.664 6.97202 103.568 7.06382 103.454 7.12758C103.34 7.19134 103.212 7.22495 103.081 7.22522C102.951 7.2255 102.822 7.19242 102.708 7.12914L99.2064 5.18775Z" fill="#7D73AB"/>
<path d="M109.219 5.20391L105.83 7.16947C105.774 7.20041 105.707 7.20903 105.645 7.19363L104.838 7.00836C104.782 6.99595 104.732 6.96552 104.696 6.9218C104.659 6.87809 104.638 6.82355 104.636 6.76669L104.564 4.58363C104.562 4.54698 104.569 4.51047 104.583 4.47653C104.597 4.4426 104.618 4.41203 104.645 4.38687C104.671 4.36171 104.703 4.34253 104.738 4.33062C104.773 4.31871 104.809 4.31434 104.846 4.3178L109.114 4.72863C109.167 4.735 109.217 4.75772 109.257 4.79364C109.296 4.82956 109.324 4.8769 109.335 4.92911C109.347 4.98132 109.342 5.03582 109.321 5.08505C109.3 5.13429 109.265 5.17582 109.219 5.20391Z" fill="#7D73AB"/>
<path d="M102.256 9.38474L98.4317 11.5195C98.2803 11.6031 98.1098 11.646 97.9368 11.6442C97.7638 11.6423 97.5942 11.5957 97.4446 11.5088C97.2951 11.422 97.1706 11.2979 97.0834 11.1487C96.9962 10.9995 96.9493 10.8303 96.9472 10.6575L96.8907 6.29141C96.8884 6.11497 96.9329 5.94107 97.0198 5.7874C97.1067 5.63373 97.2328 5.50578 97.3853 5.41656C97.5377 5.32734 97.7112 5.28005 97.8879 5.27949C98.0646 5.27892 98.2383 5.32511 98.3914 5.41335L102.264 7.64474C102.418 7.73244 102.546 7.85943 102.635 8.01271C102.723 8.16599 102.77 8.34006 102.769 8.5171C102.768 8.69413 102.72 8.86776 102.63 9.02022C102.54 9.17268 102.411 9.29848 102.256 9.38474Z" fill="#7D73AB"/>
<path d="M111.68 6.25914L111.648 10.6897C111.648 10.8643 111.602 11.0358 111.515 11.1873C111.428 11.3387 111.303 11.4647 111.152 11.5527C111 11.6407 110.829 11.6877 110.654 11.6889C110.479 11.6901 110.307 11.6456 110.155 11.5597L106.29 9.37664C106.137 9.28981 106.01 9.16424 105.921 9.01261C105.832 8.86098 105.785 8.68865 105.784 8.513C105.784 8.33735 105.829 8.16459 105.917 8.01214C106.004 7.85969 106.13 7.73295 106.282 7.6447L110.179 5.38914C110.332 5.30126 110.505 5.2551 110.681 5.25531C110.857 5.25553 111.03 5.30211 111.182 5.39037C111.334 5.47863 111.46 5.60543 111.548 5.75797C111.635 5.91051 111.681 6.08338 111.68 6.25914Z" fill="#AEA5CC"/>
<path d="M94.7367 11.6161L90.6703 9.34445C90.517 9.26014 90.3901 9.1349 90.3039 8.98272C90.2177 8.83055 90.1756 8.65745 90.1823 8.48276C90.189 8.30807 90.2443 8.13869 90.3418 7.99354C90.4394 7.84839 90.5755 7.7332 90.7349 7.66084L94.9707 5.71945C95.1175 5.65168 95.2793 5.62271 95.4405 5.63532C95.6018 5.64794 95.7571 5.7017 95.8915 5.79147C96.026 5.88123 96.1351 6.00398 96.2084 6.14795C96.2816 6.29191 96.3166 6.45226 96.31 6.61362L96.1406 10.8347C96.1335 10.9954 96.0854 11.1517 96.0008 11.2886C95.9162 11.4254 95.7979 11.5384 95.6571 11.6168C95.5164 11.6951 95.358 11.7361 95.1968 11.736C95.0357 11.7359 94.8773 11.6946 94.7367 11.6161Z" fill="#7D73AB"/>
<path d="M113.124 5.63085C114.826 6.18668 116.722 6.75057 118.037 8.0314C118.12 8.11199 118.183 8.2103 118.221 8.3187C118.26 8.4271 118.273 8.54268 118.26 8.65645C118.246 8.77021 118.207 8.87911 118.145 8.97469C118.082 9.07026 117.999 9.14993 117.9 9.20751L113.761 11.6483C113.622 11.7307 113.463 11.7748 113.301 11.7761C113.138 11.7773 112.979 11.7358 112.838 11.6557C112.697 11.5755 112.58 11.4596 112.498 11.3197C112.417 11.1798 112.374 11.0208 112.374 10.8589L112.398 6.15446C112.397 6.06777 112.417 5.98222 112.456 5.90484C112.496 5.82747 112.553 5.76048 112.624 5.70937C112.695 5.65826 112.777 5.62449 112.864 5.61084C112.951 5.59719 113.04 5.60405 113.124 5.63085Z" fill="#AEA5CC"/>
<path d="M82.9651 12.913L86.8943 9.81164C87.0013 9.72759 87.1301 9.67565 87.2656 9.66189C87.401 9.64812 87.5376 9.67309 87.6594 9.73389C87.7812 9.79469 87.8831 9.88881 87.9534 10.0053C88.0236 10.1217 88.0593 10.2557 88.0561 10.3916L87.9593 15.3861C87.9573 15.5074 87.9244 15.6262 87.8638 15.7314C87.8032 15.8366 87.7169 15.9247 87.6129 15.9875C87.5089 16.0503 87.3906 16.0857 87.2692 16.0904C87.1477 16.0951 87.0271 16.069 86.9185 16.0144L83.0861 14.1214C82.9773 14.0674 82.8839 13.9867 82.8148 13.8869C82.7457 13.787 82.7032 13.6713 82.6911 13.5506C82.679 13.4299 82.6978 13.308 82.7457 13.1965C82.7936 13.085 82.8691 12.9875 82.9651 12.913Z" fill="#AEA5CC"/>
<path d="M93.9379 13.9442L90.2589 15.9984C90.0953 16.0908 89.9105 16.139 89.7226 16.1384C89.5347 16.1378 89.3502 16.0883 89.1874 15.9947C89.0245 15.9012 88.8888 15.7669 88.7937 15.6051C88.6987 15.4433 88.6475 15.2596 88.6452 15.072L88.5887 10.8589C88.5859 10.6681 88.6339 10.48 88.7276 10.3137C88.8214 10.1474 88.9576 10.0088 89.1224 9.91223C89.2872 9.81562 89.4748 9.76436 89.6659 9.76368C89.857 9.763 90.0449 9.81292 90.2104 9.90836L93.946 12.0672C94.1117 12.1622 94.2492 12.2993 94.3446 12.4645C94.4399 12.6298 94.4897 12.8173 94.4889 13.0081C94.4881 13.1988 94.4367 13.3859 94.3399 13.5503C94.2431 13.7148 94.1044 13.8507 93.9379 13.9442Z" fill="#AEA5CC"/>
<path d="M102.49 16.0144L98.577 13.7992C98.4309 13.7172 98.3093 13.5979 98.2247 13.4535C98.1401 13.3091 98.0955 13.1448 98.0955 12.9775C98.0955 12.8102 98.1401 12.6459 98.2247 12.5015C98.3093 12.3571 98.4309 12.2378 98.577 12.1558L102.49 9.94055C102.634 9.8586 102.797 9.81585 102.962 9.8166C103.128 9.81735 103.29 9.86156 103.433 9.94481C103.576 10.0281 103.695 10.1474 103.777 10.2909C103.86 10.4344 103.903 10.5969 103.902 10.7622V15.1928C103.903 15.3581 103.86 15.5206 103.777 15.6641C103.695 15.8076 103.576 15.9269 103.433 16.0102C103.29 16.0934 103.128 16.1376 102.962 16.1384C102.797 16.1391 102.634 16.0964 102.49 16.0144Z" fill="#CAC1DE"/>
<path d="M106 9.91639L109.905 12.1639C110.047 12.247 110.165 12.3658 110.247 12.5085C110.329 12.6512 110.372 12.8129 110.372 12.9775C110.372 13.1421 110.329 13.3037 110.247 13.4465C110.165 13.5892 110.047 13.708 109.905 13.7911L106 16.0386C105.857 16.1202 105.694 16.163 105.53 16.1626C105.365 16.1622 105.203 16.1187 105.06 16.0364C104.917 15.9541 104.798 15.8359 104.716 15.6935C104.633 15.5512 104.589 15.3896 104.588 15.225V10.73C104.589 10.5654 104.633 10.4038 104.716 10.2615C104.798 10.1191 104.917 10.0009 105.06 9.91862C105.203 9.83632 105.365 9.79281 105.53 9.79242C105.694 9.79203 105.857 9.83477 106 9.91639Z" fill="#AEA5CC"/>
<path d="M117.973 16.0547L114.14 13.7911C114 13.7069 113.885 13.5877 113.805 13.4454C113.725 13.3031 113.683 13.1425 113.684 12.9793C113.685 12.816 113.728 12.6558 113.809 12.5143C113.891 12.3728 114.008 12.2548 114.149 12.172L117.989 9.91641C118.133 9.83244 118.297 9.78806 118.463 9.78778C118.63 9.7875 118.794 9.83134 118.938 9.91483C119.083 9.99832 119.202 10.1185 119.285 10.2631C119.368 10.4077 119.41 10.5716 119.409 10.7381L119.401 15.2411C119.402 15.4081 119.358 15.5724 119.274 15.717C119.191 15.8616 119.07 15.9814 118.925 16.0642C118.78 16.147 118.615 16.1897 118.448 16.1881C118.28 16.1864 118.116 16.1404 117.973 16.0547Z" fill="#AEA5CC"/>
<path d="M120.095 15.1041L119.974 10.7139C119.968 10.5278 120.014 10.3438 120.108 10.1829C120.202 10.022 120.339 9.8907 120.504 9.80411C120.669 9.71751 120.855 9.67908 121.041 9.69324C121.227 9.70739 121.405 9.77355 121.555 9.88414L125.113 12.478C125.249 12.5778 125.357 12.7103 125.427 12.8631C125.497 13.0159 125.527 13.184 125.514 13.3515C125.501 13.5191 125.446 13.6806 125.353 13.8209C125.26 13.9612 125.133 14.0757 124.984 14.1536L121.547 15.958C121.398 16.0361 121.231 16.0749 121.062 16.0707C120.894 16.0665 120.729 16.0194 120.583 15.934C120.438 15.8485 120.317 15.7274 120.232 15.5823C120.146 15.4371 120.099 15.2725 120.095 15.1041Z" fill="#7D73AB"/>
<path d="M82.8198 14.4517L86.6119 16.5703C86.7694 16.6591 86.9003 16.7883 86.9912 16.9444C87.082 17.1006 87.1295 17.2782 87.1287 17.4588C87.1278 17.6394 87.0788 17.8165 86.9865 17.9719C86.8942 18.1272 86.7621 18.2552 86.6038 18.3425L82.7956 20.437C82.6404 20.5227 82.4654 20.5664 82.2881 20.5637C82.1107 20.5611 81.9371 20.5121 81.7846 20.4217C81.632 20.3313 81.5058 20.2026 81.4185 20.0484C81.3312 19.8942 81.2858 19.7199 81.2869 19.5428L81.303 15.3378C81.3026 15.1602 81.3488 14.9856 81.4371 14.8314C81.5254 14.6773 81.6527 14.5489 81.8062 14.4593C81.9597 14.3696 82.1341 14.3217 82.312 14.3203C82.4899 14.319 82.665 14.3643 82.8198 14.4517Z" fill="#AEA5CC"/>
<path d="M95.7128 19.0675L94.438 19.7442C94.3039 19.8154 94.1543 19.8527 94.0023 19.8527C93.8504 19.8527 93.7008 19.8154 93.5666 19.7442L90.767 18.2539C90.6197 18.1757 90.4962 18.0593 90.4096 17.917C90.323 17.7746 90.2764 17.6116 90.2747 17.4451C90.2731 17.2785 90.3164 17.1146 90.4002 16.9706C90.484 16.8266 90.6051 16.7077 90.7509 16.6267L94.8576 14.355C94.9989 14.2782 95.1578 14.2393 95.3187 14.2423C95.4795 14.2454 95.6369 14.2901 95.7752 14.3721C95.9136 14.4542 96.0281 14.5708 96.1077 14.7104C96.1873 14.8501 96.2291 15.008 96.2291 15.1686L96.213 18.2539C96.2115 18.4221 96.1641 18.5867 96.076 18.73C95.9878 18.8733 95.8623 18.99 95.7128 19.0675Z" fill="#AEA5CC"/>
<path d="M99.1095 14.8142C100.045 15.3458 100.927 15.8479 101.756 16.3205C102.272 16.6105 102.245 16.8334 101.675 16.9892L97.3183 18.1975C97.0117 18.2834 96.8638 18.1679 96.8746 17.8511L96.9714 14.9108C96.9821 14.5403 97.1758 14.3389 97.5523 14.3067C97.9342 14.2798 98.4532 14.449 99.1095 14.8142Z" fill="#CAC1DE"/>
<path d="M106.444 16.5461C108.084 15.5365 109.356 14.8249 110.26 14.4114C110.663 14.2288 111.013 14.2207 111.309 14.3872C111.405 14.4416 111.485 14.5199 111.541 14.6145C111.598 14.7091 111.629 14.8168 111.631 14.9269L111.72 18.0283C111.722 18.0644 111.714 18.1002 111.699 18.133C111.684 18.1658 111.661 18.1946 111.632 18.2173C111.603 18.2399 111.569 18.2557 111.532 18.2634C111.496 18.2712 111.458 18.2707 111.422 18.2619L106.5 16.9408C106.172 16.8549 106.153 16.7233 106.444 16.5461Z" fill="#7D73AB"/>
<path d="M113.85 14.3792L117.69 16.5783C117.843 16.6651 117.969 16.7907 118.056 16.9424C118.143 17.094 118.188 17.2661 118.187 17.441C118.185 17.6158 118.137 17.7871 118.047 17.9371C117.957 18.087 117.828 18.2103 117.674 18.2942L115.044 19.7522C114.886 19.8402 114.707 19.8829 114.526 19.8758C114.345 19.8687 114.17 19.812 114.019 19.7119L112.833 18.9306C112.698 18.8418 112.587 18.7211 112.51 18.5792C112.432 18.4373 112.391 18.2785 112.39 18.1169L112.374 15.2331C112.373 15.0603 112.418 14.8905 112.504 14.7407C112.591 14.5909 112.715 14.4664 112.864 14.3799C113.014 14.2933 113.184 14.2476 113.357 14.2475C113.53 14.2474 113.7 14.2928 113.85 14.3792Z" fill="#AEA5CC"/>
<path d="M121.829 16.6025L125.686 14.3953C125.829 14.314 125.99 14.2712 126.154 14.2712C126.318 14.2713 126.48 14.3141 126.622 14.3954C126.765 14.4768 126.884 14.5938 126.967 14.7351C127.051 14.8763 127.096 15.0369 127.098 15.2008L127.146 19.6394C127.149 19.8066 127.107 19.9715 127.025 20.1173C126.943 20.263 126.824 20.3843 126.679 20.4688C126.535 20.5532 126.37 20.5978 126.203 20.5978C126.035 20.5979 125.871 20.5535 125.726 20.4691L121.829 18.2377C121.685 18.1552 121.565 18.0362 121.482 17.8926C121.399 17.749 121.355 17.586 121.355 17.4201C121.355 17.2542 121.399 17.0912 121.482 16.9476C121.565 16.8041 121.685 16.685 121.829 16.6025Z" fill="#AEA5CC"/>
<path d="M80.7384 19.0272C80.7599 19.5911 80.6039 20.0476 80.2705 20.3967C80.1599 20.5137 80.0134 20.5906 79.8542 20.6154C79.695 20.6402 79.5321 20.6114 79.391 20.5336L78.1405 19.8489C77.7747 19.6502 77.7128 19.3817 77.9549 19.0433L80.1978 15.8453C80.2257 15.808 80.2644 15.7797 80.3087 15.7644C80.353 15.7491 80.4006 15.7476 80.4449 15.76C80.4892 15.7724 80.5281 15.7981 80.5561 15.8336C80.5841 15.8691 80.5999 15.9126 80.6013 15.958C80.6497 16.9032 80.6954 17.9263 80.7384 19.0272Z" fill="#CAC1DE"/>
<path d="M128.51 16.1433L130.551 19.0594C130.605 19.1379 130.641 19.2271 130.658 19.3207C130.674 19.4144 130.669 19.5102 130.645 19.6016C130.62 19.6929 130.576 19.7775 130.515 19.8495C130.454 19.9214 130.379 19.979 130.293 20.0181C129.416 20.4155 128.773 20.5524 128.365 20.4289C128.042 20.3269 127.878 19.9294 127.872 19.2367C127.862 18.2861 127.851 17.3275 127.84 16.3608C127.829 15.566 128.053 15.4935 128.51 16.1433Z" fill="#7D73AB"/>
<path d="M88.3547 19.6475V24.0941C88.3544 24.2583 88.3113 24.4195 88.2294 24.5619C88.1476 24.7043 88.0299 24.8228 87.8881 24.9058C87.7463 24.9888 87.5852 25.0334 87.4208 25.0352C87.2564 25.0369 87.0944 24.9958 86.9508 24.9158L83.0619 22.7489C82.917 22.6678 82.796 22.5499 82.7112 22.4071C82.6265 22.2644 82.581 22.1018 82.5794 21.9359C82.5778 21.77 82.62 21.6066 82.7019 21.4622C82.7838 21.3178 82.9025 21.1975 83.0458 21.1136L86.9347 18.8339C87.0781 18.7503 87.2411 18.7059 87.4071 18.7053C87.5732 18.7046 87.7365 18.7478 87.8805 18.8303C88.0246 18.9128 88.1443 19.0318 88.2275 19.1753C88.3108 19.3188 88.3546 19.4817 88.3547 19.6475Z" fill="#AEA5CC"/>
<path d="M89.3794 24.2392C89.3523 24.2663 89.3177 24.2848 89.2801 24.2923C89.2425 24.2998 89.2035 24.2959 89.1681 24.2813C89.1326 24.2666 89.1023 24.2417 89.0811 24.2099C89.0598 24.178 89.0485 24.1405 89.0486 24.1022L89.0566 19.4864C89.0556 19.3504 89.0898 19.2165 89.1559 19.0975C89.2219 18.9785 89.3177 18.8783 89.4341 18.8065C89.5505 18.7347 89.6837 18.6936 89.821 18.6871C89.9582 18.6806 90.0951 18.7089 90.2185 18.7694L92.8971 20.0986C92.9442 20.1233 92.985 20.1585 93.0162 20.2013C93.0475 20.2442 93.0682 20.2935 93.0769 20.3452C93.0855 20.397 93.0818 20.4498 93.066 20.4993C93.0502 20.5488 93.0227 20.5937 92.9859 20.6303L89.3794 24.2392Z" fill="#AEA5CC"/>
<path d="M115.827 20.0503C116.607 19.6153 117.295 19.2394 117.892 18.9225C118.296 18.7131 118.796 18.7453 119.127 18.9709C119.31 19.0944 119.401 19.2689 119.401 19.4945L119.425 24.3761C119.427 24.3937 119.423 24.4115 119.414 24.4266C119.405 24.4418 119.391 24.4535 119.374 24.4599C119.358 24.4663 119.34 24.4671 119.323 24.4622C119.306 24.4572 119.291 24.4468 119.28 24.4325L115.73 20.7028C115.483 20.445 115.515 20.2275 115.827 20.0503Z" fill="#AEA5CC"/>
<path d="M125.388 22.7811L121.692 24.8836C121.538 24.9715 121.364 25.018 121.187 25.0185C121.01 25.0191 120.835 24.9738 120.681 24.8869C120.526 24.8 120.397 24.6747 120.306 24.523C120.214 24.3713 120.164 24.1986 120.159 24.0216L120.046 19.7764C120.042 19.5958 120.085 19.4173 120.172 19.2589C120.259 19.1005 120.387 18.968 120.542 18.8747C120.696 18.7814 120.873 18.7307 121.054 18.7278C121.235 18.7249 121.414 18.7698 121.571 18.858L125.38 21.0008C125.538 21.0893 125.669 21.2181 125.761 21.3741C125.853 21.5301 125.902 21.7076 125.903 21.8886C125.904 22.0696 125.857 22.2476 125.766 22.4044C125.676 22.5612 125.545 22.6912 125.388 22.7811Z" fill="#7D73AB"/>
<path d="M75.8408 24.5453C75.7864 24.5757 75.7237 24.5883 75.6617 24.5813C75.5996 24.5742 75.5414 24.548 75.4951 24.5062C75.4488 24.4644 75.4168 24.4092 75.4035 24.3483C75.3903 24.2874 75.3965 24.2239 75.4213 24.1667L77.0027 20.735C77.1425 20.4343 77.3765 20.3269 77.7046 20.4128C78.4146 20.6008 78.9605 21.0009 79.3424 21.6131C79.3909 21.6901 79.4236 21.7759 79.4385 21.8657C79.4533 21.9554 79.4502 22.0472 79.4291 22.1357C79.4081 22.2241 79.3696 22.3076 79.316 22.381C79.2623 22.4545 79.1945 22.5166 79.1165 22.5636L75.8408 24.5453Z" fill="#CAC1DE"/>
<path d="M131.544 20.7833L133.27 24.2311C133.298 24.2886 133.307 24.3535 133.295 24.4162C133.283 24.4789 133.251 24.5361 133.204 24.5794C133.157 24.6227 133.097 24.6498 133.034 24.6567C132.97 24.6636 132.906 24.65 132.851 24.6178L129.252 22.4831C129.18 22.44 129.118 22.3821 129.071 22.3133C129.023 22.2445 128.991 22.1665 128.976 22.0846C128.962 22.0026 128.965 21.9188 128.986 21.8388C129.008 21.7588 129.046 21.6845 129.099 21.6211C129.54 21.0894 130.078 20.7028 130.713 20.4611C130.866 20.4017 131.037 20.4019 131.191 20.4615C131.344 20.5211 131.47 20.6359 131.544 20.7833Z" fill="#CAC1DE"/>
<path d="M79.157 29.4994L75.3489 27.1794C75.2107 27.0947 75.0967 26.9759 75.0179 26.8344C74.9391 26.6929 74.8981 26.5335 74.8989 26.3716C74.8997 26.2097 74.9423 26.0508 75.0225 25.9101C75.1027 25.7694 75.2179 25.6517 75.3569 25.5683L79.1732 23.2725C79.3169 23.1848 79.4816 23.1371 79.6501 23.1343C79.8186 23.1316 79.9847 23.174 80.1312 23.257C80.2778 23.34 80.3994 23.4607 80.4835 23.6065C80.5675 23.7523 80.611 23.9179 80.6093 24.0861L80.5932 28.6939C80.5934 28.8614 80.5489 29.026 80.4642 29.1706C80.3796 29.3153 80.2578 29.4348 80.1115 29.5169C79.9653 29.5989 79.7997 29.6406 79.6319 29.6375C79.4641 29.6344 79.3002 29.5868 79.157 29.4994Z" fill="#7D73AB"/>
<path d="M82.7795 23.2886L86.5554 25.5039C86.7046 25.5918 86.8284 25.7168 86.9146 25.8668C87.0009 26.0168 87.0467 26.1866 87.0475 26.3595C87.0483 26.5325 87.0041 26.7027 86.9193 26.8535C86.8344 27.0042 86.7118 27.1304 86.5635 27.2197L82.8198 29.4914C82.6688 29.5823 82.4963 29.6317 82.32 29.6346C82.1436 29.6375 81.9696 29.5938 81.8156 29.5079C81.6616 29.4221 81.5331 29.2971 81.4431 29.1456C81.353 28.9942 81.3047 28.8217 81.303 28.6456L81.2708 24.1506C81.2705 23.9743 81.3169 23.8011 81.4054 23.6485C81.4938 23.496 81.6211 23.3695 81.7743 23.282C81.9276 23.1944 82.1013 23.1489 82.2778 23.1501C82.4544 23.1513 82.6274 23.1991 82.7795 23.2886Z" fill="#AEA5CC"/>
<path d="M125.743 29.4833L121.838 27.2036C121.694 27.12 121.574 27.0001 121.491 26.8559C121.408 26.7117 121.364 26.5483 121.364 26.3819C121.364 26.2156 121.408 26.0522 121.491 25.908C121.574 25.7638 121.694 25.6439 121.838 25.5603L125.743 23.2805C125.887 23.1972 126.051 23.1533 126.218 23.1532C126.385 23.1531 126.549 23.1969 126.694 23.2802C126.839 23.3634 126.959 23.4832 127.043 23.6275C127.126 23.7718 127.17 23.9355 127.171 24.1022V28.6617C127.17 28.8284 127.126 28.9921 127.043 29.1364C126.959 29.2807 126.839 29.4005 126.694 29.4837C126.549 29.567 126.385 29.6107 126.218 29.6107C126.051 29.6106 125.887 29.5667 125.743 29.4833Z" fill="#7D73AB"/>
<path d="M127.776 28.6778L127.76 24.1425C127.759 23.9742 127.802 23.8086 127.886 23.6623C127.969 23.5161 128.09 23.3944 128.236 23.3095C128.381 23.2246 128.546 23.1794 128.715 23.1786C128.884 23.1778 129.05 23.2213 129.196 23.3047L133.157 25.528C133.304 25.6108 133.426 25.7306 133.512 25.8754C133.597 26.0203 133.643 26.185 133.645 26.3531C133.646 26.5212 133.604 26.6868 133.521 26.8333C133.438 26.9797 133.318 27.1019 133.174 27.1875L129.22 29.5075C129.074 29.5926 128.908 29.6377 128.739 29.6383C128.57 29.6388 128.404 29.5947 128.257 29.5105C128.111 29.4263 127.989 29.305 127.904 29.1587C127.82 29.0125 127.776 28.8466 127.776 28.6778Z" fill="#AEA5CC"/>
<path d="M79.278 31.2636C78.6648 31.9805 75.8893 33.6561 74.9857 33.8897C73.8239 34.1851 73.3344 33.742 73.5173 32.5605L74.2354 27.993C74.2461 27.9263 74.2728 27.8631 74.3133 27.8089C74.3538 27.7547 74.4069 27.7111 74.4679 27.6818C74.5289 27.6525 74.5962 27.6384 74.6639 27.6407C74.7316 27.643 74.7977 27.6616 74.8566 27.695L79.0924 30.1761C79.1837 30.2288 79.2623 30.301 79.3225 30.3874C79.3827 30.4739 79.4231 30.5725 79.4409 30.6763C79.4586 30.7802 79.4532 30.8866 79.425 30.9881C79.3969 31.0896 79.3467 31.1837 79.278 31.2636Z" fill="#AEA5CC"/>
<path d="M82.7393 30.2647L86.8379 27.8722C87.209 27.6574 87.3381 27.7568 87.2252 28.1703L85.8859 32.9875C85.875 33.0282 85.8546 33.0656 85.8264 33.097C85.7981 33.1284 85.7627 33.1528 85.7229 33.1684C85.6831 33.184 85.64 33.1903 85.5969 33.1869C85.5538 33.1834 85.5119 33.1704 85.4744 33.1486L82.7231 31.4731C82.6195 31.4102 82.5342 31.3215 82.4757 31.2155C82.4171 31.1095 82.3871 30.9899 82.3887 30.8683C82.3904 30.7466 82.4235 30.6271 82.4849 30.5213C82.5463 30.4156 82.634 30.3272 82.7393 30.2647Z" fill="#AEA5CC"/>
<path d="M133.754 34.0589L129.414 31.6422C129.28 31.57 129.169 31.4633 129.091 31.3333C129.013 31.2034 128.972 31.055 128.971 30.9035C128.97 30.7521 129.01 30.6032 129.086 30.4724C129.163 30.3416 129.273 30.2337 129.406 30.16L133.762 27.7031C133.828 27.6671 133.901 27.6475 133.975 27.646C134.05 27.6445 134.124 27.6611 134.19 27.6943C134.257 27.7276 134.315 27.7766 134.358 27.8371C134.402 27.8976 134.43 27.9677 134.44 28.0414L135.094 33.1486C135.114 33.3144 135.088 33.4826 135.019 33.6347C134.95 33.7868 134.84 33.917 134.702 34.011C134.563 34.105 134.402 34.1592 134.235 34.1676C134.068 34.1761 133.901 34.1385 133.754 34.0589Z" fill="#7D73AB"/>
<path d="M123.104 33.06C122.846 33.2104 122.677 33.1406 122.596 32.8506L121.353 28.3556C121.203 27.8132 121.372 27.6843 121.862 27.9689L125.509 30.1036C125.644 30.1822 125.757 30.295 125.835 30.4308C125.913 30.5665 125.955 30.7203 125.955 30.877C125.955 31.0336 125.913 31.1874 125.835 31.3231C125.757 31.4589 125.644 31.5717 125.509 31.6503L123.104 33.06Z" fill="#AEA5CC"/>
<path d="M79.2537 38.3525L75.2922 36.0406C75.1565 35.9619 75.0439 35.8491 74.9657 35.7134C74.8874 35.5777 74.8462 35.4238 74.8462 35.2672C74.8462 35.1106 74.8874 34.9568 74.9657 34.821C75.0439 34.6853 75.1565 34.5725 75.2922 34.4939L79.2537 32.182C79.3898 32.1025 79.5446 32.0604 79.7023 32.0598C79.86 32.0593 80.0151 32.1003 80.1518 32.1788C80.2885 32.2573 80.4021 32.3704 80.481 32.5067C80.5599 32.6431 80.6013 32.7978 80.601 32.9553V37.5792C80.6013 37.7366 80.5599 37.8914 80.481 38.0277C80.4021 38.1641 80.2885 38.2772 80.1518 38.3557C80.0151 38.4342 79.86 38.4752 79.7023 38.4746C79.5446 38.4741 79.3898 38.4319 79.2537 38.3525Z" fill="#AEA5CC"/>
<path d="M85.321 33.64C85.4071 33.6346 85.4904 33.6319 85.5711 33.6319C85.604 33.6308 85.6367 33.636 85.6675 33.6471C85.6983 33.6583 85.7265 33.6752 85.7505 33.6969C85.7744 33.7186 85.7937 33.7447 85.8073 33.7736C85.8208 33.8025 85.8283 33.8338 85.8293 33.8656L85.9342 36.0244C85.9449 36.3198 85.8239 36.54 85.5711 36.685L82.5536 38.4008C82.4223 38.4756 82.2736 38.5146 82.1224 38.514C81.9712 38.5134 81.8229 38.4731 81.6922 38.3973C81.5615 38.3214 81.453 38.2126 81.3776 38.0818C81.3023 37.9509 81.2626 37.8026 81.2627 37.6517L81.295 32.6492C81.296 32.5335 81.327 32.42 81.3851 32.3199C81.4432 32.2198 81.5263 32.1364 81.6263 32.078C81.7263 32.0195 81.8398 31.988 81.9557 31.9864C82.0715 31.9849 82.1858 32.0134 82.2874 32.0692L85.0386 33.5756C85.123 33.623 85.221 33.6454 85.321 33.64Z" fill="#AEA5CC"/>
<path d="M122.588 36.0164L122.636 34.4214C122.641 34.2674 122.687 34.1174 122.769 33.9871C122.851 33.8567 122.967 33.7508 123.104 33.6803L125.856 32.2545C125.986 32.1874 126.131 32.1546 126.278 32.1591C126.424 32.1636 126.567 32.2053 126.693 32.2803C126.819 32.3552 126.924 32.461 126.998 32.5875C127.071 32.7141 127.111 32.8573 127.114 33.0036L127.203 37.6597C127.206 37.8121 127.168 37.9624 127.094 38.0955C127.02 38.2286 126.912 38.3397 126.781 38.4175C126.649 38.4953 126.5 38.5369 126.347 38.5383C126.195 38.5396 126.045 38.5005 125.912 38.425L123.024 36.7978C122.886 36.7198 122.773 36.6057 122.696 36.4679C122.62 36.3302 122.582 36.174 122.588 36.0164Z" fill="#CAC1DE"/>
<path d="M129.212 32.2303L133.157 34.4536C133.305 34.5369 133.427 34.6578 133.512 34.8041C133.597 34.9504 133.642 35.1166 133.641 35.2857C133.64 35.4548 133.594 35.6206 133.508 35.7661C133.421 35.9115 133.298 36.0313 133.149 36.1131L129.188 38.3123C129.043 38.392 128.88 38.4327 128.715 38.4304C128.549 38.4281 128.387 38.3829 128.245 38.2991C128.103 38.2154 127.984 38.0961 127.902 37.9529C127.82 37.8097 127.776 37.6476 127.776 37.4825L127.792 33.052C127.793 32.8864 127.837 32.724 127.921 32.5808C128.004 32.4377 128.123 32.3187 128.267 32.2357C128.41 32.1527 128.573 32.1085 128.739 32.1076C128.904 32.1066 129.068 32.1489 129.212 32.2303Z" fill="#AEA5CC"/>
<path d="M74.0982 41.8164L73.5576 37.4503C73.535 37.2656 73.565 37.0783 73.644 36.9098C73.7231 36.7413 73.8481 36.5985 74.0047 36.4976C74.1613 36.3967 74.3431 36.3419 74.5295 36.3394C74.7158 36.337 74.8991 36.3869 75.0583 36.4836L78.8181 38.7714C78.9628 38.8582 79.0829 38.9805 79.1671 39.1266C79.2513 39.2727 79.2968 39.4379 79.2992 39.6065C79.3016 39.775 79.261 39.9414 79.181 40.0899C79.101 40.2384 78.9844 40.364 78.8423 40.455L75.615 42.5253C75.4741 42.6147 75.3128 42.6673 75.1462 42.678C74.9796 42.6887 74.8129 42.6573 74.6616 42.5866C74.5104 42.5159 74.3795 42.4083 74.281 42.2736C74.1825 42.139 74.1196 41.9817 74.0982 41.8164Z" fill="#AEA5CC"/>
<path d="M129.728 38.7311L133.504 36.4916C133.664 36.3982 133.846 36.3509 134.031 36.3548C134.216 36.3588 134.397 36.414 134.552 36.5141C134.708 36.6143 134.832 36.7556 134.912 36.9223C134.992 37.089 135.024 37.2745 135.005 37.4583L134.545 41.8244C134.527 41.9946 134.466 42.1573 134.367 42.297C134.268 42.4367 134.135 42.5487 133.98 42.6222C133.826 42.6958 133.655 42.7285 133.484 42.7172C133.313 42.7058 133.148 42.6508 133.004 42.5575L129.696 40.4308C129.553 40.3386 129.435 40.2113 129.355 40.061C129.274 39.9106 129.234 39.7423 129.237 39.572C129.24 39.4016 129.287 39.2349 129.373 39.0878C129.459 38.9406 129.581 38.8178 129.728 38.7311Z" fill="#CAC1DE"/>
<path d="M85.4825 37.4019C85.6815 37.2838 85.8133 37.3375 85.8778 37.563L87.1607 42.1466C87.3167 42.7159 87.1392 42.8529 86.6282 42.5575L82.8926 40.4066C82.7672 40.333 82.6628 40.2283 82.5897 40.1027C82.5166 39.9771 82.4773 39.835 82.4756 39.6903C82.474 39.5457 82.5101 39.4035 82.5804 39.2777C82.6507 39.1519 82.7527 39.0468 82.8765 38.9728L85.4825 37.4019Z" fill="#AEA5CC"/>
<path d="M125.581 40.3906L121.644 42.7106C121.583 42.7471 121.512 42.763 121.441 42.7559C121.37 42.7488 121.303 42.7191 121.251 42.6711C121.198 42.6231 121.162 42.5595 121.149 42.4897C121.136 42.4199 121.145 42.3476 121.176 42.2836C121.87 40.8068 122.297 39.2547 122.459 37.6275C122.464 37.5786 122.482 37.5318 122.51 37.4913C122.538 37.4509 122.576 37.418 122.62 37.3957C122.664 37.3733 122.713 37.3622 122.762 37.3633C122.811 37.3644 122.86 37.3777 122.903 37.4019L125.573 38.9325C125.701 39.0065 125.807 39.1125 125.881 39.2399C125.955 39.3674 125.994 39.5119 125.995 39.6592C125.996 39.8065 125.958 39.9515 125.885 40.0798C125.813 40.208 125.708 40.3152 125.581 40.3906Z" fill="#AEA5CC"/>
<path d="M79.2457 47.2217L75.3003 44.8936C75.167 44.8138 75.0567 44.7006 74.9804 44.5654C74.9041 44.4301 74.8644 44.2773 74.8652 44.122C74.8661 43.9667 74.9074 43.8144 74.9851 43.6799C75.0628 43.5454 75.1742 43.4334 75.3084 43.355L79.2537 41.043C79.3901 40.9616 79.5457 40.9178 79.7046 40.9162C79.8635 40.9146 80.02 40.9552 80.158 41.034C80.296 41.1127 80.4105 41.2266 80.4898 41.3641C80.5691 41.5016 80.6103 41.6577 80.6092 41.8164L80.5931 46.4483C80.5933 46.6058 80.5519 46.7605 80.473 46.8969C80.3941 47.0332 80.2806 47.1464 80.1438 47.2248C80.0071 47.3033 79.852 47.3443 79.6943 47.3438C79.5366 47.3432 79.3818 47.3011 79.2457 47.2217Z" fill="#7D73AB"/>
<path d="M82.8279 41.0591L86.5312 43.2261C86.687 43.3159 86.8164 43.445 86.9064 43.6006C86.9964 43.7561 87.0437 43.9326 87.0437 44.1122C87.0437 44.2918 86.9964 44.4683 86.9064 44.6238C86.8164 44.7794 86.687 44.9085 86.5312 44.9983L82.8279 47.1653C82.672 47.2561 82.4949 47.3041 82.3144 47.3046C82.1339 47.3052 81.9565 47.2581 81.8001 47.1681C81.6438 47.0782 81.5139 46.9486 81.4238 46.7925C81.3337 46.6364 81.2864 46.4593 81.2869 46.2791V41.9453C81.2864 41.7651 81.3337 41.588 81.4238 41.4319C81.5139 41.2757 81.6438 41.1462 81.8001 41.0562C81.9565 40.9663 82.1339 40.9192 82.3144 40.9197C82.4949 40.9203 82.672 40.9683 82.8279 41.0591Z" fill="#AEA5CC"/>
<path d="M127.187 41.8808L127.171 46.3436C127.17 46.5082 127.126 46.6698 127.043 46.8121C126.96 46.9545 126.841 47.0727 126.699 47.155C126.556 47.2373 126.394 47.2808 126.229 47.2812C126.064 47.2816 125.902 47.2388 125.759 47.1572L121.878 44.958C121.733 44.8762 121.613 44.7577 121.529 44.6146C121.445 44.4714 121.4 44.3087 121.399 44.1427C121.399 43.9768 121.442 43.8136 121.524 43.6696C121.607 43.5256 121.726 43.406 121.87 43.3228L125.775 41.0591C125.919 40.9772 126.081 40.9344 126.247 40.9352C126.413 40.9359 126.575 40.9802 126.718 41.0634C126.861 41.1466 126.98 41.266 127.062 41.4095C127.144 41.5529 127.187 41.7155 127.187 41.8808Z" fill="#7D73AB"/>
<path d="M133.246 44.9419L129.204 47.1814C129.065 47.2587 128.908 47.2983 128.749 47.2964C128.59 47.2945 128.434 47.2511 128.297 47.1704C128.16 47.0898 128.047 46.9748 127.968 46.8368C127.889 46.6988 127.848 46.5427 127.848 46.3839L127.832 41.768C127.832 41.6076 127.874 41.4498 127.954 41.3107C128.034 41.1716 128.149 41.0561 128.289 40.976C128.428 40.8958 128.586 40.8538 128.747 40.8543C128.907 40.8548 129.065 40.8977 129.204 40.9786L133.262 43.3631C133.4 43.4442 133.515 43.5604 133.594 43.6998C133.673 43.8392 133.714 43.997 133.712 44.1572C133.71 44.3173 133.666 44.4742 133.585 44.612C133.503 44.7498 133.386 44.8636 133.246 44.9419Z" fill="#AEA5CC"/>
<path d="M88.3546 46.3758L88.3466 50.9191C88.3465 51.0876 88.3017 51.253 88.2166 51.3984C88.1315 51.5439 88.0093 51.6642 87.8624 51.7469C87.7154 51.8297 87.5491 51.872 87.3804 51.8695C87.2118 51.867 87.0468 51.8198 86.9023 51.7328L83.0054 49.3886C82.8626 49.3029 82.7448 49.1812 82.6639 49.0358C82.5829 48.8904 82.5416 48.7263 82.544 48.56C82.5465 48.3936 82.5926 48.2308 82.6778 48.0879C82.7631 47.9449 82.8844 47.8268 83.0296 47.7453L86.9346 45.5461C87.0796 45.4644 87.2435 45.4221 87.41 45.4234C87.5765 45.4247 87.7397 45.4695 87.8834 45.5535C88.0271 45.6375 88.1463 45.7576 88.2289 45.9019C88.3116 46.0462 88.355 46.2096 88.3546 46.3758Z" fill="#AEA5CC"/>
<path d="M125.436 49.4772L121.676 51.7086C121.52 51.8008 121.341 51.8501 121.159 51.8514C120.978 51.8527 120.799 51.8061 120.64 51.7162C120.482 51.6262 120.351 51.4962 120.259 51.3393C120.168 51.1824 120.12 51.0041 120.119 50.8225L120.127 46.4564C120.127 46.2753 120.175 46.0973 120.265 45.9404C120.356 45.7835 120.486 45.6532 120.643 45.5625C120.8 45.4719 120.978 45.4241 121.16 45.4241C121.341 45.424 121.519 45.4717 121.676 45.5622L125.42 47.6969C125.576 47.7864 125.707 47.9152 125.798 48.0706C125.889 48.2259 125.938 48.4024 125.94 48.5825C125.941 48.7625 125.896 48.9398 125.807 49.0968C125.719 49.2538 125.591 49.3849 125.436 49.4772Z" fill="#7D73AB"/>
<path d="M75.8247 45.9489L79.0358 47.8258C79.154 47.894 79.2545 47.9888 79.3293 48.1029C79.4041 48.217 79.4512 48.3472 79.4669 48.4832C79.4826 48.6192 79.4663 48.7572 79.4195 48.8864C79.3727 49.0156 79.2966 49.1324 79.1972 49.2275C78.7669 49.6356 78.272 49.9283 77.7126 50.1055C77.3845 50.2076 77.1478 50.1002 77.0026 49.7833L75.4213 46.3114C75.1738 45.769 75.3083 45.6481 75.8247 45.9489Z" fill="#AEA5CC"/>
<path d="M117.925 51.6764C117.118 51.3757 116.397 50.9487 115.762 50.3956C115.547 50.2076 115.536 50.0062 115.73 49.7914L119.191 46.0536C119.211 46.0345 119.235 46.0215 119.262 46.0163C119.288 46.011 119.316 46.0137 119.341 46.0241C119.366 46.0344 119.387 46.0519 119.402 46.0744C119.417 46.0968 119.425 46.1232 119.425 46.1503L119.409 51.0561C119.409 51.3569 119.28 51.5851 119.022 51.7408C118.791 51.8858 118.425 51.8644 117.925 51.6764Z" fill="#AEA5CC"/>
<path d="M133.141 46.4886L131.503 49.7914C131.277 50.2425 130.952 50.3311 130.527 50.0572L129.196 49.2034C129.093 49.1389 129.009 49.0492 128.952 48.9429C128.895 48.8365 128.866 48.7172 128.868 48.5964C128.871 48.4756 128.904 48.3575 128.966 48.2536C129.028 48.1496 129.115 48.0633 129.22 48.0031L132.633 46.0134C133.332 45.5998 133.501 45.7583 133.141 46.4886Z" fill="#CAC1DE"/>
<path d="M92.9778 50.3794L90.3798 51.7489C90.2434 51.8211 90.0906 51.8569 89.9362 51.8527C89.7819 51.8486 89.6312 51.8047 89.4988 51.7252C89.3665 51.6458 89.257 51.5335 89.1809 51.3993C89.1048 51.2652 89.0648 51.1136 89.0647 50.9594L89.0405 46.7061C89.0405 46.1476 89.2368 46.067 89.6295 46.4644L93.0504 49.9042C93.0836 49.9372 93.1086 49.9776 93.1232 50.0221C93.1379 50.0666 93.1418 50.1139 93.1347 50.1602C93.1277 50.2065 93.1098 50.2504 93.0825 50.2885C93.0552 50.3266 93.0194 50.3578 92.9778 50.3794Z" fill="#AEA5CC"/>
<path d="M77.8579 50.7822L79.6329 49.9444C79.7299 49.8974 79.8371 49.8758 79.9448 49.8814C80.0525 49.887 80.1572 49.9197 80.2495 49.9766C80.3417 50.0334 80.4185 50.1126 80.4729 50.2069C80.5272 50.3012 80.5574 50.4076 80.5607 50.5164L80.6333 54.5361C80.6441 55.0141 80.5096 55.057 80.2299 54.665L77.753 51.185C77.6293 51.0078 77.6643 50.8735 77.8579 50.7822Z" fill="#AEA5CC"/>
<path d="M81.3353 55.3095L81.2869 50.9031C81.285 50.727 81.33 50.5536 81.4175 50.4008C81.5049 50.2479 81.6316 50.121 81.7844 50.0332C81.9372 49.9454 82.1108 49.8999 82.2871 49.9013C82.4634 49.9027 82.6362 49.9509 82.7876 50.0411L86.5877 52.2967C86.7377 52.3851 86.8617 52.5113 86.9474 52.6627C87.033 52.8141 87.0772 52.9854 87.0756 53.1592C87.074 53.3331 87.0265 53.5035 86.9381 53.6533C86.8496 53.8031 86.7232 53.9269 86.5716 54.0125L82.8199 56.1633C82.6694 56.2491 82.4991 56.2941 82.3259 56.2938C82.1526 56.2935 81.9825 56.2479 81.8323 56.1615C81.6822 56.0752 81.5573 55.9511 81.4701 55.8016C81.3829 55.6521 81.3365 55.4824 81.3353 55.3095Z" fill="#AEA5CC"/>
<path d="M125.622 56.1553L121.942 53.9239C121.796 53.8356 121.675 53.7107 121.592 53.5616C121.509 53.4124 121.466 53.2442 121.467 53.0735C121.469 52.9027 121.515 52.7354 121.601 52.5878C121.687 52.4403 121.811 52.3178 121.959 52.2322L125.686 50.0814C125.836 49.9947 126.007 49.9492 126.181 49.9497C126.355 49.9502 126.525 49.9965 126.675 50.0841C126.825 50.1716 126.949 50.2972 127.035 50.4482C127.12 50.5991 127.164 50.7699 127.163 50.9434L127.114 55.3256C127.112 55.4987 127.064 55.6681 126.975 55.8168C126.887 55.9655 126.76 56.0882 126.609 56.1724C126.457 56.2566 126.286 56.2994 126.113 56.2964C125.939 56.2934 125.77 56.2447 125.622 56.1553Z" fill="#AEA5CC"/>
<path d="M130.519 50.6534C130.577 50.6849 130.627 50.7282 130.666 50.7803C130.706 50.8325 130.734 50.8922 130.748 50.9556C130.763 51.0189 130.764 51.0844 130.751 51.1476C130.737 51.2108 130.711 51.2703 130.672 51.322L128.228 54.7053C128.203 54.7429 128.166 54.7709 128.124 54.7852C128.081 54.7996 128.035 54.7996 127.992 54.7852C127.949 54.7708 127.91 54.7427 127.883 54.7052C127.856 54.6676 127.841 54.6225 127.84 54.5764L127.881 50.5648C127.882 50.4808 127.901 50.3982 127.937 50.3223C127.973 50.2465 128.025 50.1792 128.089 50.125C128.154 50.0708 128.229 50.031 128.31 50.0082C128.39 49.9854 128.475 49.9802 128.558 49.9928C129.247 50.0948 129.9 50.315 130.519 50.6534Z" fill="#7D73AB"/>
<path d="M94.7687 56.2116L90.8476 53.9803C90.6986 53.8953 90.5749 53.7724 90.4891 53.6241C90.4033 53.4758 90.3586 53.3074 90.3594 53.1361C90.3602 52.9648 90.4066 52.7968 90.4938 52.6493C90.581 52.5018 90.7059 52.3801 90.8557 52.2966L93.5424 50.7983C93.685 50.7181 93.8456 50.6753 94.0093 50.6739C94.173 50.6725 94.3343 50.7125 94.4783 50.7903L95.7289 51.483C95.8803 51.5665 96.0066 51.689 96.0946 51.8378C96.1826 51.9865 96.229 52.1561 96.2291 52.3289L96.221 55.3739C96.2211 55.5436 96.1765 55.7104 96.0915 55.8574C96.0066 56.0045 95.8844 56.1266 95.7372 56.2115C95.59 56.2964 95.423 56.3411 95.253 56.3412C95.083 56.3412 94.916 56.2965 94.7687 56.2116Z" fill="#AEA5CC"/>
<path d="M112.833 51.5555L113.987 50.8064C114.142 50.7046 114.322 50.6476 114.507 50.642C114.692 50.6363 114.875 50.682 115.036 50.7742L117.634 52.2725C117.787 52.3593 117.914 52.4849 118.003 52.6365C118.092 52.7882 118.139 52.9605 118.14 53.1361C118.141 53.3118 118.095 53.4845 118.008 53.637C117.92 53.7894 117.794 53.9162 117.642 54.0044L113.882 56.1794C113.73 56.267 113.558 56.3131 113.383 56.3133C113.207 56.3134 113.035 56.2675 112.883 56.1802C112.731 56.0929 112.605 55.9673 112.517 55.8158C112.429 55.6644 112.382 55.4926 112.382 55.3175V52.3933C112.381 52.2272 112.422 52.0636 112.501 51.9173C112.58 51.771 112.694 51.6467 112.833 51.5555Z" fill="#AEA5CC"/>
<path d="M98.0769 56.268C97.958 56.334 97.8239 56.3682 97.6879 56.3673C97.5519 56.3664 97.4187 56.3304 97.3013 56.2629C97.184 56.1954 97.0867 56.0987 97.019 55.9824C96.9512 55.866 96.9154 55.734 96.9151 55.5994L96.907 52.5544C96.907 52.4899 96.9236 52.4265 96.9551 52.3702C96.9866 52.3139 97.032 52.2666 97.0869 52.2327C97.1419 52.1988 97.2046 52.1795 97.2691 52.1766C97.3336 52.1737 97.3978 52.1873 97.4556 52.2161C98.8595 52.9035 100.341 53.2929 101.901 53.3842C101.977 53.3878 102.05 53.4162 102.108 53.4652C102.166 53.5141 102.207 53.5808 102.223 53.655C102.24 53.7292 102.232 53.8068 102.2 53.8757C102.168 53.9447 102.114 54.0013 102.046 54.0367L98.0769 56.268Z" fill="#CAC1DE"/>
<path d="M106.524 53.5856L111.349 52.2725C111.591 52.2027 111.709 52.294 111.704 52.5464L111.68 55.3256C111.678 55.5021 111.631 55.6751 111.541 55.8273C111.452 55.9796 111.324 56.1056 111.17 56.193C111.016 56.2803 110.842 56.3257 110.666 56.3248C110.489 56.3238 110.316 56.2765 110.163 56.1875L106.46 54.0447C106.115 53.846 106.137 53.693 106.524 53.5856Z" fill="#7D73AB"/>
<path d="M88.3869 55.3578L88.4676 59.9656C88.471 60.1382 88.4257 60.3082 88.3367 60.4563C88.2478 60.6043 88.1188 60.7243 87.9647 60.8025C87.8105 60.8807 87.6374 60.914 87.4652 60.8985C87.293 60.8829 87.1287 60.8193 86.9911 60.7147L83.3201 57.9275C83.1967 57.8335 83.0991 57.7098 83.0365 57.568C82.9738 57.4262 82.9481 57.2708 82.9618 57.1164C82.9755 56.962 83.0281 56.8136 83.1148 56.685C83.2014 56.5564 83.3192 56.4517 83.4572 56.3808L87.0556 54.5522C87.1947 54.4828 87.3491 54.4496 87.5044 54.4559C87.6598 54.4622 87.811 54.5077 87.944 54.5881C88.0769 54.6686 88.1873 54.7814 88.2648 54.916C88.3422 55.0506 88.3842 55.2026 88.3869 55.3578Z" fill="#AEA5CC"/>
<path d="M88.992 59.7722L88.9839 55.4303C88.9831 55.2497 89.0298 55.072 89.1193 54.9151C89.2089 54.7582 89.3382 54.6275 89.4942 54.5362C89.6503 54.4448 89.8276 54.396 90.0085 54.3946C90.1894 54.3931 90.3675 54.4392 90.5249 54.5281L94.3089 56.6628C94.4673 56.7517 94.5994 56.8808 94.6918 57.0369C94.7843 57.1931 94.8338 57.3709 94.8355 57.5523C94.8371 57.7337 94.7908 57.9123 94.7011 58.0702C94.6115 58.228 94.4818 58.3594 94.325 58.4511L90.5411 60.6584C90.3846 60.7486 90.2071 60.7962 90.0264 60.7965C89.8457 60.7968 89.6681 60.7498 89.5113 60.6601C89.3545 60.5704 89.224 60.4412 89.1329 60.2854C89.0418 60.1296 88.9932 59.9527 88.992 59.7722Z" fill="#AEA5CC"/>
<path d="M103.902 55.3739L103.894 59.8609C103.896 60.0291 103.852 60.1947 103.768 60.3405C103.684 60.4863 103.562 60.6069 103.416 60.69C103.269 60.773 103.103 60.8153 102.935 60.8126C102.766 60.8099 102.602 60.7622 102.458 60.6745L98.6012 58.3706C98.4582 58.2859 98.3402 58.1651 98.259 58.0203C98.1778 57.8755 98.1363 57.7119 98.1388 57.5459C98.1412 57.38 98.1875 57.2177 98.273 57.0753C98.3584 56.933 98.48 56.8157 98.6254 56.7353L102.49 54.5522C102.634 54.4703 102.797 54.4275 102.962 54.4283C103.128 54.429 103.29 54.4733 103.433 54.5565C103.576 54.6397 103.695 54.7591 103.777 54.9026C103.86 55.046 103.903 55.2086 103.902 55.3739Z" fill="#CAC1DE"/>
<path d="M104.588 59.8206L104.604 55.3336C104.605 55.169 104.649 55.0075 104.732 54.8651C104.815 54.7228 104.933 54.6045 105.076 54.5223C105.219 54.44 105.381 54.3965 105.546 54.3961C105.711 54.3957 105.873 54.4384 106.016 54.52L109.921 56.7514C110.064 56.8338 110.182 56.952 110.265 57.0943C110.348 57.2367 110.392 57.3981 110.392 57.5627C110.393 57.7273 110.351 57.8892 110.27 58.0323C110.188 58.1755 110.071 58.2949 109.929 58.3786L106 60.6422C105.856 60.7242 105.693 60.7669 105.528 60.7662C105.362 60.7654 105.2 60.7212 105.057 60.638C104.913 60.5547 104.795 60.4354 104.713 60.2919C104.63 60.1484 104.587 59.9859 104.588 59.8206Z" fill="#AEA5CC"/>
<path d="M118.07 60.6342L114.06 58.3545C113.922 58.2771 113.807 58.1646 113.727 58.0285C113.646 57.8924 113.604 57.7374 113.603 57.5794C113.602 57.4215 113.643 57.2661 113.722 57.1291C113.801 56.9922 113.915 56.8785 114.052 56.7997L118.054 54.5039C118.19 54.4245 118.345 54.3823 118.502 54.3818C118.66 54.3812 118.815 54.4223 118.952 54.5007C119.088 54.5792 119.202 54.6923 119.281 54.8287C119.36 54.965 119.401 55.1198 119.401 55.2772V59.8609C119.4 60.016 119.358 60.1681 119.28 60.3022C119.202 60.4363 119.09 60.5478 118.956 60.6259C118.822 60.7039 118.669 60.7456 118.514 60.7471C118.359 60.7486 118.205 60.7097 118.07 60.6342Z" fill="#AEA5CC"/>
<path d="M125.331 56.7192C125.88 57.036 125.907 57.3878 125.412 57.7745L121.741 60.6584C121.592 60.7748 121.413 60.847 121.224 60.8666C121.036 60.8863 120.846 60.8525 120.676 60.7693C120.506 60.6861 120.363 60.5568 120.263 60.3961C120.163 60.2354 120.11 60.0499 120.111 59.8608L120.143 55.0033C120.143 54.875 120.176 54.749 120.241 54.6379C120.305 54.5267 120.397 54.4343 120.509 54.3699C120.621 54.3055 120.748 54.2713 120.878 54.2708C121.008 54.2703 121.136 54.3034 121.249 54.367L125.331 56.7192Z" fill="#7D73AB"/>
<path d="M94.9545 64.6539L90.8398 62.8655C90.6725 62.7934 90.529 62.6757 90.4258 62.5258C90.3226 62.376 90.2638 62.2 90.2562 62.0183C90.2486 61.8366 90.2926 61.6564 90.3829 61.4985C90.4733 61.3406 90.6065 61.2113 90.7672 61.1255L94.6964 58.9747C94.8402 58.8952 95.0019 58.8535 95.1663 58.8536C95.3308 58.8538 95.4924 58.8957 95.6361 58.9755C95.7798 59.0553 95.9008 59.1703 95.9876 59.3097C96.0745 59.4491 96.1243 59.6083 96.1325 59.7722L96.31 63.7275C96.3169 63.8914 96.282 64.0544 96.2084 64.201C96.1349 64.3477 96.0251 64.4733 95.8896 64.566C95.754 64.6586 95.597 64.7153 95.4334 64.7307C95.2699 64.7461 95.1051 64.7196 94.9545 64.6539Z" fill="#7D73AB"/>
<path d="M98.3269 58.9667L102.256 61.2222C102.401 61.3056 102.522 61.4261 102.605 61.5713C102.688 61.7166 102.731 61.8813 102.73 62.0486C102.728 62.2159 102.682 62.3798 102.596 62.5233C102.51 62.6669 102.387 62.785 102.24 62.8655L98.2623 65.0405C98.1178 65.1192 97.9551 65.1588 97.7906 65.1553C97.626 65.1519 97.4652 65.1055 97.3241 65.0208C97.183 64.9361 97.0665 64.8161 96.9863 64.6726C96.906 64.5291 96.8647 64.3671 96.8665 64.2028L96.9149 59.7722C96.9172 59.6083 96.9622 59.4477 97.0456 59.3065C97.129 59.1653 97.2479 59.0482 97.3905 58.9668C97.533 58.8855 97.6944 58.8427 97.8586 58.8427C98.0229 58.8426 98.1842 58.8854 98.3269 58.9667Z" fill="#7D73AB"/>
<path d="M111.68 59.8528L111.615 64.1061C111.613 64.2816 111.565 64.4535 111.476 64.6052C111.388 64.7569 111.262 64.8834 111.11 64.9724C110.959 65.0614 110.787 65.11 110.611 65.1134C110.435 65.1169 110.262 65.0752 110.107 64.9922L106.363 62.9541C106.204 62.8671 106.071 62.7395 105.978 62.5843C105.884 62.4292 105.834 62.2521 105.831 62.071C105.829 61.89 105.874 61.7116 105.964 61.554C106.053 61.3964 106.182 61.2652 106.339 61.1739L110.139 58.9586C110.295 58.8674 110.473 58.8193 110.654 58.8192C110.836 58.819 111.013 58.8668 111.17 58.9577C111.327 59.0486 111.456 59.1793 111.546 59.3365C111.636 59.4938 111.682 59.6719 111.68 59.8528Z" fill="#AEA5CC"/>
<path d="M113.931 58.9666L117.812 61.1014C117.973 61.1909 118.106 61.3236 118.196 61.4845C118.286 61.6455 118.329 61.8283 118.321 62.0124C118.312 62.1966 118.253 62.3747 118.149 62.5268C118.044 62.679 117.9 62.799 117.731 62.8736L113.673 64.6458C113.518 64.7129 113.349 64.7397 113.182 64.7237C113.014 64.7077 112.854 64.6495 112.715 64.5544C112.576 64.4594 112.464 64.3307 112.389 64.1804C112.313 64.0301 112.278 63.8631 112.285 63.6953L112.462 59.7883C112.47 59.6204 112.521 59.4573 112.61 59.3144C112.698 59.1714 112.822 59.0533 112.968 58.9711C113.115 58.8889 113.281 58.8454 113.449 58.8446C113.617 58.8438 113.783 58.8858 113.931 58.9666Z" fill="#AEA5CC"/>
<path d="M99.3596 65.1775L102.756 63.3086C102.829 63.2684 102.908 63.2431 102.99 63.2343C103.073 63.2255 103.156 63.2334 103.236 63.2574C103.316 63.2814 103.39 63.3211 103.454 63.3741C103.519 63.4272 103.572 63.4926 103.612 63.5664C103.934 64.2001 104.015 64.8956 103.854 65.6528C103.784 65.9804 103.582 66.1227 103.249 66.0797L99.4484 65.6528C98.9213 65.5884 98.8917 65.4299 99.3596 65.1775Z" fill="#7D73AB"/>
<path d="M105.717 63.3086L109.203 65.1855C109.671 65.4379 109.641 65.5937 109.114 65.6528L105.403 66.0716C104.865 66.1307 104.599 65.8917 104.604 65.3547L104.62 63.953C104.621 63.8251 104.656 63.6995 104.72 63.5887C104.784 63.4779 104.876 63.3855 104.986 63.3206C105.097 63.2558 105.222 63.2205 105.35 63.2184C105.478 63.2163 105.605 63.2474 105.717 63.3086Z" fill="#7D73AB"/>
<path d="M77.6723 71.8636L77.7772 74.6186C77.8014 80.0239 74.3079 77.1964 72.073 76.0122L69.0394 74.385L67.6597 73.3781C67.4378 73.2155 67.26 73.0003 67.1424 72.7518C67.0248 72.5033 66.9712 72.2295 66.9864 71.9551C67.0016 71.6807 67.0852 71.4144 67.2296 71.1804C67.3739 70.9464 67.5745 70.7521 67.813 70.615C69.8839 69.4174 71.9923 68.1876 74.1385 66.9256C78.5518 64.3156 77.632 69.7853 77.6723 71.8636Z" fill="#AEA5CC"/>
<path d="M77.6724 71.8636C81.6096 72.2825 84.4954 74.1728 86.3295 77.5347C85.3022 77.1051 84.3367 76.5976 83.4331 76.0122C82.5671 75.4429 81.8463 75.4295 81.2708 75.9719L77.7773 74.6186L77.6724 71.8636Z" fill="#CAC1DE"/>
<path d="M13.595 85.9367L16.4995 84.2128L16.5237 89.9725C16.5237 90.241 16.6582 90.378 16.9271 90.3833C22.7201 90.5525 28.8922 90.4881 29.3683 82.9239C29.5834 79.4654 28.0989 77.0004 24.9146 75.5289C22.6555 74.4817 19.5493 74.7556 16.9675 74.7556C16.6878 74.7556 16.5452 74.8952 16.5398 75.1745L16.4834 78.3161L13.6272 76.5842L13.5385 72.5322C13.5331 72.2583 13.6676 72.1187 13.9419 72.1133C20.9693 71.9845 29.9572 70.8728 32.3051 79.8628C33.1173 82.9883 32.6197 85.9635 30.8125 88.7884C27.4803 93.9681 20.3722 93.2592 13.9419 93.0578C13.673 93.0524 13.5412 92.9155 13.5466 92.647L13.595 85.9367Z" fill="#CAC1DE"/>
<path d="M38.1948 90.4156H47.0134C47.0797 90.4156 47.1433 90.4419 47.1902 90.4887C47.2371 90.5355 47.2635 90.5991 47.2635 90.6653L47.2958 92.8645C47.2958 92.9307 47.2694 92.9942 47.2225 93.041C47.1756 93.0879 47.112 93.1142 47.0456 93.1142H35.1854C35.1191 93.1142 35.0555 93.0879 35.0086 93.041C34.9617 92.9942 34.9353 92.9307 34.9353 92.8645V72.3389C34.9353 72.2727 34.9617 72.2091 35.0086 72.1623C35.0555 72.1155 35.1191 72.0892 35.1854 72.0892H46.9166C46.9501 72.0892 46.9833 72.0959 47.0142 72.1089C47.0451 72.122 47.073 72.1411 47.0963 72.1651C47.1197 72.1892 47.1379 72.2177 47.15 72.2489C47.1621 72.2801 47.1677 72.3135 47.1667 72.3469L47.0779 74.5542C47.0758 74.619 47.0485 74.6805 47.0019 74.7256C46.9552 74.7707 46.8928 74.7959 46.8278 74.7958L38.1868 74.7556C38.1204 74.7556 38.0568 74.7819 38.0099 74.8287C37.963 74.8755 37.9367 74.9391 37.9367 75.0053L37.8963 80.8939C37.8963 80.9267 37.9028 80.9592 37.9154 80.9895C37.9279 81.0198 37.9464 81.0473 37.9696 81.0705C37.9928 81.0937 38.0204 81.1121 38.0507 81.1246C38.0811 81.1372 38.1136 81.1436 38.1464 81.1436L46.5858 81.1517C46.6521 81.1517 46.7157 81.178 46.7626 81.2248C46.8095 81.2716 46.8359 81.3352 46.8359 81.4014V83.5764C46.8359 83.6426 46.8095 83.7061 46.7626 83.753C46.7157 83.7998 46.6521 83.8261 46.5858 83.8261L38.1384 83.8503C38.072 83.8503 38.0084 83.8766 37.9615 83.9234C37.9146 83.9703 37.8883 84.0338 37.8883 84.1L37.9447 90.1658C37.9447 90.2321 37.9711 90.2956 38.018 90.3424C38.0649 90.3893 38.1285 90.4156 38.1948 90.4156Z" fill="#CAC1DE"/>
<path d="M52.6369 84.3819L52.645 92.8322C52.645 93.0202 52.5508 93.1168 52.3626 93.1222L49.8857 93.1302C49.6974 93.1302 49.6033 93.0336 49.6033 92.8402V72.5C49.6033 72.2315 49.7377 72.0945 50.0067 72.0891C54.4765 72.0408 63.7226 70.8002 62.819 78.7672C62.2219 84.0114 57.2438 83.8422 53.0484 83.963C52.7741 83.9684 52.6369 84.108 52.6369 84.3819ZM52.6127 75.1502L52.5482 80.773C52.5471 80.8276 52.5569 80.8819 52.5771 80.9327C52.5973 80.9835 52.6275 81.0297 52.6658 81.0688C52.7041 81.1078 52.7498 81.1387 52.8003 81.1599C52.8507 81.181 52.9049 81.1919 52.9596 81.1919L56.1869 81.2241C57.1601 81.2342 58.0968 80.9149 58.7913 80.3364C59.4857 79.7578 59.881 78.9674 59.8902 78.1389V77.9455C59.8948 77.5349 59.8044 77.1272 59.624 76.7458C59.4436 76.3644 59.1768 76.0168 58.8388 75.7228C58.5009 75.4287 58.0985 75.1941 57.6545 75.0323C57.2105 74.8705 56.7338 74.7847 56.2515 74.7797L53.0242 74.7475C52.9164 74.7474 52.813 74.7896 52.736 74.8649C52.6591 74.9402 52.6148 75.0427 52.6127 75.1502Z" fill="#CAC1DE"/>
<path d="M69.0395 74.385L72.0731 76.0122C65.1668 80.33 68.8297 90.9311 76.7204 90.5686C81.8033 90.335 84.9661 86.1058 84.3932 81.0228L87.1445 79.315C89.5004 89.4086 79.8509 96.7553 70.8064 92.0106C64.1744 88.5386 63.6419 79.2667 69.0395 74.385Z" fill="#CAC1DE"/>
<path d="M13.627 76.5842L16.4832 78.3161L19.0569 79.8628C19.2888 80.0023 19.4812 80.1987 19.6158 80.4332C19.7504 80.6678 19.8227 80.9328 19.826 81.2031C19.8292 81.4734 19.7632 81.7401 19.6343 81.9778C19.5053 82.2155 19.3177 82.4164 19.0892 82.5614L16.4993 84.2128L13.5948 85.9367C12.675 86.2831 11.7956 87 10.8839 87.0564C9.74356 87.1262 9.15996 86.5704 9.13306 85.3889C9.06852 82.7735 9.0739 80.1608 9.1492 77.5508C9.18685 76.262 9.73011 75.5934 10.779 75.545C11.6826 75.4967 12.7153 76.2459 13.627 76.5842Z" fill="#AEA5CC"/>
<path d="M86.3295 77.5347C87.0503 78.2329 87.3219 78.8263 87.1444 79.315L84.3931 81.0228L82.5213 81.925C82.3924 81.9877 82.2496 82.0167 82.1064 82.0093C81.9632 82.002 81.8242 81.9584 81.7025 81.8827C81.5807 81.807 81.4802 81.7017 81.4103 81.5767C81.3405 81.4517 81.3035 81.311 81.303 81.1678L81.2708 75.9719C81.8463 75.4295 82.567 75.443 83.433 76.0122C84.3367 76.5976 85.3022 77.1051 86.3295 77.5347Z" fill="#AEA5CC"/>
<path d="M15.1843 109.805C15.6684 109.757 16.1363 109.824 16.5881 110.007C16.6697 110.038 16.7378 110.096 16.7804 110.172C16.823 110.248 16.8373 110.337 16.8209 110.423C16.8046 110.508 16.7585 110.585 16.6908 110.64C16.6232 110.695 16.5382 110.725 16.451 110.724L13.9337 110.772C13.6594 110.777 13.5222 110.646 13.5222 110.377L13.5303 97.6575C13.5303 97.3836 13.6648 97.2467 13.9337 97.2467H16.1363C16.4268 97.2413 16.5801 97.3863 16.5962 97.6817C16.6016 97.7944 16.5827 97.9045 16.5397 98.0119C16.4106 98.3073 16.2009 98.3879 15.9104 98.2536C15.7006 98.1569 15.4801 98.1059 15.2488 98.1006C14.8992 98.0952 14.7244 98.267 14.7244 98.6161V109.378C14.7244 109.69 14.8777 109.832 15.1843 109.805Z" fill="#CAC1DE"/>
<path d="M86.4668 109.531L86.4587 98.5355C86.4534 98.2187 86.2947 98.0764 85.9827 98.1086L84.9581 98.2133C84.8898 98.2182 84.8217 98.2023 84.7626 98.1678C84.7036 98.1333 84.6564 98.0818 84.6273 98.02L84.4578 97.6655C84.4356 97.6209 84.4253 97.5712 84.4279 97.5214C84.4305 97.4716 84.446 97.4233 84.4727 97.3812C84.4995 97.3391 84.5367 97.3046 84.5807 97.281C84.6248 97.2574 84.6741 97.2456 84.7241 97.2466H87.1526C87.4484 97.2466 87.5963 97.3943 87.5963 97.6897V110.192C87.5963 110.514 87.435 110.694 87.1123 110.732C86.2301 110.828 85.3668 110.78 84.5224 110.587C84.4712 110.574 84.4247 110.547 84.3887 110.508C84.3526 110.47 84.3284 110.421 84.3191 110.37C84.3097 110.318 84.3155 110.264 84.3358 110.216C84.3562 110.167 84.3901 110.125 84.4336 110.095C84.9339 109.778 85.4852 109.69 86.0876 109.829C86.3404 109.888 86.4668 109.789 86.4668 109.531Z" fill="#CAC1DE"/>
<path d="M62.7543 103.699V108.363C62.7543 108.798 62.5392 108.981 62.1089 108.911L61.7619 108.855C61.6372 108.834 61.5236 108.77 61.4411 108.675C61.3585 108.579 61.3122 108.457 61.3101 108.331C61.2778 106.972 61.2913 105.514 61.3504 103.957C61.3558 103.753 61.3128 103.6 61.2214 103.498C61.0869 103.353 60.9067 103.272 60.6808 103.256C60.5675 103.247 60.4602 103.202 60.3756 103.126C60.291 103.05 60.2338 102.949 60.2128 102.837L60.1644 102.587C60.116 102.346 60.2075 102.185 60.4387 102.104L60.9309 101.943C61.2482 101.83 61.3854 101.61 61.3424 101.282L61.2375 100.493C61.2052 100.273 61.2993 100.144 61.5199 100.106L62.3348 99.9614C62.3865 99.9518 62.4397 99.9538 62.4905 99.9673C62.5413 99.9808 62.5885 100.005 62.6287 100.039C62.6688 100.073 62.7009 100.116 62.7226 100.163C62.7444 100.211 62.7552 100.263 62.7543 100.316L62.7462 101.54C62.7409 101.836 62.8861 101.986 63.1819 101.991L63.9 102.007C64.1313 102.007 64.2362 102.126 64.2146 102.362L64.142 103.127C64.138 103.18 64.1132 103.229 64.0728 103.265C64.0324 103.301 63.9793 103.321 63.9242 103.321L63.1496 103.304C62.8861 103.299 62.7543 103.431 62.7543 103.699Z" fill="#CAC1DE"/>
<path d="M20.2672 103.312C20.0152 103.356 19.7747 103.451 19.5605 103.591C19.3462 103.73 19.1625 103.912 19.0207 104.126C18.8788 104.339 18.7817 104.579 18.7353 104.831C18.6888 105.083 18.694 105.342 18.7504 105.592C19.1377 107.332 20.5738 107.961 22.1391 107.131C22.2843 107.056 22.4322 107.002 22.5828 106.97C22.8733 106.911 23.0158 107.029 23.0104 107.324L23.0023 107.84C22.997 108.135 22.8733 108.363 22.6312 108.524C21.8029 109.078 20.9853 109.228 20.1785 108.976C15.386 107.485 17.1771 100.606 22.2439 101.975C22.6635 102.093 22.919 102.367 23.0104 102.797L23.0911 103.2C23.1052 103.269 23.0999 103.34 23.0758 103.406C23.0516 103.472 23.0096 103.53 22.9543 103.573C22.8991 103.617 22.8328 103.644 22.7629 103.652C22.693 103.66 22.6223 103.648 22.5586 103.619C21.8271 103.275 21.0633 103.173 20.2672 103.312Z" fill="#CAC1DE"/>
<path d="M31.3126 105.391C31.3126 106.35 30.9309 107.27 30.2516 107.948C29.5722 108.627 28.6508 109.008 27.69 109.008C26.7292 109.008 25.8078 108.627 25.1284 107.948C24.449 107.27 24.0674 106.35 24.0674 105.391C24.0674 104.916 24.1611 104.445 24.3431 104.007C24.5252 103.568 24.792 103.169 25.1284 102.833C25.4648 102.497 25.8642 102.231 26.3037 102.049C26.7432 101.867 27.2143 101.774 27.69 101.774C28.1657 101.774 28.6368 101.867 29.0763 102.049C29.5158 102.231 29.9152 102.497 30.2516 102.833C30.588 103.169 30.8548 103.568 31.0369 104.007C31.2189 104.445 31.3126 104.916 31.3126 105.391ZM29.8361 105.375C29.8361 104.794 29.6049 104.236 29.1934 103.825C28.7818 103.414 28.2236 103.184 27.6416 103.184C27.0596 103.184 26.5014 103.414 26.0898 103.825C25.6783 104.236 25.447 104.794 25.447 105.375C25.447 105.956 25.6783 106.513 26.0898 106.924C26.5014 107.335 27.0596 107.566 27.6416 107.566C28.2236 107.566 28.7818 107.335 29.1934 106.924C29.6049 106.513 29.8361 105.956 29.8361 105.375Z" fill="#CAC1DE"/>
<path d="M34.7416 102.338C35.855 101.505 36.8985 101.597 37.8721 102.612C38.0657 102.816 38.2809 102.845 38.5175 102.7C39.6309 102.024 40.6717 101.089 41.7932 102.459C42.713 103.586 42.3419 107.123 42.3096 108.549C42.3085 108.594 42.2984 108.64 42.2798 108.681C42.2611 108.723 42.2344 108.761 42.2012 108.791C42.168 108.822 42.129 108.846 42.0866 108.861C42.0442 108.876 41.9993 108.882 41.9546 108.879L41.172 108.839C41.0052 108.828 40.9219 108.739 40.9219 108.573L40.8977 103.86C40.897 103.746 40.8714 103.634 40.8225 103.53C40.7736 103.427 40.7026 103.335 40.6144 103.262C40.5263 103.188 40.423 103.135 40.3117 103.104C40.2004 103.074 40.0838 103.068 39.9698 103.087L39.5745 103.151C39.211 103.212 38.8806 103.399 38.6416 103.679C38.4025 103.959 38.27 104.314 38.2674 104.682L38.2594 108.565C38.2594 108.806 38.141 108.917 37.9044 108.895L37.2992 108.847C36.9819 108.82 36.8205 108.648 36.8152 108.331L36.7667 103.756C36.7661 103.642 36.7393 103.531 36.6883 103.43C36.6374 103.329 36.5637 103.241 36.4731 103.173C36.3824 103.105 36.2773 103.059 36.1659 103.039C36.0544 103.018 35.9398 103.024 35.8308 103.055L35.3871 103.184C34.5749 103.409 34.1688 103.941 34.1688 104.779L34.1769 108.589C34.1769 108.809 34.0666 108.911 33.8461 108.895L33.0473 108.839C32.8537 108.823 32.7569 108.715 32.7569 108.516L32.7407 102.338C32.7407 102.281 32.752 102.226 32.7741 102.174C32.7962 102.122 32.8286 102.075 32.8693 102.036C32.9099 101.997 32.9581 101.966 33.0109 101.946C33.0637 101.926 33.12 101.917 33.1764 101.919C33.5153 101.93 33.8003 102.05 34.0316 102.281C34.2522 102.507 34.4888 102.526 34.7416 102.338Z" fill="#CAC1DE"/>
<path d="M45.7547 108.13L45.7386 111.763C45.7376 111.807 45.7276 111.851 45.7093 111.891C45.691 111.932 45.6647 111.968 45.6321 111.997C45.5995 112.027 45.5613 112.049 45.5199 112.063C45.4786 112.077 45.4349 112.081 45.3917 112.077L44.7623 112.021C44.4773 111.994 44.3347 111.838 44.3347 111.553L44.3267 102.483C44.3267 102.166 44.4853 101.991 44.8027 101.959L45.1577 101.919C45.2103 101.913 45.2634 101.918 45.314 101.934C45.3646 101.949 45.4116 101.974 45.4523 102.008C45.4929 102.042 45.5263 102.084 45.5505 102.13C45.5748 102.177 45.5893 102.229 45.5934 102.281L45.6176 102.708C45.6445 103.095 45.7978 103.154 46.0775 102.886C49.4661 99.5908 53.6212 104.529 50.6118 107.952C49.2509 109.499 47.7772 109.499 46.1904 107.952C45.9 107.673 45.7547 107.732 45.7547 108.13ZM50.0551 105.375C50.0551 104.779 49.8179 104.207 49.3958 103.785C48.9736 103.364 48.4011 103.127 47.804 103.127C47.207 103.127 46.6345 103.364 46.2123 103.785C45.7902 104.207 45.553 104.779 45.553 105.375C45.553 105.971 45.7902 106.542 46.2123 106.964C46.6345 107.385 47.207 107.622 47.804 107.622C48.4011 107.622 48.9736 107.385 49.3958 106.964C49.8179 106.542 50.0551 105.971 50.0551 105.375Z" fill="#CAC1DE"/>
<path d="M67.337 105.657C66.3419 105.657 66.1833 106.019 66.861 106.744C67.9206 107.872 69.1228 107.942 70.4675 106.954C70.7041 106.782 70.9516 106.76 71.2097 106.889L71.5083 107.042C71.5743 107.075 71.6312 107.124 71.674 107.184C71.7168 107.244 71.7442 107.314 71.7537 107.387C71.7633 107.46 71.7547 107.535 71.7288 107.604C71.7029 107.673 71.6604 107.734 71.6051 107.783C69.9054 109.249 68.2649 109.44 66.6835 108.355C62.2056 105.286 67.9179 98.5839 71.8471 103.538C72.9713 104.956 72.6244 105.665 70.8063 105.665L67.337 105.657ZM66.8691 104.537L70.4352 104.521C70.478 104.521 70.519 104.504 70.5493 104.474C70.5796 104.443 70.5966 104.402 70.5966 104.36V104.271C70.5956 103.966 70.4038 103.674 70.0635 103.46C69.7232 103.245 69.262 103.126 68.7812 103.127H68.523C68.2843 103.128 68.048 103.159 67.8275 103.217C67.607 103.276 67.4067 103.362 67.2381 103.469C67.0694 103.577 66.9358 103.705 66.8448 103.845C66.7538 103.986 66.7072 104.136 66.7077 104.287V104.376C66.7077 104.419 66.7247 104.46 66.755 104.49C66.7852 104.52 66.8263 104.537 66.8691 104.537Z" fill="#CAC1DE"/>
<path d="M75.8811 102.902C76.3437 102.101 77.043 101.728 77.9789 101.782C78.0177 101.784 78.0556 101.794 78.0896 101.813C78.1236 101.832 78.1527 101.859 78.1747 101.891C78.1966 101.923 78.2107 101.959 78.216 101.998C78.2212 102.036 78.2174 102.075 78.2048 102.112L77.8659 103.079C77.8121 103.229 77.7046 103.299 77.5432 103.288C74.8403 103.063 75.5665 106.841 75.5342 108.452C75.5334 108.516 75.5193 108.579 75.4927 108.637C75.4662 108.695 75.4277 108.747 75.3799 108.79C75.332 108.832 75.2758 108.864 75.2149 108.884C75.1539 108.903 75.0896 108.91 75.0259 108.903L74.6709 108.871C74.3213 108.839 74.1465 108.645 74.1465 108.291V102.475C74.1465 102.131 74.3186 101.956 74.6628 101.951H75.0098C75.0731 101.951 75.1359 101.964 75.1937 101.989C75.2516 102.015 75.3033 102.053 75.3453 102.1C75.3874 102.147 75.4188 102.203 75.4375 102.264C75.4561 102.324 75.4616 102.388 75.4535 102.451C75.4374 102.596 75.4562 102.735 75.51 102.869C75.6122 103.143 75.7359 103.154 75.8811 102.902Z" fill="#CAC1DE"/>
<path d="M80.7868 104.199L82.8361 105.197C83.0983 105.325 83.3254 105.515 83.4975 105.75C83.6697 105.985 83.7817 106.259 83.8238 106.547C83.866 106.835 83.837 107.129 83.7394 107.404C83.6417 107.678 83.4785 107.925 83.2637 108.122C81.9029 109.368 80.5555 109.325 79.2215 107.993C79.1809 107.951 79.151 107.9 79.1347 107.845C79.1184 107.789 79.1162 107.73 79.1283 107.674C79.1403 107.618 79.1663 107.566 79.2037 107.523C79.2412 107.48 79.2889 107.448 79.3426 107.429L79.6895 107.3C80.0391 107.166 80.3699 107.209 80.6819 107.429C81.1391 107.751 81.6205 107.746 82.1261 107.413C82.2304 107.345 82.3144 107.25 82.3696 107.139C82.4247 107.028 82.4491 106.903 82.44 106.779C82.431 106.654 82.389 106.534 82.3182 106.43C82.2474 106.326 82.1505 106.243 82.0373 106.188L80.1655 105.31C79.8596 105.167 79.6059 104.932 79.4397 104.639C79.2735 104.346 79.2029 104.009 79.2377 103.675C79.4474 101.693 81.8114 101.331 83.1427 102.426C83.3578 102.598 83.452 102.783 83.4251 102.982C83.4089 103.084 83.3659 103.176 83.296 103.256C83.1292 103.455 82.9195 103.519 82.6667 103.449C82.2202 103.326 81.763 103.253 81.2951 103.232C80.9132 103.21 80.6684 103.302 80.5609 103.506C80.3995 103.812 80.4748 104.043 80.7868 104.199Z" fill="#CAC1DE"/>
<path d="M57.7036 106.164V102.297C57.7033 102.246 57.7139 102.196 57.7346 102.149C57.7553 102.102 57.7857 102.06 57.8238 102.026C57.8619 101.992 57.9069 101.966 57.9557 101.95C58.0045 101.934 58.0561 101.929 58.107 101.935L58.7283 102.016C58.9865 102.048 59.1183 102.193 59.1236 102.451C59.1559 103.675 59.1452 104.967 59.0914 106.325C58.9784 109.322 55.138 109.829 53.7906 107.767C52.9353 106.454 53.25 104.142 53.2419 102.515C53.2419 102.363 53.3023 102.218 53.4097 102.111C53.5171 102.003 53.6628 101.943 53.8148 101.943H54.1052C54.471 101.943 54.6566 102.128 54.6619 102.499L54.6781 106.317C54.6778 106.634 54.8004 106.938 55.02 107.166C55.2396 107.395 55.5392 107.529 55.856 107.542L56.2433 107.558C56.432 107.566 56.6204 107.537 56.7973 107.471C56.9742 107.405 57.1357 107.303 57.2723 107.173C57.4088 107.043 57.5174 106.886 57.5916 106.713C57.6657 106.539 57.7038 106.353 57.7036 106.164Z" fill="#CAC1DE"/>
</svg>
