<svg width="200" height="200" viewBox="0 0 200 200" fill="none" xmlns="http://www.w3.org/2000/svg">
<g clip-path="url(#clip0_725_5694)">
<rect width="200" height="200" rx="100" fill="#CAC1DE"/>
<g clip-path="url(#clip1_725_5694)">
<path d="M138.235 255L60.7923 254.645C51.4752 254.602 43.9621 247.06 43.9999 237.794L44.8209 44.706C44.8587 35.4397 52.4474 27.9568 61.77 27.9998L139.213 28.3544C148.525 28.3973 156.043 35.9393 156.005 45.2002L155.184 238.288C155.147 247.555 147.558 255.037 138.235 254.994V255Z" fill="#7D73AB"/>
<path d="M139.1 35.0208L124.084 34.951C122.069 34.9402 120.433 36.6324 120.422 38.7273L120.411 41.4347C120.4 43.5297 118.764 45.2164 116.749 45.2111L87.4799 45.0768C85.4653 45.066 83.8395 43.3632 83.8503 41.2682L83.8611 38.5608C83.8719 36.4658 82.2461 34.763 80.2315 34.7522L74.949 34.7254L61.8078 34.6663C55.2832 34.6341 49.9683 39.8769 49.9413 46.366L49.1419 234.834C49.1149 241.323 54.3811 246.604 60.9004 246.636L138.187 246.991C144.711 247.023 150.026 241.78 150.053 235.291L150.853 46.8226C150.88 40.3335 145.613 35.0531 139.094 35.0208H139.1Z" fill="#FAFAFA"/>
<path d="M100.702 178.092C100.778 178.092 100.843 182.83 100.843 188.669C100.843 194.509 100.778 199.246 100.702 199.246C100.627 199.246 100.562 194.509 100.562 188.669C100.562 182.83 100.627 178.092 100.702 178.092Z" fill="#291770"/>
<path d="M97.9313 180.418C98.0069 180.418 98.0718 184.034 98.0718 188.492C98.0718 192.951 98.0069 196.566 97.9313 196.566C97.8557 196.566 97.7909 192.951 97.7909 188.492C97.7909 184.034 97.8557 180.418 97.9313 180.418Z" fill="#291770"/>
<path d="M94.8095 182.728C94.8851 182.728 94.9499 185.344 94.9499 188.578C94.9499 191.812 94.8851 194.428 94.8095 194.428C94.7339 194.428 94.6691 191.812 94.6691 188.578C94.6691 185.344 94.7339 182.728 94.8095 182.728Z" fill="#291770"/>
<path d="M92.0872 184.716C92.1628 184.716 92.2276 186.177 92.2276 187.976C92.2276 189.776 92.1628 191.237 92.0872 191.237C92.0116 191.237 91.9468 189.776 91.9468 187.976C91.9468 186.177 92.0116 184.716 92.0872 184.716Z" fill="#291770"/>
<path d="M89.6891 186.306C89.7648 186.306 89.8296 187.106 89.8296 188.095C89.8296 189.083 89.7648 189.883 89.6891 189.883C89.6135 189.883 89.5487 189.083 89.5487 188.095C89.5487 187.106 89.6135 186.306 89.6891 186.306Z" fill="#291770"/>
<path d="M86.9668 184.399C87.0425 184.399 87.1073 185.86 87.1073 187.659C87.1073 189.459 87.0425 190.92 86.9668 190.92C86.8912 190.92 86.8264 189.459 86.8264 187.659C86.8264 185.86 86.8912 184.399 86.9668 184.399Z" fill="#291770"/>
<path d="M84.4067 181.772C84.4823 181.772 84.5471 184.517 84.5471 187.896C84.5471 191.275 84.4823 194.025 84.4067 194.025C84.331 194.025 84.2662 191.28 84.2662 187.896C84.2662 184.512 84.331 181.772 84.4067 181.772Z" fill="#291770"/>
<path d="M116.873 182.728C116.949 182.728 117.014 185.344 117.014 188.578C117.014 191.812 116.949 194.428 116.873 194.428C116.798 194.428 116.733 191.812 116.733 188.578C116.733 185.344 116.798 182.728 116.873 182.728Z" fill="#291770"/>
<path d="M114.151 184.716C114.227 184.716 114.292 186.177 114.292 187.976C114.292 189.776 114.227 191.237 114.151 191.237C114.076 191.237 114.011 189.776 114.011 187.976C114.011 186.177 114.076 184.716 114.151 184.716Z" fill="#291770"/>
<path d="M111.753 186.306C111.829 186.306 111.894 187.106 111.894 188.095C111.894 189.083 111.829 189.883 111.753 189.883C111.677 189.883 111.613 189.083 111.613 188.095C111.613 187.106 111.677 186.306 111.753 186.306Z" fill="#291770"/>
<path d="M109.031 183.443C109.107 183.443 109.171 185.328 109.171 187.659C109.171 189.991 109.107 191.876 109.031 191.876C108.955 191.876 108.891 189.991 108.891 187.659C108.891 185.328 108.955 183.443 109.031 183.443Z" fill="#291770"/>
<path d="M106.471 181.772C106.546 181.772 106.611 184.517 106.611 187.896C106.611 191.275 106.546 194.025 106.471 194.025C106.395 194.025 106.33 191.28 106.33 187.896C106.33 184.512 106.395 181.772 106.471 181.772Z" fill="#291770"/>
<path d="M103.354 180.499C103.43 180.499 103.495 183.991 103.495 188.299C103.495 192.607 103.43 196.098 103.354 196.098C103.279 196.098 103.214 192.607 103.214 188.299C103.214 183.991 103.279 180.499 103.354 180.499Z" fill="#291770"/>
<path d="M119.779 190.92C119.704 190.92 119.639 189.459 119.639 187.659C119.639 185.86 119.704 184.399 119.779 184.399C119.855 184.399 119.92 185.86 119.92 187.659C119.92 189.459 119.855 190.92 119.779 190.92Z" fill="#291770"/>
<path d="M122.183 189.33C122.107 189.33 122.042 188.53 122.042 187.541C122.042 186.553 122.107 185.752 122.183 185.752C122.259 185.752 122.323 186.553 122.323 187.541C122.323 188.53 122.259 189.33 122.183 189.33Z" fill="#291770"/>
<path d="M81.9006 184.399C81.9762 184.399 82.041 185.86 82.041 187.659C82.041 189.459 81.9762 190.92 81.9006 190.92C81.8249 190.92 81.7601 189.459 81.7601 187.659C81.7601 185.86 81.8249 184.399 81.9006 184.399Z" fill="#291770"/>
<path d="M79.5024 185.989C79.578 185.989 79.6428 186.789 79.6428 187.778C79.6428 188.766 79.578 189.566 79.5024 189.566C79.4268 189.566 79.3619 188.766 79.3619 187.778C79.3619 186.789 79.4268 185.989 79.5024 185.989Z" fill="#291770"/>
<path d="M77.1097 184.399C77.1853 184.399 77.2501 185.86 77.2501 187.659C77.2501 189.459 77.1853 190.92 77.1097 190.92C77.0341 190.92 76.9692 189.459 76.9692 187.659C76.9692 185.86 77.0341 184.399 77.1097 184.399Z" fill="#291770"/>
<path d="M74.5494 181.772C74.625 181.772 74.6898 184.517 74.6898 187.896C74.6898 191.275 74.625 194.025 74.5494 194.025C74.4738 194.025 74.4089 191.28 74.4089 187.896C74.4089 184.512 74.4738 181.772 74.5494 181.772Z" fill="#291770"/>
<path d="M72.0433 184.399C72.1189 184.399 72.1837 185.86 72.1837 187.659C72.1837 189.459 72.1189 190.92 72.0433 190.92C71.9676 190.92 71.9028 189.459 71.9028 187.659C71.9028 185.86 71.9676 184.399 72.0433 184.399Z" fill="#291770"/>
<path d="M69.6397 185.989C69.7153 185.989 69.7801 186.789 69.7801 187.778C69.7801 188.766 69.7153 189.566 69.6397 189.566C69.5641 189.566 69.4993 188.766 69.4993 187.778C69.4993 186.789 69.5641 185.989 69.6397 185.989Z" fill="#291770"/>
<path d="M129.788 184.399C129.864 184.399 129.928 185.86 129.928 187.659C129.928 189.459 129.864 190.92 129.788 190.92C129.712 190.92 129.647 189.459 129.647 187.659C129.647 185.86 129.712 184.399 129.788 184.399Z" fill="#291770"/>
<path d="M127.228 181.772C127.303 181.772 127.368 184.517 127.368 187.896C127.368 191.275 127.303 194.025 127.228 194.025C127.152 194.025 127.087 191.28 127.087 187.896C127.087 184.512 127.152 181.772 127.228 181.772Z" fill="#291770"/>
<path d="M124.721 184.399C124.797 184.399 124.862 185.86 124.862 187.659C124.862 189.459 124.797 190.92 124.721 190.92C124.646 190.92 124.581 189.459 124.581 187.659C124.581 185.86 124.646 184.399 124.721 184.399Z" fill="#291770"/>
<path d="M122.323 185.989C122.399 185.989 122.464 186.789 122.464 187.778C122.464 188.766 122.399 189.566 122.323 189.566C122.248 189.566 122.183 188.766 122.183 187.778C122.183 186.789 122.248 185.989 122.323 185.989Z" fill="#291770"/>
<path d="M132.915 185.989C132.991 185.989 133.056 186.789 133.056 187.778C133.056 188.766 132.991 189.566 132.915 189.566C132.84 189.566 132.775 188.766 132.775 187.778C132.775 186.789 132.84 185.989 132.915 185.989Z" fill="#291770"/>
<g opacity="0.3">
<path d="M142.416 111.015C142.416 111.015 142.4 110.79 142.383 110.349C142.356 109.909 142.373 109.253 142.292 108.399C142.189 106.691 141.897 104.166 141.114 101.008C140.693 99.4391 140.18 97.6987 139.424 95.8669C138.678 94.0351 137.76 92.0798 136.556 90.103C134.174 86.1494 130.755 82.0077 126.099 78.4785C123.782 76.7112 121.146 75.1211 118.24 73.8104C115.339 72.4997 112.169 71.4469 108.782 70.8452C105.407 70.2275 101.831 69.9804 98.1852 70.2651C96.3595 70.3725 94.5231 70.6679 92.6759 71.0332C90.8341 71.4254 89.0031 71.9518 87.1828 72.591C79.9344 75.2017 73.0424 80.0793 68.0787 86.8423C66.8202 88.5183 65.7237 90.3286 64.7299 92.2033C64.2222 93.138 63.7901 94.1157 63.3526 95.0934C62.9583 96.0871 62.5478 97.0809 62.2183 98.1123C60.8302 102.2 60.1389 106.578 60.1173 111.01C60.1335 113.228 60.3117 115.425 60.652 117.585C60.9869 119.75 61.5432 121.861 62.2183 123.907C62.5478 124.939 62.9529 125.933 63.3526 126.926C63.7955 127.904 64.2276 128.882 64.7299 129.816C65.7237 131.697 66.8202 133.507 68.0787 135.183C73.0424 141.946 79.9344 146.823 87.1828 149.44C89.0031 150.084 90.8395 150.605 92.6759 150.997C94.5177 151.363 96.3595 151.658 98.1852 151.765C101.836 152.05 105.407 151.803 108.782 151.185C112.164 150.578 115.334 149.525 118.24 148.22C121.146 146.909 123.782 145.319 126.099 143.552C130.755 140.023 134.174 135.887 136.556 131.928C137.76 129.951 138.678 127.995 139.424 126.164C140.185 124.332 140.693 122.591 141.114 121.023C141.897 117.864 142.189 115.34 142.292 113.631C142.367 112.777 142.351 112.122 142.383 111.681C142.4 111.241 142.416 111.015 142.416 111.015C142.416 111.015 142.416 111.241 142.416 111.681C142.4 112.122 142.421 112.777 142.356 113.631C142.27 115.345 142 117.875 141.228 121.05C140.812 122.629 140.309 124.375 139.553 126.212C138.813 128.055 137.9 130.021 136.696 132.008C134.319 135.989 130.895 140.152 126.223 143.708C123.895 145.491 121.254 147.092 118.337 148.413C115.421 149.735 112.234 150.799 108.836 151.411C105.444 152.039 101.847 152.287 98.1744 152.007C96.3379 151.9 94.4853 151.604 92.6327 151.244C90.7801 150.852 88.9328 150.326 87.1018 149.681C79.8048 147.06 72.8642 142.155 67.8626 135.349C66.5987 133.663 65.4861 131.842 64.4869 129.951C63.9791 129.011 63.5416 128.022 63.0987 127.039C62.6991 126.035 62.2886 125.036 61.9591 123.999C61.2785 121.936 60.7222 119.809 60.3819 117.633C60.0362 115.458 59.858 113.245 59.8418 111.01C59.8688 106.551 60.5602 102.141 61.9591 98.0263C62.2886 96.9896 62.6991 95.9904 63.0987 94.9859C63.5416 94.0029 63.9791 93.0199 64.4869 92.0798C65.4861 90.1889 66.5933 88.3679 67.8626 86.6812C72.8642 79.8751 79.7994 74.9707 87.0964 72.3493C88.9274 71.7047 90.7747 71.1783 92.6273 70.7861C94.4853 70.4208 96.3325 70.1254 98.169 70.0233C101.842 69.744 105.434 69.9911 108.826 70.6196C112.228 71.232 115.415 72.2956 118.326 73.617C121.243 74.9385 123.89 76.5393 126.212 78.3227C130.884 81.8788 134.303 86.0419 136.685 90.0224C137.89 92.01 138.802 93.976 139.542 95.8185C140.299 97.6557 140.801 99.4069 141.217 100.986C141.989 104.161 142.259 106.691 142.346 108.405C142.416 109.259 142.389 109.919 142.405 110.355C142.41 110.795 142.405 111.021 142.405 111.021L142.416 111.015Z" fill="#291770"/>
</g>
<path d="M137.193 110.129C137.193 110.129 137.177 109.936 137.166 109.554C137.144 109.178 137.155 108.609 137.085 107.873C136.993 106.396 136.745 104.22 136.064 101.497C135.362 98.7838 134.184 95.5124 132.127 92.0905C130.069 88.6795 127.12 85.1126 123.106 82.0668C121.108 80.5413 118.834 79.1715 116.328 78.0434C113.827 76.9153 111.089 76.0075 108.172 75.4864C105.261 74.9546 102.177 74.7451 99.0332 74.9869C97.456 75.0782 95.8734 75.336 94.2855 75.6476C92.6975 75.986 91.1149 76.4372 89.5486 76.9905C83.294 79.2413 77.358 83.4474 73.0748 89.2811C71.9892 90.7261 71.044 92.2839 70.1852 93.9062C69.3264 95.5285 68.6026 97.2313 68.0193 99.004C66.8202 102.533 66.2261 106.304 66.2044 110.124C66.2261 113.943 66.8202 117.719 68.0139 121.248C68.5972 123.016 69.321 124.724 70.1798 126.346C71.0386 127.969 71.9838 129.526 73.0694 130.971C77.3472 136.805 83.294 141.011 89.5432 143.267C91.1149 143.821 92.6975 144.272 94.2801 144.61C95.868 144.922 97.456 145.18 99.0332 145.271C102.182 145.518 105.261 145.303 108.177 144.771C111.094 144.25 113.833 143.343 116.333 142.214C118.839 141.086 121.113 139.717 123.112 138.191C127.13 135.145 130.074 131.578 132.132 128.167C134.19 124.74 135.367 121.474 136.069 118.761C136.75 116.038 136.998 113.857 137.09 112.385C137.16 111.649 137.144 111.085 137.171 110.704C137.187 110.322 137.198 110.129 137.198 110.129C137.198 110.129 137.22 110.908 137.15 112.385C137.074 113.862 136.842 116.049 136.177 118.788C135.491 121.512 134.325 124.799 132.267 128.248C130.214 131.68 127.26 135.28 123.231 138.347C121.221 139.889 118.942 141.269 116.425 142.413C113.908 143.552 111.159 144.471 108.221 145.002C105.293 145.545 102.187 145.76 99.0169 145.518C97.429 145.427 95.8356 145.174 94.2315 144.857C92.6327 144.519 91.0393 144.062 89.4568 143.509C83.1535 141.248 77.1636 137.015 72.848 131.133C71.7569 129.677 70.8009 128.103 69.9367 126.47C69.0725 124.837 68.3379 123.118 67.7492 121.334C66.5447 117.778 65.9452 113.97 65.9236 110.124C65.9452 106.272 66.5447 102.469 67.7546 98.9127C68.3433 97.1293 69.0725 95.4103 69.9421 93.7773C70.8063 92.1443 71.7623 90.5703 72.8534 89.12C77.169 83.2433 83.1589 79.0103 89.4622 76.7488C91.0447 76.1901 92.6381 75.7389 94.2369 75.4005C95.841 75.0889 97.4344 74.8311 99.0224 74.7398C102.193 74.498 105.293 74.7129 108.226 75.2554C111.159 75.7872 113.914 76.7058 116.431 77.8446C118.948 78.9888 121.232 80.3694 123.236 81.9111C127.265 84.9837 130.22 88.5774 132.272 92.01C134.33 95.4586 135.491 98.7462 136.183 101.47C136.847 104.209 137.079 106.396 137.155 107.873C137.231 109.35 137.204 110.129 137.204 110.129H137.193Z" fill="#291770"/>
<path d="M101.194 140.136C117.365 140.136 130.474 127.098 130.474 111.015C130.474 94.9325 117.365 81.8949 101.194 81.8949C85.0227 81.8949 71.9136 94.9325 71.9136 111.015C71.9136 127.098 85.0227 140.136 101.194 140.136Z" fill="#291770"/>
<path d="M101.437 102.173H100.87C98.8888 102.173 97.2831 103.77 97.2831 105.74V110.827C97.2831 112.797 98.8888 114.394 100.87 114.394H101.437C103.417 114.394 105.023 112.797 105.023 110.827V105.74C105.023 103.77 103.417 102.173 101.437 102.173Z" fill="#FAFAFA"/>
<path d="M101.15 116.725C98.0014 116.725 95.4467 114.179 95.4467 111.053C95.4467 110.902 95.5655 110.784 95.7167 110.784C95.868 110.784 95.9868 110.902 95.9868 111.053C95.9868 113.884 98.3039 116.188 101.15 116.188C104.191 116.188 106.314 114.072 106.314 111.053C106.314 110.902 106.433 110.784 106.584 110.784C106.735 110.784 106.854 110.902 106.854 111.053C106.854 114.389 104.51 116.725 101.15 116.725Z" fill="#FAFAFA"/>
<path d="M101.42 116.457H100.88V119.239H101.42V116.457Z" fill="white"/>
<path d="M104.532 119.384H97.7746C97.6233 119.384 97.5045 119.266 97.5045 119.116C97.5045 118.965 97.6233 118.847 97.7746 118.847H104.532C104.683 118.847 104.802 118.965 104.802 119.116C104.802 119.266 104.683 119.384 104.532 119.384Z" fill="white"/>
<path d="M95.4899 104.397C95.4521 104.467 95.0416 104.322 94.5555 104.118C94.0694 103.914 93.6805 103.715 93.7075 103.645C93.7291 103.575 94.1666 103.651 94.6689 103.866C95.1658 104.075 95.5277 104.333 95.4899 104.403V104.397Z" fill="white"/>
<path d="M97.6666 101.518C97.6017 101.566 97.2507 101.196 96.8834 100.696C96.5107 100.197 96.2622 99.7507 96.327 99.7077C96.3919 99.6594 96.7429 100.03 97.1102 100.53C97.4829 101.029 97.7314 101.475 97.6666 101.518Z" fill="white"/>
<path d="M101.172 100.487C101.096 100.487 101.037 100.019 101.042 99.4338C101.048 98.8482 101.118 98.3755 101.194 98.3809C101.269 98.3863 101.329 98.859 101.323 99.4338C101.318 100.009 101.248 100.481 101.172 100.487Z" fill="white"/>
<path d="M105.666 99.7292C105.731 99.7668 105.569 100.164 105.25 100.583C104.931 101.002 104.596 101.271 104.537 101.217C104.478 101.163 104.715 100.82 105.023 100.411C105.331 100.009 105.596 99.6862 105.666 99.7238V99.7292Z" fill="white"/>
<path d="M108.685 103.366C108.723 103.43 108.367 103.71 107.886 103.984C107.405 104.258 106.984 104.424 106.946 104.354C106.908 104.29 107.265 104.011 107.751 103.737C108.231 103.463 108.653 103.296 108.691 103.366H108.685Z" fill="white"/>
<path d="M142.416 55.8418C142.416 55.9278 140.547 55.9922 138.241 55.9922C135.934 55.9922 134.066 55.9224 134.066 55.8418C134.066 55.7612 135.934 55.6914 138.241 55.6914C140.547 55.6914 142.416 55.7612 142.416 55.8418Z" fill="#1E1E1E"/>
<path d="M142.416 53.6717C142.416 53.7576 140.547 53.8221 138.241 53.8221C135.934 53.8221 134.066 53.7522 134.066 53.6717C134.066 53.5911 135.934 53.5212 138.241 53.5212C140.547 53.5212 142.416 53.5911 142.416 53.6717Z" fill="#1E1E1E"/>
<path d="M142.416 51.5015C142.416 51.5874 140.547 51.6519 138.241 51.6519C135.934 51.6519 134.066 51.5821 134.066 51.5015C134.066 51.4209 135.934 51.3511 138.241 51.3511C140.547 51.3511 142.416 51.4209 142.416 51.5015Z" fill="#1E1E1E"/>
<path d="M59.1505 57.2439C59.1505 57.2439 59.2153 57.2385 59.3287 57.2331C59.4691 57.2331 59.6366 57.2224 59.8256 57.217C60.2955 57.2063 60.9113 57.1901 61.6674 57.174L61.6188 57.2277C61.6134 56.8195 61.6026 56.379 61.5972 55.8955C61.5972 55.6484 61.5756 55.4175 61.5972 55.1274C61.6458 54.8427 61.8997 54.5902 62.2184 54.5633C62.5154 54.558 62.7747 54.5419 63.0988 54.5633C63.4337 54.6009 63.7145 54.9233 63.7037 55.2724C63.7091 55.8902 63.7199 56.5402 63.7253 57.2116L63.6389 57.1257C64.3843 57.1203 65.162 57.1096 65.9668 57.1042L65.8804 57.1955C65.8696 56.2662 65.8642 55.2993 65.8534 54.3109C65.8534 54.0638 65.8534 53.822 65.848 53.5749C65.848 53.3493 65.7076 53.1989 65.5185 53.027C65.1729 52.6886 64.8326 52.3555 64.5031 52.0279C64.1682 51.7002 63.8441 51.3779 63.5201 51.0663C63.358 50.9105 63.2014 50.7548 63.0448 50.599C62.8827 50.4432 62.7531 50.282 62.5641 50.2444C62.3804 50.1961 62.1806 50.2337 62.0293 50.3465C61.8889 50.4647 61.7377 50.6312 61.5972 50.7709C61.311 51.0556 61.0301 51.3403 60.76 51.6089C60.2361 52.1514 59.6906 52.6456 59.2909 53.113C59.1235 53.3708 59.1883 53.6877 59.1721 53.9778C59.1721 54.2625 59.1721 54.5365 59.1721 54.7943C59.1721 55.2939 59.1667 55.7344 59.1613 56.105C59.1613 56.4381 59.1559 56.7174 59.1505 56.943C59.1505 57.1364 59.1451 57.2439 59.1397 57.2439C59.1397 57.2439 59.1289 57.1525 59.1235 56.9645C59.1181 56.7389 59.1073 56.4703 59.1019 56.1373C59.0911 55.7612 59.0857 55.3154 59.0695 54.8158C59.0695 54.5526 59.0587 54.2786 59.0533 53.9832C59.0533 53.8328 59.0533 53.6824 59.0479 53.5266C59.0479 53.3601 59.0911 53.1935 59.1775 53.0431C59.6096 52.5167 60.1227 52.0547 60.652 51.4961C60.9221 51.2221 61.1975 50.9428 61.4784 50.6527C61.6296 50.5077 61.7485 50.3626 61.9267 50.2122C62.1104 50.0725 62.3696 50.0188 62.6019 50.0779C62.8503 50.1316 63.0124 50.3358 63.1582 50.4754C63.3148 50.6312 63.4769 50.7816 63.6335 50.9428C63.9576 51.2543 64.2816 51.5766 64.6165 51.9043C64.9514 52.232 65.2917 52.565 65.6374 52.8981C65.7184 52.984 65.8156 53.0592 65.8966 53.1774C65.9722 53.2902 66.0154 53.4299 66.0208 53.5696C66.0208 53.8113 66.0208 54.0584 66.0262 54.3055C66.0316 55.2939 66.0424 56.2554 66.0479 57.1901V57.2815H65.9614C65.162 57.2815 64.3843 57.2922 63.6335 57.2976H63.5471V57.2116C63.5471 56.5402 63.5417 55.8902 63.5363 55.2724C63.5471 54.9931 63.3256 54.746 63.0664 54.7084C62.7963 54.6923 62.483 54.7084 62.2238 54.7084C61.9753 54.7299 61.7647 54.9286 61.7215 55.1596C61.6999 55.3906 61.7215 55.6646 61.7107 55.9009C61.7107 56.379 61.7107 56.8249 61.7107 57.2331V57.2868H61.662C60.8951 57.2815 60.2685 57.2761 59.7878 57.2761C59.5988 57.2761 59.4367 57.2707 59.3017 57.2653C59.1937 57.2653 59.1397 57.26 59.1397 57.2546L59.1505 57.2439Z" fill="#1E1E1E"/>
</g>
</g>
<defs>
<clipPath id="clip0_725_5694">
<rect width="200" height="200" rx="100" fill="white"/>
</clipPath>
<clipPath id="clip1_725_5694">
<rect width="112" height="227" fill="white" transform="translate(44 28)"/>
</clipPath>
</defs>
</svg>
