<svg width="324" height="50" viewBox="0 0 324 50" fill="none" xmlns="http://www.w3.org/2000/svg">
<g clip-path="url(#clip0_380_2323)">
<path fill-rule="evenodd" clip-rule="evenodd" d="M52.6406 0H54.9177C55.82 0.0747728 56.7084 0.224318 57.6036 0.373865C55.2914 3.861 52.9861 7.34814 50.6526 10.8217C52.1402 8.17743 53.7193 5.58757 55.2279 2.95693C51.8863 2.65103 48.3968 3.35118 45.6191 5.22051C44.1247 6.21294 43.1166 7.7084 42.1155 9.13589C39.3239 13.2824 36.8776 17.6328 34.1565 21.8201C32.2107 24.8245 30.1945 27.8088 27.713 30.4326C26.4794 31.6765 25.1328 32.9341 23.4198 33.5186C21.9181 33.9401 20.3461 33.9333 18.8022 34.1032C20.2968 33.8314 21.9041 33.8993 23.2788 33.1924C25.4008 32.03 26.9234 30.1131 28.3615 28.2574C33.4867 21.2967 36.9411 13.364 41.5233 6.0838C36.1092 2.4811 29.1441 1.14199 22.7289 2.57626C17.4064 3.71825 12.5985 6.74315 9.20763 10.8421C7.48751 10.6381 5.73919 10.8625 4.13892 11.481C6.31726 8.35417 9.18648 5.66915 12.5704 3.76583C17.1667 1.14199 22.6443 0 27.9668 0.516612C32.9439 0.96525 37.7447 2.91615 41.615 5.96143C43.8427 2.2228 48.3404 0.353472 52.6406 0Z" fill="#AEA5CC"/>
<path fill-rule="evenodd" clip-rule="evenodd" d="M1.90916 15.3675C0.0198487 19.7723 -0.501827 24.7209 0.499226 29.3976C1.45798 34.1762 3.98177 38.6286 7.5348 42.075C14.1474 48.7909 25.0251 51.0545 33.9782 47.8257C38.3207 46.2486 42.3602 43.6995 45.2223 40.1444C40.8092 42.0682 35.8181 42.6187 31.0384 41.905C22.4026 40.6203 14.1686 35.6649 9.93874 28.1876C8.19747 25.02 6.82278 21.2541 8.01418 17.6854C8.66275 15.9657 9.53691 13.9603 11.5179 13.3486C9.78365 12.7232 7.91548 12.2814 6.05437 12.5601C4.3272 12.7979 2.66347 13.8176 1.90916 15.3675Z" fill="#AEA5CC"/>
<path fill-rule="evenodd" clip-rule="evenodd" d="M50.2457 16.5249C48.8217 16.688 47.3483 17.021 46.1992 17.8843C44.2253 19.3118 42.6179 21.1335 41.053 22.9554C38.4728 26.0686 35.7515 29.0663 33.0445 32.0776C31.7544 33.4712 30.3092 34.8579 28.427 35.4696C25.9807 36.2513 23.3371 36.2105 20.8274 35.7347C22.4559 36.7475 24.0843 37.7807 25.8538 38.5625C29.0262 38.9499 32.2267 37.9983 34.8774 36.3465C38.9521 33.913 41.9341 30.1335 46.0794 27.7951C47.4329 26.9455 48.9133 26.2317 50.5348 26.0279C53.0021 23.0437 55.3426 19.9712 57.669 16.892C55.2228 16.5045 52.7201 16.2665 50.2457 16.5249Z" fill="#AEA5CC"/>
<path fill-rule="evenodd" clip-rule="evenodd" d="M50.5724 26.0355C52.9764 25.6819 55.4438 26.1782 57.6432 27.1299C54.9009 30.651 52.1375 34.1789 48.9581 37.3534C46.3214 40.0384 42.3525 40.99 38.6373 41.126C34.2666 41.228 29.8394 40.385 25.8845 38.5701C29.0568 38.9576 32.2573 38.0059 34.9081 36.3541C38.9828 33.9206 41.9648 30.1411 46.11 27.8029C47.4705 26.9531 48.951 26.2326 50.5724 26.0355Z" fill="#CAC1DE"/>
<path fill-rule="evenodd" clip-rule="evenodd" d="M69.0366 45.4545V0H70.173V45.4545H69.0366Z" fill="#AEA5CC"/>
<path fill-rule="evenodd" clip-rule="evenodd" d="M85.4366 0.00782717C91.6616 -1.68273e-07 97.8909 0.00391381 104.116 0.00391381C103.864 1.88248 103.611 3.76495 103.359 5.64743C101.251 5.64743 99.1393 5.64743 97.0314 5.64743C96.2918 10.8644 95.5522 16.0812 94.8126 21.2982C92.2516 21.2982 89.6863 21.2982 87.1211 21.2982C87.8608 16.0812 88.6004 10.8644 89.34 5.64743C86.7406 5.64351 84.1411 5.65134 81.5417 5.64351C82.8243 3.76103 84.1455 1.89422 85.4366 0.00782717ZM106.446 0.0234817C105.788 5.54959 105.133 11.0796 104.479 16.6057C104.308 18.1751 104.026 19.7366 103.799 21.2982C106.395 21.2982 108.986 21.2982 111.581 21.2982C111.777 19.9636 111.965 18.6251 112.162 17.2906C114.66 17.2867 117.156 17.2984 119.653 17.2827C121.915 17.2515 124.172 15.6939 124.463 13.5805C124.912 10.2499 125.364 6.91937 125.805 3.58492C126.006 2.2895 125.176 0.954936 123.873 0.42659C123.154 0.0978419 122.338 0.0195685 121.539 0.0352232C116.51 0.0313095 111.478 0.0273955 106.446 0.0234817ZM113.804 5.65134C115.155 5.65134 116.506 5.65134 117.857 5.65134C117.584 7.42815 117.319 9.20495 117.045 10.9779C117.028 11.3262 116.724 11.6549 116.326 11.6392C115.189 11.6627 114.056 11.6392 112.919 11.6432C113.218 9.64719 113.496 7.64732 113.804 5.65134ZM131.589 1.16627C131.851 0.414849 132.714 -0.0234819 133.552 0.00391381C137.246 0.00782748 140.944 -1.68273e-07 144.638 0.00782717C145.347 -0.0313095 146.114 0.403108 146.126 1.10757C146.947 7.83908 147.759 14.5706 148.576 21.2982C145.947 21.2982 143.317 21.2982 140.688 21.2982C140.547 20.0653 140.41 18.8326 140.269 17.5959C137.772 17.6155 135.271 17.6507 132.769 17.6741C132.316 18.8678 131.905 20.081 131.431 21.2708C130.564 21.1886 129.687 21.2551 128.819 21.2356C127.075 21.2512 125.334 21.2043 123.595 21.2591C126.228 14.551 128.93 7.86257 131.589 1.16627ZM137.378 6.41059C136.579 8.36351 135.78 10.3204 134.984 12.2733C136.532 12.2733 138.08 12.2733 139.627 12.2733C139.396 10.3204 139.153 8.36743 138.917 6.41059C138.405 6.41059 137.892 6.41059 137.378 6.41059ZM153.566 0.00391381C156.157 0.00391381 158.743 0.00391381 161.334 0.00391381C160.948 2.67303 160.572 5.34608 160.192 8.01519C161.654 8.01911 163.116 8.01519 164.578 8.01911C164.968 5.34608 165.34 2.67303 165.724 0C168.456 0.00391367 171.192 -0.00391353 173.924 0.00391381C172.928 7.0994 171.945 14.1988 170.949 21.2943C168.217 21.2943 165.489 21.2943 162.757 21.2943C163.112 18.77 163.476 16.2457 163.83 13.7214C162.368 13.7214 160.902 13.7214 159.44 13.7214C159.081 16.2457 158.721 18.77 158.367 21.2943C155.78 21.2943 153.189 21.2943 150.599 21.2943C151.585 14.2027 152.578 7.10332 153.566 0.00391381ZM198.555 0.00391381C201.141 0.00782748 203.729 0.00391381 206.315 0.00391381C205.939 2.67695 205.555 5.34608 205.178 8.01911C206.64 8.01911 208.107 8.01911 209.569 8.01911C209.953 5.34608 210.326 2.67303 210.715 0C213.447 0.00391367 216.178 1.37846e-07 218.91 0.00391381C217.919 7.10332 216.931 14.1987 215.939 21.2982C213.207 21.2982 210.475 21.2982 207.743 21.2982C208.107 18.7739 208.462 16.2495 208.821 13.7292C207.354 13.7292 205.892 13.7292 204.426 13.7292C204.066 16.2535 203.707 18.7778 203.348 21.3022C200.762 21.3022 198.171 21.3022 195.58 21.3022C196.576 14.2027 197.564 7.0994 198.555 0.00391381ZM276.034 0.00391381C283.713 0.00391381 291.387 1.37846e-07 299.066 0.00391381C297.817 1.88639 296.569 3.76886 295.324 5.64743C293.473 5.64743 291.623 5.64743 289.775 5.64743C289.027 10.8644 288.292 16.0812 287.552 21.2982C284.987 21.3022 282.421 21.2982 279.861 21.2982C280.596 16.0812 281.34 10.8644 282.075 5.64743C279.805 5.64743 277.543 5.64743 275.273 5.64743C275.525 3.76886 275.777 1.88639 276.034 0.00391381ZM300.297 0.00391381C299.301 7.08766 298.3 14.1675 297.343 21.2551C298.51 21.2043 299.682 21.2512 300.853 21.2356C304.854 21.2591 308.861 21.1925 312.867 21.2708C314.5 21.1534 316.09 20.3081 316.89 18.9813C317.395 18.183 317.412 17.2358 317.553 16.3435C317.95 13.5805 318.306 10.8096 318.728 8.05042V7.39292C318.612 6.28927 317.83 5.28736 316.736 4.82165C315.688 4.32852 314.479 4.42636 313.345 4.42244C311.371 4.42244 309.399 4.42244 307.424 4.42244C307.642 2.95091 307.865 1.47936 308.083 0.00782717C305.488 0.0039135 302.892 0.00391381 300.297 0.00391381ZM305.847 15.6742C306.12 13.8074 306.394 11.9406 306.668 10.0738C308.01 10.0738 309.353 10.0738 310.694 10.0738C310.429 11.7175 310.242 13.3731 309.895 15.0011C309.814 15.2516 309.763 15.6977 309.378 15.6625C308.202 15.6899 307.027 15.6665 305.847 15.6742ZM175.694 4.7238C175.135 8.54355 174.618 12.3672 174.065 16.1909C173.89 17.1653 173.967 18.2025 174.506 19.0752C175.315 20.4685 177.007 21.2747 178.692 21.3843H188.119C190.71 21.0947 193.198 19.4157 193.805 17.0244C194.062 15.7603 194.152 14.4767 194.344 13.2048C191.761 13.2048 189.184 13.2048 186.606 13.2048C186.49 13.8975 186.375 14.5901 186.268 15.2828C184.797 15.2907 183.331 15.279 181.864 15.2907C182.321 12.0893 182.847 8.89577 183.301 5.69439C184.792 5.71005 186.285 5.71395 187.777 5.7257C187.665 6.41842 187.558 7.11506 187.448 7.81168C190.022 7.81168 192.591 7.81168 195.17 7.81168C195.328 6.5006 195.541 5.18952 195.682 3.87453C195.78 2.9196 195.408 1.90987 194.605 1.27977C193.437 0.356144 191.83 0.0900144 190.329 0.0939281C187.486 0.105669 184.639 0.0782732 181.796 0.105669C178.962 0.187856 176.148 2.0899 175.694 4.7238ZM221.51 0.0939281C220.522 7.18941 219.53 14.2849 218.543 21.3803H237.534C237.786 19.5214 238.039 17.6585 238.287 15.7995C234.542 15.7956 230.796 15.7995 227.051 15.7995C227.183 14.915 227.321 14.0344 227.457 13.1499C231.194 13.1422 234.926 13.1147 238.658 13.1147C238.885 11.5063 239.112 9.90159 239.338 8.29307C235.601 8.29698 231.861 8.32829 228.124 8.32829C228.256 7.44381 228.394 6.56323 228.53 5.67874C232.272 5.67874 236.007 5.67874 239.749 5.67874C240.001 3.81583 240.253 1.95684 240.501 0.0939281C234.174 0.0939281 227.841 0.0939281 221.51 0.0939281ZM242.725 2.47735C243.58 0.982332 245.426 0.0743594 247.252 0.105669C254.213 0.109582 261.169 0.101755 268.124 0.109583C269.377 0.125237 270.732 0 271.861 0.606619C273.075 1.18584 273.777 2.48127 273.58 3.71407C273.144 7.00547 272.699 10.293 272.259 13.5805C272.011 15.7094 269.762 17.3101 267.492 17.3572C264.974 17.3728 262.456 17.3572 259.941 17.361C259.749 18.6995 259.548 20.038 259.36 21.3765H251.566C251.797 20.038 251.981 18.6917 252.19 17.3493C249.808 17.3493 247.428 17.3493 245.046 17.3493C244.311 17.3493 243.563 17.2632 242.9 16.958C241.827 16.4961 241.01 15.5216 240.907 14.4297C240.843 13.6783 241.031 12.9347 241.121 12.1872C241.467 9.67851 241.818 7.16984 242.164 4.66118C242.259 3.92541 242.322 3.14659 242.725 2.47735ZM248.915 11.7097C250.253 11.7097 251.592 11.7097 252.93 11.7097C253.276 9.71765 253.567 7.71776 253.793 5.71395C252.443 5.71395 251.091 5.71395 249.745 5.71395C249.466 7.71384 249.189 9.70982 248.915 11.7097ZM260.698 11.7215C261.861 11.7136 263.024 11.737 264.187 11.7136C264.559 11.737 264.811 11.4201 264.816 11.1031C265.089 9.31063 265.358 7.52208 265.632 5.73352C264.277 5.73352 262.925 5.73352 261.575 5.73352C261.279 7.72559 260.989 9.72548 260.698 11.7215Z" fill="#AEA5CC"/>
<path d="M192.834 32.6256H189.021L186.924 39.151H193.405L192.834 32.6256ZM193.929 45.2001L193.691 42.4852H185.828L184.971 45.2001H181.73L186.543 30.2917C186.734 29.7201 187.258 29.3391 187.83 29.3391H194.834C195.406 29.3391 195.883 29.7677 195.883 30.2917L197.217 45.2001H193.929Z" fill="#AEA5CC"/>
<path d="M140.595 32.6256H136.782L134.685 39.151H141.166L140.595 32.6256ZM141.69 45.2001L141.452 42.4852H133.589L132.732 45.2001H129.491L134.304 30.2917C134.494 29.7201 135.018 29.3391 135.59 29.3391H142.595C143.167 29.3391 143.644 29.7677 143.644 30.2917L144.978 45.2001H141.69Z" fill="#AEA5CC"/>
<path d="M107.574 32.6256H103.762L101.666 39.151H108.146L107.574 32.6256ZM108.67 45.2001L108.432 42.4852H100.57L99.7119 45.2001H96.4717L101.284 30.2917C101.475 29.7201 101.999 29.3391 102.571 29.3391H109.576C110.147 29.3391 110.624 29.7677 110.624 30.2917L111.958 45.2001H108.67Z" fill="#AEA5CC"/>
<path fill-rule="evenodd" clip-rule="evenodd" d="M154.607 32.6732C154.083 32.6732 153.607 33.102 153.559 33.6734L152.796 40.2942C152.704 40.8009 152.568 41.3968 152.214 41.8664H158.282L159.373 32.6732H154.607ZM161.53 41.8664L162.993 29.3391H154.512C152.511 29.3391 150.7 31.0062 150.462 33.102L149.556 40.6752C149.481 41.3883 149.14 41.7465 148.813 41.8664H146.745L146.364 45.2482H163.613L164.043 41.8664H161.53Z" fill="#AEA5CC"/>
<path d="M95.7208 39.4368L95.4825 41.4373C95.2442 43.4855 93.4335 45.2001 91.4322 45.2001H84.6657C82.712 45.2001 81.3302 43.4855 81.5685 41.4373L81.7114 40.1989H84.904L84.8087 41.0563C84.7611 41.5325 85.047 41.9137 85.4758 41.9137H91.4322C91.861 41.9137 92.2423 41.5325 92.2899 41.0563L92.4328 39.7702C92.4804 39.2939 92.1945 38.9605 91.7657 38.9605H85.8093L86.1905 35.5788H92.1469C92.5758 35.5788 92.957 35.1976 93.0046 34.769L93.1477 33.5306C93.1953 33.0542 92.9094 32.6732 92.4804 32.6732H86.5241C86.0953 32.6732 85.7141 33.102 85.6664 33.5306L85.5711 34.3404H82.3785L82.5215 33.102C82.7597 31.0062 84.5704 29.3391 86.5241 29.3391H93.2906C95.2919 29.3391 96.7214 31.0062 96.4355 33.102L96.1972 35.1024C96.0543 36.2456 95.0537 37.1029 93.9577 37.1982V37.341C95.1013 37.3887 95.8637 38.3413 95.7208 39.4368Z" fill="#AEA5CC"/>
<path d="M176.295 45.2477L177.01 38.9605H169.909L169.147 45.2477H165.955L167.813 29.3391H171.006L170.291 35.5787H177.391L178.153 29.3391H181.346L179.487 45.2477H176.295Z" fill="#AEA5CC"/>
<path d="M124.126 45.2477L125.603 32.6732H118.503L117.025 45.2477H113.833L115.692 29.3391H129.177L127.318 45.2477H124.126Z" fill="#AEA5CC"/>
<path d="M203.674 33.1496C203.722 32.9114 203.912 32.7208 204.151 32.7208H211.013L210.489 37.0076H203.627C203.388 37.0076 203.246 36.8648 203.246 36.6266L203.674 33.1496ZM199.767 37.4363C199.576 38.9129 200.576 40.1989 202.054 40.3418L198.623 45.2477H202.483L205.914 40.3418H210.059L209.44 45.2477H212.824L214.777 29.3391H203.674C202.102 29.3391 200.576 30.6251 200.387 32.2446L199.767 37.4363Z" fill="#AEA5CC"/>
<path d="M269.133 41.4852C269.085 41.7234 268.942 41.9139 268.704 41.9139H262.175L262.509 38.9131H269.085C269.324 38.9131 269.419 39.056 269.419 39.2941L269.133 41.4852ZM270.228 35.5313H262.89L263.223 32.6733H272.325L272.707 29.3391H263.605H260.412L260.031 32.6733L258.554 45.2482H269.085C270.657 45.2482 272.039 43.9621 272.23 42.3426L272.659 38.5321C272.849 36.8649 271.753 35.5313 270.228 35.5313Z" fill="#AEA5CC"/>
<path d="M277.484 45.2482L285.584 34.8167H285.679L284.44 45.2482H287.634L289.491 29.3391H286.156L278.056 39.7705H277.96L279.199 29.3391H276.006L274.147 45.2482H277.484Z" fill="#AEA5CC"/>
<path d="M245.594 45.2482L253.695 34.8167H253.79L252.552 45.2482H255.744L257.603 29.3391H254.267L246.166 39.7705H246.071L247.31 29.3391H244.116L242.259 45.2482H245.594Z" fill="#AEA5CC"/>
<path d="M302.904 33.102C302.95 32.8639 302.808 32.6733 302.569 32.6733H295.66L295.136 36.9601H302.045C302.284 36.9601 302.474 36.8173 302.474 36.5791L302.904 33.102ZM305.715 37.3889C305.524 39.0083 304.047 40.3421 302.426 40.3421H294.707L294.087 45.2482H290.752L292.705 29.3391H303.809C305.429 29.3391 306.572 30.6251 306.381 32.2446L305.715 37.3889Z" fill="#AEA5CC"/>
<path d="M240.289 39.5323L240.051 41.4376C239.812 43.4858 237.907 45.2005 235.857 45.2005H229.139C227.09 45.2005 225.612 43.4858 225.851 41.4376L226.899 33.102C227.137 31.0062 229.043 29.3391 231.093 29.3391H237.811C239.86 29.3391 241.338 31.0062 241.099 33.102L240.86 34.9597H237.477L237.62 33.6735C237.668 33.102 237.335 32.6733 236.763 32.6733H231.283C230.758 32.6733 230.234 33.102 230.139 33.6735L229.282 40.8184C229.234 41.3423 229.615 41.8187 230.139 41.8187H235.62C236.191 41.8187 236.668 41.3423 236.763 40.8184L236.905 39.4847H240.289V39.5323Z" fill="#AEA5CC"/>
<path d="M318.507 41.4376C318.459 41.6757 318.316 41.8663 318.078 41.8663H311.168L311.693 37.5795H318.602C318.84 37.5795 318.983 37.7223 318.935 37.9605L318.507 41.4376ZM322.366 37.1507C322.557 35.5313 321.414 34.2451 319.793 34.2451H312.073L312.693 29.3391H309.31L307.355 45.2482H318.459C320.079 45.2482 321.556 43.9621 321.747 42.3426L322.366 37.1507Z" fill="#AEA5CC"/>
</g>
<defs>
<clipPath id="clip0_380_2323">
<rect width="324" height="50" fill="white"/>
</clipPath>
</defs>
</svg>
