<svg width="320" height="50" viewBox="0 0 320 50" fill="none" xmlns="http://www.w3.org/2000/svg">
<g clip-path="url(#clip0_380_2297)">
<path d="M51.1435 25.9318C47.4653 27.0606 44.5742 28.6439 42.4703 30.6818C37.8537 35.1439 32.9154 37.9583 27.6555 39.1249" stroke="#CAC1DE" stroke-width="2"/>
<path d="M52.3356 0H56.0819C56.3619 0.181818 56.7555 0.291667 57.2625 0.329545C57.6561 0.352273 57.7431 0.526515 57.5236 0.852273L55.0375 4.60227C54.9542 4.73106 54.8558 4.78788 54.7423 4.77273C54.7272 4.77273 54.7083 4.76894 54.6856 4.76136C54.6401 4.75379 54.6174 4.74621 54.6174 4.73864L55.2191 3.48864C55.431 3.04167 55.291 2.81061 54.7991 2.79545C48.6234 2.60227 45.0928 4.97727 41.6985 10.3409C36.7035 18.2614 32.2647 27.4773 24.6019 33.3523C24.4657 33.4508 24.3446 33.4356 24.2386 33.3068L24.2273 33.2955C24.1213 33.1667 24.1327 33.0492 24.2613 32.9432C27.2811 30.2689 29.8013 27.1742 31.822 23.6591C35.1369 17.8939 38.4328 12.1136 41.7099 6.31818C43.6776 2.84091 47.2195 0.734849 52.3356 0Z" fill="#AEA5CC"/>
<path d="M69.4662 0H70.556V44.9432C70.556 45.2159 70.4198 45.3561 70.1473 45.3636L69.7841 45.375C69.5494 45.3826 69.4321 45.2689 69.4321 45.0341L69.4662 0Z" fill="#AEA5CC"/>
<path d="M85.7793 0H104.477L103.727 5.19318C103.674 5.51894 103.485 5.68182 103.16 5.68182H97.8809C97.5327 5.68182 97.3322 5.85227 97.2792 6.19318L95.179 20.9432C95.1488 21.1856 95.005 21.3068 94.7477 21.3068H87.9703C87.6525 21.2992 87.5124 21.1402 87.5503 20.8295L89.6164 6.30682C89.6694 5.89015 89.4877 5.68182 89.0715 5.68182H82.771C82.1806 5.68182 82.052 5.43939 82.385 4.95455L85.7793 0Z" fill="#AEA5CC"/>
<path d="M106.815 0H123.287C125.285 1 126.239 2.10227 125.944 4.48864C125.581 7.54545 125.444 13.7045 123.39 15.7955C121.085 18.1364 116.783 17.2159 112.923 17.3864C112.59 17.4015 112.401 17.572 112.355 17.8977L111.981 20.5227C111.905 21.0455 111.606 21.3068 111.084 21.3068H104.965C104.42 21.3068 104.182 21.0379 104.25 20.5L106.815 0ZM113.286 11.2045C113.278 11.2613 113.282 11.3192 113.298 11.3742C113.315 11.4293 113.343 11.4801 113.38 11.5233C113.418 11.5665 113.465 11.601 113.517 11.6244C113.569 11.6478 113.626 11.6597 113.683 11.6591L116.907 11.6477C117.004 11.6487 117.097 11.6147 117.17 11.552C117.243 11.4893 117.291 11.4022 117.305 11.3068L118.088 6.13636C118.096 6.07958 118.092 6.02168 118.076 5.96666C118.06 5.91165 118.032 5.8608 117.994 5.81762C117.956 5.77444 117.909 5.73994 117.857 5.7165C117.805 5.69306 117.748 5.68123 117.691 5.68182L114.433 5.67045C114.338 5.67219 114.248 5.70743 114.177 5.76988C114.106 5.83234 114.06 5.91793 114.047 6.01136L113.286 11.2045Z" fill="#AEA5CC"/>
<path d="M132.574 0H146.151L148.717 20.5909C148.777 21.0682 148.569 21.3068 148.092 21.3068H141.78C141.198 21.3068 140.88 21.0152 140.827 20.4318L140.611 18.125C140.573 17.7841 140.384 17.6136 140.043 17.6136H133.573C133.398 17.6136 133.227 17.6684 133.084 17.7703C132.942 17.8721 132.835 18.016 132.778 18.1818L131.972 20.4545C131.775 21.0227 131.374 21.3068 130.769 21.3068H124.752C124.177 21.3068 123.999 21.0417 124.218 20.5114L132.574 0ZM139.862 11.8864L139.43 8.53409C139.007 5.20833 138.159 5.0947 136.888 8.19318L135.366 11.9318C135.283 12.1364 135.351 12.2386 135.571 12.2386L139.578 12.2045C139.798 12.2045 139.892 12.0985 139.862 11.8864Z" fill="#AEA5CC"/>
<path d="M153.836 0H161.545L160.478 7.30682C160.466 7.38687 160.472 7.46842 160.495 7.54602C160.518 7.62362 160.556 7.69547 160.609 7.75678C160.662 7.81809 160.727 7.86745 160.8 7.90156C160.873 7.93566 160.953 7.95373 161.034 7.95455H164.247C164.425 7.95121 164.596 7.8853 164.729 7.76865C164.862 7.65201 164.949 7.49229 164.973 7.31818L165.995 0H174.157L171.205 20.9545C171.175 21.1894 171.039 21.3068 170.797 21.3068H163.327C163.287 21.3073 163.247 21.2989 163.21 21.2821C163.173 21.2653 163.14 21.2404 163.113 21.2093C163.086 21.1781 163.066 21.1413 163.054 21.1012C163.042 21.0612 163.038 21.019 163.043 20.9773L164.008 13.9773C164.015 13.935 164.012 13.8918 163.999 13.8506C163.987 13.8094 163.965 13.7713 163.936 13.7389C163.907 13.7065 163.871 13.6805 163.83 13.6628C163.79 13.6451 163.746 13.6361 163.702 13.6364H159.978C159.728 13.6364 159.588 13.7614 159.558 14.0114L158.616 21.0114C158.607 21.0957 158.568 21.1739 158.505 21.2307C158.442 21.2874 158.36 21.3186 158.275 21.3182L151.169 21.3068C151.131 21.3074 151.094 21.2996 151.06 21.2839C151.026 21.2683 150.995 21.2451 150.971 21.216C150.946 21.1869 150.928 21.1526 150.917 21.1153C150.906 21.0781 150.903 21.0387 150.908 21L153.836 0Z" fill="#AEA5CC"/>
<path d="M180.9 0H192.355C195.632 1.13636 196.601 3.5303 195.261 7.18182C195.14 7.50758 194.905 7.67045 194.557 7.67045H188.291C187.867 7.67045 187.697 7.46212 187.78 7.04545L187.928 6.30682C188.011 5.89015 187.84 5.68182 187.417 5.68182H184.352C183.761 5.68182 183.421 5.97727 183.33 6.56818L182.138 14.7727C182.126 14.8476 182.131 14.9241 182.153 14.9969C182.175 15.0697 182.212 15.137 182.263 15.1943C182.314 15.2516 182.376 15.2974 182.447 15.3286C182.518 15.3598 182.594 15.3756 182.671 15.375L186.032 15.3295C186.38 15.322 186.569 15.1477 186.599 14.8068L186.701 13.7159C186.747 13.2841 186.985 13.0682 187.417 13.0682H193.717C194.065 13.0682 194.255 13.2424 194.285 13.5909C195.034 23.375 184.204 21.3523 178.403 21.2614C177.804 21.2523 177.214 21.1163 176.672 20.8623C176.13 20.6084 175.648 20.2422 175.257 19.7879C174.867 19.3337 174.577 18.8017 174.407 18.2271C174.237 17.6525 174.19 17.0484 174.271 16.4545C174.732 13.0303 175.266 9.24621 175.871 5.10227C176.242 2.58712 177.919 0.886364 180.9 0Z" fill="#AEA5CC"/>
<path d="M198.803 0H206.534L205.387 7.59091C205.35 7.83333 205.452 7.95455 205.694 7.95455H209.338C209.626 7.95455 209.788 7.81061 209.826 7.52273L210.961 0H219.044L216.115 20.8068C216.07 21.1477 215.873 21.3182 215.525 21.3182L208.475 21.2955C208.082 21.2955 207.911 21.1023 207.964 20.7159L208.986 13.8977C208.991 13.8667 208.989 13.8349 208.981 13.8046C208.972 13.7743 208.957 13.7463 208.936 13.7225C208.916 13.6987 208.89 13.6797 208.862 13.6667C208.833 13.6538 208.802 13.6473 208.77 13.6477L204.831 13.6364C204.758 13.6359 204.688 13.6623 204.634 13.7105C204.579 13.7588 204.544 13.8254 204.536 13.8977L203.503 21.1023C203.488 21.2311 203.416 21.2955 203.287 21.2955L196.067 21.3068C195.893 21.3068 195.821 21.2197 195.851 21.0455L198.803 0Z" fill="#AEA5CC"/>
<path d="M221.735 0H240.636L239.944 5.19318C239.898 5.51894 239.713 5.68182 239.388 5.68182H229.205C228.819 5.68182 228.599 5.87121 228.546 6.25L228.319 7.76136C228.274 8.07955 228.414 8.23864 228.739 8.23864H239.149C239.346 8.23864 239.429 8.33712 239.399 8.53409L238.752 12.6705C238.736 12.7802 238.68 12.8806 238.595 12.9535C238.509 13.0264 238.4 13.0671 238.286 13.0682L228.137 13.0568C227.789 13.0568 227.585 13.2311 227.524 13.5795L227.218 15.2727C227.135 15.697 227.309 15.9091 227.74 15.9091L238.025 15.9205C238.077 15.9198 238.128 15.9306 238.176 15.9521C238.223 15.9736 238.265 16.0054 238.3 16.0452C238.334 16.085 238.36 16.132 238.375 16.183C238.391 16.234 238.395 16.2878 238.389 16.3409L237.662 20.9205C237.617 21.178 237.462 21.3068 237.197 21.3068H219.305C218.942 21.3068 218.787 21.125 218.84 20.7614L221.735 0Z" fill="#AEA5CC"/>
<path d="M246.698 0H270.879C272.953 0.856061 273.88 2.03409 273.66 3.53409C273.217 6.59091 273.036 13.6364 271.083 15.6932C268.733 18.1591 264.397 17.2273 260.503 17.375C260.162 17.3902 259.969 17.5644 259.924 17.8977L259.549 20.5341C259.474 21.0492 259.175 21.3068 258.652 21.3068H252.431C251.917 21.3068 251.705 21.053 251.796 20.5455L252.238 17.9545C252.306 17.5379 252.125 17.3295 251.693 17.3295H244.314C243.859 17.3287 243.408 17.2325 242.992 17.0472C242.576 16.8619 242.204 16.5916 241.9 16.254C241.596 15.9163 241.366 15.5188 241.227 15.0874C241.088 14.656 241.041 14.2003 241.09 13.75C241.579 9.11364 241.17 1 246.698 0ZM253.862 6.10227C253.868 6.04935 253.863 5.99566 253.847 5.94477C253.831 5.89389 253.805 5.84699 253.769 5.8072C253.734 5.76741 253.69 5.73565 253.642 5.71403C253.593 5.69241 253.54 5.68142 253.487 5.68182H250.184C250.093 5.68078 250.006 5.71239 249.937 5.77085C249.868 5.82931 249.823 5.91068 249.809 6L249.048 11.2273C249.04 11.2811 249.044 11.336 249.059 11.3883C249.074 11.4406 249.1 11.4889 249.136 11.53C249.171 11.5711 249.216 11.6039 249.265 11.6262C249.315 11.6485 249.369 11.6597 249.423 11.6591L252.783 11.6477C252.874 11.6488 252.961 11.6172 253.03 11.5587C253.099 11.5002 253.144 11.4189 253.158 11.3295L253.862 6.10227ZM260.855 11.2045C260.845 11.2622 260.848 11.3213 260.863 11.3777C260.878 11.4342 260.906 11.4865 260.944 11.531C260.982 11.5755 261.029 11.6111 261.083 11.6352C261.136 11.6593 261.194 11.6713 261.252 11.6705L264.476 11.625C264.569 11.6237 264.658 11.5901 264.729 11.5299C264.799 11.4697 264.846 11.3868 264.862 11.2955L265.657 6.14773C265.665 6.09094 265.661 6.03305 265.645 5.97803C265.628 5.92301 265.6 5.87216 265.563 5.82898C265.525 5.7858 265.478 5.75131 265.426 5.72787C265.374 5.70442 265.317 5.69259 265.259 5.69318L262.001 5.67045C261.907 5.67219 261.816 5.70743 261.746 5.76988C261.675 5.83234 261.629 5.91793 261.615 6.01136L260.855 11.2045Z" fill="#AEA5CC"/>
<path d="M276.248 0H298.953L295.57 5.26136C295.388 5.54167 295.127 5.68182 294.787 5.68182H290.325C290.187 5.68242 290.053 5.73093 289.949 5.81853C289.845 5.90613 289.777 6.02699 289.758 6.15909L287.658 20.7955C287.612 21.1439 287.412 21.3182 287.056 21.3182L280.551 21.3068C280.15 21.3068 279.976 21.1061 280.029 20.7045L282.072 6.32955C282.133 5.89773 281.944 5.68182 281.505 5.68182H276.055C275.579 5.68182 275.378 5.44697 275.454 4.97727L276.248 0Z" fill="#AEA5CC"/>
<path d="M300.349 0H308.183L307.535 3.89773C307.467 4.32955 307.649 4.54545 308.08 4.54545H315.471C315.933 4.54597 316.389 4.64552 316.81 4.83739C317.23 5.02927 317.604 5.30903 317.908 5.65784C318.211 6.00666 318.436 6.41646 318.568 6.85966C318.7 7.30286 318.735 7.76918 318.672 8.22727L317.389 17.5C317.244 18.5513 316.724 19.5146 315.925 20.2122C315.126 20.9097 314.102 21.2945 313.041 21.2955L297.965 21.3068C297.595 21.3144 297.436 21.1326 297.489 20.7614L300.349 0ZM310.68 10.4659C310.69 10.4017 310.686 10.3362 310.668 10.2737C310.65 10.2112 310.619 10.1533 310.577 10.1037C310.536 10.0542 310.483 10.0142 310.425 9.98655C310.366 9.95886 310.302 9.94407 310.237 9.94318H307.07C306.961 9.94194 306.854 9.98036 306.771 10.0514C306.687 10.1224 306.632 10.2212 306.616 10.3295L305.912 15.1364C305.904 15.2006 305.91 15.2659 305.929 15.3278C305.948 15.3897 305.98 15.4468 306.023 15.4952C306.066 15.5436 306.119 15.5823 306.178 15.6086C306.237 15.6349 306.301 15.6482 306.366 15.6477L309.465 15.6136C309.571 15.6126 309.673 15.5746 309.754 15.5061C309.835 15.4376 309.89 15.343 309.908 15.2386L310.68 10.4659Z" fill="#AEA5CC"/>
<path d="M39.1101 4.20456C39.2009 4.26517 39.2917 4.3182 39.3825 4.36365C39.496 4.40911 39.4922 4.43941 39.3712 4.45456C39.2652 4.46971 39.1668 4.45835 39.076 4.42047C27.9583 -0.20074 18.2445 1.80684 9.93461 10.4432C9.76054 10.6174 9.55241 10.7197 9.31023 10.75L5.01906 11.1705C4.98953 11.1716 4.96028 11.1644 4.93459 11.1498C4.90891 11.1351 4.8878 11.1136 4.87365 11.0877C4.8595 11.0617 4.85287 11.0323 4.85449 11.0028C4.85611 10.9732 4.86592 10.9447 4.88283 10.9205C13.2608 0.318199 27.3718 -3.01135 39.1101 4.20456Z" fill="#AEA5CC"/>
<path d="M0.466797 26.7841V21.9091C1.78367 15.8296 2.97566 10.6705 10.7974 13.0682C11.1153 13.1667 11.1607 13.3409 10.9336 13.5909C2.71456 22.7159 14.0669 35.0796 22.1951 39.1818C29.453 42.8409 36.518 43.3182 43.3899 40.6137C45.3198 39.8561 45.543 40.2008 44.0597 41.6478C35.4546 50.0455 22.1951 51.6591 12.0689 45.25C5.80238 41.2879 1.93503 35.1326 0.466797 26.7841Z" fill="#AEA5CC"/>
<path d="M51.1434 25.9318C47.4653 27.0605 44.5742 28.6439 42.4703 30.6818C37.8537 35.1439 32.9154 37.9583 27.6555 39.1249L22.1496 36.2613C22.1021 36.2347 22.0658 36.1919 22.0472 36.1408C22.0285 36.0896 22.0289 36.0335 22.0481 35.9825C22.0674 35.9316 22.1043 35.8893 22.1521 35.8633C22.1999 35.8373 22.2554 35.8293 22.3086 35.8409C26.7587 36.8636 30.5276 35.6022 33.6155 32.0568C37.0136 28.1552 40.4041 24.2537 43.7871 20.3522C47.522 16.0454 52.0289 15.9318 57.2737 16.7272C57.7051 16.7954 57.7921 17.0037 57.5348 17.3522L51.1434 25.9318Z" fill="#AEA5CC"/>
<path d="M51.1434 25.9318C53.3382 25.75 55.3854 26.0492 57.2851 26.8295C57.6786 26.9886 57.7467 27.2348 57.4894 27.5682C55.5671 30.0454 53.1907 32.8674 50.3601 36.0341C44.7067 42.3522 34.8075 41.9886 27.6555 39.125C32.9154 37.9583 37.8537 35.1439 42.4703 30.6818C44.5742 28.6439 47.4653 27.0606 51.1434 25.9318Z" fill="#CAC1DE"/>
<path d="M93.238 32.6591L86.858 32.6818C86.768 32.6839 86.6818 32.7183 86.6151 32.7788C86.5483 32.8394 86.5056 32.9219 86.4947 33.0114L85.0984 44.8295C85.0875 44.919 85.0448 45.0015 84.9781 45.0621C84.9114 45.1226 84.8251 45.157 84.7351 45.1591L82.3171 45.1818C82.2638 45.1822 82.2111 45.1712 82.1624 45.1496C82.1137 45.128 82.0702 45.0962 82.0347 45.0564C81.9993 45.0166 81.9727 44.9697 81.9568 44.9189C81.9409 44.868 81.936 44.8143 81.9425 44.7614L83.7248 29.5909C83.7357 29.5015 83.7784 29.4189 83.8451 29.3584C83.9118 29.2979 83.998 29.2634 84.0881 29.2614H96.7686C96.8218 29.261 96.8746 29.2719 96.9233 29.2936C96.972 29.3152 97.0155 29.347 97.0509 29.3867C97.0864 29.4265 97.113 29.4734 97.1289 29.5243C97.1448 29.5752 97.1497 29.6289 97.1432 29.6818L95.3722 44.8295C95.3614 44.919 95.3187 45.0015 95.2519 45.0621C95.1852 45.1226 95.099 45.157 95.009 45.1591L92.5796 45.1818C92.5263 45.1822 92.4736 45.1712 92.4249 45.1496C92.3762 45.128 92.3327 45.0962 92.2972 45.0564C92.2618 45.0166 92.2352 44.9697 92.2193 44.9189C92.2034 44.868 92.1985 44.8143 92.205 44.7614L93.6126 33.0795C93.6191 33.0266 93.6142 32.9729 93.5983 32.922C93.5824 32.8712 93.5558 32.8243 93.5204 32.7845C93.4849 32.7447 93.4414 32.7129 93.3927 32.6913C93.344 32.6697 93.2913 32.6587 93.238 32.6591Z" fill="#AEA5CC"/>
<path d="M102.195 40.9773L101.729 44.6591C101.692 45 101.499 45.1704 101.15 45.1704H98.9367C98.5583 45.1629 98.3918 44.9697 98.4372 44.5909L100.231 29.8636C100.284 29.4621 100.511 29.2614 100.912 29.2614H111.152C113.248 29.2614 114.168 30.303 113.91 32.3864L113.309 37.2386C113.206 38.0946 112.792 38.8831 112.146 39.4548C111.499 40.0266 110.665 40.3418 109.801 40.3409H102.921C102.49 40.3409 102.248 40.553 102.195 40.9773ZM109.699 36.9318C109.794 36.9325 109.886 36.8981 109.957 36.8352C110.028 36.7723 110.074 36.6853 110.085 36.5909L110.505 33.1023C110.511 33.0488 110.506 32.9946 110.49 32.9431C110.475 32.8916 110.448 32.844 110.413 32.8034C110.378 32.7627 110.334 32.7299 110.286 32.707C110.237 32.6841 110.184 32.6717 110.13 32.6704H103.58C103.485 32.6698 103.393 32.7042 103.322 32.7671C103.251 32.83 103.205 32.9169 103.194 33.0114L102.762 36.5C102.756 36.5544 102.761 36.6096 102.778 36.6618C102.794 36.7141 102.822 36.7622 102.858 36.8031C102.895 36.8439 102.939 36.8765 102.989 36.8987C103.039 36.9209 103.094 36.9322 103.148 36.9318H109.699Z" fill="#AEA5CC"/>
<path d="M126.001 35.5795L118.871 44.6023C118.733 44.7764 118.558 44.9177 118.36 45.0159C118.162 45.1142 117.945 45.1669 117.725 45.1704L115.716 45.1932C115.322 45.1932 115.148 45 115.193 44.6136L116.942 29.6023C116.972 29.3598 117.104 29.2424 117.339 29.25L119.905 29.2954C120.056 29.2954 120.124 29.3712 120.109 29.5227L118.974 38.8977C118.89 39.6401 119.076 39.7159 119.53 39.125L126.761 29.7273C127.004 29.4166 127.318 29.2613 127.704 29.2613L129.872 29.2727C130.235 29.2727 130.394 29.4507 130.349 29.8068L128.623 44.5454C128.604 44.7119 128.524 44.8654 128.401 44.9765C128.277 45.0876 128.118 45.1486 127.953 45.1477L125.955 45.1818C125.887 45.1821 125.82 45.1681 125.757 45.1408C125.695 45.1134 125.639 45.0733 125.593 45.023C125.547 44.9727 125.512 44.9133 125.49 44.8487C125.469 44.7841 125.461 44.7156 125.467 44.6477L126.534 35.7954C126.625 35.0833 126.447 35.0113 126.001 35.5795Z" fill="#AEA5CC"/>
<path d="M136.309 35.5227L139.294 35.5C139.355 35.4988 139.415 35.4826 139.469 35.4529C139.522 35.4232 139.567 35.3809 139.601 35.3296L143.563 29.4205C143.597 29.3676 143.644 29.3242 143.7 29.2944C143.755 29.2647 143.818 29.2494 143.881 29.25L146.582 29.2727C146.649 29.2741 146.714 29.2933 146.771 29.3283C146.828 29.3634 146.875 29.4131 146.906 29.4722C146.937 29.5313 146.952 29.5978 146.949 29.6646C146.946 29.7314 146.925 29.7962 146.889 29.8523L142.042 37.1818C142.005 37.2345 141.983 37.2956 141.977 37.3592C141.971 37.4229 141.982 37.487 142.007 37.5455L145.152 44.6364C145.176 44.6931 145.186 44.755 145.181 44.8165C145.176 44.878 145.155 44.9373 145.122 44.989C145.088 45.0407 145.042 45.0833 144.988 45.113C144.934 45.1426 144.873 45.1585 144.811 45.1591L141.996 45.1818C141.921 45.1833 141.848 45.1625 141.785 45.122C141.723 45.0815 141.674 45.0232 141.644 44.9546L139.169 39.1364C139.14 39.0677 139.091 39.0094 139.028 38.9689C138.965 38.9284 138.892 38.9076 138.817 38.9091L135.764 38.9205C135.674 38.9225 135.587 38.957 135.521 39.0175C135.454 39.078 135.411 39.1606 135.4 39.25L134.765 44.8409C134.756 44.9344 134.713 45.0212 134.644 45.0843C134.574 45.1474 134.484 45.1822 134.39 45.1818L132.006 45.1477C131.954 45.148 131.902 45.1373 131.854 45.1163C131.807 45.0954 131.764 45.0647 131.728 45.0261C131.693 44.9876 131.666 44.9422 131.65 44.8927C131.633 44.8431 131.627 44.7907 131.631 44.7387L133.402 29.5909C133.413 29.5015 133.456 29.4189 133.523 29.3584C133.589 29.2979 133.676 29.2635 133.766 29.2614L136.161 29.2727C136.214 29.2724 136.267 29.2833 136.316 29.305C136.364 29.3266 136.408 29.3583 136.443 29.3981C136.479 29.4379 136.505 29.4848 136.521 29.5357C136.537 29.5866 136.542 29.6403 136.536 29.6932L135.934 35.1023C135.928 35.1552 135.932 35.2089 135.948 35.2598C135.964 35.3107 135.991 35.3576 136.026 35.3974C136.062 35.4372 136.105 35.4689 136.154 35.4905C136.203 35.5122 136.255 35.5231 136.309 35.5227Z" fill="#AEA5CC"/>
<path d="M158.014 42.6136L151.157 42.6023C150.987 42.6019 150.824 42.6663 150.699 42.7823C150.575 42.8984 150.499 43.0575 150.488 43.2273C150.351 45.0152 149.299 45.6477 147.332 45.125C146.923 45.0189 146.783 44.7652 146.912 44.3636L151.532 30.2046C151.625 29.9259 151.804 29.6837 152.042 29.5123C152.28 29.341 152.567 29.2492 152.86 29.25L159.91 29.2841C160.111 29.2834 160.305 29.3587 160.454 29.4953C160.603 29.6319 160.696 29.82 160.716 30.0227L162.033 44.5341C162.071 44.9659 161.874 45.1818 161.443 45.1818L159.365 45.1705C158.972 45.1629 158.764 44.9621 158.741 44.5682L158.661 43.2159C158.631 42.8144 158.415 42.6136 158.014 42.6136ZM151.998 38.6818C151.978 38.7423 151.972 38.8067 151.982 38.8696C151.992 38.9325 152.017 38.9921 152.055 39.0433C152.093 39.0946 152.143 39.1359 152.2 39.164C152.257 39.1921 152.32 39.206 152.384 39.2046H157.901C157.956 39.2048 158.011 39.1935 158.061 39.1714C158.112 39.1493 158.157 39.1169 158.194 39.0763C158.232 39.0357 158.26 38.9877 158.278 38.9354C158.296 38.8832 158.303 38.8278 158.298 38.7727L157.776 33.0341C157.767 32.9346 157.722 32.842 157.648 32.7747C157.574 32.7073 157.478 32.6701 157.379 32.6705H154.2C154.115 32.6686 154.031 32.6941 153.962 32.7432C153.893 32.7923 153.841 32.8624 153.814 32.9432L151.998 38.6818Z" fill="#AEA5CC"/>
<path d="M177.415 36.8523L174.759 40.9318C174.507 41.3211 174.152 41.6332 173.734 41.8337C173.316 42.0343 172.851 42.1155 172.389 42.0685C171.928 42.0215 171.489 41.8481 171.12 41.5674C170.751 41.2867 170.466 40.9094 170.297 40.4773L168.878 36.8295C168.591 36.1023 168.402 36.1288 168.311 36.9091L167.346 44.8977C167.323 45.0795 167.225 45.1705 167.051 45.1705L164.485 45.1591C164.446 45.1594 164.408 45.1514 164.372 45.1356C164.337 45.1198 164.305 45.0966 164.279 45.0676C164.253 45.0385 164.234 45.0043 164.223 44.9671C164.211 44.93 164.208 44.8908 164.213 44.8523L165.972 29.7727C166.01 29.4318 166.203 29.2614 166.551 29.2614H168.526C168.965 29.2689 169.268 29.4735 169.435 29.875L172.591 37.7159C172.795 38.2235 173.045 38.2462 173.34 37.7841L178.516 29.6591C178.691 29.3864 178.94 29.25 179.266 29.25L181.298 29.2727C181.699 29.2727 181.873 29.4735 181.82 29.875L180.06 44.8068C180.03 45.0644 179.886 45.1894 179.629 45.1818L177.37 45.1591C177.06 45.1515 176.923 44.9962 176.961 44.6932L177.915 37.0341C178.013 36.2538 177.847 36.1932 177.415 36.8523Z" fill="#AEA5CC"/>
<path d="M188.325 34.3864L194.909 34.375C197.225 34.3674 198.239 35.5151 197.952 37.8182L197.452 41.8295C197.172 44.0568 195.912 45.1704 193.672 45.1704H183.727C183.281 45.1704 183.084 44.9507 183.137 44.5114L184.965 29.6477C184.995 29.3901 185.142 29.2614 185.407 29.2614L187.791 29.2727C188.177 29.2727 188.348 29.4621 188.302 29.8409L187.791 33.7841C187.738 34.1856 187.916 34.3864 188.325 34.3864ZM193.785 41.7614C193.885 41.7623 193.981 41.7271 194.056 41.6623C194.131 41.5975 194.18 41.5075 194.194 41.4091L194.637 37.9659C194.645 37.9076 194.64 37.8482 194.624 37.7919C194.607 37.7355 194.578 37.6834 194.539 37.6391C194.5 37.5949 194.452 37.5596 194.399 37.5356C194.345 37.5116 194.287 37.4994 194.228 37.5H187.735C187.635 37.499 187.539 37.5342 187.464 37.5991C187.389 37.6639 187.34 37.7539 187.326 37.8523L186.86 41.2954C186.852 41.3537 186.857 41.4131 186.874 41.4695C186.89 41.5259 186.919 41.578 186.958 41.6222C186.997 41.6664 187.045 41.7018 187.098 41.7258C187.152 41.7498 187.21 41.7619 187.269 41.7614H193.785Z" fill="#AEA5CC"/>
<path d="M203.866 35.5114L211.711 35.5227C211.761 35.5225 211.812 35.5329 211.858 35.5533C211.904 35.5736 211.946 35.6035 211.98 35.641C212.015 35.6785 212.041 35.7227 212.057 35.7708C212.073 35.8189 212.079 35.8699 212.074 35.9205L211.847 38.5795C211.838 38.67 211.796 38.7539 211.729 38.8149C211.662 38.8759 211.574 38.9095 211.484 38.9091L203.401 38.9205C203.312 38.9198 203.226 38.9518 203.159 39.0104C203.092 39.0691 203.049 39.1503 203.037 39.2386L202.799 41.3636C202.793 41.4151 202.797 41.4673 202.812 41.5168C202.828 41.5663 202.854 41.6119 202.888 41.6507C202.922 41.6894 202.965 41.7204 203.012 41.7414C203.059 41.7625 203.111 41.7731 203.162 41.7727L211.847 41.7614C211.899 41.761 211.95 41.7716 211.997 41.7927C212.045 41.8137 212.087 41.8447 212.121 41.8834C212.156 41.9221 212.181 41.9678 212.197 42.0173C212.212 42.0668 212.217 42.119 212.21 42.1705L211.892 44.8523C211.881 44.9387 211.84 45.0184 211.775 45.0768C211.711 45.1352 211.627 45.1684 211.54 45.1705H199.609C199.557 45.1709 199.506 45.1602 199.459 45.1391C199.411 45.1181 199.369 45.0872 199.335 45.0484C199.3 45.0097 199.275 44.964 199.259 44.9145C199.244 44.865 199.239 44.8128 199.246 44.7614L201.028 29.5795C201.039 29.4931 201.08 29.4134 201.145 29.355C201.21 29.2966 201.293 29.2634 201.38 29.2614H213.323C213.374 29.261 213.426 29.2716 213.473 29.2927C213.52 29.3137 213.563 29.3447 213.597 29.3834C213.631 29.4221 213.657 29.4678 213.672 29.5173C213.688 29.5668 213.692 29.619 213.686 29.6705L213.379 32.3523C213.368 32.4406 213.325 32.5218 213.258 32.5805C213.191 32.6391 213.105 32.6712 213.016 32.6705H204.093C204.002 32.6701 203.915 32.7037 203.848 32.7646C203.78 32.8256 203.738 32.9096 203.73 33L203.514 35.1136C203.51 35.1632 203.515 35.2133 203.531 35.2606C203.546 35.308 203.571 35.3517 203.604 35.389C203.637 35.4263 203.677 35.4564 203.722 35.4774C203.767 35.4985 203.816 35.51 203.866 35.5114Z" fill="#AEA5CC"/>
</g>
<defs>
<clipPath id="clip0_380_2297">
<rect width="319" height="50" fill="white" transform="translate(0.466797)"/>
</clipPath>
</defs>
</svg>
