<svg width="203" height="74" viewBox="0 0 203 74" fill="none" xmlns="http://www.w3.org/2000/svg">
<g clip-path="url(#clip0_380_2181)">
<path d="M12.3429 1.09751C8.05107 3.6687 7.33055 6.11446 10.338 7.99582C11.8417 8.93649 12.1549 9.56361 11.6224 10.4102C11.4031 10.7551 11.2778 11.0687 11.3404 11.0687C11.4031 11.1001 13.0321 11.1001 14.9744 11.0373C18.3577 10.9433 18.5457 10.9119 18.8589 10.1907C19.3915 8.99921 18.9529 8.1526 16.4154 5.55005C14.2852 3.35514 14.0346 2.97887 14.1599 2.1009C14.2538 1.53649 14.4105 0.846664 14.5671 0.533105C14.9117 -0.250793 14.4418 -0.12537 12.3429 1.09751Z" fill="#CAC1DE"/>
<path d="M138.779 9.68899C138.779 11.1627 141.661 11.8526 142.852 10.661C143.196 10.3161 143.478 9.81441 143.478 9.56357C143.478 8.87374 142.633 8.99916 142.225 9.72035C142.037 10.0966 141.567 10.3475 141.129 10.3475C140.69 10.3475 140.189 10.0653 139.97 9.72035C139.468 8.90509 138.779 8.90509 138.779 9.68899Z" fill="#AEA5CC"/>
<path d="M2.81946 11.884C2.81946 12.3543 6.26545 15.3331 7.54986 16.0229C12.8441 18.7196 19.1409 17.7162 23.3074 13.5458C24.1219 12.7619 24.7485 12.0094 24.7485 11.8526C24.7485 11.7272 19.8301 11.6018 13.784 11.6018C7.48721 11.6018 2.81946 11.7272 2.81946 11.884Z" fill="#AEA5CC"/>
<path d="M54.5405 12.2916C52.7236 13.5144 52.1597 14.5492 52.1597 16.6187C52.1597 17.9983 52.3163 18.6882 52.8175 19.3466C53.9453 20.8831 55.3864 21.6356 57.078 21.6356C58.801 21.6356 60.7746 20.8517 60.7746 20.1932C60.7746 19.5034 60.1794 19.378 59.4589 19.8797C59.0516 20.1619 58.1118 20.3814 57.2973 20.3814C52.5043 20.3814 52.0657 13.4831 56.7961 12.95C57.7672 12.8246 58.5504 12.95 59.2396 13.2949C60.5867 13.9848 61.2132 13.4517 60.2107 12.4797C59.7095 11.9466 59.083 11.7585 57.5793 11.6644C55.9189 11.5704 55.449 11.6644 54.5405 12.2916Z" fill="#AEA5CC"/>
<path d="M63.4061 16.3365C62.2157 18.9704 61.2132 21.228 61.1506 21.3534C61.0879 21.5102 61.3699 21.6356 61.7771 21.6356C62.3097 21.6356 62.6229 21.3221 63.0302 20.3814L63.5628 19.1271H66.1942H68.8257L69.3896 20.3814C69.7969 21.3221 70.1415 21.6356 70.674 21.6356C71.3632 21.6356 71.3006 21.4475 69.327 17.1517C68.1992 14.706 67.1967 12.4483 67.134 12.1348C67.0401 11.8526 66.6641 11.6017 66.2882 11.6017C65.693 11.6017 65.2544 12.3229 63.4061 16.3365ZM66.3195 17.8102C65.2857 17.8729 64.4086 17.8416 64.3459 17.7788C64.2833 17.7161 64.6592 16.65 65.2231 15.4271L66.2256 13.1695L67.1967 15.4585L68.1678 17.7161L66.3195 17.8102Z" fill="#AEA5CC"/>
<path d="M72.679 16.5873V21.6356H73.4621C74.214 21.6356 74.214 21.6356 74.308 18.1865L74.4019 14.7373L75.9683 17.5593C76.8455 19.1585 77.7226 20.3814 78.0046 20.3814C78.2552 20.3814 79.101 19.2526 79.8842 17.8102C82.0144 13.9848 81.9205 13.9848 81.8265 18.0297L81.7325 21.6356H82.5157H83.3302V16.5873C83.3302 11.6331 83.3302 11.5704 82.6723 11.6644C82.1711 11.7271 81.4506 12.6992 80.0722 15.1136C79.0384 16.9636 78.0986 18.5 78.0046 18.5C77.9106 18.4687 77.0021 16.9636 75.937 15.1136C74.5586 12.6678 73.8381 11.7271 73.3682 11.6644C72.679 11.5704 72.679 11.6017 72.679 16.5873Z" fill="#AEA5CC"/>
<path d="M88.8752 12.1348C88.8125 12.4483 87.81 14.706 86.6823 17.1517C84.7087 21.4475 84.646 21.6356 85.3352 21.6356C85.8678 21.6356 86.2124 21.3221 86.6196 20.3814L87.1835 19.1271H89.815H92.4778L92.9477 20.3814C93.3549 21.3534 93.6056 21.6356 94.2008 21.6356C94.6394 21.6356 94.9213 21.5102 94.8586 21.3848C94.8273 21.228 93.7935 18.9704 92.6031 16.3678C90.7548 12.2916 90.3475 11.6017 89.7523 11.6017C89.3451 11.6017 88.9691 11.8526 88.8752 12.1348ZM91.7886 17.7475C91.7886 17.8102 90.8801 17.8729 89.7836 17.8729H87.7787L88.7499 15.5526L89.7523 13.2322L90.7861 15.4585C91.3187 16.65 91.7886 17.6848 91.7886 17.7475Z" fill="#AEA5CC"/>
<path d="M96.4877 16.6187C96.4877 21.4161 96.519 21.6356 97.1142 21.6356C97.6468 21.6356 97.7408 21.4161 97.7408 20.0992V18.5627L100.122 18.4373C102.346 18.3432 102.565 18.2492 103.411 17.3085C104.069 16.5873 104.319 15.9602 104.319 15.1136C104.319 12.6678 102.722 11.6017 98.9938 11.6017H96.4877V16.6187ZM102.283 13.6399C103.223 14.5805 103.254 15.3331 102.409 16.4305C101.845 17.1517 101.563 17.2458 99.7457 17.2458H97.7408V15.0509V12.856H99.6204C101.218 12.856 101.657 12.9814 102.283 13.6399Z" fill="#AEA5CC"/>
<path d="M108.141 12.1348C104.476 13.9221 104.507 19.378 108.204 21.1339C109.676 21.8238 112.057 21.7924 113.342 21.0085C113.874 20.6636 114.344 20.256 114.344 20.0678C114.344 19.4721 113.436 19.378 112.715 19.8797C111.807 20.5068 109.363 20.5382 108.455 19.8797C106.23 18.3432 106.356 14.5492 108.705 13.3263C109.896 12.6992 111.838 12.7305 112.715 13.3577C113.436 13.8594 114.344 13.7653 114.344 13.1695C114.344 12.9814 113.874 12.5738 113.342 12.2288C112.057 11.4449 109.582 11.4136 108.141 12.1348Z" fill="#AEA5CC"/>
<path d="M116.224 16.6187C116.224 21.4161 116.255 21.6356 116.85 21.6356C117.414 21.6356 117.477 21.4161 117.477 19.4407V17.2458H118.511C119.419 17.2458 119.732 17.4966 121.173 19.4407C122.458 21.1339 122.99 21.6356 123.617 21.6356C124.369 21.6356 124.306 21.5102 122.489 19.1585C121.455 17.7788 120.61 16.556 120.61 16.4619C120.61 16.3678 121.393 15.3017 122.333 14.1102C123.272 12.9187 124.056 11.8839 124.056 11.7899C124.056 11.6644 123.742 11.6017 123.366 11.6017C122.834 11.6331 122.207 12.2288 121.079 13.7966C119.701 15.7093 119.388 15.9602 118.511 15.9916H117.477V13.7966C117.477 11.8212 117.414 11.6017 116.85 11.6017C116.255 11.6017 116.224 11.8212 116.224 16.6187Z" fill="#AEA5CC"/>
<path d="M125.622 16.65C125.622 21.4475 125.653 21.667 126.217 21.5729C126.562 21.5102 128.097 19.817 129.663 17.7475L132.514 14.0161V17.8416V21.6356H133.297H134.08V16.6187C134.08 11.6331 134.08 11.6017 133.391 11.6017C132.859 11.6331 131.95 12.5738 129.851 15.3958L127.032 19.1585L126.938 15.3644C126.875 11.8526 126.812 11.6017 126.248 11.6017C125.653 11.6017 125.622 11.8526 125.622 16.65Z" fill="#AEA5CC"/>
<path d="M136.9 16.6187C136.9 23.0466 136.962 23.078 141.004 17.8416L143.948 14.0475L144.042 17.8416C144.105 21.3848 144.168 21.6356 144.731 21.6356C145.327 21.6356 145.358 21.3848 145.358 16.6187C145.358 11.9153 145.327 11.6017 144.763 11.6017C144.418 11.6017 143.666 12.2916 142.914 13.2322C142.225 14.1416 140.878 15.9288 139.907 17.1831L138.153 19.5034V15.5526C138.153 11.8212 138.121 11.6017 137.526 11.6017C136.931 11.6017 136.9 11.8212 136.9 16.6187Z" fill="#AEA5CC"/>
<path d="M2.50617 13.389C2.50617 13.7026 2.91343 14.6433 3.38333 15.5212C4.13519 16.9009 5.51358 18.0611 7.04861 18.5941C7.23657 18.6568 7.23657 18.8763 7.01728 19.1585C6.79799 19.4094 5.13765 22.5763 3.32068 26.2136L0 32.7983L0.501235 38.756C0.971142 44.306 0.971142 44.745 0.469907 45.6856C-0.0626543 46.6577 -0.0626543 46.7204 1.0338 49.2916C4.54244 57.4755 5.67022 65.9416 4.19784 72.9653L3.97855 74H8.11374C12.9381 74 12.5622 74.345 13.1261 69.6102C13.7213 64.8127 13.784 64.5933 14.2539 64.5933C15.2563 64.5933 14.5985 49.6992 13.5647 49.3229C12.7188 48.978 13.1261 48.2882 14.2225 48.2882C14.8804 48.2882 15.6636 47.9746 16.3528 47.4102C16.948 46.9399 18.1698 46.2814 19.0782 45.9365C20.3627 45.4348 20.8639 45.0272 21.4904 43.9611C21.929 43.2085 22.3989 42.6441 22.4929 42.7068C22.6182 42.7695 23.5267 43.6475 24.4978 44.7136L26.2835 46.595L25.0304 49.5111C21.835 56.9424 20.6133 66.0983 21.9917 72.5263C22.2423 73.6865 22.4302 74 22.9315 74C23.5267 74 23.558 73.8746 23.3074 72.2127C22.7748 68.795 23.0255 61.2695 23.746 58.1653C24.5605 54.7161 25.6569 51.4238 27.004 48.539L27.9752 46.4068L27.3486 45.6856C26.6907 44.9958 26.6907 44.9644 27.1607 38.8814L27.6619 32.767L24.3412 26.1195C22.4929 22.4822 20.8639 19.4094 20.6759 19.2839C20.0807 18.9077 20.3627 18.5941 21.9603 17.8729C23.3387 17.2144 23.6833 16.8382 24.4978 15.2704C25.8136 12.6051 25.2497 12.2289 23.0881 14.2983C22.211 15.1763 20.8326 16.1483 20.0494 16.4305C17.4179 17.4339 17.2299 17.6848 17.3866 19.5348C17.4492 20.4128 18.389 24.05 19.4542 27.5933L21.3965 34.0212L20.5193 38.7246C20.0494 41.2958 19.5481 43.6475 19.3915 43.9297C19.2662 44.2119 18.7023 44.6195 18.1698 44.839C16.7287 45.4348 16.3528 44.9331 16.854 43.1144C17.0733 42.3305 17.2299 41.2958 17.2299 40.8255C17.2299 40.3551 17.4806 39.0382 17.7625 37.878C18.1384 36.3729 18.2324 35.5263 18.0131 34.9305C17.6372 33.8958 17.1673 33.645 15.2877 33.3941L13.784 33.206V31.6382C13.784 30.1644 13.8153 30.1017 14.6611 30.1017C15.7576 30.1017 16.9167 31.2619 16.9167 32.328C16.9167 33.0805 17.4179 33.8644 17.9191 33.8644C18.0444 33.8644 18.1698 33.3314 18.1698 32.6416C18.1698 28.7848 12.1549 27.3738 9.83673 30.6975C9.21019 31.5755 9.17886 36.0594 9.8054 38.2856C10.338 40.1356 10.9958 43.3653 11.0898 44.3687C11.1525 45.3094 9.68009 45.3721 8.67762 44.4627C7.98843 43.8356 7.76914 43.1458 7.07994 38.8814L6.29676 34.0526L8.3017 27.4365C9.8054 22.4195 10.2753 20.4441 10.244 19.1585L10.1813 17.4653L7.98843 16.556C6.48472 15.9602 5.38827 15.239 4.44846 14.267C3.00741 12.7619 2.50617 12.5424 2.50617 13.389ZM24.7171 30.039L26.2522 33.1119L25.8136 37.9407C25.5943 40.606 25.375 42.989 25.375 43.2085C25.375 43.3966 24.8738 43.0204 24.2472 42.3305L23.1194 41.0763L23.464 38.5992C23.6833 37.2509 23.9653 35.6517 24.1219 35.0873C24.3412 34.3348 24.2472 33.2687 23.652 30.6348C22.7748 26.8094 22.8062 26.9661 23.0255 26.9661C23.1194 26.9661 23.8713 28.3458 24.7171 30.039ZM15.6009 35.8712C15.5383 36.5924 15.319 36.8746 14.8177 36.9373C14.2539 37.0314 14.0972 37.2822 14.0032 38.3483C13.9406 39.0695 13.8779 38.5365 13.8466 37.1255L13.784 34.5856L14.7551 34.7424C15.6009 34.8678 15.6949 34.9933 15.6009 35.8712ZM15.9769 38.8814C15.7576 39.289 15.7262 40.1983 15.8515 41.3585C16.0395 43.0204 15.9769 43.2399 15.413 43.5534C14.1912 44.2119 13.784 43.9924 13.784 42.6755C13.784 41.9856 13.6273 41.3585 13.408 41.2958C13.1887 41.2017 13.3767 41.1077 13.8779 41.1077C14.6924 41.0763 14.7238 41.0136 14.7238 39.5399C14.7238 38.1602 14.8177 37.9721 15.4443 37.878C16.2901 37.7526 16.4468 38.0348 15.9769 38.8814ZM13.1261 44.9017C13.596 45.1839 13.9406 45.1839 14.5358 44.9017C15.131 44.6509 15.3816 44.6509 15.5383 44.9017C15.7889 45.3094 14.5671 46.4068 13.8779 46.4068C13.0634 46.4068 12.2176 45.7797 12.2176 45.1526C12.2176 44.4314 12.3429 44.4 13.1261 44.9017Z" fill="#AEA5CC"/>
<path d="M196.421 26.9347C196.421 27.0915 196.703 27.5305 197.016 27.9381C197.455 28.5025 197.925 28.6907 198.927 28.6907C199.93 28.6907 200.4 28.5025 200.838 27.9381C201.152 27.5305 201.434 27.0915 201.434 26.9347C201.434 26.433 200.494 26.6525 199.867 27.2797C199.523 27.6246 199.115 27.9068 198.927 27.9068C198.771 27.9068 198.332 27.6246 197.988 27.2797C197.361 26.6525 196.421 26.433 196.421 26.9347Z" fill="#AEA5CC"/>
<path d="M44.1713 28.189C43.9207 28.3458 40.224 29.7568 35.9636 31.3559C28.5077 34.178 28.2571 34.3034 28.0691 35.2127C27.8811 36.1847 27.8185 37.9407 27.9751 37.9407C28.0378 37.9407 28.633 37.6898 29.3222 37.3763C29.9801 37.0314 33.896 35.5263 37.9685 33.9898L45.4244 31.1991V29.5373C45.4244 27.8754 45.1737 27.6246 44.1713 28.189Z" fill="#CAC1DE"/>
<path d="M62.2157 29.2865C57.8925 30.8857 57.3913 36.4984 61.3698 38.5679C65.1291 40.4806 69.7029 37.4391 69.1077 33.3942C68.6064 30.2586 65.2231 28.2204 62.2157 29.2865ZM65.3797 30.5721C65.7556 30.6662 66.4448 31.1992 66.8834 31.7009C68.3558 33.4882 67.6979 36.6238 65.6303 37.5018C64.0953 38.1289 62.9049 38.0348 61.6831 37.2196C59.8975 36.0281 59.5215 33.3942 60.8686 31.5755C61.3072 30.9484 63.5314 30.0704 64.2206 30.2586C64.4712 30.3213 65.0038 30.4467 65.3797 30.5721Z" fill="#AEA5CC"/>
<path d="M73.8382 29.2865C72.3345 29.8509 71.6139 30.478 70.9874 31.8263C69.891 34.1153 70.6115 36.7805 72.7417 38.3483C73.9635 39.2577 76.595 39.4144 77.9734 38.6305C79.1951 37.9721 79.3831 37.6585 78.9445 37C78.7252 36.6238 78.5686 36.6551 78.0047 37.1568C77.5035 37.6271 76.8769 37.7839 75.6238 37.7839C74.1514 37.7839 73.8068 37.6585 72.961 36.8119C71.238 35.056 71.4886 32.1712 73.4936 30.8229C74.5274 30.1644 76.7829 30.1644 77.8167 30.8543C78.6626 31.3873 79.2578 31.2932 79.2578 30.6348C79.2578 30.0704 77.6601 29.2238 76.2504 29.0043C75.5612 28.9102 74.5274 29.0356 73.8382 29.2865Z" fill="#AEA5CC"/>
<path d="M79.571 29.067C79.571 29.2238 80.4169 30.9483 81.4507 32.8924C82.4845 34.8365 83.3303 36.6238 83.3303 36.8119C83.3303 37.4704 82.6098 37.9407 81.5447 37.9407C80.7301 37.9407 80.5109 38.0661 80.5109 38.5678C80.5109 39.1009 80.7301 39.1949 81.7013 39.1949C82.6098 39.1949 83.111 38.9755 83.7062 38.317C84.928 37.0314 89.1885 28.6907 88.5306 28.9416C88.2173 29.067 87.8727 29.161 87.7161 29.161C87.5908 29.161 86.7136 30.6034 85.8052 32.3594L84.1761 35.5577L82.6098 32.4221C81.7639 30.7288 81.0434 29.2865 81.0121 29.2865C80.7615 29.0356 79.571 28.8788 79.571 29.067Z" fill="#AEA5CC"/>
<path d="M124.181 29.1297C120.014 30.1644 118.918 35.4949 122.333 38.0975C123.805 39.2576 126.217 39.4771 127.784 38.6619C129.005 38.0348 129.193 37.6898 128.755 37C128.535 36.6237 128.379 36.6551 127.815 37.1568C126.781 38.0975 124.056 38.0348 122.99 37.0314C120.328 34.5229 121.894 30.3212 125.497 30.3212C126.217 30.3212 127.188 30.5407 127.627 30.8543C128.504 31.4187 129.068 31.2932 129.068 30.5721C129.068 29.5687 125.998 28.6907 124.181 29.1297Z" fill="#AEA5CC"/>
<path d="M52.9429 34.178C52.9429 38.9755 52.9742 39.1949 53.5694 39.1949C54.1646 39.1949 54.196 38.9755 54.196 34.711V30.2585L56.8588 30.3526C59.3649 30.4466 59.5216 30.4153 59.5216 29.8195C59.5216 29.1924 59.3649 29.161 56.2322 29.161H52.9429V34.178Z" fill="#AEA5CC"/>
<path d="M90.7548 32.5162C90.5668 36.3102 90.1909 37.5958 89.2824 37.8467C88.7499 38.0035 88.6559 38.2857 88.6559 39.6967C88.6559 41.1704 88.7185 41.3899 89.2824 41.3899C89.7837 41.3899 89.909 41.1704 89.909 40.2924V39.195H93.9815H98.054V40.2924C98.054 41.1704 98.1793 41.3899 98.6806 41.3899C99.2445 41.3899 99.3071 41.1704 99.3071 39.6653C99.3071 38.0348 99.2758 37.9407 98.5239 37.9407H97.7408V33.5509V29.1611H94.3261H90.9428L90.7548 32.5162ZM96.4877 34.084V37.9407H93.7935C91.35 37.9407 91.1307 37.878 91.3187 37.3763C91.7259 36.4357 92.0705 34.1153 92.0705 32.1399L92.1019 30.2585H94.2948H96.4877V34.084Z" fill="#AEA5CC"/>
<path d="M103.254 30.7916C102.878 31.7009 101.876 33.8644 101.061 35.6204C100.278 37.3763 99.6204 38.8814 99.6204 39.0068C99.6204 39.1009 99.9023 39.1949 100.278 39.1949C100.717 39.1949 101.093 38.7873 101.531 37.7839L102.158 36.3729H104.664H107.139L107.828 37.7839C108.267 38.7246 108.705 39.1949 109.112 39.1949C109.864 39.1949 109.833 39.0695 107.452 33.739C105.698 29.8195 105.322 29.161 104.695 29.161C104.163 29.161 103.85 29.506 103.254 30.7916ZM105.917 33.4568L106.794 35.4322H104.758C102.408 35.4322 102.471 35.589 103.944 32.3594C104.413 31.2933 104.789 30.7602 104.883 31.0424C104.977 31.2933 105.447 32.3907 105.917 33.4568Z" fill="#AEA5CC"/>
<path d="M111.211 34.178V39.1949H111.995C112.715 39.1949 112.778 39.1009 112.778 37.6585V36.1221L114.971 35.9966C116.819 35.9026 117.258 35.7458 118.072 34.9933C119.2 33.9271 119.482 32.5788 118.918 31.1992C118.26 29.6627 117.038 29.161 113.874 29.161H111.211V34.178ZM117.101 30.917C117.571 31.2305 117.79 31.7009 117.79 32.4221C117.79 34.1153 117.195 34.5856 114.845 34.7424L112.778 34.8678V32.6416V30.4153H114.595C115.723 30.4153 116.662 30.6034 117.101 30.917Z" fill="#AEA5CC"/>
<path d="M129.381 29.8195C129.381 30.4153 129.538 30.478 131.104 30.3526L132.827 30.2585V34.711C132.827 38.9755 132.859 39.1949 133.454 39.1949C134.049 39.1949 134.08 38.9755 134.08 34.8051V30.4153H135.803C137.307 30.4153 137.526 30.3526 137.526 29.7882C137.526 29.1924 137.307 29.161 133.454 29.161C129.538 29.161 129.381 29.1924 129.381 29.8195Z" fill="#AEA5CC"/>
<path d="M139.093 34.178V39.1949H141.787C144.825 39.1949 146.329 38.6933 146.893 37.439C147.426 36.2475 147.3 35.4636 146.423 34.5856C145.703 33.8644 145.671 33.739 146.11 33.2687C146.862 32.4221 146.736 30.8229 145.828 29.9449C145.139 29.2238 144.825 29.161 142.069 29.161H139.093V34.178ZM144.23 30.4153C144.7 30.5721 145.107 31.0424 145.233 31.5441C145.577 32.861 144.512 33.5509 142.194 33.5509H140.346V31.8263V30.1017H141.881C142.726 30.1017 143.792 30.2271 144.23 30.4153ZM144.857 34.8051C145.515 35.056 145.671 35.3068 145.671 36.1848C145.671 37.5958 145.045 37.9407 142.413 37.9407H140.346V36.2161V34.4916H142.194C143.228 34.4916 144.418 34.617 144.857 34.8051Z" fill="#AEA5CC"/>
<path d="M149.431 34.178V39.1949H153.033C156.416 39.1949 156.636 39.1636 156.636 38.5678C156.636 37.9721 156.416 37.9407 153.66 37.9407H150.684V36.2161V34.4916H153.19C155.195 34.4916 155.696 34.3975 155.696 34.0212C155.696 33.6449 155.195 33.5509 153.19 33.5509H150.684V31.889V30.2585L153.503 30.3526C156.166 30.4466 156.323 30.4153 156.323 29.8195C156.323 29.1924 156.166 29.161 152.877 29.161H149.431V34.178Z" fill="#AEA5CC"/>
<path d="M158.515 34.178C158.515 38.9755 158.547 39.1949 159.142 39.1949C159.706 39.1949 159.768 38.9755 159.768 36.8433V34.4916H162.745H165.721V36.8433C165.721 38.9755 165.783 39.1949 166.347 39.1949C166.942 39.1949 166.974 38.9755 166.974 34.178C166.974 29.4119 166.942 29.161 166.347 29.161C165.815 29.161 165.752 29.4119 165.658 31.2305L165.564 33.3L162.651 33.3314L159.768 33.3941V31.2619C159.768 29.3805 159.706 29.161 159.142 29.161C158.547 29.161 158.515 29.3805 158.515 34.178Z" fill="#AEA5CC"/>
<path d="M169.793 34.178V39.1949H170.576C171.328 39.1949 171.36 39.1322 171.36 36.8433V34.4916H174.179H176.998V36.8433C176.998 38.9755 177.061 39.1949 177.625 39.1949C178.22 39.1949 178.252 38.9755 178.252 34.178C178.252 29.3805 178.22 29.161 177.625 29.161C177.061 29.161 176.998 29.3805 176.998 31.2619V33.3941H174.179H171.36V31.2619C171.36 29.2238 171.328 29.161 170.576 29.161H169.793V34.178Z" fill="#AEA5CC"/>
<path d="M181.071 34.178V39.1949H183.577C186.835 39.1949 188.12 38.6619 188.778 37.0941C189.185 36.1534 189.216 35.7144 188.934 34.7424C188.464 33.1746 187.336 32.6102 184.674 32.6102H182.637V30.8856C182.637 29.2551 182.606 29.161 181.854 29.161H181.071V34.178ZM187.274 34.4288C187.462 34.711 187.65 35.3695 187.65 35.9339C187.65 37.3763 186.71 37.9407 184.454 37.9407H182.637V35.8085V33.7077L184.736 33.8017C186.24 33.8644 186.992 34.0526 187.274 34.4288Z" fill="#AEA5CC"/>
<path d="M190.469 34.178C190.469 38.9755 190.5 39.1949 191.096 39.1949C191.691 39.1949 191.722 38.9755 191.722 34.178C191.722 29.3805 191.691 29.161 191.096 29.161C190.5 29.161 190.469 29.3805 190.469 34.178Z" fill="#AEA5CC"/>
<path d="M194.855 34.178C194.855 38.9127 194.886 39.1949 195.45 39.1949C195.795 39.1949 196.108 39.0695 196.171 38.9127C196.233 38.7246 197.455 37.0627 198.928 35.15L201.59 31.7009L201.684 35.4322C201.747 38.9441 201.81 39.1949 202.373 39.1949C202.969 39.1949 203 38.9441 203 34.1466C203 29.3492 202.969 29.1297 202.405 29.2238C202.06 29.2865 200.525 30.9797 198.959 33.0492L196.108 36.7805V32.9551C196.108 29.3805 196.077 29.161 195.482 29.161C194.886 29.161 194.855 29.3805 194.855 34.178Z" fill="#AEA5CC"/>
<path d="M36.2769 37.8467L27.6306 41.1704L27.5053 42.7696C27.4426 43.6476 27.4113 44.4315 27.474 44.4942C27.5053 44.5569 31.5778 43.0831 36.4962 41.2018L45.4244 37.784V36.1535C45.4244 35.2442 45.3305 34.4916 45.2051 34.523C45.0485 34.523 41.07 36.0281 36.2769 37.8467Z" fill="#CAC1DE"/>
<path d="M36.4961 44.3373L28.0378 47.567L27.0353 50.0441C24.8111 55.5627 23.4954 61.7398 23.4954 66.6941C23.4954 70.0805 24.0906 74.0627 24.5605 73.9373C24.7798 73.8746 29.5415 72.0873 35.1804 69.9237L45.4244 66.0042V53.5246C45.4244 46.689 45.3304 41.0763 45.2051 41.0763C45.0484 41.1076 41.1639 42.55 36.4961 44.3373Z" fill="#CAC1DE"/>
<path d="M164.781 44.3687C164.781 45.3407 165.971 46.0933 167.538 46.0933C169.135 46.0933 170.107 45.4661 170.107 44.4314C170.107 43.7416 168.665 43.7102 168.415 44.3687C168.321 44.6195 167.882 44.839 167.444 44.839C167.005 44.839 166.567 44.6195 166.473 44.3687C166.347 44.1178 165.94 43.8983 165.533 43.8983C165.063 43.8983 164.781 44.0865 164.781 44.3687Z" fill="#CAC1DE"/>
<path d="M52.9429 51.4237V56.4407H53.8827H54.7912L54.8852 53.5246L54.9791 50.6398L56.3889 53.0542C57.2347 54.4966 58.0179 55.4686 58.2998 55.5C58.6444 55.5 59.3963 54.5593 60.2734 53.0542L61.7145 50.6398V53.5246V56.4407H62.8109H63.9074V51.4237V46.4068H63.0302C62.2784 46.4068 61.9964 46.7203 60.994 48.3508C60.3674 49.4483 59.5216 50.8593 59.1143 51.5491L58.3625 52.7407L56.5142 49.5737C54.8852 46.783 54.5719 46.4068 53.82 46.4068H52.9429V51.4237Z" fill="#CAC1DE"/>
<path d="M65.787 51.4237V56.4407H69.7029H73.6188V55.4686V54.528L70.7993 54.622L67.9799 54.7161V53.5246V52.3644H70.3294H72.679V51.4237V50.483H70.3294H67.9799V49.3856V48.2881H70.6427H73.3055V47.3475V46.4068H69.5462H65.787V51.4237Z" fill="#CAC1DE"/>
<path d="M76.0624 49.7619C75.9057 53.3678 75.5298 54.5593 74.5587 54.5593C73.9948 54.5593 73.9321 54.7788 73.9321 56.5975V58.6356H75.0286C76.0624 58.6356 76.125 58.5729 76.125 57.5382V56.4407H79.571H83.017V57.5382C83.017 58.5729 83.0797 58.6356 84.1135 58.6356H85.2099V56.5975C85.2099 54.6221 85.1786 54.5593 84.4267 54.5593H83.6435V50.4831V46.4068H79.9156H76.219L76.0624 49.7619ZM81.4506 51.3924V54.4966L79.3204 54.6221L77.1902 54.7161L77.5974 53.6187C77.7854 53.0229 77.9733 51.5805 78.0047 50.389V48.2882H79.7277H81.4506V51.3924Z" fill="#CAC1DE"/>
<path d="M86.463 51.4237V56.4407H87.4968C88.4366 56.4407 88.7186 56.1585 90.8488 53.2737L93.1984 50.1381L93.2923 53.2737L93.3863 56.4407H94.4514H95.5479V51.4237V46.4068H94.5454C93.6056 46.4381 93.2923 46.7203 91.0994 49.7305L88.6559 53.0542V49.7305V46.4068H87.5595H86.463V51.4237Z" fill="#CAC1DE"/>
<path d="M97.7407 51.4238V56.4407H101.813H105.886V57.5382C105.886 58.5729 105.948 58.6356 106.982 58.6356H108.079V56.5975C108.079 54.6221 108.047 54.5593 107.296 54.5593H106.512V50.4517V46.3755L105.51 46.4695L104.476 46.5636L104.382 50.5458L104.288 54.4966L102.127 54.6221L99.9336 54.7161V50.5458V46.4068H98.8372H97.7407V51.4238Z" fill="#CAC1DE"/>
<path d="M109.332 51.4237V56.4407H110.366C111.306 56.4407 111.588 56.1585 113.718 53.2737L116.067 50.1381L116.161 53.2737L116.255 56.4407H117.32H118.417V51.4237V46.4068L117.414 46.4381C116.475 46.4381 116.161 46.7517 113.968 49.7305L111.525 53.0542V49.7305V46.4068H110.428H109.332V51.4237Z" fill="#CAC1DE"/>
<path d="M120.61 51.4237V56.4407H121.706H122.803V54.4025V52.3644H125.152H127.502V54.4025V56.4407H128.598H129.694V51.4237V46.4068H128.598H127.502V48.4449V50.483H125.152H122.803V48.4449V46.4068H121.706H120.61V51.4237Z" fill="#CAC1DE"/>
<path d="M134.08 47.0966C131.511 48.4136 130.634 51.1729 131.919 53.8068C133.078 56.2212 135.991 57.3187 138.591 56.3153C140.534 55.5627 140.878 55.0924 140.032 54.2458C139.374 53.5873 139.343 53.5873 138.748 54.1204C138.372 54.4653 137.62 54.6534 136.68 54.6534C135.459 54.6534 135.114 54.528 134.331 53.6814C131.762 50.7966 135.553 46.5636 138.591 48.9466L139.406 49.6051L140.001 48.8526C140.722 48.006 140.44 47.4729 138.873 46.8144C137.401 46.2187 135.647 46.3127 134.08 47.0966Z" fill="#CAC1DE"/>
<path d="M141.912 51.4238V56.4407H143.008H144.105V54.4026C144.105 52.4585 144.136 52.3644 144.857 52.3644C145.421 52.3644 145.922 52.8348 146.956 54.4026C147.927 55.8136 148.522 56.4094 149.023 56.4407C149.399 56.4407 149.9 56.5348 150.182 56.6289C151.028 56.9424 150.746 56.2212 149.117 53.9322C148.271 52.7094 147.551 51.5805 147.551 51.3924C147.551 51.2043 148.177 50.2009 148.898 49.1348C150.903 46.3128 150.872 46.4068 149.65 46.4068C148.647 46.4068 148.428 46.595 147.206 48.445C146.078 50.1068 145.671 50.4517 144.982 50.4831C144.105 50.4831 144.105 50.4517 144.105 48.445V46.4068H143.008H141.912V51.4238Z" fill="#CAC1DE"/>
<path d="M151.623 51.4237V56.4407H152.657C153.566 56.4407 153.879 56.1585 156.009 53.3364L158.359 50.2008L158.453 53.3364L158.547 56.4407H159.612H160.708V51.4237V46.4068L159.706 46.4381C158.766 46.4381 158.453 46.7517 156.26 49.7932L153.816 53.1169V49.7619V46.4068H152.72H151.623V51.4237Z" fill="#CAC1DE"/>
<path d="M162.901 51.4237V56.4407H163.966C164.938 56.4407 165.219 56.1898 167.412 53.2737L169.793 50.1068V53.2737V56.4407H170.89H171.986V51.4237V46.4068H171.078C170.294 46.4068 169.856 46.8458 167.694 49.7305L165.251 53.0229L165.157 49.7305L165.063 46.4068H163.998H162.901V51.4237Z" fill="#CAC1DE"/>
<path d="M51.6898 64.2483C51.6898 64.4051 52.5357 66.0983 53.5381 68.0424C54.5719 69.9551 55.3238 71.7424 55.2298 71.9932C54.9792 72.6517 54.008 73.0907 53.4128 72.8712C52.9116 72.6831 52.3477 73.1534 52.3164 73.7492C52.3164 73.9059 52.9116 74 53.6634 74C54.6659 74 55.1985 73.8119 55.6684 73.3102C56.2323 72.6831 60.7747 64.4992 60.7747 64.0915C60.7747 64.0288 60.4928 63.9661 60.1795 63.9661C59.7096 63.9661 59.1144 64.7814 57.8613 67.1644L56.1383 70.3314L54.5406 67.1644C53.3188 64.7186 52.7863 63.9661 52.3164 63.9661C51.9718 63.9661 51.6898 64.0915 51.6898 64.2483Z" fill="#AEA5CC"/>
<path d="M62.0278 68.9831V74H62.811C63.5629 74 63.5942 73.9373 63.5942 71.8051V69.6102H66.4136H69.2331V71.8051C69.2331 73.7805 69.2957 74 69.8596 74C70.4548 74 70.4862 73.7805 70.4862 68.9831C70.4862 64.1856 70.4548 63.9661 69.8596 63.9661C69.2957 63.9661 69.2331 64.1856 69.2331 66.161V68.3559H66.4136H63.5942V66.161C63.5942 64.0288 63.5629 63.9661 62.811 63.9661H62.0278V68.9831Z" fill="#AEA5CC"/>
<path d="M73.3055 68.9831C73.3055 73.9686 73.3055 74 74.0261 73.9686C74.5273 73.9686 75.4358 72.9966 77.5347 70.2373L80.3542 66.5373L80.4481 70.2686C80.5108 73.7492 80.5734 74 81.1373 74C81.7325 74 81.7639 73.7492 81.7639 68.9831C81.7639 64.4051 81.7012 63.9661 81.2313 63.9661C80.8867 63.9975 79.5083 65.5339 77.7853 67.7915L74.8719 71.5856V67.7602V63.9661H74.0887H73.3055V68.9831Z" fill="#AEA5CC"/>
<path d="M84.8966 68.9517V74H87.81C91.0994 74 92.4778 73.4356 92.8537 71.9305C93.1356 70.8644 92.5404 69.3907 91.7259 69.1085C91.1307 68.9203 91.1307 68.9203 91.7573 68.2305C92.6657 67.2585 92.6031 65.8161 91.6006 64.8754C90.8801 64.2169 90.4728 64.1229 87.8414 64.0288L84.8966 63.9034V68.9517ZM90.6608 65.722C91.3187 66.3492 91.2873 67.0703 90.6295 67.7915C90.2536 68.2305 89.6583 68.3559 88.1233 68.3559H86.1497V66.7881V65.2203H88.1546C89.5644 65.2203 90.3162 65.3771 90.6608 65.722ZM91.0994 69.9864C91.5693 70.3941 91.6006 71.8678 91.0994 72.3695C90.8801 72.589 89.7836 72.7458 88.4366 72.7458H86.1497V71.0839V69.4534L88.4052 69.5475C89.6583 69.6102 90.8801 69.7983 91.0994 69.9864Z" fill="#AEA5CC"/>
<path d="M95.2346 68.9831V74H98.8372C102.221 74 102.44 73.9686 102.44 73.3729C102.44 72.7771 102.221 72.7458 99.4638 72.7458H96.4877V71.178V69.6102H98.9939C101.281 69.6102 101.5 69.5475 101.5 68.9831C101.5 68.4186 101.281 68.3559 98.9939 68.3559H96.4877V66.7881V65.2203H99.3072C101.907 65.2203 102.127 65.189 102.127 64.5932C102.127 63.9975 101.907 63.9661 98.6806 63.9661H95.2346V68.9831Z" fill="#AEA5CC"/>
<path d="M104.319 68.9831C104.319 73.7805 104.351 74 104.946 74C105.479 74 105.573 73.7805 105.573 72.4322V70.8644H107.797C109.896 70.8644 110.084 70.8017 111.086 69.7983C111.932 68.9517 112.151 68.4814 112.151 67.5093C112.151 65.0322 110.585 63.9661 106.826 63.9661H104.319V68.9831ZM110.115 66.0042C110.992 66.8508 111.086 67.4153 110.554 68.45C109.99 69.4847 109.676 69.6102 107.546 69.6102H105.573V67.4153V65.2203H107.452C109.05 65.2203 109.488 65.3458 110.115 66.0042Z" fill="#AEA5CC"/>
<path d="M115.848 64.5932C114.219 65.4712 113.404 66.9449 113.404 69.0458C113.404 72.0559 115.441 74 118.573 74C120.829 74 123.147 72.4636 121.706 71.9305C121.455 71.8364 120.954 71.9619 120.547 72.2441C118.981 73.3415 116.036 72.589 115.127 70.8644C114.156 68.9831 114.814 66.5686 116.537 65.6907C117.727 65.0636 119.67 65.0949 120.547 65.722C121.267 66.2237 122.176 66.1297 122.176 65.5339C122.176 65.3458 121.706 64.9381 121.173 64.5932C119.826 63.778 117.414 63.778 115.848 64.5932Z" fill="#AEA5CC"/>
<path d="M124.056 68.9831C124.056 73.5924 124.087 74 124.619 74C124.964 74 126.342 72.4949 128.222 70.0492L131.261 66.0983V70.0492C131.261 73.7805 131.292 74 131.887 74C132.483 74 132.514 73.7805 132.514 68.9831C132.514 62.5237 132.42 62.4924 128.379 67.7915L125.465 71.5856L125.371 67.7915C125.309 64.2169 125.246 63.9661 124.682 63.9661C124.087 63.9661 124.056 64.2169 124.056 68.9831Z" fill="#AEA5CC"/>
<path d="M133.767 64.5932C133.767 65.1576 133.986 65.2203 135.49 65.2203H137.213V69.6102V74H137.996H138.779V69.6102V65.2203H140.502C142.006 65.2203 142.225 65.1576 142.225 64.5932C142.225 63.9975 142.006 63.9661 137.996 63.9661C133.986 63.9661 133.767 63.9975 133.767 64.5932Z" fill="#AEA5CC"/>
<path d="M143.478 68.9831V74H147.081C150.464 74 150.684 73.9686 150.684 73.3729C150.684 72.7771 150.464 72.7458 147.708 72.7458H144.731V71.178V69.6102H147.394C149.838 69.6102 150.057 69.5475 150.057 68.9831C150.057 68.4186 149.838 68.3559 147.394 68.3559H144.731V66.7881V65.2203H147.551C150.151 65.2203 150.37 65.189 150.37 64.5932C150.37 63.9975 150.151 63.9661 146.924 63.9661H143.478V68.9831Z" fill="#AEA5CC"/>
<path d="M150.997 64.5932C150.997 65.1576 151.216 65.2203 152.72 65.2203H154.443V69.6102V74H155.226H156.009V69.6102V65.2203H157.732C159.236 65.2203 159.455 65.1576 159.455 64.5932C159.455 63.9975 159.236 63.9661 155.226 63.9661C151.216 63.9661 150.997 63.9975 150.997 64.5932Z" fill="#AEA5CC"/>
</g>
<defs>
<clipPath id="clip0_380_2181">
<rect width="203" height="74" fill="white"/>
</clipPath>
</defs>
</svg>
