<svg width="332" height="43" viewBox="0 0 332 43" fill="none" xmlns="http://www.w3.org/2000/svg">
<path d="M15.2922 0.340918C13.3768 0.785284 10.2123 2.06284 8.82435 2.9238C6.6314 4.31244 3.77222 7.47854 2.60635 9.81146C0.663218 13.6719 0.441146 14.6439 0.468905 18.6988C0.496664 21.8649 0.579941 22.5314 1.19064 24.1145C2.66186 27.8916 4.71603 31.2243 5.24345 30.6411C5.38224 30.4745 7.26985 27.8083 9.46281 24.6699C11.6558 21.5316 14.9036 17.0324 16.7357 14.6162C18.54 12.2277 20.0112 10.1447 20.0112 10.0059C20.0112 9.83924 19.4283 9.33932 18.7065 8.86719C17.9571 8.39505 17.2076 7.89514 17.041 7.7285C16.5136 7.28413 16.5969 6.3954 17.2076 6.0899C17.9848 5.64553 23.2868 5.22894 27.7282 5.22894H31.6977L30.4208 4.11803C26.7289 0.92415 19.9557 -0.769997 15.2922 0.340918Z" fill="#CAC1DE"/>
<path d="M63.9536 3.67367C62.3436 4.20136 60.4283 5.34004 59.4289 6.42319C58.0687 7.8396 56.431 11.4501 55.9313 14.1718L55.4594 16.6158H52.4337H49.4357V10.3669C49.4357 3.28485 49.4912 3.42372 47.326 4.2569C45.6605 4.89568 44.3003 6.33987 43.9117 7.86737C43.7174 8.67279 43.6063 13.3664 43.6063 21.6427V34.196L44.6889 34.0294C45.2996 33.9461 46.3267 33.5017 47.0207 33.0296C48.936 31.7243 49.2414 30.6967 49.3802 25.281L49.4912 20.7818H52.5169C54.1825 20.7818 55.5427 20.8373 55.5427 20.8928C55.5427 20.9484 55.7092 21.9204 55.9313 23.0591C57.0139 28.5304 59.3179 32.0853 63.0098 33.8905C64.8697 34.807 68.4506 34.7793 70.3937 33.835C73.2807 32.4186 75.085 30.169 76.3619 26.3919C78.999 18.4766 77.2224 9.08938 72.3924 5.39559C70.0884 3.61813 66.3687 2.86826 63.9536 3.67367ZM68.8392 8.78388C70.6991 10.1725 71.9205 14.0885 71.9205 18.6988C71.8927 25.6976 69.8385 29.9468 66.4797 29.9468C65.4804 29.9468 65.064 29.7802 64.148 28.947C60.9834 26.0864 60.0951 16.6436 62.4824 11.1168C63.8426 7.92292 66.4519 6.97864 68.8392 8.78388Z" fill="#AEA5CC"/>
<path d="M123.802 4.61795C122.636 5.20118 122.164 5.67332 121.692 6.6176C121.054 7.8396 121.054 7.89515 121.054 21.0039V34.196L122.192 34.0294C123.663 33.835 125.162 32.6408 125.995 31.0577C126.55 29.919 126.606 29.4747 126.606 24.7533C126.606 19.7264 126.606 19.6708 127.216 19.6708C128.16 19.6708 130.103 20.7262 130.992 21.7538C131.491 22.3093 132.491 24.42 133.518 27.0584C134.461 29.5024 135.461 32.0298 135.738 32.7241L136.21 33.9739L139.347 34.0572C141.818 34.1127 142.456 34.0572 142.345 33.7795C142.262 33.585 141.262 31.0577 140.096 28.1971C138.931 25.3087 137.765 22.5592 137.543 22.0871C136.738 20.5318 135.322 19.0043 133.851 18.1433C133.073 17.6712 132.491 17.1713 132.574 16.9769C132.629 16.8102 133.545 15.4771 134.6 14.0607C138.709 8.47838 141.595 4.36799 141.595 4.11804C141.595 3.9514 140.402 3.84031 138.709 3.84031H135.822L134.572 5.56223C132.962 7.89515 131.686 9.70038 128.91 13.6719L126.606 17.0046V10.4225V3.84031H125.939C125.579 3.84031 124.607 4.17358 123.802 4.61795Z" fill="#AEA5CC"/>
<path d="M253.464 3.89582C253.464 3.95137 253.464 10.7279 253.436 18.9765V33.9738L258.655 34.0571C264.373 34.1405 265.845 33.9461 268.343 32.7518C272.507 30.7799 274.505 25.8086 272.895 21.5038C271.285 17.2268 267.205 15.0327 261.459 15.2827L258.738 15.4216V12.0055V8.58944L263.152 8.50612C267.121 8.4228 267.677 8.36725 268.343 7.83957C269.481 7.00638 270.119 6.03433 270.314 4.86787L270.48 3.84028H261.958C257.295 3.84028 253.464 3.86805 253.464 3.89582ZM265.456 20.3651C266.094 20.8373 266.872 21.6427 267.121 22.1704C268.093 24.0867 267.538 27.1417 265.956 28.8081C264.928 29.8634 263.679 30.2245 261.098 30.2245H258.738V24.9754C258.738 21.0317 258.822 19.6708 259.099 19.5597C259.266 19.4764 260.515 19.4486 261.847 19.4764C264.012 19.5319 264.346 19.6153 265.456 20.3651Z" fill="#AEA5CC"/>
<path d="M35.8339 7.53406C35.8339 8.58943 35.584 8.9227 32.475 11.7555C23.8975 19.643 16.2083 26.0863 9.74045 30.8633C6.18731 33.4739 4.91039 34.5293 5.77092 34.1127C6.10403 33.9738 6.46489 33.6961 6.54817 33.5572C6.85352 33.0851 7.65853 33.2517 8.65785 34.0016C9.74045 34.807 10.7398 35.2791 13.4879 36.2512C20.2056 38.6119 28.5888 36.0568 33.169 30.2245C36.056 26.5862 37.3329 23.0035 37.3329 18.5599C37.3329 15.8937 36.6389 12.5887 35.6673 10.7557C35.2787 9.97807 35.2787 9.86698 35.8061 9.00602C36.4446 8.0062 36.5556 7.03415 36.1115 6.75642C35.9449 6.64533 35.8339 6.97861 35.8339 7.53406Z" fill="#CAC1DE"/>
<path d="M82.3301 12.0889C81.0532 12.7554 80.2204 13.5886 79.6652 14.8106C79.1933 15.8104 79.1378 16.7825 79.1378 25.0588V34.196L80.2759 34.0294C81.7194 33.835 83.4405 32.6963 84.0512 31.5576C84.3565 30.9466 84.5786 29.6968 84.6619 27.725L84.8284 24.8088L88.1317 24.7255C90.3802 24.67 91.5183 24.7533 91.6294 24.9755C91.7404 25.1421 91.7681 26.1141 91.7126 27.1417C91.6294 28.1416 91.6571 30.1412 91.7681 31.5299L91.9625 34.1127H94.5718H97.1811V22.8369V11.5334L96.043 11.7C94.7106 11.8667 93.1561 13.0331 92.3233 14.4218C91.9347 15.0883 91.7681 15.9215 91.7404 17.3101C91.7126 18.3655 91.6571 19.6708 91.6571 20.143L91.6294 21.0595H88.1595H84.6896V16.3381V11.6167H83.9401C83.496 11.6445 82.802 11.8389 82.3301 12.0889Z" fill="#AEA5CC"/>
<path d="M99.4019 22.8647V34.1127H101.289C102.733 34.1127 103.371 33.9738 104.176 33.4739C105.509 32.6685 105.786 32.2797 108.84 27.0306C111.144 23.0591 112.088 21.5038 113.198 19.7819C113.448 19.3653 113.531 20.3929 113.531 24.7532C113.559 29.7246 113.614 30.3633 114.114 31.3632C114.836 32.724 116.946 34.1682 118.111 34.0571L118.889 33.9738L118.861 23.1424C118.861 17.1712 118.833 12.1443 118.833 11.9222C118.833 11.6444 118.333 11.5889 116.501 11.6444C112.865 11.8111 113.115 11.5611 106.841 22.5036L104.815 26.0585L104.732 18.8376L104.676 11.6167H102.039H99.4019V22.8647Z" fill="#AEA5CC"/>
<path d="M146.786 12.061C145.926 12.2554 144.815 12.6443 144.371 12.8664L143.539 13.3108V28.1415V43H144.233C145.87 43 147.897 41.528 148.507 39.8617C148.674 39.4173 148.813 38.0009 148.813 36.6678V34.2515L151.089 34.3349C153.782 34.446 155.086 34.1127 157.057 32.8074C160.194 30.7244 161.859 26.0308 161.277 20.865C160.61 14.8661 156.807 11.5889 150.645 11.6444C149.396 11.6444 147.675 11.8389 146.786 12.061ZM153.56 15.8659C154.087 16.1992 154.809 17.0879 155.197 17.8656C155.836 19.1153 155.891 19.5875 155.891 22.7258C155.891 26.5029 155.614 27.7527 154.448 29.1413C153.282 30.53 151.839 31.0021 149.451 30.8355L148.813 30.7799V23.198C148.813 19.0043 148.896 15.5049 149.007 15.4216C149.09 15.3105 149.951 15.2271 150.895 15.2271C152.227 15.2271 152.838 15.366 153.56 15.8659Z" fill="#AEA5CC"/>
<path d="M168.91 12.1999C168.105 12.5054 166.884 13.283 166.134 13.9218C162.998 16.6991 161.832 22.7258 163.525 27.7249C165.052 32.2519 168.216 34.3904 173.324 34.3904C175.989 34.3904 177.571 34.1127 179.57 33.3628L180.736 32.9184V30.7521C180.736 29.5301 180.708 28.5581 180.68 28.5581C180.625 28.5581 180.014 28.8636 179.292 29.2246C177.349 30.1967 174.379 30.6688 172.519 30.28C170.548 29.8912 169.715 29.2802 168.91 27.6971C168.355 26.5584 167.994 24.9476 168.327 24.9476C168.383 24.9476 171.214 24.5588 174.629 24.1144C178.043 23.6423 180.93 23.2812 181.069 23.2812C181.18 23.2812 181.291 22.4481 181.291 21.3927C181.263 15.2549 177.849 11.5889 172.158 11.6444C171.02 11.6444 169.771 11.8666 168.91 12.1999ZM174.323 15.727C175.684 16.3936 176.378 17.4767 176.405 18.8931L176.433 20.0874L172.269 20.6706C169.993 21.0039 168.022 21.1983 167.883 21.0872C167.55 20.7539 167.994 18.3932 168.633 17.2545C169.327 16.0048 170.715 15.2271 172.269 15.2271C172.88 15.2271 173.796 15.4493 174.323 15.727Z" fill="#AEA5CC"/>
<path d="M188.258 15.977C187.176 23.4479 185.816 27.0583 183.178 29.5579L181.818 30.8632L181.957 32.8351C182.04 33.9182 182.096 35.9179 182.096 37.251C182.124 39.1395 182.207 39.7228 182.54 39.8339C183.206 40.1116 184.289 39.7228 185.205 38.8896C185.927 38.2508 186.093 37.8064 186.371 36.1123L186.676 34.1126H193.81H200.916L201.111 35.3902C201.194 36.1123 201.277 37.4176 201.277 38.3063C201.277 39.9172 201.305 39.9449 202.055 39.9449C203.137 39.9449 204.442 39.0562 204.941 37.9731C205.247 37.3343 205.413 35.9734 205.469 33.8349L205.58 30.641L204.581 30.1411C203.581 29.669 203.581 29.6134 203.415 27.6416C203.22 25.0587 202.138 14.3384 201.943 12.7831L201.805 11.6166H195.337H188.897L188.258 15.977ZM197.918 22.5036C198.252 26.2252 198.585 29.419 198.64 29.5857C198.723 29.8634 197.641 29.9467 193.755 29.9467H188.758L189.452 29.0302C190.951 27.0583 192.311 22.8091 193.005 17.9766L193.31 15.7826H195.309H197.28L197.918 22.5036Z" fill="#AEA5CC"/>
<path d="M207.384 22.8647V34.1127H209.189C212.103 34.1127 213.158 33.3628 215.24 29.8079C215.851 28.7247 216.878 26.975 217.516 25.9197C218.155 24.8365 219.265 22.9202 220.042 21.6427L221.403 19.282L221.541 24.9754C221.68 30.3078 221.708 30.6966 222.319 31.6964C223.068 32.8629 224.983 34.1127 226.066 34.1127H226.816V22.8647V11.6167H224.872C222.818 11.6167 221.319 12.1443 220.375 13.1719C219.931 13.6996 218.405 16.2547 215.434 21.476C214.574 23.0035 213.602 24.6977 213.269 25.2254L212.658 26.1974V18.8931V11.6167H210.021H207.384V22.8647Z" fill="#AEA5CC"/>
<path d="M228.12 11.8111C227.87 12.0333 227.87 15.0328 228.092 15.616C228.231 15.977 228.759 16.0604 230.868 16.0604H233.478V25.1143V34.196L234.616 34.0294C235.976 33.8628 237.586 32.6685 238.252 31.3077C238.696 30.4745 238.752 29.4747 238.752 23.198V16.0604H241.528H244.304V13.8385V11.6167H236.309C231.895 11.6167 228.203 11.7 228.12 11.8111Z" fill="#AEA5CC"/>
<path d="M279.141 12.0333C278.392 12.2555 277.254 12.5888 276.643 12.8109L275.532 13.1998L275.449 15.0328C275.366 16.8102 275.532 17.1991 276.115 16.6436C276.643 16.0881 280.696 14.9494 282.056 14.9494C284.887 14.9494 286.22 16.0604 286.22 18.4488V19.893L283.943 20.2263C282.667 20.4207 280.64 20.8928 279.419 21.2539C276.449 22.1982 274.811 23.7534 274.283 26.1141C273.534 29.4191 274.922 32.2242 277.975 33.585C279.335 34.196 279.752 34.2516 284.554 34.2516C287.386 34.2516 290.05 34.1405 290.467 34.0294L291.244 33.8072L291.161 25.281L291.078 16.7547L290.3 15.366C288.968 12.9498 286.247 11.6167 282.667 11.6445C281.501 11.6445 279.918 11.8389 279.141 12.0333ZM286.22 26.864C286.22 31.8909 286.358 31.6132 283.777 31.6132C280.64 31.5854 279.002 30.1967 279.002 27.5306C279.002 25.0865 280.279 23.7812 283.416 22.948C286.47 22.1704 286.22 21.8093 286.22 26.864Z" fill="#AEA5CC"/>
<path d="M295.797 12.0888C295.352 12.311 294.658 12.7831 294.298 13.1164C292.937 14.3384 292.882 14.8383 292.882 24.8088C292.882 33.8905 292.882 34.1127 293.437 34.1127C294.325 34.1127 296.102 33.3073 296.713 32.5852C297.795 31.3354 298.017 30.6411 298.156 27.7249L298.295 24.8088L301.709 24.7254L305.096 24.6421V29.3913V34.1127H307.872H310.648V22.8647V11.6167H309.954C309.065 11.6167 307.372 12.4776 306.567 13.3386C305.484 14.4773 305.096 15.8659 305.096 18.5599V21.0594H301.626H298.156V16.338V11.6167H297.407C296.962 11.6444 296.268 11.8388 295.797 12.0888Z" fill="#AEA5CC"/>
<path d="M312.313 22.8925V34.196L313.451 34.0294C315.033 33.8072 316.588 32.6963 317.282 31.2799C317.754 30.2523 317.865 29.5302 317.865 26.9751V23.8923L318.864 24.1145C320.502 24.5033 321.64 25.892 323.777 30.1412L325.748 34.1127H328.608C330.19 34.1127 331.467 34.0572 331.467 33.9739C331.467 33.9183 330.523 31.9464 329.385 29.6135C327.247 25.1976 326.248 23.7257 324.527 22.4759L323.528 21.7538L326.109 18.4211C327.525 16.5881 329.246 14.3662 329.94 13.5053C330.634 12.6165 331.189 11.8389 331.189 11.7556C331.189 11.6723 329.884 11.6167 328.302 11.6167H325.387L323.777 13.783C322.889 14.9772 321.224 17.1991 320.085 18.6988L318.004 21.4205L317.92 16.5325L317.865 11.6167H315.089H312.313V22.8925Z" fill="#AEA5CC"/>
</svg>
