<svg width="240" height="51" viewBox="0 0 240 51" fill="none" xmlns="http://www.w3.org/2000/svg">
<path d="M16.2138 0.326477H21.5547C21.5204 6.82691 21.5375 10.8929 21.6062 12.5243C21.7239 15.1774 22.5576 17.8609 24.1074 20.5749C22.6655 22.8417 20.8951 24.6561 18.796 26.0182C18.9971 25.8962 18.9186 25.9038 18.5606 26.0411C16.3929 24.4858 14.1736 23.6955 11.9029 23.6701C7.93527 23.6244 3.96763 23.5837 0 23.5481V17.6474C3.56057 17.6703 10.7259 18.4479 13.6243 16.7326C15.3948 15.6856 16.2629 13.9677 16.2286 11.579C16.1697 7.82307 16.1648 4.07223 16.2138 0.326477Z" fill="#CAC1DE"/>
<path d="M26.4068 0.326477H31.7042C31.6945 3.53088 31.6921 6.73529 31.6969 9.93969C31.7042 15.7522 34.1491 17.3492 39.5411 17.3723C42.345 17.3825 45.1344 17.3723 47.9092 17.3416C48.113 17.3416 48.2148 17.4491 48.2148 17.6641L48.1785 24.1445C43.827 24.2469 39.4805 24.2955 35.1388 24.2904C33.145 24.2827 31.5514 25.8414 29.5431 26.0411C27.4425 24.6794 25.6307 22.8904 24.1074 20.6739C27.4765 15.2915 26.465 8.36565 26.4068 0.326477Z" fill="#CAC1DE"/>
<path d="M18.7616 26.1215C20.945 27.3661 22.7269 29.0833 24.1074 31.2732C24.0389 31.3112 23.9508 31.4822 23.8431 31.7862C20.5754 37.1018 21.6181 44.213 21.4933 50.1484H16.5367C16.2821 50.1484 16.1548 50.0249 16.1548 49.7779C16.145 47.0038 16.145 44.2296 16.1548 41.4554C16.1622 36.8453 14.9065 33.8312 9.72962 33.8597C6.48396 33.8787 3.24076 33.874 0 33.8455V28.2092C6.31507 28.4088 13.3865 29.0714 18.5267 26.1429C18.884 26.0146 18.9624 26.0075 18.7616 26.1215Z" fill="#CAC1DE"/>
<path d="M29.9471 26.0697C30.2735 26.0028 30.5783 26.053 30.8615 26.2203C32.4169 27.1671 34.5338 27.6405 36.1899 27.7051C39.4494 27.8342 43.4481 27.8342 48.1861 27.7051L48.2148 33.8449C48.2148 34.0888 48.0924 34.2131 47.8476 34.2179C45.0442 34.2322 42.2504 34.2322 39.4662 34.2179C34.4402 34.1964 31.9128 35.6166 31.8984 40.7881C31.8888 43.7815 31.8816 46.7773 31.8768 49.7755C31.8768 50.0241 31.7544 50.1484 31.5096 50.1484H26.5052C26.6636 42.4521 27.1749 37.4026 24.8635 32.1091C24.7723 31.9035 24.6163 31.7744 24.3954 31.7218C24.309 31.6979 24.213 31.6788 24.1074 31.6644C24.213 31.3584 24.2994 31.1862 24.3666 31.148C25.8404 28.934 27.7005 27.2412 29.9471 26.0697Z" fill="#CAC1DE"/>
<path d="M20.9146 0.326477H27.0854C27.159 8.56258 28.4392 15.658 24.1749 21.1724C24.1565 21.1881 24.135 21.2038 24.1105 21.2196C22.1702 18.4191 21.1264 15.6502 20.979 12.9127C20.8931 11.2293 20.8716 7.03388 20.9146 0.326477Z" fill="#AEA5CC"/>
<path d="M48.2149 22.8267L48.2074 29.0898C43.257 29.3105 39.079 29.3105 35.6734 29.0898C33.9431 28.9795 31.7312 28.1706 30.1061 26.5527C29.8102 26.2667 29.4917 26.1809 29.1507 26.2953C28.9601 26.0502 28.8924 25.9031 28.9475 25.8541C31.024 25.5354 32.6716 23.0473 34.733 23.0595C39.222 23.0677 43.7159 22.9901 48.2149 22.8267Z" fill="#AEA5CC"/>
<path d="M23.9825 30.8625C24.1203 30.8775 24.2457 30.8975 24.3585 30.9224C24.6467 30.9773 24.8504 31.112 24.9695 31.3265C27.9869 36.8496 27.3195 42.1183 27.1127 50.1485H20.9745C21.1343 43.9144 19.7994 36.4455 23.9825 30.8625Z" fill="#AEA5CC"/>
<path d="M0 22.8267C4.12269 22.8731 8.24538 22.9262 12.3681 22.9859C14.7275 23.0191 17.0335 24.0507 19.2859 26.0809C13.9351 30.1712 6.57388 29.2456 0 28.967V22.8267Z" fill="#AEA5CC"/>
<path d="M233.734 23.015H239.467V35.6714H231.604V27.6482H203.305V0.112976H211.458V22.789H225.607V0.112976H233.734V23.015Z" fill="#7D73AB"/>
<path d="M189.656 27.6482L186.868 21.094H172.85L170.063 27.6482H161.279L174.849 0H184.817L198.44 27.6482H189.656ZM184.922 16.1972C182.345 10.2582 180.889 6.8995 180.556 6.12103C180.241 5.34256 180.013 4.72732 179.872 4.2753C179.294 5.88246 177.637 9.85642 174.902 16.1972H184.922Z" fill="#7D73AB"/>
<path d="M121.777 0.112976H129.114V13.4097L129.009 16.9693L128.746 21.0186H128.904L146.656 0.112976H156.413V27.6482H149.155V14.4268C149.155 12.6564 149.312 10.0322 149.628 6.55418H149.418L131.587 27.6482H121.777V0.112976Z" fill="#7D73AB"/>
<path d="M87.2456 27.6482L77.9882 6.04566H77.7515C78.0846 10.4402 78.2511 13.3721 78.2511 14.8411V27.6482H70.9662V0.112976H82.0646L91.1642 21.1693H91.322L100.974 0.112976H112.072V27.6482H104.472V14.6151C104.472 13.9999 104.481 13.2904 104.498 12.4869C104.533 11.6833 104.656 9.54877 104.866 6.08333H104.63L94.7146 27.6482H87.2456Z" fill="#7D73AB"/>
<path d="M208.027 47.4741C208.027 48.3237 207.742 48.9829 207.173 49.4516C206.608 49.9162 205.8 50.1485 204.75 50.1485H201.693V40.9701H202.76V44.8875H204.587C205.704 44.8875 206.556 45.1094 207.142 45.553C207.732 45.9925 208.027 46.6328 208.027 47.4741ZM202.76 49.2256H204.637C206.16 49.2256 206.922 48.6418 206.922 47.4741C206.922 46.9091 206.725 46.4947 206.332 46.231C205.943 45.9632 205.317 45.8292 204.455 45.8292H202.76V49.2256Z" fill="#7D73AB"/>
<path d="M197.398 50.1485H196.331V41.9181H193.424V40.9701H200.305V41.9181H197.398V50.1485Z" fill="#7D73AB"/>
<path d="M190.392 41.7925C189.383 41.7925 188.586 42.1294 188 42.8033C187.418 43.4729 187.128 44.3916 187.128 45.5593C187.128 46.7605 187.408 47.6896 187.969 48.3467C188.534 48.9996 189.337 49.3261 190.38 49.3261C191.02 49.3261 191.75 49.211 192.571 48.9808V49.9162C191.934 50.1548 191.15 50.2741 190.216 50.2741C188.864 50.2741 187.82 49.8639 187.084 49.0436C186.351 48.2232 185.985 47.0576 185.985 45.5467C185.985 44.6009 186.161 43.7722 186.512 43.0607C186.868 42.3492 187.379 41.8009 188.044 41.4158C188.714 41.0308 189.501 40.8383 190.405 40.8383C191.367 40.8383 192.209 41.014 192.928 41.3656L192.476 42.2822C191.782 41.9557 191.087 41.7925 190.392 41.7925Z" fill="#7D73AB"/>
<path d="M184.095 50.1484L182.953 47.2292H179.274L178.144 50.1484H177.064L180.693 40.9324H181.59L185.2 50.1484H184.095ZM182.62 46.2687L181.553 43.4247C181.415 43.0648 181.272 42.6232 181.126 42.1001C181.034 42.5019 180.902 42.9434 180.73 43.4247L179.65 46.2687H182.62Z" fill="#7D73AB"/>
<path d="M175.802 50.1485H174.735V41.9181H171.753L171.558 43.4248C171.303 45.4295 171.077 46.8965 170.88 47.8256C170.688 48.7506 170.432 49.3951 170.114 49.7593C169.796 50.1234 169.374 50.3013 168.846 50.2929C168.536 50.2929 168.258 50.2406 168.011 50.1359V49.2382C168.237 49.347 168.474 49.4014 168.721 49.4014C168.942 49.4014 169.135 49.3114 169.298 49.1315C169.466 48.9473 169.612 48.6313 169.738 48.1835C169.867 47.7315 170.029 46.8777 170.221 45.6221C170.418 44.3623 170.633 42.8116 170.868 40.9701H175.802V50.1485Z" fill="#7D73AB"/>
<path d="M167.339 47.4741C167.339 48.3865 167.067 49.0603 166.523 49.4956C165.983 49.9309 165.167 50.1485 164.075 50.1485H161.388V40.9701H166.8V41.9181H162.455V44.8875H163.88C164.688 44.8875 165.345 44.9817 165.852 45.1701C166.358 45.3542 166.733 45.6284 166.975 45.9925C167.218 46.3566 167.339 46.8505 167.339 47.4741ZM162.455 49.2256H163.956C164.751 49.2256 165.328 49.0896 165.688 48.8176C166.052 48.5455 166.235 48.0977 166.235 47.4741C166.235 46.8798 166.05 46.457 165.682 46.2059C165.314 45.9548 164.671 45.8292 163.755 45.8292H162.455V49.2256Z" fill="#7D73AB"/>
<path d="M159.335 45.5467C159.335 47.0158 158.962 48.1709 158.218 49.0122C157.477 49.8534 156.445 50.274 155.122 50.274C153.771 50.274 152.726 49.8618 151.99 49.0373C151.257 48.2086 150.891 47.0409 150.891 45.5342C150.891 44.04 151.259 42.8828 151.996 42.0624C152.733 41.2379 153.779 40.8257 155.135 40.8257C156.453 40.8257 157.483 41.2442 158.224 42.0813C158.965 42.9183 159.335 44.0735 159.335 45.5467ZM152.021 45.5467C152.021 46.7898 152.285 47.7335 152.812 48.3781C153.344 49.0184 154.114 49.3386 155.122 49.3386C156.14 49.3386 156.908 49.0184 157.426 48.3781C157.945 47.7377 158.205 46.7939 158.205 45.5467C158.205 44.3121 157.945 43.3766 157.426 42.7405C156.912 42.1001 156.148 41.7799 155.135 41.7799C154.118 41.7799 153.344 42.1022 152.812 42.7467C152.285 43.3871 152.021 44.3204 152.021 45.5467Z" fill="#7D73AB"/>
<path d="M142.566 46.3189L140.162 50.1485H138.9L141.474 46.1369C140.8 45.9234 140.311 45.6011 140.005 45.1701C139.7 44.7348 139.547 44.1865 139.547 43.5252C139.547 42.7049 139.829 42.075 140.394 41.6356C140.964 41.1919 141.824 40.9701 142.975 40.9701H145.498V50.1485H144.431V46.3189H142.566ZM144.431 41.893H143.006C142.24 41.893 141.658 42.0248 141.261 42.2885C140.863 42.5521 140.664 42.9811 140.664 43.5755C140.664 44.7934 141.457 45.4023 143.044 45.4023H144.431V41.893Z" fill="#7D73AB"/>
<path d="M137.475 50.1484L136.332 47.2292H132.654L131.524 50.1484H130.444L134.072 40.9324H134.97L138.58 50.1484H137.475ZM136 46.2687L134.932 43.4247C134.794 43.0648 134.652 42.6232 134.506 42.1001C134.413 42.5019 134.282 42.9434 134.11 43.4247L133.03 46.2687H136Z" fill="#7D73AB"/>
<path d="M130.437 50.1485H129.144L124.9 45.4965V50.1485H123.833V40.9701H124.9V45.4149L129.037 40.9701H130.262L126.2 45.4275L130.437 50.1485Z" fill="#7D73AB"/>
<path d="M119.652 41.7925C118.643 41.7925 117.846 42.1294 117.26 42.8033C116.678 43.4729 116.387 44.3916 116.387 45.5593C116.387 46.7605 116.668 47.6896 117.229 48.3467C117.794 48.9996 118.597 49.3261 119.639 49.3261C120.28 49.3261 121.01 49.211 121.83 48.9808V49.9162C121.194 50.1548 120.409 50.2741 119.476 50.2741C118.124 50.2741 117.08 49.8639 116.343 49.0436C115.611 48.2232 115.245 47.0576 115.245 45.5467C115.245 44.6009 115.421 43.7722 115.772 43.0607C116.128 42.3492 116.638 41.8009 117.304 41.4158C117.974 41.0308 118.76 40.8383 119.664 40.8383C120.627 40.8383 121.468 41.014 122.188 41.3656L121.736 42.2822C121.041 41.9557 120.347 41.7925 119.652 41.7925Z" fill="#7D73AB"/>
<path d="M113.795 43.6445C113.795 44.5737 113.476 45.2893 112.84 45.7916C112.208 46.2896 111.302 46.5387 110.122 46.5387H109.042V50.1485H107.975V40.9701H110.354C112.648 40.9701 113.795 41.8616 113.795 43.6445ZM109.042 45.6221H110.003C110.949 45.6221 111.633 45.4693 112.056 45.1638C112.478 44.8583 112.69 44.3686 112.69 43.6947C112.69 43.0879 112.491 42.6358 112.093 42.3387C111.696 42.0415 111.076 41.893 110.235 41.893H109.042V45.6221Z" fill="#7D73AB"/>
<path d="M105.608 50.1484L104.466 47.2292H100.787L99.6566 50.1484H98.5768L102.205 40.9324H103.103L106.713 50.1484H105.608ZM104.133 46.2687L103.066 43.4247C102.927 43.0648 102.785 42.6232 102.639 42.1001C102.547 42.5019 102.415 42.9434 102.243 43.4247L101.163 46.2687H104.133Z" fill="#7D73AB"/>
<path d="M92.2862 50.1485L89.1723 42.0122H89.1221C89.1807 42.6568 89.21 43.4227 89.21 44.31V50.1485H88.2244V40.9701H89.8315L92.7382 48.5413H92.7885L95.7203 40.9701H97.3149V50.1485H96.2476V44.2346C96.2476 43.5566 96.2769 42.82 96.3355 42.0248H96.2853L93.1463 50.1485H92.2862Z" fill="#7D73AB"/>
<path d="M85.8576 50.1484L84.715 47.2292H81.0361L79.9061 50.1484H78.8263L82.455 40.9324H83.3527L86.9626 50.1484H85.8576ZM84.3823 46.2687L83.315 43.4247C83.1769 43.0648 83.0346 42.6232 82.8881 42.1001C82.7961 42.5019 82.6642 42.9434 82.4926 43.4247L81.4128 46.2687H84.3823Z" fill="#7D73AB"/>
<path d="M75.907 41.7925C74.8984 41.7925 74.1011 42.1294 73.5151 42.8033C72.9333 43.4729 72.6425 44.3916 72.6425 45.5593C72.6425 46.7605 72.9229 47.6896 73.4837 48.3467C74.0487 48.9996 74.8523 49.3261 75.8945 49.3261C76.5348 49.3261 77.2652 49.211 78.0855 48.9808V49.9162C77.4493 50.1548 76.6646 50.2741 75.7312 50.2741C74.3794 50.2741 73.3351 49.8639 72.5985 49.0436C71.8661 48.2232 71.4999 47.0576 71.4999 45.5467C71.4999 44.6009 71.6757 43.7722 72.0272 43.0607C72.383 42.3492 72.8936 41.8009 73.5591 41.4158C74.2287 41.0308 75.0155 40.8383 75.9196 40.8383C76.8822 40.8383 77.7234 41.014 78.4433 41.3656L77.9913 42.2822C77.2965 41.9557 76.6018 41.7925 75.907 41.7925Z" fill="#7D73AB"/>
</svg>
