<svg width="86" height="85" viewBox="0 0 86 85" fill="none" xmlns="http://www.w3.org/2000/svg">
<path d="M40.7946 2.73889C39.5101 2.84278 37.0924 3.26778 35.5624 3.655C28.6962 5.38334 22.1607 10.1244 18.2979 16.1972C16.1351 19.5972 14.6618 23.5072 14.0574 27.4361C13.6324 30.1939 13.7268 34.8594 14.2651 37.7306C15.1529 42.5189 17.0985 46.75 19.9885 50.1972C21.6507 52.1711 24.0968 54.2961 26.3635 55.7222C27.6007 56.4967 30.3962 57.9039 30.6324 57.8756C30.9629 57.8283 30.8874 57.6583 30.4624 57.4411C29.1307 56.7989 26.7601 55.0044 25.5135 53.6917C24.7107 52.8606 23.7001 51.5856 22.954 50.49C22.5007 49.8289 21.2824 47.345 20.8574 46.2211C19.5257 42.6794 19.0912 37.5606 19.7807 33.5561C20.0074 32.2811 20.4512 30.6189 20.8574 29.5422C21.3201 28.2956 22.4062 26.1328 23.0862 25.0656C27.9407 17.5478 36.5635 13.3733 45.3374 14.3083C51.1268 14.9222 56.5196 17.6706 60.3918 21.9961C63.3762 25.3394 65.3407 29.3439 66.049 33.575C66.4646 36.04 66.4835 39.1567 66.1057 41.6878C65.8885 43.1044 65.4162 45.0594 65.0196 46.1833C64.4246 47.8361 62.8851 50.6506 61.8557 51.9444C61.6762 52.1711 61.0435 52.8794 60.439 53.5122C59.0129 55.0422 57.5774 56.185 56.0662 57.0444C55.6224 57.29 55.5468 57.375 55.6318 57.4789C55.8018 57.6867 55.934 57.6489 56.9729 57.12C58.7296 56.2228 60.5146 55.0894 61.9218 53.9656C63.3479 52.8322 65.5201 50.7544 65.9262 50.1311C66.049 49.9422 66.4646 49.385 66.8518 48.8844C68.1835 47.1278 69.3451 44.9556 70.2518 42.5378C71.1301 40.1861 71.5551 38.3539 71.8762 35.5111C72.0462 34.0094 72.0651 33.4144 72.0274 31.3083C71.9518 27.7572 71.6212 25.6983 70.6674 22.8556C70.0157 20.9289 69.3735 19.4083 68.684 18.1806C66.559 14.4028 64.3774 11.7772 61.289 9.23667C58.5218 6.97945 54.574 4.88278 51.2685 3.91945C47.8968 2.93723 43.8168 2.48389 40.7946 2.73889Z" fill="#AEA5CC"/>
<path d="M41.1251 23.8C39.5856 23.9794 36.9506 24.6406 36.0723 25.075C35.8362 25.1883 35.4962 25.3111 35.3073 25.3489C34.7218 25.4528 32.219 27.0583 30.7456 28.2767C29.8673 29.0039 28.1295 31.0061 27.3362 32.2056C26.3634 33.6883 25.8251 34.7933 25.2018 36.6161C24.5218 38.6089 24.314 40.12 24.3234 43.0194C24.3423 46.0322 25.249 49.3472 26.7506 51.8783C27.3645 52.9078 28.1484 53.9372 29.0362 54.8628C29.754 55.6089 31.0479 56.7233 31.3218 56.8272C31.4729 56.8839 31.8223 56.6006 31.8223 56.4306C31.8223 56.3644 31.5862 56.0528 31.3029 55.7317C30.0656 54.3433 28.989 52.36 28.4695 50.5183C28.054 49.045 27.9218 47.9683 27.9123 46.0889C27.9123 43.3689 28.2901 41.6972 29.4234 39.3928C30.2356 37.7306 30.7456 37.0128 31.9923 35.6906C34.2306 33.3389 36.8656 31.8844 40.0579 31.2422C40.9268 31.0722 41.4462 31.0344 42.8723 31.025C44.9501 31.025 46.3573 31.2422 48.0762 31.8372C48.7845 32.0828 50.4751 32.9517 51.2118 33.4522C53.469 34.9728 55.2634 37.0317 56.4251 39.4306C57.5584 41.7728 57.9268 43.3594 57.9268 46.0417C57.9268 47.855 57.8323 48.7144 57.4545 50.1406C56.9918 51.9161 56.2173 53.5122 55.0368 55.1367L54.4606 55.93L54.6495 56.1756C54.7534 56.3078 54.8762 56.4306 54.9329 56.4494C54.9895 56.4683 55.3295 56.2417 55.6884 55.93C57.4545 54.4094 59.0507 52.2656 59.9384 50.1972C61.3834 46.8539 61.884 43.0289 61.3362 39.4589C60.8734 36.4272 59.2773 32.9044 57.3223 30.6C54.574 27.3511 50.9756 25.1317 47.0279 24.225C45.2523 23.8189 42.6362 23.63 41.1251 23.8Z" fill="#AEA5CC"/>
<path d="M41.739 37.1733C41.6068 37.1922 41.1818 37.2583 40.7946 37.3149C37.4607 37.8061 33.9568 40.4316 32.3418 43.6333C31.9073 44.4833 31.5201 45.6166 31.284 46.6744C31.1518 47.2788 31.114 47.8455 31.1234 49.1111C31.1234 50.5372 31.1612 50.9055 31.369 51.8027C31.6523 53.0305 32.0868 54.1922 32.474 54.7683L32.7479 55.1838L33.4373 54.2488C33.8151 53.7294 34.5896 52.6716 35.1657 51.8972C35.7323 51.1133 36.4218 50.1688 36.7051 49.8005C36.979 49.4227 37.5362 48.6577 37.9423 48.1005C38.3484 47.5338 39.2929 46.2494 40.039 45.2388C40.7851 44.2283 41.7673 42.8777 42.2301 42.2355C42.6929 41.6027 43.099 41.0833 43.1368 41.0833C43.1746 41.0833 43.864 41.9616 44.6668 43.0288C45.4696 44.0961 46.4612 45.3994 46.8579 45.9283C48.2934 47.8172 49.9368 49.9799 51.6557 52.2655C52.619 53.5405 53.4407 54.5699 53.4879 54.5605C53.5918 54.5227 54.0546 53.3422 54.3001 52.4638C56.1984 45.7111 52.2034 38.9299 45.4223 37.3905C44.6479 37.2111 42.2868 37.0694 41.739 37.1733Z" fill="#AEA5CC"/>
<path d="M42.3812 43.9072C42.0035 44.4172 41.2007 45.5033 40.6057 46.3249C40.0107 47.1466 39.1512 48.3083 38.7073 48.9127C36.9696 51.2738 34.0323 55.2877 33.7679 55.656C33.6168 55.8733 33.2107 56.4305 32.8612 56.9027C32.5118 57.3655 32.1529 57.866 32.0679 57.9983L31.9073 58.2533L33.2579 58.716C36.4029 59.821 40.294 60.5294 43.1557 60.5388C45.6112 60.5388 50.0973 59.7833 52.7418 58.9144C54.3096 58.4044 54.6779 58.2627 54.6779 58.1494C54.6779 58.0644 54.3662 57.6488 52.0901 54.6549C51.4573 53.8333 50.6546 52.766 50.2862 52.2749C49.9273 51.7838 48.7373 50.2066 47.6418 48.7805C46.5557 47.3449 45.1107 45.4466 44.4496 44.5683C43.779 43.6899 43.2029 42.9722 43.1557 42.9722C43.1179 42.9722 42.7685 43.3877 42.3812 43.9072Z" fill="#CAC1DE"/>
<path d="M27.6196 69.275C25.0412 69.7472 23.124 71.4566 22.5007 73.8555C22.2929 74.6677 22.2929 76.4811 22.5007 77.4444C22.699 78.3322 23.2657 79.5033 23.804 80.1644C24.1912 80.6366 25.4662 81.6 25.7118 81.6C25.7779 81.6 25.9479 81.6661 26.0896 81.7416C26.5523 81.9777 27.7235 82.1666 28.7718 82.1666C30.1696 82.1666 31.199 81.9683 32.0868 81.5338L32.814 81.175L32.8707 80.6555C32.899 80.3722 32.9085 80.1172 32.899 80.0983C32.8801 80.0794 32.6157 80.24 32.3135 80.4383C30.264 81.8077 27.7046 81.7888 26.0329 80.4005C24.7579 79.3427 24.1157 77.7088 24.144 75.6027C24.1723 73.7233 24.7107 72.2783 25.7779 71.2016C27.2229 69.7472 29.2346 69.4072 31.1329 70.3044C31.5201 70.4933 32.049 70.8238 32.304 71.0316C32.6251 71.2961 32.7762 71.3811 32.8046 71.2866C32.9651 70.8144 33.1635 69.9738 33.1257 69.9266C32.984 69.7944 31.3879 69.3222 30.7551 69.2372C29.7918 69.105 28.4507 69.1144 27.6196 69.275Z" fill="#AEA5CC"/>
<path d="M35.1468 75.6689L35.1752 81.9305L37.4418 81.9211C39.4629 81.9117 39.7935 81.8928 40.4452 81.7039C40.8513 81.5905 41.3424 81.4205 41.5313 81.3261C42.0318 81.0711 42.844 80.1739 43.1179 79.5694C43.3918 78.965 43.5052 77.945 43.354 77.3972C43.0802 76.3678 42.1735 75.5744 40.9835 75.31L40.3129 75.1589L41.0685 74.7905C41.8713 74.4033 42.2679 74.0067 42.6929 73.1944C42.8818 72.845 42.9196 72.6278 42.9196 71.9667C42.9196 71.2867 42.8818 71.0978 42.6835 70.7389C42.3624 70.1722 41.8429 69.8322 40.9457 69.6055C40.2846 69.4355 39.8879 69.4167 37.659 69.4167H35.1279L35.1468 75.6689ZM39.4252 70.1817C40.8229 70.4367 41.4557 71.2205 41.3329 72.5428C41.2763 73.2039 41.0024 73.7422 40.5018 74.1672C39.9163 74.6772 39.4157 74.8189 38.0368 74.8661L36.8279 74.9133V72.4955V70.0778H37.8479C38.4146 70.0778 39.1229 70.125 39.4252 70.1817ZM39.5196 75.7917C40.7757 76.0561 41.4746 76.7172 41.654 77.8033C41.8618 79.1255 41.3518 80.2211 40.2279 80.835C39.614 81.175 39.614 81.175 38.2257 81.2033L36.8374 81.2411L36.809 78.4833C36.7902 76.9722 36.7996 75.7067 36.8185 75.6878C36.9224 75.5933 38.9246 75.6689 39.5196 75.7917Z" fill="#AEA5CC"/>
<path d="M45.139 75.7067C45.139 79.1067 45.1295 81.9117 45.1201 81.9494C45.1012 81.9967 45.4601 82.0344 45.9229 82.0533L46.7445 82.0817V76.2828V70.4839L47.1507 70.4272C47.8401 70.3328 50.8529 70.465 51.4384 70.6067C51.6368 70.6633 51.6462 70.6444 51.6273 70.1061L51.6084 69.5583L48.3784 69.5394L45.139 69.5206V75.7067Z" fill="#AEA5CC"/>
<path d="M61.1377 69.5867L60.4671 69.615L58.4932 71.655C57.4071 72.7789 56.1793 74.0539 55.7638 74.4884C55.2538 75.0172 54.9421 75.2722 54.8004 75.2722H54.5832V72.4389V69.6056H53.7804H52.9777V75.8672V82.1289L53.7616 82.1195L54.536 82.11L54.5643 78.9272C54.5832 76.3584 54.6115 75.7445 54.7154 75.7445C54.8477 75.7445 59.1732 80.7689 59.7493 81.6L60.1177 82.1195H61.1282C61.6854 82.1195 62.1388 82.0817 62.1388 82.0345C62.1388 81.9117 60.486 79.9472 58.3421 77.52C57.2371 76.2734 56.321 75.225 56.3021 75.1872C56.2832 75.1306 58.1438 73.27 60.741 70.7578C61.3927 70.125 61.9027 69.5961 61.8743 69.5867C61.8365 69.5678 61.506 69.5678 61.1377 69.5867Z" fill="#AEA5CC"/>
</svg>
